999
DXF data, created by potrace 1.11, written by Peter Selinger 2001-2013
  0
SECTION
  2
HEADER
  9
$ACADVER
  1
AC1006
  9
$EXTMIN
 10
0.000000
 20
0.000000
 30
0.000000
  9
$EXTMAX
 10
1500.000000
 20
500.000000
 30
0.000000
  0
ENDSEC
  0
SECTION
  2
ENTITIES
  0
POLYLINE
  8
0
 66
1
 70
1
  0
VERTEX
  8
0
 10
188.000000
 20
407.000000
 42
0.000000
  0
VERTEX
  8
0
 10
188.000000
 20
370.000000
 42
0.000000
  0
VERTEX
  8
0
 10
190.440983
 20
370.000000
 42
-0.037634
  0
VERTEX
  8
0
 10
191.420660
 20
369.926158
 42
-0.041396
  0
VERTEX
  8
0
 10
192.346475
 20
369.706250
 42
-0.045439
  0
VERTEX
  8
0
 10
193.093337
 20
369.384508
 42
-0.130646
  0
VERTEX
  8
0
 10
193.500000
 20
369.000000
 42
0.130646
  0
VERTEX
  8
0
 10
193.906663
 20
368.615492
 42
0.045439
  0
VERTEX
  8
0
 10
194.653525
 20
368.293750
 42
0.041396
  0
VERTEX
  8
0
 10
195.579340
 20
368.073842
 42
0.037634
  0
VERTEX
  8
0
 10
196.559017
 20
368.000000
 42
-0.039081
  0
VERTEX
  8
0
 10
197.493720
 20
367.926830
 42
-0.058208
  0
VERTEX
  8
0
 10
198.282961
 20
367.706250
 42
-0.076538
  0
VERTEX
  8
0
 10
198.820624
 20
367.382793
 42
-0.222681
  0
VERTEX
  8
0
 10
199.000000
 20
367.000000
 42
0.151270
  0
VERTEX
  8
0
 10
199.118081
 20
366.618633
 42
0.098401
  0
VERTEX
  8
0
 10
199.450390
 20
366.293750
 42
0.081366
  0
VERTEX
  8
0
 10
199.947025
 20
366.074609
 42
0.063380
  0
VERTEX
  8
0
 10
200.533244
 20
366.000000
 42
-0.079956
  0
VERTEX
  8
0
 10
201.408868
 20
365.859076
 42
-0.012438
  0
VERTEX
  8
0
 10
203.065316
 20
365.265625
 42
-0.013581
  0
VERTEX
  8
0
 10
204.998731
 20
364.457164
 42
-0.011452
  0
VERTEX
  8
0
 10
207.000000
 20
363.500000
 42
0.011452
  0
VERTEX
  8
0
 10
209.001269
 20
362.542836
 42
0.013581
  0
VERTEX
  8
0
 10
210.934684
 20
361.734375
 42
0.012438
  0
VERTEX
  8
0
 10
212.591132
 20
361.140924
 42
0.079956
  0
VERTEX
  8
0
 10
213.466756
 20
361.000000
 42
-0.063380
  0
VERTEX
  8
0
 10
214.052975
 20
360.925391
 42
-0.081366
  0
VERTEX
  8
0
 10
214.549610
 20
360.706250
 42
-0.098401
  0
VERTEX
  8
0
 10
214.881919
 20
360.381367
 42
-0.151270
  0
VERTEX
  8
0
 10
215.000000
 20
360.000000
 42
0.148195
  0
VERTEX
  8
0
 10
215.115568
 20
359.618646
 42
0.098894
  0
VERTEX
  8
0
 10
215.440625
 20
359.293750
 42
0.082425
  0
VERTEX
  8
0
 10
215.926543
 20
359.074694
 42
0.064853
  0
VERTEX
  8
0
 10
216.500000
 20
359.000000
 42
-0.064853
  0
VERTEX
  8
0
 10
217.073457
 20
358.925306
 42
-0.082425
  0
VERTEX
  8
0
 10
217.559375
 20
358.706250
 42
-0.098894
  0
VERTEX
  8
0
 10
217.884432
 20
358.381354
 42
-0.148195
  0
VERTEX
  8
0
 10
218.000000
 20
358.000000
 42
0.152058
  0
VERTEX
  8
0
 10
218.118726
 20
357.618629
 42
0.098266
  0
VERTEX
  8
0
 10
218.452908
 20
357.293750
 42
0.081094
  0
VERTEX
  8
0
 10
218.952305
 20
357.074587
 42
0.063011
  0
VERTEX
  8
0
 10
219.541813
 20
357.000000
 42
-0.091681
  0
VERTEX
  8
0
 10
220.282083
 20
356.863113
 42
-0.032799
  0
VERTEX
  8
0
 10
221.261326
 20
356.412500
 42
-0.031223
  0
VERTEX
  8
0
 10
222.295150
 20
355.765390
 42
-0.032092
  0
VERTEX
  8
0
 10
223.230375
 20
355.000000
 42
0.027562
  0
VERTEX
  8
0
 10
224.148584
 20
354.234554
 42
0.028874
  0
VERTEX
  8
0
 10
225.131751
 20
353.587500
 42
0.030131
  0
VERTEX
  8
0
 10
226.040330
 20
353.132703
 42
0.101307
  0
VERTEX
  8
0
 10
226.688561
 20
353.000000
 42
-0.074660
  0
VERTEX
  8
0
 10
227.189641
 20
352.924760
 42
-0.088576
  0
VERTEX
  8
0
 10
227.614765
 20
352.706250
 42
-0.100668
  0
VERTEX
  8
0
 10
227.898958
 20
352.381353
 42
-0.130232
  0
VERTEX
  8
0
 10
228.000000
 20
352.000000
 42
0.191087
  0
VERTEX
  8
0
 10
228.151477
 20
351.618118
 42
0.088204
  0
VERTEX
  8
0
 10
228.587500
 20
351.293750
 42
0.068025
  0
VERTEX
  8
0
 10
229.234582
 20
351.073693
 42
0.048028
  0
VERTEX
  8
0
 10
230.000000
 20
351.000000
 42
-0.048028
  0
VERTEX
  8
0
 10
230.765418
 20
350.926307
 42
-0.068025
  0
VERTEX
  8
0
 10
231.412500
 20
350.706250
 42
-0.088204
  0
VERTEX
  8
0
 10
231.848523
 20
350.381882
 42
-0.191087
  0
VERTEX
  8
0
 10
232.000000
 20
350.000000
 42
0.173062
  0
VERTEX
  8
0
 10
232.136147
 20
349.618433
 42
0.093597
  0
VERTEX
  8
0
 10
232.522652
 20
349.293750
 42
0.073949
  0
VERTEX
  8
0
 10
233.098578
 20
349.074067
 42
0.054248
  0
VERTEX
  8
0
 10
233.779241
 20
349.000000
 42
-0.091287
  0
VERTEX
  8
0
 10
234.565449
 20
348.855253
 42
-0.047927
  0
VERTEX
  8
0
 10
235.459276
 20
348.412500
 42
-0.045499
  0
VERTEX
  8
0
 10
236.316802
 20
347.765149
 42
-0.052224
  0
VERTEX
  8
0
 10
237.000000
 20
347.000000
 42
0.039525
  0
VERTEX
  8
0
 10
237.649192
 20
346.234753
 42
0.040429
  0
VERTEX
  8
0
 10
238.406132
 20
345.587500
 42
0.043713
  0
VERTEX
  8
0
 10
239.154182
 20
345.139850
 42
0.113455
  0
VERTEX
  8
0
 10
239.762573
 20
345.000000
 42
-0.095905
  0
VERTEX
  8
0
 10
240.404888
 20
344.875654
 42
-0.031687
  0
VERTEX
  8
0
 10
241.275743
 20
344.459484
 42
-0.030212
  0
VERTEX
  8
0
 10
242.205459
 20
343.864143
 42
-0.030024
  0
VERTEX
  8
0
 10
243.058693
 20
343.159946
 42
0.023734
  0
VERTEX
  8
0
 10
244.011180
 20
342.353490
 42
0.012733
  0
VERTEX
  8
0
 10
245.256437
 20
341.446236
 42
0.012653
  0
VERTEX
  8
0
 10
246.576444
 20
340.583533
 42
0.019328
  0
VERTEX
  8
0
 10
247.766879
 20
339.909946
 42
-0.017744
  0
VERTEX
  8
0
 10
248.954752
 20
339.242767
 42
-0.011870
  0
VERTEX
  8
0
 10
250.266598
 20
338.400109
 42
-0.011961
  0
VERTEX
  8
0
 10
251.500516
 20
337.521745
 42
-0.022945
  0
VERTEX
  8
0
 10
252.438561
 20
336.750000
 42
0.026831
  0
VERTEX
  8
0
 10
253.265672
 20
336.080226
 42
0.028111
  0
VERTEX
  8
0
 10
254.147378
 20
335.514063
 42
0.029247
  0
VERTEX
  8
0
 10
254.959265
 20
335.115717
 42
0.099743
  0
VERTEX
  8
0
 10
255.533574
 20
335.000000
 42
-0.115543
  0
VERTEX
  8
0
 10
256.099596
 20
334.867430
 42
-0.033281
  0
VERTEX
  8
0
 10
256.881998
 20
334.412500
 42
-0.031563
  0
VERTEX
  8
0
 10
257.722097
 20
333.765444
 42
-0.028962
  0
VERTEX
  8
0
 10
258.500000
 20
333.000000
 42
0.033439
  0
VERTEX
  8
0
 10
259.291860
 20
332.234645
 42
0.034148
  0
VERTEX
  8
0
 10
260.173392
 20
331.587500
 42
0.036283
  0
VERTEX
  8
0
 10
261.013640
 20
331.136671
 42
0.105367
  0
VERTEX
  8
0
 10
261.654988
 20
331.000000
 42
-0.063490
  0
VERTEX
  8
0
 10
262.169235
 20
330.934437
 42
-0.081446
  0
VERTEX
  8
0
 10
262.604903
 20
330.741888
 42
-0.098440
  0
VERTEX
  8
0
 10
262.896412
 20
330.456419
 42
-0.151038
  0
VERTEX
  8
0
 10
263.000000
 20
330.121320
 42
0.201796
  0
VERTEX
  8
0
 10
263.173477
 20
329.708992
 42
0.036327
  0
VERTEX
  8
0
 10
263.823410
 20
329.159685
 42
0.034115
  0
VERTEX
  8
0
 10
264.729661
 20
328.590427
 42
0.024994
  0
VERTEX
  8
0
 10
265.803099
 20
328.081559
 42
-0.028525
  0
VERTEX
  8
0
 10
267.053417
 20
327.477998
 42
-0.016020
  0
VERTEX
  8
0
 10
268.501565
 20
326.612287
 42
-0.015946
  0
VERTEX
  8
0
 10
269.912542
 20
325.641318
 42
-0.025006
  0
VERTEX
  8
0
 10
271.053099
 20
324.710239
 42
0.019260
  0
VERTEX
  8
0
 10
272.189496
 20
323.760600
 42
0.011995
  0
VERTEX
  8
0
 10
273.589035
 20
322.732432
 42
0.012033
  0
VERTEX
  8
0
 10
275.020074
 20
321.783470
 42
0.021285
  0
VERTEX
  8
0
 10
276.250000
 20
321.081020
 42
-0.022236
  0
VERTEX
  8
0
 10
277.303134
 20
320.476882
 42
-0.030119
  0
VERTEX
  8
0
 10
278.192187
 20
319.834754
 42
-0.030557
  0
VERTEX
  8
0
 10
278.836720
 20
319.238121
 42
-0.193066
  0
VERTEX
  8
0
 10
279.000000
 20
318.831020
 42
0.151833
  0
VERTEX
  8
0
 10
279.098510
 20
318.514094
 42
0.098305
  0
VERTEX
  8
0
 10
279.375777
 20
318.244112
 42
0.081172
  0
VERTEX
  8
0
 10
279.790129
 20
318.061989
 42
0.063116
  0
VERTEX
  8
0
 10
280.279241
 20
318.000000
 42
-0.115942
  0
VERTEX
  8
0
 10
280.871239
 20
317.860855
 42
-0.043072
  0
VERTEX
  8
0
 10
281.606151
 20
317.412500
 42
-0.039803
  0
VERTEX
  8
0
 10
282.353917
 20
316.765268
 42
-0.038332
  0
VERTEX
  8
0
 10
283.000000
 20
316.000000
 42
0.031044
  0
VERTEX
  8
0
 10
283.627516
 20
315.234383
 42
0.035284
  0
VERTEX
  8
0
 10
284.320412
 20
314.586811
 42
0.037896
  0
VERTEX
  8
0
 10
284.977824
 20
314.131912
 42
0.132586
  0
VERTEX
  8
0
 10
285.470759
 20
313.997654
 42
-0.131181
  0
VERTEX
  8
0
 10
286.056974
 20
313.839728
 42
-0.015160
  0
VERTEX
  8
0
 10
287.225786
 20
313.116125
 42
-0.017413
  0
VERTEX
  8
0
 10
288.584436
 20
312.147239
 42
-0.013388
  0
VERTEX
  8
0
 10
290.000000
 20
311.000000
 42
0.013388
  0
VERTEX
  8
0
 10
291.415564
 20
309.852761
 42
0.017413
  0
VERTEX
  8
0
 10
292.774214
 20
308.883875
 42
0.015160
  0
VERTEX
  8
0
 10
293.943026
 20
308.160272
 42
0.131181
  0
VERTEX
  8
0
 10
294.529241
 20
308.002346
 42
-0.132586
  0
VERTEX
  8
0
 10
295.022176
 20
307.868088
 42
-0.037896
  0
VERTEX
  8
0
 10
295.679588
 20
307.413189
 42
-0.035284
  0
VERTEX
  8
0
 10
296.372484
 20
306.765617
 42
-0.031044
  0
VERTEX
  8
0
 10
297.000000
 20
306.000000
 42
0.032893
  0
VERTEX
  8
0
 10
297.632073
 20
305.234606
 42
0.036577
  0
VERTEX
  8
0
 10
298.338459
 20
304.587500
 42
0.039468
  0
VERTEX
  8
0
 10
299.014704
 20
304.135096
 42
0.128378
  0
VERTEX
  8
0
 10
299.532198
 20
304.000000
 42
-0.105881
  0
VERTEX
  8
0
 10
300.079648
 20
303.882757
 42
-0.028563
  0
VERTEX
  8
0
 10
300.871942
 20
303.471224
 42
-0.027586
  0
VERTEX
  8
0
 10
301.739185
 20
302.888886
 42
-0.025478
  0
VERTEX
  8
0
 10
302.561439
 20
302.199913
 42
0.022046
  0
VERTEX
  8
0
 10
303.532563
 20
301.374795
 42
0.009687
  0
VERTEX
  8
0
 10
304.885235
 20
300.365917
 42
0.009566
  0
VERTEX
  8
0
 10
306.363772
 20
299.349332
 42
0.012655
  0
VERTEX
  8
0
 10
307.750000
 20
298.484305
 42
-0.016694
  0
VERTEX
  8
0
 10
308.994912
 20
297.693422
 42
-0.023469
  0
VERTEX
  8
0
 10
310.045313
 20
296.901054
 42
-0.021058
  0
VERTEX
  8
0
 10
310.829294
 20
296.191911
 42
-0.200985
  0
VERTEX
  8
0
 10
311.000000
 20
295.784392
 42
0.156706
  0
VERTEX
  8
0
 10
311.096154
 20
295.485129
 42
0.097286
  0
VERTEX
  8
0
 10
311.367188
 20
295.230056
 42
0.079411
  0
VERTEX
  8
0
 10
311.772002
 20
295.057653
 42
0.060863
  0
VERTEX
  8
0
 10
312.250000
 20
294.998779
 42
-0.113170
  0
VERTEX
  8
0
 10
312.911510
 20
294.846429
 42
-0.022469
  0
VERTEX
  8
0
 10
313.986315
 20
294.263900
 42
-0.022734
  0
VERTEX
  8
0
 10
315.201467
 20
293.455451
 42
-0.019441
  0
VERTEX
  8
0
 10
316.405539
 20
292.498779
 42
0.012580
  0
VERTEX
  8
0
 10
317.576648
 20
291.541797
 42
0.016637
  0
VERTEX
  8
0
 10
318.692284
 20
290.734016
 42
0.014047
  0
VERTEX
  8
0
 10
319.649444
 20
290.126800
 42
0.135122
  0
VERTEX
  8
0
 10
320.110085
 20
290.000000
 42
-0.145910
  0
VERTEX
  8
0
 10
320.555263
 20
289.867262
 42
-0.017233
  0
VERTEX
  8
0
 10
321.408758
 20
289.265625
 42
-0.019443
  0
VERTEX
  8
0
 10
322.393304
 20
288.457405
 42
-0.014790
  0
VERTEX
  8
0
 10
323.409091
 20
287.500000
 42
0.024203
  0
VERTEX
  8
0
 10
324.463436
 20
286.543070
 42
0.027424
  0
VERTEX
  8
0
 10
325.563845
 20
285.734375
 42
0.028202
  0
VERTEX
  8
0
 10
326.562041
 20
285.159467
 42
0.117070
  0
VERTEX
  8
0
 10
327.233786
 20
285.000000
 42
-0.113243
  0
VERTEX
  8
0
 10
327.843602
 20
284.860091
 42
-0.043766
  0
VERTEX
  8
0
 10
328.592798
 20
284.412500
 42
-0.040482
  0
VERTEX
  8
0
 10
329.350538
 20
283.765245
 42
-0.039628
  0
VERTEX
  8
0
 10
330.000000
 20
283.000000
 42
0.034062
  0
VERTEX
  8
0
 10
330.635061
 20
282.234637
 42
0.037324
  0
VERTEX
  8
0
 10
331.350282
 20
281.587500
 42
0.040344
  0
VERTEX
  8
0
 10
332.038954
 20
281.136099
 42
0.125545
  0
VERTEX
  8
0
 10
332.572445
 20
281.000000
 42
-0.134328
  0
VERTEX
  8
0
 10
333.190003
 20
280.831041
 42
-0.019584
  0
VERTEX
  8
0
 10
334.293306
 20
280.118750
 42
-0.020978
  0
VERTEX
  8
0
 10
335.557770
 20
279.148717
 42
-0.016599
  0
VERTEX
  8
0
 10
336.842584
 20
278.000000
 42
0.012599
  0
VERTEX
  8
0
 10
338.107239
 20
276.850975
 42
0.017009
  0
VERTEX
  8
0
 10
339.310549
 20
275.881250
 42
0.014073
  0
VERTEX
  8
0
 10
340.345222
 20
275.148572
 42
0.148072
  0
VERTEX
  8
0
 10
340.835911
 20
275.000000
 42
-0.135515
  0
VERTEX
  8
0
 10
341.277529
 20
274.878069
 42
-0.026303
  0
VERTEX
  8
0
 10
341.970809
 20
274.412500
 42
-0.026217
  0
VERTEX
  8
0
 10
342.744402
 20
273.765674
 42
-0.021609
  0
VERTEX
  8
0
 10
343.500000
 20
273.000000
 42
0.029303
  0
VERTEX
  8
0
 10
344.278957
 20
272.234564
 42
0.031777
  0
VERTEX
  8
0
 10
345.122188
 20
271.587500
 42
0.033541
  0
VERTEX
  8
0
 10
345.908914
 20
271.132932
 42
0.114719
  0
VERTEX
  8
0
 10
346.480674
 20
271.000000
 42
-0.127733
  0
VERTEX
  8
0
 10
347.080428
 20
270.844242
 42
-0.027374
  0
VERTEX
  8
0
 10
347.997389
 20
270.265625
 42
-0.026922
  0
VERTEX
  8
0
 10
349.014939
 20
269.457015
 42
-0.022829
  0
VERTEX
  8
0
 10
350.000000
 20
268.500000
 42
0.028211
  0
VERTEX
  8
0
 10
351.006292
 20
267.543183
 42
0.030694
  0
VERTEX
  8
0
 10
352.087121
 20
266.734375
 42
0.032237
  0
VERTEX
  8
0
 10
353.089272
 20
266.165089
 42
0.113523
  0
VERTEX
  8
0
 10
353.807019
 20
266.000000
 42
-0.091370
  0
VERTEX
  8
0
 10
354.480980
 20
265.875803
 42
-0.039061
  0
VERTEX
  8
0
 10
355.312087
 20
265.481941
 42
-0.036961
  0
VERTEX
  8
0
 10
356.156164
 20
264.911241
 42
-0.040081
  0
VERTEX
  8
0
 10
356.882705
 20
264.236394
 42
0.029621
  0
VERTEX
  8
0
 10
357.756014
 20
263.390552
 42
0.009959
  0
VERTEX
  8
0
 10
359.124475
 20
262.260469
 42
0.009869
  0
VERTEX
  8
0
 10
360.691472
 20
261.067688
 42
0.011140
  0
VERTEX
  8
0
 10
362.243167
 20
259.986394
 42
-0.012881
  0
VERTEX
  8
0
 10
363.677706
 20
258.979306
 42
-0.018544
  0
VERTEX
  8
0
 10
364.888786
 20
258.010066
 42
-0.014542
  0
VERTEX
  8
0
 10
365.817304
 20
257.160378
 42
-0.200501
  0
VERTEX
  8
0
 10
365.993167
 20
256.750000
 42
0.165979
  0
VERTEX
  8
0
 10
366.093767
 20
256.463850
 42
0.094231
  0
VERTEX
  8
0
 10
366.373770
 20
256.220312
 42
0.075548
  0
VERTEX
  8
0
 10
366.789431
 20
256.055668
 42
0.056644
  0
VERTEX
  8
0
 10
367.279241
 20
256.000000
 42
-0.115942
  0
VERTEX
  8
0
 10
367.871239
 20
255.860855
 42
-0.043072
  0
VERTEX
  8
0
 10
368.606151
 20
255.412500
 42
-0.039803
  0
VERTEX
  8
0
 10
369.353917
 20
254.765268
 42
-0.038332
  0
VERTEX
  8
0
 10
370.000000
 20
254.000000
 42
0.038332
  0
VERTEX
  8
0
 10
370.646083
 20
253.234732
 42
0.039803
  0
VERTEX
  8
0
 10
371.393849
 20
252.587500
 42
0.043072
  0
VERTEX
  8
0
 10
372.128761
 20
252.139145
 42
0.115942
  0
VERTEX
  8
0
 10
372.720759
 20
252.000000
 42
-0.076630
  0
VERTEX
  8
0
 10
373.209482
 20
251.924656
 42
-0.089631
  0
VERTEX
  8
0
 10
373.624223
 20
251.706250
 42
-0.100760
  0
VERTEX
  8
0
 10
373.901479
 20
251.381366
 42
-0.127083
  0
VERTEX
  8
0
 10
374.000000
 20
251.000000
 42
0.147407
  0
VERTEX
  8
0
 10
374.114925
 20
250.618649
 42
0.099013
  0
VERTEX
  8
0
 10
374.438136
 20
250.293750
 42
0.082696
  0
VERTEX
  8
0
 10
374.921323
 20
250.074717
 42
0.065239
  0
VERTEX
  8
0
 10
375.491526
 20
250.000000
 42
-0.107418
  0
VERTEX
  8
0
 10
376.153239
 20
249.856181
 42
-0.050645
  0
VERTEX
  8
0
 10
376.911816
 20
249.412500
 42
-0.046919
  0
VERTEX
  8
0
 10
377.643741
 20
248.765087
 42
-0.048682
  0
VERTEX
  8
0
 10
378.232073
 20
248.000000
 42
0.045604
  0
VERTEX
  8
0
 10
378.812994
 20
247.234871
 42
0.045567
  0
VERTEX
  8
0
 10
379.523140
 20
246.587500
 42
0.049526
  0
VERTEX
  8
0
 10
380.250024
 20
246.142698
 42
0.113021
  0
VERTEX
  8
0
 10
380.873251
 20
246.000000
 42
-0.098419
  0
VERTEX
  8
0
 10
381.521205
 20
245.871210
 42
-0.039291
  0
VERTEX
  8
0
 10
382.331543
 20
245.458612
 42
-0.036949
  0
VERTEX
  8
0
 10
383.161045
 20
244.862204
 42
-0.038347
  0
VERTEX
  8
0
 10
383.882705
 20
244.156977
 42
0.030767
  0
VERTEX
  8
0
 10
384.675117
 20
243.358796
 42
0.017027
  0
VERTEX
  8
0
 10
385.731647
 20
242.480639
 42
0.016925
  0
VERTEX
  8
0
 10
386.866749
 20
241.660708
 42
0.026057
  0
VERTEX
  8
0
 10
387.905880
 20
241.038369
 42
-0.020308
  0
VERTEX
  8
0
 10
388.978695
 20
240.412493
 42
-0.011693
  0
VERTEX
  8
0
 10
390.220180
 20
239.577438
 42
-0.011671
  0
VERTEX
  8
0
 10
391.429716
 20
238.679058
 42
-0.019093
  0
VERTEX
  8
0
 10
392.405880
 20
237.856234
 42
0.021255
  0
VERTEX
  8
0
 10
393.565923
 20
236.886963
 42
0.005621
  0
VERTEX
  8
0
 10
395.500477
 20
235.439679
 42
0.005693
  0
VERTEX
  8
0
 10
397.740745
 20
233.841445
 42
0.005825
  0
VERTEX
  8
0
 10
400.000000
 20
232.306943
 42
-0.008632
  0
VERTEX
  8
0
 10
402.224233
 20
230.777907
 42
-0.009046
  0
VERTEX
  8
0
 10
404.359456
 20
229.196077
 42
-0.008766
  0
VERTEX
  8
0
 10
406.152482
 20
227.766105
 42
-0.039229
  0
VERTEX
  8
0
 10
407.117295
 20
226.832100
 42
0.032456
  0
VERTEX
  8
0
 10
407.822207
 20
226.130981
 42
0.033929
  0
VERTEX
  8
0
 10
408.602034
 20
225.538179
 42
0.036081
  0
VERTEX
  8
0
 10
409.341875
 20
225.124328
 42
0.109911
  0
VERTEX
  8
0
 10
409.900629
 20
225.000000
 42
-0.143782
  0
VERTEX
  8
0
 10
410.545465
 20
224.810653
 42
-0.018090
  0
VERTEX
  8
0
 10
411.752268
 20
223.971875
 42
-0.020056
  0
VERTEX
  8
0
 10
413.141109
 20
222.840313
 42
-0.015406
  0
VERTEX
  8
0
 10
414.566667
 20
221.500000
 42
0.011742
  0
VERTEX
  8
0
 10
415.971812
 20
220.159344
 42
0.016205
  0
VERTEX
  8
0
 10
417.298530
 20
219.028125
 42
0.012795
  0
VERTEX
  8
0
 10
418.438396
 20
218.165128
 42
0.156879
  0
VERTEX
  8
0
 10
418.951734
 20
218.000000
 42
-0.158791
  0
VERTEX
  8
0
 10
419.480810
 20
217.827629
 42
-0.010039
  0
VERTEX
  8
0
 10
420.799752
 20
216.825000
 42
-0.013962
  0
VERTEX
  8
0
 10
422.340730
 20
215.532361
 42
-0.009877
  0
VERTEX
  8
0
 10
424.000000
 20
214.000000
 42
0.007422
  0
VERTEX
  8
0
 10
425.643700
 20
212.466999
 42
0.010912
  0
VERTEX
  8
0
 10
427.136602
 20
211.173651
 42
0.006478
  0
VERTEX
  8
0
 10
428.416251
 20
210.140706
 42
0.166332
  0
VERTEX
  8
0
 10
428.831599
 20
209.995406
 42
-0.194328
  0
VERTEX
  8
0
 10
430.240043
 20
209.415235
 42
-0.001175
  0
VERTEX
  8
0
 10
440.353149
 20
199.471285
 42
-0.001154
  0
VERTEX
  8
0
 10
450.428651
 20
189.471566
 42
-0.199294
  0
VERTEX
  8
0
 10
451.000000
 20
188.095065
 42
0.090142
  0
VERTEX
  8
0
 10
451.075990
 20
187.676990
 42
0.095402
  0
VERTEX
  8
0
 10
451.293750
 20
187.321675
 42
0.099731
  0
VERTEX
  8
0
 10
451.618487
 20
187.083939
 42
0.108709
  0
VERTEX
  8
0
 10
452.000000
 20
187.000000
 42
-0.148195
  0
VERTEX
  8
0
 10
452.381354
 20
186.884432
 42
-0.098894
  0
VERTEX
  8
0
 10
452.706250
 20
186.559375
 42
-0.082425
  0
VERTEX
  8
0
 10
452.925306
 20
186.073457
 42
-0.064853
  0
VERTEX
  8
0
 10
453.000000
 20
185.500000
 42
0.064853
  0
VERTEX
  8
0
 10
453.074694
 20
184.926543
 42
0.082425
  0
VERTEX
  8
0
 10
453.293750
 20
184.440625
 42
0.098894
  0
VERTEX
  8
0
 10
453.618646
 20
184.115568
 42
0.148195
  0
VERTEX
  8
0
 10
454.000000
 20
184.000000
 42
-0.186414
  0
VERTEX
  8
0
 10
454.381787
 20
183.852535
 42
-0.089706
  0
VERTEX
  8
0
 10
454.706250
 20
183.429836
 42
-0.069539
  0
VERTEX
  8
0
 10
454.926216
 20
182.801778
 42
-0.049547
  0
VERTEX
  8
0
 10
455.000000
 20
182.059017
 42
0.046881
  0
VERTEX
  8
0
 10
455.074077
 20
181.270704
 42
0.046318
  0
VERTEX
  8
0
 10
455.293750
 20
180.506650
 42
0.050262
  0
VERTEX
  8
0
 10
455.616444
 20
179.876024
 42
0.111412
  0
VERTEX
  8
0
 10
456.000000
 20
179.500000
 42
-0.191053
  0
VERTEX
  8
0
 10
456.390366
 20
178.975332
 42
-0.022964
  0
VERTEX
  8
0
 10
456.705891
 20
177.538662
 42
-0.024698
  0
VERTEX
  8
0
 10
456.926299
 20
175.724268
 42
-0.017935
  0
VERTEX
  8
0
 10
456.998779
 20
173.690983
 42
-0.021855
  0
VERTEX
  8
0
 10
456.880396
 20
170.998471
 42
-0.050536
  0
VERTEX
  8
0
 10
456.501272
 20
169.012467
 42
-0.060205
  0
VERTEX
  8
0
 10
455.784752
 20
167.363349
 42
-0.045069
  0
VERTEX
  8
0
 10
454.632429
 20
165.750000
 42
-0.031095
  0
VERTEX
  8
0
 10
453.606872
 20
164.697570
 42
-0.033445
  0
VERTEX
  8
0
 10
452.482173
 20
163.807812
 42
-0.035548
  0
VERTEX
  8
0
 10
451.422038
 20
163.184719
 42
-0.115585
  0
VERTEX
  8
0
 10
450.633651
 20
163.000000
 42
0.059308
  0
VERTEX
  8
0
 10
450.008884
 20
162.925631
 42
0.078242
  0
VERTEX
  8
0
 10
449.479885
 20
162.706250
 42
0.096657
  0
VERTEX
  8
0
 10
449.125571
 20
162.381427
 42
0.160374
  0
VERTEX
  8
0
 10
449.000000
 20
162.000000
 42
-0.277684
  0
VERTEX
  8
0
 10
448.767902
 20
161.614308
 42
-0.052312
  0
VERTEX
  8
0
 10
447.971875
 20
161.293750
 42
-0.042582
  0
VERTEX
  8
0
 10
446.841111
 20
161.072542
 42
-0.027026
  0
VERTEX
  8
0
 10
445.500000
 20
161.000000
 42
0.027026
  0
VERTEX
  8
0
 10
444.158889
 20
160.927458
 42
0.042582
  0
VERTEX
  8
0
 10
443.028125
 20
160.706250
 42
0.052312
  0
VERTEX
  8
0
 10
442.232098
 20
160.385692
 42
0.277684
  0
VERTEX
  8
0
 10
442.000000
 20
160.000000
 42
-0.371083
  0
VERTEX
  8
0
 10
441.632804
 20
159.573367
 42
-0.012451
  0
VERTEX
  8
0
 10
439.250000
 20
159.275000
 42
-0.016864
  0
VERTEX
  8
0
 10
436.081547
 20
159.065757
 42
-0.008055
  0
VERTEX
  8
0
 10
432.000000
 20
159.000000
 42
0.008055
  0
VERTEX
  8
0
 10
427.918453
 20
158.934243
 42
0.016864
  0
VERTEX
  8
0
 10
424.750000
 20
158.725000
 42
0.012451
  0
VERTEX
  8
0
 10
422.367196
 20
158.426633
 42
0.371083
  0
VERTEX
  8
0
 10
422.000000
 20
158.000000
 42
-0.401255
  0
VERTEX
  8
0
 10
421.552017
 20
157.531650
 42
-0.002187
  0
VERTEX
  8
0
 10
414.750000
 20
157.258929
 42
-0.006429
  0
VERTEX
  8
0
 10
406.048356
 20
157.060140
 42
-0.002496
  0
VERTEX
  8
0
 10
394.000000
 20
157.000000
 42
0.002496
  0
VERTEX
  8
0
 10
381.951644
 20
156.939860
 42
0.006429
  0
VERTEX
  8
0
 10
373.250000
 20
156.741071
 42
0.002187
  0
VERTEX
  8
0
 10
366.447983
 20
156.468350
 42
0.401255
  0
VERTEX
  8
0
 10
366.000000
 20
156.000000
 42
-0.410645
  0
VERTEX
  8
0
 10
365.516739
 20
155.510807
 42
-0.000241
  0
VERTEX
  8
0
 10
343.500000
 20
155.252809
 42
-0.002067
  0
VERTEX
  8
0
 10
316.068492
 20
155.057987
 42
-0.000742
  0
VERTEX
  8
0
 10
277.000000
 20
155.000000
 42
0.000000
  0
VERTEX
  8
0
 10
188.000000
 20
155.000000
 42
0.000000
  0
VERTEX
  8
0
 10
188.000000
 20
105.500000
 42
0.000000
  0
VERTEX
  8
0
 10
188.000000
 20
56.000000
 42
0.000000
  0
VERTEX
  8
0
 10
769.000000
 20
56.000000
 42
0.000000
  0
VERTEX
  8
0
 10
1350.000000
 20
56.000000
 42
0.000000
  0
VERTEX
  8
0
 10
1350.000000
 20
91.571429
 42
0.001399
  0
VERTEX
  8
0
 10
1349.928473
 20
117.136472
 42
0.031772
  0
VERTEX
  8
0
 10
1349.420938
 20
124.467663
 42
0.125705
  0
VERTEX
  8
0
 10
1347.911365
 20
128.217277
 42
0.115914
  0
VERTEX
  8
0
 10
1344.750000
 20
130.918980
 42
-0.022236
  0
VERTEX
  8
0
 10
1343.696866
 20
131.523118
 42
-0.030119
  0
VERTEX
  8
0
 10
1342.807812
 20
132.165246
 42
-0.030557
  0
VERTEX
  8
0
 10
1342.163280
 20
132.761879
 42
-0.193066
  0
VERTEX
  8
0
 10
1342.000000
 20
133.168980
 42
0.127736
  0
VERTEX
  8
0
 10
1341.917693
 20
133.485900
 42
0.100747
  0
VERTEX
  8
0
 10
1341.686096
 20
133.755888
 42
0.089413
  0
VERTEX
  8
0
 10
1341.339654
 20
133.937405
 42
0.076214
  0
VERTEX
  8
0
 10
1340.931391
 20
134.000000
 42
-0.192911
  0
VERTEX
  8
0
 10
1339.071416
 20
134.745356
 42
-0.001636
  0
VERTEX
  8
0
 10
1327.692364
 20
145.681434
 42
-0.005394
  0
VERTEX
  8
0
 10
1317.325927
 20
155.928533
 42
-0.032152
  0
VERTEX
  8
0
 10
1312.335337
 20
161.663362
 42
0.007115
  0
VERTEX
  8
0
 10
1309.720641
 20
164.990487
 42
0.009824
  0
VERTEX
  8
0
 10
1307.273790
 20
167.895822
 42
0.008894
  0
VERTEX
  8
0
 10
1304.534742
 20
170.911418
 42
0.004517
  0
VERTEX
  8
0
 10
1300.988469
 20
174.611314
 42
-0.006420
  0
VERTEX
  8
0
 10
1299.076850
 20
176.620992
 42
-0.009628
  0
VERTEX
  8
0
 10
1297.465363
 20
178.427865
 42
-0.005065
  0
VERTEX
  8
0
 10
1296.159443
 20
179.981721
 42
-0.173919
  0
VERTEX
  8
0
 10
1296.000000
 20
180.426238
 42
0.176326
  0
VERTEX
  8
0
 10
1295.840371
 20
180.864816
 42
0.005781
  0
VERTEX
  8
0
 10
1294.604687
 20
182.303343
 42
0.010416
  0
VERTEX
  8
0
 10
1293.070178
 20
183.976892
 42
0.006984
  0
VERTEX
  8
0
 10
1291.250000
 20
185.828336
 42
-0.010225
  0
VERTEX
  8
0
 10
1289.248240
 20
187.891059
 42
-0.008027
  0
VERTEX
  8
0
 10
1287.160937
 20
190.205243
 42
-0.008128
  0
VERTEX
  8
0
 10
1285.288871
 20
192.420690
 42
-0.019710
  0
VERTEX
  8
0
 10
1284.000000
 20
194.130566
 42
0.022746
  0
VERTEX
  8
0
 10
1281.138345
 20
197.879411
 42
0.005748
  0
VERTEX
  8
0
 10
1276.143908
 20
203.702231
 42
0.005910
  0
VERTEX
  8
0
 10
1270.334687
 20
210.163818
 42
0.006316
  0
VERTEX
  8
0
 10
1264.500000
 20
216.342933
 42
-0.007740
  0
VERTEX
  8
0
 10
1262.457553
 20
218.518323
 42
-0.007433
  0
VERTEX
  8
0
 10
1260.455205
 20
220.785070
 42
-0.007387
  0
VERTEX
  8
0
 10
1258.749270
 20
222.835665
 42
-0.026524
  0
VERTEX
  8
0
 10
1257.751762
 20
224.215051
 42
0.026259
  0
VERTEX
  8
0
 10
1256.718595
 20
225.645343
 42
0.006080
  0
VERTEX
  8
0
 10
1254.827489
 20
227.935570
 42
0.006261
  0
VERTEX
  8
0
 10
1252.581991
 20
230.522221
 42
0.006089
  0
VERTEX
  8
0
 10
1250.251762
 20
233.076235
 42
-0.002979
  0
VERTEX
  8
0
 10
1247.903041
 20
235.618583
 42
-0.003046
  0
VERTEX
  8
0
 10
1245.602080
 20
238.170240
 42
-0.002953
  0
VERTEX
  8
0
 10
1243.630694
 20
240.409867
 42
-0.012711
  0
VERTEX
  8
0
 10
1242.500000
 20
241.778575
 42
0.016853
  0
VERTEX
  8
0
 10
1241.354577
 20
243.141957
 42
0.003846
  0
VERTEX
  8
0
 10
1239.322011
 20
245.367390
 42
0.003975
  0
VERTEX
  8
0
 10
1236.937470
 20
247.897556
 42
0.003860
  0
VERTEX
  8
0
 10
1234.489824
 20
250.414466
 42
-0.007409
  0
VERTEX
  8
0
 10
1232.009870
 20
253.001076
 42
-0.006751
  0
VERTEX
  8
0
 10
1229.528401
 20
255.740499
 42
-0.006770
  0
VERTEX
  8
0
 10
1227.376764
 20
258.248902
 42
-0.021667
  0
VERTEX
  8
0
 10
1226.039696
 20
260.000000
 42
0.019585
  0
VERTEX
  8
0
 10
1224.709698
 20
261.756950
 42
0.006123
  0
VERTEX
  8
0
 10
1222.582481
 20
264.285692
 42
0.006108
  0
VERTEX
  8
0
 10
1220.135682
 20
267.053958
 42
0.006714
  0
VERTEX
  8
0
 10
1217.696767
 20
269.674698
 42
-0.004644
  0
VERTEX
  8
0
 10
1215.318438
 20
272.209219
 42
-0.005048
  0
VERTEX
  8
0
 10
1213.053517
 20
274.718635
 42
-0.004756
  0
VERTEX
  8
0
 10
1211.156244
 20
276.905437
 42
-0.024554
  0
VERTEX
  8
0
 10
1210.179248
 20
278.174698
 42
0.027292
  0
VERTEX
  8
0
 10
1209.216004
 20
279.412025
 42
0.005919
  0
VERTEX
  8
0
 10
1207.413850
 20
281.434342
 42
0.006156
  0
VERTEX
  8
0
 10
1205.268779
 20
283.727496
 42
0.005856
  0
VERTEX
  8
0
 10
1203.032354
 20
286.006041
 42
-0.010227
  0
VERTEX
  8
0
 10
1200.593113
 20
288.535069
 42
-0.006335
  0
VERTEX
  8
0
 10
1197.827665
 20
291.599214
 42
-0.006353
  0
VERTEX
  8
0
 10
1195.172678
 20
294.695430
 42
-0.011376
  0
VERTEX
  8
0
 10
1193.083103
 20
297.314742
 42
0.008056
  0
VERTEX
  8
0
 10
1191.237289
 20
299.660273
 42
0.008427
  0
VERTEX
  8
0
 10
1189.343798
 20
301.909690
 42
0.008160
  0
VERTEX
  8
0
 10
1187.645314
 20
303.796694
 42
0.036507
  0
VERTEX
  8
0
 10
1186.556006
 20
304.808701
 42
-0.030217
  0
VERTEX
  8
0
 10
1185.514312
 20
305.752367
 42
-0.009073
  0
VERTEX
  8
0
 10
1184.045513
 20
307.309625
 42
-0.009058
  0
VERTEX
  8
0
 10
1182.457340
 20
309.120716
 42
-0.009708
  0
VERTEX
  8
0
 10
1180.972904
 20
310.947467
 42
0.010093
  0
VERTEX
  8
0
 10
1179.287492
 20
313.018271
 42
0.004877
  0
VERTEX
  8
0
 10
1177.051415
 20
315.603554
 42
0.004834
  0
VERTEX
  8
0
 10
1174.667981
 20
318.253395
 42
0.006923
  0
VERTEX
  8
0
 10
1172.500000
 20
320.552595
 42
-0.005927
  0
VERTEX
  8
0
 10
1170.330012
 20
322.844757
 42
-0.004166
  0
VERTEX
  8
0
 10
1167.940625
 20
325.472948
 42
-0.004203
  0
VERTEX
  8
0
 10
1165.695510
 20
328.027058
 42
-0.008784
  0
VERTEX
  8
0
 10
1164.000000
 20
330.060058
 42
0.007937
  0
VERTEX
  8
0
 10
1162.289202
 20
332.118470
 42
0.003599
  0
VERTEX
  8
0
 10
1159.987837
 20
334.760971
 42
0.003563
  0
VERTEX
  8
0
 10
1157.519968
 20
337.514022
 42
0.004875
  0
VERTEX
  8
0
 10
1155.256465
 20
339.954930
 42
-0.006021
  0
VERTEX
  8
0
 10
1153.246611
 20
342.132298
 42
-0.009047
  0
VERTEX
  8
0
 10
1151.551320
 20
344.083718
 42
-0.004608
  0
VERTEX
  8
0
 10
1150.171691
 20
345.762246
 42
-0.169038
  0
VERTEX
  8
0
 10
1150.006465
 20
346.223684
 42
0.170919
  0
VERTEX
  8
0
 10
1149.844294
 20
346.671425
 42
0.006438
  0
VERTEX
  8
0
 10
1148.680024
 20
348.056661
 42
0.010966
  0
VERTEX
  8
0
 10
1147.224754
 20
349.670586
 42
0.007429
  0
VERTEX
  8
0
 10
1145.500000
 20
351.447368
 42
-0.010602
  0
VERTEX
  8
0
 10
1143.776148
 20
353.245916
 42
-0.014901
  0
VERTEX
  8
0
 10
1142.321875
 20
354.926974
 42
-0.011084
  0
VERTEX
  8
0
 10
1141.200208
 20
356.368579
 42
-0.161137
  0
VERTEX
  8
0
 10
1141.000000
 20
356.973684
 42
0.096416
  0
VERTEX
  8
0
 10
1140.923755
 20
357.365406
 42
0.097290
  0
VERTEX
  8
0
 10
1140.706250
 20
357.698520
 42
0.098538
  0
VERTEX
  8
0
 10
1140.381600
 20
357.921552
 42
0.101724
  0
VERTEX
  8
0
 10
1140.000000
 20
358.000000
 42
-0.102440
  0
VERTEX
  8
0
 10
1139.618410
 20
358.079009
 42
-0.098682
  0
VERTEX
  8
0
 10
1139.293750
 20
358.303542
 42
-0.097108
  0
VERTEX
  8
0
 10
1139.076219
 20
358.638922
 42
-0.095738
  0
VERTEX
  8
0
 10
1139.000000
 20
359.033333
 42
0.145532
  0
VERTEX
  8
0
 10
1138.828290
 20
359.610779
 42
0.016930
  0
VERTEX
  8
0
 10
1138.045312
 20
360.726464
 42
0.019197
  0
VERTEX
  8
0
 10
1136.994636
 20
362.014707
 42
0.014582
  0
VERTEX
  8
0
 10
1135.750000
 20
363.346117
 42
-0.009657
  0
VERTEX
  8
0
 10
1134.359395
 20
364.804609
 42
-0.007020
  0
VERTEX
  8
0
 10
1132.867188
 20
366.478011
 42
-0.007096
  0
VERTEX
  8
0
 10
1131.495684
 20
368.106352
 42
-0.015417
  0
VERTEX
  8
0
 10
1130.500000
 20
369.402699
 42
0.008162
  0
VERTEX
  8
0
 10
1129.539073
 20
370.692093
 42
0.004085
  0
VERTEX
  8
0
 10
1128.284380
 20
372.292323
 42
0.004054
  0
VERTEX
  8
0
 10
1126.958658
 20
373.927608
 42
0.005975
  0
VERTEX
  8
0
 10
1125.765973
 20
375.339916
 42
-0.010143
  0
VERTEX
  8
0
 10
1124.717561
 20
376.602584
 42
-0.013924
  0
VERTEX
  8
0
 10
1123.830375
 20
377.782246
 42
-0.010595
  0
VERTEX
  8
0
 10
1123.147297
 20
378.789776
 42
-0.138963
  0
VERTEX
  8
0
 10
1123.015973
 20
379.216667
 42
0.157395
  0
VERTEX
  8
0
 10
1122.868142
 20
379.641989
 42
0.010114
  0
VERTEX
  8
0
 10
1122.045145
 20
380.687292
 42
0.013992
  0
VERTEX
  8
0
 10
1120.985988
 20
381.906722
 42
0.009920
  0
VERTEX
  8
0
 10
1119.733458
 20
383.216667
 42
-0.012677
  0
VERTEX
  8
0
 10
1118.304433
 20
384.727792
 42
-0.007941
  0
VERTEX
  8
0
 10
1116.706413
 20
386.563646
 42
-0.007969
  0
VERTEX
  8
0
 10
1115.189251
 20
388.422881
 42
-0.014384
  0
VERTEX
  8
0
 10
1114.015685
 20
390.000000
 42
0.028410
  0
VERTEX
  8
0
 10
1111.575441
 20
393.094300
 42
0.016141
  0
VERTEX
  8
0
 10
1108.300354
 20
396.561921
 42
0.016034
  0
VERTEX
  8
0
 10
1104.742936
 20
399.873333
 42
0.024175
  0
VERTEX
  8
0
 10
1101.421997
 20
402.500000
 42
-0.015688
  0
VERTEX
  8
0
 10
1100.118151
 20
403.495780
 42
-0.007252
  0
VERTEX
  8
0
 10
1098.483680
 20
404.867188
 42
-0.007175
  0
VERTEX
  8
0
 10
1096.806000
 20
406.359401
 42
-0.009896
  0
VERTEX
  8
0
 10
1095.346117
 20
407.750000
 42
0.016418
  0
VERTEX
  8
0
 10
1094.005029
 20
408.994489
 42
0.020988
  0
VERTEX
  8
0
 10
1092.687482
 20
410.045312
 42
0.019437
  0
VERTEX
  8
0
 10
1091.538070
 20
410.818928
 42
0.139276
  0
VERTEX
  8
0
 10
1090.900629
 20
411.000000
 42
-0.105705
  0
VERTEX
  8
0
 10
1090.341693
 20
411.119500
 42
-0.035462
  0
VERTEX
  8
0
 10
1089.602034
 20
411.516068
 42
-0.033435
  0
VERTEX
  8
0
 10
1088.822209
 20
412.084516
 42
-0.032510
  0
VERTEX
  8
0
 10
1088.117295
 20
412.756828
 42
0.033499
  0
VERTEX
  8
0
 10
1087.302347
 20
413.531017
 42
0.016269
  0
VERTEX
  8
0
 10
1086.167268
 20
414.412407
 42
0.016056
  0
VERTEX
  8
0
 10
1084.921229
 20
415.256847
 42
0.022277
  0
VERTEX
  8
0
 10
1083.750000
 20
415.925808
 42
-0.022283
  0
VERTEX
  8
0
 10
1082.696866
 20
416.527331
 42
-0.030191
  0
VERTEX
  8
0
 10
1081.807812
 20
417.167252
 42
-0.030657
  0
VERTEX
  8
0
 10
1081.163392
 20
417.762240
 42
-0.193348
  0
VERTEX
  8
0
 10
1081.000000
 20
418.168980
 42
0.201824
  0
VERTEX
  8
0
 10
1080.866372
 20
418.486545
 42
0.084512
  0
VERTEX
  8
0
 10
1080.477348
 20
418.755888
 42
0.064608
  0
VERTEX
  8
0
 10
1079.901831
 20
418.938921
 42
0.044750
  0
VERTEX
  8
0
 10
1079.220759
 20
419.000000
 42
-0.091287
  0
VERTEX
  8
0
 10
1078.434551
 20
419.144747
 42
-0.047927
  0
VERTEX
  8
0
 10
1077.540724
 20
419.587500
 42
-0.045499
  0
VERTEX
  8
0
 10
1076.683198
 20
420.234851
 42
-0.052224
  0
VERTEX
  8
0
 10
1076.000000
 20
421.000000
 42
0.052224
  0
VERTEX
  8
0
 10
1075.316802
 20
421.765149
 42
0.045499
  0
VERTEX
  8
0
 10
1074.459276
 20
422.412500
 42
0.047927
  0
VERTEX
  8
0
 10
1073.565449
 20
422.855253
 42
0.091287
  0
VERTEX
  8
0
 10
1072.779241
 20
423.000000
 42
-0.047415
  0
VERTEX
  8
0
 10
1072.098283
 20
423.064721
 42
-0.067401
  0
VERTEX
  8
0
 10
1071.522652
 20
423.258112
 42
-0.087561
  0
VERTEX
  8
0
 10
1071.134570
 20
423.543090
 42
-0.193027
  0
VERTEX
  8
0
 10
1071.000000
 20
423.878680
 42
0.208074
  0
VERTEX
  8
0
 10
1070.819057
 20
424.294660
 42
0.033695
  0
VERTEX
  8
0
 10
1070.118750
 20
424.864273
 42
0.032352
  0
VERTEX
  8
0
 10
1069.148944
 20
425.459931
 42
0.023358
  0
VERTEX
  8
0
 10
1068.000000
 20
426.000000
 42
-0.017919
  0
VERTEX
  8
0
 10
1066.850708
 20
426.525050
 42
-0.026024
  0
VERTEX
  8
0
 10
1065.881250
 20
427.075502
 42
-0.024149
  0
VERTEX
  8
0
 10
1065.160485
 20
427.586508
 42
-0.230397
  0
VERTEX
  8
0
 10
1065.000000
 20
427.916299
 42
0.256947
  0
VERTEX
  8
0
 10
1064.810394
 20
428.260899
 42
0.013175
  0
VERTEX
  8
0
 10
1063.678125
 20
428.937188
 42
0.018269
  0
VERTEX
  8
0
 10
1062.224507
 20
429.685735
 42
0.011968
  0
VERTEX
  8
0
 10
1060.500000
 20
430.445678
 42
-0.015084
  0
VERTEX
  8
0
 10
1058.775788
 20
431.218356
 42
-0.022447
  0
VERTEX
  8
0
 10
1057.321875
 20
432.005762
 42
-0.018895
  0
VERTEX
  8
0
 10
1056.219109
 20
432.726723
 42
-0.243124
  0
VERTEX
  8
0
 10
1056.000000
 20
433.150699
 42
0.216963
  0
VERTEX
  8
0
 10
1055.852036
 20
433.475635
 42
0.078816
  0
VERTEX
  8
0
 10
1055.412500
 20
433.750518
 42
0.059932
  0
VERTEX
  8
0
 10
1054.765773
 20
433.937785
 42
0.040555
  0
VERTEX
  8
0
 10
1054.000000
 20
434.000000
 42
-0.048028
  0
VERTEX
  8
0
 10
1053.234582
 20
434.073693
 42
-0.068025
  0
VERTEX
  8
0
 10
1052.587500
 20
434.293750
 42
-0.088204
  0
VERTEX
  8
0
 10
1052.151477
 20
434.618118
 42
-0.191087
  0
VERTEX
  8
0
 10
1052.000000
 20
435.000000
 42
0.130232
  0
VERTEX
  8
0
 10
1051.898958
 20
435.381353
 42
0.100668
  0
VERTEX
  8
0
 10
1051.614765
 20
435.706250
 42
0.088576
  0
VERTEX
  8
0
 10
1051.189641
 20
435.924760
 42
0.074660
  0
VERTEX
  8
0
 10
1050.688561
 20
436.000000
 42
-0.101307
  0
VERTEX
  8
0
 10
1050.040330
 20
436.132703
 42
-0.030131
  0
VERTEX
  8
0
 10
1049.131751
 20
436.587500
 42
-0.028874
  0
VERTEX
  8
0
 10
1048.148584
 20
437.234554
 42
-0.027562
  0
VERTEX
  8
0
 10
1047.230375
 20
438.000000
 42
0.027754
  0
VERTEX
  8
0
 10
1046.311456
 20
438.765443
 42
0.028983
  0
VERTEX
  8
0
 10
1045.326174
 20
439.412500
 42
0.030262
  0
VERTEX
  8
0
 10
1044.414680
 20
439.867090
 42
0.100871
  0
VERTEX
  8
0
 10
1043.762573
 20
440.000000
 42
-0.113455
  0
VERTEX
  8
0
 10
1043.154182
 20
440.139850
 42
-0.043713
  0
VERTEX
  8
0
 10
1042.406132
 20
440.587500
 42
-0.040429
  0
VERTEX
  8
0
 10
1041.649192
 20
441.234753
 42
-0.039525
  0
VERTEX
  8
0
 10
1041.000000
 20
442.000000
 42
0.239345
  0
VERTEX
  8
0
 10
1038.180801
 20
443.454908
 42
0.000472
  0
VERTEX
  8
0
 10
986.087533
 20
443.747979
 42
0.001111
  0
VERTEX
  8
0
 10
897.170454
 20
443.966590
 42
0.000059
  0
VERTEX
  8
0
 10
613.779241
 20
444.000000
 42
0.000000
  0
VERTEX
  8
0
 10
188.000000
 20
444.000000
 42
0.000000
  0
SEQEND
  0
POLYLINE
  8
0
 66
1
 70
1
  0
VERTEX
  8
0
 10
436.000000
 20
370.078726
 42
-0.000252
  0
VERTEX
  8
0
 10
462.669269
 20
369.325333
 42
-0.000232
  0
VERTEX
  8
0
 10
490.092389
 20
368.524102
 42
-0.000169
  0
VERTEX
  8
0
 10
524.330180
 20
367.496313
 42
-0.000058
  0
VERTEX
  8
0
 10
574.000000
 20
365.982742
 42
0.000763
  0
VERTEX
  8
0
 10
610.923932
 20
364.909710
 42
0.000792
  0
VERTEX
  8
0
 10
647.402485
 20
363.963130
 42
0.000725
  0
VERTEX
  8
0
 10
686.633137
 20
363.064185
 42
0.000470
  0
VERTEX
  8
0
 10
732.000000
 20
362.133107
 42
-0.000325
  0
VERTEX
  8
0
 10
807.228214
 20
360.611045
 42
-0.002502
  0
VERTEX
  8
0
 10
842.471856
 20
359.698625
 42
-0.001199
  0
VERTEX
  8
0
 10
865.161092
 20
358.943159
 42
-0.189406
  0
VERTEX
  8
0
 10
867.450000
 20
357.948171
 42
0.155470
  0
VERTEX
  8
0
 10
868.173121
 20
357.575409
 42
0.013267
  0
VERTEX
  8
0
 10
870.265313
 20
357.278525
 42
0.016552
  0
VERTEX
  8
0
 10
872.834601
 20
357.069109
 42
0.012057
  0
VERTEX
  8
0
 10
875.700000
 20
357.000000
 42
-0.011928
  0
VERTEX
  8
0
 10
878.589296
 20
356.931066
 42
-0.022111
  0
VERTEX
  8
0
 10
880.925000
 20
356.715753
 42
-0.019150
  0
VERTEX
  8
0
 10
882.670613
 20
356.408131
 42
-0.353193
  0
VERTEX
  8
0
 10
883.000000
 20
356.000000
 42
0.254951
  0
VERTEX
  8
0
 10
883.209557
 20
355.615738
 42
0.062710
  0
VERTEX
  8
0
 10
883.881250
 20
355.293750
 42
0.048861
  0
VERTEX
  8
0
 10
884.850749
 20
355.072766
 42
0.031626
  0
VERTEX
  8
0
 10
886.000000
 20
355.000000
 42
-0.027717
  0
VERTEX
  8
0
 10
887.149485
 20
354.936231
 42
-0.043549
  0
VERTEX
  8
0
 10
888.118750
 20
354.741888
 42
-0.053956
  0
VERTEX
  8
0
 10
888.799220
 20
354.460003
 42
-0.274138
  0
VERTEX
  8
0
 10
889.000000
 20
354.121320
 42
0.208074
  0
VERTEX
  8
0
 10
889.180943
 20
353.705340
 42
0.033695
  0
VERTEX
  8
0
 10
889.881250
 20
353.135727
 42
0.032352
  0
VERTEX
  8
0
 10
890.851056
 20
352.540069
 42
0.023358
  0
VERTEX
  8
0
 10
892.000000
 20
352.000000
 42
-0.042560
  0
VERTEX
  8
0
 10
893.231740
 20
351.362234
 42
-0.060669
  0
VERTEX
  8
0
 10
894.185423
 20
350.584658
 42
-0.072766
  0
VERTEX
  8
0
 10
894.792853
 20
349.734357
 42
-0.119319
  0
VERTEX
  8
0
 10
895.000000
 20
348.878680
 42
0.051258
  0
VERTEX
  8
0
 10
895.073887
 20
348.159839
 42
0.071193
  0
VERTEX
  8
0
 10
895.293750
 20
347.551862
 42
0.091251
  0
VERTEX
  8
0
 10
895.618305
 20
347.143161
 42
0.181365
  0
VERTEX
  8
0
 10
896.000000
 20
347.000000
 42
-0.386761
  0
VERTEX
  8
0
 10
896.849862
 20
346.226982
 42
-0.029761
  0
VERTEX
  8
0
 10
896.967891
 20
342.868148
 42
-0.034793
  0
VERTEX
  8
0
 10
896.626426
 20
339.243755
 42
-0.087275
  0
VERTEX
  8
0
 10
895.750000
 20
336.747117
 42
-0.023012
  0
VERTEX
  8
0
 10
895.144479
 20
335.776402
 42
-0.014433
  0
VERTEX
  8
0
 10
894.353125
 20
334.696964
 42
-0.014483
  0
VERTEX
  8
0
 10
893.510734
 20
333.677209
 42
-0.025531
  0
VERTEX
  8
0
 10
892.750000
 20
332.893390
 42
0.031437
  0
VERTEX
  8
0
 10
892.080285
 20
332.186857
 42
0.032718
  0
VERTEX
  8
0
 10
891.514063
 20
331.410897
 42
0.034637
  0
VERTEX
  8
0
 10
891.118300
 20
330.679042
 42
0.107026
  0
VERTEX
  8
0
 10
891.000000
 20
330.132705
 42
-0.084636
  0
VERTEX
  8
0
 10
890.926251
 20
329.700146
 42
-0.093346
  0
VERTEX
  8
0
 10
890.713980
 20
329.332732
 42
-0.100451
  0
VERTEX
  8
0
 10
890.397721
 20
329.087019
 42
-0.115583
  0
VERTEX
  8
0
 10
890.026316
 20
329.000000
 42
0.163171
  0
VERTEX
  8
0
 10
889.447625
 20
328.805983
 42
0.010275
  0
VERTEX
  8
0
 10
888.016776
 20
327.678125
 42
0.014267
  0
VERTEX
  8
0
 10
886.347382
 20
326.223925
 42
0.010063
  0
VERTEX
  8
0
 10
884.552632
 20
324.500000
 42
-0.010602
  0
VERTEX
  8
0
 10
882.754084
 20
322.776148
 42
-0.014901
  0
VERTEX
  8
0
 10
881.073026
 20
321.321875
 42
-0.011084
  0
VERTEX
  8
0
 10
879.631421
 20
320.200208
 42
-0.161137
  0
VERTEX
  8
0
 10
879.026316
 20
320.000000
 42
0.096416
  0
VERTEX
  8
0
 10
878.634594
 20
319.923755
 42
0.097290
  0
VERTEX
  8
0
 10
878.301480
 20
319.706250
 42
0.098538
  0
VERTEX
  8
0
 10
878.078448
 20
319.381600
 42
0.101724
  0
VERTEX
  8
0
 10
878.000000
 20
319.000000
 42
-0.097271
  0
VERTEX
  8
0
 10
877.925041
 20
318.618336
 42
-0.097512
  0
VERTEX
  8
0
 10
877.711327
 20
318.293750
 42
-0.098350
  0
VERTEX
  8
0
 10
877.392301
 20
318.076406
 42
-0.100834
  0
VERTEX
  8
0
 10
877.017284
 20
318.000000
 42
0.128372
  0
VERTEX
  8
0
 10
876.478127
 20
317.859256
 42
0.019019
  0
VERTEX
  8
0
 10
875.510351
 20
317.267602
 42
0.020381
  0
VERTEX
  8
0
 10
874.398832
 20
316.461399
 42
0.016272
  0
VERTEX
  8
0
 10
873.267284
 20
315.506732
 42
-0.005248
  0
VERTEX
  8
0
 10
869.634376
 20
312.301995
 42
-0.011688
  0
VERTEX
  8
0
 10
866.788342
 20
309.957897
 42
-0.009350
  0
VERTEX
  8
0
 10
864.569453
 20
308.281875
 42
-0.157962
  0
VERTEX
  8
0
 10
863.707794
 20
308.001221
 42
0.099133
  0
VERTEX
  8
0
 10
863.305258
 20
307.919974
 42
0.026069
  0
VERTEX
  8
0
 10
862.709877
 20
307.633171
 42
0.025417
  0
VERTEX
  8
0
 10
862.052641
 20
307.228532
 42
0.023635
  0
VERTEX
  8
0
 10
861.423090
 20
306.750000
 42
-0.003580
  0
VERTEX
  8
0
 10
859.588207
 20
305.235463
 42
-0.008705
  0
VERTEX
  8
0
 10
858.207794
 20
304.151951
 42
-0.011111
  0
VERTEX
  8
0
 10
857.018314
 20
303.292230
 42
-0.011645
  0
VERTEX
  8
0
 10
855.810001
 20
302.500000
 42
0.008274
  0
VERTEX
  8
0
 10
854.910477
 20
301.918858
 42
0.001611
  0
VERTEX
  8
0
 10
853.309459
 20
300.839063
 42
0.001711
  0
VERTEX
  8
0
 10
851.451001
 20
299.567590
 42
0.001583
  0
VERTEX
  8
0
 10
849.552101
 20
298.250000
 42
-0.008886
  0
VERTEX
  8
0
 10
847.700841
 20
297.005124
 42
-0.012137
  0
VERTEX
  8
0
 10
845.987344
 20
295.954687
 42
-0.009015
  0
VERTEX
  8
0
 10
844.533021
 20
295.145683
 42
-0.123020
  0
VERTEX
  8
0
 10
843.949868
 20
295.000000
 42
0.086206
  0
VERTEX
  8
0
 10
843.587159
 20
294.936996
 42
0.093972
  0
VERTEX
  8
0
 10
843.279024
 20
294.755888
 42
0.100282
  0
VERTEX
  8
0
 10
843.072928
 20
294.485983
 42
0.113545
  0
VERTEX
  8
0
 10
843.000000
 20
294.168980
 42
-0.193348
  0
VERTEX
  8
0
 10
842.836608
 20
293.762240
 42
-0.030657
  0
VERTEX
  8
0
 10
842.192188
 20
293.167252
 42
-0.030191
  0
VERTEX
  8
0
 10
841.303134
 20
292.527331
 42
-0.022283
  0
VERTEX
  8
0
 10
840.250000
 20
291.925808
 42
0.022277
  0
VERTEX
  8
0
 10
839.078771
 20
291.256847
 42
0.016056
  0
VERTEX
  8
0
 10
837.832732
 20
290.412407
 42
0.016269
  0
VERTEX
  8
0
 10
836.697653
 20
289.531017
 42
0.033499
  0
VERTEX
  8
0
 10
835.882705
 20
288.756828
 42
-0.038898
  0
VERTEX
  8
0
 10
835.159597
 20
288.084570
 42
-0.036432
  0
VERTEX
  8
0
 10
834.325731
 20
287.516068
 42
-0.038554
  0
VERTEX
  8
0
 10
833.509284
 20
287.123209
 42
-0.093120
  0
VERTEX
  8
0
 10
832.853464
 20
287.000000
 42
0.108353
  0
VERTEX
  8
0
 10
832.209565
 20
286.858806
 42
0.044932
  0
VERTEX
  8
0
 10
831.432831
 20
286.412500
 42
0.041686
  0
VERTEX
  8
0
 10
830.655949
 20
285.765207
 42
0.042098
  0
VERTEX
  8
0
 10
830.000000
 20
285.000000
 42
-0.042098
  0
VERTEX
  8
0
 10
829.344051
 20
284.234793
 42
-0.041686
  0
VERTEX
  8
0
 10
828.567169
 20
283.587500
 42
-0.044932
  0
VERTEX
  8
0
 10
827.790435
 20
283.141194
 42
-0.108353
  0
VERTEX
  8
0
 10
827.146536
 20
283.000000
 42
0.093120
  0
VERTEX
  8
0
 10
826.490716
 20
282.876791
 42
0.038554
  0
VERTEX
  8
0
 10
825.674269
 20
282.483932
 42
0.036432
  0
VERTEX
  8
0
 10
824.840403
 20
281.915430
 42
0.038898
  0
VERTEX
  8
0
 10
824.117295
 20
281.243172
 42
-0.033499
  0
VERTEX
  8
0
 10
823.302347
 20
280.468983
 42
-0.016269
  0
VERTEX
  8
0
 10
822.167268
 20
279.587593
 42
-0.016056
  0
VERTEX
  8
0
 10
820.921229
 20
278.743153
 42
-0.022277
  0
VERTEX
  8
0
 10
819.750000
 20
278.074192
 42
0.022283
  0
VERTEX
  8
0
 10
818.696866
 20
277.472669
 42
0.030191
  0
VERTEX
  8
0
 10
817.807812
 20
276.832748
 42
0.030657
  0
VERTEX
  8
0
 10
817.163392
 20
276.237760
 42
0.193348
  0
VERTEX
  8
0
 10
817.000000
 20
275.831020
 42
-0.142525
  0
VERTEX
  8
0
 10
816.907794
 20
275.514119
 42
-0.099667
  0
VERTEX
  8
0
 10
816.648602
 20
275.244112
 42
-0.084378
  0
VERTEX
  8
0
 10
816.261003
 20
275.062209
 42
-0.067713
  0
VERTEX
  8
0
 10
815.803751
 20
275.000000
 42
0.133408
  0
VERTEX
  8
0
 10
814.473180
 20
274.638548
 42
0.008462
  0
VERTEX
  8
0
 10
810.986651
 20
272.513279
 42
0.013361
  0
VERTEX
  8
0
 10
807.550083
 20
270.206990
 42
0.034601
  0
VERTEX
  8
0
 10
805.244080
 20
268.315509
 42
-0.040486
  0
VERTEX
  8
0
 10
804.620220
 20
267.815941
 42
-0.021104
  0
VERTEX
  8
0
 10
803.771326
 20
267.293049
 42
-0.020846
  0
VERTEX
  8
0
 10
802.849406
 20
266.826842
 42
-0.029802
  0
VERTEX
  8
0
 10
801.994080
 20
266.498121
 42
0.036951
  0
VERTEX
  8
0
 10
801.230841
 20
266.192210
 42
0.047348
  0
VERTEX
  8
0
 10
800.585761
 20
265.796978
 42
0.055224
  0
VERTEX
  8
0
 10
800.138709
 20
265.376599
 42
0.178305
  0
VERTEX
  8
0
 10
800.000000
 20
265.000000
 42
-0.171464
  0
VERTEX
  8
0
 10
799.867774
 20
264.625758
 42
-0.057627
  0
VERTEX
  8
0
 10
799.448420
 20
264.213871
 42
-0.049310
  0
VERTEX
  8
0
 10
798.840900
 20
263.830655
 42
-0.039239
  0
VERTEX
  8
0
 10
798.122282
 20
263.538811
 42
0.049897
  0
VERTEX
  8
0
 10
797.206507
 20
263.144002
 42
0.016616
  0
VERTEX
  8
0
 10
795.952411
 20
262.392289
 42
0.016352
  0
VERTEX
  8
0
 10
794.609748
 20
261.462021
 42
0.017918
  0
VERTEX
  8
0
 10
793.372282
 20
260.472645
 42
-0.019658
  0
VERTEX
  8
0
 10
792.180941
 20
259.526921
 42
-0.022900
  0
VERTEX
  8
0
 10
790.976545
 20
258.727706
 42
-0.022693
  0
VERTEX
  8
0
 10
789.910017
 20
258.152385
 42
-0.112557
  0
VERTEX
  8
0
 10
789.250000
 20
258.001221
 42
0.078495
  0
VERTEX
  8
0
 10
788.772496
 20
257.925315
 42
0.090501
  0
VERTEX
  8
0
 10
788.367188
 20
257.706609
 42
0.100671
  0
VERTEX
  8
0
 10
788.096215
 20
257.381478
 42
0.124164
  0
VERTEX
  8
0
 10
788.000000
 20
257.000000
 42
-0.148195
  0
VERTEX
  8
0
 10
787.884432
 20
256.618646
 42
-0.098894
  0
VERTEX
  8
0
 10
787.559375
 20
256.293750
 42
-0.082425
  0
VERTEX
  8
0
 10
787.073457
 20
256.074694
 42
-0.064853
  0
VERTEX
  8
0
 10
786.500000
 20
256.000000
 42
0.064853
  0
VERTEX
  8
0
 10
785.926543
 20
255.925306
 42
0.082425
  0
VERTEX
  8
0
 10
785.440625
 20
255.706250
 42
0.098894
  0
VERTEX
  8
0
 10
785.115568
 20
255.381354
 42
0.148195
  0
VERTEX
  8
0
 10
785.000000
 20
255.000000
 42
-0.148195
  0
VERTEX
  8
0
 10
784.884432
 20
254.618646
 42
-0.098894
  0
VERTEX
  8
0
 10
784.559375
 20
254.293750
 42
-0.082425
  0
VERTEX
  8
0
 10
784.073457
 20
254.074694
 42
-0.064853
  0
VERTEX
  8
0
 10
783.500000
 20
254.000000
 42
0.064853
  0
VERTEX
  8
0
 10
782.926543
 20
253.925306
 42
0.082425
  0
VERTEX
  8
0
 10
782.440625
 20
253.706250
 42
0.098894
  0
VERTEX
  8
0
 10
782.115568
 20
253.381354
 42
0.148195
  0
VERTEX
  8
0
 10
782.000000
 20
253.000000
 42
-0.148195
  0
VERTEX
  8
0
 10
781.884432
 20
252.618646
 42
-0.098894
  0
VERTEX
  8
0
 10
781.559375
 20
252.293750
 42
-0.082425
  0
VERTEX
  8
0
 10
781.073457
 20
252.074694
 42
-0.064853
  0
VERTEX
  8
0
 10
780.500000
 20
252.000000
 42
0.064853
  0
VERTEX
  8
0
 10
779.926543
 20
251.925306
 42
0.082425
  0
VERTEX
  8
0
 10
779.440625
 20
251.706250
 42
0.098894
  0
VERTEX
  8
0
 10
779.115568
 20
251.381354
 42
0.148195
  0
VERTEX
  8
0
 10
779.000000
 20
251.000000
 42
-0.148195
  0
VERTEX
  8
0
 10
778.884432
 20
250.618646
 42
-0.098894
  0
VERTEX
  8
0
 10
778.559375
 20
250.293750
 42
-0.082425
  0
VERTEX
  8
0
 10
778.073457
 20
250.074694
 42
-0.064853
  0
VERTEX
  8
0
 10
777.500000
 20
250.000000
 42
0.064853
  0
VERTEX
  8
0
 10
776.926543
 20
249.925306
 42
0.082425
  0
VERTEX
  8
0
 10
776.440625
 20
249.706250
 42
0.098894
  0
VERTEX
  8
0
 10
776.115568
 20
249.381354
 42
0.148195
  0
VERTEX
  8
0
 10
776.000000
 20
249.000000
 42
-0.148195
  0
VERTEX
  8
0
 10
775.884432
 20
248.618646
 42
-0.098894
  0
VERTEX
  8
0
 10
775.559375
 20
248.293750
 42
-0.082425
  0
VERTEX
  8
0
 10
775.073457
 20
248.074694
 42
-0.064853
  0
VERTEX
  8
0
 10
774.500000
 20
248.000000
 42
0.053440
  0
VERTEX
  8
0
 10
773.926133
 20
247.938489
 42
0.073221
  0
VERTEX
  8
0
 10
773.440625
 20
247.755888
 42
0.093006
  0
VERTEX
  8
0
 10
773.114665
 20
247.486095
 42
0.175242
  0
VERTEX
  8
0
 10
773.000000
 20
247.168980
 42
-0.193066
  0
VERTEX
  8
0
 10
772.836720
 20
246.761879
 42
-0.030557
  0
VERTEX
  8
0
 10
772.192188
 20
246.165246
 42
-0.030119
  0
VERTEX
  8
0
 10
771.303134
 20
245.523118
 42
-0.022236
  0
VERTEX
  8
0
 10
770.250000
 20
244.918980
 42
0.012243
  0
VERTEX
  8
0
 10
768.329921
 20
243.867930
 42
0.020593
  0
VERTEX
  8
0
 10
766.779748
 20
242.881936
 42
0.020019
  0
VERTEX
  8
0
 10
765.286278
 20
241.751953
 42
0.010821
  0
VERTEX
  8
0
 10
763.536725
 20
240.250000
 42
-0.029375
  0
VERTEX
  8
0
 10
762.935744
 20
239.771613
 42
-0.029414
  0
VERTEX
  8
0
 10
762.283101
 20
239.367188
 42
-0.030771
  0
VERTEX
  8
0
 10
761.673497
 20
239.084338
 42
-0.093497
  0
VERTEX
  8
0
 10
761.226416
 20
239.000000
 42
0.130987
  0
VERTEX
  8
0
 10
760.758643
 20
238.875316
 42
0.027986
  0
VERTEX
  8
0
 10
760.047499
 20
238.412500
 42
0.027454
  0
VERTEX
  8
0
 10
759.260184
 20
237.765617
 42
0.023141
  0
VERTEX
  8
0
 10
758.500000
 20
237.000000
 42
-0.028962
  0
VERTEX
  8
0
 10
757.722097
 20
236.234556
 42
-0.031563
  0
VERTEX
  8
0
 10
756.881998
 20
235.587500
 42
-0.033281
  0
VERTEX
  8
0
 10
756.099596
 20
235.132570
 42
-0.115543
  0
VERTEX
  8
0
 10
755.533574
 20
235.000000
 42
0.099743
  0
VERTEX
  8
0
 10
754.959265
 20
234.884283
 42
0.029247
  0
VERTEX
  8
0
 10
754.147378
 20
234.485938
 42
0.028111
  0
VERTEX
  8
0
 10
753.265672
 20
233.919774
 42
0.026831
  0
VERTEX
  8
0
 10
752.438561
 20
233.250000
 42
-0.023044
  0
VERTEX
  8
0
 10
751.499394
 20
232.477642
 42
-0.011950
  0
VERTEX
  8
0
 10
750.261640
 20
231.597237
 42
-0.011856
  0
VERTEX
  8
0
 10
748.944357
 20
230.751685
 42
-0.017647
  0
VERTEX
  8
0
 10
747.750000
 20
230.081020
 42
0.022236
  0
VERTEX
  8
0
 10
746.696866
 20
229.476882
 42
0.030119
  0
VERTEX
  8
0
 10
745.807812
 20
228.834754
 42
0.030557
  0
VERTEX
  8
0
 10
745.163280
 20
228.238121
 42
0.193066
  0
VERTEX
  8
0
 10
745.000000
 20
227.831020
 42
-0.175242
  0
VERTEX
  8
0
 10
744.885335
 20
227.513905
 42
-0.093006
  0
VERTEX
  8
0
 10
744.559375
 20
227.244112
 42
-0.073221
  0
VERTEX
  8
0
 10
744.073867
 20
227.061511
 42
-0.053440
  0
VERTEX
  8
0
 10
743.500000
 20
227.000000
 42
0.064853
  0
VERTEX
  8
0
 10
742.926543
 20
226.925306
 42
0.082425
  0
VERTEX
  8
0
 10
742.440625
 20
226.706250
 42
0.098894
  0
VERTEX
  8
0
 10
742.115568
 20
226.381354
 42
0.148195
  0
VERTEX
  8
0
 10
742.000000
 20
226.000000
 42
-0.148195
  0
VERTEX
  8
0
 10
741.884432
 20
225.618646
 42
-0.098894
  0
VERTEX
  8
0
 10
741.559375
 20
225.293750
 42
-0.082425
  0
VERTEX
  8
0
 10
741.073457
 20
225.074694
 42
-0.064853
  0
VERTEX
  8
0
 10
740.500000
 20
225.000000
 42
0.064853
  0
VERTEX
  8
0
 10
739.926543
 20
224.925306
 42
0.082425
  0
VERTEX
  8
0
 10
739.440625
 20
224.706250
 42
0.098894
  0
VERTEX
  8
0
 10
739.115568
 20
224.381354
 42
0.148195
  0
VERTEX
  8
0
 10
739.000000
 20
224.000000
 42
-0.127083
  0
VERTEX
  8
0
 10
738.901479
 20
223.618634
 42
-0.100760
  0
VERTEX
  8
0
 10
738.624223
 20
223.293750
 42
-0.089631
  0
VERTEX
  8
0
 10
738.209482
 20
223.075344
 42
-0.076630
  0
VERTEX
  8
0
 10
737.720759
 20
223.000000
 42
0.115942
  0
VERTEX
  8
0
 10
737.128761
 20
222.860855
 42
0.043072
  0
VERTEX
  8
0
 10
736.393849
 20
222.412500
 42
0.039803
  0
VERTEX
  8
0
 10
735.646083
 20
221.765268
 42
0.038332
  0
VERTEX
  8
0
 10
735.000000
 20
221.000000
 42
-0.052224
  0
VERTEX
  8
0
 10
734.316802
 20
220.234851
 42
-0.045499
  0
VERTEX
  8
0
 10
733.459276
 20
219.587500
 42
-0.047927
  0
VERTEX
  8
0
 10
732.565449
 20
219.144747
 42
-0.091287
  0
VERTEX
  8
0
 10
731.779241
 20
219.000000
 42
0.047415
  0
VERTEX
  8
0
 10
731.098283
 20
218.935279
 42
0.067401
  0
VERTEX
  8
0
 10
730.522652
 20
218.741888
 42
0.087561
  0
VERTEX
  8
0
 10
730.134570
 20
218.456910
 42
0.193027
  0
VERTEX
  8
0
 10
730.000000
 20
218.121320
 42
-0.208074
  0
VERTEX
  8
0
 10
729.819057
 20
217.705340
 42
-0.033695
  0
VERTEX
  8
0
 10
729.118750
 20
217.135727
 42
-0.032352
  0
VERTEX
  8
0
 10
728.148944
 20
216.540069
 42
-0.023358
  0
VERTEX
  8
0
 10
727.000000
 20
216.000000
 42
0.020336
  0
VERTEX
  8
0
 10
725.850863
 20
215.468292
 42
0.028926
  0
VERTEX
  8
0
 10
724.881250
 20
214.897743
 42
0.028520
  0
VERTEX
  8
0
 10
724.170592
 20
214.361158
 42
0.220221
  0
VERTEX
  8
0
 10
724.000000
 20
213.992621
 42
-0.213719
  0
VERTEX
  8
0
 10
723.826929
 20
213.606211
 42
-0.022818
  0
VERTEX
  8
0
 10
723.045313
 20
212.970308
 42
-0.024913
  0
VERTEX
  8
0
 10
721.994965
 20
212.270813
 42
-0.017496
  0
VERTEX
  8
0
 10
720.750000
 20
211.586296
 42
0.008347
  0
VERTEX
  8
0
 10
717.924558
 20
210.099442
 42
0.013969
  0
VERTEX
  8
0
 10
715.606915
 20
208.744462
 42
0.016603
  0
VERTEX
  8
0
 10
713.734712
 20
207.490416
 42
0.029073
  0
VERTEX
  8
0
 10
712.286312
 20
206.315509
 42
-0.038510
  0
VERTEX
  8
0
 10
711.646144
 20
205.815930
 42
-0.020325
  0
VERTEX
  8
0
 10
710.783731
 20
205.293049
 42
-0.020104
  0
VERTEX
  8
0
 10
709.852445
 20
204.826771
 42
-0.029173
  0
VERTEX
  8
0
 10
708.994080
 20
204.498121
 42
0.036951
  0
VERTEX
  8
0
 10
708.230841
 20
204.192210
 42
0.047348
  0
VERTEX
  8
0
 10
707.585761
 20
203.796978
 42
0.055224
  0
VERTEX
  8
0
 10
707.138709
 20
203.376599
 42
0.178305
  0
VERTEX
  8
0
 10
707.000000
 20
203.000000
 42
-0.171464
  0
VERTEX
  8
0
 10
706.867774
 20
202.625758
 42
-0.057627
  0
VERTEX
  8
0
 10
706.448420
 20
202.213871
 42
-0.049310
  0
VERTEX
  8
0
 10
705.840900
 20
201.830655
 42
-0.039239
  0
VERTEX
  8
0
 10
705.122282
 20
201.538811
 42
0.049897
  0
VERTEX
  8
0
 10
704.206507
 20
201.144002
 42
0.016616
  0
VERTEX
  8
0
 10
702.952411
 20
200.392289
 42
0.016352
  0
VERTEX
  8
0
 10
701.609748
 20
199.462021
 42
0.017918
  0
VERTEX
  8
0
 10
700.372282
 20
198.472645
 42
-0.019658
  0
VERTEX
  8
0
 10
699.180941
 20
197.526921
 42
-0.022900
  0
VERTEX
  8
0
 10
697.976545
 20
196.727706
 42
-0.022693
  0
VERTEX
  8
0
 10
696.910017
 20
196.152385
 42
-0.112557
  0
VERTEX
  8
0
 10
696.250000
 20
196.001221
 42
0.078495
  0
VERTEX
  8
0
 10
695.772496
 20
195.925315
 42
0.090501
  0
VERTEX
  8
0
 10
695.367188
 20
195.706609
 42
0.100671
  0
VERTEX
  8
0
 10
695.096215
 20
195.381478
 42
0.124164
  0
VERTEX
  8
0
 10
695.000000
 20
195.000000
 42
-0.173062
  0
VERTEX
  8
0
 10
694.863853
 20
194.618433
 42
-0.093597
  0
VERTEX
  8
0
 10
694.477348
 20
194.293750
 42
-0.073949
  0
VERTEX
  8
0
 10
693.901422
 20
194.074067
 42
-0.054248
  0
VERTEX
  8
0
 10
693.220759
 20
194.000000
 42
0.091287
  0
VERTEX
  8
0
 10
692.434551
 20
193.855253
 42
0.047927
  0
VERTEX
  8
0
 10
691.540724
 20
193.412500
 42
0.045499
  0
VERTEX
  8
0
 10
690.683198
 20
192.765149
 42
0.052224
  0
VERTEX
  8
0
 10
690.000000
 20
192.000000
 42
-0.052224
  0
VERTEX
  8
0
 10
689.316802
 20
191.234851
 42
-0.045499
  0
VERTEX
  8
0
 10
688.459276
 20
190.587500
 42
-0.047927
  0
VERTEX
  8
0
 10
687.565449
 20
190.144747
 42
-0.091287
  0
VERTEX
  8
0
 10
686.779241
 20
190.000000
 42
0.040234
  0
VERTEX
  8
0
 10
686.097612
 20
189.945062
 42
0.059330
  0
VERTEX
  8
0
 10
685.521136
 20
189.779687
 42
0.077779
  0
VERTEX
  8
0
 10
685.128083
 20
189.537006
 42
0.217205
  0
VERTEX
  8
0
 10
684.994838
 20
189.250000
 42
-0.221583
  0
VERTEX
  8
0
 10
684.792800
 20
188.824168
 42
-0.008333
  0
VERTEX
  8
0
 10
683.378600
 20
187.692188
 42
-0.013659
  0
VERTEX
  8
0
 10
681.604107
 20
186.395586
 42
-0.009033
  0
VERTEX
  8
0
 10
679.500000
 20
185.000000
 42
0.009033
  0
VERTEX
  8
0
 10
677.395893
 20
183.604414
 42
0.013659
  0
VERTEX
  8
0
 10
675.621400
 20
182.307812
 42
0.008333
  0
VERTEX
  8
0
 10
674.207200
 20
181.175832
 42
0.221583
  0
VERTEX
  8
0
 10
674.005162
 20
180.750000
 42
-0.229915
  0
VERTEX
  8
0
 10
673.863195
 20
180.462633
 42
-0.072620
  0
VERTEX
  8
0
 10
673.434999
 20
180.220313
 42
-0.055540
  0
VERTEX
  8
0
 10
672.810374
 20
180.054803
 42
-0.037031
  0
VERTEX
  8
0
 10
672.071429
 20
180.000000
 42
0.064082
  0
VERTEX
  8
0
 10
671.223487
 20
179.890877
 42
0.039128
  0
VERTEX
  8
0
 10
670.268750
 20
179.559375
 42
0.038656
  0
VERTEX
  8
0
 10
669.358587
 20
179.074273
 42
0.054664
  0
VERTEX
  8
0
 10
668.642857
 20
178.500000
 42
-0.027740
  0
VERTEX
  8
0
 10
668.001271
 20
177.925911
 42
-0.029742
  0
VERTEX
  8
0
 10
667.314278
 20
177.440625
 42
-0.031121
  0
VERTEX
  8
0
 10
666.679079
 20
177.099109
 42
-0.108192
  0
VERTEX
  8
0
 10
666.226416
 20
177.000000
 42
0.130987
  0
VERTEX
  8
0
 10
665.758643
 20
176.875316
 42
0.027986
  0
VERTEX
  8
0
 10
665.047499
 20
176.412500
 42
0.027454
  0
VERTEX
  8
0
 10
664.260184
 20
175.765617
 42
0.023141
  0
VERTEX
  8
0
 10
663.500000
 20
175.000000
 42
-0.028962
  0
VERTEX
  8
0
 10
662.722097
 20
174.234556
 42
-0.031563
  0
VERTEX
  8
0
 10
661.881998
 20
173.587500
 42
-0.033281
  0
VERTEX
  8
0
 10
661.099596
 20
173.132570
 42
-0.115543
  0
VERTEX
  8
0
 10
660.533574
 20
173.000000
 42
0.102706
  0
VERTEX
  8
0
 10
659.959436
 20
172.880808
 42
0.029698
  0
VERTEX
  8
0
 10
659.147378
 20
172.469568
 42
0.028514
  0
VERTEX
  8
0
 10
658.265671
 20
171.885378
 42
0.026948
  0
VERTEX
  8
0
 10
657.438561
 20
171.194274
 42
-0.032530
  0
VERTEX
  8
0
 10
656.465736
 20
170.399672
 42
-0.015274
  0
VERTEX
  8
0
 10
655.114765
 20
169.496455
 42
-0.015062
  0
VERTEX
  8
0
 10
653.636204
 20
168.632815
 42
-0.020469
  0
VERTEX
  8
0
 10
652.250000
 20
167.950163
 42
0.018171
  0
VERTEX
  8
0
 10
651.004994
 20
167.344135
 42
0.026135
  0
VERTEX
  8
0
 10
649.954687
 20
166.712261
 42
0.024404
  0
VERTEX
  8
0
 10
649.175427
 20
166.128839
 42
0.223445
  0
VERTEX
  8
0
 10
649.000000
 20
165.755889
 42
-0.230722
  0
VERTEX
  8
0
 10
648.858860
 20
165.466304
 42
-0.073234
  0
VERTEX
  8
0
 10
648.429836
 20
165.222042
 42
-0.055821
  0
VERTEX
  8
0
 10
647.802347
 20
165.055224
 42
-0.037095
  0
VERTEX
  8
0
 10
647.059017
 20
165.000000
 42
0.046881
  0
VERTEX
  8
0
 10
646.270704
 20
164.925923
 42
0.046318
  0
VERTEX
  8
0
 10
645.506650
 20
164.706250
 42
0.050262
  0
VERTEX
  8
0
 10
644.876024
 20
164.383556
 42
0.111412
  0
VERTEX
  8
0
 10
644.500000
 20
164.000000
 42
-0.211899
  0
VERTEX
  8
0
 10
643.923344
 20
163.605826
 42
-0.014270
  0
VERTEX
  8
0
 10
641.905484
 20
163.293750
 42
-0.018529
  0
VERTEX
  8
0
 10
639.395066
 20
163.072642
 42
-0.012700
  0
VERTEX
  8
0
 10
636.535484
 20
163.000000
 42
-0.045245
  0
VERTEX
  8
0
 10
629.956927
 20
163.596521
 42
-0.076320
  0
VERTEX
  8
0
 10
624.733117
 20
165.404526
 42
-0.057510
  0
VERTEX
  8
0
 10
619.356983
 20
169.086033
 42
-0.016290
  0
VERTEX
  8
0
 10
611.910376
 20
175.994291
 42
0.003401
  0
VERTEX
  8
0
 10
605.118276
 20
182.629144
 42
0.007124
  0
VERTEX
  8
0
 10
599.727647
 20
187.677664
 42
0.003348
  0
VERTEX
  8
0
 10
595.345412
 20
191.612797
 42
0.183261
  0
VERTEX
  8
0
 10
594.324465
 20
192.000000
 42
-0.169728
  0
VERTEX
  8
0
 10
593.963434
 20
192.126189
 42
-0.009920
  0
VERTEX
  8
0
 10
593.052938
 20
192.881250
 42
-0.014114
  0
VERTEX
  8
0
 10
591.992127
 20
193.850665
 42
-0.009859
  0
VERTEX
  8
0
 10
590.849565
 20
195.000000
 42
0.011979
  0
VERTEX
  8
0
 10
589.697373
 20
196.149236
 42
0.016588
  0
VERTEX
  8
0
 10
588.607016
 20
197.119109
 42
0.013134
  0
VERTEX
  8
0
 10
587.668389
 20
197.858996
 42
0.161285
  0
VERTEX
  8
0
 10
587.241302
 20
198.001221
 42
-0.137938
  0
VERTEX
  8
0
 10
586.808189
 20
198.123795
 42
-0.012752
  0
VERTEX
  8
0
 10
585.864255
 20
198.736100
 42
-0.015671
  0
VERTEX
  8
0
 10
584.761384
 20
199.544087
 42
-0.011663
  0
VERTEX
  8
0
 10
583.594461
 20
200.501221
 42
0.012580
  0
VERTEX
  8
0
 10
582.423352
 20
201.458203
 42
0.016637
  0
VERTEX
  8
0
 10
581.307716
 20
202.265984
 42
0.014047
  0
VERTEX
  8
0
 10
580.350556
 20
202.873200
 42
0.135122
  0
VERTEX
  8
0
 10
579.889915
 20
203.000000
 42
-0.139106
  0
VERTEX
  8
0
 10
579.451219
 20
203.124459
 42
-0.018955
  0
VERTEX
  8
0
 10
578.651327
 20
203.660937
 42
-0.020609
  0
VERTEX
  8
0
 10
577.732896
 20
204.388419
 42
-0.016073
  0
VERTEX
  8
0
 10
576.795455
 20
205.250000
 42
0.028599
  0
VERTEX
  8
0
 10
575.645905
 20
206.254609
 42
0.013376
  0
VERTEX
  8
0
 10
574.052914
 20
207.426563
 42
0.013204
  0
VERTEX
  8
0
 10
572.312100
 20
208.569890
 42
0.018034
  0
VERTEX
  8
0
 10
570.682551
 20
209.500000
 42
-0.013449
  0
VERTEX
  8
0
 10
569.082388
 20
210.393993
 42
-0.011215
  0
VERTEX
  8
0
 10
567.431074
 20
211.426562
 42
-0.011372
  0
VERTEX
  8
0
 10
565.962167
 20
212.440121
 42
-0.030017
  0
VERTEX
  8
0
 10
564.974365
 20
213.250000
 42
0.024966
  0
VERTEX
  8
0
 10
564.174016
 20
213.919813
 42
0.027230
  0
VERTEX
  8
0
 10
563.332998
 20
214.485937
 42
0.028123
  0
VERTEX
  8
0
 10
562.566814
 20
214.886572
 42
0.106795
  0
VERTEX
  8
0
 10
562.041813
 20
215.000000
 42
-0.094931
  0
VERTEX
  8
0
 10
561.644152
 20
215.076187
 42
-0.096885
  0
VERTEX
  8
0
 10
561.306033
 20
215.293750
 42
-0.098850
  0
VERTEX
  8
0
 10
561.079687
 20
215.618421
 42
-0.103303
  0
VERTEX
  8
0
 10
561.000000
 20
216.000000
 42
0.127083
  0
VERTEX
  8
0
 10
560.901479
 20
216.381366
 42
0.100760
  0
VERTEX
  8
0
 10
560.624223
 20
216.706250
 42
0.089631
  0
VERTEX
  8
0
 10
560.209482
 20
216.924656
 42
0.076630
  0
VERTEX
  8
0
 10
559.720759
 20
217.000000
 42
-0.115942
  0
VERTEX
  8
0
 10
559.128761
 20
217.139145
 42
-0.043072
  0
VERTEX
  8
0
 10
558.393849
 20
217.587500
 42
-0.039803
  0
VERTEX
  8
0
 10
557.646083
 20
218.234732
 42
-0.038332
  0
VERTEX
  8
0
 10
557.000000
 20
219.000000
 42
0.046192
  0
VERTEX
  8
0
 10
556.333162
 20
219.765165
 42
0.043436
  0
VERTEX
  8
0
 10
555.524124
 20
220.412500
 42
0.046457
  0
VERTEX
  8
0
 10
554.700861
 20
220.857086
 42
0.100918
  0
VERTEX
  8
0
 10
554.000000
 20
221.000000
 42
-0.100918
  0
VERTEX
  8
0
 10
553.299139
 20
221.142914
 42
-0.046457
  0
VERTEX
  8
0
 10
552.475876
 20
221.587500
 42
-0.043436
  0
VERTEX
  8
0
 10
551.666838
 20
222.234835
 42
-0.046192
  0
VERTEX
  8
0
 10
551.000000
 20
223.000000
 42
0.046192
  0
VERTEX
  8
0
 10
550.333162
 20
223.765165
 42
0.043436
  0
VERTEX
  8
0
 10
549.524124
 20
224.412500
 42
0.046457
  0
VERTEX
  8
0
 10
548.700861
 20
224.857086
 42
0.100918
  0
VERTEX
  8
0
 10
548.000000
 20
225.000000
 42
-0.100918
  0
VERTEX
  8
0
 10
547.299139
 20
225.142914
 42
-0.046457
  0
VERTEX
  8
0
 10
546.475876
 20
225.587500
 42
-0.043436
  0
VERTEX
  8
0
 10
545.666838
 20
226.234835
 42
-0.046192
  0
VERTEX
  8
0
 10
545.000000
 20
227.000000
 42
0.046192
  0
VERTEX
  8
0
 10
544.333162
 20
227.765165
 42
0.043436
  0
VERTEX
  8
0
 10
543.524124
 20
228.412500
 42
0.046457
  0
VERTEX
  8
0
 10
542.700861
 20
228.857086
 42
0.100918
  0
VERTEX
  8
0
 10
542.000000
 20
229.000000
 42
-0.100918
  0
VERTEX
  8
0
 10
541.299139
 20
229.142914
 42
-0.046457
  0
VERTEX
  8
0
 10
540.475876
 20
229.587500
 42
-0.043436
  0
VERTEX
  8
0
 10
539.666838
 20
230.234835
 42
-0.046192
  0
VERTEX
  8
0
 10
539.000000
 20
231.000000
 42
0.023183
  0
VERTEX
  8
0
 10
538.392258
 20
231.765719
 42
0.029122
  0
VERTEX
  8
0
 10
537.758200
 20
232.412500
 42
0.029717
  0
VERTEX
  8
0
 10
537.180470
 20
232.877483
 42
0.155811
  0
VERTEX
  8
0
 10
536.796854
 20
233.000000
 42
-0.120050
  0
VERTEX
  8
0
 10
536.286967
 20
233.124214
 42
-0.003937
  0
VERTEX
  8
0
 10
534.417843
 20
234.111094
 42
-0.007324
  0
VERTEX
  8
0
 10
532.224404
 20
235.333153
 42
-0.005006
  0
VERTEX
  8
0
 10
529.767613
 20
236.782448
 42
0.006934
  0
VERTEX
  8
0
 10
527.056693
 20
238.367601
 42
0.005538
  0
VERTEX
  8
0
 10
524.092674
 20
240.002946
 42
0.005601
  0
VERTEX
  8
0
 10
521.314797
 20
241.455834
 42
0.014076
  0
VERTEX
  8
0
 10
519.250000
 20
242.434322
 42
-0.015629
  0
VERTEX
  8
0
 10
517.621676
 20
243.212173
 42
-0.023004
  0
VERTEX
  8
0
 10
516.248438
 20
244.003742
 42
-0.019791
  0
VERTEX
  8
0
 10
515.211742
 20
244.725966
 42
-0.234866
  0
VERTEX
  8
0
 10
515.000000
 20
245.151874
 42
0.217184
  0
VERTEX
  8
0
 10
514.852073
 20
245.476367
 42
0.078729
  0
VERTEX
  8
0
 10
514.412500
 20
245.750863
 42
0.059865
  0
VERTEX
  8
0
 10
513.765776
 20
245.937874
 42
0.040497
  0
VERTEX
  8
0
 10
513.000000
 20
246.000000
 42
-0.048028
  0
VERTEX
  8
0
 10
512.234582
 20
246.073693
 42
-0.068025
  0
VERTEX
  8
0
 10
511.587500
 20
246.293750
 42
-0.088204
  0
VERTEX
  8
0
 10
511.151477
 20
246.618118
 42
-0.191087
  0
VERTEX
  8
0
 10
511.000000
 20
247.000000
 42
0.191087
  0
VERTEX
  8
0
 10
510.848523
 20
247.381882
 42
0.088204
  0
VERTEX
  8
0
 10
510.412500
 20
247.706250
 42
0.068025
  0
VERTEX
  8
0
 10
509.765418
 20
247.926307
 42
0.048028
  0
VERTEX
  8
0
 10
509.000000
 20
248.000000
 42
-0.048028
  0
VERTEX
  8
0
 10
508.234582
 20
248.073693
 42
-0.068025
  0
VERTEX
  8
0
 10
507.587500
 20
248.293750
 42
-0.088204
  0
VERTEX
  8
0
 10
507.151477
 20
248.618118
 42
-0.191087
  0
VERTEX
  8
0
 10
507.000000
 20
249.000000
 42
0.191087
  0
VERTEX
  8
0
 10
506.848523
 20
249.381882
 42
0.088204
  0
VERTEX
  8
0
 10
506.412500
 20
249.706250
 42
0.068025
  0
VERTEX
  8
0
 10
505.765418
 20
249.926307
 42
0.048028
  0
VERTEX
  8
0
 10
505.000000
 20
250.000000
 42
-0.048028
  0
VERTEX
  8
0
 10
504.234582
 20
250.073693
 42
-0.068025
  0
VERTEX
  8
0
 10
503.587500
 20
250.293750
 42
-0.088204
  0
VERTEX
  8
0
 10
503.151477
 20
250.618118
 42
-0.191087
  0
VERTEX
  8
0
 10
503.000000
 20
251.000000
 42
0.148195
  0
VERTEX
  8
0
 10
502.884432
 20
251.381354
 42
0.098894
  0
VERTEX
  8
0
 10
502.559375
 20
251.706250
 42
0.082425
  0
VERTEX
  8
0
 10
502.073457
 20
251.925306
 42
0.064853
  0
VERTEX
  8
0
 10
501.500000
 20
252.000000
 42
-0.064853
  0
VERTEX
  8
0
 10
500.926543
 20
252.074694
 42
-0.082425
  0
VERTEX
  8
0
 10
500.440625
 20
252.293750
 42
-0.098894
  0
VERTEX
  8
0
 10
500.115568
 20
252.618646
 42
-0.148195
  0
VERTEX
  8
0
 10
500.000000
 20
253.000000
 42
0.191087
  0
VERTEX
  8
0
 10
499.848523
 20
253.381882
 42
0.088204
  0
VERTEX
  8
0
 10
499.412500
 20
253.706250
 42
0.068025
  0
VERTEX
  8
0
 10
498.765418
 20
253.926307
 42
0.048028
  0
VERTEX
  8
0
 10
498.000000
 20
254.000000
 42
-0.048028
  0
VERTEX
  8
0
 10
497.234582
 20
254.073693
 42
-0.068025
  0
VERTEX
  8
0
 10
496.587500
 20
254.293750
 42
-0.088204
  0
VERTEX
  8
0
 10
496.151477
 20
254.618118
 42
-0.191087
  0
VERTEX
  8
0
 10
496.000000
 20
255.000000
 42
0.191087
  0
VERTEX
  8
0
 10
495.848523
 20
255.381882
 42
0.088204
  0
VERTEX
  8
0
 10
495.412500
 20
255.706250
 42
0.068025
  0
VERTEX
  8
0
 10
494.765418
 20
255.926307
 42
0.048028
  0
VERTEX
  8
0
 10
494.000000
 20
256.000000
 42
-0.048028
  0
VERTEX
  8
0
 10
493.234582
 20
256.073693
 42
-0.068025
  0
VERTEX
  8
0
 10
492.587500
 20
256.293750
 42
-0.088204
  0
VERTEX
  8
0
 10
492.151477
 20
256.618118
 42
-0.191087
  0
VERTEX
  8
0
 10
492.000000
 20
257.000000
 42
0.191087
  0
VERTEX
  8
0
 10
491.848523
 20
257.381882
 42
0.088204
  0
VERTEX
  8
0
 10
491.412500
 20
257.706250
 42
0.068025
  0
VERTEX
  8
0
 10
490.765418
 20
257.926307
 42
0.048028
  0
VERTEX
  8
0
 10
490.000000
 20
258.000000
 42
-0.048028
  0
VERTEX
  8
0
 10
489.234582
 20
258.073693
 42
-0.068025
  0
VERTEX
  8
0
 10
488.587500
 20
258.293750
 42
-0.088204
  0
VERTEX
  8
0
 10
488.151477
 20
258.618118
 42
-0.191087
  0
VERTEX
  8
0
 10
488.000000
 20
259.000000
 42
0.173062
  0
VERTEX
  8
0
 10
487.863853
 20
259.381567
 42
0.093597
  0
VERTEX
  8
0
 10
487.477348
 20
259.706250
 42
0.073949
  0
VERTEX
  8
0
 10
486.901422
 20
259.925933
 42
0.054248
  0
VERTEX
  8
0
 10
486.220759
 20
260.000000
 42
-0.091287
  0
VERTEX
  8
0
 10
485.434551
 20
260.144747
 42
-0.047927
  0
VERTEX
  8
0
 10
484.540724
 20
260.587500
 42
-0.045499
  0
VERTEX
  8
0
 10
483.683198
 20
261.234851
 42
-0.052224
  0
VERTEX
  8
0
 10
483.000000
 20
262.000000
 42
0.052224
  0
VERTEX
  8
0
 10
482.316802
 20
262.765149
 42
0.045499
  0
VERTEX
  8
0
 10
481.459276
 20
263.412500
 42
0.047927
  0
VERTEX
  8
0
 10
480.565449
 20
263.855253
 42
0.091287
  0
VERTEX
  8
0
 10
479.779241
 20
264.000000
 42
-0.054248
  0
VERTEX
  8
0
 10
479.098578
 20
264.074067
 42
-0.073949
  0
VERTEX
  8
0
 10
478.522652
 20
264.293750
 42
-0.093597
  0
VERTEX
  8
0
 10
478.136147
 20
264.618433
 42
-0.173062
  0
VERTEX
  8
0
 10
478.000000
 20
265.000000
 42
0.184457
  0
VERTEX
  8
0
 10
477.854207
 20
265.381750
 42
0.090315
  0
VERTEX
  8
0
 10
477.436979
 20
265.706250
 42
0.070178
  0
VERTEX
  8
0
 10
476.816758
 20
265.926177
 42
0.050201
  0
VERTEX
  8
0
 10
476.083333
 20
266.000000
 42
-0.037388
  0
VERTEX
  8
0
 10
475.325257
 20
266.056765
 42
-0.045089
  0
VERTEX
  8
0
 10
474.631771
 20
266.226176
 42
-0.051163
  0
VERTEX
  8
0
 10
474.094335
 20
266.473925
 42
-0.158315
  0
VERTEX
  8
0
 10
473.833333
 20
266.769961
 42
0.142165
  0
VERTEX
  8
0
 10
472.969479
 20
267.814504
 42
0.003700
  0
VERTEX
  8
0
 10
467.886387
 20
271.217618
 42
0.008157
  0
VERTEX
  8
0
 10
462.916217
 20
274.377070
 42
0.030611
  0
VERTEX
  8
0
 10
459.653824
 20
276.111867
 42
-0.022486
  0
VERTEX
  8
0
 10
458.637462
 20
276.631333
 42
-0.030971
  0
VERTEX
  8
0
 10
457.779561
 20
277.192642
 42
-0.031687
  0
VERTEX
  8
0
 10
457.157822
 20
277.721291
 42
-0.203436
  0
VERTEX
  8
0
 10
457.000000
 20
278.093127
 42
0.193275
  0
VERTEX
  8
0
 10
456.863106
 20
278.434040
 42
0.049585
  0
VERTEX
  8
0
 10
456.403061
 20
278.827882
 42
0.043083
  0
VERTEX
  8
0
 10
455.745861
 20
279.206635
 42
0.032355
  0
VERTEX
  8
0
 10
454.967869
 20
279.510198
 42
-0.052675
  0
VERTEX
  8
0
 10
454.019094
 20
279.925483
 42
-0.021302
  0
VERTEX
  8
0
 10
452.821092
 20
280.677295
 42
-0.020796
  0
VERTEX
  8
0
 10
451.589850
 20
281.602878
 42
-0.024803
  0
VERTEX
  8
0
 10
450.513323
 20
282.577586
 42
0.024948
  0
VERTEX
  8
0
 10
449.488667
 20
283.504792
 42
0.027941
  0
VERTEX
  8
0
 10
448.413364
 20
284.288416
 42
0.028869
  0
VERTEX
  8
0
 10
447.434022
 20
284.844183
 42
0.115117
  0
VERTEX
  8
0
 10
446.766214
 20
285.000000
 42
-0.113243
  0
VERTEX
  8
0
 10
446.156398
 20
285.139909
 42
-0.043766
  0
VERTEX
  8
0
 10
445.407202
 20
285.587500
 42
-0.040482
  0
VERTEX
  8
0
 10
444.649462
 20
286.234755
 42
-0.039628
  0
VERTEX
  8
0
 10
444.000000
 20
287.000000
 42
0.033869
  0
VERTEX
  8
0
 10
443.365434
 20
287.765368
 42
0.037202
  0
VERTEX
  8
0
 10
442.651678
 20
288.412500
 42
0.040203
  0
VERTEX
  8
0
 10
441.965071
 20
288.864062
 42
0.126007
  0
VERTEX
  8
0
 10
441.434228
 20
289.000000
 42
-0.117443
  0
VERTEX
  8
0
 10
440.881205
 20
289.131714
 42
-0.032673
  0
VERTEX
  8
0
 10
440.108544
 20
289.587500
 42
-0.031068
  0
VERTEX
  8
0
 10
439.275522
 20
290.234537
 42
-0.028188
  0
VERTEX
  8
0
 10
438.500000
 20
291.000000
 42
0.028188
  0
VERTEX
  8
0
 10
437.724478
 20
291.765463
 42
0.031068
  0
VERTEX
  8
0
 10
436.891456
 20
292.412500
 42
0.032673
  0
VERTEX
  8
0
 10
436.118795
 20
292.868286
 42
0.117443
  0
VERTEX
  8
0
 10
435.565772
 20
293.000000
 42
-0.126007
  0
VERTEX
  8
0
 10
435.034929
 20
293.135938
 42
-0.040203
  0
VERTEX
  8
0
 10
434.348322
 20
293.587500
 42
-0.037202
  0
VERTEX
  8
0
 10
433.634566
 20
294.234632
 42
-0.033869
  0
VERTEX
  8
0
 10
433.000000
 20
295.000000
 42
0.041683
  0
VERTEX
  8
0
 10
432.345145
 20
295.765213
 42
0.041492
  0
VERTEX
  8
0
 10
431.571493
 20
296.412500
 42
0.044749
  0
VERTEX
  8
0
 10
430.799414
 20
296.859008
 42
0.109152
  0
VERTEX
  8
0
 10
430.161256
 20
297.000000
 42
-0.116154
  0
VERTEX
  8
0
 10
429.404885
 20
297.178114
 42
-0.020101
  0
VERTEX
  8
0
 10
428.107561
 20
297.891466
 42
-0.020915
  0
VERTEX
  8
0
 10
426.625012
 20
298.872901
 42
-0.017369
  0
VERTEX
  8
0
 10
425.132015
 20
300.034779
 42
0.003003
  0
VERTEX
  8
0
 10
422.074831
 20
302.558226
 42
0.014762
  0
VERTEX
  8
0
 10
420.299917
 20
303.920226
 42
0.013848
  0
VERTEX
  8
0
 10
418.400576
 20
305.212131
 42
0.002433
  0
VERTEX
  8
0
 10
414.751788
 20
307.523920
 42
-0.010572
  0
VERTEX
  8
0
 10
412.932227
 20
308.718694
 42
-0.015756
  0
VERTEX
  8
0
 10
411.397838
 20
309.846089
 42
-0.010749
  0
VERTEX
  8
0
 10
410.194512
 20
310.832534
 42
-0.218437
  0
VERTEX
  8
0
 10
410.001788
 20
311.250000
 42
0.166533
  0
VERTEX
  8
0
 10
409.903009
 20
311.536125
 42
0.094952
  0
VERTEX
  8
0
 10
409.624748
 20
311.779688
 42
0.075942
  0
VERTEX
  8
0
 10
409.210199
 20
311.944338
 42
0.056680
  0
VERTEX
  8
0
 10
408.720759
 20
312.000000
 42
-0.115942
  0
VERTEX
  8
0
 10
408.128761
 20
312.139145
 42
-0.043072
  0
VERTEX
  8
0
 10
407.393849
 20
312.587500
 42
-0.039803
  0
VERTEX
  8
0
 10
406.646083
 20
313.234732
 42
-0.038332
  0
VERTEX
  8
0
 10
406.000000
 20
314.000000
 42
0.046192
  0
VERTEX
  8
0
 10
405.333162
 20
314.765165
 42
0.043436
  0
VERTEX
  8
0
 10
404.524124
 20
315.412500
 42
0.046457
  0
VERTEX
  8
0
 10
403.700861
 20
315.857086
 42
0.100918
  0
VERTEX
  8
0
 10
403.000000
 20
316.000000
 42
-0.100918
  0
VERTEX
  8
0
 10
402.299139
 20
316.142914
 42
-0.046457
  0
VERTEX
  8
0
 10
401.475876
 20
316.587500
 42
-0.043436
  0
VERTEX
  8
0
 10
400.666838
 20
317.234835
 42
-0.046192
  0
VERTEX
  8
0
 10
400.000000
 20
318.000000
 42
0.034062
  0
VERTEX
  8
0
 10
399.364939
 20
318.765363
 42
0.037324
  0
VERTEX
  8
0
 10
398.649718
 20
319.412500
 42
0.040344
  0
VERTEX
  8
0
 10
397.961046
 20
319.863901
 42
0.125545
  0
VERTEX
  8
0
 10
397.427555
 20
320.000000
 42
-0.134328
  0
VERTEX
  8
0
 10
396.809997
 20
320.168959
 42
-0.019584
  0
VERTEX
  8
0
 10
395.706694
 20
320.881250
 42
-0.020978
  0
VERTEX
  8
0
 10
394.442230
 20
321.851283
 42
-0.016599
  0
VERTEX
  8
0
 10
393.157416
 20
323.000000
 42
0.016755
  0
VERTEX
  8
0
 10
391.871806
 20
324.148707
 42
0.021121
  0
VERTEX
  8
0
 10
390.604941
 20
325.118750
 42
0.019784
  0
VERTEX
  8
0
 10
389.498777
 20
325.830390
 42
0.133819
  0
VERTEX
  8
0
 10
388.876397
 20
326.000000
 42
-0.111963
  0
VERTEX
  8
0
 10
388.327323
 20
326.124513
 42
-0.035744
  0
VERTEX
  8
0
 10
387.594916
 20
326.541388
 42
-0.033629
  0
VERTEX
  8
0
 10
386.820412
 20
327.137711
 42
-0.031802
  0
VERTEX
  8
0
 10
386.117295
 20
327.843023
 42
0.031905
  0
VERTEX
  8
0
 10
385.318527
 20
328.643956
 42
0.017141
  0
VERTEX
  8
0
 10
384.240706
 20
329.531138
 42
0.017005
  0
VERTEX
  8
0
 10
383.075278
 20
330.363848
 42
0.025493
  0
VERTEX
  8
0
 10
382.000000
 20
331.001722
 42
-0.030277
  0
VERTEX
  8
0
 10
380.947148
 20
331.639980
 42
-0.021716
  0
VERTEX
  8
0
 10
379.850531
 20
332.471801
 42
-0.022037
  0
VERTEX
  8
0
 10
378.872354
 20
333.358585
 42
-0.043306
  0
VERTEX
  8
0
 10
378.193296
 20
334.158699
 42
0.045573
  0
VERTEX
  8
0
 10
377.589923
 20
334.863148
 42
0.043455
  0
VERTEX
  8
0
 10
376.859820
 20
335.459118
 42
0.046614
  0
VERTEX
  8
0
 10
376.118265
 20
335.868647
 42
0.103218
  0
VERTEX
  8
0
 10
375.488751
 20
336.000000
 42
-0.113736
  0
VERTEX
  8
0
 10
374.786970
 20
336.161727
 42
-0.029332
  0
VERTEX
  8
0
 10
373.767150
 20
336.734375
 42
-0.028304
  0
VERTEX
  8
0
 10
372.650651
 20
337.543116
 42
-0.025486
  0
VERTEX
  8
0
 10
371.590909
 20
338.500000
 42
0.021009
  0
VERTEX
  8
0
 10
370.549852
 20
339.457063
 42
0.025030
  0
VERTEX
  8
0
 10
369.489162
 20
340.265625
 42
0.025011
  0
VERTEX
  8
0
 10
368.543108
 20
340.847304
 42
0.125974
  0
VERTEX
  8
0
 10
367.946664
 20
341.000000
 42
-0.140654
  0
VERTEX
  8
0
 10
367.338545
 20
341.174522
 42
-0.022756
  0
VERTEX
  8
0
 10
366.315331
 20
341.881250
 42
-0.023583
  0
VERTEX
  8
0
 10
365.156830
 20
342.851341
 42
-0.018793
  0
VERTEX
  8
0
 10
364.000000
 20
344.000000
 42
0.019551
  0
VERTEX
  8
0
 10
362.839710
 20
345.148611
 42
0.024256
  0
VERTEX
  8
0
 10
361.670802
 20
346.118750
 42
0.023697
  0
VERTEX
  8
0
 10
360.634649
 20
346.822844
 42
0.138238
  0
VERTEX
  8
0
 10
360.006129
 20
347.000000
 42
-0.198824
  0
VERTEX
  8
0
 10
357.637374
 20
347.980701
 42
-0.008362
  0
VERTEX
  8
0
 10
351.171118
 20
354.662394
 42
-0.008799
  0
VERTEX
  8
0
 10
344.962112
 20
361.535294
 42
-0.181219
  0
VERTEX
  8
0
 10
344.000000
 20
364.102669
 42
-0.104131
  0
VERTEX
  8
0
 10
344.448869
 20
366.234604
 42
-0.086252
  0
VERTEX
  8
0
 10
345.736569
 20
368.169911
 42
-0.088033
  0
VERTEX
  8
0
 10
347.573189
 20
369.525968
 42
-0.115607
  0
VERTEX
  8
0
 10
349.595971
 20
370.000000
 42
0.041435
  0
VERTEX
  8
0
 10
350.517900
 20
370.076532
 42
0.043614
  0
VERTEX
  8
0
 10
351.398331
 20
370.303990
 42
0.047772
  0
VERTEX
  8
0
 10
352.115011
 20
370.637426
 42
0.122174
  0
VERTEX
  8
0
 10
352.521544
 20
371.034858
 42
-0.261390
  0
VERTEX
  8
0
 10
353.899155
 20
371.798008
 42
-0.001499
  0
VERTEX
  8
0
 10
369.200154
 20
371.668635
 42
-0.003492
  0
VERTEX
  8
0
 10
392.036802
 20
371.247540
 42
-0.000579
  0
SEQEND
  0
POLYLINE
  8
0
 66
1
 70
1
  0
VERTEX
  8
0
 10
989.087548
 20
365.719985
 42
-0.027981
  0
VERTEX
  8
0
 10
990.477082
 20
364.665975
 42
-0.022306
  0
VERTEX
  8
0
 10
991.854408
 20
363.384166
 42
-0.022828
  0
VERTEX
  8
0
 10
993.025368
 20
362.078473
 42
-0.051488
  0
VERTEX
  8
0
 10
993.755609
 20
360.969985
 42
-0.095876
  0
VERTEX
  8
0
 10
994.466056
 20
358.575821
 42
-0.049961
  0
VERTEX
  8
0
 10
994.458108
 20
355.450498
 42
-0.050266
  0
VERTEX
  8
0
 10
993.841646
 20
352.452988
 42
-0.115227
  0
VERTEX
  8
0
 10
992.677729
 20
350.478830
 42
0.016637
  0
VERTEX
  8
0
 10
992.123363
 20
349.857988
 42
0.006890
  0
VERTEX
  8
0
 10
991.413922
 20
348.983986
 42
0.006807
  0
VERTEX
  8
0
 10
990.678548
 20
348.025532
 42
0.008718
  0
VERTEX
  8
0
 10
990.029241
 20
347.122529
 42
-0.030991
  0
VERTEX
  8
0
 10
989.388388
 20
346.310175
 42
-0.035696
  0
VERTEX
  8
0
 10
988.679588
 20
345.623493
 42
-0.038443
  0
VERTEX
  8
0
 10
988.006036
 20
345.141274
 42
-0.136970
  0
VERTEX
  8
0
 10
987.500000
 20
345.000000
 42
0.130720
  0
VERTEX
  8
0
 10
986.995347
 20
344.865770
 42
0.038722
  0
VERTEX
  8
0
 10
986.329001
 20
344.412500
 42
0.035955
  0
VERTEX
  8
0
 10
985.629684
 20
343.765419
 42
0.031954
  0
VERTEX
  8
0
 10
985.000000
 20
343.000000
 42
-0.052224
  0
VERTEX
  8
0
 10
984.316802
 20
342.234851
 42
-0.045499
  0
VERTEX
  8
0
 10
983.459276
 20
341.587500
 42
-0.047927
  0
VERTEX
  8
0
 10
982.565449
 20
341.144747
 42
-0.091287
  0
VERTEX
  8
0
 10
981.779241
 20
341.000000
 42
0.054248
  0
VERTEX
  8
0
 10
981.098578
 20
340.925933
 42
0.073949
  0
VERTEX
  8
0
 10
980.522652
 20
340.706250
 42
0.093597
  0
VERTEX
  8
0
 10
980.136147
 20
340.381567
 42
0.173062
  0
VERTEX
  8
0
 10
980.000000
 20
340.000000
 42
-0.174820
  0
VERTEX
  8
0
 10
979.862375
 20
339.618409
 42
-0.093122
  0
VERTEX
  8
0
 10
979.471250
 20
339.293750
 42
-0.073362
  0
VERTEX
  8
0
 10
978.888633
 20
339.074027
 42
-0.053595
  0
VERTEX
  8
0
 10
978.200000
 20
339.000000
 42
0.044710
  0
VERTEX
  8
0
 10
977.441123
 20
338.932006
 42
0.036303
  0
VERTEX
  8
0
 10
976.649688
 20
338.728827
 42
0.037602
  0
VERTEX
  8
0
 10
975.943227
 20
338.430943
 42
0.074350
  0
VERTEX
  8
0
 10
975.450000
 20
338.076859
 42
-0.137232
  0
VERTEX
  8
0
 10
973.701194
 20
337.125340
 42
-0.014680
  0
VERTEX
  8
0
 10
969.124582
 20
336.215793
 42
-0.018115
  0
VERTEX
  8
0
 10
964.466550
 20
335.603984
 42
-0.070932
  0
VERTEX
  8
0
 10
961.576263
 20
335.740670
 42
-0.073524
  0
VERTEX
  8
0
 10
960.336752
 20
336.173099
 42
-0.118826
  0
VERTEX
  8
0
 10
959.500268
 20
336.905267
 42
-0.086409
  0
VERTEX
  8
0
 10
958.925461
 20
338.117199
 42
-0.025783
  0
VERTEX
  8
0
 10
958.479306
 20
340.122486
 42
-0.056158
  0
VERTEX
  8
0
 10
958.142106
 20
346.228232
 42
-0.044511
  0
VERTEX
  8
0
 10
959.104116
 20
352.770889
 42
-0.046374
  0
VERTEX
  8
0
 10
961.074335
 20
358.567619
 42
-0.104103
  0
VERTEX
  8
0
 10
963.790553
 20
362.310453
 42
-0.085474
  0
VERTEX
  8
0
 10
969.456134
 20
365.902322
 42
-0.065224
  0
VERTEX
  8
0
 10
976.556173
 20
367.823324
 42
-0.067709
  0
VERTEX
  8
0
 10
983.601456
 20
367.814595
 42
-0.114634
  0
SEQEND
  0
POLYLINE
  8
0
 66
1
 70
1
  0
VERTEX
  8
0
 10
1071.250000
 20
341.428964
 42
-0.017748
  0
VERTEX
  8
0
 10
1072.687088
 20
341.127848
 42
-0.027527
  0
VERTEX
  8
0
 10
1073.898438
 20
340.757012
 42
-0.026078
  0
VERTEX
  8
0
 10
1074.800685
 20
340.371009
 42
-0.286038
  0
VERTEX
  8
0
 10
1075.000000
 20
340.051109
 42
0.204399
  0
VERTEX
  8
0
 10
1075.150228
 20
339.698975
 42
0.031282
  0
VERTEX
  8
0
 10
1075.745417
 20
339.195856
 42
0.030700
  0
VERTEX
  8
0
 10
1076.565731
 20
338.660938
 42
0.022238
  0
VERTEX
  8
0
 10
1077.537591
 20
338.164826
 42
-0.014659
  0
VERTEX
  8
0
 10
1078.624702
 20
337.630488
 42
-0.010894
  0
VERTEX
  8
0
 10
1079.793603
 20
336.979803
 42
-0.011033
  0
VERTEX
  8
0
 10
1080.870254
 20
336.317037
 42
-0.024362
  0
VERTEX
  8
0
 10
1081.654204
 20
335.754311
 42
-0.030771
  0
VERTEX
  8
0
 10
1085.677607
 20
332.133246
 42
-0.001530
  0
VERTEX
  8
0
 10
1098.104565
 20
319.404415
 42
-0.000317
  0
VERTEX
  8
0
 10
1111.593294
 20
305.485528
 42
-0.194672
  0
VERTEX
  8
0
 10
1112.000000
 20
304.480523
 42
0.165928
  0
VERTEX
  8
0
 10
1112.225816
 20
303.818795
 42
0.007231
  0
VERTEX
  8
0
 10
1113.768827
 20
301.879881
 42
0.013275
  0
VERTEX
  8
0
 10
1115.416526
 20
299.975234
 42
0.028973
  0
VERTEX
  8
0
 10
1116.797894
 20
298.627359
 42
-0.008186
  0
VERTEX
  8
0
 10
1117.381807
 20
298.103152
 42
-0.004732
  0
VERTEX
  8
0
 10
1118.067650
 20
297.454668
 42
-0.004728
  0
VERTEX
  8
0
 10
1118.743687
 20
296.790787
 42
-0.007911
  0
VERTEX
  8
0
 10
1119.297894
 20
296.218320
 42
-0.002437
  0
VERTEX
  8
0
 10
1123.622694
 20
291.561966
 42
-0.010307
  0
VERTEX
  8
0
 10
1126.141838
 20
288.707115
 42
-0.011123
  0
VERTEX
  8
0
 10
1127.720608
 20
286.755395
 42
-0.165976
  0
VERTEX
  8
0
 10
1128.000000
 20
285.936919
 42
0.176912
  0
VERTEX
  8
0
 10
1128.206940
 20
285.370360
 42
0.005086
  0
VERTEX
  8
0
 10
1129.909375
 20
283.392002
 42
0.009704
  0
VERTEX
  8
0
 10
1132.009128
 20
281.093107
 42
0.006459
  0
VERTEX
  8
0
 10
1134.500000
 20
278.537037
 42
-0.004519
  0
VERTEX
  8
0
 10
1136.991314
 20
276.000276
 42
-0.007006
  0
VERTEX
  8
0
 10
1139.090625
 20
273.761720
 42
-0.002727
  0
VERTEX
  8
0
 10
1140.843988
 20
271.817565
 42
-0.184137
  0
VERTEX
  8
0
 10
1141.000000
 20
271.408299
 42
0.175908
  0
VERTEX
  8
0
 10
1141.142445
 20
271.015942
 42
0.005733
  0
VERTEX
  8
0
 10
1142.248437
 20
269.723903
 42
0.010359
  0
VERTEX
  8
0
 10
1143.621418
 20
268.220703
 42
0.006944
  0
VERTEX
  8
0
 10
1145.250000
 20
266.557093
 42
-0.009707
  0
VERTEX
  8
0
 10
1148.422658
 20
263.280170
 42
-0.011179
  0
VERTEX
  8
0
 10
1151.316193
 20
260.030317
 42
-0.011943
  0
VERTEX
  8
0
 10
1153.865786
 20
256.885329
 42
-0.016293
  0
VERTEX
  8
0
 10
1156.000000
 20
253.925715
 42
0.028196
  0
VERTEX
  8
0
 10
1156.900888
 20
252.737081
 42
0.006048
  0
VERTEX
  8
0
 10
1158.601562
 20
250.786345
 42
0.006299
  0
VERTEX
  8
0
 10
1160.630074
 20
248.572393
 42
0.005969
  0
VERTEX
  8
0
 10
1162.750000
 20
246.369699
 42
-0.008929
  0
VERTEX
  8
0
 10
1164.761413
 20
244.254843
 42
-0.012867
  0
VERTEX
  8
0
 10
1166.457813
 20
242.307920
 42
-0.008602
  0
VERTEX
  8
0
 10
1167.789255
 20
240.640430
 42
-0.165642
  0
VERTEX
  8
0
 10
1168.000000
 20
240.021739
 42
0.096862
  0
VERTEX
  8
0
 10
1168.076262
 20
239.631771
 42
0.097407
  0
VERTEX
  8
0
 10
1168.293750
 20
239.300136
 42
0.098440
  0
VERTEX
  8
0
 10
1168.618393
 20
239.078082
 42
0.101258
  0
VERTEX
  8
0
 10
1169.000000
 20
239.000000
 42
-0.108346
  0
VERTEX
  8
0
 10
1169.381517
 20
238.916346
 42
-0.099681
  0
VERTEX
  8
0
 10
1169.706250
 20
238.679376
 42
-0.095506
  0
VERTEX
  8
0
 10
1169.923997
 20
238.325217
 42
-0.090450
  0
VERTEX
  8
0
 10
1170.000000
 20
237.908516
 42
0.167713
  0
VERTEX
  8
0
 10
1170.214311
 20
237.287563
 42
0.014012
  0
VERTEX
  8
0
 10
1171.316637
 20
235.959239
 42
0.017445
  0
VERTEX
  8
0
 10
1172.765271
 20
234.421572
 42
0.012566
  0
VERTEX
  8
0
 10
1174.482168
 20
232.805402
 42
-0.016764
  0
VERTEX
  8
0
 10
1176.360482
 20
231.007306
 42
-0.012765
  0
VERTEX
  8
0
 10
1178.298261
 20
228.919559
 42
-0.012949
  0
VERTEX
  8
0
 10
1180.015724
 20
226.866962
 42
-0.029325
  0
VERTEX
  8
0
 10
1181.179013
 20
225.210350
 42
0.027433
  0
VERTEX
  8
0
 10
1182.360715
 20
223.513916
 42
0.010952
  0
VERTEX
  8
0
 10
1184.154056
 20
221.319606
 42
0.010800
  0
VERTEX
  8
0
 10
1186.195562
 20
219.032333
 42
0.013378
  0
VERTEX
  8
0
 10
1188.196845
 20
216.997302
 42
-0.007429
  0
VERTEX
  8
0
 10
1190.037347
 20
215.169774
 42
-0.011033
  0
VERTEX
  8
0
 10
1191.589073
 20
213.510820
 42
-0.006366
  0
VERTEX
  8
0
 10
1192.832607
 20
212.085006
 42
-0.177965
  0
VERTEX
  8
0
 10
1193.000000
 20
211.629604
 42
0.152571
  0
VERTEX
  8
0
 10
1193.136307
 20
211.193301
 42
0.011292
  0
VERTEX
  8
0
 10
1193.879891
 20
210.169585
 42
0.014863
  0
VERTEX
  8
0
 10
1194.847970
 20
208.973684
 42
0.010703
  0
VERTEX
  8
0
 10
1195.995373
 20
207.695766
 42
-0.009835
  0
VERTEX
  8
0
 10
1197.143182
 20
206.421852
 42
-0.013831
  0
VERTEX
  8
0
 10
1198.112214
 20
205.238239
 42
-0.010020
  0
VERTEX
  8
0
 10
1198.863389
 20
204.225838
 42
-0.154084
  0
VERTEX
  8
0
 10
1198.995373
 20
203.817388
 42
0.203914
  0
VERTEX
  8
0
 10
1199.127597
 20
203.512408
 42
0.044528
  0
VERTEX
  8
0
 10
1199.586141
 20
203.148827
 42
0.039556
  0
VERTEX
  8
0
 10
1200.233840
 20
202.793026
 42
0.028990
  0
VERTEX
  8
0
 10
1201.000000
 20
202.500000
 42
-0.060770
  0
VERTEX
  8
0
 10
1201.764714
 20
202.150468
 42
-0.063046
  0
VERTEX
  8
0
 10
1202.412500
 20
201.630860
 42
-0.069989
  0
VERTEX
  8
0
 10
1202.851427
 20
201.027698
 42
-0.122947
  0
VERTEX
  8
0
 10
1203.000000
 20
200.432612
 42
0.068054
  0
VERTEX
  8
0
 10
1203.074877
 20
199.885024
 42
0.084602
  0
VERTEX
  8
0
 10
1203.293750
 20
199.420830
 42
0.099744
  0
VERTEX
  8
0
 10
1203.618660
 20
199.110427
 42
0.141874
  0
VERTEX
  8
0
 10
1204.000000
 20
199.000000
 42
-0.101724
  0
VERTEX
  8
0
 10
1204.381600
 20
198.921552
 42
-0.098538
  0
VERTEX
  8
0
 10
1204.706250
 20
198.698520
 42
-0.097290
  0
VERTEX
  8
0
 10
1204.923755
 20
198.365406
 42
-0.096416
  0
VERTEX
  8
0
 10
1205.000000
 20
197.973684
 42
0.158383
  0
VERTEX
  8
0
 10
1205.195087
 20
197.373263
 42
0.011926
  0
VERTEX
  8
0
 10
1206.248437
 20
195.993859
 42
0.015533
  0
VERTEX
  8
0
 10
1207.621994
 20
194.386355
 42
0.011160
  0
VERTEX
  8
0
 10
1209.250000
 20
192.675064
 42
-0.008908
  0
VERTEX
  8
0
 10
1211.060173
 20
190.789367
 42
-0.006696
  0
VERTEX
  8
0
 10
1212.985938
 20
188.653691
 42
-0.006773
  0
VERTEX
  8
0
 10
1214.743720
 20
186.595442
 42
-0.015446
  0
VERTEX
  8
0
 10
1216.000000
 20
184.984693
 42
0.017203
  0
VERTEX
  8
0
 10
1217.344548
 20
183.273197
 42
0.005519
  0
VERTEX
  8
0
 10
1219.454688
 20
180.824835
 42
0.005498
  0
VERTEX
  8
0
 10
1221.865245
 20
178.149440
 42
0.006125
  0
VERTEX
  8
0
 10
1224.250000
 20
175.623313
 42
-0.004863
  0
VERTEX
  8
0
 10
1226.453753
 20
173.300683
 42
-0.007479
  0
VERTEX
  8
0
 10
1228.310937
 20
171.243946
 42
-0.003142
  0
VERTEX
  8
0
 10
1229.851511
 20
169.463213
 42
-0.178596
  0
VERTEX
  8
0
 10
1230.000000
 20
169.060759
 42
0.170304
  0
VERTEX
  8
0
 10
1230.113267
 20
168.737862
 42
0.023928
  0
VERTEX
  8
0
 10
1230.587500
 20
168.199974
 42
0.025057
  0
VERTEX
  8
0
 10
1231.234099
 20
167.597294
 42
0.018910
  0
VERTEX
  8
0
 10
1232.000000
 20
167.000000
 42
-0.024357
  0
VERTEX
  8
0
 10
1232.765673
 20
166.389360
 42
-0.030150
  0
VERTEX
  8
0
 10
1233.412500
 20
165.746640
 42
-0.031146
  0
VERTEX
  8
0
 10
1233.875437
 20
165.157519
 42
-0.152096
  0
VERTEX
  8
0
 10
1234.000000
 20
164.757502
 42
0.173110
  0
VERTEX
  8
0
 10
1234.178549
 20
164.257246
 42
0.005866
  0
VERTEX
  8
0
 10
1235.542187
 20
162.629626
 42
0.010441
  0
VERTEX
  8
0
 10
1237.238256
 20
160.734354
 42
0.007022
  0
VERTEX
  8
0
 10
1239.250000
 20
158.638451
 42
-0.003557
  0
VERTEX
  8
0
 10
1245.548954
 20
152.166363
 42
-0.004250
  0
VERTEX
  8
0
 10
1251.388691
 20
145.975573
 42
-0.000899
  0
VERTEX
  8
0
 10
1256.726526
 20
140.198811
 42
-0.188209
  0
VERTEX
  8
0
 10
1257.000000
 20
139.498029
 42
0.186556
  0
VERTEX
  8
0
 10
1257.136230
 20
139.145617
 42
0.002036
  0
VERTEX
  8
0
 10
1258.909375
 20
137.210764
 42
0.006030
  0
VERTEX
  8
0
 10
1261.008528
 20
134.993079
 42
0.003848
  0
VERTEX
  8
0
 10
1263.500000
 20
132.462963
 42
-0.006717
  0
VERTEX
  8
0
 10
1265.990814
 20
129.904311
 42
-0.010050
  0
VERTEX
  8
0
 10
1268.090625
 20
127.597380
 42
-0.005432
  0
VERTEX
  8
0
 10
1269.786942
 20
125.613702
 42
-0.175933
  0
VERTEX
  8
0
 10
1270.000000
 20
125.026936
 42
0.130443
  0
VERTEX
  8
0
 10
1270.132418
 20
124.528001
 42
0.022349
  0
VERTEX
  8
0
 10
1270.660938
 20
123.691577
 42
0.023039
  0
VERTEX
  8
0
 10
1271.388554
 20
122.742922
 42
0.018762
  0
VERTEX
  8
0
 10
1272.250000
 20
121.795455
 42
-0.042448
  0
VERTEX
  8
0
 10
1275.576978
 20
117.768937
 42
-0.026127
  0
VERTEX
  8
0
 10
1278.811045
 20
112.534841
 42
-0.024709
  0
VERTEX
  8
0
 10
1281.309102
 20
107.387358
 42
-0.100943
  0
VERTEX
  8
0
 10
1282.000000
 20
104.000000
 42
-0.071587
  0
VERTEX
  8
0
 10
1281.655164
 20
101.603852
 42
-0.062682
  0
VERTEX
  8
0
 10
1280.643332
 20
99.282572
 42
-0.070158
  0
VERTEX
  8
0
 10
1279.264283
 20
97.564430
 42
-0.190858
  0
VERTEX
  8
0
 10
1277.839485
 20
97.000000
 42
0.052396
  0
VERTEX
  8
0
 10
1277.135692
 20
96.926045
 42
0.072262
  0
VERTEX
  8
0
 10
1276.540349
 20
96.706250
 42
0.092195
  0
VERTEX
  8
0
 10
1276.140417
 20
96.381641
 42
0.178128
  0
VERTEX
  8
0
 10
1276.000000
 20
96.000000
 42
-0.409154
  0
VERTEX
  8
0
 10
1275.523022
 20
95.514695
 42
-0.000451
  0
VERTEX
  8
0
 10
1259.625000
 20
95.253876
 42
-0.002841
  0
VERTEX
  8
0
 10
1239.715491
 20
95.058363
 42
-0.001034
  0
VERTEX
  8
0
 10
1211.500000
 20
95.000000
 42
0.001117
  0
VERTEX
  8
0
 10
1184.647823
 20
94.940013
 42
0.002537
  0
VERTEX
  8
0
 10
1164.352703
 20
94.746346
 42
0.000314
  0
VERTEX
  8
0
 10
1147.424288
 20
94.488244
 42
0.409572
  0
VERTEX
  8
0
 10
1147.000000
 20
94.057167
 42
-0.412554
  0
VERTEX
  8
0
 10
1146.405844
 20
93.459632
 42
-0.000013
  0
VERTEX
  8
0
 10
1031.522983
 20
92.811232
 42
-0.000569
  0
VERTEX
  8
0
 10
903.597843
 20
92.238230
 42
-0.000328
  0
VERTEX
  8
0
 10
749.500000
 20
91.824309
 42
-0.002010
  0
VERTEX
  8
0
 10
724.787809
 20
91.873484
 42
-0.010223
  0
VERTEX
  8
0
 10
711.033038
 20
92.237467
 42
-0.009224
  0
VERTEX
  8
0
 10
702.180578
 20
92.816797
 42
-0.389877
  0
VERTEX
  8
0
 10
701.000000
 20
94.100694
 42
0.147215
  0
VERTEX
  8
0
 10
700.896788
 20
94.443645
 42
0.099041
  0
VERTEX
  8
0
 10
700.606526
 20
94.735829
 42
0.082763
  0
VERTEX
  8
0
 10
700.172591
 20
94.932802
 42
0.065333
  0
VERTEX
  8
0
 10
699.660515
 20
95.000000
 42
-0.221826
  0
VERTEX
  8
0
 10
698.466132
 20
95.557315
 42
-0.071619
  0
VERTEX
  8
0
 10
697.411569
 20
97.259591
 42
-0.063768
  0
VERTEX
  8
0
 10
696.762233
 20
99.481877
 42
-0.079284
  0
VERTEX
  8
0
 10
696.765077
 20
101.632006
 42
-0.052898
  0
VERTEX
  8
0
 10
697.019182
 20
102.567388
 42
-0.031288
  0
VERTEX
  8
0
 10
697.505565
 20
103.618168
 42
-0.031024
  0
VERTEX
  8
0
 10
698.129506
 20
104.617591
 42
-0.045882
  0
VERTEX
  8
0
 10
698.804089
 20
105.399527
 42
-0.004529
  0
VERTEX
  8
0
 10
703.603005
 20
109.944378
 42
-0.010460
  0
VERTEX
  8
0
 10
707.309132
 20
113.249308
 42
-0.007530
  0
VERTEX
  8
0
 10
710.200325
 20
115.646504
 42
-0.170935
  0
VERTEX
  8
0
 10
711.204119
 20
116.000000
 42
0.111974
  0
VERTEX
  8
0
 10
711.721222
 20
116.117274
 42
0.033628
  0
VERTEX
  8
0
 10
712.428736
 20
116.516068
 42
0.031849
  0
VERTEX
  8
0
 10
713.185543
 20
117.084470
 42
0.029728
  0
VERTEX
  8
0
 10
713.882705
 20
117.756828
 42
-0.033499
  0
VERTEX
  8
0
 10
714.697653
 20
118.531017
 42
-0.016269
  0
VERTEX
  8
0
 10
715.832732
 20
119.412407
 42
-0.016056
  0
VERTEX
  8
0
 10
717.078771
 20
120.256847
 42
-0.022277
  0
VERTEX
  8
0
 10
718.250000
 20
120.925808
 42
0.022283
  0
VERTEX
  8
0
 10
719.303134
 20
121.527331
 42
0.030191
  0
VERTEX
  8
0
 10
720.192188
 20
122.167252
 42
0.030657
  0
VERTEX
  8
0
 10
720.836608
 20
122.762240
 42
0.193348
  0
VERTEX
  8
0
 10
721.000000
 20
123.168980
 42
-0.151833
  0
VERTEX
  8
0
 10
721.098510
 20
123.485906
 42
-0.098305
  0
VERTEX
  8
0
 10
721.375777
 20
123.755888
 42
-0.081172
  0
VERTEX
  8
0
 10
721.790129
 20
123.938011
 42
-0.063116
  0
VERTEX
  8
0
 10
722.279241
 20
124.000000
 42
0.115942
  0
VERTEX
  8
0
 10
722.871239
 20
124.139145
 42
0.043072
  0
VERTEX
  8
0
 10
723.606151
 20
124.587500
 42
0.039803
  0
VERTEX
  8
0
 10
724.353917
 20
125.234732
 42
0.038332
  0
VERTEX
  8
0
 10
725.000000
 20
126.000000
 42
-0.046192
  0
VERTEX
  8
0
 10
725.666838
 20
126.765165
 42
-0.043436
  0
VERTEX
  8
0
 10
726.475876
 20
127.412500
 42
-0.046457
  0
VERTEX
  8
0
 10
727.299139
 20
127.857086
 42
-0.100918
  0
VERTEX
  8
0
 10
728.000000
 20
128.000000
 42
0.100918
  0
VERTEX
  8
0
 10
728.700861
 20
128.142914
 42
0.046457
  0
VERTEX
  8
0
 10
729.524124
 20
128.587500
 42
0.043436
  0
VERTEX
  8
0
 10
730.333162
 20
129.234835
 42
0.046192
  0
VERTEX
  8
0
 10
731.000000
 20
130.000000
 42
-0.039352
  0
VERTEX
  8
0
 10
731.648740
 20
130.765250
 42
-0.040340
  0
VERTEX
  8
0
 10
732.404346
 20
131.412500
 42
-0.043623
  0
VERTEX
  8
0
 10
733.150484
 20
131.860249
 42
-0.113811
  0
VERTEX
  8
0
 10
733.756493
 20
132.000000
 42
0.101737
  0
VERTEX
  8
0
 10
734.409961
 20
132.134355
 42
0.029432
  0
VERTEX
  8
0
 10
735.335634
 20
132.598064
 42
0.028282
  0
VERTEX
  8
0
 10
736.341430
 20
133.256739
 42
0.026787
  0
VERTEX
  8
0
 10
737.285733
 20
134.035962
 42
-0.027822
  0
VERTEX
  8
0
 10
739.764221
 20
136.072567
 42
-0.012776
  0
VERTEX
  8
0
 10
743.200394
 20
138.457134
 42
-0.007543
  0
VERTEX
  8
0
 10
746.652135
 20
140.650276
 42
-0.138612
  0
VERTEX
  8
0
 10
747.889421
 20
141.000000
 42
0.139585
  0
VERTEX
  8
0
 10
748.308302
 20
141.119262
 42
0.024750
  0
VERTEX
  8
0
 10
748.986528
 20
141.587500
 42
0.025095
  0
VERTEX
  8
0
 10
749.748333
 20
142.234274
 42
0.020287
  0
VERTEX
  8
0
 10
750.500000
 20
143.000000
 42
-0.033439
  0
VERTEX
  8
0
 10
751.291860
 20
143.765355
 42
-0.034148
  0
VERTEX
  8
0
 10
752.173392
 20
144.412500
 42
-0.036283
  0
VERTEX
  8
0
 10
753.013640
 20
144.863329
 42
-0.105367
  0
VERTEX
  8
0
 10
753.654988
 20
145.000000
 42
0.059889
  0
VERTEX
  8
0
 10
754.169350
 20
145.061831
 42
0.078705
  0
VERTEX
  8
0
 10
754.604903
 20
145.244112
 42
0.096942
  0
VERTEX
  8
0
 10
754.896578
 20
145.514056
 42
0.159019
  0
VERTEX
  8
0
 10
755.000000
 20
145.831020
 42
-0.193348
  0
VERTEX
  8
0
 10
755.163392
 20
146.237760
 42
-0.030657
  0
VERTEX
  8
0
 10
755.807812
 20
146.832748
 42
-0.030191
  0
VERTEX
  8
0
 10
756.696866
 20
147.472669
 42
-0.022283
  0
VERTEX
  8
0
 10
757.750000
 20
148.074192
 42
0.022277
  0
VERTEX
  8
0
 10
758.921229
 20
148.743153
 42
0.016056
  0
VERTEX
  8
0
 10
760.167268
 20
149.587593
 42
0.016269
  0
VERTEX
  8
0
 10
761.302347
 20
150.468983
 42
0.033499
  0
VERTEX
  8
0
 10
762.117295
 20
151.243172
 42
-0.038898
  0
VERTEX
  8
0
 10
762.840403
 20
151.915430
 42
-0.036432
  0
VERTEX
  8
0
 10
763.674269
 20
152.483932
 42
-0.038554
  0
VERTEX
  8
0
 10
764.490716
 20
152.876791
 42
-0.093120
  0
VERTEX
  8
0
 10
765.146536
 20
153.000000
 42
0.108353
  0
VERTEX
  8
0
 10
765.790435
 20
153.141194
 42
0.044932
  0
VERTEX
  8
0
 10
766.567169
 20
153.587500
 42
0.041686
  0
VERTEX
  8
0
 10
767.344051
 20
154.234793
 42
0.042098
  0
VERTEX
  8
0
 10
768.000000
 20
155.000000
 42
-0.046192
  0
VERTEX
  8
0
 10
768.666838
 20
155.765165
 42
-0.043436
  0
VERTEX
  8
0
 10
769.475876
 20
156.412500
 42
-0.046457
  0
VERTEX
  8
0
 10
770.299139
 20
156.857086
 42
-0.100918
  0
VERTEX
  8
0
 10
771.000000
 20
157.000000
 42
0.100918
  0
VERTEX
  8
0
 10
771.700861
 20
157.142914
 42
0.046457
  0
VERTEX
  8
0
 10
772.524124
 20
157.587500
 42
0.043436
  0
VERTEX
  8
0
 10
773.333162
 20
158.234835
 42
0.046192
  0
VERTEX
  8
0
 10
774.000000
 20
159.000000
 42
-0.046192
  0
VERTEX
  8
0
 10
774.666838
 20
159.765165
 42
-0.043436
  0
VERTEX
  8
0
 10
775.475876
 20
160.412500
 42
-0.046457
  0
VERTEX
  8
0
 10
776.299139
 20
160.857086
 42
-0.100918
  0
VERTEX
  8
0
 10
777.000000
 20
161.000000
 42
0.100918
  0
VERTEX
  8
0
 10
777.700861
 20
161.142914
 42
0.046457
  0
VERTEX
  8
0
 10
778.524124
 20
161.587500
 42
0.043436
  0
VERTEX
  8
0
 10
779.333162
 20
162.234835
 42
0.046192
  0
VERTEX
  8
0
 10
780.000000
 20
163.000000
 42
-0.038332
  0
VERTEX
  8
0
 10
780.646083
 20
163.765268
 42
-0.039803
  0
VERTEX
  8
0
 10
781.393849
 20
164.412500
 42
-0.043072
  0
VERTEX
  8
0
 10
782.128761
 20
164.860855
 42
-0.115942
  0
VERTEX
  8
0
 10
782.720759
 20
165.000000
 42
0.063116
  0
VERTEX
  8
0
 10
783.209871
 20
165.061989
 42
0.081172
  0
VERTEX
  8
0
 10
783.624223
 20
165.244112
 42
0.098305
  0
VERTEX
  8
0
 10
783.901490
 20
165.514094
 42
0.151833
  0
VERTEX
  8
0
 10
784.000000
 20
165.831020
 42
-0.193066
  0
VERTEX
  8
0
 10
784.163280
 20
166.238121
 42
-0.030557
  0
VERTEX
  8
0
 10
784.807812
 20
166.834754
 42
-0.030119
  0
VERTEX
  8
0
 10
785.696866
 20
167.476882
 42
-0.022236
  0
VERTEX
  8
0
 10
786.750000
 20
168.081020
 42
0.014094
  0
VERTEX
  8
0
 10
787.899750
 20
168.715934
 42
0.011883
  0
VERTEX
  8
0
 10
789.080357
 20
169.450362
 42
0.012052
  0
VERTEX
  8
0
 10
790.125800
 20
170.172302
 42
0.032302
  0
VERTEX
  8
0
 10
790.821429
 20
170.750000
 42
-0.054385
  0
VERTEX
  8
0
 10
791.452409
 20
171.228643
 42
-0.037252
  0
VERTEX
  8
0
 10
792.256357
 20
171.632812
 42
-0.037539
  0
VERTEX
  8
0
 10
793.100274
 20
171.909032
 42
-0.060392
  0
VERTEX
  8
0
 10
793.850669
 20
172.000000
 42
0.094217
  0
VERTEX
  8
0
 10
794.609311
 20
172.144235
 42
0.047545
  0
VERTEX
  8
0
 10
795.480258
 20
172.587500
 42
0.044901
  0
VERTEX
  8
0
 10
796.322088
 20
173.234852
 42
0.050291
  0
VERTEX
  8
0
 10
797.000000
 20
174.000000
 42
-0.033869
  0
VERTEX
  8
0
 10
797.634566
 20
174.765368
 42
-0.037202
  0
VERTEX
  8
0
 10
798.348322
 20
175.412500
 42
-0.040203
  0
VERTEX
  8
0
 10
799.034929
 20
175.864062
 42
-0.126007
  0
VERTEX
  8
0
 10
799.565772
 20
176.000000
 42
0.117443
  0
VERTEX
  8
0
 10
800.118795
 20
176.131714
 42
0.032673
  0
VERTEX
  8
0
 10
800.891456
 20
176.587500
 42
0.031068
  0
VERTEX
  8
0
 10
801.724478
 20
177.234537
 42
0.028188
  0
VERTEX
  8
0
 10
802.500000
 20
178.000000
 42
-0.036535
  0
VERTEX
  8
0
 10
803.301685
 20
178.765317
 42
-0.035674
  0
VERTEX
  8
0
 10
804.212374
 20
179.412500
 42
-0.037894
  0
VERTEX
  8
0
 10
805.093962
 20
179.861172
 42
-0.099077
  0
VERTEX
  8
0
 10
805.787692
 20
180.000000
 42
0.090189
  0
VERTEX
  8
0
 10
806.469202
 20
180.123938
 42
0.039144
  0
VERTEX
  8
0
 10
807.306410
 20
180.516068
 42
0.037081
  0
VERTEX
  8
0
 10
808.154739
 20
181.084573
 42
0.040570
  0
VERTEX
  8
0
 10
808.882705
 20
181.756828
 42
-0.033499
  0
VERTEX
  8
0
 10
809.697653
 20
182.531017
 42
-0.016269
  0
VERTEX
  8
0
 10
810.832732
 20
183.412407
 42
-0.016056
  0
VERTEX
  8
0
 10
812.078771
 20
184.256847
 42
-0.022277
  0
VERTEX
  8
0
 10
813.250000
 20
184.925808
 42
0.022283
  0
VERTEX
  8
0
 10
814.303134
 20
185.527331
 42
0.030191
  0
VERTEX
  8
0
 10
815.192188
 20
186.167252
 42
0.030657
  0
VERTEX
  8
0
 10
815.836608
 20
186.762240
 42
0.193348
  0
VERTEX
  8
0
 10
816.000000
 20
187.168980
 42
-0.151833
  0
VERTEX
  8
0
 10
816.098510
 20
187.485906
 42
-0.098305
  0
VERTEX
  8
0
 10
816.375777
 20
187.755888
 42
-0.081172
  0
VERTEX
  8
0
 10
816.790129
 20
187.938011
 42
-0.063116
  0
VERTEX
  8
0
 10
817.279241
 20
188.000000
 42
0.115942
  0
VERTEX
  8
0
 10
817.871239
 20
188.139145
 42
0.043072
  0
VERTEX
  8
0
 10
818.606151
 20
188.587500
 42
0.039803
  0
VERTEX
  8
0
 10
819.353917
 20
189.234732
 42
0.038332
  0
VERTEX
  8
0
 10
820.000000
 20
190.000000
 42
-0.046192
  0
VERTEX
  8
0
 10
820.666838
 20
190.765165
 42
-0.043436
  0
VERTEX
  8
0
 10
821.475876
 20
191.412500
 42
-0.046457
  0
VERTEX
  8
0
 10
822.299139
 20
191.857086
 42
-0.100918
  0
VERTEX
  8
0
 10
823.000000
 20
192.000000
 42
0.100918
  0
VERTEX
  8
0
 10
823.700861
 20
192.142914
 42
0.046457
  0
VERTEX
  8
0
 10
824.524124
 20
192.587500
 42
0.043436
  0
VERTEX
  8
0
 10
825.333162
 20
193.234835
 42
0.046192
  0
VERTEX
  8
0
 10
826.000000
 20
194.000000
 42
-0.046192
  0
VERTEX
  8
0
 10
826.666838
 20
194.765165
 42
-0.043436
  0
VERTEX
  8
0
 10
827.475876
 20
195.412500
 42
-0.046457
  0
VERTEX
  8
0
 10
828.299139
 20
195.857086
 42
-0.100918
  0
VERTEX
  8
0
 10
829.000000
 20
196.000000
 42
0.100918
  0
VERTEX
  8
0
 10
829.700861
 20
196.142914
 42
0.046457
  0
VERTEX
  8
0
 10
830.524124
 20
196.587500
 42
0.043436
  0
VERTEX
  8
0
 10
831.333162
 20
197.234835
 42
0.046192
  0
VERTEX
  8
0
 10
832.000000
 20
198.000000
 42
-0.052224
  0
VERTEX
  8
0
 10
832.683198
 20
198.765149
 42
-0.045499
  0
VERTEX
  8
0
 10
833.540724
 20
199.412500
 42
-0.047927
  0
VERTEX
  8
0
 10
834.434551
 20
199.855253
 42
-0.091287
  0
VERTEX
  8
0
 10
835.220759
 20
200.000000
 42
0.053170
  0
VERTEX
  8
0
 10
835.901469
 20
200.072592
 42
0.072975
  0
VERTEX
  8
0
 10
836.477348
 20
200.288153
 42
0.092801
  0
VERTEX
  8
0
 10
836.864037
 20
200.606610
 42
0.175981
  0
VERTEX
  8
0
 10
837.000000
 20
200.980948
 42
-0.193383
  0
VERTEX
  8
0
 10
837.168509
 20
201.400342
 42
-0.056718
  0
VERTEX
  8
0
 10
837.712756
 20
201.852633
 42
-0.047813
  0
VERTEX
  8
0
 10
838.497548
 20
202.265717
 42
-0.035779
  0
VERTEX
  8
0
 10
839.426404
 20
202.570885
 42
0.046429
  0
VERTEX
  8
0
 10
840.481418
 20
202.942534
 42
0.028391
  0
VERTEX
  8
0
 10
841.647823
 20
203.562064
 42
0.028318
  0
VERTEX
  8
0
 10
842.742901
 20
204.313884
 42
0.044272
  0
VERTEX
  8
0
 10
843.581391
 20
205.089937
 42
-0.034923
  0
VERTEX
  8
0
 10
844.342121
 20
205.820856
 42
-0.034905
  0
VERTEX
  8
0
 10
845.197301
 20
206.438919
 42
-0.037098
  0
VERTEX
  8
0
 10
846.018555
 20
206.868432
 42
-0.102283
  0
VERTEX
  8
0
 10
846.654988
 20
207.000000
 42
0.059889
  0
VERTEX
  8
0
 10
847.169350
 20
207.061831
 42
0.078705
  0
VERTEX
  8
0
 10
847.604903
 20
207.244112
 42
0.096942
  0
VERTEX
  8
0
 10
847.896578
 20
207.514056
 42
0.159019
  0
VERTEX
  8
0
 10
848.000000
 20
207.831020
 42
-0.193348
  0
VERTEX
  8
0
 10
848.163392
 20
208.237760
 42
-0.030657
  0
VERTEX
  8
0
 10
848.807812
 20
208.832748
 42
-0.030191
  0
VERTEX
  8
0
 10
849.696866
 20
209.472669
 42
-0.022283
  0
VERTEX
  8
0
 10
850.750000
 20
210.074192
 42
0.022277
  0
VERTEX
  8
0
 10
851.921229
 20
210.743153
 42
0.016056
  0
VERTEX
  8
0
 10
853.167268
 20
211.587593
 42
0.016269
  0
VERTEX
  8
0
 10
854.302347
 20
212.468983
 42
0.033499
  0
VERTEX
  8
0
 10
855.117295
 20
213.243172
 42
-0.038898
  0
VERTEX
  8
0
 10
855.840403
 20
213.915430
 42
-0.036432
  0
VERTEX
  8
0
 10
856.674269
 20
214.483932
 42
-0.038554
  0
VERTEX
  8
0
 10
857.490716
 20
214.876791
 42
-0.093120
  0
VERTEX
  8
0
 10
858.146536
 20
215.000000
 42
0.108353
  0
VERTEX
  8
0
 10
858.790435
 20
215.141194
 42
0.044932
  0
VERTEX
  8
0
 10
859.567169
 20
215.587500
 42
0.041686
  0
VERTEX
  8
0
 10
860.344051
 20
216.234793
 42
0.042098
  0
VERTEX
  8
0
 10
861.000000
 20
217.000000
 42
-0.046192
  0
VERTEX
  8
0
 10
861.666838
 20
217.765165
 42
-0.043436
  0
VERTEX
  8
0
 10
862.475876
 20
218.412500
 42
-0.046457
  0
VERTEX
  8
0
 10
863.299139
 20
218.857086
 42
-0.100918
  0
VERTEX
  8
0
 10
864.000000
 20
219.000000
 42
0.100918
  0
VERTEX
  8
0
 10
864.700861
 20
219.142914
 42
0.046457
  0
VERTEX
  8
0
 10
865.524124
 20
219.587500
 42
0.043436
  0
VERTEX
  8
0
 10
866.333162
 20
220.234835
 42
0.046192
  0
VERTEX
  8
0
 10
867.000000
 20
221.000000
 42
-0.052224
  0
VERTEX
  8
0
 10
867.683198
 20
221.765149
 42
-0.045499
  0
VERTEX
  8
0
 10
868.540724
 20
222.412500
 42
-0.047927
  0
VERTEX
  8
0
 10
869.434551
 20
222.855253
 42
-0.091287
  0
VERTEX
  8
0
 10
870.220759
 20
223.000000
 42
0.044750
  0
VERTEX
  8
0
 10
870.901831
 20
223.061079
 42
0.064608
  0
VERTEX
  8
0
 10
871.477348
 20
223.244112
 42
0.084512
  0
VERTEX
  8
0
 10
871.866372
 20
223.513455
 42
0.201824
  0
VERTEX
  8
0
 10
872.000000
 20
223.831020
 42
-0.193066
  0
VERTEX
  8
0
 10
872.163280
 20
224.238121
 42
-0.030557
  0
VERTEX
  8
0
 10
872.807812
 20
224.834754
 42
-0.030119
  0
VERTEX
  8
0
 10
873.696866
 20
225.476882
 42
-0.022236
  0
VERTEX
  8
0
 10
874.750000
 20
226.081020
 42
0.016468
  0
VERTEX
  8
0
 10
875.934193
 20
226.742309
 42
0.011657
  0
VERTEX
  8
0
 10
877.219851
 20
227.558305
 42
0.011784
  0
VERTEX
  8
0
 10
878.412795
 20
228.396376
 42
0.024274
  0
VERTEX
  8
0
 10
879.296301
 20
229.117464
 42
-0.030388
  0
VERTEX
  8
0
 10
880.239131
 20
229.867963
 42
-0.011204
  0
VERTEX
  8
0
 10
881.652900
 20
230.812793
 42
-0.011057
  0
VERTEX
  8
0
 10
883.246601
 20
231.778132
 42
-0.013063
  0
VERTEX
  8
0
 10
884.796301
 20
232.617464
 42
0.005604
  0
VERTEX
  8
0
 10
886.251298
 20
233.377655
 42
0.007396
  0
VERTEX
  8
0
 10
887.558913
 20
234.104728
 42
0.005526
  0
VERTEX
  8
0
 10
888.634377
 20
234.739641
 42
0.069271
  0
VERTEX
  8
0
 10
889.000000
 20
235.036927
 42
-0.054093
  0
VERTEX
  8
0
 10
889.381941
 20
235.367157
 42
-0.002421
  0
VERTEX
  8
0
 10
890.821875
 20
236.352248
 42
-0.004047
  0
VERTEX
  8
0
 10
892.548157
 20
237.500738
 42
-0.002881
  0
VERTEX
  8
0
 10
894.500000
 20
238.760631
 42
0.001814
  0
VERTEX
  8
0
 10
896.487801
 20
240.037728
 42
0.002260
  0
VERTEX
  8
0
 10
898.325000
 20
241.239328
 42
0.001832
  0
VERTEX
  8
0
 10
899.858796
 20
242.260510
 42
0.017267
  0
VERTEX
  8
0
 10
900.500000
 20
242.723703
 42
-0.026095
  0
VERTEX
  8
0
 10
901.060148
 20
243.113488
 42
-0.006536
  0
VERTEX
  8
0
 10
902.014062
 20
243.688788
 42
-0.006658
  0
VERTEX
  8
0
 10
903.123830
 20
244.318765
 42
-0.006657
  0
VERTEX
  8
0
 10
904.250000
 20
244.918980
 42
0.022236
  0
VERTEX
  8
0
 10
905.303134
 20
245.523118
 42
0.030119
  0
VERTEX
  8
0
 10
906.192188
 20
246.165246
 42
0.030557
  0
VERTEX
  8
0
 10
906.836720
 20
246.761879
 42
0.193066
  0
VERTEX
  8
0
 10
907.000000
 20
247.168980
 42
-0.175242
  0
VERTEX
  8
0
 10
907.114665
 20
247.486095
 42
-0.093006
  0
VERTEX
  8
0
 10
907.440625
 20
247.755888
 42
-0.073221
  0
VERTEX
  8
0
 10
907.926133
 20
247.938489
 42
-0.053440
  0
VERTEX
  8
0
 10
908.500000
 20
248.000000
 42
0.064853
  0
VERTEX
  8
0
 10
909.073457
 20
248.074694
 42
0.082425
  0
VERTEX
  8
0
 10
909.559375
 20
248.293750
 42
0.098894
  0
VERTEX
  8
0
 10
909.884432
 20
248.618646
 42
0.148195
  0
VERTEX
  8
0
 10
910.000000
 20
249.000000
 42
-0.191087
  0
VERTEX
  8
0
 10
910.151477
 20
249.381882
 42
-0.088204
  0
VERTEX
  8
0
 10
910.587500
 20
249.706250
 42
-0.068025
  0
VERTEX
  8
0
 10
911.234582
 20
249.926307
 42
-0.048028
  0
VERTEX
  8
0
 10
912.000000
 20
250.000000
 42
0.048028
  0
VERTEX
  8
0
 10
912.765418
 20
250.073693
 42
0.068025
  0
VERTEX
  8
0
 10
913.412500
 20
250.293750
 42
0.088204
  0
VERTEX
  8
0
 10
913.848523
 20
250.618118
 42
0.191087
  0
VERTEX
  8
0
 10
914.000000
 20
251.000000
 42
-0.148195
  0
VERTEX
  8
0
 10
914.115568
 20
251.381354
 42
-0.098894
  0
VERTEX
  8
0
 10
914.440625
 20
251.706250
 42
-0.082425
  0
VERTEX
  8
0
 10
914.926543
 20
251.925306
 42
-0.064853
  0
VERTEX
  8
0
 10
915.500000
 20
252.000000
 42
0.064853
  0
VERTEX
  8
0
 10
916.073457
 20
252.074694
 42
0.082425
  0
VERTEX
  8
0
 10
916.559375
 20
252.293750
 42
0.098894
  0
VERTEX
  8
0
 10
916.884432
 20
252.618646
 42
0.148195
  0
VERTEX
  8
0
 10
917.000000
 20
253.000000
 42
-0.148195
  0
VERTEX
  8
0
 10
917.115568
 20
253.381354
 42
-0.098894
  0
VERTEX
  8
0
 10
917.440625
 20
253.706250
 42
-0.082425
  0
VERTEX
  8
0
 10
917.926543
 20
253.925306
 42
-0.064853
  0
VERTEX
  8
0
 10
918.500000
 20
254.000000
 42
0.064853
  0
VERTEX
  8
0
 10
919.073457
 20
254.074694
 42
0.082425
  0
VERTEX
  8
0
 10
919.559375
 20
254.293750
 42
0.098894
  0
VERTEX
  8
0
 10
919.884432
 20
254.618646
 42
0.148195
  0
VERTEX
  8
0
 10
920.000000
 20
255.000000
 42
-0.191087
  0
VERTEX
  8
0
 10
920.151477
 20
255.381882
 42
-0.088204
  0
VERTEX
  8
0
 10
920.587500
 20
255.706250
 42
-0.068025
  0
VERTEX
  8
0
 10
921.234582
 20
255.926307
 42
-0.048028
  0
VERTEX
  8
0
 10
922.000000
 20
256.000000
 42
0.048028
  0
VERTEX
  8
0
 10
922.765418
 20
256.073693
 42
0.068025
  0
VERTEX
  8
0
 10
923.412500
 20
256.293750
 42
0.088204
  0
VERTEX
  8
0
 10
923.848523
 20
256.618118
 42
0.191087
  0
VERTEX
  8
0
 10
924.000000
 20
257.000000
 42
-0.191087
  0
VERTEX
  8
0
 10
924.151477
 20
257.381882
 42
-0.088204
  0
VERTEX
  8
0
 10
924.587500
 20
257.706250
 42
-0.068025
  0
VERTEX
  8
0
 10
925.234582
 20
257.926307
 42
-0.048028
  0
VERTEX
  8
0
 10
926.000000
 20
258.000000
 42
0.038787
  0
VERTEX
  8
0
 10
926.765855
 20
258.059499
 42
0.057859
  0
VERTEX
  8
0
 10
927.412500
 20
258.238923
 42
0.076066
  0
VERTEX
  8
0
 10
927.853242
 20
258.501972
 42
0.223848
  0
VERTEX
  8
0
 10
928.000000
 20
258.813354
 42
-0.231074
  0
VERTEX
  8
0
 10
928.191736
 20
259.206081
 42
-0.026011
  0
VERTEX
  8
0
 10
929.028125
 20
259.791189
 42
-0.027303
  0
VERTEX
  8
0
 10
930.159192
 20
260.414732
 42
-0.018834
  0
VERTEX
  8
0
 10
931.500000
 20
261.000000
 42
0.018834
  0
VERTEX
  8
0
 10
932.840808
 20
261.585268
 42
0.027303
  0
VERTEX
  8
0
 10
933.971875
 20
262.208811
 42
0.026011
  0
VERTEX
  8
0
 10
934.808264
 20
262.793919
 42
0.231074
  0
VERTEX
  8
0
 10
935.000000
 20
263.186646
 42
-0.223848
  0
VERTEX
  8
0
 10
935.146758
 20
263.498028
 42
-0.076066
  0
VERTEX
  8
0
 10
935.587500
 20
263.761077
 42
-0.057859
  0
VERTEX
  8
0
 10
936.234145
 20
263.940501
 42
-0.038787
  0
VERTEX
  8
0
 10
937.000000
 20
264.000000
 42
0.048028
  0
VERTEX
  8
0
 10
937.765418
 20
264.073693
 42
0.068025
  0
VERTEX
  8
0
 10
938.412500
 20
264.293750
 42
0.088204
  0
VERTEX
  8
0
 10
938.848523
 20
264.618118
 42
0.191087
  0
VERTEX
  8
0
 10
939.000000
 20
265.000000
 42
-0.144987
  0
VERTEX
  8
0
 10
939.112954
 20
265.381345
 42
-0.099354
  0
VERTEX
  8
0
 10
939.430531
 20
265.706250
 42
-0.083530
  0
VERTEX
  8
0
 10
939.905372
 20
265.925214
 42
-0.066447
  0
VERTEX
  8
0
 10
940.465638
 20
266.000000
 42
0.094879
  0
VERTEX
  8
0
 10
941.418168
 20
266.182392
 42
0.005409
  0
VERTEX
  8
0
 10
944.196568
 20
267.321875
 42
0.008112
  0
VERTEX
  8
0
 10
947.486323
 20
268.776194
 42
0.005856
  0
VERTEX
  8
0
 10
951.108550
 20
270.500000
 42
-0.005427
  0
VERTEX
  8
0
 10
954.723002
 20
272.223905
 42
-0.007618
  0
VERTEX
  8
0
 10
957.988645
 20
273.678125
 42
-0.004834
  0
VERTEX
  8
0
 10
960.749917
 20
274.826232
 42
-0.096391
  0
VERTEX
  8
0
 10
961.642912
 20
275.000000
 42
0.053282
  0
VERTEX
  8
0
 10
962.162368
 20
275.055512
 42
0.072840
  0
VERTEX
  8
0
 10
962.602400
 20
275.220312
 42
0.092406
  0
VERTEX
  8
0
 10
962.898561
 20
275.463779
 42
0.175186
  0
VERTEX
  8
0
 10
963.003557
 20
275.750000
 42
-0.252497
  0
VERTEX
  8
0
 10
963.219031
 20
276.144986
 42
-0.010688
  0
VERTEX
  8
0
 10
964.619605
 20
277.014063
 42
-0.016166
  0
VERTEX
  8
0
 10
966.394667
 20
277.987617
 42
-0.010555
  0
VERTEX
  8
0
 10
968.500000
 20
279.000000
 42
0.010555
  0
VERTEX
  8
0
 10
970.605333
 20
280.012383
 42
0.016166
  0
VERTEX
  8
0
 10
972.380395
 20
280.985937
 42
0.010688
  0
VERTEX
  8
0
 10
973.780969
 20
281.855014
 42
0.252497
  0
VERTEX
  8
0
 10
973.996443
 20
282.250000
 42
-0.235946
  0
VERTEX
  8
0
 10
974.141838
 20
282.537540
 42
-0.070374
  0
VERTEX
  8
0
 10
974.586455
 20
282.779688
 42
-0.053938
  0
VERTEX
  8
0
 10
975.233754
 20
282.945257
 42
-0.035676
  0
VERTEX
  8
0
 10
976.000000
 20
283.000000
 42
0.048028
  0
VERTEX
  8
0
 10
976.765418
 20
283.073693
 42
0.068025
  0
VERTEX
  8
0
 10
977.412500
 20
283.293750
 42
0.088204
  0
VERTEX
  8
0
 10
977.848523
 20
283.618118
 42
0.191087
  0
VERTEX
  8
0
 10
978.000000
 20
284.000000
 42
-0.191087
  0
VERTEX
  8
0
 10
978.151477
 20
284.381882
 42
-0.088204
  0
VERTEX
  8
0
 10
978.587500
 20
284.706250
 42
-0.068025
  0
VERTEX
  8
0
 10
979.234582
 20
284.926307
 42
-0.048028
  0
VERTEX
  8
0
 10
980.000000
 20
285.000000
 42
0.048028
  0
VERTEX
  8
0
 10
980.765418
 20
285.073693
 42
0.068025
  0
VERTEX
  8
0
 10
981.412500
 20
285.293750
 42
0.088204
  0
VERTEX
  8
0
 10
981.848523
 20
285.618118
 42
0.191087
  0
VERTEX
  8
0
 10
982.000000
 20
286.000000
 42
-0.173062
  0
VERTEX
  8
0
 10
982.136147
 20
286.381567
 42
-0.093597
  0
VERTEX
  8
0
 10
982.522652
 20
286.706250
 42
-0.073949
  0
VERTEX
  8
0
 10
983.098578
 20
286.925933
 42
-0.054248
  0
VERTEX
  8
0
 10
983.779241
 20
287.000000
 42
0.091287
  0
VERTEX
  8
0
 10
984.565449
 20
287.144747
 42
0.047927
  0
VERTEX
  8
0
 10
985.459276
 20
287.587500
 42
0.045499
  0
VERTEX
  8
0
 10
986.316802
 20
288.234851
 42
0.052224
  0
VERTEX
  8
0
 10
987.000000
 20
289.000000
 42
-0.046192
  0
VERTEX
  8
0
 10
987.666838
 20
289.765165
 42
-0.043436
  0
VERTEX
  8
0
 10
988.475876
 20
290.412500
 42
-0.046457
  0
VERTEX
  8
0
 10
989.299139
 20
290.857086
 42
-0.100918
  0
VERTEX
  8
0
 10
990.000000
 20
291.000000
 42
0.100918
  0
VERTEX
  8
0
 10
990.700861
 20
291.142914
 42
0.046457
  0
VERTEX
  8
0
 10
991.524124
 20
291.587500
 42
0.043436
  0
VERTEX
  8
0
 10
992.333162
 20
292.234835
 42
0.046192
  0
VERTEX
  8
0
 10
993.000000
 20
293.000000
 42
-0.024348
  0
VERTEX
  8
0
 10
993.610618
 20
293.765674
 42
-0.030142
  0
VERTEX
  8
0
 10
994.253272
 20
294.412500
 42
-0.031136
  0
VERTEX
  8
0
 10
994.842306
 20
294.875451
 42
-0.152123
  0
VERTEX
  8
0
 10
995.242199
 20
295.000000
 42
0.141268
  0
VERTEX
  8
0
 10
996.612349
 20
295.394999
 42
0.007377
  0
VERTEX
  8
0
 10
1000.490945
 20
297.914623
 42
0.012531
  0
VERTEX
  8
0
 10
1004.284184
 20
300.599376
 42
0.033616
  0
VERTEX
  8
0
 10
1006.795455
 20
302.750000
 42
-0.018609
  0
VERTEX
  8
0
 10
1007.742350
 20
303.611453
 42
-0.022908
  0
VERTEX
  8
0
 10
1008.689287
 20
304.339063
 42
-0.022167
  0
VERTEX
  8
0
 10
1009.523578
 20
304.867984
 42
-0.130916
  0
VERTEX
  8
0
 10
1010.019139
 20
305.000000
 42
0.164938
  0
VERTEX
  8
0
 10
1010.574723
 20
305.188399
 42
0.009578
  0
VERTEX
  8
0
 10
1011.996576
 20
306.321875
 42
0.013709
  0
VERTEX
  8
0
 10
1013.655892
 20
307.776011
 42
0.009598
  0
VERTEX
  8
0
 10
1015.447368
 20
309.500000
 42
-0.011611
  0
VERTEX
  8
0
 10
1017.253055
 20
311.223718
 42
-0.016058
  0
VERTEX
  8
0
 10
1018.955993
 20
312.678125
 42
-0.012599
  0
VERTEX
  8
0
 10
1020.418709
 20
313.789016
 42
-0.157365
  0
VERTEX
  8
0
 10
1021.072474
 20
314.000000
 42
0.141650
  0
VERTEX
  8
0
 10
1021.672273
 20
314.173402
 42
0.022365
  0
VERTEX
  8
0
 10
1022.690291
 20
314.881250
 42
0.023305
  0
VERTEX
  8
0
 10
1023.844572
 20
315.851321
 42
0.018486
  0
VERTEX
  8
0
 10
1025.000000
 20
317.000000
 42
-0.016718
  0
VERTEX
  8
0
 10
1026.147409
 20
318.148800
 42
-0.021644
  0
VERTEX
  8
0
 10
1027.277499
 20
319.118750
 42
-0.020027
  0
VERTEX
  8
0
 10
1028.266365
 20
319.833645
 42
-0.147534
  0
VERTEX
  8
0
 10
1028.817876
 20
320.000000
 42
0.067357
  0
VERTEX
  8
0
 10
1029.231000
 20
320.055907
 42
0.059685
  0
VERTEX
  8
0
 10
1029.632960
 20
320.220312
 42
0.062826
  0
VERTEX
  8
0
 10
1029.963882
 20
320.463100
 42
0.098850
  0
VERTEX
  8
0
 10
1030.166667
 20
320.750000
 42
-0.093333
  0
VERTEX
  8
0
 10
1030.461150
 20
321.176453
 42
-0.007865
  0
VERTEX
  8
0
 10
1031.430208
 20
322.106001
 42
-0.010233
  0
VERTEX
  8
0
 10
1032.635186
 20
323.180883
 42
-0.007734
  0
VERTEX
  8
0
 10
1034.000000
 20
324.312982
 42
0.001262
  0
VERTEX
  8
0
 10
1038.708534
 20
328.116867
 42
0.003068
  0
VERTEX
  8
0
 10
1042.157189
 20
330.952635
 42
0.003926
  0
VERTEX
  8
0
 10
1044.998641
 20
333.356513
 42
0.004210
  0
VERTEX
  8
0
 10
1047.736199
 20
335.750000
 42
-0.016326
  0
VERTEX
  8
0
 10
1049.231079
 20
336.994402
 42
-0.020363
  0
VERTEX
  8
0
 10
1050.700506
 20
338.045313
 42
-0.019053
  0
VERTEX
  8
0
 10
1051.980082
 20
338.815850
 42
-0.126651
  0
VERTEX
  8
0
 10
1052.695417
 20
339.000000
 42
0.075071
  0
VERTEX
  8
0
 10
1053.193865
 20
339.075262
 42
0.088801
  0
VERTEX
  8
0
 10
1053.616779
 20
339.293750
 42
0.100693
  0
VERTEX
  8
0
 10
1053.899494
 20
339.618644
 42
0.129563
  0
VERTEX
  8
0
 10
1054.000000
 20
340.000000
 42
-0.222681
  0
VERTEX
  8
0
 10
1054.179376
 20
340.382793
 42
-0.076538
  0
VERTEX
  8
0
 10
1054.717039
 20
340.706250
 42
-0.058208
  0
VERTEX
  8
0
 10
1055.506280
 20
340.926830
 42
-0.039081
  0
VERTEX
  8
0
 10
1056.440983
 20
341.000000
 42
0.041034
  0
VERTEX
  8
0
 10
1057.424912
 20
341.080885
 42
0.043393
  0
VERTEX
  8
0
 10
1058.363517
 20
341.321326
 42
0.047551
  0
VERTEX
  8
0
 10
1059.126801
 20
341.673729
 42
0.123029
  0
VERTEX
  8
0
 10
1059.558018
 20
342.093874
 42
-0.217402
  0
VERTEX
  8
0
 10
1060.417640
 20
342.668296
 42
-0.054491
  0
VERTEX
  8
0
 10
1062.144513
 20
342.758289
 42
-0.024937
  0
VERTEX
  8
0
 10
1065.161396
 20
342.435250
 42
-0.003630
  0
SEQEND
  0
POLYLINE
  8
0
 66
1
 70
1
  0
VERTEX
  8
0
 10
505.000000
 20
189.000000
 42
0.295869
  0
VERTEX
  8
0
 10
505.251055
 20
188.612873
 42
0.043820
  0
VERTEX
  8
0
 10
506.175000
 20
188.293750
 42
0.037669
  0
VERTEX
  8
0
 10
507.467056
 20
188.072390
 42
0.023598
  0
VERTEX
  8
0
 10
509.000000
 20
188.000000
 42
-0.023598
  0
VERTEX
  8
0
 10
510.532944
 20
187.927610
 42
-0.037669
  0
VERTEX
  8
0
 10
511.825000
 20
187.706250
 42
-0.043820
  0
VERTEX
  8
0
 10
512.748945
 20
187.387127
 42
-0.295869
  0
VERTEX
  8
0
 10
513.000000
 20
187.000000
 42
0.254951
  0
VERTEX
  8
0
 10
513.209557
 20
186.615738
 42
0.062710
  0
VERTEX
  8
0
 10
513.881250
 20
186.293750
 42
0.048861
  0
VERTEX
  8
0
 10
514.850749
 20
186.072766
 42
0.031626
  0
VERTEX
  8
0
 10
516.000000
 20
186.000000
 42
-0.031626
  0
VERTEX
  8
0
 10
517.149251
 20
185.927234
 42
-0.048861
  0
VERTEX
  8
0
 10
518.118750
 20
185.706250
 42
-0.062710
  0
VERTEX
  8
0
 10
518.790443
 20
185.384262
 42
-0.254951
  0
VERTEX
  8
0
 10
519.000000
 20
185.000000
 42
0.191087
  0
VERTEX
  8
0
 10
519.151477
 20
184.618118
 42
0.088204
  0
VERTEX
  8
0
 10
519.587500
 20
184.293750
 42
0.068025
  0
VERTEX
  8
0
 10
520.234582
 20
184.073693
 42
0.048028
  0
VERTEX
  8
0
 10
521.000000
 20
184.000000
 42
-0.048028
  0
VERTEX
  8
0
 10
521.765418
 20
183.926307
 42
-0.068025
  0
VERTEX
  8
0
 10
522.412500
 20
183.706250
 42
-0.088204
  0
VERTEX
  8
0
 10
522.848523
 20
183.381882
 42
-0.191087
  0
VERTEX
  8
0
 10
523.000000
 20
183.000000
 42
0.191087
  0
VERTEX
  8
0
 10
523.151477
 20
182.618118
 42
0.088204
  0
VERTEX
  8
0
 10
523.587500
 20
182.293750
 42
0.068025
  0
VERTEX
  8
0
 10
524.234582
 20
182.073693
 42
0.048028
  0
VERTEX
  8
0
 10
525.000000
 20
182.000000
 42
-0.048028
  0
VERTEX
  8
0
 10
525.765418
 20
181.926307
 42
-0.068025
  0
VERTEX
  8
0
 10
526.412500
 20
181.706250
 42
-0.088204
  0
VERTEX
  8
0
 10
526.848523
 20
181.381882
 42
-0.191087
  0
VERTEX
  8
0
 10
527.000000
 20
181.000000
 42
0.145228
  0
VERTEX
  8
0
 10
527.113150
 20
180.618655
 42
0.099322
  0
VERTEX
  8
0
 10
527.431287
 20
180.293750
 42
0.083447
  0
VERTEX
  8
0
 10
527.906957
 20
180.074779
 42
0.066325
  0
VERTEX
  8
0
 10
528.468209
 20
180.000000
 42
-0.182119
  0
VERTEX
  8
0
 10
530.221945
 20
179.339310
 42
-0.010605
  0
VERTEX
  8
0
 10
534.512404
 20
175.407645
 42
-0.016323
  0
VERTEX
  8
0
 10
538.571966
 20
171.264055
 42
-0.057936
  0
VERTEX
  8
0
 10
540.750000
 20
168.256463
 42
-0.143315
  0
VERTEX
  8
0
 10
541.868579
 20
163.399028
 42
-0.129752
  0
VERTEX
  8
0
 10
540.261802
 20
158.491616
 42
-0.115976
  0
VERTEX
  8
0
 10
536.228353
 20
154.616382
 42
-0.099895
  0
VERTEX
  8
0
 10
530.665793
 20
152.677779
 42
-0.037494
  0
VERTEX
  8
0
 10
526.309607
 20
152.410566
 42
-0.019846
  0
VERTEX
  8
0
 10
520.902391
 20
152.699452
 42
-0.010674
  0
VERTEX
  8
0
 10
515.739294
 20
153.292757
 42
-0.374987
  0
VERTEX
  8
0
 10
515.000000
 20
154.139903
 42
0.214951
  0
VERTEX
  8
0
 10
514.851706
 20
154.468912
 42
0.079602
  0
VERTEX
  8
0
 10
514.412500
 20
154.747346
 42
0.060544
  0
VERTEX
  8
0
 10
513.765749
 20
154.936968
 42
0.041088
  0
VERTEX
  8
0
 10
513.000000
 20
155.000000
 42
-0.048028
  0
VERTEX
  8
0
 10
512.234582
 20
155.073693
 42
-0.068025
  0
VERTEX
  8
0
 10
511.587500
 20
155.293750
 42
-0.088204
  0
VERTEX
  8
0
 10
511.151477
 20
155.618118
 42
-0.191087
  0
VERTEX
  8
0
 10
511.000000
 20
156.000000
 42
0.103674
  0
VERTEX
  8
0
 10
510.920022
 20
156.381574
 42
0.098920
  0
VERTEX
  8
0
 10
510.692898
 20
156.706250
 42
0.096788
  0
VERTEX
  8
0
 10
510.353602
 20
156.923826
 42
0.094588
  0
VERTEX
  8
0
 10
509.954545
 20
157.000000
 42
-0.175677
  0
VERTEX
  8
0
 10
508.658832
 20
157.469751
 42
-0.027861
  0
VERTEX
  8
0
 10
506.650753
 20
159.345419
 42
-0.031112
  0
VERTEX
  8
0
 10
504.676572
 20
161.681814
 42
-0.044035
  0
VERTEX
  8
0
 10
503.250974
 20
164.000000
 42
-0.037181
  0
VERTEX
  8
0
 10
502.626055
 20
165.524586
 42
-0.005615
  0
VERTEX
  8
0
 10
501.639663
 20
168.674809
 42
-0.006272
  0
VERTEX
  8
0
 10
500.561573
 20
172.428590
 42
-0.005385
  0
VERTEX
  8
0
 10
499.519609
 20
176.403607
 42
0.001078
  0
VERTEX
  8
0
 10
498.526145
 20
180.331243
 42
0.001383
  0
VERTEX
  8
0
 10
497.594313
 20
183.940407
 42
0.001060
  0
VERTEX
  8
0
 10
496.798377
 20
186.962152
 42
0.011915
  0
VERTEX
  8
0
 10
496.451247
 20
188.153607
 42
-0.104587
  0
VERTEX
  8
0
 10
496.354992
 20
189.123528
 42
-0.262561
  0
VERTEX
  8
0
 10
496.755541
 20
189.681012
 42
-0.098235
  0
VERTEX
  8
0
 10
497.841233
 20
189.944854
 42
-0.010639
  0
VERTEX
  8
0
 10
500.432612
 20
190.000000
 42
-0.020633
  0
VERTEX
  8
0
 10
502.183220
 20
189.927729
 42
-0.033268
  0
VERTEX
  8
0
 10
503.658330
 20
189.706250
 42
-0.036154
  0
VERTEX
  8
0
 10
504.731017
 20
189.388693
 42
-0.312270
  0
SEQEND
  0
ENDSEC
  0
EOF
