  0
SECTION
  2
HEADER
  9
$ACADVER
  1
AC1009
  9
$EXTMIN
 10
0.0
 20
0.0
 30
0.0
  9
$EXTMAX
 10
1000.0
 20
1000.0
 30
0.0
  9
$FILLMODE
 70
 0
  9
$SPLFRAME
 70
 1
  0
ENDSEC
  0
SECTION
  2
TABLES
  0
TABLE
  2
LAYER
 70
1
  0
LAYER
  2
0
 70
     0
 62
     7
  6
CONTINUOUS
  0
ENDTAB
  0
ENDSEC
  0
SECTION
  2
ENTITIES
  0
POLYLINE
  8
0
 62
     7
 66
     1
 10
0
 20
0
 30
0.0
 70
     1
 40
0
 41
0
  0
VERTEX
  8
0
 10
0
 20
6.94444
 30
0.0
 40
0
 41
0
  0
VERTEX
  8
0
 10
20.8333
 20
6.94444
 30
0.0
 40
0
 41
0
  0
VERTEX
  8
0
 10
20.8333
 20
-0
 30
0.0
 40
0
 41
0
  0
VERTEX
  8
0
 10
0
 20
-0
 30
0.0
 40
0
 41
0
  0
VERTEX
  8
0
 10
0
 20
6.94444
 30
0.0
 40
0
 41
0
  0
SEQEND
 8
0
  0
POLYLINE
  8
0
 62
     0
 66
     1
 10
0
 20
0
 30
0.0
 70
     1
 40
0
 41
0
  0
VERTEX
  8
0
 10
2.60389
 20
6.16336
 30
0.0
 40
0
 41
0
  0
VERTEX
  8
0
 10
12.9861
 20
6.16336
 30
0.0
 40
0
 41
0
  0
VERTEX
  8
0
 10
14.4261
 20
6.16249
 30
0.0
 40
0
 41
0
  0
VERTEX
  8
0
 10
14.6389
 20
6.02957
 30
0.0
 40
0
 41
0
  0
VERTEX
  8
0
 10
14.856
 20
5.90175
 30
0.0
 40
0
 41
0
  0
VERTEX
  8
0
 10
15.0685
 20
5.76714
 30
0.0
 40
0
 41
0
  0
VERTEX
  8
0
 10
15.2676
 20
5.61376
 30
0.0
 40
0
 41
0
  0
VERTEX
  8
0
 10
15.3974
 20
5.50142
 30
0.0
 40
0
 41
0
  0
VERTEX
  8
0
 10
15.5079
 20
5.36974
 30
0.0
 40
0
 41
0
  0
VERTEX
  8
0
 10
15.631
 20
5.22168
 30
0.0
 40
0
 41
0
  0
VERTEX
  8
0
 10
15.75
 20
5.07015
 30
0.0
 40
0
 41
0
  0
VERTEX
  8
0
 10
15.825
 20
4.97851
 30
0.0
 40
0
 41
0
  0
VERTEX
  8
0
 10
15.9017
 20
4.88835
 30
0.0
 40
0
 41
0
  0
VERTEX
  8
0
 10
15.9442
 20
4.84381
 30
0.0
 40
0
 41
0
  0
VERTEX
  8
0
 10
15.9821
 20
4.79531
 30
0.0
 40
0
 41
0
  0
VERTEX
  8
0
 10
16.0199
 20
4.74658
 30
0.0
 40
0
 41
0
  0
VERTEX
  8
0
 10
16.0621
 20
4.70156
 30
0.0
 40
0
 41
0
  0
VERTEX
  8
0
 10
16.1392
 20
4.61871
 30
0.0
 40
0
 41
0
  0
VERTEX
  8
0
 10
16.2106
 20
4.53054
 30
0.0
 40
0
 41
0
  0
VERTEX
  8
0
 10
16.274
 20
4.46181
 30
0.0
 40
0
 41
0
  0
VERTEX
  8
0
 10
16.3388
 20
4.39404
 30
0.0
 40
0
 41
0
  0
VERTEX
  8
0
 10
16.4072
 20
4.30951
 30
0.0
 40
0
 41
0
  0
VERTEX
  8
0
 10
16.48
 20
4.229
 30
0.0
 40
0
 41
0
  0
VERTEX
  8
0
 10
16.5536
 20
4.1505
 30
0.0
 40
0
 41
0
  0
VERTEX
  8
0
 10
16.6218
 20
4.06679
 30
0.0
 40
0
 41
0
  0
VERTEX
  8
0
 10
16.7017
 20
3.9796
 30
0.0
 40
0
 41
0
  0
VERTEX
  8
0
 10
16.7826
 20
3.89333
 30
0.0
 40
0
 41
0
  0
VERTEX
  8
0
 10
16.8472
 20
3.81278
 30
0.0
 40
0
 41
0
  0
VERTEX
  8
0
 10
16.9172
 20
3.73665
 30
0.0
 40
0
 41
0
  0
VERTEX
  8
0
 10
17.0283
 20
3.61176
 30
0.0
 40
0
 41
0
  0
VERTEX
  8
0
 10
17.1394
 20
3.48654
 30
0.0
 40
0
 41
0
  0
VERTEX
  8
0
 10
17.2156
 20
3.40451
 30
0.0
 40
0
 41
0
  0
VERTEX
  8
0
 10
17.2868
 20
3.31776
 30
0.0
 40
0
 41
0
  0
VERTEX
  8
0
 10
17.3475
 20
3.25179
 30
0.0
 40
0
 41
0
  0
VERTEX
  8
0
 10
17.4099
 20
3.18707
 30
0.0
 40
0
 41
0
  0
VERTEX
  8
0
 10
17.4842
 20
3.09532
 30
0.0
 40
0
 41
0
  0
VERTEX
  8
0
 10
17.5643
 20
3.00863
 30
0.0
 40
0
 41
0
  0
VERTEX
  8
0
 10
17.6335
 20
2.93175
 30
0.0
 40
0
 41
0
  0
VERTEX
  8
0
 10
17.6989
 20
2.8514
 30
0.0
 40
0
 41
0
  0
VERTEX
  8
0
 10
17.7663
 20
2.77897
 30
0.0
 40
0
 41
0
  0
VERTEX
  8
0
 10
17.8292
 20
2.70247
 30
0.0
 40
0
 41
0
  0
VERTEX
  8
0
 10
17.8671
 20
2.65419
 30
0.0
 40
0
 41
0
  0
VERTEX
  8
0
 10
17.9093
 20
2.6096
 30
0.0
 40
0
 41
0
  0
VERTEX
  8
0
 10
17.9517
 20
2.56506
 30
0.0
 40
0
 41
0
  0
VERTEX
  8
0
 10
17.99
 20
2.51693
 30
0.0
 40
0
 41
0
  0
VERTEX
  8
0
 10
18.0976
 20
2.39469
 30
0.0
 40
0
 41
0
  0
VERTEX
  8
0
 10
18.2079
 20
2.27474
 30
0.0
 40
0
 41
0
  0
VERTEX
  8
0
 10
18.3364
 20
2.12733
 30
0.0
 40
0
 41
0
  0
VERTEX
  8
0
 10
18.4743
 20
1.98833
 30
0.0
 40
0
 41
0
  0
VERTEX
  8
0
 10
18.5869
 20
1.88411
 30
0.0
 40
0
 41
0
  0
VERTEX
  8
0
 10
18.7151
 20
1.79943
 30
0.0
 40
0
 41
0
  0
VERTEX
  8
0
 10
18.7281
 20
1.78944
 30
0.0
 40
0
 41
0
  0
VERTEX
  8
0
 10
18.7414
 20
1.77897
 30
0.0
 40
0
 41
0
  0
VERTEX
  8
0
 10
18.7511
 20
1.76633
 30
0.0
 40
0
 41
0
  0
VERTEX
  8
0
 10
18.7535
 20
1.74983
 30
0.0
 40
0
 41
0
  0
VERTEX
  8
0
 10
18.7535
 20
0.780979
 30
0.0
 40
0
 41
0
  0
VERTEX
  8
0
 10
2.60444
 20
0.780707
 30
0.0
 40
0
 41
0
  0
VERTEX
  8
0
 10
2.604
 20
2.1536
 30
0.0
 40
0
 41
0
  0
VERTEX
  8
0
 10
4.91764
 20
2.15767
 30
0.0
 40
0
 41
0
  0
VERTEX
  8
0
 10
4.96653
 20
2.16194
 30
0.0
 40
0
 41
0
  0
VERTEX
  8
0
 10
5.01443
 20
2.17333
 30
0.0
 40
0
 41
0
  0
VERTEX
  8
0
 10
5.41049
 20
2.18056
 30
0.0
 40
0
 41
0
  0
VERTEX
  8
0
 10
5.80653
 20
2.18544
 30
0.0
 40
0
 41
0
  0
VERTEX
  8
0
 10
5.89242
 20
2.20725
 30
0.0
 40
0
 41
0
  0
VERTEX
  8
0
 10
5.98188
 20
2.20817
 30
0.0
 40
0
 41
0
  0
VERTEX
  8
0
 10
6.07113
 20
2.20947
 30
0.0
 40
0
 41
0
  0
VERTEX
  8
0
 10
6.15625
 20
2.23236
 30
0.0
 40
0
 41
0
  0
VERTEX
  8
0
 10
6.2079
 20
2.24235
 30
0.0
 40
0
 41
0
  0
VERTEX
  8
0
 10
6.25771
 20
2.2615
 30
0.0
 40
0
 41
0
  0
VERTEX
  8
0
 10
6.30203
 20
2.29047
 30
0.0
 40
0
 41
0
  0
VERTEX
  8
0
 10
6.33708
 20
2.32986
 30
0.0
 40
0
 41
0
  0
VERTEX
  8
0
 10
6.34397
 20
2.39919
 30
0.0
 40
0
 41
0
  0
VERTEX
  8
0
 10
6.34082
 20
2.46903
 30
0.0
 40
0
 41
0
  0
VERTEX
  8
0
 10
6.26958
 20
2.60661
 30
0.0
 40
0
 41
0
  0
VERTEX
  8
0
 10
6.16569
 20
2.72194
 30
0.0
 40
0
 41
0
  0
VERTEX
  8
0
 10
6.05171
 20
2.83746
 30
0.0
 40
0
 41
0
  0
VERTEX
  8
0
 10
5.92503
 20
2.9375
 30
0.0
 40
0
 41
0
  0
VERTEX
  8
0
 10
5.87565
 20
2.98568
 30
0.0
 40
0
 41
0
  0
VERTEX
  8
0
 10
5.82124
 20
3.02724
 30
0.0
 40
0
 41
0
  0
VERTEX
  8
0
 10
5.76133
 20
3.07232
 30
0.0
 40
0
 41
0
  0
VERTEX
  8
0
 10
5.70182
 20
3.11789
 30
0.0
 40
0
 41
0
  0
VERTEX
  8
0
 10
4.06304
 20
4.29497
 30
0.0
 40
0
 41
0
  0
VERTEX
  8
0
 10
3.68608
 20
4.56201
 30
0.0
 40
0
 41
0
  0
VERTEX
  8
0
 10
3.29764
 20
4.81142
 30
0.0
 40
0
 41
0
  0
VERTEX
  8
0
 10
3.19374
 20
4.87358
 30
0.0
 40
0
 41
0
  0
VERTEX
  8
0
 10
3.08974
 20
4.93554
 30
0.0
 40
0
 41
0
  0
VERTEX
  8
0
 10
2.95225
 20
5.01074
 30
0.0
 40
0
 41
0
  0
VERTEX
  8
0
 10
2.81142
 20
5.07958
 30
0.0
 40
0
 41
0
  0
VERTEX
  8
0
 10
2.70919
 20
5.11903
 30
0.0
 40
0
 41
0
  0
VERTEX
  8
0
 10
2.60335
 20
5.146
 30
0.0
 40
0
 41
0
  0
VERTEX
  8
0
 10
2.60389
 20
6.16336
 30
0.0
 40
0
 41
0
  0
SEQEND
 8
0
  0
POLYLINE
  8
0
 62
     7
 66
     1
 10
0
 20
0
 30
0.0
 70
     1
 40
0
 41
0
  0
VERTEX
  8
0
 10
4.78168
 20
5.10124
 30
0.0
 40
0
 41
0
  0
VERTEX
  8
0
 10
4.82081
 20
5.12776
 30
0.0
 40
0
 41
0
  0
VERTEX
  8
0
 10
4.86518
 20
5.14399
 30
0.0
 40
0
 41
0
  0
VERTEX
  8
0
 10
4.91174
 20
5.15565
 30
0.0
 40
0
 41
0
  0
VERTEX
  8
0
 10
4.95763
 20
5.16818
 30
0.0
 40
0
 41
0
  0
VERTEX
  8
0
 10
5.51237
 20
5.15864
 30
0.0
 40
0
 41
0
  0
VERTEX
  8
0
 10
5.54975
 20
5.14979
 30
0.0
 40
0
 41
0
  0
VERTEX
  8
0
 10
5.58778
 20
5.14388
 30
0.0
 40
0
 41
0
  0
VERTEX
  8
0
 10
6.079
 20
5.14301
 30
0.0
 40
0
 41
0
  0
VERTEX
  8
0
 10
6.5689
 20
5.11833
 30
0.0
 40
0
 41
0
  0
VERTEX
  8
0
 10
7.2786
 20
5.11654
 30
0.0
 40
0
 41
0
  0
VERTEX
  8
0
 10
7.40961
 20
5.10032
 30
0.0
 40
0
 41
0
  0
VERTEX
  8
0
 10
7.54113
 20
5.09011
 30
0.0
 40
0
 41
0
  0
VERTEX
  8
0
 10
8.16683
 20
5.08919
 30
0.0
 40
0
 41
0
  0
VERTEX
  8
0
 10
8.3055
 20
5.07547
 30
0.0
 40
0
 41
0
  0
VERTEX
  8
0
 10
8.44417
 20
5.0625
 30
0.0
 40
0
 41
0
  0
VERTEX
  8
0
 10
9.125
 20
5.06142
 30
0.0
 40
0
 41
0
  0
VERTEX
  8
0
 10
9.2915
 20
5.04824
 30
0.0
 40
0
 41
0
  0
VERTEX
  8
0
 10
9.45806
 20
5.03489
 30
0.0
 40
0
 41
0
  0
VERTEX
  8
0
 10
10.2925
 20
5.03331
 30
0.0
 40
0
 41
0
  0
VERTEX
  8
0
 10
10.5999
 20
5.01351
 30
0.0
 40
0
 41
0
  0
VERTEX
  8
0
 10
10.9082
 20
5.0095
 30
0.0
 40
0
 41
0
  0
VERTEX
  8
0
 10
11.2168
 20
5.01069
 30
0.0
 40
0
 41
0
  0
VERTEX
  8
0
 10
11.5251
 20
5.00624
 30
0.0
 40
0
 41
0
  0
VERTEX
  8
0
 10
11.7679
 20
4.98247
 30
0.0
 40
0
 41
0
  0
VERTEX
  8
0
 10
12.0126
 20
4.97792
 30
0.0
 40
0
 41
0
  0
VERTEX
  8
0
 10
12.076
 20
4.95925
 30
0.0
 40
0
 41
0
  0
VERTEX
  8
0
 10
12.1418
 20
4.95562
 30
0.0
 40
0
 41
0
  0
VERTEX
  8
0
 10
12.2076
 20
4.95247
 30
0.0
 40
0
 41
0
  0
VERTEX
  8
0
 10
12.2708
 20
4.93528
 30
0.0
 40
0
 41
0
  0
VERTEX
  8
0
 10
12.327
 20
4.91797
 30
0.0
 40
0
 41
0
  0
VERTEX
  8
0
 10
12.3798
 20
4.89057
 30
0.0
 40
0
 41
0
  0
VERTEX
  8
0
 10
12.4234
 20
4.85172
 30
0.0
 40
0
 41
0
  0
VERTEX
  8
0
 10
12.4519
 20
4.80013
 30
0.0
 40
0
 41
0
  0
VERTEX
  8
0
 10
12.4538
 20
4.73583
 30
0.0
 40
0
 41
0
  0
VERTEX
  8
0
 10
12.4349
 20
4.67535
 30
0.0
 40
0
 41
0
  0
VERTEX
  8
0
 10
12.4006
 20
4.62076
 30
0.0
 40
0
 41
0
  0
VERTEX
  8
0
 10
12.3562
 20
4.57417
 30
0.0
 40
0
 41
0
  0
VERTEX
  8
0
 10
12.2827
 20
4.50185
 30
0.0
 40
0
 41
0
  0
VERTEX
  8
0
 10
12.2031
 20
4.43679
 30
0.0
 40
0
 41
0
  0
VERTEX
  8
0
 10
11.8662
 20
4.1881
 30
0.0
 40
0
 41
0
  0
VERTEX
  8
0
 10
11.52
 20
3.95193
 30
0.0
 40
0
 41
0
  0
VERTEX
  8
0
 10
10.4416
 20
3.23118
 30
0.0
 40
0
 41
0
  0
VERTEX
  8
0
 10
9.35781
 20
2.51904
 30
0.0
 40
0
 41
0
  0
VERTEX
  8
0
 10
9.16786
 20
2.39914
 30
0.0
 40
0
 41
0
  0
VERTEX
  8
0
 10
8.97331
 20
2.28765
 30
0.0
 40
0
 41
0
  0
VERTEX
  8
0
 10
8.92042
 20
2.26867
 30
0.0
 40
0
 41
0
  0
VERTEX
  8
0
 10
8.86464
 20
2.26303
 30
0.0
 40
0
 41
0
  0
VERTEX
  8
0
 10
8.80778
 20
2.26421
 30
0.0
 40
0
 41
0
  0
VERTEX
  8
0
 10
8.75151
 20
2.26568
 30
0.0
 40
0
 41
0
  0
VERTEX
  8
0
 10
8.68972
 20
2.28851
 30
0.0
 40
0
 41
0
  0
VERTEX
  8
0
 10
8.63238
 20
2.32101
 30
0.0
 40
0
 41
0
  0
VERTEX
  8
0
 10
8.57981
 20
2.36117
 30
0.0
 40
0
 41
0
  0
VERTEX
  8
0
 10
8.53233
 20
2.40707
 30
0.0
 40
0
 41
0
  0
VERTEX
  8
0
 10
8.27289
 20
2.66211
 30
0.0
 40
0
 41
0
  0
VERTEX
  8
0
 10
8.14828
 20
2.7539
 30
0.0
 40
0
 41
0
  0
VERTEX
  8
0
 10
8.02138
 20
2.84224
 30
0.0
 40
0
 41
0
  0
VERTEX
  8
0
 10
7.76807
 20
3.01764
 30
0.0
 40
0
 41
0
  0
VERTEX
  8
0
 10
7.69721
 20
3.06575
 30
0.0
 40
0
 41
0
  0
VERTEX
  8
0
 10
7.62999
 20
3.11833
 30
0.0
 40
0
 41
0
  0
VERTEX
  8
0
 10
7.54926
 20
3.16672
 30
0.0
 40
0
 41
0
  0
VERTEX
  8
0
 10
7.47194
 20
3.22097
 30
0.0
 40
0
 41
0
  0
VERTEX
  8
0
 10
7.34451
 20
3.29628
 30
0.0
 40
0
 41
0
  0
VERTEX
  8
0
 10
7.215
 20
3.36762
 30
0.0
 40
0
 41
0
  0
VERTEX
  8
0
 10
6.93967
 20
3.51514
 30
0.0
 40
0
 41
0
  0
VERTEX
  8
0
 10
6.66596
 20
3.66542
 30
0.0
 40
0
 41
0
  0
VERTEX
  8
0
 10
6.33415
 20
3.87283
 30
0.0
 40
0
 41
0
  0
VERTEX
  8
0
 10
6.01237
 20
4.09554
 30
0.0
 40
0
 41
0
  0
VERTEX
  8
0
 10
5.25792
 20
4.63238
 30
0.0
 40
0
 41
0
  0
VERTEX
  8
0
 10
5.22825
 20
4.65571
 30
0.0
 40
0
 41
0
  0
VERTEX
  8
0
 10
5.19646
 20
4.67594
 30
0.0
 40
0
 41
0
  0
VERTEX
  8
0
 10
5.16521
 20
4.69689
 30
0.0
 40
0
 41
0
  0
VERTEX
  8
0
 10
5.13747
 20
4.72239
 30
0.0
 40
0
 41
0
  0
VERTEX
  8
0
 10
5.04124
 20
4.78933
 30
0.0
 40
0
 41
0
  0
VERTEX
  8
0
 10
4.94764
 20
4.86035
 30
0.0
 40
0
 41
0
  0
VERTEX
  8
0
 10
4.86111
 20
4.93918
 30
0.0
 40
0
 41
0
  0
VERTEX
  8
0
 10
4.78624
 20
5.02946
 30
0.0
 40
0
 41
0
  0
VERTEX
  8
0
 10
4.78168
 20
5.10124
 30
0.0
 40
0
 41
0
  0
SEQEND
 8
0
  0
POLYLINE
  8
0
 62
     7
 66
     1
 10
0
 20
0
 30
0.0
 70
     1
 40
0
 41
0
  0
VERTEX
  8
0
 10
13.3155
 20
4.92404
 30
0.0
 40
0
 41
0
  0
VERTEX
  8
0
 10
13.357
 20
5.009
 30
0.0
 40
0
 41
0
  0
VERTEX
  8
0
 10
13.4287
 20
5.07004
 30
0.0
 40
0
 41
0
  0
VERTEX
  8
0
 10
13.5178
 20
5.10639
 30
0.0
 40
0
 41
0
  0
VERTEX
  8
0
 10
13.6115
 20
5.11735
 30
0.0
 40
0
 41
0
  0
VERTEX
  8
0
 10
13.6668
 20
5.11372
 30
0.0
 40
0
 41
0
  0
VERTEX
  8
0
 10
13.7188
 20
5.0944
 30
0.0
 40
0
 41
0
  0
VERTEX
  8
0
 10
13.7641
 20
5.06212
 30
0.0
 40
0
 41
0
  0
VERTEX
  8
0
 10
13.7999
 20
5.01958
 30
0.0
 40
0
 41
0
  0
VERTEX
  8
0
 10
13.8105
 20
4.99653
 30
0.0
 40
0
 41
0
  0
VERTEX
  8
0
 10
13.8134
 20
4.97125
 30
0.0
 40
0
 41
0
  0
VERTEX
  8
0
 10
13.812
 20
4.9451
 30
0.0
 40
0
 41
0
  0
VERTEX
  8
0
 10
13.81
 20
4.9196
 30
0.0
 40
0
 41
0
  0
VERTEX
  8
0
 10
13.747
 20
4.82124
 30
0.0
 40
0
 41
0
  0
VERTEX
  8
0
 10
13.6584
 20
4.74599
 30
0.0
 40
0
 41
0
  0
VERTEX
  8
0
 10
13.5536
 20
4.69233
 30
0.0
 40
0
 41
0
  0
VERTEX
  8
0
 10
13.4418
 20
4.65864
 30
0.0
 40
0
 41
0
  0
VERTEX
  8
0
 10
13.3715
 20
4.64654
 30
0.0
 40
0
 41
0
  0
VERTEX
  8
0
 10
13.2999
 20
4.64735
 30
0.0
 40
0
 41
0
  0
VERTEX
  8
0
 10
13.2963
 20
4.787
 30
0.0
 40
0
 41
0
  0
VERTEX
  8
0
 10
13.3155
 20
4.92404
 30
0.0
 40
0
 41
0
  0
SEQEND
 8
0
  0
POLYLINE
  8
0
 62
     7
 66
     1
 10
0
 20
0
 30
0.0
 70
     1
 40
0
 41
0
  0
VERTEX
  8
0
 10
14.7165
 20
4.75017
 30
0.0
 40
0
 41
0
  0
VERTEX
  8
0
 10
14.7651
 20
4.76047
 30
0.0
 40
0
 41
0
  0
VERTEX
  8
0
 10
14.8137
 20
4.75581
 30
0.0
 40
0
 41
0
  0
VERTEX
  8
0
 10
14.8621
 20
4.74283
 30
0.0
 40
0
 41
0
  0
VERTEX
  8
0
 10
14.9096
 20
4.72835
 30
0.0
 40
0
 41
0
  0
VERTEX
  8
0
 10
14.9999
 20
4.67708
 30
0.0
 40
0
 41
0
  0
VERTEX
  8
0
 10
15.0804
 20
4.61171
 30
0.0
 40
0
 41
0
  0
VERTEX
  8
0
 10
15.1542
 20
4.5376
 30
0.0
 40
0
 41
0
  0
VERTEX
  8
0
 10
15.2236
 20
4.46013
 30
0.0
 40
0
 41
0
  0
VERTEX
  8
0
 10
15.3378
 20
4.34478
 30
0.0
 40
0
 41
0
  0
VERTEX
  8
0
 10
15.4439
 20
4.22194
 30
0.0
 40
0
 41
0
  0
VERTEX
  8
0
 10
15.4772
 20
4.17919
 30
0.0
 40
0
 41
0
  0
VERTEX
  8
0
 10
15.5149
 20
4.14025
 30
0.0
 40
0
 41
0
  0
VERTEX
  8
0
 10
15.5539
 20
4.10232
 30
0.0
 40
0
 41
0
  0
VERTEX
  8
0
 10
15.591
 20
4.06267
 30
0.0
 40
0
 41
0
  0
VERTEX
  8
0
 10
15.624
 20
4.02593
 30
0.0
 40
0
 41
0
  0
VERTEX
  8
0
 10
15.6533
 20
3.98622
 30
0.0
 40
0
 41
0
  0
VERTEX
  8
0
 10
15.6831
 20
3.94683
 30
0.0
 40
0
 41
0
  0
VERTEX
  8
0
 10
15.7172
 20
3.91114
 30
0.0
 40
0
 41
0
  0
VERTEX
  8
0
 10
15.7861
 20
3.8411
 30
0.0
 40
0
 41
0
  0
VERTEX
  8
0
 10
15.8479
 20
3.76471
 30
0.0
 40
0
 41
0
  0
VERTEX
  8
0
 10
15.89
 20
3.71283
 30
0.0
 40
0
 41
0
  0
VERTEX
  8
0
 10
15.9368
 20
3.66488
 30
0.0
 40
0
 41
0
  0
VERTEX
  8
0
 10
15.9832
 20
3.61675
 30
0.0
 40
0
 41
0
  0
VERTEX
  8
0
 10
16.0247
 20
3.56418
 30
0.0
 40
0
 41
0
  0
VERTEX
  8
0
 10
16.1242
 20
3.44937
 30
0.0
 40
0
 41
0
  0
VERTEX
  8
0
 10
16.2226
 20
3.33388
 30
0.0
 40
0
 41
0
  0
VERTEX
  8
0
 10
16.2651
 20
3.2831
 30
0.0
 40
0
 41
0
  0
VERTEX
  8
0
 10
16.3113
 20
3.23529
 30
0.0
 40
0
 41
0
  0
VERTEX
  8
0
 10
16.3567
 20
3.18696
 30
0.0
 40
0
 41
0
  0
VERTEX
  8
0
 10
16.3971
 20
3.13433
 30
0.0
 40
0
 41
0
  0
VERTEX
  8
0
 10
16.4303
 20
3.09136
 30
0.0
 40
0
 41
0
  0
VERTEX
  8
0
 10
16.4681
 20
3.05219
 30
0.0
 40
0
 41
0
  0
VERTEX
  8
0
 10
16.5064
 20
3.01357
 30
0.0
 40
0
 41
0
  0
VERTEX
  8
0
 10
16.5414
 20
2.97194
 30
0.0
 40
0
 41
0
  0
VERTEX
  8
0
 10
16.6554
 20
2.83789
 30
0.0
 40
0
 41
0
  0
VERTEX
  8
0
 10
16.7676
 20
2.70236
 30
0.0
 40
0
 41
0
  0
VERTEX
  8
0
 10
16.8974
 20
2.55931
 30
0.0
 40
0
 41
0
  0
VERTEX
  8
0
 10
17.0251
 20
2.41444
 30
0.0
 40
0
 41
0
  0
VERTEX
  8
0
 10
17.1007
 20
2.33008
 30
0.0
 40
0
 41
0
  0
VERTEX
  8
0
 10
17.1729
 20
2.24251
 30
0.0
 40
0
 41
0
  0
VERTEX
  8
0
 10
17.3215
 20
2.09233
 30
0.0
 40
0
 41
0
  0
VERTEX
  8
0
 10
17.4606
 20
1.93332
 30
0.0
 40
0
 41
0
  0
VERTEX
  8
0
 10
17.5228
 20
1.86361
 30
0.0
 40
0
 41
0
  0
VERTEX
  8
0
 10
17.5893
 20
1.79779
 30
0.0
 40
0
 41
0
  0
VERTEX
  8
0
 10
17.6421
 20
1.72601
 30
0.0
 40
0
 41
0
  0
VERTEX
  8
0
 10
17.7007
 20
1.6589
 30
0.0
 40
0
 41
0
  0
VERTEX
  8
0
 10
17.7319
 20
1.61083
 30
0.0
 40
0
 41
0
  0
VERTEX
  8
0
 10
17.761
 20
1.56119
 30
0.0
 40
0
 41
0
  0
VERTEX
  8
0
 10
17.785
 20
1.50922
 30
0.0
 40
0
 41
0
  0
VERTEX
  8
0
 10
17.8011
 20
1.45415
 30
0.0
 40
0
 41
0
  0
VERTEX
  8
0
 10
17.8015
 20
1.42529
 30
0.0
 40
0
 41
0
  0
VERTEX
  8
0
 10
17.7936
 20
1.39914
 30
0.0
 40
0
 41
0
  0
VERTEX
  8
0
 10
17.779
 20
1.37608
 30
0.0
 40
0
 41
0
  0
VERTEX
  8
0
 10
17.759
 20
1.35645
 30
0.0
 40
0
 41
0
  0
VERTEX
  8
0
 10
17.7351
 20
1.3406
 30
0.0
 40
0
 41
0
  0
VERTEX
  8
0
 10
17.7086
 20
1.32899
 30
0.0
 40
0
 41
0
  0
VERTEX
  8
0
 10
17.6811
 20
1.32199
 30
0.0
 40
0
 41
0
  0
VERTEX
  8
0
 10
17.654
 20
1.31988
 30
0.0
 40
0
 41
0
  0
VERTEX
  8
0
 10
15.9029
 20
1.31348
 30
0.0
 40
0
 41
0
  0
VERTEX
  8
0
 10
15.8544
 20
1.30691
 30
0.0
 40
0
 41
0
  0
VERTEX
  8
0
 10
15.8064
 20
1.29861
 30
0.0
 40
0
 41
0
  0
VERTEX
  8
0
 10
13.3056
 20
1.29183
 30
0.0
 40
0
 41
0
  0
VERTEX
  8
0
 10
12.1453
 20
1.29183
 30
0.0
 40
0
 41
0
  0
VERTEX
  8
0
 10
10.9853
 20
1.28152
 30
0.0
 40
0
 41
0
  0
VERTEX
  8
0
 10
10.8821
 20
1.27013
 30
0.0
 40
0
 41
0
  0
VERTEX
  8
0
 10
10.7779
 20
1.27013
 30
0.0
 40
0
 41
0
  0
VERTEX
  8
0
 10
9.90196
 20
1.27013
 30
0.0
 40
0
 41
0
  0
VERTEX
  8
0
 10
9.82949
 20
1.28738
 30
0.0
 40
0
 41
0
  0
VERTEX
  8
0
 10
9.75553
 20
1.29682
 30
0.0
 40
0
 41
0
  0
VERTEX
  8
0
 10
9.71061
 20
1.32427
 30
0.0
 40
0
 41
0
  0
VERTEX
  8
0
 10
9.67529
 20
1.36279
 30
0.0
 40
0
 41
0
  0
VERTEX
  8
0
 10
9.67665
 20
1.41194
 30
0.0
 40
0
 41
0
  0
VERTEX
  8
0
 10
9.69863
 20
1.45437
 30
0.0
 40
0
 41
0
  0
VERTEX
  8
0
 10
9.73221
 20
1.49137
 30
0.0
 40
0
 41
0
  0
VERTEX
  8
0
 10
9.76844
 20
1.52414
 30
0.0
 40
0
 41
0
  0
VERTEX
  8
0
 10
9.81131
 20
1.56538
 30
0.0
 40
0
 41
0
  0
VERTEX
  8
0
 10
9.8585
 20
1.60129
 30
0.0
 40
0
 41
0
  0
VERTEX
  8
0
 10
9.90761
 20
1.63493
 30
0.0
 40
0
 41
0
  0
VERTEX
  8
0
 10
9.95611
 20
1.66932
 30
0.0
 40
0
 41
0
  0
VERTEX
  8
0
 10
10.6464
 20
2.13921
 30
0.0
 40
0
 41
0
  0
VERTEX
  8
0
 10
11.3413
 20
2.60221
 30
0.0
 40
0
 41
0
  0
VERTEX
  8
0
 10
12.4512
 20
3.33778
 30
0.0
 40
0
 41
0
  0
VERTEX
  8
0
 10
12.5679
 20
3.41097
 30
0.0
 40
0
 41
0
  0
VERTEX
  8
0
 10
12.6868
 20
3.47987
 30
0.0
 40
0
 41
0
  0
VERTEX
  8
0
 10
12.844
 20
3.57368
 30
0.0
 40
0
 41
0
  0
VERTEX
  8
0
 10
13.0055
 20
3.66026
 30
0.0
 40
0
 41
0
  0
VERTEX
  8
0
 10
13.5478
 20
3.92361
 30
0.0
 40
0
 41
0
  0
VERTEX
  8
0
 10
13.6547
 20
3.98161
 30
0.0
 40
0
 41
0
  0
VERTEX
  8
0
 10
13.7599
 20
4.04335
 30
0.0
 40
0
 41
0
  0
VERTEX
  8
0
 10
13.9567
 20
4.18306
 30
0.0
 40
0
 41
0
  0
VERTEX
  8
0
 10
13.9989
 20
4.21783
 30
0.0
 40
0
 41
0
  0
VERTEX
  8
0
 10
14.0432
 20
4.24994
 30
0.0
 40
0
 41
0
  0
VERTEX
  8
0
 10
14.0867
 20
4.2831
 30
0.0
 40
0
 41
0
  0
VERTEX
  8
0
 10
14.1264
 20
4.32096
 30
0.0
 40
0
 41
0
  0
VERTEX
  8
0
 10
14.2701
 20
4.43338
 30
0.0
 40
0
 41
0
  0
VERTEX
  8
0
 10
14.4125
 20
4.54764
 30
0.0
 40
0
 41
0
  0
VERTEX
  8
0
 10
14.4837
 20
4.60596
 30
0.0
 40
0
 41
0
  0
VERTEX
  8
0
 10
14.5543
 20
4.66601
 30
0.0
 40
0
 41
0
  0
VERTEX
  8
0
 10
14.63
 20
4.7175
 30
0.0
 40
0
 41
0
  0
VERTEX
  8
0
 10
14.7165
 20
4.75017
 30
0.0
 40
0
 41
0
  0
SEQEND
 8
0
  0
POLYLINE
  8
0
 62
     7
 66
     1
 10
0
 20
0
 30
0.0
 70
     1
 40
0
 41
0
  0
VERTEX
  8
0
 10
6.88835
 20
2.63872
 30
0.0
 40
0
 41
0
  0
VERTEX
  8
0
 10
6.94293
 20
2.64513
 30
0.0
 40
0
 41
0
  0
VERTEX
  8
0
 10
6.99843
 20
2.63406
 30
0.0
 40
0
 41
0
  0
VERTEX
  8
0
 10
7.05419
 20
2.61703
 30
0.0
 40
0
 41
0
  0
VERTEX
  8
0
 10
7.10969
 20
2.60542
 30
0.0
 40
0
 41
0
  0
VERTEX
  8
0
 10
7.22222
 20
2.56435
 30
0.0
 40
0
 41
0
  0
VERTEX
  8
0
 10
7.32981
 20
2.51031
 30
0.0
 40
0
 41
0
  0
VERTEX
  8
0
 10
7.42546
 20
2.43918
 30
0.0
 40
0
 41
0
  0
VERTEX
  8
0
 10
7.50196
 20
2.34679
 30
0.0
 40
0
 41
0
  0
VERTEX
  8
0
 10
7.5179
 20
2.317
 30
0.0
 40
0
 41
0
  0
VERTEX
  8
0
 10
7.52414
 20
2.28413
 30
0.0
 40
0
 41
0
  0
VERTEX
  8
0
 10
7.52399
 20
2.25
 30
0.0
 40
0
 41
0
  0
VERTEX
  8
0
 10
7.52083
 20
2.21625
 30
0.0
 40
0
 41
0
  0
VERTEX
  8
0
 10
7.49203
 20
2.1824
 30
0.0
 40
0
 41
0
  0
VERTEX
  8
0
 10
7.4579
 20
2.15408
 30
0.0
 40
0
 41
0
  0
VERTEX
  8
0
 10
7.41889
 20
2.1334
 30
0.0
 40
0
 41
0
  0
VERTEX
  8
0
 10
7.37582
 20
2.1225
 30
0.0
 40
0
 41
0
  0
VERTEX
  8
0
 10
7.27729
 20
2.11768
 30
0.0
 40
0
 41
0
  0
VERTEX
  8
0
 10
7.17876
 20
2.13319
 30
0.0
 40
0
 41
0
  0
VERTEX
  8
0
 10
7.08817
 20
2.17171
 30
0.0
 40
0
 41
0
  0
VERTEX
  8
0
 10
7.01335
 20
2.23611
 30
0.0
 40
0
 41
0
  0
VERTEX
  8
0
 10
6.97021
 20
2.31635
 30
0.0
 40
0
 41
0
  0
VERTEX
  8
0
 10
6.94488
 20
2.40364
 30
0.0
 40
0
 41
0
  0
VERTEX
  8
0
 10
6.92469
 20
2.49311
 30
0.0
 40
0
 41
0
  0
VERTEX
  8
0
 10
6.89692
 20
2.57986
 30
0.0
 40
0
 41
0
  0
VERTEX
  8
0
 10
6.89154
 20
2.59511
 30
0.0
 40
0
 41
0
  0
VERTEX
  8
0
 10
6.88308
 20
2.61128
 30
0.0
 40
0
 41
0
  0
VERTEX
  8
0
 10
6.87939
 20
2.62642
 30
0.0
 40
0
 41
0
  0
VERTEX
  8
0
 10
6.88835
 20
2.63872
 30
0.0
 40
0
 41
0
  0
SEQEND
 8
0
  0
ENDSEC
  0
EOF
