<?xml version="1.0" encoding="UTF-8" ?>
<!DOCTYPE svg PUBLIC "-//W3C//DTD SVG 1.1//EN" "http://www.w3.org/Graphics/SVG/1.1/DTD/svg11.dtd">
<svg width="1500pt" height="500pt" viewBox="0 0 1500 500" version="1.1" xmlns="http://www.w3.org/2000/svg">
<path fill="#fefefe" d=" M 0.00 0.00 L 1500.00 0.00 L 1500.00 500.00 L 0.00 500.00 L 0.00 0.00 Z" />
<path fill="#040404" d=" M 187.48 56.24 C 436.65 56.24 685.82 56.24 935.00 56.24 C 969.56 56.28 1004.12 56.15 1038.68 56.30 C 1058.62 69.69 1081.08 79.81 1099.27 95.81 C 1106.05 100.54 1111.64 106.80 1116.57 113.38 C 1122.82 120.20 1128.15 127.80 1134.00 134.95 C 1138.01 139.01 1140.75 144.12 1144.92 148.04 C 1149.37 152.00 1152.07 157.47 1156.47 161.49 C 1160.49 165.18 1163.70 169.60 1167.16 173.80 C 1169.90 177.39 1173.54 180.14 1176.39 183.63 C 1179.86 187.53 1182.67 192.00 1186.56 195.51 C 1190.38 199.02 1193.49 203.19 1196.77 207.19 C 1200.24 211.70 1204.77 215.26 1208.35 219.68 C 1211.40 223.59 1214.49 227.48 1218.04 230.96 C 1223.97 236.42 1228.12 243.48 1234.04 248.97 C 1238.06 252.58 1241.11 257.06 1244.65 261.12 C 1247.26 264.57 1250.75 267.21 1253.51 270.53 C 1257.17 274.85 1260.42 279.55 1264.63 283.38 C 1268.29 286.77 1271.01 290.98 1274.32 294.70 C 1277.31 298.38 1281.15 301.35 1283.70 305.42 C 1287.00 310.35 1291.93 313.88 1295.28 318.78 C 1299.85 325.18 1306.14 330.04 1310.97 336.22 C 1316.63 343.75 1323.60 350.12 1330.15 356.84 C 1335.17 362.23 1340.99 366.93 1347.49 370.44 C 1348.59 371.43 1350.51 372.19 1350.25 374.01 C 1350.26 397.26 1350.24 420.52 1350.25 443.77 C 962.67 443.76 575.10 443.73 187.52 443.79 C 187.46 410.84 187.52 377.89 187.49 344.94 C 243.02 344.77 298.55 345.16 354.07 344.65 C 356.47 344.82 358.74 344.03 361.04 343.52 C 380.03 342.43 399.08 343.52 418.07 342.65 C 426.02 338.87 435.40 343.19 443.25 339.27 C 448.18 338.73 453.47 336.56 456.27 332.25 C 457.01 328.98 456.76 325.55 456.54 322.23 C 454.17 315.11 449.44 309.01 443.93 304.02 C 438.35 298.65 433.40 292.39 426.60 288.50 C 424.10 286.35 422.12 283.56 419.13 282.04 C 415.89 280.35 413.74 277.25 410.53 275.51 C 371.62 246.67 332.23 218.50 292.54 190.76 C 274.55 177.83 256.53 164.83 237.43 153.58 C 232.71 150.13 227.19 148.07 222.46 144.64 C 216.09 140.61 209.12 137.69 202.42 134.27 C 197.58 132.26 192.64 130.30 187.44 129.49 C 187.55 105.08 187.49 80.66 187.48 56.24 Z" />
<path fill="#fefefe" d=" M 344.28 132.71 C 347.69 129.50 352.68 129.32 356.95 127.89 C 370.26 127.65 383.61 127.53 396.89 128.58 C 398.70 128.91 400.45 129.59 402.32 129.64 C 425.85 130.33 449.56 128.51 472.96 131.48 C 489.99 131.55 507.02 131.45 524.06 131.61 C 530.39 131.92 536.59 133.78 542.96 133.51 C 557.98 133.50 573.00 133.51 588.01 133.58 C 594.73 133.46 601.26 135.69 607.98 135.50 C 624.32 135.51 640.66 135.50 657.00 135.58 C 665.05 135.39 672.93 137.66 680.98 137.49 C 701.00 137.52 721.03 137.49 741.06 137.60 C 770.52 140.61 800.24 138.52 829.81 139.55 C 841.30 142.43 853.24 140.56 864.91 141.59 C 870.79 144.57 877.64 141.87 883.50 144.66 C 888.88 145.88 894.71 148.79 896.54 154.39 C 897.89 160.68 894.22 166.64 889.65 170.66 C 885.97 173.95 882.90 177.96 878.62 180.55 C 863.02 193.26 845.94 203.96 829.44 215.46 C 777.53 249.81 726.20 285.11 673.76 318.63 C 664.34 323.85 655.95 330.88 646.08 335.29 C 641.19 337.97 635.43 336.82 630.11 336.87 C 623.98 335.21 618.63 331.31 614.33 326.69 C 608.48 320.20 602.15 314.16 595.65 308.33 C 589.47 304.20 583.94 299.16 577.54 295.36 C 571.61 290.93 565.26 287.12 559.30 282.73 C 556.08 280.17 552.24 278.47 549.36 275.48 C 545.19 273.65 541.82 270.49 537.98 268.09 C 531.79 264.60 525.88 260.64 519.48 257.53 C 506.71 249.64 492.57 244.25 479.95 236.09 C 463.54 226.90 448.34 215.78 432.89 205.12 C 414.68 192.41 396.58 179.48 378.57 166.47 C 375.92 163.96 372.31 162.78 369.90 159.99 C 360.68 153.64 351.10 147.22 344.61 137.88 C 344.33 136.17 344.36 134.43 344.28 132.71 Z" />
<path fill="#fefefe" d=" M 958.72 145.47 C 960.85 136.19 971.22 131.36 980.03 131.55 C 985.41 131.06 990.72 134.11 993.59 138.59 C 995.10 140.65 994.43 143.42 994.32 145.79 C 989.79 156.39 978.59 162.26 967.81 164.58 C 964.52 165.80 961.01 165.41 957.59 165.39 C 957.74 158.76 956.38 151.85 958.72 145.47 Z" />
<path fill="#fefefe" d=" M 1059.59 157.99 C 1064.23 156.07 1069.00 158.31 1073.49 159.56 C 1082.72 163.64 1089.54 171.44 1096.10 178.87 C 1101.37 184.59 1107.48 189.59 1111.96 196.02 C 1114.85 200.40 1119.17 203.51 1122.55 207.49 C 1126.02 210.76 1128.03 215.26 1131.64 218.40 C 1135.01 221.68 1138.36 225.05 1141.05 228.94 C 1144.72 234.25 1150.20 237.99 1153.78 243.38 C 1157.84 249.50 1164.07 253.78 1168.03 259.96 C 1171.81 265.10 1177.08 268.96 1180.59 274.33 C 1183.45 278.75 1187.91 281.78 1190.98 286.02 C 1195.71 293.08 1202.71 298.24 1207.27 305.43 C 1214.20 311.68 1219.07 319.74 1225.81 326.16 C 1229.73 329.95 1232.85 334.45 1236.45 338.54 C 1243.38 345.92 1251.16 352.58 1257.16 360.80 C 1259.95 364.33 1263.23 367.41 1266.43 370.56 C 1269.07 373.93 1271.27 377.64 1274.45 380.56 C 1277.46 385.13 1280.60 389.84 1281.68 395.30 C 1282.65 401.08 1276.17 405.07 1271.09 404.97 C 1229.06 404.94 1187.04 405.17 1145.01 405.43 C 1142.60 405.25 1140.43 406.52 1138.06 406.50 C 1078.04 406.76 1018.02 407.01 958.00 406.99 C 902.31 407.10 846.61 406.63 790.94 407.73 C 786.05 408.97 780.99 408.41 776.01 408.55 C 754.99 408.53 733.96 408.88 712.94 408.55 C 709.48 407.61 706.00 406.83 702.40 406.63 C 700.21 405.50 697.89 404.08 696.62 401.88 C 695.48 396.80 700.01 393.25 703.33 390.26 C 707.16 385.95 712.29 383.25 716.84 379.81 C 749.73 356.90 783.24 334.89 816.57 312.64 C 843.22 295.01 869.66 277.07 896.49 259.68 C 902.33 256.57 907.39 252.15 913.45 249.45 C 920.59 244.25 928.84 240.97 936.40 236.46 C 949.47 230.27 962.62 224.23 975.44 217.50 C 980.88 215.27 985.45 211.47 990.71 208.88 C 995.47 205.58 1000.21 202.25 1004.88 198.82 C 1008.74 195.24 1013.57 192.87 1017.10 188.89 C 1023.80 183.25 1031.13 178.39 1037.70 172.57 C 1044.77 167.39 1050.58 159.89 1059.59 157.99 Z" />
<path fill="#fefefe" d=" M 495.96 310.01 C 501.14 308.20 506.61 311.92 511.90 312.41 C 522.71 315.87 533.94 321.01 540.14 331.03 C 542.25 333.69 541.84 337.27 541.50 340.43 C 539.02 343.88 535.38 346.67 531.06 347.18 C 521.85 348.53 511.14 346.51 504.96 339.00 C 499.56 331.80 500.02 322.29 496.58 314.25 C 496.46 312.89 494.25 311.00 495.96 310.01 Z" />
</svg>
