999
DXF data, created by potrace 1.11, written by Peter Selinger 2001-2013
  0
SECTION
  2
HEADER
  9
$ACADVER
  1
AC1006
  9
$EXTMIN
 10
0.000000
 20
0.000000
 30
0.000000
  9
$EXTMAX
 10
485.000000
 20
1938.000000
 30
0.000000
  0
ENDSEC
  0
SECTION
  2
ENTITIES
  0
POLYLINE
  8
0
 66
1
 70
1
  0
VERTEX
  8
0
 10
0.000000
 20
1888.166667
 42
0.001444
  0
VERTEX
  8
0
 10
0.053951
 20
1869.491741
 42
0.006867
  0
VERTEX
  8
0
 10
0.262387
 20
1858.810886
 42
0.004432
  0
VERTEX
  8
0
 10
0.566277
 20
1851.598832
 42
0.277618
  0
VERTEX
  8
0
 10
1.250000
 20
1850.583333
 42
-0.029131
  0
VERTEX
  8
0
 10
1.857470
 20
1850.255505
 42
-0.260055
  0
VERTEX
  8
0
 10
2.000000
 20
1850.000000
 42
-0.260055
  0
VERTEX
  8
0
 10
1.857470
 20
1849.744495
 42
-0.029131
  0
VERTEX
  8
0
 10
1.250000
 20
1849.416667
 42
0.291392
  0
VERTEX
  8
0
 10
-0.128178
 20
1847.252670
 42
0.000001
  0
VERTEX
  8
0
 10
-0.130564
 20
969.000000
 42
0.000001
  0
VERTEX
  8
0
 10
-0.128178
 20
90.747330
 42
0.291392
  0
VERTEX
  8
0
 10
1.250000
 20
88.583333
 42
-0.029131
  0
VERTEX
  8
0
 10
1.857470
 20
88.255505
 42
-0.260055
  0
VERTEX
  8
0
 10
2.000000
 20
88.000000
 42
-0.260055
  0
VERTEX
  8
0
 10
1.857470
 20
87.744495
 42
-0.029131
  0
VERTEX
  8
0
 10
1.250000
 20
87.416667
 42
0.289639
  0
VERTEX
  8
0
 10
0.132062
 20
85.673754
 42
0.000529
  0
VERTEX
  8
0
 10
-0.062025
 20
49.816335
 42
0.000510
  0
VERTEX
  8
0
 10
-0.181645
 20
13.947686
 42
0.520113
  0
VERTEX
  8
0
 10
0.926606
 20
13.166667
 42
0.061589
  0
VERTEX
  8
0
 10
1.642632
 20
13.528893
 42
0.000003
  0
VERTEX
  8
0
 10
72.535369
 20
61.136458
 42
0.000129
  0
VERTEX
  8
0
 10
150.714952
 20
113.667246
 42
0.000077
  0
VERTEX
  8
0
 10
243.399926
 20
176.000000
 42
0.000000
  0
VERTEX
  8
0
 10
484.946639
 20
338.500000
 42
0.000000
  0
VERTEX
  8
0
 10
484.973320
 20
652.750000
 42
0.000206
  0
VERTEX
  8
0
 10
484.927837
 20
791.612961
 42
0.000589
  0
VERTEX
  8
0
 10
484.742535
 20
888.194170
 42
0.000020
  0
VERTEX
  8
0
 10
484.496853
 20
966.504723
 42
0.413283
  0
VERTEX
  8
0
 10
484.000000
 20
967.000000
 42
-0.191087
  0
VERTEX
  8
0
 10
483.618118
 20
967.151477
 42
-0.088204
  0
VERTEX
  8
0
 10
483.293750
 20
967.587500
 42
-0.068025
  0
VERTEX
  8
0
 10
483.073693
 20
968.234582
 42
-0.048028
  0
VERTEX
  8
0
 10
483.000000
 20
969.000000
 42
-0.048028
  0
VERTEX
  8
0
 10
483.073693
 20
969.765418
 42
-0.068025
  0
VERTEX
  8
0
 10
483.293750
 20
970.412500
 42
-0.088204
  0
VERTEX
  8
0
 10
483.618118
 20
970.848523
 42
-0.191087
  0
VERTEX
  8
0
 10
484.000000
 20
971.000000
 42
0.413283
  0
VERTEX
  8
0
 10
484.496853
 20
971.495277
 42
0.000020
  0
VERTEX
  8
0
 10
484.742535
 20
1049.805830
 42
0.000589
  0
VERTEX
  8
0
 10
484.927837
 20
1146.387039
 42
0.000206
  0
VERTEX
  8
0
 10
484.973320
 20
1285.250000
 42
0.000000
  0
VERTEX
  8
0
 10
484.946639
 20
1599.500000
 42
0.000000
  0
VERTEX
  8
0
 10
243.399926
 20
1762.000000
 42
0.000077
  0
VERTEX
  8
0
 10
150.714952
 20
1824.332754
 42
0.000129
  0
VERTEX
  8
0
 10
72.535369
 20
1876.863542
 42
0.000003
  0
VERTEX
  8
0
 10
1.642632
 20
1924.471107
 42
0.061589
  0
VERTEX
  8
0
 10
0.926606
 20
1924.833333
 42
0.510215
  0
VERTEX
  8
0
 10
0.514972
 20
1924.552776
 42
0.000927
  0
VERTEX
  8
0
 10
0.254009
 20
1914.932557
 42
0.004318
  0
VERTEX
  8
0
 10
0.060465
 20
1903.295088
 42
0.001998
  0
SEQEND
  0
POLYLINE
  8
0
 66
1
 70
1
  0
VERTEX
  8
0
 10
237.535602
 20
1684.484346
 42
-0.000198
  0
VERTEX
  8
0
 10
302.505192
 20
1640.741540
 42
-0.000330
  0
VERTEX
  8
0
 10
357.194846
 20
1603.836027
 42
-0.000005
  0
VERTEX
  8
0
 10
406.788744
 20
1570.320838
 42
-0.265296
  0
VERTEX
  8
0
 10
406.946844
 20
1570.000000
 42
-0.233114
  0
VERTEX
  8
0
 10
406.675999
 20
1569.525688
 42
-0.000001
  0
VERTEX
  8
0
 10
238.859223
 20
1456.211830
 42
-0.000012
  0
VERTEX
  8
0
 10
73.961320
 20
1344.874916
 42
-0.015158
  0
VERTEX
  8
0
 10
67.354811
 20
1340.700310
 42
-0.578271
  0
VERTEX
  8
0
 10
66.514999
 20
1341.175984
 42
-0.000237
  0
VERTEX
  8
0
 10
66.250604
 20
1382.524603
 42
-0.001295
  0
VERTEX
  8
0
 10
66.046465
 20
1443.830092
 42
-0.000185
  0
VERTEX
  8
0
 10
66.000000
 20
1569.533643
 42
-0.000265
  0
VERTEX
  8
0
 10
66.055778
 20
1674.771618
 42
-0.000877
  0
VERTEX
  8
0
 10
66.250760
 20
1744.083249
 42
-0.000052
  0
VERTEX
  8
0
 10
66.504572
 20
1798.428711
 42
-0.510413
  0
VERTEX
  8
0
 10
67.046962
 20
1798.817679
 42
-0.067340
  0
VERTEX
  8
0
 10
67.850768
 20
1798.423204
 42
-0.000008
  0
VERTEX
  8
0
 10
117.559872
 20
1765.088305
 42
-0.000224
  0
VERTEX
  8
0
 10
172.491023
 20
1728.214642
 42
-0.000135
  0
SEQEND
  0
POLYLINE
  8
0
 66
1
 70
1
  0
VERTEX
  8
0
 10
419.000000
 20
1269.416667
 42
-0.000211
  0
VERTEX
  8
0
 10
418.950412
 20
1151.631355
 42
-0.001171
  0
VERTEX
  8
0
 10
418.749066
 20
1088.400302
 42
-0.000143
  0
VERTEX
  8
0
 10
418.489674
 20
1043.772051
 42
-0.507070
  0
VERTEX
  8
0
 10
417.750000
 20
1043.237124
 42
-0.069575
  0
VERTEX
  8
0
 10
416.793079
 20
1043.700997
 42
-0.000011
  0
VERTEX
  8
0
 10
367.769195
 20
1076.548479
 42
-0.000279
  0
VERTEX
  8
0
 10
313.534709
 20
1112.932813
 42
-0.000169
  0
VERTEX
  8
0
 10
249.357897
 20
1156.070457
 42
-0.000366
  0
VERTEX
  8
0
 10
167.066141
 20
1211.512131
 42
-0.001619
  0
VERTEX
  8
0
 10
118.779643
 20
1244.323204
 42
-0.000217
  0
VERTEX
  8
0
 10
83.467723
 20
1268.508043
 42
-0.467427
  0
VERTEX
  8
0
 10
83.357897
 20
1269.656445
 42
-0.049524
  0
VERTEX
  8
0
 10
85.156964
 20
1271.149377
 42
-0.000003
  0
VERTEX
  8
0
 10
251.248584
 20
1383.248592
 42
-0.000001
  0
VERTEX
  8
0
 10
417.966222
 20
1495.768105
 42
-0.149521
  0
VERTEX
  8
0
 10
418.724344
 20
1496.000000
 42
-0.413856
  0
VERTEX
  8
0
 10
418.837996
 20
1495.886487
 42
-0.000001
  0
VERTEX
  8
0
 10
418.919026
 20
1429.441146
 42
-0.000190
  0
VERTEX
  8
0
 10
418.980192
 20
1356.300251
 42
-0.000114
  0
SEQEND
  0
POLYLINE
  8
0
 66
1
 70
1
  0
VERTEX
  8
0
 10
237.553705
 20
1082.743514
 42
-0.000192
  0
VERTEX
  8
0
 10
302.109225
 20
1039.284832
 42
-0.000319
  0
VERTEX
  8
0
 10
356.455359
 20
1002.618407
 42
-0.000005
  0
VERTEX
  8
0
 10
405.739723
 20
969.320601
 42
-0.249122
  0
VERTEX
  8
0
 10
405.910030
 20
969.000000
 42
-0.249646
  0
VERTEX
  8
0
 10
405.519570
 20
968.266712
 42
-0.000002
  0
VERTEX
  8
0
 10
237.570395
 20
855.277042
 42
-0.000008
  0
VERTEX
  8
0
 10
70.654442
 20
742.987598
 42
-0.056501
  0
VERTEX
  8
0
 10
67.598690
 20
741.399497
 42
-0.523207
  0
VERTEX
  8
0
 10
66.529017
 20
742.127652
 42
-0.000505
  0
VERTEX
  8
0
 10
66.251079
 20
776.724080
 42
-0.001608
  0
VERTEX
  8
0
 10
66.040590
 20
831.995655
 42
-0.000148
  0
VERTEX
  8
0
 10
66.000000
 20
969.000000
 42
-0.000148
  0
VERTEX
  8
0
 10
66.040590
 20
1106.004345
 42
-0.001608
  0
VERTEX
  8
0
 10
66.251079
 20
1161.275920
 42
-0.000505
  0
VERTEX
  8
0
 10
66.529017
 20
1195.872348
 42
-0.523207
  0
VERTEX
  8
0
 10
67.598690
 20
1196.600503
 42
-0.056005
  0
VERTEX
  8
0
 10
68.830195
 20
1195.962026
 42
-0.000015
  0
VERTEX
  8
0
 10
118.182436
 20
1162.901954
 42
-0.000291
  0
VERTEX
  8
0
 10
172.887421
 20
1126.207541
 42
-0.000177
  0
SEQEND
  0
POLYLINE
  8
0
 66
1
 70
1
  0
VERTEX
  8
0
 10
419.000000
 20
668.384990
 42
0.000000
  0
VERTEX
  8
0
 10
419.000000
 20
441.769980
 42
0.000000
  0
VERTEX
  8
0
 10
416.250000
 20
443.562228
 42
-0.004055
  0
VERTEX
  8
0
 10
398.635538
 20
455.246646
 42
-0.000027
  0
VERTEX
  8
0
 10
245.422322
 20
558.690367
 42
-0.000002
  0
VERTEX
  8
0
 10
84.783153
 20
667.161387
 42
-0.049446
  0
VERTEX
  8
0
 10
83.358171
 20
668.344043
 42
-0.467441
  0
VERTEX
  8
0
 10
83.467860
 20
669.491825
 42
-0.000216
  0
VERTEX
  8
0
 10
118.890559
 20
693.755000
 42
-0.001614
  0
VERTEX
  8
0
 10
167.315025
 20
726.664151
 42
-0.000365
  0
VERTEX
  8
0
 10
249.807727
 20
782.250000
 42
-0.000207
  0
VERTEX
  8
0
 10
314.126288
 20
825.482710
 42
-0.000344
  0
VERTEX
  8
0
 10
368.404273
 20
861.879688
 42
-0.000009
  0
VERTEX
  8
0
 10
417.598377
 20
894.817330
 42
-0.148573
  0
VERTEX
  8
0
 10
418.199556
 20
895.000000
 42
-0.413165
  0
VERTEX
  8
0
 10
418.529270
 20
894.671465
 42
-0.000012
  0
VERTEX
  8
0
 10
418.764870
 20
828.431841
 42
-0.000552
  0
VERTEX
  8
0
 10
418.942481
 20
755.280712
 42
-0.000331
  0
SEQEND
  0
POLYLINE
  8
0
 66
1
 70
1
  0
VERTEX
  8
0
 10
237.813015
 20
482.500000
 42
-0.000183
  0
VERTEX
  8
0
 10
302.657108
 20
438.751297
 42
-0.000304
  0
VERTEX
  8
0
 10
357.251227
 20
401.840625
 42
-0.000005
  0
VERTEX
  8
0
 10
406.763817
 20
368.320978
 42
-0.232792
  0
VERTEX
  8
0
 10
406.946844
 20
368.000000
 42
-0.265775
  0
VERTEX
  8
0
 10
406.629563
 20
367.357582
 42
-0.000002
  0
VERTEX
  8
0
 10
237.641636
 20
253.595493
 42
-0.000006
  0
VERTEX
  8
0
 10
69.401307
 20
140.340336
 42
-0.067787
  0
VERTEX
  8
0
 10
67.046962
 20
139.182321
 42
-0.510413
  0
VERTEX
  8
0
 10
66.504572
 20
139.571289
 42
-0.000052
  0
VERTEX
  8
0
 10
66.250760
 20
193.916751
 42
-0.000877
  0
VERTEX
  8
0
 10
66.055778
 20
263.228382
 42
-0.000265
  0
VERTEX
  8
0
 10
66.000000
 20
368.466357
 42
-0.000185
  0
VERTEX
  8
0
 10
66.046465
 20
494.169908
 42
-0.001295
  0
VERTEX
  8
0
 10
66.250604
 20
555.475397
 42
-0.000237
  0
VERTEX
  8
0
 10
66.514999
 20
596.824016
 42
-0.578271
  0
VERTEX
  8
0
 10
67.354811
 20
597.299690
 42
-0.014867
  0
VERTEX
  8
0
 10
68.440025
 20
596.614836
 42
-0.000003
  0
VERTEX
  8
0
 10
117.985768
 20
563.247409
 42
-0.000071
  0
VERTEX
  8
0
 10
172.877515
 20
526.267689
 42
-0.000043
  0
SEQEND
  0
ENDSEC
  0
EOF
