999
DXF data, created by potrace 1.11, written by Peter Selinger 2001-2013
  0
SECTION
  2
HEADER
  9
$ACADVER
  1
AC1006
  9
$EXTMIN
 10
0.000000
 20
0.000000
 30
0.000000
  9
$EXTMAX
 10
485.000000
 20
1938.000000
 30
0.000000
  0
ENDSEC
  0
SECTION
  2
ENTITIES
  0
POLYLINE
  8
0
 66
1
 70
1
  0
VERTEX
  8
0
 10
0.000000
 20
969.000000
 42
0.000000
  0
VERTEX
  8
0
 10
0.000000
 20
25.000000
 42
0.000000
  0
VERTEX
  8
0
 10
11.500000
 20
25.000000
 42
0.006810
  0
VERTEX
  8
0
 10
16.244636
 20
25.064625
 42
0.014876
  0
VERTEX
  8
0
 10
19.875000
 20
25.271739
 42
0.010078
  0
VERTEX
  8
0
 10
22.617971
 20
25.566068
 42
0.377473
  0
VERTEX
  8
0
 10
23.000000
 20
26.000000
 42
-0.322437
  0
VERTEX
  8
0
 10
23.280551
 20
26.389817
 42
-0.031449
  0
VERTEX
  8
0
 10
24.468750
 20
26.706250
 42
-0.030530
  0
VERTEX
  8
0
 10
26.083446
 20
26.927795
 42
-0.018830
  0
VERTEX
  8
0
 10
28.000000
 20
27.000000
 42
0.018830
  0
VERTEX
  8
0
 10
29.916554
 20
27.072205
 42
0.030530
  0
VERTEX
  8
0
 10
31.531250
 20
27.293750
 42
0.031449
  0
VERTEX
  8
0
 10
32.719449
 20
27.610183
 42
0.322437
  0
VERTEX
  8
0
 10
33.000000
 20
28.000000
 42
-0.322437
  0
VERTEX
  8
0
 10
33.280551
 20
28.389817
 42
-0.031449
  0
VERTEX
  8
0
 10
34.468750
 20
28.706250
 42
-0.030530
  0
VERTEX
  8
0
 10
36.083446
 20
28.927795
 42
-0.018830
  0
VERTEX
  8
0
 10
38.000000
 20
29.000000
 42
0.018830
  0
VERTEX
  8
0
 10
39.916554
 20
29.072205
 42
0.030530
  0
VERTEX
  8
0
 10
41.531250
 20
29.293750
 42
0.031449
  0
VERTEX
  8
0
 10
42.719449
 20
29.610183
 42
0.322437
  0
VERTEX
  8
0
 10
43.000000
 20
30.000000
 42
-0.295869
  0
VERTEX
  8
0
 10
43.251055
 20
30.387127
 42
-0.043820
  0
VERTEX
  8
0
 10
44.175000
 20
30.706250
 42
-0.037669
  0
VERTEX
  8
0
 10
45.467056
 20
30.927610
 42
-0.023598
  0
VERTEX
  8
0
 10
47.000000
 20
31.000000
 42
0.023598
  0
VERTEX
  8
0
 10
48.532944
 20
31.072390
 42
0.037669
  0
VERTEX
  8
0
 10
49.825000
 20
31.293750
 42
0.043820
  0
VERTEX
  8
0
 10
50.748945
 20
31.612873
 42
0.295869
  0
VERTEX
  8
0
 10
51.000000
 20
32.000000
 42
-0.310520
  0
VERTEX
  8
0
 10
51.267028
 20
32.388512
 42
-0.036969
  0
VERTEX
  8
0
 10
52.321875
 20
32.706250
 42
-0.033738
  0
VERTEX
  8
0
 10
53.775243
 20
32.927717
 42
-0.020945
  0
VERTEX
  8
0
 10
55.500000
 20
33.000000
 42
0.018816
  0
VERTEX
  8
0
 10
57.224900
 20
33.064934
 42
0.030508
  0
VERTEX
  8
0
 10
58.678125
 20
33.264171
 42
0.031410
  0
VERTEX
  8
0
 10
59.747613
 20
33.548732
 42
0.322520
  0
VERTEX
  8
0
 10
60.000000
 20
33.899306
 42
-0.286345
  0
VERTEX
  8
0
 10
60.238615
 20
34.281800
 42
-0.030669
  0
VERTEX
  8
0
 10
61.248437
 20
34.701557
 42
-0.030363
  0
VERTEX
  8
0
 10
62.621338
 20
35.084356
 42
-0.019538
  0
VERTEX
  8
0
 10
64.250000
 20
35.367516
 42
0.002795
  0
VERTEX
  8
0
 10
70.904818
 20
36.296230
 42
0.014641
  0
VERTEX
  8
0
 10
74.545865
 20
36.934481
 42
0.021698
  0
VERTEX
  8
0
 10
76.763450
 20
37.491755
 42
0.183942
  0
VERTEX
  8
0
 10
77.565285
 20
38.105633
 42
-0.154257
  0
VERTEX
  8
0
 10
77.966231
 20
38.451040
 42
-0.037589
  0
VERTEX
  8
0
 10
78.802241
 20
38.737280
 42
-0.034995
  0
VERTEX
  8
0
 10
79.856191
 20
38.934267
 42
-0.028711
  0
VERTEX
  8
0
 10
81.000000
 20
39.000000
 42
0.032024
  0
VERTEX
  8
0
 10
82.148530
 20
39.073638
 42
0.037579
  0
VERTEX
  8
0
 10
83.216936
 20
39.293750
 42
0.040930
  0
VERTEX
  8
0
 10
84.068924
 20
39.614552
 42
0.144823
  0
VERTEX
  8
0
 10
84.500000
 20
40.000000
 42
-0.159713
  0
VERTEX
  8
0
 10
84.958660
 20
40.386693
 42
-0.035556
  0
VERTEX
  8
0
 10
85.947275
 20
40.706250
 42
-0.033489
  0
VERTEX
  8
0
 10
87.196361
 20
40.926586
 42
-0.026918
  0
VERTEX
  8
0
 10
88.559017
 20
41.000000
 42
0.027497
  0
VERTEX
  8
0
 10
89.877484
 20
41.072564
 42
0.043243
  0
VERTEX
  8
0
 10
90.989211
 20
41.293750
 42
0.053437
  0
VERTEX
  8
0
 10
91.770364
 20
41.614478
 42
0.275259
  0
VERTEX
  8
0
 10
92.000000
 20
42.000000
 42
-0.242191
  0
VERTEX
  8
0
 10
92.196933
 20
42.382718
 42
-0.068935
  0
VERTEX
  8
0
 10
92.807812
 20
42.702834
 42
-0.052799
  0
VERTEX
  8
0
 10
93.696681
 20
42.919914
 42
-0.034579
  0
VERTEX
  8
0
 10
94.750000
 20
42.988372
 42
0.077473
  0
VERTEX
  8
0
 10
98.522754
 20
43.560143
 42
0.003380
  0
VERTEX
  8
0
 10
111.244019
 20
47.660453
 42
0.001571
  0
VERTEX
  8
0
 10
124.602074
 20
52.112515
 42
0.211263
  0
VERTEX
  8
0
 10
125.833333
 20
53.239602
 42
-0.179462
  0
VERTEX
  8
0
 10
126.116918
 20
53.533065
 42
-0.043021
  0
VERTEX
  8
0
 10
126.761310
 20
53.776633
 42
-0.038805
  0
VERTEX
  8
0
 10
127.597270
 20
53.944195
 42
-0.030071
  0
VERTEX
  8
0
 10
128.524316
 20
54.000000
 42
0.038918
  0
VERTEX
  8
0
 10
129.472092
 20
54.073882
 42
0.042177
  0
VERTEX
  8
0
 10
130.370954
 20
54.293750
 42
0.046287
  0
VERTEX
  8
0
 10
131.098224
 20
54.615662
 42
0.127689
  0
VERTEX
  8
0
 10
131.500000
 20
55.000000
 42
-0.111412
  0
VERTEX
  8
0
 10
131.876024
 20
55.383556
 42
-0.050262
  0
VERTEX
  8
0
 10
132.506650
 20
55.706250
 42
-0.046318
  0
VERTEX
  8
0
 10
133.270704
 20
55.925923
 42
-0.046881
  0
VERTEX
  8
0
 10
134.059017
 20
56.000000
 42
0.049547
  0
VERTEX
  8
0
 10
134.801778
 20
56.073784
 42
0.069539
  0
VERTEX
  8
0
 10
135.429836
 20
56.293750
 42
0.089706
  0
VERTEX
  8
0
 10
135.852535
 20
56.618213
 42
0.186414
  0
VERTEX
  8
0
 10
136.000000
 20
57.000000
 42
-0.186414
  0
VERTEX
  8
0
 10
136.147465
 20
57.381787
 42
-0.089706
  0
VERTEX
  8
0
 10
136.570164
 20
57.706250
 42
-0.069539
  0
VERTEX
  8
0
 10
137.198222
 20
57.926216
 42
-0.049547
  0
VERTEX
  8
0
 10
137.940983
 20
58.000000
 42
0.046881
  0
VERTEX
  8
0
 10
138.729296
 20
58.074077
 42
0.046318
  0
VERTEX
  8
0
 10
139.493350
 20
58.293750
 42
0.050262
  0
VERTEX
  8
0
 10
140.123976
 20
58.616444
 42
0.111412
  0
VERTEX
  8
0
 10
140.500000
 20
59.000000
 42
-0.130646
  0
VERTEX
  8
0
 10
140.906663
 20
59.384508
 42
-0.045439
  0
VERTEX
  8
0
 10
141.653525
 20
59.706250
 42
-0.041396
  0
VERTEX
  8
0
 10
142.579340
 20
59.926158
 42
-0.037634
  0
VERTEX
  8
0
 10
143.559017
 20
60.000000
 42
0.039081
  0
VERTEX
  8
0
 10
144.493720
 20
60.073170
 42
0.058208
  0
VERTEX
  8
0
 10
145.282961
 20
60.293750
 42
0.076538
  0
VERTEX
  8
0
 10
145.820624
 20
60.617207
 42
0.222681
  0
VERTEX
  8
0
 10
146.000000
 20
61.000000
 42
-0.148195
  0
VERTEX
  8
0
 10
146.115568
 20
61.381354
 42
-0.098894
  0
VERTEX
  8
0
 10
146.440625
 20
61.706250
 42
-0.082425
  0
VERTEX
  8
0
 10
146.926543
 20
61.925306
 42
-0.064853
  0
VERTEX
  8
0
 10
147.500000
 20
62.000000
 42
0.064853
  0
VERTEX
  8
0
 10
148.073457
 20
62.074694
 42
0.082425
  0
VERTEX
  8
0
 10
148.559375
 20
62.293750
 42
0.098894
  0
VERTEX
  8
0
 10
148.884432
 20
62.618646
 42
0.148195
  0
VERTEX
  8
0
 10
149.000000
 20
63.000000
 42
-0.226478
  0
VERTEX
  8
0
 10
149.182831
 20
63.382936
 42
-0.074992
  0
VERTEX
  8
0
 10
149.734375
 20
63.706250
 42
-0.057076
  0
VERTEX
  8
0
 10
150.542644
 20
63.926884
 42
-0.038131
  0
VERTEX
  8
0
 10
151.500000
 20
64.000000
 42
0.038131
  0
VERTEX
  8
0
 10
152.457356
 20
64.073116
 42
0.057076
  0
VERTEX
  8
0
 10
153.265625
 20
64.293750
 42
0.074992
  0
VERTEX
  8
0
 10
153.817169
 20
64.617064
 42
0.226478
  0
VERTEX
  8
0
 10
154.000000
 20
65.000000
 42
-0.148195
  0
VERTEX
  8
0
 10
154.115568
 20
65.381354
 42
-0.098894
  0
VERTEX
  8
0
 10
154.440625
 20
65.706250
 42
-0.082425
  0
VERTEX
  8
0
 10
154.926543
 20
65.925306
 42
-0.064853
  0
VERTEX
  8
0
 10
155.500000
 20
66.000000
 42
0.064853
  0
VERTEX
  8
0
 10
156.073457
 20
66.074694
 42
0.082425
  0
VERTEX
  8
0
 10
156.559375
 20
66.293750
 42
0.098894
  0
VERTEX
  8
0
 10
156.884432
 20
66.618646
 42
0.148195
  0
VERTEX
  8
0
 10
157.000000
 20
67.000000
 42
-0.191087
  0
VERTEX
  8
0
 10
157.151477
 20
67.381882
 42
-0.088204
  0
VERTEX
  8
0
 10
157.587500
 20
67.706250
 42
-0.068025
  0
VERTEX
  8
0
 10
158.234582
 20
67.926307
 42
-0.048028
  0
VERTEX
  8
0
 10
159.000000
 20
68.000000
 42
0.048028
  0
VERTEX
  8
0
 10
159.765418
 20
68.073693
 42
0.068025
  0
VERTEX
  8
0
 10
160.412500
 20
68.293750
 42
0.088204
  0
VERTEX
  8
0
 10
160.848523
 20
68.618118
 42
0.191087
  0
VERTEX
  8
0
 10
161.000000
 20
69.000000
 42
-0.184457
  0
VERTEX
  8
0
 10
161.145793
 20
69.381750
 42
-0.090315
  0
VERTEX
  8
0
 10
161.563021
 20
69.706250
 42
-0.070178
  0
VERTEX
  8
0
 10
162.183242
 20
69.926177
 42
-0.050201
  0
VERTEX
  8
0
 10
162.916667
 20
70.000000
 42
0.042456
  0
VERTEX
  8
0
 10
163.674665
 20
70.064479
 42
0.050093
  0
VERTEX
  8
0
 10
164.368229
 20
70.256295
 42
0.057488
  0
VERTEX
  8
0
 10
164.902460
 20
70.537671
 42
0.152731
  0
VERTEX
  8
0
 10
165.166667
 20
70.872494
 42
-0.148167
  0
VERTEX
  8
0
 10
165.529298
 20
71.340581
 42
-0.009339
  0
VERTEX
  8
0
 10
166.985073
 20
72.333961
 42
-0.013098
  0
VERTEX
  8
0
 10
168.800252
 20
73.456681
 42
-0.009320
  0
VERTEX
  8
0
 10
170.888902
 20
74.622494
 42
0.001964
  0
VERTEX
  8
0
 10
173.070193
 20
75.798272
 42
0.002178
  0
VERTEX
  8
0
 10
175.168075
 20
76.951622
 42
0.002017
  0
VERTEX
  8
0
 10
176.949748
 20
77.950688
 42
0.011296
  0
VERTEX
  8
0
 10
177.888902
 20
78.510688
 42
0.003974
  0
VERTEX
  8
0
 10
183.203957
 20
81.904138
 42
0.006022
  0
VERTEX
  8
0
 10
187.767192
 20
84.947674
 42
0.006141
  0
VERTEX
  8
0
 10
191.381394
 20
87.487392
 42
0.031311
  0
VERTEX
  8
0
 10
193.279447
 20
89.045718
 42
-0.023636
  0
VERTEX
  8
0
 10
194.162587
 20
89.793755
 42
-0.026410
  0
VERTEX
  8
0
 10
195.081318
 20
90.425930
 42
-0.027063
  0
VERTEX
  8
0
 10
195.912149
 20
90.875262
 42
-0.110865
  0
VERTEX
  8
0
 10
196.467802
 20
91.000000
 42
0.128378
  0
VERTEX
  8
0
 10
196.985296
 20
91.135096
 42
0.039468
  0
VERTEX
  8
0
 10
197.661541
 20
91.587500
 42
0.036577
  0
VERTEX
  8
0
 10
198.367927
 20
92.234606
 42
0.032893
  0
VERTEX
  8
0
 10
199.000000
 20
93.000000
 42
-0.038332
  0
VERTEX
  8
0
 10
199.646083
 20
93.765268
 42
-0.039803
  0
VERTEX
  8
0
 10
200.393849
 20
94.412500
 42
-0.043072
  0
VERTEX
  8
0
 10
201.128761
 20
94.860855
 42
-0.115942
  0
VERTEX
  8
0
 10
201.720759
 20
95.000000
 42
0.076630
  0
VERTEX
  8
0
 10
202.209482
 20
95.075344
 42
0.089631
  0
VERTEX
  8
0
 10
202.624223
 20
95.293750
 42
0.100760
  0
VERTEX
  8
0
 10
202.901479
 20
95.618634
 42
0.127083
  0
VERTEX
  8
0
 10
203.000000
 20
96.000000
 42
-0.127083
  0
VERTEX
  8
0
 10
203.098521
 20
96.381366
 42
-0.100760
  0
VERTEX
  8
0
 10
203.375777
 20
96.706250
 42
-0.089631
  0
VERTEX
  8
0
 10
203.790518
 20
96.924656
 42
-0.076630
  0
VERTEX
  8
0
 10
204.279241
 20
97.000000
 42
0.115942
  0
VERTEX
  8
0
 10
204.871239
 20
97.139145
 42
0.043072
  0
VERTEX
  8
0
 10
205.606151
 20
97.587500
 42
0.039803
  0
VERTEX
  8
0
 10
206.353917
 20
98.234732
 42
0.038332
  0
VERTEX
  8
0
 10
207.000000
 20
99.000000
 42
-0.023368
  0
VERTEX
  8
0
 10
207.608197
 20
99.765712
 42
-0.029286
  0
VERTEX
  8
0
 10
208.243617
 20
100.412500
 42
-0.029946
  0
VERTEX
  8
0
 10
208.823126
 20
100.877148
 42
-0.155219
  0
VERTEX
  8
0
 10
209.209328
 20
101.000000
 42
0.147339
  0
VERTEX
  8
0
 10
210.044553
 20
101.251585
 42
0.016611
  0
VERTEX
  8
0
 10
211.675159
 20
102.411674
 42
0.012070
  0
VERTEX
  8
0
 10
214.141951
 20
104.389091
 42
0.002487
  0
VERTEX
  8
0
 10
218.387125
 20
108.000000
 42
-0.002335
  0
VERTEX
  8
0
 10
220.047660
 20
109.413305
 42
-0.002574
  0
VERTEX
  8
0
 10
221.668516
 20
110.765625
 42
-0.002394
  0
VERTEX
  8
0
 10
223.064496
 20
111.906995
 42
-0.013108
  0
VERTEX
  8
0
 10
223.837495
 20
112.500000
 42
0.038248
  0
VERTEX
  8
0
 10
226.930771
 20
115.130013
 42
0.000337
  0
VERTEX
  8
0
 10
248.804307
 20
136.845129
 42
0.000074
  0
VERTEX
  8
0
 10
271.668693
 20
159.581286
 42
0.199605
  0
VERTEX
  8
0
 10
272.000000
 20
160.378129
 42
-0.164144
  0
VERTEX
  8
0
 10
272.308550
 20
161.292681
 42
-0.012823
  0
VERTEX
  8
0
 10
273.943891
 20
163.329841
 42
-0.017070
  0
VERTEX
  8
0
 10
276.017361
 20
165.618067
 42
-0.014592
  0
VERTEX
  8
0
 10
278.350532
 20
167.886249
 42
0.020856
  0
VERTEX
  8
0
 10
279.537887
 20
169.069812
 42
0.015580
  0
VERTEX
  8
0
 10
280.748528
 20
170.466586
 42
0.015815
  0
VERTEX
  8
0
 10
281.808036
 20
171.856411
 42
0.034279
  0
VERTEX
  8
0
 10
282.511047
 20
173.000000
 42
-0.039406
  0
VERTEX
  8
0
 10
283.310331
 20
174.270843
 42
-0.010418
  0
VERTEX
  8
0
 10
284.784383
 20
176.166096
 42
-0.010506
  0
VERTEX
  8
0
 10
286.557418
 20
178.258866
 42
-0.010621
  0
VERTEX
  8
0
 10
288.410514
 20
180.267559
 42
0.009831
  0
VERTEX
  8
0
 10
290.168710
 20
182.167356
 42
0.013912
  0
VERTEX
  8
0
 10
291.651839
 20
183.930970
 42
0.009969
  0
VERTEX
  8
0
 10
292.802888
 20
185.440517
 42
0.159206
  0
VERTEX
  8
0
 10
293.000000
 20
186.043875
 42
-0.157797
  0
VERTEX
  8
0
 10
293.192195
 20
186.637704
 42
-0.011404
  0
VERTEX
  8
0
 10
294.248437
 20
188.030495
 42
-0.015086
  0
VERTEX
  8
0
 10
295.621966
 20
189.655229
 42
-0.010803
  0
VERTEX
  8
0
 10
297.250000
 20
191.390286
 42
0.003787
  0
VERTEX
  8
0
 10
298.987109
 20
193.190295
 42
0.003817
  0
VERTEX
  8
0
 10
300.692187
 20
195.011755
 42
0.003724
  0
VERTEX
  8
0
 10
302.153754
 20
196.621057
 42
0.015371
  0
VERTEX
  8
0
 10
303.000000
 20
197.627514
 42
-0.002030
  0
VERTEX
  8
0
 10
303.747744
 20
198.566579
 42
-0.000781
  0
VERTEX
  8
0
 10
304.793750
 20
199.865171
 42
-0.000773
  0
VERTEX
  8
0
 10
305.932942
 20
201.270494
 42
-0.000952
  0
VERTEX
  8
0
 10
307.000000
 20
202.577587
 42
0.004925
  0
VERTEX
  8
0
 10
308.102775
 20
203.950557
 42
0.003186
  0
VERTEX
  8
0
 10
309.353125
 20
205.560054
 42
0.003203
  0
VERTEX
  8
0
 10
310.554872
 20
207.148475
 42
0.006053
  0
VERTEX
  8
0
 10
311.500000
 20
208.446984
 42
-0.014865
  0
VERTEX
  8
0
 10
312.488362
 20
209.755783
 42
-0.007067
  0
VERTEX
  8
0
 10
313.833678
 20
211.383603
 42
-0.006998
  0
VERTEX
  8
0
 10
315.289088
 20
213.047050
 42
-0.009859
  0
VERTEX
  8
0
 10
316.635926
 20
214.485534
 42
0.013332
  0
VERTEX
  8
0
 10
317.922571
 20
215.878998
 42
0.011615
  0
VERTEX
  8
0
 10
319.195340
 20
217.403427
 42
0.011759
  0
VERTEX
  8
0
 10
320.282157
 20
218.836264
 42
0.033515
  0
VERTEX
  8
0
 10
320.945182
 20
219.897573
 42
-0.042284
  0
VERTEX
  8
0
 10
322.148839
 20
221.751223
 42
-0.013607
  0
VERTEX
  8
0
 10
324.231313
 20
224.286557
 42
-0.007942
  0
VERTEX
  8
0
 10
327.619964
 20
228.067499
 42
-0.001616
  0
VERTEX
  8
0
 10
333.750000
 20
234.649600
 42
0.007681
  0
VERTEX
  8
0
 10
335.378412
 20
236.441189
 42
0.011228
  0
VERTEX
  8
0
 10
336.751562
 20
238.071767
 42
0.006859
  0
VERTEX
  8
0
 10
337.843310
 20
239.467685
 42
0.163949
  0
VERTEX
  8
0
 10
338.000000
 20
239.932702
 42
-0.161820
  0
VERTEX
  8
0
 10
338.155309
 20
240.400015
 42
-0.006637
  0
VERTEX
  8
0
 10
339.248438
 20
241.823150
 42
-0.010971
  0
VERTEX
  8
0
 10
340.621583
 20
243.486186
 42
-0.007502
  0
VERTEX
  8
0
 10
342.250000
 20
245.316275
 42
0.002022
  0
VERTEX
  8
0
 10
344.167131
 20
247.423860
 42
0.001215
  0
VERTEX
  8
0
 10
346.426563
 20
249.940280
 42
0.001216
  0
VERTEX
  8
0
 10
348.661553
 20
252.453954
 42
0.002123
  0
VERTEX
  8
0
 10
350.500000
 20
254.549654
 42
-0.003748
  0
VERTEX
  8
0
 10
352.421909
 20
256.726180
 42
-0.001755
  0
VERTEX
  8
0
 10
354.940625
 20
259.516077
 42
-0.001739
  0
VERTEX
  8
0
 10
357.602016
 20
262.422918
 42
-0.002439
  0
VERTEX
  8
0
 10
360.000000
 20
264.998520
 42
0.002653
  0
VERTEX
  8
0
 10
364.222670
 20
269.537856
 42
0.008928
  0
VERTEX
  8
0
 10
366.915976
 20
272.571063
 42
0.007261
  0
VERTEX
  8
0
 10
368.736259
 20
274.759864
 42
0.171454
  0
VERTEX
  8
0
 10
369.000000
 20
275.506384
 42
-0.181562
  0
VERTEX
  8
0
 10
369.118622
 20
275.822288
 42
-0.002701
  0
VERTEX
  8
0
 10
370.450808
 20
277.329537
 42
-0.006936
  0
VERTEX
  8
0
 10
372.045943
 20
279.065681
 42
-0.004478
  0
VERTEX
  8
0
 10
373.938920
 20
281.033872
 42
0.005956
  0
VERTEX
  8
0
 10
376.071915
 20
283.264787
 42
0.004297
  0
VERTEX
  8
0
 10
378.399662
 20
285.801554
 42
0.004340
  0
VERTEX
  8
0
 10
380.571347
 20
288.251900
 42
0.009391
  0
VERTEX
  8
0
 10
382.188920
 20
290.181265
 42
-0.008503
  0
VERTEX
  8
0
 10
383.761395
 20
292.063622
 42
-0.004471
  0
VERTEX
  8
0
 10
385.775808
 20
294.351642
 42
-0.004447
  0
VERTEX
  8
0
 10
387.881647
 20
296.659190
 42
-0.006825
  0
VERTEX
  8
0
 10
389.750000
 20
298.616031
 42
0.011006
  0
VERTEX
  8
0
 10
391.378010
 20
300.349937
 42
0.015322
  0
VERTEX
  8
0
 10
392.751563
 20
301.976518
 42
0.011705
  0
VERTEX
  8
0
 10
393.805801
 20
303.371371
 42
0.157226
  0
VERTEX
  8
0
 10
394.000000
 20
303.973684
 42
-0.096416
  0
VERTEX
  8
0
 10
394.076245
 20
304.365406
 42
-0.097290
  0
VERTEX
  8
0
 10
394.293750
 20
304.698520
 42
-0.098538
  0
VERTEX
  8
0
 10
394.618400
 20
304.921552
 42
-0.101724
  0
VERTEX
  8
0
 10
395.000000
 20
305.000000
 42
0.107021
  0
VERTEX
  8
0
 10
395.381532
 20
305.082610
 42
0.099487
  0
VERTEX
  8
0
 10
395.706250
 20
305.316780
 42
0.095880
  0
VERTEX
  8
0
 10
395.923949
 20
305.666715
 42
0.091591
  0
VERTEX
  8
0
 10
396.000000
 20
306.078401
 42
-0.153744
  0
VERTEX
  8
0
 10
396.191757
 20
306.687287
 42
-0.015566
  0
VERTEX
  8
0
 10
397.111029
 20
307.918553
 42
-0.018337
  0
VERTEX
  8
0
 10
398.333631
 20
309.343482
 42
-0.013612
  0
VERTEX
  8
0
 10
399.782227
 20
310.828401
 42
0.012783
  0
VERTEX
  8
0
 10
401.407908
 20
312.489326
 42
0.008797
  0
VERTEX
  8
0
 10
403.167548
 20
314.449593
 42
0.008875
  0
VERTEX
  8
0
 10
404.795098
 20
316.396958
 42
0.017837
  0
VERTEX
  8
0
 10
405.995512
 20
318.000000
 42
-0.006882
  0
VERTEX
  8
0
 10
407.006279
 20
319.413287
 42
-0.007375
  0
VERTEX
  8
0
 10
408.032965
 20
320.765625
 42
-0.007040
  0
VERTEX
  8
0
 10
408.947811
 20
321.901134
 42
-0.034183
  0
VERTEX
  8
0
 10
409.517698
 20
322.500000
 42
0.043719
  0
VERTEX
  8
0
 10
411.308864
 20
324.455490
 42
0.004966
  0
VERTEX
  8
0
 10
414.913447
 20
329.254073
 42
0.002031
  0
VERTEX
  8
0
 10
418.690334
 20
334.431327
 42
0.157842
  0
VERTEX
  8
0
 10
419.000000
 20
335.387826
 42
-0.152123
  0
VERTEX
  8
0
 10
419.124770
 20
335.788433
 42
-0.014719
  0
VERTEX
  8
0
 10
419.734375
 20
336.618753
 42
-0.017628
  0
VERTEX
  8
0
 10
420.542479
 20
337.582096
 42
-0.013040
  0
VERTEX
  8
0
 10
421.500000
 20
338.590909
 42
0.016788
  0
VERTEX
  8
0
 10
422.457284
 20
339.614727
 42
0.021380
  0
VERTEX
  8
0
 10
423.265625
 20
340.623580
 42
0.019947
  0
VERTEX
  8
0
 10
423.859613
 20
341.505250
 42
0.139131
  0
VERTEX
  8
0
 10
424.000000
 20
342.000000
 42
-0.139131
  0
VERTEX
  8
0
 10
424.140387
 20
342.494750
 42
-0.019947
  0
VERTEX
  8
0
 10
424.734375
 20
343.376420
 42
-0.021380
  0
VERTEX
  8
0
 10
425.542716
 20
344.385273
 42
-0.016788
  0
VERTEX
  8
0
 10
426.500000
 20
345.409091
 42
0.021612
  0
VERTEX
  8
0
 10
427.457036
 20
346.452642
 42
0.025505
  0
VERTEX
  8
0
 10
428.265625
 20
347.520800
 42
0.025656
  0
VERTEX
  8
0
 10
428.845883
 20
348.476504
 42
0.124224
  0
VERTEX
  8
0
 10
429.000000
 20
349.087250
 42
-0.105017
  0
VERTEX
  8
0
 10
429.119728
 20
349.651001
 42
-0.035652
  0
VERTEX
  8
0
 10
429.516068
 20
350.394405
 42
-0.033606
  0
VERTEX
  8
0
 10
430.084521
 20
351.176894
 42
-0.032830
  0
VERTEX
  8
0
 10
430.756828
 20
351.882705
 42
0.033499
  0
VERTEX
  8
0
 10
431.531017
 20
352.697653
 42
0.016269
  0
VERTEX
  8
0
 10
432.412407
 20
353.832732
 42
0.016056
  0
VERTEX
  8
0
 10
433.256847
 20
355.078771
 42
0.022277
  0
VERTEX
  8
0
 10
433.925808
 20
356.250000
 42
-0.022283
  0
VERTEX
  8
0
 10
434.527331
 20
357.303134
 42
-0.030191
  0
VERTEX
  8
0
 10
435.167252
 20
358.192187
 42
-0.030657
  0
VERTEX
  8
0
 10
435.762240
 20
358.836608
 42
-0.193348
  0
VERTEX
  8
0
 10
436.168980
 20
359.000000
 42
0.175242
  0
VERTEX
  8
0
 10
436.486095
 20
359.114665
 42
0.093006
  0
VERTEX
  8
0
 10
436.755888
 20
359.440625
 42
0.073221
  0
VERTEX
  8
0
 10
436.938489
 20
359.926133
 42
0.053440
  0
VERTEX
  8
0
 10
437.000000
 20
360.500000
 42
-0.053440
  0
VERTEX
  8
0
 10
437.061511
 20
361.073867
 42
-0.073221
  0
VERTEX
  8
0
 10
437.244112
 20
361.559375
 42
-0.093006
  0
VERTEX
  8
0
 10
437.513905
 20
361.885335
 42
-0.175242
  0
VERTEX
  8
0
 10
437.831020
 20
362.000000
 42
0.193661
  0
VERTEX
  8
0
 10
438.237359
 20
362.163516
 42
0.030769
  0
VERTEX
  8
0
 10
438.830531
 20
362.807812
 42
0.030271
  0
VERTEX
  8
0
 10
439.468013
 20
363.696865
 42
0.022334
  0
VERTEX
  8
0
 10
440.066647
 20
364.750000
 42
-0.017558
  0
VERTEX
  8
0
 10
441.464230
 20
367.264243
 42
-0.010245
  0
VERTEX
  8
0
 10
443.305030
 20
370.181283
 42
-0.009988
  0
VERTEX
  8
0
 10
445.172011
 20
372.890411
 42
-0.029754
  0
VERTEX
  8
0
 10
446.593401
 20
374.637842
 42
0.045200
  0
VERTEX
  8
0
 10
447.099399
 20
375.300667
 42
0.013860
  0
VERTEX
  8
0
 10
447.741004
 20
376.385831
 42
0.013747
  0
VERTEX
  8
0
 10
448.395201
 20
377.646265
 42
0.014641
  0
VERTEX
  8
0
 10
448.964721
 20
378.914829
 42
-0.022715
  0
VERTEX
  8
0
 10
449.518289
 20
380.096434
 42
-0.031641
  0
VERTEX
  8
0
 10
450.125364
 20
381.093731
 42
-0.032626
  0
VERTEX
  8
0
 10
450.703832
 20
381.815992
 42
-0.210601
  0
VERTEX
  8
0
 10
451.121320
 20
382.000000
 42
0.166853
  0
VERTEX
  8
0
 10
451.456528
 20
382.115064
 42
0.095179
  0
VERTEX
  8
0
 10
451.741888
 20
382.440625
 42
0.076039
  0
VERTEX
  8
0
 10
451.934793
 20
382.926250
 42
0.056643
  0
VERTEX
  8
0
 10
452.000000
 20
383.500000
 42
-0.064853
  0
VERTEX
  8
0
 10
452.074694
 20
384.073457
 42
-0.082425
  0
VERTEX
  8
0
 10
452.293750
 20
384.559375
 42
-0.098894
  0
VERTEX
  8
0
 10
452.618646
 20
384.884432
 42
-0.148195
  0
VERTEX
  8
0
 10
453.000000
 20
385.000000
 42
0.148195
  0
VERTEX
  8
0
 10
453.381354
 20
385.115568
 42
0.098894
  0
VERTEX
  8
0
 10
453.706250
 20
385.440625
 42
0.082425
  0
VERTEX
  8
0
 10
453.925306
 20
385.926543
 42
0.064853
  0
VERTEX
  8
0
 10
454.000000
 20
386.500000
 42
-0.064853
  0
VERTEX
  8
0
 10
454.074694
 20
387.073457
 42
-0.082425
  0
VERTEX
  8
0
 10
454.293750
 20
387.559375
 42
-0.098894
  0
VERTEX
  8
0
 10
454.618646
 20
387.884432
 42
-0.148195
  0
VERTEX
  8
0
 10
455.000000
 20
388.000000
 42
0.148195
  0
VERTEX
  8
0
 10
455.381354
 20
388.115568
 42
0.098894
  0
VERTEX
  8
0
 10
455.706250
 20
388.440625
 42
0.082425
  0
VERTEX
  8
0
 10
455.925306
 20
388.926543
 42
0.064853
  0
VERTEX
  8
0
 10
456.000000
 20
389.500000
 42
-0.064853
  0
VERTEX
  8
0
 10
456.074694
 20
390.073457
 42
-0.082425
  0
VERTEX
  8
0
 10
456.293750
 20
390.559375
 42
-0.098894
  0
VERTEX
  8
0
 10
456.618646
 20
390.884432
 42
-0.148195
  0
VERTEX
  8
0
 10
457.000000
 20
391.000000
 42
0.148195
  0
VERTEX
  8
0
 10
457.381354
 20
391.115568
 42
0.098894
  0
VERTEX
  8
0
 10
457.706250
 20
391.440625
 42
0.082425
  0
VERTEX
  8
0
 10
457.925306
 20
391.926543
 42
0.064853
  0
VERTEX
  8
0
 10
458.000000
 20
392.500000
 42
-0.064853
  0
VERTEX
  8
0
 10
458.074694
 20
393.073457
 42
-0.082425
  0
VERTEX
  8
0
 10
458.293750
 20
393.559375
 42
-0.098894
  0
VERTEX
  8
0
 10
458.618646
 20
393.884432
 42
-0.148195
  0
VERTEX
  8
0
 10
459.000000
 20
394.000000
 42
0.148195
  0
VERTEX
  8
0
 10
459.381354
 20
394.115568
 42
0.098894
  0
VERTEX
  8
0
 10
459.706250
 20
394.440625
 42
0.082425
  0
VERTEX
  8
0
 10
459.925306
 20
394.926543
 42
0.064853
  0
VERTEX
  8
0
 10
460.000000
 20
395.500000
 42
-0.064853
  0
VERTEX
  8
0
 10
460.074694
 20
396.073457
 42
-0.082425
  0
VERTEX
  8
0
 10
460.293750
 20
396.559375
 42
-0.098894
  0
VERTEX
  8
0
 10
460.618646
 20
396.884432
 42
-0.148195
  0
VERTEX
  8
0
 10
461.000000
 20
397.000000
 42
0.148195
  0
VERTEX
  8
0
 10
461.381354
 20
397.115568
 42
0.098894
  0
VERTEX
  8
0
 10
461.706250
 20
397.440625
 42
0.082425
  0
VERTEX
  8
0
 10
461.925306
 20
397.926543
 42
0.064853
  0
VERTEX
  8
0
 10
462.000000
 20
398.500000
 42
-0.064853
  0
VERTEX
  8
0
 10
462.074694
 20
399.073457
 42
-0.082425
  0
VERTEX
  8
0
 10
462.293750
 20
399.559375
 42
-0.098894
  0
VERTEX
  8
0
 10
462.618646
 20
399.884432
 42
-0.148195
  0
VERTEX
  8
0
 10
463.000000
 20
400.000000
 42
0.148195
  0
VERTEX
  8
0
 10
463.381354
 20
400.115568
 42
0.098894
  0
VERTEX
  8
0
 10
463.706250
 20
400.440625
 42
0.082425
  0
VERTEX
  8
0
 10
463.925306
 20
400.926543
 42
0.064853
  0
VERTEX
  8
0
 10
464.000000
 20
401.500000
 42
-0.054525
  0
VERTEX
  8
0
 10
464.062762
 20
402.073827
 42
-0.074197
  0
VERTEX
  8
0
 10
464.248861
 20
402.559375
 42
-0.093793
  0
VERTEX
  8
0
 10
464.523936
 20
402.885184
 42
-0.172323
  0
VERTEX
  8
0
 10
464.847186
 20
403.000000
 42
0.160737
  0
VERTEX
  8
0
 10
465.234635
 20
403.127858
 42
0.046361
  0
VERTEX
  8
0
 10
465.710712
 20
403.554039
 42
0.041464
  0
VERTEX
  8
0
 10
466.189277
 20
404.164204
 42
0.033960
  0
VERTEX
  8
0
 10
466.597186
 20
404.886089
 42
-0.040916
  0
VERTEX
  8
0
 10
467.893457
 20
407.107503
 42
-0.012101
  0
VERTEX
  8
0
 10
470.228667
 20
410.282136
 42
-0.008929
  0
VERTEX
  8
0
 10
473.670079
 20
414.570453
 42
-0.003151
  0
VERTEX
  8
0
 10
478.750000
 20
420.596299
 42
0.000000
  0
VERTEX
  8
0
 10
485.000000
 20
427.915998
 42
0.000000
  0
VERTEX
  8
0
 10
485.000000
 20
697.457999
 42
0.000241
  0
VERTEX
  8
0
 10
484.942674
 20
816.505777
 42
0.000687
  0
VERTEX
  8
0
 10
484.749073
 20
899.364500
 42
0.000027
  0
VERTEX
  8
0
 10
484.496338
 20
966.505554
 42
0.413096
  0
VERTEX
  8
0
 10
484.000000
 20
967.000000
 42
-0.191087
  0
VERTEX
  8
0
 10
483.618118
 20
967.151477
 42
-0.088204
  0
VERTEX
  8
0
 10
483.293750
 20
967.587500
 42
-0.068025
  0
VERTEX
  8
0
 10
483.073693
 20
968.234582
 42
-0.048028
  0
VERTEX
  8
0
 10
483.000000
 20
969.000000
 42
-0.048028
  0
VERTEX
  8
0
 10
483.073693
 20
969.765418
 42
-0.068025
  0
VERTEX
  8
0
 10
483.293750
 20
970.412500
 42
-0.088204
  0
VERTEX
  8
0
 10
483.618118
 20
970.848523
 42
-0.191087
  0
VERTEX
  8
0
 10
484.000000
 20
971.000000
 42
0.413096
  0
VERTEX
  8
0
 10
484.496338
 20
971.494446
 42
0.000027
  0
VERTEX
  8
0
 10
484.749073
 20
1038.635500
 42
0.000687
  0
VERTEX
  8
0
 10
484.942674
 20
1121.494223
 42
0.000241
  0
VERTEX
  8
0
 10
485.000000
 20
1240.542001
 42
0.000000
  0
VERTEX
  8
0
 10
485.000000
 20
1510.084002
 42
0.000000
  0
VERTEX
  8
0
 10
478.750000
 20
1517.403701
 42
-0.003151
  0
VERTEX
  8
0
 10
473.670079
 20
1523.429547
 42
-0.008929
  0
VERTEX
  8
0
 10
470.228667
 20
1527.717864
 42
-0.012101
  0
VERTEX
  8
0
 10
467.893457
 20
1530.892497
 42
-0.040916
  0
VERTEX
  8
0
 10
466.597186
 20
1533.113911
 42
0.033960
  0
VERTEX
  8
0
 10
466.189277
 20
1533.835796
 42
0.041464
  0
VERTEX
  8
0
 10
465.710712
 20
1534.445961
 42
0.046361
  0
VERTEX
  8
0
 10
465.234635
 20
1534.872142
 42
0.160737
  0
VERTEX
  8
0
 10
464.847186
 20
1535.000000
 42
-0.172323
  0
VERTEX
  8
0
 10
464.523936
 20
1535.114816
 42
-0.093793
  0
VERTEX
  8
0
 10
464.248861
 20
1535.440625
 42
-0.074197
  0
VERTEX
  8
0
 10
464.062762
 20
1535.926173
 42
-0.054525
  0
VERTEX
  8
0
 10
464.000000
 20
1536.500000
 42
0.064853
  0
VERTEX
  8
0
 10
463.925306
 20
1537.073457
 42
0.082425
  0
VERTEX
  8
0
 10
463.706250
 20
1537.559375
 42
0.098894
  0
VERTEX
  8
0
 10
463.381354
 20
1537.884432
 42
0.148195
  0
VERTEX
  8
0
 10
463.000000
 20
1538.000000
 42
-0.148195
  0
VERTEX
  8
0
 10
462.618646
 20
1538.115568
 42
-0.098894
  0
VERTEX
  8
0
 10
462.293750
 20
1538.440625
 42
-0.082425
  0
VERTEX
  8
0
 10
462.074694
 20
1538.926543
 42
-0.064853
  0
VERTEX
  8
0
 10
462.000000
 20
1539.500000
 42
0.064853
  0
VERTEX
  8
0
 10
461.925306
 20
1540.073457
 42
0.082425
  0
VERTEX
  8
0
 10
461.706250
 20
1540.559375
 42
0.098894
  0
VERTEX
  8
0
 10
461.381354
 20
1540.884432
 42
0.148195
  0
VERTEX
  8
0
 10
461.000000
 20
1541.000000
 42
-0.148195
  0
VERTEX
  8
0
 10
460.618646
 20
1541.115568
 42
-0.098894
  0
VERTEX
  8
0
 10
460.293750
 20
1541.440625
 42
-0.082425
  0
VERTEX
  8
0
 10
460.074694
 20
1541.926543
 42
-0.064853
  0
VERTEX
  8
0
 10
460.000000
 20
1542.500000
 42
0.064853
  0
VERTEX
  8
0
 10
459.925306
 20
1543.073457
 42
0.082425
  0
VERTEX
  8
0
 10
459.706250
 20
1543.559375
 42
0.098894
  0
VERTEX
  8
0
 10
459.381354
 20
1543.884432
 42
0.148195
  0
VERTEX
  8
0
 10
459.000000
 20
1544.000000
 42
-0.148195
  0
VERTEX
  8
0
 10
458.618646
 20
1544.115568
 42
-0.098894
  0
VERTEX
  8
0
 10
458.293750
 20
1544.440625
 42
-0.082425
  0
VERTEX
  8
0
 10
458.074694
 20
1544.926543
 42
-0.064853
  0
VERTEX
  8
0
 10
458.000000
 20
1545.500000
 42
0.064853
  0
VERTEX
  8
0
 10
457.925306
 20
1546.073457
 42
0.082425
  0
VERTEX
  8
0
 10
457.706250
 20
1546.559375
 42
0.098894
  0
VERTEX
  8
0
 10
457.381354
 20
1546.884432
 42
0.148195
  0
VERTEX
  8
0
 10
457.000000
 20
1547.000000
 42
-0.148195
  0
VERTEX
  8
0
 10
456.618646
 20
1547.115568
 42
-0.098894
  0
VERTEX
  8
0
 10
456.293750
 20
1547.440625
 42
-0.082425
  0
VERTEX
  8
0
 10
456.074694
 20
1547.926543
 42
-0.064853
  0
VERTEX
  8
0
 10
456.000000
 20
1548.500000
 42
0.064853
  0
VERTEX
  8
0
 10
455.925306
 20
1549.073457
 42
0.082425
  0
VERTEX
  8
0
 10
455.706250
 20
1549.559375
 42
0.098894
  0
VERTEX
  8
0
 10
455.381354
 20
1549.884432
 42
0.148195
  0
VERTEX
  8
0
 10
455.000000
 20
1550.000000
 42
-0.148195
  0
VERTEX
  8
0
 10
454.618646
 20
1550.115568
 42
-0.098894
  0
VERTEX
  8
0
 10
454.293750
 20
1550.440625
 42
-0.082425
  0
VERTEX
  8
0
 10
454.074694
 20
1550.926543
 42
-0.064853
  0
VERTEX
  8
0
 10
454.000000
 20
1551.500000
 42
0.064853
  0
VERTEX
  8
0
 10
453.925306
 20
1552.073457
 42
0.082425
  0
VERTEX
  8
0
 10
453.706250
 20
1552.559375
 42
0.098894
  0
VERTEX
  8
0
 10
453.381354
 20
1552.884432
 42
0.148195
  0
VERTEX
  8
0
 10
453.000000
 20
1553.000000
 42
-0.148195
  0
VERTEX
  8
0
 10
452.618646
 20
1553.115568
 42
-0.098894
  0
VERTEX
  8
0
 10
452.293750
 20
1553.440625
 42
-0.082425
  0
VERTEX
  8
0
 10
452.074694
 20
1553.926543
 42
-0.064853
  0
VERTEX
  8
0
 10
452.000000
 20
1554.500000
 42
0.056643
  0
VERTEX
  8
0
 10
451.934793
 20
1555.073750
 42
0.076039
  0
VERTEX
  8
0
 10
451.741888
 20
1555.559375
 42
0.095179
  0
VERTEX
  8
0
 10
451.456528
 20
1555.884936
 42
0.166853
  0
VERTEX
  8
0
 10
451.121320
 20
1556.000000
 42
-0.210601
  0
VERTEX
  8
0
 10
450.703832
 20
1556.184008
 42
-0.032626
  0
VERTEX
  8
0
 10
450.125364
 20
1556.906269
 42
-0.031641
  0
VERTEX
  8
0
 10
449.518289
 20
1557.903566
 42
-0.022715
  0
VERTEX
  8
0
 10
448.964721
 20
1559.085171
 42
0.014641
  0
VERTEX
  8
0
 10
448.395201
 20
1560.353735
 42
0.013747
  0
VERTEX
  8
0
 10
447.741004
 20
1561.614169
 42
0.013860
  0
VERTEX
  8
0
 10
447.099399
 20
1562.699333
 42
0.045200
  0
VERTEX
  8
0
 10
446.593401
 20
1563.362158
 42
-0.029754
  0
VERTEX
  8
0
 10
445.172011
 20
1565.109589
 42
-0.009988
  0
VERTEX
  8
0
 10
443.305030
 20
1567.818717
 42
-0.010245
  0
VERTEX
  8
0
 10
441.464230
 20
1570.735757
 42
-0.017558
  0
VERTEX
  8
0
 10
440.066647
 20
1573.250000
 42
0.022334
  0
VERTEX
  8
0
 10
439.468013
 20
1574.303135
 42
0.030271
  0
VERTEX
  8
0
 10
438.830531
 20
1575.192188
 42
0.030769
  0
VERTEX
  8
0
 10
438.237359
 20
1575.836484
 42
0.193661
  0
VERTEX
  8
0
 10
437.831020
 20
1576.000000
 42
-0.175242
  0
VERTEX
  8
0
 10
437.513905
 20
1576.114665
 42
-0.093006
  0
VERTEX
  8
0
 10
437.244112
 20
1576.440625
 42
-0.073221
  0
VERTEX
  8
0
 10
437.061511
 20
1576.926133
 42
-0.053440
  0
VERTEX
  8
0
 10
437.000000
 20
1577.500000
 42
0.053440
  0
VERTEX
  8
0
 10
436.938489
 20
1578.073867
 42
0.073221
  0
VERTEX
  8
0
 10
436.755888
 20
1578.559375
 42
0.093006
  0
VERTEX
  8
0
 10
436.486095
 20
1578.885335
 42
0.175242
  0
VERTEX
  8
0
 10
436.168980
 20
1579.000000
 42
-0.193348
  0
VERTEX
  8
0
 10
435.762240
 20
1579.163392
 42
-0.030657
  0
VERTEX
  8
0
 10
435.167252
 20
1579.807812
 42
-0.030191
  0
VERTEX
  8
0
 10
434.527331
 20
1580.696866
 42
-0.022283
  0
VERTEX
  8
0
 10
433.925808
 20
1581.750000
 42
0.022277
  0
VERTEX
  8
0
 10
433.256847
 20
1582.921229
 42
0.016056
  0
VERTEX
  8
0
 10
432.412407
 20
1584.167268
 42
0.016269
  0
VERTEX
  8
0
 10
431.531017
 20
1585.302347
 42
0.033499
  0
VERTEX
  8
0
 10
430.756828
 20
1586.117295
 42
-0.032830
  0
VERTEX
  8
0
 10
430.084521
 20
1586.823106
 42
-0.033606
  0
VERTEX
  8
0
 10
429.516068
 20
1587.605595
 42
-0.035652
  0
VERTEX
  8
0
 10
429.119728
 20
1588.348999
 42
-0.105017
  0
VERTEX
  8
0
 10
429.000000
 20
1588.912750
 42
0.124224
  0
VERTEX
  8
0
 10
428.845883
 20
1589.523496
 42
0.025656
  0
VERTEX
  8
0
 10
428.265625
 20
1590.479200
 42
0.025505
  0
VERTEX
  8
0
 10
427.457036
 20
1591.547358
 42
0.021612
  0
VERTEX
  8
0
 10
426.500000
 20
1592.590909
 42
-0.016788
  0
VERTEX
  8
0
 10
425.542716
 20
1593.614727
 42
-0.021380
  0
VERTEX
  8
0
 10
424.734375
 20
1594.623580
 42
-0.019947
  0
VERTEX
  8
0
 10
424.140387
 20
1595.505250
 42
-0.139131
  0
VERTEX
  8
0
 10
424.000000
 20
1596.000000
 42
0.139131
  0
VERTEX
  8
0
 10
423.859613
 20
1596.494750
 42
0.019947
  0
VERTEX
  8
0
 10
423.265625
 20
1597.376420
 42
0.021380
  0
VERTEX
  8
0
 10
422.457284
 20
1598.385273
 42
0.016788
  0
VERTEX
  8
0
 10
421.500000
 20
1599.409091
 42
-0.013040
  0
VERTEX
  8
0
 10
420.542479
 20
1600.417904
 42
-0.017628
  0
VERTEX
  8
0
 10
419.734375
 20
1601.381247
 42
-0.014719
  0
VERTEX
  8
0
 10
419.124770
 20
1602.211567
 42
-0.152123
  0
VERTEX
  8
0
 10
419.000000
 20
1602.612174
 42
0.157842
  0
VERTEX
  8
0
 10
418.690334
 20
1603.568673
 42
0.002031
  0
VERTEX
  8
0
 10
414.913447
 20
1608.745927
 42
0.004966
  0
VERTEX
  8
0
 10
411.308864
 20
1613.544510
 42
0.043719
  0
VERTEX
  8
0
 10
409.517698
 20
1615.500000
 42
-0.034183
  0
VERTEX
  8
0
 10
408.947811
 20
1616.098866
 42
-0.007040
  0
VERTEX
  8
0
 10
408.032965
 20
1617.234375
 42
-0.007375
  0
VERTEX
  8
0
 10
407.006279
 20
1618.586713
 42
-0.006882
  0
VERTEX
  8
0
 10
405.995512
 20
1620.000000
 42
0.017837
  0
VERTEX
  8
0
 10
404.795098
 20
1621.603042
 42
0.008875
  0
VERTEX
  8
0
 10
403.167548
 20
1623.550407
 42
0.008797
  0
VERTEX
  8
0
 10
401.407908
 20
1625.510674
 42
0.012783
  0
VERTEX
  8
0
 10
399.782227
 20
1627.171599
 42
-0.013612
  0
VERTEX
  8
0
 10
398.333631
 20
1628.656518
 42
-0.018337
  0
VERTEX
  8
0
 10
397.111029
 20
1630.081447
 42
-0.015566
  0
VERTEX
  8
0
 10
396.191757
 20
1631.312713
 42
-0.153744
  0
VERTEX
  8
0
 10
396.000000
 20
1631.921599
 42
0.091591
  0
VERTEX
  8
0
 10
395.923949
 20
1632.333285
 42
0.095880
  0
VERTEX
  8
0
 10
395.706250
 20
1632.683220
 42
0.099487
  0
VERTEX
  8
0
 10
395.381532
 20
1632.917390
 42
0.107021
  0
VERTEX
  8
0
 10
395.000000
 20
1633.000000
 42
-0.101724
  0
VERTEX
  8
0
 10
394.618400
 20
1633.078448
 42
-0.098538
  0
VERTEX
  8
0
 10
394.293750
 20
1633.301480
 42
-0.097290
  0
VERTEX
  8
0
 10
394.076245
 20
1633.634594
 42
-0.096416
  0
VERTEX
  8
0
 10
394.000000
 20
1634.026316
 42
0.157226
  0
VERTEX
  8
0
 10
393.805801
 20
1634.628629
 42
0.011705
  0
VERTEX
  8
0
 10
392.751562
 20
1636.023482
 42
0.015322
  0
VERTEX
  8
0
 10
391.378010
 20
1637.650063
 42
0.011006
  0
VERTEX
  8
0
 10
389.750000
 20
1639.383969
 42
-0.006825
  0
VERTEX
  8
0
 10
387.881647
 20
1641.340810
 42
-0.004447
  0
VERTEX
  8
0
 10
385.775808
 20
1643.648358
 42
-0.004471
  0
VERTEX
  8
0
 10
383.761395
 20
1645.936378
 42
-0.008503
  0
VERTEX
  8
0
 10
382.188920
 20
1647.818735
 42
0.009391
  0
VERTEX
  8
0
 10
380.571347
 20
1649.748100
 42
0.004340
  0
VERTEX
  8
0
 10
378.399662
 20
1652.198446
 42
0.004297
  0
VERTEX
  8
0
 10
376.071915
 20
1654.735213
 42
0.005956
  0
VERTEX
  8
0
 10
373.938920
 20
1656.966128
 42
-0.004478
  0
VERTEX
  8
0
 10
372.045943
 20
1658.934319
 42
-0.006936
  0
VERTEX
  8
0
 10
370.450808
 20
1660.670463
 42
-0.002701
  0
VERTEX
  8
0
 10
369.118622
 20
1662.177712
 42
-0.181562
  0
VERTEX
  8
0
 10
369.000000
 20
1662.493616
 42
0.171454
  0
VERTEX
  8
0
 10
368.736259
 20
1663.240136
 42
0.007261
  0
VERTEX
  8
0
 10
366.915976
 20
1665.428937
 42
0.008928
  0
VERTEX
  8
0
 10
364.222670
 20
1668.462144
 42
0.002653
  0
VERTEX
  8
0
 10
360.000000
 20
1673.001480
 42
-0.002439
  0
VERTEX
  8
0
 10
357.602016
 20
1675.577082
 42
-0.001739
  0
VERTEX
  8
0
 10
354.940625
 20
1678.483923
 42
-0.001755
  0
VERTEX
  8
0
 10
352.421909
 20
1681.273820
 42
-0.003748
  0
VERTEX
  8
0
 10
350.500000
 20
1683.450346
 42
0.002123
  0
VERTEX
  8
0
 10
348.661553
 20
1685.546046
 42
0.001216
  0
VERTEX
  8
0
 10
346.426562
 20
1688.059720
 42
0.001215
  0
VERTEX
  8
0
 10
344.167131
 20
1690.576140
 42
0.002022
  0
VERTEX
  8
0
 10
342.250000
 20
1692.683725
 42
-0.007502
  0
VERTEX
  8
0
 10
340.621583
 20
1694.513814
 42
-0.010971
  0
VERTEX
  8
0
 10
339.248437
 20
1696.176850
 42
-0.006637
  0
VERTEX
  8
0
 10
338.155309
 20
1697.599985
 42
-0.161820
  0
VERTEX
  8
0
 10
338.000000
 20
1698.067298
 42
0.163949
  0
VERTEX
  8
0
 10
337.843310
 20
1698.532315
 42
0.006859
  0
VERTEX
  8
0
 10
336.751562
 20
1699.928233
 42
0.011228
  0
VERTEX
  8
0
 10
335.378412
 20
1701.558811
 42
0.007681
  0
VERTEX
  8
0
 10
333.750000
 20
1703.350400
 42
-0.001616
  0
VERTEX
  8
0
 10
327.619964
 20
1709.932501
 42
-0.007942
  0
VERTEX
  8
0
 10
324.231313
 20
1713.713443
 42
-0.013607
  0
VERTEX
  8
0
 10
322.148839
 20
1716.248777
 42
-0.042284
  0
VERTEX
  8
0
 10
320.945182
 20
1718.102427
 42
0.033515
  0
VERTEX
  8
0
 10
320.282157
 20
1719.163736
 42
0.011759
  0
VERTEX
  8
0
 10
319.195340
 20
1720.596573
 42
0.011615
  0
VERTEX
  8
0
 10
317.922571
 20
1722.121002
 42
0.013332
  0
VERTEX
  8
0
 10
316.635926
 20
1723.514466
 42
-0.009859
  0
VERTEX
  8
0
 10
315.289088
 20
1724.952950
 42
-0.006998
  0
VERTEX
  8
0
 10
313.833678
 20
1726.616397
 42
-0.007067
  0
VERTEX
  8
0
 10
312.488362
 20
1728.244217
 42
-0.014865
  0
VERTEX
  8
0
 10
311.500000
 20
1729.553016
 42
0.006053
  0
VERTEX
  8
0
 10
310.554872
 20
1730.851525
 42
0.003203
  0
VERTEX
  8
0
 10
309.353125
 20
1732.439946
 42
0.003186
  0
VERTEX
  8
0
 10
308.102775
 20
1734.049443
 42
0.004925
  0
VERTEX
  8
0
 10
307.000000
 20
1735.422413
 42
-0.000952
  0
VERTEX
  8
0
 10
305.932942
 20
1736.729506
 42
-0.000773
  0
VERTEX
  8
0
 10
304.793750
 20
1738.134829
 42
-0.000781
  0
VERTEX
  8
0
 10
303.747744
 20
1739.433421
 42
-0.002030
  0
VERTEX
  8
0
 10
303.000000
 20
1740.372486
 42
0.015371
  0
VERTEX
  8
0
 10
302.153754
 20
1741.378943
 42
0.003724
  0
VERTEX
  8
0
 10
300.692188
 20
1742.988245
 42
0.003817
  0
VERTEX
  8
0
 10
298.987109
 20
1744.809705
 42
0.003787
  0
VERTEX
  8
0
 10
297.250000
 20
1746.609714
 42
-0.010803
  0
VERTEX
  8
0
 10
295.621966
 20
1748.344771
 42
-0.015086
  0
VERTEX
  8
0
 10
294.248438
 20
1749.969505
 42
-0.011404
  0
VERTEX
  8
0
 10
293.192195
 20
1751.362296
 42
-0.157797
  0
VERTEX
  8
0
 10
293.000000
 20
1751.956125
 42
0.159206
  0
VERTEX
  8
0
 10
292.802888
 20
1752.559483
 42
0.009969
  0
VERTEX
  8
0
 10
291.651839
 20
1754.069030
 42
0.013912
  0
VERTEX
  8
0
 10
290.168710
 20
1755.832644
 42
0.009831
  0
VERTEX
  8
0
 10
288.410514
 20
1757.732441
 42
-0.010621
  0
VERTEX
  8
0
 10
286.557418
 20
1759.741134
 42
-0.010506
  0
VERTEX
  8
0
 10
284.784383
 20
1761.833904
 42
-0.010418
  0
VERTEX
  8
0
 10
283.310331
 20
1763.729157
 42
-0.039406
  0
VERTEX
  8
0
 10
282.511047
 20
1765.000000
 42
0.034279
  0
VERTEX
  8
0
 10
281.808036
 20
1766.143589
 42
0.015815
  0
VERTEX
  8
0
 10
280.748528
 20
1767.533414
 42
0.015580
  0
VERTEX
  8
0
 10
279.537887
 20
1768.930188
 42
0.020856
  0
VERTEX
  8
0
 10
278.350532
 20
1770.113751
 42
-0.014592
  0
VERTEX
  8
0
 10
276.017361
 20
1772.381933
 42
-0.017070
  0
VERTEX
  8
0
 10
273.943891
 20
1774.670159
 42
-0.012823
  0
VERTEX
  8
0
 10
272.308550
 20
1776.707319
 42
-0.164144
  0
VERTEX
  8
0
 10
272.000000
 20
1777.621871
 42
0.199605
  0
VERTEX
  8
0
 10
271.668693
 20
1778.418714
 42
0.000074
  0
VERTEX
  8
0
 10
248.804307
 20
1801.154871
 42
0.000337
  0
VERTEX
  8
0
 10
226.930771
 20
1822.869987
 42
0.038248
  0
VERTEX
  8
0
 10
223.837495
 20
1825.500000
 42
-0.013108
  0
VERTEX
  8
0
 10
223.064496
 20
1826.093005
 42
-0.002394
  0
VERTEX
  8
0
 10
221.668516
 20
1827.234375
 42
-0.002574
  0
VERTEX
  8
0
 10
220.047660
 20
1828.586695
 42
-0.002335
  0
VERTEX
  8
0
 10
218.387125
 20
1830.000000
 42
0.002487
  0
VERTEX
  8
0
 10
214.141951
 20
1833.610909
 42
0.012070
  0
VERTEX
  8
0
 10
211.675159
 20
1835.588326
 42
0.016611
  0
VERTEX
  8
0
 10
210.044553
 20
1836.748415
 42
0.147339
  0
VERTEX
  8
0
 10
209.209328
 20
1837.000000
 42
-0.155219
  0
VERTEX
  8
0
 10
208.823126
 20
1837.122852
 42
-0.029946
  0
VERTEX
  8
0
 10
208.243617
 20
1837.587500
 42
-0.029286
  0
VERTEX
  8
0
 10
207.608197
 20
1838.234288
 42
-0.023368
  0
VERTEX
  8
0
 10
207.000000
 20
1839.000000
 42
0.038332
  0
VERTEX
  8
0
 10
206.353917
 20
1839.765268
 42
0.039803
  0
VERTEX
  8
0
 10
205.606151
 20
1840.412500
 42
0.043072
  0
VERTEX
  8
0
 10
204.871239
 20
1840.860855
 42
0.115942
  0
VERTEX
  8
0
 10
204.279241
 20
1841.000000
 42
-0.076630
  0
VERTEX
  8
0
 10
203.790518
 20
1841.075344
 42
-0.089631
  0
VERTEX
  8
0
 10
203.375777
 20
1841.293750
 42
-0.100760
  0
VERTEX
  8
0
 10
203.098521
 20
1841.618634
 42
-0.127083
  0
VERTEX
  8
0
 10
203.000000
 20
1842.000000
 42
0.127083
  0
VERTEX
  8
0
 10
202.901479
 20
1842.381366
 42
0.100760
  0
VERTEX
  8
0
 10
202.624223
 20
1842.706250
 42
0.089631
  0
VERTEX
  8
0
 10
202.209482
 20
1842.924656
 42
0.076630
  0
VERTEX
  8
0
 10
201.720759
 20
1843.000000
 42
-0.115942
  0
VERTEX
  8
0
 10
201.128761
 20
1843.139145
 42
-0.043072
  0
VERTEX
  8
0
 10
200.393849
 20
1843.587500
 42
-0.039803
  0
VERTEX
  8
0
 10
199.646083
 20
1844.234732
 42
-0.038332
  0
VERTEX
  8
0
 10
199.000000
 20
1845.000000
 42
0.032893
  0
VERTEX
  8
0
 10
198.367927
 20
1845.765394
 42
0.036577
  0
VERTEX
  8
0
 10
197.661541
 20
1846.412500
 42
0.039468
  0
VERTEX
  8
0
 10
196.985296
 20
1846.864904
 42
0.128378
  0
VERTEX
  8
0
 10
196.467802
 20
1847.000000
 42
-0.110865
  0
VERTEX
  8
0
 10
195.912149
 20
1847.124738
 42
-0.027063
  0
VERTEX
  8
0
 10
195.081318
 20
1847.574070
 42
-0.026410
  0
VERTEX
  8
0
 10
194.162587
 20
1848.206245
 42
-0.023636
  0
VERTEX
  8
0
 10
193.279447
 20
1848.954282
 42
0.031311
  0
VERTEX
  8
0
 10
191.381394
 20
1850.512608
 42
0.006141
  0
VERTEX
  8
0
 10
187.767192
 20
1853.052326
 42
0.006022
  0
VERTEX
  8
0
 10
183.203957
 20
1856.095862
 42
0.003974
  0
VERTEX
  8
0
 10
177.888902
 20
1859.489312
 42
0.011296
  0
VERTEX
  8
0
 10
176.949748
 20
1860.049312
 42
0.002017
  0
VERTEX
  8
0
 10
175.168075
 20
1861.048378
 42
0.002178
  0
VERTEX
  8
0
 10
173.070193
 20
1862.201728
 42
0.001964
  0
VERTEX
  8
0
 10
170.888902
 20
1863.377506
 42
-0.009320
  0
VERTEX
  8
0
 10
168.800252
 20
1864.543319
 42
-0.013098
  0
VERTEX
  8
0
 10
166.985073
 20
1865.666039
 42
-0.009339
  0
VERTEX
  8
0
 10
165.529298
 20
1866.659419
 42
-0.148167
  0
VERTEX
  8
0
 10
165.166667
 20
1867.127506
 42
0.152731
  0
VERTEX
  8
0
 10
164.902460
 20
1867.462329
 42
0.057488
  0
VERTEX
  8
0
 10
164.368229
 20
1867.743705
 42
0.050093
  0
VERTEX
  8
0
 10
163.674665
 20
1867.935521
 42
0.042456
  0
VERTEX
  8
0
 10
162.916667
 20
1868.000000
 42
-0.050201
  0
VERTEX
  8
0
 10
162.183242
 20
1868.073823
 42
-0.070178
  0
VERTEX
  8
0
 10
161.563021
 20
1868.293750
 42
-0.090315
  0
VERTEX
  8
0
 10
161.145793
 20
1868.618250
 42
-0.184457
  0
VERTEX
  8
0
 10
161.000000
 20
1869.000000
 42
0.191087
  0
VERTEX
  8
0
 10
160.848523
 20
1869.381882
 42
0.088204
  0
VERTEX
  8
0
 10
160.412500
 20
1869.706250
 42
0.068025
  0
VERTEX
  8
0
 10
159.765418
 20
1869.926307
 42
0.048028
  0
VERTEX
  8
0
 10
159.000000
 20
1870.000000
 42
-0.048028
  0
VERTEX
  8
0
 10
158.234582
 20
1870.073693
 42
-0.068025
  0
VERTEX
  8
0
 10
157.587500
 20
1870.293750
 42
-0.088204
  0
VERTEX
  8
0
 10
157.151477
 20
1870.618118
 42
-0.191087
  0
VERTEX
  8
0
 10
157.000000
 20
1871.000000
 42
0.148195
  0
VERTEX
  8
0
 10
156.884432
 20
1871.381354
 42
0.098894
  0
VERTEX
  8
0
 10
156.559375
 20
1871.706250
 42
0.082425
  0
VERTEX
  8
0
 10
156.073457
 20
1871.925306
 42
0.064853
  0
VERTEX
  8
0
 10
155.500000
 20
1872.000000
 42
-0.064853
  0
VERTEX
  8
0
 10
154.926543
 20
1872.074694
 42
-0.082425
  0
VERTEX
  8
0
 10
154.440625
 20
1872.293750
 42
-0.098894
  0
VERTEX
  8
0
 10
154.115568
 20
1872.618646
 42
-0.148195
  0
VERTEX
  8
0
 10
154.000000
 20
1873.000000
 42
0.226478
  0
VERTEX
  8
0
 10
153.817169
 20
1873.382936
 42
0.074992
  0
VERTEX
  8
0
 10
153.265625
 20
1873.706250
 42
0.057076
  0
VERTEX
  8
0
 10
152.457356
 20
1873.926884
 42
0.038131
  0
VERTEX
  8
0
 10
151.500000
 20
1874.000000
 42
-0.038131
  0
VERTEX
  8
0
 10
150.542644
 20
1874.073116
 42
-0.057076
  0
VERTEX
  8
0
 10
149.734375
 20
1874.293750
 42
-0.074992
  0
VERTEX
  8
0
 10
149.182831
 20
1874.617064
 42
-0.226478
  0
VERTEX
  8
0
 10
149.000000
 20
1875.000000
 42
0.148195
  0
VERTEX
  8
0
 10
148.884432
 20
1875.381354
 42
0.098894
  0
VERTEX
  8
0
 10
148.559375
 20
1875.706250
 42
0.082425
  0
VERTEX
  8
0
 10
148.073457
 20
1875.925306
 42
0.064853
  0
VERTEX
  8
0
 10
147.500000
 20
1876.000000
 42
-0.064853
  0
VERTEX
  8
0
 10
146.926543
 20
1876.074694
 42
-0.082425
  0
VERTEX
  8
0
 10
146.440625
 20
1876.293750
 42
-0.098894
  0
VERTEX
  8
0
 10
146.115568
 20
1876.618646
 42
-0.148195
  0
VERTEX
  8
0
 10
146.000000
 20
1877.000000
 42
0.222681
  0
VERTEX
  8
0
 10
145.820624
 20
1877.382793
 42
0.076538
  0
VERTEX
  8
0
 10
145.282961
 20
1877.706250
 42
0.058208
  0
VERTEX
  8
0
 10
144.493720
 20
1877.926830
 42
0.039081
  0
VERTEX
  8
0
 10
143.559017
 20
1878.000000
 42
-0.037634
  0
VERTEX
  8
0
 10
142.579340
 20
1878.073842
 42
-0.041396
  0
VERTEX
  8
0
 10
141.653525
 20
1878.293750
 42
-0.045439
  0
VERTEX
  8
0
 10
140.906663
 20
1878.615492
 42
-0.130646
  0
VERTEX
  8
0
 10
140.500000
 20
1879.000000
 42
0.111412
  0
VERTEX
  8
0
 10
140.123976
 20
1879.383556
 42
0.050262
  0
VERTEX
  8
0
 10
139.493350
 20
1879.706250
 42
0.046318
  0
VERTEX
  8
0
 10
138.729296
 20
1879.925923
 42
0.046881
  0
VERTEX
  8
0
 10
137.940983
 20
1880.000000
 42
-0.049547
  0
VERTEX
  8
0
 10
137.198222
 20
1880.073784
 42
-0.069539
  0
VERTEX
  8
0
 10
136.570164
 20
1880.293750
 42
-0.089706
  0
VERTEX
  8
0
 10
136.147465
 20
1880.618213
 42
-0.186414
  0
VERTEX
  8
0
 10
136.000000
 20
1881.000000
 42
0.186414
  0
VERTEX
  8
0
 10
135.852535
 20
1881.381787
 42
0.089706
  0
VERTEX
  8
0
 10
135.429836
 20
1881.706250
 42
0.069539
  0
VERTEX
  8
0
 10
134.801778
 20
1881.926216
 42
0.049547
  0
VERTEX
  8
0
 10
134.059017
 20
1882.000000
 42
-0.046881
  0
VERTEX
  8
0
 10
133.270704
 20
1882.074077
 42
-0.046318
  0
VERTEX
  8
0
 10
132.506650
 20
1882.293750
 42
-0.050262
  0
VERTEX
  8
0
 10
131.876024
 20
1882.616444
 42
-0.111412
  0
VERTEX
  8
0
 10
131.500000
 20
1883.000000
 42
0.127689
  0
VERTEX
  8
0
 10
131.098224
 20
1883.384338
 42
0.046287
  0
VERTEX
  8
0
 10
130.370954
 20
1883.706250
 42
0.042177
  0
VERTEX
  8
0
 10
129.472092
 20
1883.926118
 42
0.038918
  0
VERTEX
  8
0
 10
128.524316
 20
1884.000000
 42
-0.030071
  0
VERTEX
  8
0
 10
127.597270
 20
1884.055805
 42
-0.038805
  0
VERTEX
  8
0
 10
126.761310
 20
1884.223367
 42
-0.043021
  0
VERTEX
  8
0
 10
126.116918
 20
1884.466935
 42
-0.179462
  0
VERTEX
  8
0
 10
125.833333
 20
1884.760398
 42
0.211263
  0
VERTEX
  8
0
 10
124.602074
 20
1885.887485
 42
0.001571
  0
VERTEX
  8
0
 10
111.244019
 20
1890.339547
 42
0.003380
  0
VERTEX
  8
0
 10
98.522754
 20
1894.439857
 42
0.077473
  0
VERTEX
  8
0
 10
94.750000
 20
1895.011628
 42
-0.034579
  0
VERTEX
  8
0
 10
93.696681
 20
1895.080086
 42
-0.052799
  0
VERTEX
  8
0
 10
92.807812
 20
1895.297166
 42
-0.068935
  0
VERTEX
  8
0
 10
92.196933
 20
1895.617282
 42
-0.242191
  0
VERTEX
  8
0
 10
92.000000
 20
1896.000000
 42
0.275259
  0
VERTEX
  8
0
 10
91.770364
 20
1896.385522
 42
0.053437
  0
VERTEX
  8
0
 10
90.989211
 20
1896.706250
 42
0.043243
  0
VERTEX
  8
0
 10
89.877484
 20
1896.927436
 42
0.027497
  0
VERTEX
  8
0
 10
88.559017
 20
1897.000000
 42
-0.026918
  0
VERTEX
  8
0
 10
87.196361
 20
1897.073414
 42
-0.033489
  0
VERTEX
  8
0
 10
85.947275
 20
1897.293750
 42
-0.035556
  0
VERTEX
  8
0
 10
84.958660
 20
1897.613307
 42
-0.159713
  0
VERTEX
  8
0
 10
84.500000
 20
1898.000000
 42
0.144823
  0
VERTEX
  8
0
 10
84.068924
 20
1898.385448
 42
0.040930
  0
VERTEX
  8
0
 10
83.216936
 20
1898.706250
 42
0.037579
  0
VERTEX
  8
0
 10
82.148530
 20
1898.926362
 42
0.032024
  0
VERTEX
  8
0
 10
81.000000
 20
1899.000000
 42
-0.028711
  0
VERTEX
  8
0
 10
79.856191
 20
1899.065733
 42
-0.034995
  0
VERTEX
  8
0
 10
78.802241
 20
1899.262720
 42
-0.037589
  0
VERTEX
  8
0
 10
77.966231
 20
1899.548960
 42
-0.154257
  0
VERTEX
  8
0
 10
77.565285
 20
1899.894367
 42
0.183942
  0
VERTEX
  8
0
 10
76.763450
 20
1900.508245
 42
0.021698
  0
VERTEX
  8
0
 10
74.545865
 20
1901.065519
 42
0.014641
  0
VERTEX
  8
0
 10
70.904818
 20
1901.703770
 42
0.002795
  0
VERTEX
  8
0
 10
64.250000
 20
1902.632484
 42
-0.019538
  0
VERTEX
  8
0
 10
62.621338
 20
1902.915644
 42
-0.030363
  0
VERTEX
  8
0
 10
61.248437
 20
1903.298443
 42
-0.030669
  0
VERTEX
  8
0
 10
60.238615
 20
1903.718200
 42
-0.286345
  0
VERTEX
  8
0
 10
60.000000
 20
1904.100694
 42
0.322520
  0
VERTEX
  8
0
 10
59.747613
 20
1904.451268
 42
0.031410
  0
VERTEX
  8
0
 10
58.678125
 20
1904.735829
 42
0.030508
  0
VERTEX
  8
0
 10
57.224900
 20
1904.935066
 42
0.018816
  0
VERTEX
  8
0
 10
55.500000
 20
1905.000000
 42
-0.020945
  0
VERTEX
  8
0
 10
53.775243
 20
1905.072283
 42
-0.033738
  0
VERTEX
  8
0
 10
52.321875
 20
1905.293750
 42
-0.036969
  0
VERTEX
  8
0
 10
51.267028
 20
1905.611488
 42
-0.310520
  0
VERTEX
  8
0
 10
51.000000
 20
1906.000000
 42
0.295869
  0
VERTEX
  8
0
 10
50.748945
 20
1906.387127
 42
0.043820
  0
VERTEX
  8
0
 10
49.825000
 20
1906.706250
 42
0.037669
  0
VERTEX
  8
0
 10
48.532944
 20
1906.927610
 42
0.023598
  0
VERTEX
  8
0
 10
47.000000
 20
1907.000000
 42
-0.023598
  0
VERTEX
  8
0
 10
45.467056
 20
1907.072390
 42
-0.037669
  0
VERTEX
  8
0
 10
44.175000
 20
1907.293750
 42
-0.043820
  0
VERTEX
  8
0
 10
43.251055
 20
1907.612873
 42
-0.295869
  0
VERTEX
  8
0
 10
43.000000
 20
1908.000000
 42
0.322437
  0
VERTEX
  8
0
 10
42.719449
 20
1908.389817
 42
0.031449
  0
VERTEX
  8
0
 10
41.531250
 20
1908.706250
 42
0.030530
  0
VERTEX
  8
0
 10
39.916554
 20
1908.927795
 42
0.018830
  0
VERTEX
  8
0
 10
38.000000
 20
1909.000000
 42
-0.018830
  0
VERTEX
  8
0
 10
36.083446
 20
1909.072205
 42
-0.030530
  0
VERTEX
  8
0
 10
34.468750
 20
1909.293750
 42
-0.031449
  0
VERTEX
  8
0
 10
33.280551
 20
1909.610183
 42
-0.322437
  0
VERTEX
  8
0
 10
33.000000
 20
1910.000000
 42
0.322437
  0
VERTEX
  8
0
 10
32.719449
 20
1910.389817
 42
0.031449
  0
VERTEX
  8
0
 10
31.531250
 20
1910.706250
 42
0.030530
  0
VERTEX
  8
0
 10
29.916554
 20
1910.927795
 42
0.018830
  0
VERTEX
  8
0
 10
28.000000
 20
1911.000000
 42
-0.018830
  0
VERTEX
  8
0
 10
26.083446
 20
1911.072205
 42
-0.030530
  0
VERTEX
  8
0
 10
24.468750
 20
1911.293750
 42
-0.031449
  0
VERTEX
  8
0
 10
23.280551
 20
1911.610183
 42
-0.322437
  0
VERTEX
  8
0
 10
23.000000
 20
1912.000000
 42
0.377473
  0
VERTEX
  8
0
 10
22.617971
 20
1912.433932
 42
0.010078
  0
VERTEX
  8
0
 10
19.875000
 20
1912.728261
 42
0.014876
  0
VERTEX
  8
0
 10
16.244636
 20
1912.935375
 42
0.006810
  0
VERTEX
  8
0
 10
11.500000
 20
1913.000000
 42
0.000000
  0
VERTEX
  8
0
 10
0.000000
 20
1913.000000
 42
0.000000
  0
SEQEND
  0
POLYLINE
  8
0
 66
1
 70
1
  0
VERTEX
  8
0
 10
165.000000
 20
1625.000000
 42
0.251914
  0
VERTEX
  8
0
 10
165.206632
 20
1624.615903
 42
0.064068
  0
VERTEX
  8
0
 10
165.863914
 20
1624.293750
 42
0.049716
  0
VERTEX
  8
0
 10
166.814380
 20
1624.072800
 42
0.032276
  0
VERTEX
  8
0
 10
167.940983
 20
1624.000000
 42
-0.031397
  0
VERTEX
  8
0
 10
169.112115
 20
1623.926388
 42
-0.037109
  0
VERTEX
  8
0
 10
170.199600
 20
1623.706250
 42
-0.040338
  0
VERTEX
  8
0
 10
171.065839
 20
1623.385578
 42
-0.146547
  0
VERTEX
  8
0
 10
171.500000
 20
1623.000000
 42
0.111412
  0
VERTEX
  8
0
 10
171.876024
 20
1622.616444
 42
0.050262
  0
VERTEX
  8
0
 10
172.506650
 20
1622.293750
 42
0.046318
  0
VERTEX
  8
0
 10
173.270704
 20
1622.074077
 42
0.046881
  0
VERTEX
  8
0
 10
174.059017
 20
1622.000000
 42
-0.049547
  0
VERTEX
  8
0
 10
174.801778
 20
1621.926216
 42
-0.069539
  0
VERTEX
  8
0
 10
175.429836
 20
1621.706250
 42
-0.089706
  0
VERTEX
  8
0
 10
175.852535
 20
1621.381787
 42
-0.186414
  0
VERTEX
  8
0
 10
176.000000
 20
1621.000000
 42
0.148195
  0
VERTEX
  8
0
 10
176.115568
 20
1620.618646
 42
0.098894
  0
VERTEX
  8
0
 10
176.440625
 20
1620.293750
 42
0.082425
  0
VERTEX
  8
0
 10
176.926543
 20
1620.074694
 42
0.064853
  0
VERTEX
  8
0
 10
177.500000
 20
1620.000000
 42
-0.064853
  0
VERTEX
  8
0
 10
178.073457
 20
1619.925306
 42
-0.082425
  0
VERTEX
  8
0
 10
178.559375
 20
1619.706250
 42
-0.098894
  0
VERTEX
  8
0
 10
178.884432
 20
1619.381354
 42
-0.148195
  0
VERTEX
  8
0
 10
179.000000
 20
1619.000000
 42
0.148195
  0
VERTEX
  8
0
 10
179.115568
 20
1618.618646
 42
0.098894
  0
VERTEX
  8
0
 10
179.440625
 20
1618.293750
 42
0.082425
  0
VERTEX
  8
0
 10
179.926543
 20
1618.074694
 42
0.064853
  0
VERTEX
  8
0
 10
180.500000
 20
1618.000000
 42
-0.060283
  0
VERTEX
  8
0
 10
181.073619
 20
1617.930588
 42
-0.079016
  0
VERTEX
  8
0
 10
181.559375
 20
1617.726045
 42
-0.097128
  0
VERTEX
  8
0
 10
181.884635
 20
1617.423094
 42
-0.158110
  0
VERTEX
  8
0
 10
182.000000
 20
1617.067388
 42
0.157403
  0
VERTEX
  8
0
 10
182.128607
 20
1616.668982
 42
0.062148
  0
VERTEX
  8
0
 10
182.525271
 20
1616.242016
 42
0.053356
  0
VERTEX
  8
0
 10
183.103989
 20
1615.853336
 42
0.044400
  0
VERTEX
  8
0
 10
183.788158
 20
1615.567236
 42
-0.099402
  0
VERTEX
  8
0
 10
185.790385
 20
1614.459115
 42
-0.007136
  0
VERTEX
  8
0
 10
190.594013
 20
1610.263747
 42
-0.004445
  0
VERTEX
  8
0
 10
195.474817
 20
1605.797546
 42
-0.208139
  0
VERTEX
  8
0
 10
196.000000
 20
1604.590584
 42
0.184122
  0
VERTEX
  8
0
 10
196.156449
 20
1604.180135
 42
0.002150
  0
VERTEX
  8
0
 10
198.129687
 20
1601.986833
 42
0.006176
  0
VERTEX
  8
0
 10
200.471093
 20
1599.469881
 42
0.003951
  0
VERTEX
  8
0
 10
203.250000
 20
1596.601380
 42
-0.004179
  0
VERTEX
  8
0
 10
206.189355
 20
1593.564490
 42
-0.004404
  0
VERTEX
  8
0
 10
209.026137
 20
1590.531072
 42
-0.004218
  0
VERTEX
  8
0
 10
211.426751
 20
1587.873652
 42
-0.019773
  0
VERTEX
  8
0
 10
212.732595
 20
1586.280756
 42
0.021461
  0
VERTEX
  8
0
 10
214.111138
 20
1584.610705
 42
0.003454
  0
VERTEX
  8
0
 10
216.958227
 20
1581.491945
 42
0.003812
  0
VERTEX
  8
0
 10
220.366517
 20
1577.865688
 42
0.003339
  0
VERTEX
  8
0
 10
223.982595
 20
1574.126957
 42
-0.005060
  0
VERTEX
  8
0
 10
227.438573
 20
1570.529049
 42
-0.007764
  0
VERTEX
  8
0
 10
230.351137
 20
1567.336902
 42
-0.003357
  0
VERTEX
  8
0
 10
232.760781
 20
1564.575015
 42
-0.179563
  0
VERTEX
  8
0
 10
233.000000
 20
1563.930376
 42
0.147137
  0
VERTEX
  8
0
 10
233.168742
 20
1563.369373
 42
0.016170
  0
VERTEX
  8
0
 10
233.954688
 20
1562.260730
 42
0.018643
  0
VERTEX
  8
0
 10
235.005321
 20
1560.978145
 42
0.014046
  0
VERTEX
  8
0
 10
236.250000
 20
1559.646578
 42
-0.052413
  0
VERTEX
  8
0
 10
238.682902
 20
1556.607348
 42
-0.013659
  0
VERTEX
  8
0
 10
241.919813
 20
1551.243915
 42
-0.014524
  0
VERTEX
  8
0
 10
245.002106
 20
1545.418119
 42
-0.026934
  0
VERTEX
  8
0
 10
247.103148
 20
1540.500000
 42
-0.034237
  0
VERTEX
  8
0
 10
248.860388
 20
1534.421845
 42
-0.034716
  0
VERTEX
  8
0
 10
249.761532
 20
1528.188887
 42
-0.035520
  0
VERTEX
  8
0
 10
249.781029
 20
1522.035025
 42
-0.040140
  0
VERTEX
  8
0
 10
248.909542
 20
1516.192820
 42
-0.036714
  0
VERTEX
  8
0
 10
247.231789
 20
1510.801764
 42
-0.017282
  0
VERTEX
  8
0
 10
244.324581
 20
1504.106713
 42
-0.016813
  0
VERTEX
  8
0
 10
241.060287
 20
1497.803523
 42
-0.052008
  0
VERTEX
  8
0
 10
238.296391
 20
1493.894074
 42
-0.010525
  0
VERTEX
  8
0
 10
233.903514
 20
1489.086603
 42
-0.008164
  0
VERTEX
  8
0
 10
228.929064
 20
1484.035392
 42
-0.007633
  0
VERTEX
  8
0
 10
224.279582
 20
1479.603330
 42
-0.032928
  0
VERTEX
  8
0
 10
221.312541
 20
1477.202215
 42
0.039253
  0
VERTEX
  8
0
 10
216.592513
 20
1473.282767
 42
0.003209
  0
VERTEX
  8
0
 10
205.155213
 20
1462.016136
 42
0.003211
  0
VERTEX
  8
0
 10
193.864026
 20
1450.604105
 42
0.039212
  0
VERTEX
  8
0
 10
189.931049
 20
1445.889633
 42
-0.015640
  0
VERTEX
  8
0
 10
188.727361
 20
1444.300213
 42
-0.007041
  0
VERTEX
  8
0
 10
187.054254
 20
1442.287516
 42
-0.006962
  0
VERTEX
  8
0
 10
185.226077
 20
1440.209513
 42
-0.009427
  0
VERTEX
  8
0
 10
183.513527
 20
1438.387018
 42
0.007491
  0
VERTEX
  8
0
 10
181.834855
 20
1436.614381
 42
0.006310
  0
VERTEX
  8
0
 10
180.109792
 20
1434.688994
 42
0.006373
  0
VERTEX
  8
0
 10
178.579889
 20
1432.891714
 42
0.017516
  0
VERTEX
  8
0
 10
177.562362
 20
1431.573679
 42
-0.004761
  0
VERTEX
  8
0
 10
176.706330
 20
1430.404355
 42
-0.003486
  0
VERTEX
  8
0
 10
175.734961
 20
1429.122394
 42
-0.003523
  0
VERTEX
  8
0
 10
174.797896
 20
1427.921069
 42
-0.007791
  0
VERTEX
  8
0
 10
174.062362
 20
1427.020871
 42
0.001349
  0
VERTEX
  8
0
 10
171.263169
 20
1423.683716
 42
0.009159
  0
VERTEX
  8
0
 10
169.914659
 20
1422.005648
 42
0.013396
  0
VERTEX
  8
0
 10
169.150453
 20
1420.961535
 42
0.152424
  0
VERTEX
  8
0
 10
169.000000
 20
1420.479467
 42
-0.167567
  0
VERTEX
  8
0
 10
168.893121
 20
1420.169507
 42
-0.006408
  0
VERTEX
  8
0
 10
168.118750
 20
1419.205844
 42
-0.010869
  0
VERTEX
  8
0
 10
167.149511
 20
1418.081544
 42
-0.007381
  0
VERTEX
  8
0
 10
166.000000
 20
1416.842584
 42
0.016599
  0
VERTEX
  8
0
 10
164.851283
 20
1415.557770
 42
0.020978
  0
VERTEX
  8
0
 10
163.881250
 20
1414.293306
 42
0.019584
  0
VERTEX
  8
0
 10
163.168959
 20
1413.190003
 42
0.134328
  0
VERTEX
  8
0
 10
163.000000
 20
1412.572445
 42
-0.125545
  0
VERTEX
  8
0
 10
162.863901
 20
1412.038954
 42
-0.040344
  0
VERTEX
  8
0
 10
162.412500
 20
1411.350282
 42
-0.037324
  0
VERTEX
  8
0
 10
161.765363
 20
1410.635061
 42
-0.034062
  0
VERTEX
  8
0
 10
161.000000
 20
1410.000000
 42
0.042098
  0
VERTEX
  8
0
 10
160.234793
 20
1409.344051
 42
0.041686
  0
VERTEX
  8
0
 10
159.587500
 20
1408.567169
 42
0.044932
  0
VERTEX
  8
0
 10
159.141194
 20
1407.790435
 42
0.108353
  0
VERTEX
  8
0
 10
159.000000
 20
1407.146536
 42
-0.093701
  0
VERTEX
  8
0
 10
158.876012
 20
1406.490731
 42
-0.038686
  0
VERTEX
  8
0
 10
158.480562
 20
1405.674269
 42
-0.036536
  0
VERTEX
  8
0
 10
157.908345
 20
1404.840406
 42
-0.038897
  0
VERTEX
  8
0
 10
157.231700
 20
1404.117295
 42
0.032610
  0
VERTEX
  8
0
 10
156.224726
 20
1403.067902
 42
0.004141
  0
VERTEX
  8
0
 10
154.225714
 20
1400.652215
 42
0.004841
  0
VERTEX
  8
0
 10
151.901567
 20
1397.738616
 42
0.004009
  0
VERTEX
  8
0
 10
149.481700
 20
1394.592373
 42
-0.020272
  0
VERTEX
  8
0
 10
143.604318
 20
1387.444313
 42
-0.009113
  0
VERTEX
  8
0
 10
135.346463
 20
1378.525123
 42
-0.006643
  0
VERTEX
  8
0
 10
127.101177
 20
1370.164088
 42
-0.066454
  0
VERTEX
  8
0
 10
123.189254
 20
1367.212571
 42
-0.055773
  0
VERTEX
  8
0
 10
122.010803
 20
1366.711233
 42
-0.021765
  0
VERTEX
  8
0
 10
120.292780
 20
1366.277535
 42
-0.021222
  0
VERTEX
  8
0
 10
118.375365
 20
1365.965520
 42
-0.024706
  0
VERTEX
  8
0
 10
116.533403
 20
1365.837349
 42
-0.027066
  0
VERTEX
  8
0
 10
114.258955
 20
1365.914824
 42
-0.062088
  0
VERTEX
  8
0
 10
112.586187
 20
1366.275189
 42
-0.071293
  0
VERTEX
  8
0
 10
111.197466
 20
1366.995614
 42
-0.046450
  0
VERTEX
  8
0
 10
109.829768
 20
1368.180084
 42
-0.025638
  0
VERTEX
  8
0
 10
107.859717
 20
1370.458376
 42
-0.033771
  0
VERTEX
  8
0
 10
106.322299
 20
1372.733882
 42
-0.038314
  0
VERTEX
  8
0
 10
105.315180
 20
1374.818343
 42
-0.093645
  0
VERTEX
  8
0
 10
105.000000
 20
1376.486431
 42
0.064244
  0
VERTEX
  8
0
 10
104.925341
 20
1377.065097
 42
0.081991
  0
VERTEX
  8
0
 10
104.706250
 20
1377.555389
 42
0.098698
  0
VERTEX
  8
0
 10
104.381359
 20
1377.883405
 42
0.149454
  0
VERTEX
  8
0
 10
104.000000
 20
1378.000000
 42
-0.275259
  0
VERTEX
  8
0
 10
103.614478
 20
1378.229636
 42
-0.053437
  0
VERTEX
  8
0
 10
103.293750
 20
1379.010789
 42
-0.043243
  0
VERTEX
  8
0
 10
103.072564
 20
1380.122516
 42
-0.027497
  0
VERTEX
  8
0
 10
103.000000
 20
1381.440983
 42
0.026918
  0
VERTEX
  8
0
 10
102.926586
 20
1382.803639
 42
0.033489
  0
VERTEX
  8
0
 10
102.706250
 20
1384.052725
 42
0.035556
  0
VERTEX
  8
0
 10
102.386693
 20
1385.041340
 42
0.159713
  0
VERTEX
  8
0
 10
102.000000
 20
1385.500000
 42
-0.258245
  0
VERTEX
  8
0
 10
101.046095
 20
1387.198273
 42
-0.001582
  0
VERTEX
  8
0
 10
100.988194
 20
1405.500000
 42
-0.001582
  0
VERTEX
  8
0
 10
101.046095
 20
1423.801727
 42
-0.258245
  0
VERTEX
  8
0
 10
102.000000
 20
1425.500000
 42
0.199798
  0
VERTEX
  8
0
 10
102.391852
 20
1426.045623
 42
0.019282
  0
VERTEX
  8
0
 10
102.706250
 20
1427.681650
 42
0.022144
  0
VERTEX
  8
0
 10
102.927181
 20
1429.738245
 42
0.015685
  0
VERTEX
  8
0
 10
103.000000
 20
1432.059017
 42
-0.015621
  0
VERTEX
  8
0
 10
103.071572
 20
1434.349343
 42
-0.026076
  0
VERTEX
  8
0
 10
103.292081
 20
1436.264754
 42
-0.024323
  0
VERTEX
  8
0
 10
103.605690
 20
1437.698135
 42
-0.338832
  0
VERTEX
  8
0
 10
104.000000
 20
1438.000000
 42
0.337031
  0
VERTEX
  8
0
 10
104.392598
 20
1438.298548
 42
0.024946
  0
VERTEX
  8
0
 10
104.706897
 20
1439.700000
 42
0.026559
  0
VERTEX
  8
0
 10
104.928089
 20
1441.571741
 42
0.016132
  0
VERTEX
  8
0
 10
105.000000
 20
1443.800000
 42
-0.014605
  0
VERTEX
  8
0
 10
105.066923
 20
1446.090576
 42
-0.019109
  0
VERTEX
  8
0
 10
105.269000
 20
1448.175313
 42
-0.016932
  0
VERTEX
  8
0
 10
105.557680
 20
1449.870212
 42
-0.142063
  0
VERTEX
  8
0
 10
105.915746
 20
1450.550000
 42
0.126715
  0
VERTEX
  8
0
 10
106.302153
 20
1451.232840
 42
0.014190
  0
VERTEX
  8
0
 10
106.720346
 20
1452.983438
 42
0.016511
  0
VERTEX
  8
0
 10
107.096155
 20
1455.132828
 42
0.012689
  0
VERTEX
  8
0
 10
107.368868
 20
1457.500000
 42
-0.005667
  0
VERTEX
  8
0
 10
107.648173
 20
1460.265405
 42
-0.003106
  0
VERTEX
  8
0
 10
108.049749
 20
1463.646875
 42
-0.003095
  0
VERTEX
  8
0
 10
108.500115
 20
1467.075519
 42
-0.004936
  0
VERTEX
  8
0
 10
108.932145
 20
1470.000000
 42
0.000521
  0
VERTEX
  8
0
 10
109.398701
 20
1472.976169
 42
0.000297
  0
VERTEX
  8
0
 10
109.956598
 20
1476.573437
 42
0.000296
  0
VERTEX
  8
0
 10
110.513785
 20
1480.194486
 42
0.000491
  0
VERTEX
  8
0
 10
110.979022
 20
1483.250000
 42
-0.000203
  0
VERTEX
  8
0
 10
111.439820
 20
1486.288145
 42
-0.000126
  0
VERTEX
  8
0
 10
111.982923
 20
1489.853125
 42
-0.000126
  0
VERTEX
  8
0
 10
112.520608
 20
1493.370624
 42
-0.000229
  0
VERTEX
  8
0
 10
112.962843
 20
1496.250000
 42
0.003875
  0
VERTEX
  8
0
 10
113.431375
 20
1499.456287
 42
0.001268
  0
VERTEX
  8
0
 10
114.073319
 20
1504.189063
 42
0.001263
  0
VERTEX
  8
0
 10
114.759453
 20
1509.447392
 42
0.001427
  0
VERTEX
  8
0
 10
115.391113
 20
1514.500000
 42
-0.002179
  0
VERTEX
  8
0
 10
116.028179
 20
1519.534303
 42
-0.001968
  0
VERTEX
  8
0
 10
116.730511
 20
1524.737500
 42
-0.001970
  0
VERTEX
  8
0
 10
117.396530
 20
1529.394695
 42
-0.006265
  0
VERTEX
  8
0
 10
117.892933
 20
1532.500000
 42
0.000023
  0
VERTEX
  8
0
 10
118.370501
 20
1535.265550
 42
0.000013
  0
VERTEX
  8
0
 10
118.954156
 20
1538.646875
 42
0.000013
  0
VERTEX
  8
0
 10
119.545826
 20
1542.075665
 42
0.000020
  0
VERTEX
  8
0
 10
120.050249
 20
1545.000000
 42
-0.000580
  0
VERTEX
  8
0
 10
120.545779
 20
1547.853719
 42
-0.000409
  0
VERTEX
  8
0
 10
121.108955
 20
1551.059375
 42
-0.000413
  0
VERTEX
  8
0
 10
121.652440
 20
1554.123387
 42
-0.000871
  0
VERTEX
  8
0
 10
122.080291
 20
1556.500000
 42
0.007193
  0
VERTEX
  8
0
 10
122.474813
 20
1558.862405
 42
0.003548
  0
VERTEX
  8
0
 10
122.911640
 20
1561.875099
 42
0.003520
  0
VERTEX
  8
0
 10
123.320898
 20
1565.008967
 42
0.005130
  0
VERTEX
  8
0
 10
123.633778
 20
1567.776934
 42
-0.011841
  0
VERTEX
  8
0
 10
123.943236
 20
1570.220360
 42
-0.016980
  0
VERTEX
  8
0
 10
124.341759
 20
1572.366319
 42
-0.012853
  0
VERTEX
  8
0
 10
124.770635
 20
1574.094294
 42
-0.189272
  0
VERTEX
  8
0
 10
125.139072
 20
1574.585951
 42
0.196858
  0
VERTEX
  8
0
 10
125.476001
 20
1575.049539
 42
0.020512
  0
VERTEX
  8
0
 10
125.747103
 20
1576.395812
 42
0.023003
  0
VERTEX
  8
0
 10
125.937271
 20
1578.091218
 42
0.016427
  0
VERTEX
  8
0
 10
126.000000
 20
1580.000000
 42
-0.019058
  0
VERTEX
  8
0
 10
126.073011
 20
1581.914843
 42
-0.025914
  0
VERTEX
  8
0
 10
126.293750
 20
1583.629436
 42
-0.024736
  0
VERTEX
  8
0
 10
126.610188
 20
1584.985092
 42
-0.186738
  0
VERTEX
  8
0
 10
127.000000
 20
1585.500000
 42
0.179846
  0
VERTEX
  8
0
 10
127.388891
 20
1585.999702
 42
0.027581
  0
VERTEX
  8
0
 10
127.706250
 20
1587.241025
 42
0.027868
  0
VERTEX
  8
0
 10
127.926887
 20
1588.813184
 42
0.020930
  0
VERTEX
  8
0
 10
128.000000
 20
1590.559017
 42
-0.021227
  0
VERTEX
  8
0
 10
128.072294
 20
1592.261135
 42
-0.034160
  0
VERTEX
  8
0
 10
128.293750
 20
1593.695461
 42
-0.037703
  0
VERTEX
  8
0
 10
128.611648
 20
1594.734720
 42
-0.308946
  0
VERTEX
  8
0
 10
129.000000
 20
1595.000000
 42
0.254951
  0
VERTEX
  8
0
 10
129.384262
 20
1595.209557
 42
0.062710
  0
VERTEX
  8
0
 10
129.706250
 20
1595.881250
 42
0.048861
  0
VERTEX
  8
0
 10
129.927234
 20
1596.850749
 42
0.031626
  0
VERTEX
  8
0
 10
130.000000
 20
1598.000000
 42
-0.031626
  0
VERTEX
  8
0
 10
130.072766
 20
1599.149251
 42
-0.048861
  0
VERTEX
  8
0
 10
130.293750
 20
1600.118750
 42
-0.062710
  0
VERTEX
  8
0
 10
130.615738
 20
1600.790443
 42
-0.254951
  0
VERTEX
  8
0
 10
131.000000
 20
1601.000000
 42
0.254951
  0
VERTEX
  8
0
 10
131.384262
 20
1601.209557
 42
0.062710
  0
VERTEX
  8
0
 10
131.706250
 20
1601.881250
 42
0.048861
  0
VERTEX
  8
0
 10
131.927234
 20
1602.850749
 42
0.031626
  0
VERTEX
  8
0
 10
132.000000
 20
1604.000000
 42
-0.031626
  0
VERTEX
  8
0
 10
132.072766
 20
1605.149251
 42
-0.048861
  0
VERTEX
  8
0
 10
132.293750
 20
1606.118750
 42
-0.062710
  0
VERTEX
  8
0
 10
132.615738
 20
1606.790443
 42
-0.254951
  0
VERTEX
  8
0
 10
133.000000
 20
1607.000000
 42
0.148195
  0
VERTEX
  8
0
 10
133.381354
 20
1607.115568
 42
0.098894
  0
VERTEX
  8
0
 10
133.706250
 20
1607.440625
 42
0.082425
  0
VERTEX
  8
0
 10
133.925306
 20
1607.926543
 42
0.064853
  0
VERTEX
  8
0
 10
134.000000
 20
1608.500000
 42
-0.064853
  0
VERTEX
  8
0
 10
134.074694
 20
1609.073457
 42
-0.082425
  0
VERTEX
  8
0
 10
134.293750
 20
1609.559375
 42
-0.098894
  0
VERTEX
  8
0
 10
134.618646
 20
1609.884432
 42
-0.148195
  0
VERTEX
  8
0
 10
135.000000
 20
1610.000000
 42
0.156123
  0
VERTEX
  8
0
 10
135.381395
 20
1610.122064
 42
0.097522
  0
VERTEX
  8
0
 10
135.706250
 20
1610.465998
 42
0.079698
  0
VERTEX
  8
0
 10
135.925521
 20
1610.979760
 42
0.061159
  0
VERTEX
  8
0
 10
136.000000
 20
1611.586377
 42
-0.192926
  0
VERTEX
  8
0
 10
136.981353
 20
1614.035048
 42
-0.017473
  0
VERTEX
  8
0
 10
141.788742
 20
1618.729509
 42
-0.018413
  0
VERTEX
  8
0
 10
146.911899
 20
1623.060024
 42
-0.167780
  0
VERTEX
  8
0
 10
149.634262
 20
1624.000000
 42
0.040363
  0
VERTEX
  8
0
 10
150.540082
 20
1624.073243
 42
0.059710
  0
VERTEX
  8
0
 10
151.305064
 20
1624.293750
 42
0.078528
  0
VERTEX
  8
0
 10
151.825124
 20
1624.617383
 42
0.217696
  0
VERTEX
  8
0
 10
152.000000
 20
1625.000000
 42
-0.345347
  0
VERTEX
  8
0
 10
152.314102
 20
1625.400526
 42
-0.022017
  0
VERTEX
  8
0
 10
153.875000
 20
1625.711538
 42
-0.024301
  0
VERTEX
  8
0
 10
155.963427
 20
1625.929639
 42
-0.013867
  0
VERTEX
  8
0
 10
158.500000
 20
1626.000000
 42
-0.013867
  0
VERTEX
  8
0
 10
161.036573
 20
1625.929639
 42
-0.024301
  0
VERTEX
  8
0
 10
163.125000
 20
1625.711538
 42
-0.022017
  0
VERTEX
  8
0
 10
164.685898
 20
1625.400526
 42
-0.345347
  0
SEQEND
  0
POLYLINE
  8
0
 66
1
 70
1
  0
VERTEX
  8
0
 10
258.000000
 20
1249.125000
 42
0.227989
  0
VERTEX
  8
0
 10
258.180388
 20
1248.749956
 42
0.047714
  0
VERTEX
  8
0
 10
258.807813
 20
1248.339955
 42
0.041195
  0
VERTEX
  8
0
 10
259.696784
 20
1247.962941
 42
0.028712
  0
VERTEX
  8
0
 10
260.750000
 20
1247.681231
 42
-0.109858
  0
VERTEX
  8
0
 10
265.429945
 20
1245.575628
 42
-0.031911
  0
VERTEX
  8
0
 10
271.489128
 20
1240.415584
 42
-0.032662
  0
VERTEX
  8
0
 10
277.202873
 20
1234.110901
 42
-0.053706
  0
VERTEX
  8
0
 10
281.044802
 20
1228.032438
 42
0.011178
  0
VERTEX
  8
0
 10
282.039996
 20
1226.114777
 42
0.016867
  0
VERTEX
  8
0
 10
282.999098
 20
1224.495674
 42
0.011731
  0
VERTEX
  8
0
 10
283.852466
 20
1223.226590
 42
0.238003
  0
VERTEX
  8
0
 10
284.250000
 20
1223.015549
 42
-0.168721
  0
VERTEX
  8
0
 10
284.536227
 20
1222.909436
 42
-0.092080
  0
VERTEX
  8
0
 10
284.779688
 20
1222.619117
 42
-0.073634
  0
VERTEX
  8
0
 10
284.944388
 20
1222.190920
 42
-0.055103
  0
VERTEX
  8
0
 10
285.000000
 20
1221.687829
 42
0.092983
  0
VERTEX
  8
0
 10
285.262678
 20
1220.287535
 42
0.007198
  0
VERTEX
  8
0
 10
286.703853
 20
1216.733693
 42
0.010722
  0
VERTEX
  8
0
 10
288.389219
 20
1212.970810
 42
0.015991
  0
VERTEX
  8
0
 10
290.036674
 20
1209.763569
 42
-0.031289
  0
VERTEX
  8
0
 10
290.405567
 20
1208.987939
 42
-0.023311
  0
VERTEX
  8
0
 10
290.717023
 20
1208.092603
 42
-0.023747
  0
VERTEX
  8
0
 10
290.931788
 20
1207.217545
 42
-0.048334
  0
VERTEX
  8
0
 10
291.000000
 20
1206.513569
 42
0.064244
  0
VERTEX
  8
0
 10
291.074659
 20
1205.934903
 42
0.081991
  0
VERTEX
  8
0
 10
291.293750
 20
1205.444611
 42
0.098698
  0
VERTEX
  8
0
 10
291.618641
 20
1205.116595
 42
0.149454
  0
VERTEX
  8
0
 10
292.000000
 20
1205.000000
 42
-0.226478
  0
VERTEX
  8
0
 10
292.382936
 20
1204.817169
 42
-0.074992
  0
VERTEX
  8
0
 10
292.706250
 20
1204.265625
 42
-0.057076
  0
VERTEX
  8
0
 10
292.926884
 20
1203.457356
 42
-0.038131
  0
VERTEX
  8
0
 10
293.000000
 20
1202.500000
 42
0.038131
  0
VERTEX
  8
0
 10
293.073116
 20
1201.542644
 42
0.057076
  0
VERTEX
  8
0
 10
293.293750
 20
1200.734375
 42
0.074992
  0
VERTEX
  8
0
 10
293.617064
 20
1200.182831
 42
0.226478
  0
VERTEX
  8
0
 10
294.000000
 20
1200.000000
 42
-0.226478
  0
VERTEX
  8
0
 10
294.382936
 20
1199.817169
 42
-0.074992
  0
VERTEX
  8
0
 10
294.706250
 20
1199.265625
 42
-0.057076
  0
VERTEX
  8
0
 10
294.926884
 20
1198.457356
 42
-0.038131
  0
VERTEX
  8
0
 10
295.000000
 20
1197.500000
 42
0.038131
  0
VERTEX
  8
0
 10
295.073116
 20
1196.542644
 42
0.057076
  0
VERTEX
  8
0
 10
295.293750
 20
1195.734375
 42
0.074992
  0
VERTEX
  8
0
 10
295.617064
 20
1195.182831
 42
0.226478
  0
VERTEX
  8
0
 10
296.000000
 20
1195.000000
 42
-0.226478
  0
VERTEX
  8
0
 10
296.382936
 20
1194.817169
 42
-0.074992
  0
VERTEX
  8
0
 10
296.706250
 20
1194.265625
 42
-0.057076
  0
VERTEX
  8
0
 10
296.926884
 20
1193.457356
 42
-0.038131
  0
VERTEX
  8
0
 10
297.000000
 20
1192.500000
 42
0.031079
  0
VERTEX
  8
0
 10
297.059590
 20
1191.542262
 42
0.048134
  0
VERTEX
  8
0
 10
297.240649
 20
1190.734375
 42
0.061544
  0
VERTEX
  8
0
 10
297.504312
 20
1190.173734
 42
0.257544
  0
VERTEX
  8
0
 10
297.819229
 20
1190.000000
 42
-0.279667
  0
VERTEX
  8
0
 10
298.205679
 20
1189.765505
 42
-0.017612
  0
VERTEX
  8
0
 10
298.802832
 20
1188.512635
 42
-0.021816
  0
VERTEX
  8
0
 10
299.429549
 20
1186.877110
 42
-0.014112
  0
VERTEX
  8
0
 10
300.017256
 20
1184.936630
 42
0.011382
  0
VERTEX
  8
0
 10
300.603836
 20
1182.961047
 42
0.015616
  0
VERTEX
  8
0
 10
301.226612
 20
1181.215028
 42
0.012297
  0
VERTEX
  8
0
 10
301.817484
 20
1179.811382
 42
0.149650
  0
VERTEX
  8
0
 10
302.198027
 20
1179.377613
 42
-0.177252
  0
VERTEX
  8
0
 10
302.509649
 20
1178.981324
 42
-0.028641
  0
VERTEX
  8
0
 10
302.764420
 20
1178.016773
 42
-0.028599
  0
VERTEX
  8
0
 10
302.941335
 20
1176.794889
 42
-0.021655
  0
VERTEX
  8
0
 10
303.000000
 20
1175.440983
 42
0.021912
  0
VERTEX
  8
0
 10
303.057823
 20
1174.122178
 42
0.035182
  0
VERTEX
  8
0
 10
303.234863
 20
1173.010789
 42
0.039483
  0
VERTEX
  8
0
 10
303.489333
 20
1172.208741
 42
0.305134
  0
VERTEX
  8
0
 10
303.799533
 20
1172.000000
 42
-0.375712
  0
VERTEX
  8
0
 10
304.455328
 20
1171.426227
 42
-0.001781
  0
VERTEX
  8
0
 10
305.708697
 20
1161.813573
 42
-0.007618
  0
VERTEX
  8
0
 10
306.709628
 20
1152.821741
 42
-0.023911
  0
VERTEX
  8
0
 10
307.000000
 20
1146.753151
 42
-0.048223
  0
VERTEX
  8
0
 10
306.310672
 20
1139.622457
 42
-0.066826
  0
VERTEX
  8
0
 10
304.254944
 20
1133.545445
 42
-0.086062
  0
VERTEX
  8
0
 10
301.240935
 20
1129.423357
 42
-0.194328
  0
VERTEX
  8
0
 10
297.716984
 20
1128.000000
 42
0.041971
  0
VERTEX
  8
0
 10
296.712963
 20
1127.915571
 42
0.051072
  0
VERTEX
  8
0
 10
295.803865
 20
1127.664127
 42
0.059387
  0
VERTEX
  8
0
 10
295.113352
 20
1127.295345
 42
0.161349
  0
VERTEX
  8
0
 10
294.785534
 20
1126.856602
 42
-0.129867
  0
VERTEX
  8
0
 10
294.479213
 20
1126.389096
 42
-0.185192
  0
VERTEX
  8
0
 10
294.020605
 20
1126.213204
 42
-0.099357
  0
VERTEX
  8
0
 10
293.329681
 20
1126.351868
 42
-0.023822
  0
VERTEX
  8
0
 10
292.267942
 20
1126.856602
 42
0.039860
  0
VERTEX
  8
0
 10
291.264078
 20
1127.294966
 42
0.023382
  0
VERTEX
  8
0
 10
290.005381
 20
1127.664127
 42
0.023284
  0
VERTEX
  8
0
 10
288.703799
 20
1127.917110
 42
0.036369
  0
VERTEX
  8
0
 10
287.565741
 20
1128.000000
 42
-0.037126
  0
VERTEX
  8
0
 10
286.583152
 20
1128.073060
 42
-0.055859
  0
VERTEX
  8
0
 10
285.753687
 20
1128.293750
 42
-0.073287
  0
VERTEX
  8
0
 10
285.186603
 20
1128.616901
 42
-0.230594
  0
VERTEX
  8
0
 10
285.000000
 20
1129.000000
 42
0.191087
  0
VERTEX
  8
0
 10
284.848523
 20
1129.381882
 42
0.088204
  0
VERTEX
  8
0
 10
284.412500
 20
1129.706250
 42
0.068025
  0
VERTEX
  8
0
 10
283.765418
 20
1129.926307
 42
0.048028
  0
VERTEX
  8
0
 10
283.000000
 20
1130.000000
 42
-0.035971
  0
VERTEX
  8
0
 10
282.234019
 20
1130.055177
 42
-0.054436
  0
VERTEX
  8
0
 10
281.587500
 20
1130.222042
 42
-0.071241
  0
VERTEX
  8
0
 10
281.144446
 20
1130.466154
 42
-0.235453
  0
VERTEX
  8
0
 10
281.000000
 20
1130.755889
 42
0.209380
  0
VERTEX
  8
0
 10
280.839880
 20
1131.121493
 42
0.029977
  0
VERTEX
  8
0
 10
280.192187
 20
1131.650922
 42
0.029841
  0
VERTEX
  8
0
 10
279.303270
 20
1132.215268
 42
0.021390
  0
VERTEX
  8
0
 10
278.250000
 20
1132.741349
 42
-0.027602
  0
VERTEX
  8
0
 10
276.989142
 20
1133.390799
 42
-0.013488
  0
VERTEX
  8
0
 10
275.454310
 20
1134.348380
 42
-0.013337
  0
VERTEX
  8
0
 10
273.907675
 20
1135.432704
 42
-0.018817
  0
VERTEX
  8
0
 10
272.594461
 20
1136.485461
 42
0.009414
  0
VERTEX
  8
0
 10
271.438115
 20
1137.448726
 42
0.013199
  0
VERTEX
  8
0
 10
270.367671
 20
1138.261354
 42
0.009482
  0
VERTEX
  8
0
 10
269.454455
 20
1138.891457
 42
0.147304
  0
VERTEX
  8
0
 10
269.094017
 20
1139.000000
 42
-0.165415
  0
VERTEX
  8
0
 10
268.715755
 20
1139.128661
 42
-0.005179
  0
VERTEX
  8
0
 10
267.413441
 20
1140.152141
 42
-0.009588
  0
VERTEX
  8
0
 10
265.895644
 20
1141.419227
 42
-0.006439
  0
VERTEX
  8
0
 10
264.208306
 20
1142.922183
 42
0.005135
  0
VERTEX
  8
0
 10
262.300662
 20
1144.630312
 42
0.003564
  0
VERTEX
  8
0
 10
260.111544
 20
1146.522896
 42
0.003595
  0
VERTEX
  8
0
 10
257.983357
 20
1148.310204
 42
0.007397
  0
VERTEX
  8
0
 10
256.287270
 20
1149.672183
 42
-0.025389
  0
VERTEX
  8
0
 10
250.442503
 20
1154.721885
 42
-0.004888
  0
VERTEX
  8
0
 10
240.424625
 20
1164.496167
 42
-0.001236
  0
VERTEX
  8
0
 10
229.634203
 20
1175.285306
 42
-0.198285
  0
VERTEX
  8
0
 10
229.000000
 20
1176.821647
 42
0.066764
  0
VERTEX
  8
0
 10
228.939585
 20
1177.272084
 42
0.083745
  0
VERTEX
  8
0
 10
228.762754
 20
1177.653859
 42
0.099437
  0
VERTEX
  8
0
 10
228.500344
 20
1177.909182
 42
0.144363
  0
VERTEX
  8
0
 10
228.192354
 20
1178.000000
 42
-0.277847
  0
VERTEX
  8
0
 10
227.228761
 20
1178.580258
 42
-0.004581
  0
VERTEX
  8
0
 10
224.227661
 20
1184.378908
 42
-0.007943
  0
VERTEX
  8
0
 10
221.488431
 20
1190.012941
 42
-0.109599
  0
VERTEX
  8
0
 10
221.000000
 20
1192.214432
 42
0.069223
  0
VERTEX
  8
0
 10
220.914187
 20
1192.831289
 42
0.038970
  0
VERTEX
  8
0
 10
220.651395
 20
1193.541594
 42
0.038053
  0
VERTEX
  8
0
 10
220.267512
 20
1194.230597
 42
0.050294
  0
VERTEX
  8
0
 10
219.813261
 20
1194.786739
 42
-0.191980
  0
VERTEX
  8
0
 10
218.726000
 20
1197.315564
 42
-0.005464
  0
VERTEX
  8
0
 10
218.536572
 20
1209.318229
 42
-0.007858
  0
VERTEX
  8
0
 10
218.663335
 20
1220.986599
 42
-0.106742
  0
VERTEX
  8
0
 10
219.666167
 20
1225.097740
 42
0.006190
  0
VERTEX
  8
0
 10
220.207208
 20
1226.248305
 42
0.002904
  0
VERTEX
  8
0
 10
220.879856
 20
1227.749024
 42
0.002877
  0
VERTEX
  8
0
 10
221.566722
 20
1229.330201
 42
0.004039
  0
VERTEX
  8
0
 10
222.160278
 20
1230.750000
 42
-0.018634
  0
VERTEX
  8
0
 10
222.723995
 20
1231.995025
 42
-0.026938
  0
VERTEX
  8
0
 10
223.320181
 20
1233.045312
 42
-0.025504
  0
VERTEX
  8
0
 10
223.876550
 20
1233.822753
 42
-0.228521
  0
VERTEX
  8
0
 10
224.244111
 20
1234.000000
 42
0.168485
  0
VERTEX
  8
0
 10
224.532489
 20
1234.100014
 42
0.094779
  0
VERTEX
  8
0
 10
224.777958
 20
1234.383221
 42
0.075488
  0
VERTEX
  8
0
 10
224.943934
 20
1234.805559
 42
0.055999
  0
VERTEX
  8
0
 10
225.000000
 20
1235.304583
 42
-0.172688
  0
VERTEX
  8
0
 10
225.615124
 20
1237.032498
 42
-0.020461
  0
VERTEX
  8
0
 10
228.357665
 20
1240.128569
 42
-0.025401
  0
VERTEX
  8
0
 10
231.519079
 20
1243.098438
 42
-0.057157
  0
VERTEX
  8
0
 10
234.250000
 20
1244.923726
 42
0.022269
  0
VERTEX
  8
0
 10
235.303134
 20
1245.526047
 42
0.030169
  0
VERTEX
  8
0
 10
236.192187
 20
1246.166640
 42
0.030627
  0
VERTEX
  8
0
 10
236.836642
 20
1246.762130
 42
0.193262
  0
VERTEX
  8
0
 10
237.000000
 20
1247.168980
 42
-0.251723
  0
VERTEX
  8
0
 10
237.171563
 20
1247.488164
 42
-0.064153
  0
VERTEX
  8
0
 10
237.717039
 20
1247.755888
 42
-0.049770
  0
VERTEX
  8
0
 10
238.505917
 20
1247.939500
 42
-0.032317
  0
VERTEX
  8
0
 10
239.440983
 20
1248.000000
 42
0.037634
  0
VERTEX
  8
0
 10
240.420660
 20
1248.073842
 42
0.041396
  0
VERTEX
  8
0
 10
241.346475
 20
1248.293750
 42
0.045439
  0
VERTEX
  8
0
 10
242.093337
 20
1248.615492
 42
0.130646
  0
VERTEX
  8
0
 10
242.500000
 20
1249.000000
 42
-0.248967
  0
VERTEX
  8
0
 10
243.897113
 20
1249.817109
 42
-0.008283
  0
VERTEX
  8
0
 10
250.534424
 20
1249.980623
 42
-0.007309
  0
VERTEX
  8
0
 10
257.205104
 20
1249.936906
 42
-0.408026
  0
SEQEND
  0
POLYLINE
  8
0
 66
1
 70
1
  0
VERTEX
  8
0
 10
222.479001
 20
1042.859307
 42
-0.011137
  0
VERTEX
  8
0
 10
224.978311
 20
1041.976711
 42
-0.017362
  0
VERTEX
  8
0
 10
227.084457
 20
1041.095021
 42
-0.011794
  0
VERTEX
  8
0
 10
228.741259
 20
1040.284927
 42
-0.280109
  0
VERTEX
  8
0
 10
229.000000
 20
1039.859307
 42
0.215098
  0
VERTEX
  8
0
 10
229.148270
 20
1039.530596
 42
0.079545
  0
VERTEX
  8
0
 10
229.587500
 20
1039.252421
 42
0.060500
  0
VERTEX
  8
0
 10
230.234250
 20
1039.062972
 42
0.041049
  0
VERTEX
  8
0
 10
231.000000
 20
1039.000000
 42
-0.048028
  0
VERTEX
  8
0
 10
231.765418
 20
1038.926307
 42
-0.068025
  0
VERTEX
  8
0
 10
232.412500
 20
1038.706250
 42
-0.088204
  0
VERTEX
  8
0
 10
232.848523
 20
1038.381882
 42
-0.191087
  0
VERTEX
  8
0
 10
233.000000
 20
1038.000000
 42
0.191087
  0
VERTEX
  8
0
 10
233.151477
 20
1037.618118
 42
0.088204
  0
VERTEX
  8
0
 10
233.587500
 20
1037.293750
 42
0.068025
  0
VERTEX
  8
0
 10
234.234582
 20
1037.073693
 42
0.048028
  0
VERTEX
  8
0
 10
235.000000
 20
1037.000000
 42
-0.048028
  0
VERTEX
  8
0
 10
235.765418
 20
1036.926307
 42
-0.068025
  0
VERTEX
  8
0
 10
236.412500
 20
1036.706250
 42
-0.088204
  0
VERTEX
  8
0
 10
236.848523
 20
1036.381882
 42
-0.191087
  0
VERTEX
  8
0
 10
237.000000
 20
1036.000000
 42
0.148195
  0
VERTEX
  8
0
 10
237.115568
 20
1035.618646
 42
0.098894
  0
VERTEX
  8
0
 10
237.440625
 20
1035.293750
 42
0.082425
  0
VERTEX
  8
0
 10
237.926543
 20
1035.074694
 42
0.064853
  0
VERTEX
  8
0
 10
238.500000
 20
1035.000000
 42
-0.064853
  0
VERTEX
  8
0
 10
239.073457
 20
1034.925306
 42
-0.082425
  0
VERTEX
  8
0
 10
239.559375
 20
1034.706250
 42
-0.098894
  0
VERTEX
  8
0
 10
239.884432
 20
1034.381354
 42
-0.148195
  0
VERTEX
  8
0
 10
240.000000
 20
1034.000000
 42
0.148195
  0
VERTEX
  8
0
 10
240.115568
 20
1033.618646
 42
0.098894
  0
VERTEX
  8
0
 10
240.440625
 20
1033.293750
 42
0.082425
  0
VERTEX
  8
0
 10
240.926543
 20
1033.074694
 42
0.064853
  0
VERTEX
  8
0
 10
241.500000
 20
1033.000000
 42
-0.064853
  0
VERTEX
  8
0
 10
242.073457
 20
1032.925306
 42
-0.082425
  0
VERTEX
  8
0
 10
242.559375
 20
1032.706250
 42
-0.098894
  0
VERTEX
  8
0
 10
242.884432
 20
1032.381354
 42
-0.148195
  0
VERTEX
  8
0
 10
243.000000
 20
1032.000000
 42
0.148195
  0
VERTEX
  8
0
 10
243.115568
 20
1031.618646
 42
0.098894
  0
VERTEX
  8
0
 10
243.440625
 20
1031.293750
 42
0.082425
  0
VERTEX
  8
0
 10
243.926543
 20
1031.074694
 42
0.064853
  0
VERTEX
  8
0
 10
244.500000
 20
1031.000000
 42
-0.064853
  0
VERTEX
  8
0
 10
245.073457
 20
1030.925306
 42
-0.082425
  0
VERTEX
  8
0
 10
245.559375
 20
1030.706250
 42
-0.098894
  0
VERTEX
  8
0
 10
245.884432
 20
1030.381354
 42
-0.148195
  0
VERTEX
  8
0
 10
246.000000
 20
1030.000000
 42
0.130232
  0
VERTEX
  8
0
 10
246.101042
 20
1029.618647
 42
0.100668
  0
VERTEX
  8
0
 10
246.385235
 20
1029.293750
 42
0.088576
  0
VERTEX
  8
0
 10
246.810359
 20
1029.075240
 42
0.074660
  0
VERTEX
  8
0
 10
247.311439
 20
1029.000000
 42
-0.101307
  0
VERTEX
  8
0
 10
247.959670
 20
1028.867297
 42
-0.030131
  0
VERTEX
  8
0
 10
248.868249
 20
1028.412500
 42
-0.028874
  0
VERTEX
  8
0
 10
249.851416
 20
1027.765446
 42
-0.027562
  0
VERTEX
  8
0
 10
250.769625
 20
1027.000000
 42
0.032092
  0
VERTEX
  8
0
 10
251.704850
 20
1026.234610
 42
0.031223
  0
VERTEX
  8
0
 10
252.738674
 20
1025.587500
 42
0.032799
  0
VERTEX
  8
0
 10
253.717917
 20
1025.136887
 42
0.091681
  0
VERTEX
  8
0
 10
254.458187
 20
1025.000000
 42
-0.063011
  0
VERTEX
  8
0
 10
255.047695
 20
1024.925413
 42
-0.081094
  0
VERTEX
  8
0
 10
255.547092
 20
1024.706250
 42
-0.098266
  0
VERTEX
  8
0
 10
255.881274
 20
1024.381371
 42
-0.152058
  0
VERTEX
  8
0
 10
256.000000
 20
1024.000000
 42
0.130232
  0
VERTEX
  8
0
 10
256.101042
 20
1023.618647
 42
0.100668
  0
VERTEX
  8
0
 10
256.385235
 20
1023.293750
 42
0.088576
  0
VERTEX
  8
0
 10
256.810359
 20
1023.075240
 42
0.074660
  0
VERTEX
  8
0
 10
257.311439
 20
1023.000000
 42
-0.101307
  0
VERTEX
  8
0
 10
257.959670
 20
1022.867297
 42
-0.030131
  0
VERTEX
  8
0
 10
258.868249
 20
1022.412500
 42
-0.028874
  0
VERTEX
  8
0
 10
259.851416
 20
1021.765446
 42
-0.027562
  0
VERTEX
  8
0
 10
260.769625
 20
1021.000000
 42
0.032092
  0
VERTEX
  8
0
 10
261.704850
 20
1020.234610
 42
0.031223
  0
VERTEX
  8
0
 10
262.738674
 20
1019.587500
 42
0.032799
  0
VERTEX
  8
0
 10
263.717917
 20
1019.136887
 42
0.091681
  0
VERTEX
  8
0
 10
264.458187
 20
1019.000000
 42
-0.048666
  0
VERTEX
  8
0
 10
265.048229
 20
1018.942433
 42
-0.068667
  0
VERTEX
  8
0
 10
265.547092
 20
1018.770651
 42
-0.088851
  0
VERTEX
  8
0
 10
265.883066
 20
1018.517364
 42
-0.189101
  0
VERTEX
  8
0
 10
266.000000
 20
1018.219238
 42
0.209533
  0
VERTEX
  8
0
 10
266.163339
 20
1017.846582
 42
0.032077
  0
VERTEX
  8
0
 10
266.807813
 20
1017.324905
 42
0.031267
  0
VERTEX
  8
0
 10
267.696763
 20
1016.775178
 42
0.022473
  0
VERTEX
  8
0
 10
268.750000
 20
1016.271091
 42
-0.019248
  0
VERTEX
  8
0
 10
270.141079
 20
1015.616300
 42
-0.006127
  0
VERTEX
  8
0
 10
272.160937
 20
1014.537156
 42
-0.006105
  0
VERTEX
  8
0
 10
274.384023
 20
1013.278586
 42
-0.006768
  0
VERTEX
  8
0
 10
276.500000
 20
1012.007637
 42
0.006692
  0
VERTEX
  8
0
 10
278.542594
 20
1010.780347
 42
0.007459
  0
VERTEX
  8
0
 10
280.545313
 20
1009.652891
 42
0.006953
  0
VERTEX
  8
0
 10
282.278034
 20
1008.742174
 42
0.038490
  0
VERTEX
  8
0
 10
283.250000
 20
1008.339152
 42
-0.042705
  0
VERTEX
  8
0
 10
283.919617
 20
1008.054872
 42
-0.051806
  0
VERTEX
  8
0
 10
284.485937
 20
1007.675395
 42
-0.060306
  0
VERTEX
  8
0
 10
284.874993
 20
1007.263138
 42
-0.160350
  0
VERTEX
  8
0
 10
285.000000
 20
1006.883369
 42
0.192192
  0
VERTEX
  8
0
 10
285.134651
 20
1006.546005
 42
0.087839
  0
VERTEX
  8
0
 10
285.522652
 20
1006.259490
 42
0.067670
  0
VERTEX
  8
0
 10
286.098294
 20
1006.065080
 42
0.047678
  0
VERTEX
  8
0
 10
286.779241
 20
1006.000000
 42
-0.091287
  0
VERTEX
  8
0
 10
287.565449
 20
1005.855253
 42
-0.047927
  0
VERTEX
  8
0
 10
288.459276
 20
1005.412500
 42
-0.045499
  0
VERTEX
  8
0
 10
289.316802
 20
1004.765149
 42
-0.052224
  0
VERTEX
  8
0
 10
290.000000
 20
1004.000000
 42
0.052224
  0
VERTEX
  8
0
 10
290.683198
 20
1003.234851
 42
0.045499
  0
VERTEX
  8
0
 10
291.540724
 20
1002.587500
 42
0.047927
  0
VERTEX
  8
0
 10
292.434551
 20
1002.144747
 42
0.091287
  0
VERTEX
  8
0
 10
293.220759
 20
1002.000000
 42
-0.054248
  0
VERTEX
  8
0
 10
293.901422
 20
1001.925933
 42
-0.073949
  0
VERTEX
  8
0
 10
294.477348
 20
1001.706250
 42
-0.093597
  0
VERTEX
  8
0
 10
294.863853
 20
1001.381567
 42
-0.173062
  0
VERTEX
  8
0
 10
295.000000
 20
1001.000000
 42
0.148195
  0
VERTEX
  8
0
 10
295.115568
 20
1000.618646
 42
0.098894
  0
VERTEX
  8
0
 10
295.440625
 20
1000.293750
 42
0.082425
  0
VERTEX
  8
0
 10
295.926543
 20
1000.074694
 42
0.064853
  0
VERTEX
  8
0
 10
296.500000
 20
1000.000000
 42
-0.064853
  0
VERTEX
  8
0
 10
297.073457
 20
999.925306
 42
-0.082425
  0
VERTEX
  8
0
 10
297.559375
 20
999.706250
 42
-0.098894
  0
VERTEX
  8
0
 10
297.884432
 20
999.381354
 42
-0.148195
  0
VERTEX
  8
0
 10
298.000000
 20
999.000000
 42
0.100728
  0
VERTEX
  8
0
 10
298.077666
 20
998.618386
 42
0.098327
  0
VERTEX
  8
0
 10
298.298611
 20
998.293750
 42
0.097538
  0
VERTEX
  8
0
 10
298.628569
 20
998.076281
 42
0.097374
  0
VERTEX
  8
0
 10
299.016547
 20
998.000000
 42
-0.195780
  0
VERTEX
  8
0
 10
301.300957
 20
997.069862
 42
-0.009513
  0
VERTEX
  8
0
 10
307.166767
 20
991.121730
 42
-0.015485
  0
VERTEX
  8
0
 10
312.665214
 20
984.958268
 42
-0.058859
  0
VERTEX
  8
0
 10
315.487038
 20
980.650168
 42
-0.061812
  0
VERTEX
  8
0
 10
317.480763
 20
974.993073
 42
-0.054813
  0
VERTEX
  8
0
 10
318.140726
 20
968.781762
 42
-0.055577
  0
VERTEX
  8
0
 10
317.435967
 20
962.664455
 42
-0.068032
  0
VERTEX
  8
0
 10
315.401495
 20
957.285483
 42
-0.051849
  0
VERTEX
  8
0
 10
312.477861
 20
953.021681
 42
-0.013737
  0
VERTEX
  8
0
 10
306.952421
 20
946.873855
 42
-0.007663
  0
VERTEX
  8
0
 10
301.054494
 20
940.851111
 42
-0.197651
  0
VERTEX
  8
0
 10
298.985541
 20
940.000000
 42
0.100537
  0
VERTEX
  8
0
 10
298.609442
 20
939.923604
 42
0.098285
  0
VERTEX
  8
0
 10
298.289503
 20
939.706250
 42
0.097585
  0
VERTEX
  8
0
 10
298.075185
 20
939.381660
 42
0.097560
  0
VERTEX
  8
0
 10
298.000000
 20
939.000000
 42
-0.148195
  0
VERTEX
  8
0
 10
297.884432
 20
938.618646
 42
-0.098894
  0
VERTEX
  8
0
 10
297.559375
 20
938.293750
 42
-0.082425
  0
VERTEX
  8
0
 10
297.073457
 20
938.074694
 42
-0.064853
  0
VERTEX
  8
0
 10
296.500000
 20
938.000000
 42
0.064853
  0
VERTEX
  8
0
 10
295.926543
 20
937.925306
 42
0.082425
  0
VERTEX
  8
0
 10
295.440625
 20
937.706250
 42
0.098894
  0
VERTEX
  8
0
 10
295.115568
 20
937.381354
 42
0.148195
  0
VERTEX
  8
0
 10
295.000000
 20
937.000000
 42
-0.173062
  0
VERTEX
  8
0
 10
294.863853
 20
936.618433
 42
-0.093597
  0
VERTEX
  8
0
 10
294.477348
 20
936.293750
 42
-0.073949
  0
VERTEX
  8
0
 10
293.901422
 20
936.074067
 42
-0.054248
  0
VERTEX
  8
0
 10
293.220759
 20
936.000000
 42
0.091287
  0
VERTEX
  8
0
 10
292.434551
 20
935.855253
 42
0.047927
  0
VERTEX
  8
0
 10
291.540724
 20
935.412500
 42
0.045499
  0
VERTEX
  8
0
 10
290.683198
 20
934.765149
 42
0.052224
  0
VERTEX
  8
0
 10
290.000000
 20
934.000000
 42
-0.052224
  0
VERTEX
  8
0
 10
289.316802
 20
933.234851
 42
-0.045499
  0
VERTEX
  8
0
 10
288.459276
 20
932.587500
 42
-0.047927
  0
VERTEX
  8
0
 10
287.565449
 20
932.144747
 42
-0.091287
  0
VERTEX
  8
0
 10
286.779241
 20
932.000000
 42
0.047678
  0
VERTEX
  8
0
 10
286.098294
 20
931.934920
 42
0.067670
  0
VERTEX
  8
0
 10
285.522652
 20
931.740510
 42
0.087839
  0
VERTEX
  8
0
 10
285.134651
 20
931.453995
 42
0.192192
  0
VERTEX
  8
0
 10
285.000000
 20
931.116631
 42
-0.160350
  0
VERTEX
  8
0
 10
284.874993
 20
930.736862
 42
-0.060306
  0
VERTEX
  8
0
 10
284.485937
 20
930.324605
 42
-0.051806
  0
VERTEX
  8
0
 10
283.919617
 20
929.945128
 42
-0.042705
  0
VERTEX
  8
0
 10
283.250000
 20
929.660848
 42
0.038490
  0
VERTEX
  8
0
 10
282.278034
 20
929.257826
 42
0.006953
  0
VERTEX
  8
0
 10
280.545313
 20
928.347109
 42
0.007459
  0
VERTEX
  8
0
 10
278.542594
 20
927.219653
 42
0.006692
  0
VERTEX
  8
0
 10
276.500000
 20
925.992363
 42
-0.006768
  0
VERTEX
  8
0
 10
274.384023
 20
924.721414
 42
-0.006105
  0
VERTEX
  8
0
 10
272.160937
 20
923.462844
 42
-0.006127
  0
VERTEX
  8
0
 10
270.141079
 20
922.383700
 42
-0.019248
  0
VERTEX
  8
0
 10
268.750000
 20
921.728909
 42
0.022473
  0
VERTEX
  8
0
 10
267.696763
 20
921.224822
 42
0.031267
  0
VERTEX
  8
0
 10
266.807813
 20
920.675095
 42
0.032077
  0
VERTEX
  8
0
 10
266.163339
 20
920.153418
 42
0.209533
  0
VERTEX
  8
0
 10
266.000000
 20
919.780762
 42
-0.189101
  0
VERTEX
  8
0
 10
265.883066
 20
919.482636
 42
-0.088851
  0
VERTEX
  8
0
 10
265.547092
 20
919.229349
 42
-0.068667
  0
VERTEX
  8
0
 10
265.048229
 20
919.057567
 42
-0.048666
  0
VERTEX
  8
0
 10
264.458187
 20
919.000000
 42
0.091681
  0
VERTEX
  8
0
 10
263.717917
 20
918.863113
 42
0.032799
  0
VERTEX
  8
0
 10
262.738674
 20
918.412500
 42
0.031223
  0
VERTEX
  8
0
 10
261.704850
 20
917.765390
 42
0.032092
  0
VERTEX
  8
0
 10
260.769625
 20
917.000000
 42
-0.027562
  0
VERTEX
  8
0
 10
259.851416
 20
916.234554
 42
-0.028874
  0
VERTEX
  8
0
 10
258.868249
 20
915.587500
 42
-0.030131
  0
VERTEX
  8
0
 10
257.959670
 20
915.132703
 42
-0.101307
  0
VERTEX
  8
0
 10
257.311439
 20
915.000000
 42
0.074660
  0
VERTEX
  8
0
 10
256.810359
 20
914.924760
 42
0.088576
  0
VERTEX
  8
0
 10
256.385235
 20
914.706250
 42
0.100668
  0
VERTEX
  8
0
 10
256.101042
 20
914.381353
 42
0.130232
  0
VERTEX
  8
0
 10
256.000000
 20
914.000000
 42
-0.152058
  0
VERTEX
  8
0
 10
255.881274
 20
913.618629
 42
-0.098266
  0
VERTEX
  8
0
 10
255.547092
 20
913.293750
 42
-0.081094
  0
VERTEX
  8
0
 10
255.047695
 20
913.074587
 42
-0.063011
  0
VERTEX
  8
0
 10
254.458187
 20
913.000000
 42
0.091681
  0
VERTEX
  8
0
 10
253.717917
 20
912.863113
 42
0.032799
  0
VERTEX
  8
0
 10
252.738674
 20
912.412500
 42
0.031223
  0
VERTEX
  8
0
 10
251.704850
 20
911.765390
 42
0.032092
  0
VERTEX
  8
0
 10
250.769625
 20
911.000000
 42
-0.027562
  0
VERTEX
  8
0
 10
249.851416
 20
910.234554
 42
-0.028874
  0
VERTEX
  8
0
 10
248.868249
 20
909.587500
 42
-0.030131
  0
VERTEX
  8
0
 10
247.959670
 20
909.132703
 42
-0.101307
  0
VERTEX
  8
0
 10
247.311439
 20
909.000000
 42
0.074660
  0
VERTEX
  8
0
 10
246.810359
 20
908.924760
 42
0.088576
  0
VERTEX
  8
0
 10
246.385235
 20
908.706250
 42
0.100668
  0
VERTEX
  8
0
 10
246.101042
 20
908.381353
 42
0.130232
  0
VERTEX
  8
0
 10
246.000000
 20
908.000000
 42
-0.148195
  0
VERTEX
  8
0
 10
245.884432
 20
907.618646
 42
-0.098894
  0
VERTEX
  8
0
 10
245.559375
 20
907.293750
 42
-0.082425
  0
VERTEX
  8
0
 10
245.073457
 20
907.074694
 42
-0.064853
  0
VERTEX
  8
0
 10
244.500000
 20
907.000000
 42
0.064853
  0
VERTEX
  8
0
 10
243.926543
 20
906.925306
 42
0.082425
  0
VERTEX
  8
0
 10
243.440625
 20
906.706250
 42
0.098894
  0
VERTEX
  8
0
 10
243.115568
 20
906.381354
 42
0.148195
  0
VERTEX
  8
0
 10
243.000000
 20
906.000000
 42
-0.148195
  0
VERTEX
  8
0
 10
242.884432
 20
905.618646
 42
-0.098894
  0
VERTEX
  8
0
 10
242.559375
 20
905.293750
 42
-0.082425
  0
VERTEX
  8
0
 10
242.073457
 20
905.074694
 42
-0.064853
  0
VERTEX
  8
0
 10
241.500000
 20
905.000000
 42
0.064853
  0
VERTEX
  8
0
 10
240.926543
 20
904.925306
 42
0.082425
  0
VERTEX
  8
0
 10
240.440625
 20
904.706250
 42
0.098894
  0
VERTEX
  8
0
 10
240.115568
 20
904.381354
 42
0.148195
  0
VERTEX
  8
0
 10
240.000000
 20
904.000000
 42
-0.148195
  0
VERTEX
  8
0
 10
239.884432
 20
903.618646
 42
-0.098894
  0
VERTEX
  8
0
 10
239.559375
 20
903.293750
 42
-0.082425
  0
VERTEX
  8
0
 10
239.073457
 20
903.074694
 42
-0.064853
  0
VERTEX
  8
0
 10
238.500000
 20
903.000000
 42
0.064853
  0
VERTEX
  8
0
 10
237.926543
 20
902.925306
 42
0.082425
  0
VERTEX
  8
0
 10
237.440625
 20
902.706250
 42
0.098894
  0
VERTEX
  8
0
 10
237.115568
 20
902.381354
 42
0.148195
  0
VERTEX
  8
0
 10
237.000000
 20
902.000000
 42
-0.191087
  0
VERTEX
  8
0
 10
236.848523
 20
901.618118
 42
-0.088204
  0
VERTEX
  8
0
 10
236.412500
 20
901.293750
 42
-0.068025
  0
VERTEX
  8
0
 10
235.765418
 20
901.073693
 42
-0.048028
  0
VERTEX
  8
0
 10
235.000000
 20
901.000000
 42
0.048028
  0
VERTEX
  8
0
 10
234.234582
 20
900.926307
 42
0.068025
  0
VERTEX
  8
0
 10
233.587500
 20
900.706250
 42
0.088204
  0
VERTEX
  8
0
 10
233.151477
 20
900.381882
 42
0.191087
  0
VERTEX
  8
0
 10
233.000000
 20
900.000000
 42
-0.191087
  0
VERTEX
  8
0
 10
232.848523
 20
899.618118
 42
-0.088204
  0
VERTEX
  8
0
 10
232.412500
 20
899.293750
 42
-0.068025
  0
VERTEX
  8
0
 10
231.765418
 20
899.073693
 42
-0.048028
  0
VERTEX
  8
0
 10
231.000000
 20
899.000000
 42
0.041049
  0
VERTEX
  8
0
 10
230.234250
 20
898.937028
 42
0.060500
  0
VERTEX
  8
0
 10
229.587500
 20
898.747579
 42
0.079545
  0
VERTEX
  8
0
 10
229.148270
 20
898.469404
 42
0.215098
  0
VERTEX
  8
0
 10
229.000000
 20
898.140693
 42
-0.322250
  0
VERTEX
  8
0
 10
228.148507
 20
896.956724
 42
-0.009761
  0
VERTEX
  8
0
 10
222.038573
 20
895.037862
 42
-0.018318
  0
VERTEX
  8
0
 10
215.838810
 20
893.467036
 42
-0.052928
  0
VERTEX
  8
0
 10
211.439163
 20
893.000000
 42
-0.035221
  0
VERTEX
  8
0
 10
209.370167
 20
893.145925
 42
-0.023990
  0
VERTEX
  8
0
 10
207.052228
 20
893.588819
 42
-0.023969
  0
VERTEX
  8
0
 10
204.783882
 20
894.252641
 42
-0.034794
  0
VERTEX
  8
0
 10
202.864947
 20
895.068899
 42
-0.049570
  0
VERTEX
  8
0
 10
199.019214
 20
897.538255
 42
-0.024337
  0
VERTEX
  8
0
 10
194.634974
 20
901.372118
 42
-0.018687
  0
VERTEX
  8
0
 10
190.812380
 20
905.344092
 42
-0.184260
  0
VERTEX
  8
0
 10
190.000000
 20
907.473684
 42
0.047515
  0
VERTEX
  8
0
 10
189.944362
 20
908.057838
 42
0.067504
  0
VERTEX
  8
0
 10
189.778128
 20
908.551645
 42
0.087668
  0
VERTEX
  8
0
 10
189.533157
 20
908.884533
 42
0.192707
  0
VERTEX
  8
0
 10
189.244690
 20
909.000000
 42
-0.297403
  0
VERTEX
  8
0
 10
188.540214
 20
909.459684
 42
-0.013801
  0
VERTEX
  8
0
 10
187.411067
 20
912.230971
 42
-0.013816
  0
VERTEX
  8
0
 10
185.943064
 20
916.493456
 42
-0.003497
  0
VERTEX
  8
0
 10
183.798289
 20
923.500000
 42
-0.036669
  0
VERTEX
  8
0
 10
182.614654
 20
928.874917
 42
-0.024396
  0
VERTEX
  8
0
 10
182.017967
 20
935.158968
 42
-0.010362
  0
VERTEX
  8
0
 10
181.761443
 20
945.351096
 42
-0.001110
  0
VERTEX
  8
0
 10
181.708945
 20
969.000000
 42
-0.001110
  0
VERTEX
  8
0
 10
181.761443
 20
992.648904
 42
-0.010362
  0
VERTEX
  8
0
 10
182.017967
 20
1002.841032
 42
-0.024396
  0
VERTEX
  8
0
 10
182.614654
 20
1009.125083
 42
-0.036669
  0
VERTEX
  8
0
 10
183.798289
 20
1014.500000
 42
-0.003497
  0
VERTEX
  8
0
 10
185.943064
 20
1021.506544
 42
-0.013816
  0
VERTEX
  8
0
 10
187.411067
 20
1025.769029
 42
-0.013801
  0
VERTEX
  8
0
 10
188.540214
 20
1028.540316
 42
-0.297403
  0
VERTEX
  8
0
 10
189.244690
 20
1029.000000
 42
0.192707
  0
VERTEX
  8
0
 10
189.533157
 20
1029.115467
 42
0.087668
  0
VERTEX
  8
0
 10
189.778128
 20
1029.448355
 42
0.067504
  0
VERTEX
  8
0
 10
189.944362
 20
1029.942162
 42
0.047515
  0
VERTEX
  8
0
 10
190.000000
 20
1030.526316
 42
-0.183516
  0
VERTEX
  8
0
 10
190.788354
 20
1032.601898
 42
-0.017797
  0
VERTEX
  8
0
 10
194.567128
 20
1036.565145
 42
-0.023557
  0
VERTEX
  8
0
 10
198.880438
 20
1040.398300
 42
-0.048538
  0
VERTEX
  8
0
 10
202.646902
 20
1042.879022
 42
-0.067805
  0
VERTEX
  8
0
 10
206.730283
 20
1044.369657
 42
-0.053955
  0
VERTEX
  8
0
 10
211.399600
 20
1044.870298
 42
-0.047184
  0
VERTEX
  8
0
 10
216.651900
 20
1044.368277
 42
-0.031912
  0
SEQEND
  0
POLYLINE
  8
0
 66
1
 70
1
  0
VERTEX
  8
0
 10
295.000000
 20
811.000000
 42
0.234722
  0
VERTEX
  8
0
 10
295.190415
 20
810.616728
 42
0.071551
  0
VERTEX
  8
0
 10
295.773635
 20
810.293750
 42
0.054649
  0
VERTEX
  8
0
 10
296.624997
 20
810.073006
 42
0.036143
  0
VERTEX
  8
0
 10
297.633651
 20
810.000000
 42
-0.191498
  0
VERTEX
  8
0
 10
301.207434
 20
808.579150
 42
-0.087914
  0
VERTEX
  8
0
 10
304.246002
 20
804.485991
 42
-0.067870
  0
VERTEX
  8
0
 10
306.308993
 20
798.417188
 42
-0.048074
  0
VERTEX
  8
0
 10
307.000000
 20
791.246849
 42
-0.023911
  0
VERTEX
  8
0
 10
306.709628
 20
785.178259
 42
-0.007618
  0
VERTEX
  8
0
 10
305.708697
 20
776.186427
 42
-0.001781
  0
VERTEX
  8
0
 10
304.455328
 20
766.573773
 42
-0.375712
  0
VERTEX
  8
0
 10
303.799533
 20
766.000000
 42
0.305134
  0
VERTEX
  8
0
 10
303.489333
 20
765.791259
 42
0.039483
  0
VERTEX
  8
0
 10
303.234863
 20
764.989211
 42
0.035182
  0
VERTEX
  8
0
 10
303.057823
 20
763.877822
 42
0.021912
  0
VERTEX
  8
0
 10
303.000000
 20
762.559017
 42
-0.021655
  0
VERTEX
  8
0
 10
302.941335
 20
761.205111
 42
-0.028599
  0
VERTEX
  8
0
 10
302.764420
 20
759.983227
 42
-0.028641
  0
VERTEX
  8
0
 10
302.509649
 20
759.018676
 42
-0.177252
  0
VERTEX
  8
0
 10
302.198027
 20
758.622387
 42
0.149650
  0
VERTEX
  8
0
 10
301.817484
 20
758.188618
 42
0.012297
  0
VERTEX
  8
0
 10
301.226612
 20
756.784972
 42
0.015616
  0
VERTEX
  8
0
 10
300.603836
 20
755.038953
 42
0.011382
  0
VERTEX
  8
0
 10
300.017256
 20
753.063370
 42
-0.014112
  0
VERTEX
  8
0
 10
299.429549
 20
751.122890
 42
-0.021816
  0
VERTEX
  8
0
 10
298.802832
 20
749.487365
 42
-0.017612
  0
VERTEX
  8
0
 10
298.205679
 20
748.234495
 42
-0.279667
  0
VERTEX
  8
0
 10
297.819229
 20
748.000000
 42
0.257544
  0
VERTEX
  8
0
 10
297.504312
 20
747.826266
 42
0.061544
  0
VERTEX
  8
0
 10
297.240649
 20
747.265625
 42
0.048134
  0
VERTEX
  8
0
 10
297.059590
 20
746.457738
 42
0.031079
  0
VERTEX
  8
0
 10
297.000000
 20
745.500000
 42
-0.038131
  0
VERTEX
  8
0
 10
296.926884
 20
744.542644
 42
-0.057076
  0
VERTEX
  8
0
 10
296.706250
 20
743.734375
 42
-0.074992
  0
VERTEX
  8
0
 10
296.382936
 20
743.182831
 42
-0.226478
  0
VERTEX
  8
0
 10
296.000000
 20
743.000000
 42
0.226478
  0
VERTEX
  8
0
 10
295.617064
 20
742.817169
 42
0.074992
  0
VERTEX
  8
0
 10
295.293750
 20
742.265625
 42
0.057076
  0
VERTEX
  8
0
 10
295.073116
 20
741.457356
 42
0.038131
  0
VERTEX
  8
0
 10
295.000000
 20
740.500000
 42
-0.038131
  0
VERTEX
  8
0
 10
294.926884
 20
739.542644
 42
-0.057076
  0
VERTEX
  8
0
 10
294.706250
 20
738.734375
 42
-0.074992
  0
VERTEX
  8
0
 10
294.382936
 20
738.182831
 42
-0.226478
  0
VERTEX
  8
0
 10
294.000000
 20
738.000000
 42
0.226478
  0
VERTEX
  8
0
 10
293.617064
 20
737.817169
 42
0.074992
  0
VERTEX
  8
0
 10
293.293750
 20
737.265625
 42
0.057076
  0
VERTEX
  8
0
 10
293.073116
 20
736.457356
 42
0.038131
  0
VERTEX
  8
0
 10
293.000000
 20
735.500000
 42
-0.038131
  0
VERTEX
  8
0
 10
292.926884
 20
734.542644
 42
-0.057076
  0
VERTEX
  8
0
 10
292.706250
 20
733.734375
 42
-0.074992
  0
VERTEX
  8
0
 10
292.382936
 20
733.182831
 42
-0.226478
  0
VERTEX
  8
0
 10
292.000000
 20
733.000000
 42
0.149454
  0
VERTEX
  8
0
 10
291.618641
 20
732.883405
 42
0.098698
  0
VERTEX
  8
0
 10
291.293750
 20
732.555389
 42
0.081991
  0
VERTEX
  8
0
 10
291.074659
 20
732.065097
 42
0.064244
  0
VERTEX
  8
0
 10
291.000000
 20
731.486431
 42
-0.048334
  0
VERTEX
  8
0
 10
290.931788
 20
730.782455
 42
-0.023747
  0
VERTEX
  8
0
 10
290.717023
 20
729.907397
 42
-0.023311
  0
VERTEX
  8
0
 10
290.405567
 20
729.012061
 42
-0.031289
  0
VERTEX
  8
0
 10
290.036674
 20
728.236431
 42
0.015991
  0
VERTEX
  8
0
 10
288.389219
 20
725.029190
 42
0.010722
  0
VERTEX
  8
0
 10
286.703853
 20
721.266307
 42
0.007198
  0
VERTEX
  8
0
 10
285.262678
 20
717.712465
 42
0.092983
  0
VERTEX
  8
0
 10
285.000000
 20
716.312171
 42
-0.055103
  0
VERTEX
  8
0
 10
284.944388
 20
715.809080
 42
-0.073634
  0
VERTEX
  8
0
 10
284.779688
 20
715.380883
 42
-0.092080
  0
VERTEX
  8
0
 10
284.536227
 20
715.090564
 42
-0.168721
  0
VERTEX
  8
0
 10
284.250000
 20
714.984451
 42
0.238003
  0
VERTEX
  8
0
 10
283.852466
 20
714.773410
 42
0.011731
  0
VERTEX
  8
0
 10
282.999098
 20
713.504326
 42
0.016867
  0
VERTEX
  8
0
 10
282.039996
 20
711.885223
 42
0.011178
  0
VERTEX
  8
0
 10
281.044802
 20
709.967562
 42
-0.053706
  0
VERTEX
  8
0
 10
277.202873
 20
703.889099
 42
-0.032662
  0
VERTEX
  8
0
 10
271.489128
 20
697.584416
 42
-0.031911
  0
VERTEX
  8
0
 10
265.429945
 20
692.424372
 42
-0.109858
  0
VERTEX
  8
0
 10
260.750000
 20
690.318769
 42
0.028712
  0
VERTEX
  8
0
 10
259.696784
 20
690.037059
 42
0.041195
  0
VERTEX
  8
0
 10
258.807813
 20
689.660045
 42
0.047714
  0
VERTEX
  8
0
 10
258.180388
 20
689.250044
 42
0.227989
  0
VERTEX
  8
0
 10
258.000000
 20
688.875000
 42
-0.408026
  0
VERTEX
  8
0
 10
257.205104
 20
688.063094
 42
-0.007309
  0
VERTEX
  8
0
 10
250.534424
 20
688.019377
 42
-0.008283
  0
VERTEX
  8
0
 10
243.897113
 20
688.182891
 42
-0.248967
  0
VERTEX
  8
0
 10
242.500000
 20
689.000000
 42
0.130646
  0
VERTEX
  8
0
 10
242.093337
 20
689.384508
 42
0.045439
  0
VERTEX
  8
0
 10
241.346475
 20
689.706250
 42
0.041396
  0
VERTEX
  8
0
 10
240.420660
 20
689.926158
 42
0.037634
  0
VERTEX
  8
0
 10
239.440983
 20
690.000000
 42
-0.032317
  0
VERTEX
  8
0
 10
238.505917
 20
690.060500
 42
-0.049770
  0
VERTEX
  8
0
 10
237.717039
 20
690.244112
 42
-0.064153
  0
VERTEX
  8
0
 10
237.171563
 20
690.511836
 42
-0.251723
  0
VERTEX
  8
0
 10
237.000000
 20
690.831020
 42
0.193262
  0
VERTEX
  8
0
 10
236.836642
 20
691.237870
 42
0.030627
  0
VERTEX
  8
0
 10
236.192187
 20
691.833360
 42
0.030169
  0
VERTEX
  8
0
 10
235.303134
 20
692.473953
 42
0.022269
  0
VERTEX
  8
0
 10
234.250000
 20
693.076274
 42
-0.057157
  0
VERTEX
  8
0
 10
231.519079
 20
694.901562
 42
-0.025401
  0
VERTEX
  8
0
 10
228.357665
 20
697.871431
 42
-0.020461
  0
VERTEX
  8
0
 10
225.615124
 20
700.967502
 42
-0.172688
  0
VERTEX
  8
0
 10
225.000000
 20
702.695417
 42
0.055999
  0
VERTEX
  8
0
 10
224.943934
 20
703.194441
 42
0.075488
  0
VERTEX
  8
0
 10
224.777958
 20
703.616779
 42
0.094779
  0
VERTEX
  8
0
 10
224.532489
 20
703.899986
 42
0.168485
  0
VERTEX
  8
0
 10
224.244111
 20
704.000000
 42
-0.228521
  0
VERTEX
  8
0
 10
223.876550
 20
704.177247
 42
-0.025504
  0
VERTEX
  8
0
 10
223.320181
 20
704.954687
 42
-0.026938
  0
VERTEX
  8
0
 10
222.723995
 20
706.004975
 42
-0.018634
  0
VERTEX
  8
0
 10
222.160278
 20
707.250000
 42
0.004039
  0
VERTEX
  8
0
 10
221.566722
 20
708.669799
 42
0.002877
  0
VERTEX
  8
0
 10
220.879856
 20
710.250976
 42
0.002904
  0
VERTEX
  8
0
 10
220.207208
 20
711.751695
 42
0.006190
  0
VERTEX
  8
0
 10
219.666167
 20
712.902260
 42
-0.106742
  0
VERTEX
  8
0
 10
218.663335
 20
717.013401
 42
-0.007858
  0
VERTEX
  8
0
 10
218.536572
 20
728.681771
 42
-0.005464
  0
VERTEX
  8
0
 10
218.726000
 20
740.684436
 42
-0.191980
  0
VERTEX
  8
0
 10
219.813261
 20
743.213261
 42
0.050294
  0
VERTEX
  8
0
 10
220.267512
 20
743.769403
 42
0.038053
  0
VERTEX
  8
0
 10
220.651395
 20
744.458406
 42
0.038970
  0
VERTEX
  8
0
 10
220.914187
 20
745.168711
 42
0.069223
  0
VERTEX
  8
0
 10
221.000000
 20
745.785568
 42
-0.109599
  0
VERTEX
  8
0
 10
221.488431
 20
747.987059
 42
-0.007943
  0
VERTEX
  8
0
 10
224.227661
 20
753.621092
 42
-0.004581
  0
VERTEX
  8
0
 10
227.228761
 20
759.419742
 42
-0.277847
  0
VERTEX
  8
0
 10
228.192354
 20
760.000000
 42
0.144363
  0
VERTEX
  8
0
 10
228.500344
 20
760.090818
 42
0.099437
  0
VERTEX
  8
0
 10
228.762754
 20
760.346141
 42
0.083745
  0
VERTEX
  8
0
 10
228.939585
 20
760.727916
 42
0.066764
  0
VERTEX
  8
0
 10
229.000000
 20
761.178353
 42
-0.198285
  0
VERTEX
  8
0
 10
229.634203
 20
762.714694
 42
-0.001236
  0
VERTEX
  8
0
 10
240.424625
 20
773.503833
 42
-0.004888
  0
VERTEX
  8
0
 10
250.442503
 20
783.278115
 42
-0.025389
  0
VERTEX
  8
0
 10
256.287270
 20
788.327817
 42
0.007397
  0
VERTEX
  8
0
 10
257.983357
 20
789.689796
 42
0.003595
  0
VERTEX
  8
0
 10
260.111544
 20
791.477104
 42
0.003564
  0
VERTEX
  8
0
 10
262.300662
 20
793.369688
 42
0.005135
  0
VERTEX
  8
0
 10
264.208306
 20
795.077817
 42
-0.006439
  0
VERTEX
  8
0
 10
265.895644
 20
796.580773
 42
-0.009588
  0
VERTEX
  8
0
 10
267.413441
 20
797.847859
 42
-0.005179
  0
VERTEX
  8
0
 10
268.715755
 20
798.871339
 42
-0.165415
  0
VERTEX
  8
0
 10
269.094017
 20
799.000000
 42
0.147304
  0
VERTEX
  8
0
 10
269.454455
 20
799.108543
 42
0.009482
  0
VERTEX
  8
0
 10
270.367671
 20
799.738646
 42
0.013199
  0
VERTEX
  8
0
 10
271.438115
 20
800.551274
 42
0.009414
  0
VERTEX
  8
0
 10
272.594461
 20
801.514539
 42
-0.018817
  0
VERTEX
  8
0
 10
273.907675
 20
802.567296
 42
-0.013337
  0
VERTEX
  8
0
 10
275.454310
 20
803.651620
 42
-0.013488
  0
VERTEX
  8
0
 10
276.989142
 20
804.609201
 42
-0.027602
  0
VERTEX
  8
0
 10
278.250000
 20
805.258651
 42
0.021390
  0
VERTEX
  8
0
 10
279.303270
 20
805.784732
 42
0.029841
  0
VERTEX
  8
0
 10
280.192187
 20
806.349078
 42
0.029977
  0
VERTEX
  8
0
 10
280.839880
 20
806.878507
 42
0.209380
  0
VERTEX
  8
0
 10
281.000000
 20
807.244111
 42
-0.235453
  0
VERTEX
  8
0
 10
281.144446
 20
807.533846
 42
-0.071241
  0
VERTEX
  8
0
 10
281.587500
 20
807.777958
 42
-0.054436
  0
VERTEX
  8
0
 10
282.234019
 20
807.944823
 42
-0.035971
  0
VERTEX
  8
0
 10
283.000000
 20
808.000000
 42
0.048028
  0
VERTEX
  8
0
 10
283.765418
 20
808.073693
 42
0.068025
  0
VERTEX
  8
0
 10
284.412500
 20
808.293750
 42
0.088204
  0
VERTEX
  8
0
 10
284.848523
 20
808.618118
 42
0.191087
  0
VERTEX
  8
0
 10
285.000000
 20
809.000000
 42
-0.240619
  0
VERTEX
  8
0
 10
285.196513
 20
809.384706
 42
-0.068254
  0
VERTEX
  8
0
 10
285.807813
 20
809.710748
 42
-0.052525
  0
VERTEX
  8
0
 10
286.696704
 20
809.936515
 42
-0.034565
  0
VERTEX
  8
0
 10
287.750000
 20
810.015313
 42
0.030314
  0
VERTEX
  8
0
 10
288.912899
 20
810.092383
 42
0.025227
  0
VERTEX
  8
0
 10
290.132812
 20
810.310881
 42
0.025965
  0
VERTEX
  8
0
 10
291.231737
 20
810.626398
 42
0.060630
  0
VERTEX
  8
0
 10
292.000000
 20
811.000000
 42
-0.031558
  0
VERTEX
  8
0
 10
293.301377
 20
811.729028
 42
-0.112355
  0
VERTEX
  8
0
 10
294.227035
 20
811.939692
 42
-0.234725
  0
VERTEX
  8
0
 10
294.775753
 20
811.667076
 42
-0.163584
  0
SEQEND
  0
POLYLINE
  8
0
 66
1
 70
1
  0
VERTEX
  8
0
 10
123.000000
 20
570.684428
 42
-0.083863
  0
VERTEX
  8
0
 10
126.764094
 20
568.090506
 42
-0.007366
  0
VERTEX
  8
0
 10
134.977684
 20
559.875982
 42
-0.010575
  0
VERTEX
  8
0
 10
143.270587
 20
550.964504
 42
-0.020176
  0
VERTEX
  8
0
 10
149.481700
 20
543.407627
 42
0.004009
  0
VERTEX
  8
0
 10
151.901567
 20
540.261384
 42
0.004841
  0
VERTEX
  8
0
 10
154.225714
 20
537.347785
 42
0.004141
  0
VERTEX
  8
0
 10
156.224726
 20
534.932098
 42
0.032610
  0
VERTEX
  8
0
 10
157.231700
 20
533.882705
 42
-0.038897
  0
VERTEX
  8
0
 10
157.908345
 20
533.159594
 42
-0.036536
  0
VERTEX
  8
0
 10
158.480562
 20
532.325731
 42
-0.038686
  0
VERTEX
  8
0
 10
158.876012
 20
531.509269
 42
-0.093701
  0
VERTEX
  8
0
 10
159.000000
 20
530.853464
 42
0.108353
  0
VERTEX
  8
0
 10
159.141194
 20
530.209565
 42
0.044932
  0
VERTEX
  8
0
 10
159.587500
 20
529.432831
 42
0.041686
  0
VERTEX
  8
0
 10
160.234793
 20
528.655949
 42
0.042098
  0
VERTEX
  8
0
 10
161.000000
 20
528.000000
 42
-0.034062
  0
VERTEX
  8
0
 10
161.765363
 20
527.364939
 42
-0.037324
  0
VERTEX
  8
0
 10
162.412500
 20
526.649718
 42
-0.040344
  0
VERTEX
  8
0
 10
162.863901
 20
525.961046
 42
-0.125545
  0
VERTEX
  8
0
 10
163.000000
 20
525.427555
 42
0.134328
  0
VERTEX
  8
0
 10
163.168959
 20
524.809997
 42
0.019584
  0
VERTEX
  8
0
 10
163.881250
 20
523.706694
 42
0.020978
  0
VERTEX
  8
0
 10
164.851283
 20
522.442230
 42
0.016599
  0
VERTEX
  8
0
 10
166.000000
 20
521.157416
 42
-0.007381
  0
VERTEX
  8
0
 10
167.149511
 20
519.918456
 42
-0.010869
  0
VERTEX
  8
0
 10
168.118750
 20
518.794156
 42
-0.006408
  0
VERTEX
  8
0
 10
168.893121
 20
517.830493
 42
-0.167567
  0
VERTEX
  8
0
 10
169.000000
 20
517.520533
 42
0.152424
  0
VERTEX
  8
0
 10
169.150453
 20
517.038465
 42
0.013396
  0
VERTEX
  8
0
 10
169.914659
 20
515.994352
 42
0.009159
  0
VERTEX
  8
0
 10
171.263169
 20
514.316284
 42
0.001349
  0
VERTEX
  8
0
 10
174.062362
 20
510.979129
 42
-0.007791
  0
VERTEX
  8
0
 10
174.797896
 20
510.078931
 42
-0.003523
  0
VERTEX
  8
0
 10
175.734961
 20
508.877606
 42
-0.003486
  0
VERTEX
  8
0
 10
176.706330
 20
507.595645
 42
-0.004761
  0
VERTEX
  8
0
 10
177.562362
 20
506.426321
 42
0.017516
  0
VERTEX
  8
0
 10
178.579889
 20
505.108286
 42
0.006373
  0
VERTEX
  8
0
 10
180.109792
 20
503.311006
 42
0.006310
  0
VERTEX
  8
0
 10
181.834855
 20
501.385619
 42
0.007491
  0
VERTEX
  8
0
 10
183.513527
 20
499.612982
 42
-0.008883
  0
VERTEX
  8
0
 10
185.214223
 20
497.807041
 42
-0.006853
  0
VERTEX
  8
0
 10
187.006122
 20
495.780079
 42
-0.006935
  0
VERTEX
  8
0
 10
188.628362
 20
493.839745
 42
-0.016433
  0
VERTEX
  8
0
 10
189.767195
 20
492.340478
 42
0.039270
  0
VERTEX
  8
0
 10
193.509803
 20
487.854015
 42
0.002930
  0
VERTEX
  8
0
 10
204.709983
 20
476.523428
 42
0.003264
  0
VERTEX
  8
0
 10
215.964334
 20
465.416668
 42
0.032537
  0
VERTEX
  8
0
 10
220.996836
 20
461.115358
 42
-0.026369
  0
VERTEX
  8
0
 10
224.231919
 20
458.418595
 42
-0.007330
  0
VERTEX
  8
0
 10
229.008448
 20
453.857947
 42
-0.007657
  0
VERTEX
  8
0
 10
234.022966
 20
448.774175
 42
-0.010978
  0
VERTEX
  8
0
 10
238.296391
 20
444.105926
 42
-0.052008
  0
VERTEX
  8
0
 10
241.060287
 20
440.196477
 42
-0.016813
  0
VERTEX
  8
0
 10
244.324581
 20
433.893287
 42
-0.017282
  0
VERTEX
  8
0
 10
247.231789
 20
427.198236
 42
-0.036714
  0
VERTEX
  8
0
 10
248.909542
 20
421.807180
 42
-0.040140
  0
VERTEX
  8
0
 10
249.781029
 20
415.964975
 42
-0.035520
  0
VERTEX
  8
0
 10
249.761532
 20
409.811113
 42
-0.034716
  0
VERTEX
  8
0
 10
248.860388
 20
403.578155
 42
-0.034237
  0
VERTEX
  8
0
 10
247.103148
 20
397.500000
 42
-0.026934
  0
VERTEX
  8
0
 10
245.002106
 20
392.581881
 42
-0.014524
  0
VERTEX
  8
0
 10
241.919813
 20
386.756085
 42
-0.013659
  0
VERTEX
  8
0
 10
238.682902
 20
381.392652
 42
-0.052413
  0
VERTEX
  8
0
 10
236.250000
 20
378.353422
 42
0.014046
  0
VERTEX
  8
0
 10
235.005321
 20
377.021855
 42
0.018643
  0
VERTEX
  8
0
 10
233.954688
 20
375.739270
 42
0.016170
  0
VERTEX
  8
0
 10
233.168742
 20
374.630627
 42
0.147137
  0
VERTEX
  8
0
 10
233.000000
 20
374.069624
 42
-0.179563
  0
VERTEX
  8
0
 10
232.760781
 20
373.424985
 42
-0.003357
  0
VERTEX
  8
0
 10
230.351137
 20
370.663098
 42
-0.007764
  0
VERTEX
  8
0
 10
227.438573
 20
367.470951
 42
-0.005060
  0
VERTEX
  8
0
 10
223.982595
 20
363.873043
 42
0.003339
  0
VERTEX
  8
0
 10
220.366517
 20
360.134312
 42
0.003812
  0
VERTEX
  8
0
 10
216.958227
 20
356.508055
 42
0.003454
  0
VERTEX
  8
0
 10
214.111138
 20
353.389295
 42
0.021461
  0
VERTEX
  8
0
 10
212.732595
 20
351.719244
 42
-0.019773
  0
VERTEX
  8
0
 10
211.426751
 20
350.126348
 42
-0.004218
  0
VERTEX
  8
0
 10
209.026137
 20
347.468928
 42
-0.004404
  0
VERTEX
  8
0
 10
206.189355
 20
344.435510
 42
-0.004179
  0
VERTEX
  8
0
 10
203.250000
 20
341.398620
 42
0.003951
  0
VERTEX
  8
0
 10
200.471093
 20
338.530119
 42
0.006176
  0
VERTEX
  8
0
 10
198.129687
 20
336.013167
 42
0.002150
  0
VERTEX
  8
0
 10
196.156449
 20
333.819865
 42
0.184122
  0
VERTEX
  8
0
 10
196.000000
 20
333.409416
 42
-0.208139
  0
VERTEX
  8
0
 10
195.474817
 20
332.202454
 42
-0.004445
  0
VERTEX
  8
0
 10
190.594013
 20
327.736253
 42
-0.007136
  0
VERTEX
  8
0
 10
185.790385
 20
323.540885
 42
-0.099402
  0
VERTEX
  8
0
 10
183.788158
 20
322.432764
 42
0.044400
  0
VERTEX
  8
0
 10
183.103989
 20
322.146664
 42
0.053356
  0
VERTEX
  8
0
 10
182.525271
 20
321.757984
 42
0.062148
  0
VERTEX
  8
0
 10
182.128607
 20
321.331018
 42
0.157403
  0
VERTEX
  8
0
 10
182.000000
 20
320.932612
 42
-0.158110
  0
VERTEX
  8
0
 10
181.884635
 20
320.576906
 42
-0.097128
  0
VERTEX
  8
0
 10
181.559375
 20
320.273955
 42
-0.079016
  0
VERTEX
  8
0
 10
181.073619
 20
320.069412
 42
-0.060283
  0
VERTEX
  8
0
 10
180.500000
 20
320.000000
 42
0.064853
  0
VERTEX
  8
0
 10
179.926543
 20
319.925306
 42
0.082425
  0
VERTEX
  8
0
 10
179.440625
 20
319.706250
 42
0.098894
  0
VERTEX
  8
0
 10
179.115568
 20
319.381354
 42
0.148195
  0
VERTEX
  8
0
 10
179.000000
 20
319.000000
 42
-0.148195
  0
VERTEX
  8
0
 10
178.884432
 20
318.618646
 42
-0.098894
  0
VERTEX
  8
0
 10
178.559375
 20
318.293750
 42
-0.082425
  0
VERTEX
  8
0
 10
178.073457
 20
318.074694
 42
-0.064853
  0
VERTEX
  8
0
 10
177.500000
 20
318.000000
 42
0.064853
  0
VERTEX
  8
0
 10
176.926543
 20
317.925306
 42
0.082425
  0
VERTEX
  8
0
 10
176.440625
 20
317.706250
 42
0.098894
  0
VERTEX
  8
0
 10
176.115568
 20
317.381354
 42
0.148195
  0
VERTEX
  8
0
 10
176.000000
 20
317.000000
 42
-0.186414
  0
VERTEX
  8
0
 10
175.852535
 20
316.618213
 42
-0.089706
  0
VERTEX
  8
0
 10
175.429836
 20
316.293750
 42
-0.069539
  0
VERTEX
  8
0
 10
174.801778
 20
316.073784
 42
-0.049547
  0
VERTEX
  8
0
 10
174.059017
 20
316.000000
 42
0.046881
  0
VERTEX
  8
0
 10
173.270704
 20
315.925923
 42
0.046318
  0
VERTEX
  8
0
 10
172.506650
 20
315.706250
 42
0.050262
  0
VERTEX
  8
0
 10
171.876024
 20
315.383556
 42
0.111412
  0
VERTEX
  8
0
 10
171.500000
 20
315.000000
 42
-0.146547
  0
VERTEX
  8
0
 10
171.065839
 20
314.614422
 42
-0.040338
  0
VERTEX
  8
0
 10
170.199600
 20
314.293750
 42
-0.037109
  0
VERTEX
  8
0
 10
169.112115
 20
314.073612
 42
-0.031397
  0
VERTEX
  8
0
 10
167.940983
 20
314.000000
 42
0.032276
  0
VERTEX
  8
0
 10
166.814380
 20
313.927200
 42
0.049716
  0
VERTEX
  8
0
 10
165.863914
 20
313.706250
 42
0.064068
  0
VERTEX
  8
0
 10
165.206632
 20
313.384097
 42
0.251914
  0
VERTEX
  8
0
 10
165.000000
 20
313.000000
 42
-0.345347
  0
VERTEX
  8
0
 10
164.685898
 20
312.599474
 42
-0.022017
  0
VERTEX
  8
0
 10
163.125000
 20
312.288462
 42
-0.024301
  0
VERTEX
  8
0
 10
161.036573
 20
312.070361
 42
-0.013867
  0
VERTEX
  8
0
 10
158.500000
 20
312.000000
 42
-0.013867
  0
VERTEX
  8
0
 10
155.963427
 20
312.070361
 42
-0.024301
  0
VERTEX
  8
0
 10
153.875000
 20
312.288462
 42
-0.022017
  0
VERTEX
  8
0
 10
152.314102
 20
312.599474
 42
-0.345347
  0
VERTEX
  8
0
 10
152.000000
 20
313.000000
 42
0.217696
  0
VERTEX
  8
0
 10
151.825124
 20
313.382617
 42
0.078528
  0
VERTEX
  8
0
 10
151.305064
 20
313.706250
 42
0.059710
  0
VERTEX
  8
0
 10
150.540082
 20
313.926757
 42
0.040363
  0
VERTEX
  8
0
 10
149.634262
 20
314.000000
 42
-0.167780
  0
VERTEX
  8
0
 10
146.911899
 20
314.939976
 42
-0.018413
  0
VERTEX
  8
0
 10
141.788742
 20
319.270491
 42
-0.017473
  0
VERTEX
  8
0
 10
136.981353
 20
323.964952
 42
-0.192926
  0
VERTEX
  8
0
 10
136.000000
 20
326.413623
 42
0.061159
  0
VERTEX
  8
0
 10
135.925521
 20
327.020240
 42
0.079698
  0
VERTEX
  8
0
 10
135.706250
 20
327.534002
 42
0.097522
  0
VERTEX
  8
0
 10
135.381395
 20
327.877936
 42
0.156123
  0
VERTEX
  8
0
 10
135.000000
 20
328.000000
 42
-0.148195
  0
VERTEX
  8
0
 10
134.618646
 20
328.115568
 42
-0.098894
  0
VERTEX
  8
0
 10
134.293750
 20
328.440625
 42
-0.082425
  0
VERTEX
  8
0
 10
134.074694
 20
328.926543
 42
-0.064853
  0
VERTEX
  8
0
 10
134.000000
 20
329.500000
 42
0.064853
  0
VERTEX
  8
0
 10
133.925306
 20
330.073457
 42
0.082425
  0
VERTEX
  8
0
 10
133.706250
 20
330.559375
 42
0.098894
  0
VERTEX
  8
0
 10
133.381354
 20
330.884432
 42
0.148195
  0
VERTEX
  8
0
 10
133.000000
 20
331.000000
 42
-0.254951
  0
VERTEX
  8
0
 10
132.615738
 20
331.209557
 42
-0.062710
  0
VERTEX
  8
0
 10
132.293750
 20
331.881250
 42
-0.048861
  0
VERTEX
  8
0
 10
132.072766
 20
332.850749
 42
-0.031626
  0
VERTEX
  8
0
 10
132.000000
 20
334.000000
 42
0.031626
  0
VERTEX
  8
0
 10
131.927234
 20
335.149251
 42
0.048861
  0
VERTEX
  8
0
 10
131.706250
 20
336.118750
 42
0.062710
  0
VERTEX
  8
0
 10
131.384262
 20
336.790443
 42
0.254951
  0
VERTEX
  8
0
 10
131.000000
 20
337.000000
 42
-0.254951
  0
VERTEX
  8
0
 10
130.615738
 20
337.209557
 42
-0.062710
  0
VERTEX
  8
0
 10
130.293750
 20
337.881250
 42
-0.048861
  0
VERTEX
  8
0
 10
130.072766
 20
338.850749
 42
-0.031626
  0
VERTEX
  8
0
 10
130.000000
 20
340.000000
 42
0.031626
  0
VERTEX
  8
0
 10
129.927234
 20
341.149251
 42
0.048861
  0
VERTEX
  8
0
 10
129.706250
 20
342.118750
 42
0.062710
  0
VERTEX
  8
0
 10
129.384262
 20
342.790443
 42
0.254951
  0
VERTEX
  8
0
 10
129.000000
 20
343.000000
 42
-0.308946
  0
VERTEX
  8
0
 10
128.611648
 20
343.265280
 42
-0.037703
  0
VERTEX
  8
0
 10
128.293750
 20
344.304539
 42
-0.034160
  0
VERTEX
  8
0
 10
128.072294
 20
345.738865
 42
-0.021227
  0
VERTEX
  8
0
 10
128.000000
 20
347.440983
 42
0.020930
  0
VERTEX
  8
0
 10
127.926887
 20
349.186816
 42
0.027868
  0
VERTEX
  8
0
 10
127.706250
 20
350.758975
 42
0.027581
  0
VERTEX
  8
0
 10
127.388891
 20
352.000298
 42
0.179846
  0
VERTEX
  8
0
 10
127.000000
 20
352.500000
 42
-0.186738
  0
VERTEX
  8
0
 10
126.610188
 20
353.014908
 42
-0.024736
  0
VERTEX
  8
0
 10
126.293750
 20
354.370564
 42
-0.025914
  0
VERTEX
  8
0
 10
126.073011
 20
356.085157
 42
-0.019058
  0
VERTEX
  8
0
 10
126.000000
 20
358.000000
 42
0.016427
  0
VERTEX
  8
0
 10
125.937271
 20
359.908782
 42
0.023003
  0
VERTEX
  8
0
 10
125.747103
 20
361.604188
 42
0.020512
  0
VERTEX
  8
0
 10
125.476001
 20
362.950461
 42
0.196858
  0
VERTEX
  8
0
 10
125.139072
 20
363.414049
 42
-0.189272
  0
VERTEX
  8
0
 10
124.770635
 20
363.905706
 42
-0.012853
  0
VERTEX
  8
0
 10
124.341759
 20
365.633681
 42
-0.016980
  0
VERTEX
  8
0
 10
123.943236
 20
367.779640
 42
-0.011841
  0
VERTEX
  8
0
 10
123.633778
 20
370.223066
 42
0.005130
  0
VERTEX
  8
0
 10
123.320898
 20
372.991033
 42
0.003520
  0
VERTEX
  8
0
 10
122.911640
 20
376.124901
 42
0.003548
  0
VERTEX
  8
0
 10
122.474813
 20
379.137595
 42
0.007193
  0
VERTEX
  8
0
 10
122.080291
 20
381.500000
 42
-0.000871
  0
VERTEX
  8
0
 10
121.652440
 20
383.876613
 42
-0.000413
  0
VERTEX
  8
0
 10
121.108955
 20
386.940625
 42
-0.000409
  0
VERTEX
  8
0
 10
120.545779
 20
390.146281
 42
-0.000580
  0
VERTEX
  8
0
 10
120.050249
 20
393.000000
 42
0.000020
  0
VERTEX
  8
0
 10
119.545826
 20
395.924335
 42
0.000013
  0
VERTEX
  8
0
 10
118.954156
 20
399.353125
 42
0.000013
  0
VERTEX
  8
0
 10
118.370501
 20
402.734450
 42
0.000023
  0
VERTEX
  8
0
 10
117.892933
 20
405.500000
 42
-0.006265
  0
VERTEX
  8
0
 10
117.396530
 20
408.605305
 42
-0.001970
  0
VERTEX
  8
0
 10
116.730511
 20
413.262500
 42
-0.001968
  0
VERTEX
  8
0
 10
116.028179
 20
418.465697
 42
-0.002179
  0
VERTEX
  8
0
 10
115.391113
 20
423.500000
 42
0.001427
  0
VERTEX
  8
0
 10
114.759453
 20
428.552608
 42
0.001263
  0
VERTEX
  8
0
 10
114.073319
 20
433.810938
 42
0.001268
  0
VERTEX
  8
0
 10
113.431375
 20
438.543713
 42
0.003875
  0
VERTEX
  8
0
 10
112.962843
 20
441.750000
 42
-0.000017
  0
VERTEX
  8
0
 10
112.521983
 20
444.612339
 42
-0.000009
  0
VERTEX
  8
0
 10
111.989085
 20
448.073438
 42
-0.000009
  0
VERTEX
  8
0
 10
111.452666
 20
451.558280
 42
-0.000016
  0
VERTEX
  8
0
 10
111.000000
 20
454.500000
 42
0.000099
  0
VERTEX
  8
0
 10
110.541530
 20
457.476144
 42
0.000056
  0
VERTEX
  8
0
 10
109.986230
 20
461.073438
 42
0.000056
  0
VERTEX
  8
0
 10
109.426432
 20
464.694466
 42
0.000093
  0
VERTEX
  8
0
 10
108.953123
 20
467.750000
 42
-0.004599
  0
VERTEX
  8
0
 10
108.513035
 20
470.770789
 42
-0.002962
  0
VERTEX
  8
0
 10
108.055911
 20
474.279687
 42
-0.002977
  0
VERTEX
  8
0
 10
107.649487
 20
477.717721
 42
-0.005598
  0
VERTEX
  8
0
 10
107.368868
 20
480.500000
 42
0.012689
  0
VERTEX
  8
0
 10
107.096155
 20
482.867172
 42
0.016511
  0
VERTEX
  8
0
 10
106.720346
 20
485.016563
 42
0.014190
  0
VERTEX
  8
0
 10
106.302153
 20
486.767160
 42
0.126715
  0
VERTEX
  8
0
 10
105.915746
 20
487.450000
 42
-0.142063
  0
VERTEX
  8
0
 10
105.557680
 20
488.129788
 42
-0.016932
  0
VERTEX
  8
0
 10
105.269000
 20
489.824688
 42
-0.019109
  0
VERTEX
  8
0
 10
105.066923
 20
491.909424
 42
-0.014605
  0
VERTEX
  8
0
 10
105.000000
 20
494.200000
 42
0.016132
  0
VERTEX
  8
0
 10
104.928089
 20
496.428259
 42
0.026559
  0
VERTEX
  8
0
 10
104.706897
 20
498.300000
 42
0.024946
  0
VERTEX
  8
0
 10
104.392598
 20
499.701452
 42
0.337031
  0
VERTEX
  8
0
 10
104.000000
 20
500.000000
 42
-0.338832
  0
VERTEX
  8
0
 10
103.605690
 20
500.301865
 42
-0.024323
  0
VERTEX
  8
0
 10
103.292081
 20
501.735246
 42
-0.026076
  0
VERTEX
  8
0
 10
103.071572
 20
503.650657
 42
-0.015621
  0
VERTEX
  8
0
 10
103.000000
 20
505.940983
 42
0.015685
  0
VERTEX
  8
0
 10
102.927181
 20
508.261755
 42
0.022144
  0
VERTEX
  8
0
 10
102.706250
 20
510.318350
 42
0.019282
  0
VERTEX
  8
0
 10
102.391852
 20
511.954377
 42
0.199798
  0
VERTEX
  8
0
 10
102.000000
 20
512.500000
 42
-0.242488
  0
VERTEX
  8
0
 10
101.558216
 20
513.234623
 42
-0.003920
  0
VERTEX
  8
0
 10
101.270870
 20
518.200627
 42
-0.008475
  0
VERTEX
  8
0
 10
101.064673
 20
524.445229
 42
-0.004014
  0
VERTEX
  8
0
 10
101.000000
 20
532.500000
 42
-0.004014
  0
VERTEX
  8
0
 10
101.064673
 20
540.554771
 42
-0.008475
  0
VERTEX
  8
0
 10
101.270870
 20
546.799373
 42
-0.003920
  0
VERTEX
  8
0
 10
101.558216
 20
551.765377
 42
-0.242488
  0
VERTEX
  8
0
 10
102.000000
 20
552.500000
 42
0.159713
  0
VERTEX
  8
0
 10
102.386693
 20
552.958660
 42
0.035556
  0
VERTEX
  8
0
 10
102.706250
 20
553.947275
 42
0.033489
  0
VERTEX
  8
0
 10
102.926586
 20
555.196361
 42
0.026918
  0
VERTEX
  8
0
 10
103.000000
 20
556.559017
 42
-0.027497
  0
VERTEX
  8
0
 10
103.072564
 20
557.877484
 42
-0.043243
  0
VERTEX
  8
0
 10
103.293750
 20
558.989211
 42
-0.053437
  0
VERTEX
  8
0
 10
103.614478
 20
559.770364
 42
-0.275259
  0
VERTEX
  8
0
 10
104.000000
 20
560.000000
 42
0.149454
  0
VERTEX
  8
0
 10
104.381359
 20
560.116595
 42
0.098698
  0
VERTEX
  8
0
 10
104.706250
 20
560.444611
 42
0.081991
  0
VERTEX
  8
0
 10
104.925341
 20
560.934903
 42
0.064244
  0
VERTEX
  8
0
 10
105.000000
 20
561.513569
 42
-0.126542
  0
VERTEX
  8
0
 10
105.725713
 20
564.335136
 42
-0.043754
  0
VERTEX
  8
0
 10
108.088177
 20
567.856349
 42
-0.043710
  0
VERTEX
  8
0
 10
111.021331
 20
570.907030
 42
-0.129411
  0
VERTEX
  8
0
 10
113.602891
 20
572.186968
 42
-0.055362
  0
VERTEX
  8
0
 10
115.685034
 20
572.379656
 42
-0.035069
  0
VERTEX
  8
0
 10
118.115565
 20
572.164134
 42
-0.033522
  0
VERTEX
  8
0
 10
120.637127
 20
571.585497
 42
-0.035882
  0
SEQEND
  0
ENDSEC
  0
EOF
