999
DXF data, created by potrace 1.11, written by Peter Selinger 2001-2013
  0
SECTION
  2
HEADER
  9
$ACADVER
  1
AC1006
  9
$EXTMIN
 10
0.000000
 20
0.000000
 30
0.000000
  9
$EXTMAX
 10
485.000000
 20
1938.000000
 30
0.000000
  0
ENDSEC
  0
SECTION
  2
ENTITIES
  0
POLYLINE
  8
0
 66
1
 70
1
  0
VERTEX
  8
0
 10
-0.000000
 20
1013.583333
 42
0.000051
  0
VERTEX
  8
0
 10
0.049490
 20
532.480932
 42
0.000286
  0
VERTEX
  8
0
 10
0.250496
 20
274.299769
 42
0.000009
  0
VERTEX
  8
0
 10
0.503204
 20
89.754156
 42
0.291017
  0
VERTEX
  8
0
 10
1.250000
 20
88.583333
 42
-0.029131
  0
VERTEX
  8
0
 10
1.857470
 20
88.255505
 42
-0.260055
  0
VERTEX
  8
0
 10
2.000000
 20
88.000000
 42
-0.260055
  0
VERTEX
  8
0
 10
1.857470
 20
87.744495
 42
-0.029131
  0
VERTEX
  8
0
 10
1.250000
 20
87.416667
 42
0.280090
  0
VERTEX
  8
0
 10
0.558113
 20
86.378795
 42
0.003349
  0
VERTEX
  8
0
 10
0.260557
 20
77.904926
 42
0.005891
  0
VERTEX
  8
0
 10
0.053260
 20
65.433171
 42
0.001210
  0
VERTEX
  8
0
 10
0.000000
 20
43.416667
 42
0.000000
  0
VERTEX
  8
0
 10
0.000000
 20
0.000000
 42
0.000000
  0
VERTEX
  8
0
 10
242.500000
 20
0.000000
 42
0.000000
  0
VERTEX
  8
0
 10
485.000000
 20
0.000000
 42
0.000000
  0
VERTEX
  8
0
 10
485.000000
 20
483.500000
 42
0.000134
  0
VERTEX
  8
0
 10
484.942819
 20
697.331074
 42
0.000383
  0
VERTEX
  8
0
 10
484.749483
 20
845.875000
 42
0.000008
  0
VERTEX
  8
0
 10
484.497947
 20
966.503099
 42
0.413598
  0
VERTEX
  8
0
 10
484.000000
 20
967.000000
 42
-0.191087
  0
VERTEX
  8
0
 10
483.618118
 20
967.151477
 42
-0.088204
  0
VERTEX
  8
0
 10
483.293750
 20
967.587500
 42
-0.068025
  0
VERTEX
  8
0
 10
483.073693
 20
968.234582
 42
-0.048028
  0
VERTEX
  8
0
 10
483.000000
 20
969.000000
 42
-0.048028
  0
VERTEX
  8
0
 10
483.073693
 20
969.765418
 42
-0.068025
  0
VERTEX
  8
0
 10
483.293750
 20
970.412500
 42
-0.088204
  0
VERTEX
  8
0
 10
483.618118
 20
970.848523
 42
-0.191087
  0
VERTEX
  8
0
 10
484.000000
 20
971.000000
 42
0.413598
  0
VERTEX
  8
0
 10
484.497947
 20
971.496901
 42
0.000008
  0
VERTEX
  8
0
 10
484.749483
 20
1092.125000
 42
0.000383
  0
VERTEX
  8
0
 10
484.942819
 20
1240.668926
 42
0.000134
  0
VERTEX
  8
0
 10
485.000000
 20
1454.500000
 42
0.000000
  0
VERTEX
  8
0
 10
485.000000
 20
1938.000000
 42
0.000000
  0
VERTEX
  8
0
 10
242.500000
 20
1938.000000
 42
0.000000
  0
VERTEX
  8
0
 10
0.000000
 20
1938.000000
 42
0.000000
  0
SEQEND
  0
ENDSEC
  0
EOF
