999
DXF data, created by potrace 1.11, written by Peter Selinger 2001-2013
  0
SECTION
  2
HEADER
  9
$ACADVER
  1
AC1006
  9
$EXTMIN
 10
0.000000
 20
0.000000
 30
0.000000
  9
$EXTMAX
 10
485.000000
 20
1938.000000
 30
0.000000
  0
ENDSEC
  0
SECTION
  2
ENTITIES
  0
POLYLINE
  8
0
 66
1
 70
1
  0
VERTEX
  8
0
 10
0.000000
 20
969.000000
 42
0.000000
  0
VERTEX
  8
0
 10
0.000000
 20
27.000000
 42
0.000000
  0
VERTEX
  8
0
 10
7.440983
 20
27.000000
 42
0.012539
  0
VERTEX
  8
0
 10
10.336795
 20
27.072633
 42
0.018327
  0
VERTEX
  8
0
 10
12.877725
 20
27.293750
 42
0.014001
  0
VERTEX
  8
0
 10
14.921570
 20
27.605685
 42
0.212560
  0
VERTEX
  8
0
 10
15.500000
 20
28.000000
 42
-0.130646
  0
VERTEX
  8
0
 10
15.906663
 20
28.384508
 42
-0.045439
  0
VERTEX
  8
0
 10
16.653525
 20
28.706250
 42
-0.041396
  0
VERTEX
  8
0
 10
17.579340
 20
28.926158
 42
-0.037634
  0
VERTEX
  8
0
 10
18.559017
 20
29.000000
 42
0.039081
  0
VERTEX
  8
0
 10
19.493720
 20
29.073170
 42
0.058208
  0
VERTEX
  8
0
 10
20.282961
 20
29.293750
 42
0.076538
  0
VERTEX
  8
0
 10
20.820624
 20
29.617207
 42
0.222681
  0
VERTEX
  8
0
 10
21.000000
 20
30.000000
 42
-0.254951
  0
VERTEX
  8
0
 10
21.209557
 20
30.384262
 42
-0.062710
  0
VERTEX
  8
0
 10
21.881250
 20
30.706250
 42
-0.048861
  0
VERTEX
  8
0
 10
22.850749
 20
30.927234
 42
-0.031626
  0
VERTEX
  8
0
 10
24.000000
 20
31.000000
 42
0.031626
  0
VERTEX
  8
0
 10
25.149251
 20
31.072766
 42
0.048861
  0
VERTEX
  8
0
 10
26.118750
 20
31.293750
 42
0.062710
  0
VERTEX
  8
0
 10
26.790443
 20
31.615738
 42
0.254951
  0
VERTEX
  8
0
 10
27.000000
 20
32.000000
 42
-0.191087
  0
VERTEX
  8
0
 10
27.151477
 20
32.381882
 42
-0.088204
  0
VERTEX
  8
0
 10
27.587500
 20
32.706250
 42
-0.068025
  0
VERTEX
  8
0
 10
28.234582
 20
32.926307
 42
-0.048028
  0
VERTEX
  8
0
 10
29.000000
 20
33.000000
 42
0.048028
  0
VERTEX
  8
0
 10
29.765418
 20
33.073693
 42
0.068025
  0
VERTEX
  8
0
 10
30.412500
 20
33.293750
 42
0.088204
  0
VERTEX
  8
0
 10
30.848523
 20
33.618118
 42
0.191087
  0
VERTEX
  8
0
 10
31.000000
 20
34.000000
 42
-0.173062
  0
VERTEX
  8
0
 10
31.136147
 20
34.381567
 42
-0.093597
  0
VERTEX
  8
0
 10
31.522652
 20
34.706250
 42
-0.073949
  0
VERTEX
  8
0
 10
32.098578
 20
34.925933
 42
-0.054248
  0
VERTEX
  8
0
 10
32.779241
 20
35.000000
 42
0.091287
  0
VERTEX
  8
0
 10
33.565449
 20
35.144747
 42
0.047927
  0
VERTEX
  8
0
 10
34.459276
 20
35.587500
 42
0.045499
  0
VERTEX
  8
0
 10
35.316802
 20
36.234851
 42
0.052224
  0
VERTEX
  8
0
 10
36.000000
 20
37.000000
 42
-0.039628
  0
VERTEX
  8
0
 10
36.649462
 20
37.765245
 42
-0.040482
  0
VERTEX
  8
0
 10
37.407202
 20
38.412500
 42
-0.043766
  0
VERTEX
  8
0
 10
38.156398
 20
38.860091
 42
-0.113243
  0
VERTEX
  8
0
 10
38.766214
 20
39.000000
 42
0.117070
  0
VERTEX
  8
0
 10
39.437959
 20
39.159467
 42
0.028202
  0
VERTEX
  8
0
 10
40.436155
 20
39.734375
 42
0.027424
  0
VERTEX
  8
0
 10
41.536564
 20
40.543070
 42
0.024203
  0
VERTEX
  8
0
 10
42.590909
 20
41.500000
 42
-0.022565
  0
VERTEX
  8
0
 10
43.638413
 20
42.456995
 42
-0.026234
  0
VERTEX
  8
0
 10
44.718393
 20
43.265625
 42
-0.026634
  0
VERTEX
  8
0
 10
45.689527
 20
43.843782
 42
-0.121526
  0
VERTEX
  8
0
 10
46.322770
 20
44.000000
 42
0.132786
  0
VERTEX
  8
0
 10
46.953316
 20
44.170461
 42
0.027637
  0
VERTEX
  8
0
 10
47.919123
 20
44.807812
 42
0.027209
  0
VERTEX
  8
0
 10
48.990279
 20
45.697254
 42
0.022770
  0
VERTEX
  8
0
 10
50.027316
 20
46.750000
 42
-0.024468
  0
VERTEX
  8
0
 10
51.174526
 20
47.906710
 42
-0.016733
  0
VERTEX
  8
0
 10
52.581461
 20
49.109013
 42
-0.016898
  0
VERTEX
  8
0
 10
54.018899
 20
50.178974
 42
-0.032443
  0
VERTEX
  8
0
 10
55.250000
 20
50.918980
 42
0.022236
  0
VERTEX
  8
0
 10
56.303134
 20
51.523118
 42
0.030119
  0
VERTEX
  8
0
 10
57.192188
 20
52.165246
 42
0.030557
  0
VERTEX
  8
0
 10
57.836720
 20
52.761879
 42
0.193066
  0
VERTEX
  8
0
 10
58.000000
 20
53.168980
 42
-0.201824
  0
VERTEX
  8
0
 10
58.133628
 20
53.486545
 42
-0.084512
  0
VERTEX
  8
0
 10
58.522652
 20
53.755888
 42
-0.064608
  0
VERTEX
  8
0
 10
59.098169
 20
53.938921
 42
-0.044750
  0
VERTEX
  8
0
 10
59.779241
 20
54.000000
 42
0.091287
  0
VERTEX
  8
0
 10
60.565449
 20
54.144747
 42
0.047927
  0
VERTEX
  8
0
 10
61.459276
 20
54.587500
 42
0.045499
  0
VERTEX
  8
0
 10
62.316802
 20
55.234851
 42
0.052224
  0
VERTEX
  8
0
 10
63.000000
 20
56.000000
 42
-0.052224
  0
VERTEX
  8
0
 10
63.683198
 20
56.765149
 42
-0.045499
  0
VERTEX
  8
0
 10
64.540724
 20
57.412500
 42
-0.047927
  0
VERTEX
  8
0
 10
65.434551
 20
57.855253
 42
-0.091287
  0
VERTEX
  8
0
 10
66.220759
 20
58.000000
 42
0.054248
  0
VERTEX
  8
0
 10
66.901422
 20
58.074067
 42
0.073949
  0
VERTEX
  8
0
 10
67.477348
 20
58.293750
 42
0.093597
  0
VERTEX
  8
0
 10
67.863853
 20
58.618433
 42
0.173062
  0
VERTEX
  8
0
 10
68.000000
 20
59.000000
 42
-0.173062
  0
VERTEX
  8
0
 10
68.136147
 20
59.381567
 42
-0.093597
  0
VERTEX
  8
0
 10
68.522652
 20
59.706250
 42
-0.073949
  0
VERTEX
  8
0
 10
69.098578
 20
59.925933
 42
-0.054248
  0
VERTEX
  8
0
 10
69.779241
 20
60.000000
 42
0.091287
  0
VERTEX
  8
0
 10
70.565449
 20
60.144747
 42
0.047927
  0
VERTEX
  8
0
 10
71.459276
 20
60.587500
 42
0.045499
  0
VERTEX
  8
0
 10
72.316802
 20
61.234851
 42
0.052224
  0
VERTEX
  8
0
 10
73.000000
 20
62.000000
 42
-0.052224
  0
VERTEX
  8
0
 10
73.683198
 20
62.765149
 42
-0.045499
  0
VERTEX
  8
0
 10
74.540724
 20
63.412500
 42
-0.047927
  0
VERTEX
  8
0
 10
75.434551
 20
63.855253
 42
-0.091287
  0
VERTEX
  8
0
 10
76.220759
 20
64.000000
 42
0.054248
  0
VERTEX
  8
0
 10
76.901422
 20
64.074067
 42
0.073949
  0
VERTEX
  8
0
 10
77.477348
 20
64.293750
 42
0.093597
  0
VERTEX
  8
0
 10
77.863853
 20
64.618433
 42
0.173062
  0
VERTEX
  8
0
 10
78.000000
 20
65.000000
 42
-0.106151
  0
VERTEX
  8
0
 10
78.081925
 20
65.381543
 42
-0.099350
  0
VERTEX
  8
0
 10
78.314261
 20
65.706250
 42
-0.096121
  0
VERTEX
  8
0
 10
78.661427
 20
65.923917
 42
-0.092354
  0
VERTEX
  8
0
 10
79.069825
 20
66.000000
 42
0.115305
  0
VERTEX
  8
0
 10
79.705711
 20
66.148618
 42
0.011386
  0
VERTEX
  8
0
 10
81.106241
 20
66.881250
 42
0.013890
  0
VERTEX
  8
0
 10
82.751957
 20
67.851071
 42
0.010587
  0
VERTEX
  8
0
 10
84.500000
 20
69.000000
 42
-0.009395
  0
VERTEX
  8
0
 10
86.239181
 20
70.149049
 42
-0.012653
  0
VERTEX
  8
0
 10
87.857790
 20
71.118750
 42
-0.009748
  0
VERTEX
  8
0
 10
89.231972
 20
71.860488
 42
-0.119427
  0
VERTEX
  8
0
 10
89.807731
 20
72.000000
 42
0.112484
  0
VERTEX
  8
0
 10
90.257397
 20
72.102457
 42
0.038020
  0
VERTEX
  8
0
 10
90.842504
 20
72.440625
 42
0.035553
  0
VERTEX
  8
0
 10
91.453715
 20
72.925989
 42
0.033978
  0
VERTEX
  8
0
 10
92.000000
 20
73.500000
 42
-0.063393
  0
VERTEX
  8
0
 10
92.614539
 20
74.074176
 42
-0.044279
  0
VERTEX
  8
0
 10
93.430735
 20
74.559375
 42
-0.044533
  0
VERTEX
  8
0
 10
94.312334
 20
74.890037
 42
-0.067559
  0
VERTEX
  8
0
 10
95.122445
 20
75.000000
 42
0.038034
  0
VERTEX
  8
0
 10
95.842785
 20
75.054874
 42
0.056194
  0
VERTEX
  8
0
 10
96.454016
 20
75.220313
 42
0.072964
  0
VERTEX
  8
0
 10
96.875094
 20
75.462677
 42
0.223010
  0
VERTEX
  8
0
 10
97.018888
 20
75.750000
 42
-0.220097
  0
VERTEX
  8
0
 10
97.223841
 20
76.165274
 42
-0.010018
  0
VERTEX
  8
0
 10
98.509361
 20
77.160937
 42
-0.015151
  0
VERTEX
  8
0
 10
100.138042
 20
78.296048
 42
-0.010117
  0
VERTEX
  8
0
 10
102.066315
 20
79.500000
 42
0.008016
  0
VERTEX
  8
0
 10
104.189633
 20
80.813365
 42
0.006615
  0
VERTEX
  8
0
 10
106.411602
 20
82.279329
 42
0.006689
  0
VERTEX
  8
0
 10
108.415064
 20
83.679026
 42
0.017705
  0
VERTEX
  8
0
 10
109.797427
 20
84.748779
 42
-0.016839
  0
VERTEX
  8
0
 10
110.906148
 20
85.609844
 42
-0.020436
  0
VERTEX
  8
0
 10
112.002646
 20
86.337337
 42
-0.019471
  0
VERTEX
  8
0
 10
112.959774
 20
86.867679
 42
-0.116988
  0
VERTEX
  8
0
 10
113.509453
 20
86.998779
 42
0.139895
  0
VERTEX
  8
0
 10
113.982701
 20
87.134451
 42
0.041999
  0
VERTEX
  8
0
 10
114.589279
 20
87.587141
 42
0.038465
  0
VERTEX
  8
0
 10
115.215523
 20
88.234495
 42
0.033434
  0
VERTEX
  8
0
 10
115.767927
 20
89.000000
 42
-0.036062
  0
VERTEX
  8
0
 10
116.326345
 20
89.765338
 42
-0.040273
  0
VERTEX
  8
0
 10
116.970328
 20
90.412500
 42
-0.044138
  0
VERTEX
  8
0
 10
117.601993
 20
90.862629
 42
-0.133514
  0
VERTEX
  8
0
 10
118.107264
 20
91.000000
 42
0.143484
  0
VERTEX
  8
0
 10
118.691859
 20
91.171287
 42
0.021641
  0
VERTEX
  8
0
 10
119.700511
 20
91.881250
 42
0.022790
  0
VERTEX
  8
0
 10
120.847119
 20
92.851284
 42
0.017926
  0
VERTEX
  8
0
 10
122.000000
 20
94.000000
 42
-0.015491
  0
VERTEX
  8
0
 10
123.141884
 20
95.148889
 42
-0.020431
  0
VERTEX
  8
0
 10
124.255250
 20
96.118750
 42
-0.018318
  0
VERTEX
  8
0
 10
125.224671
 20
96.839221
 42
-0.151775
  0
VERTEX
  8
0
 10
125.742135
 20
97.000000
 42
0.154981
  0
VERTEX
  8
0
 10
126.309526
 20
97.180197
 42
0.009421
  0
VERTEX
  8
0
 10
127.762797
 20
98.248438
 42
0.013338
  0
VERTEX
  8
0
 10
129.463312
 20
99.621853
 42
0.009425
  0
VERTEX
  8
0
 10
131.301382
 20
101.250000
 42
-0.003078
  0
VERTEX
  8
0
 10
133.410948
 20
103.166975
 42
-0.001828
  0
VERTEX
  8
0
 10
135.947103
 20
105.426563
 42
-0.001829
  0
VERTEX
  8
0
 10
138.492662
 20
107.661345
 42
-0.003155
  0
VERTEX
  8
0
 10
140.629602
 20
109.500000
 42
0.009025
  0
VERTEX
  8
0
 10
143.078509
 20
111.657625
 42
0.002532
  0
VERTEX
  8
0
 10
146.825101
 20
115.115625
 42
0.002552
  0
VERTEX
  8
0
 10
151.022534
 20
119.069533
 42
0.002686
  0
VERTEX
  8
0
 10
155.108461
 20
123.000000
 42
-0.002429
  0
VERTEX
  8
0
 10
159.055191
 20
126.800467
 42
-0.002851
  0
VERTEX
  8
0
 10
162.834283
 20
130.363367
 42
-0.002509
  0
VERTEX
  8
0
 10
166.059394
 20
133.339320
 42
-0.017580
  0
VERTEX
  8
0
 10
167.689316
 20
134.726355
 42
0.009112
  0
VERTEX
  8
0
 10
170.718798
 20
137.217198
 42
0.005504
  0
VERTEX
  8
0
 10
174.220583
 20
140.272209
 42
0.004801
  0
VERTEX
  8
0
 10
178.192893
 20
143.884547
 42
0.003223
  0
VERTEX
  8
0
 10
182.665982
 20
148.085384
 42
-0.005854
  0
VERTEX
  8
0
 10
184.692702
 20
149.968776
 42
-0.008842
  0
VERTEX
  8
0
 10
186.505083
 20
151.556332
 42
-0.004363
  0
VERTEX
  8
0
 10
188.065675
 20
152.852128
 42
-0.172747
  0
VERTEX
  8
0
 10
188.480906
 20
153.000000
 42
0.178680
  0
VERTEX
  8
0
 10
188.888788
 20
153.150568
 42
0.005073
  0
VERTEX
  8
0
 10
190.315462
 20
154.395313
 42
0.009721
  0
VERTEX
  8
0
 10
191.972526
 20
155.929736
 42
0.006462
  0
VERTEX
  8
0
 10
193.814924
 20
157.750000
 42
-0.011926
  0
VERTEX
  8
0
 10
195.903446
 20
159.768816
 42
-0.008774
  0
VERTEX
  8
0
 10
198.308462
 20
161.908282
 42
-0.008876
  0
VERTEX
  8
0
 10
200.656080
 20
163.852702
 42
-0.019493
  0
VERTEX
  8
0
 10
202.533032
 20
165.235642
 42
0.017622
  0
VERTEX
  8
0
 10
204.359350
 20
166.570766
 42
0.009316
  0
VERTEX
  8
0
 10
206.532836
 20
168.346907
 42
0.009258
  0
VERTEX
  8
0
 10
208.691763
 20
170.249157
 42
0.014127
  0
VERTEX
  8
0
 10
210.485980
 20
171.985642
 42
-0.010384
  0
VERTEX
  8
0
 10
212.051352
 20
173.523505
 42
-0.014699
  0
VERTEX
  8
0
 10
213.511585
 20
174.820782
 42
-0.010734
  0
VERTEX
  8
0
 10
214.764486
 20
175.824681
 42
-0.164983
  0
VERTEX
  8
0
 10
215.281348
 20
176.000000
 42
0.166272
  0
VERTEX
  8
0
 10
215.796015
 20
176.176015
 42
0.011025
  0
VERTEX
  8
0
 10
217.028577
 20
177.175000
 42
0.014973
  0
VERTEX
  8
0
 10
218.464021
 20
178.467645
 42
0.010586
  0
VERTEX
  8
0
 10
220.000000
 20
180.000000
 42
-0.013010
  0
VERTEX
  8
0
 10
221.550663
 20
181.532079
 42
-0.017724
  0
VERTEX
  8
0
 10
223.031039
 20
182.825000
 42
-0.014680
  0
VERTEX
  8
0
 10
224.308348
 20
183.802290
 42
-0.157214
  0
VERTEX
  8
0
 10
224.921599
 20
184.000000
 42
0.091591
  0
VERTEX
  8
0
 10
225.333285
 20
184.076051
 42
0.095880
  0
VERTEX
  8
0
 10
225.683220
 20
184.293750
 42
0.099487
  0
VERTEX
  8
0
 10
225.917390
 20
184.618468
 42
0.107021
  0
VERTEX
  8
0
 10
226.000000
 20
185.000000
 42
-0.107021
  0
VERTEX
  8
0
 10
226.082610
 20
185.381532
 42
-0.099487
  0
VERTEX
  8
0
 10
226.316780
 20
185.706250
 42
-0.095880
  0
VERTEX
  8
0
 10
226.666715
 20
185.923949
 42
-0.091591
  0
VERTEX
  8
0
 10
227.078401
 20
186.000000
 42
0.152680
  0
VERTEX
  8
0
 10
227.687576
 20
186.190458
 42
0.015563
  0
VERTEX
  8
0
 10
228.918553
 20
187.101562
 42
0.018308
  0
VERTEX
  8
0
 10
230.343485
 20
188.313756
 42
0.013613
  0
VERTEX
  8
0
 10
231.828401
 20
189.750000
 42
-0.012337
  0
VERTEX
  8
0
 10
233.524176
 20
191.398583
 42
-0.007592
  0
VERTEX
  8
0
 10
235.596468
 20
193.258460
 42
-0.007611
  0
VERTEX
  8
0
 10
237.703097
 20
195.036543
 42
-0.013492
  0
VERTEX
  8
0
 10
239.500000
 20
196.427735
 42
0.011029
  0
VERTEX
  8
0
 10
243.313091
 20
199.349965
 42
0.006757
  0
VERTEX
  8
0
 10
247.683718
 20
202.953275
 42
0.006432
  0
VERTEX
  8
0
 10
252.263833
 20
206.936786
 42
0.006487
  0
VERTEX
  8
0
 10
256.726666
 20
211.025534
 42
-0.011502
  0
VERTEX
  8
0
 10
258.422134
 20
212.547895
 42
-0.015767
  0
VERTEX
  8
0
 10
260.020084
 20
213.832500
 42
-0.012470
  0
VERTEX
  8
0
 10
261.389963
 20
214.811811
 42
-0.150038
  0
VERTEX
  8
0
 10
262.002982
 20
215.000000
 42
0.156184
  0
VERTEX
  8
0
 10
262.616977
 20
215.196588
 42
0.012051
  0
VERTEX
  8
0
 10
264.018483
 20
216.248438
 42
0.015581
  0
VERTEX
  8
0
 10
265.652274
 20
217.622020
 42
0.011236
  0
VERTEX
  8
0
 10
267.390286
 20
219.250000
 42
-0.005969
  0
VERTEX
  8
0
 10
270.781522
 20
222.494266
 42
-0.012317
  0
VERTEX
  8
0
 10
273.524176
 20
224.932373
 42
-0.009482
  0
VERTEX
  8
0
 10
275.705905
 20
226.707813
 42
-0.167573
  0
VERTEX
  8
0
 10
276.553244
 20
227.000000
 42
0.152908
  0
VERTEX
  8
0
 10
276.864468
 20
227.097455
 42
0.011925
  0
VERTEX
  8
0
 10
277.576482
 20
227.617445
 42
0.015395
  0
VERTEX
  8
0
 10
278.407330
 20
228.296793
 42
0.011138
  0
VERTEX
  8
0
 10
279.291813
 20
229.101940
 42
-0.011293
  0
VERTEX
  8
0
 10
280.382018
 20
230.093739
 42
-0.004909
  0
VERTEX
  8
0
 10
281.872954
 20
231.364303
 42
-0.004855
  0
VERTEX
  8
0
 10
283.484684
 20
232.684361
 42
-0.006441
  0
VERTEX
  8
0
 10
284.977817
 20
233.851940
 42
0.007691
  0
VERTEX
  8
0
 10
286.521660
 20
235.065405
 42
0.004820
  0
VERTEX
  8
0
 10
288.291921
 20
236.529945
 42
0.004837
  0
VERTEX
  8
0
 10
290.007626
 20
238.006076
 42
0.008797
  0
VERTEX
  8
0
 10
291.376131
 20
239.250000
 42
-0.015010
  0
VERTEX
  8
0
 10
292.564007
 20
240.303085
 42
-0.019408
  0
VERTEX
  8
0
 10
293.717934
 20
241.192188
 42
-0.017457
  0
VERTEX
  8
0
 10
294.717882
 20
241.851291
 42
-0.137829
  0
VERTEX
  8
0
 10
295.247104
 20
242.000000
 42
0.151164
  0
VERTEX
  8
0
 10
295.769444
 20
242.161610
 42
0.018565
  0
VERTEX
  8
0
 10
296.741589
 20
242.881250
 42
0.020606
  0
VERTEX
  8
0
 10
297.857332
 20
243.851124
 42
0.015666
  0
VERTEX
  8
0
 10
299.000000
 20
245.000000
 42
-0.018062
  0
VERTEX
  8
0
 10
300.153501
 20
246.148707
 42
-0.022916
  0
VERTEX
  8
0
 10
301.301978
 20
247.118750
 42
-0.021819
  0
VERTEX
  8
0
 10
302.312902
 20
247.828188
 42
-0.143035
  0
VERTEX
  8
0
 10
302.901210
 20
248.000000
 42
0.089824
  0
VERTEX
  8
0
 10
303.320713
 20
248.075976
 42
0.095294
  0
VERTEX
  8
0
 10
303.677230
 20
248.293750
 42
0.099782
  0
VERTEX
  8
0
 10
303.915764
 20
248.618491
 42
0.109085
  0
VERTEX
  8
0
 10
304.000000
 20
249.000000
 42
-0.103674
  0
VERTEX
  8
0
 10
304.079978
 20
249.381574
 42
-0.098920
  0
VERTEX
  8
0
 10
304.307102
 20
249.706250
 42
-0.096788
  0
VERTEX
  8
0
 10
304.646398
 20
249.923826
 42
-0.094588
  0
VERTEX
  8
0
 10
305.045455
 20
250.000000
 42
0.124368
  0
VERTEX
  8
0
 10
305.590442
 20
250.137688
 42
0.024940
  0
VERTEX
  8
0
 10
306.453926
 20
250.660938
 42
0.024942
  0
VERTEX
  8
0
 10
307.422100
 20
251.388651
 42
0.021023
  0
VERTEX
  8
0
 10
308.372167
 20
252.250000
 42
-0.012522
  0
VERTEX
  8
0
 10
309.480594
 20
253.289786
 42
-0.005973
  0
VERTEX
  8
0
 10
310.954638
 20
254.573438
 42
-0.005916
  0
VERTEX
  8
0
 10
312.527405
 20
255.878625
 42
-0.008374
  0
VERTEX
  8
0
 10
313.960089
 20
257.000000
 42
0.004253
  0
VERTEX
  8
0
 10
315.416845
 20
258.120982
 42
0.002852
  0
VERTEX
  8
0
 10
317.064054
 20
259.426204
 42
0.002872
  0
VERTEX
  8
0
 10
318.645047
 20
260.708696
 42
0.005666
  0
VERTEX
  8
0
 10
319.883377
 20
261.748779
 42
-0.012503
  0
VERTEX
  8
0
 10
320.937825
 20
262.610107
 42
-0.016544
  0
VERTEX
  8
0
 10
321.941888
 20
263.337337
 42
-0.013940
  0
VERTEX
  8
0
 10
322.803200
 20
263.884414
 42
-0.134883
  0
VERTEX
  8
0
 10
323.216667
 20
263.998779
 42
0.161824
  0
VERTEX
  8
0
 10
323.642197
 20
264.141010
 42
0.010388
  0
VERTEX
  8
0
 10
324.687292
 20
264.959188
 42
0.014331
  0
VERTEX
  8
0
 10
325.906716
 20
266.015073
 42
0.010132
  0
VERTEX
  8
0
 10
327.216667
 20
267.266542
 42
-0.012456
  0
VERTEX
  8
0
 10
328.727766
 20
268.696807
 42
-0.007787
  0
VERTEX
  8
0
 10
330.563646
 20
270.298693
 42
-0.007814
  0
VERTEX
  8
0
 10
332.422862
 20
271.821441
 42
-0.014081
  0
VERTEX
  8
0
 10
334.000000
 20
273.001699
 42
0.040677
  0
VERTEX
  8
0
 10
339.536794
 20
277.623749
 42
0.004294
  0
VERTEX
  8
0
 10
351.450962
 20
289.540191
 42
0.001370
  0
VERTEX
  8
0
 10
364.206808
 20
302.590812
 42
0.195235
  0
VERTEX
  8
0
 10
365.000000
 20
304.544764
 42
-0.175032
  0
VERTEX
  8
0
 10
365.117681
 20
304.870636
 42
-0.005755
  0
VERTEX
  8
0
 10
366.028125
 20
305.941483
 42
-0.010365
  0
VERTEX
  8
0
 10
367.158820
 20
307.187653
 42
-0.006954
  0
VERTEX
  8
0
 10
368.500000
 20
308.566667
 42
0.012215
  0
VERTEX
  8
0
 10
369.840609
 20
309.974429
 42
0.016731
  0
VERTEX
  8
0
 10
370.971875
 20
311.309148
 42
0.013501
  0
VERTEX
  8
0
 10
371.831253
 20
312.457087
 42
0.155132
  0
VERTEX
  8
0
 10
372.000000
 20
312.987879
 42
-0.138408
  0
VERTEX
  8
0
 10
372.141145
 20
313.487999
 42
-0.020233
  0
VERTEX
  8
0
 10
372.734375
 20
314.372860
 42
-0.021584
  0
VERTEX
  8
0
 10
373.542729
 20
315.384387
 42
-0.017007
  0
VERTEX
  8
0
 10
374.500000
 20
316.409091
 42
0.013746
  0
VERTEX
  8
0
 10
375.457473
 20
317.420709
 42
0.018374
  0
VERTEX
  8
0
 10
376.265625
 20
318.392591
 42
0.015746
  0
VERTEX
  8
0
 10
376.871859
 20
319.232070
 42
0.149589
  0
VERTEX
  8
0
 10
377.000000
 20
319.650795
 42
-0.141589
  0
VERTEX
  8
0
 10
377.261460
 20
320.555591
 42
-0.003446
  0
VERTEX
  8
0
 10
379.628682
 20
324.252790
 42
-0.005774
  0
VERTEX
  8
0
 10
381.967752
 20
327.761813
 42
-0.065676
  0
VERTEX
  8
0
 10
383.077300
 20
329.000000
 42
0.084137
  0
VERTEX
  8
0
 10
383.377530
 20
329.360857
 42
0.009187
  0
VERTEX
  8
0
 10
383.904353
 20
330.307813
 42
0.011036
  0
VERTEX
  8
0
 10
384.490123
 20
331.468883
 42
0.008701
  0
VERTEX
  8
0
 10
385.074224
 20
332.750000
 42
-0.018274
  0
VERTEX
  8
0
 10
385.670909
 20
333.995010
 42
-0.026312
  0
VERTEX
  8
0
 10
386.294903
 20
335.045313
 42
-0.024645
  0
VERTEX
  8
0
 10
386.872340
 20
335.824170
 42
-0.224551
  0
VERTEX
  8
0
 10
387.244111
 20
336.000000
 42
0.189864
  0
VERTEX
  8
0
 10
387.532752
 20
336.113704
 42
0.088604
  0
VERTEX
  8
0
 10
387.777958
 20
336.440625
 42
0.068420
  0
VERTEX
  8
0
 10
387.944278
 20
336.925951
 42
0.048420
  0
VERTEX
  8
0
 10
388.000000
 20
337.500000
 42
-0.064853
  0
VERTEX
  8
0
 10
388.074694
 20
338.073457
 42
-0.082425
  0
VERTEX
  8
0
 10
388.293750
 20
338.559375
 42
-0.098894
  0
VERTEX
  8
0
 10
388.618646
 20
338.884432
 42
-0.148195
  0
VERTEX
  8
0
 10
389.000000
 20
339.000000
 42
0.191087
  0
VERTEX
  8
0
 10
389.381882
 20
339.151477
 42
0.088204
  0
VERTEX
  8
0
 10
389.706250
 20
339.587500
 42
0.068025
  0
VERTEX
  8
0
 10
389.926307
 20
340.234582
 42
0.048028
  0
VERTEX
  8
0
 10
390.000000
 20
341.000000
 42
-0.048028
  0
VERTEX
  8
0
 10
390.073693
 20
341.765418
 42
-0.068025
  0
VERTEX
  8
0
 10
390.293750
 20
342.412500
 42
-0.088204
  0
VERTEX
  8
0
 10
390.618118
 20
342.848523
 42
-0.191087
  0
VERTEX
  8
0
 10
391.000000
 20
343.000000
 42
0.191087
  0
VERTEX
  8
0
 10
391.381882
 20
343.151477
 42
0.088204
  0
VERTEX
  8
0
 10
391.706250
 20
343.587500
 42
0.068025
  0
VERTEX
  8
0
 10
391.926307
 20
344.234582
 42
0.048028
  0
VERTEX
  8
0
 10
392.000000
 20
345.000000
 42
-0.048028
  0
VERTEX
  8
0
 10
392.073693
 20
345.765418
 42
-0.068025
  0
VERTEX
  8
0
 10
392.293750
 20
346.412500
 42
-0.088204
  0
VERTEX
  8
0
 10
392.618118
 20
346.848523
 42
-0.191087
  0
VERTEX
  8
0
 10
393.000000
 20
347.000000
 42
0.191087
  0
VERTEX
  8
0
 10
393.381882
 20
347.151477
 42
0.088204
  0
VERTEX
  8
0
 10
393.706250
 20
347.587500
 42
0.068025
  0
VERTEX
  8
0
 10
393.926307
 20
348.234582
 42
0.048028
  0
VERTEX
  8
0
 10
394.000000
 20
349.000000
 42
-0.048028
  0
VERTEX
  8
0
 10
394.073693
 20
349.765418
 42
-0.068025
  0
VERTEX
  8
0
 10
394.293750
 20
350.412500
 42
-0.088204
  0
VERTEX
  8
0
 10
394.618118
 20
350.848523
 42
-0.191087
  0
VERTEX
  8
0
 10
395.000000
 20
351.000000
 42
0.191087
  0
VERTEX
  8
0
 10
395.381882
 20
351.151477
 42
0.088204
  0
VERTEX
  8
0
 10
395.706250
 20
351.587500
 42
0.068025
  0
VERTEX
  8
0
 10
395.926307
 20
352.234582
 42
0.048028
  0
VERTEX
  8
0
 10
396.000000
 20
353.000000
 42
-0.048028
  0
VERTEX
  8
0
 10
396.073693
 20
353.765418
 42
-0.068025
  0
VERTEX
  8
0
 10
396.293750
 20
354.412500
 42
-0.088204
  0
VERTEX
  8
0
 10
396.618118
 20
354.848523
 42
-0.191087
  0
VERTEX
  8
0
 10
397.000000
 20
355.000000
 42
0.191087
  0
VERTEX
  8
0
 10
397.381882
 20
355.151477
 42
0.088204
  0
VERTEX
  8
0
 10
397.706250
 20
355.587500
 42
0.068025
  0
VERTEX
  8
0
 10
397.926307
 20
356.234582
 42
0.048028
  0
VERTEX
  8
0
 10
398.000000
 20
357.000000
 42
-0.048028
  0
VERTEX
  8
0
 10
398.073693
 20
357.765418
 42
-0.068025
  0
VERTEX
  8
0
 10
398.293750
 20
358.412500
 42
-0.088204
  0
VERTEX
  8
0
 10
398.618118
 20
358.848523
 42
-0.191087
  0
VERTEX
  8
0
 10
399.000000
 20
359.000000
 42
0.226478
  0
VERTEX
  8
0
 10
399.382936
 20
359.182831
 42
0.074992
  0
VERTEX
  8
0
 10
399.706250
 20
359.734375
 42
0.057076
  0
VERTEX
  8
0
 10
399.926884
 20
360.542644
 42
0.038131
  0
VERTEX
  8
0
 10
400.000000
 20
361.500000
 42
-0.038131
  0
VERTEX
  8
0
 10
400.073116
 20
362.457356
 42
-0.057076
  0
VERTEX
  8
0
 10
400.293750
 20
363.265625
 42
-0.074992
  0
VERTEX
  8
0
 10
400.617064
 20
363.817169
 42
-0.226478
  0
VERTEX
  8
0
 10
401.000000
 20
364.000000
 42
0.186414
  0
VERTEX
  8
0
 10
401.381787
 20
364.147465
 42
0.089706
  0
VERTEX
  8
0
 10
401.706250
 20
364.570164
 42
0.069539
  0
VERTEX
  8
0
 10
401.926216
 20
365.198222
 42
0.049547
  0
VERTEX
  8
0
 10
402.000000
 20
365.940983
 42
-0.046881
  0
VERTEX
  8
0
 10
402.074077
 20
366.729296
 42
-0.046318
  0
VERTEX
  8
0
 10
402.293750
 20
367.493350
 42
-0.050262
  0
VERTEX
  8
0
 10
402.616444
 20
368.123976
 42
-0.111412
  0
VERTEX
  8
0
 10
403.000000
 20
368.500000
 42
0.127689
  0
VERTEX
  8
0
 10
403.384338
 20
368.901776
 42
0.046287
  0
VERTEX
  8
0
 10
403.706250
 20
369.629046
 42
0.042177
  0
VERTEX
  8
0
 10
403.926118
 20
370.527908
 42
0.038918
  0
VERTEX
  8
0
 10
404.000000
 20
371.475684
 42
-0.029733
  0
VERTEX
  8
0
 10
404.055176
 20
372.402737
 42
-0.038415
  0
VERTEX
  8
0
 10
404.220882
 20
373.238690
 42
-0.042467
  0
VERTEX
  8
0
 10
404.461676
 20
373.883564
 42
-0.179719
  0
VERTEX
  8
0
 10
404.751940
 20
374.166667
 42
0.226586
  0
VERTEX
  8
0
 10
407.260196
 20
377.097367
 42
0.003327
  0
VERTEX
  8
0
 10
413.167886
 20
399.706380
 42
0.009463
  0
VERTEX
  8
0
 10
418.277593
 20
421.529038
 42
0.027890
  0
VERTEX
  8
0
 10
420.660760
 20
436.750000
 42
-0.016075
  0
VERTEX
  8
0
 10
420.927301
 20
438.762279
 42
-0.025608
  0
VERTEX
  8
0
 10
421.297638
 20
440.457812
 42
-0.023122
  0
VERTEX
  8
0
 10
421.710279
 20
441.735071
 42
-0.312648
  0
VERTEX
  8
0
 10
422.092550
 20
442.000000
 42
0.337935
  0
VERTEX
  8
0
 10
422.448096
 20
442.271284
 42
0.024425
  0
VERTEX
  8
0
 10
422.733436
 20
443.556875
 42
0.026300
  0
VERTEX
  8
0
 10
422.934560
 20
445.268259
 42
0.016100
  0
VERTEX
  8
0
 10
423.000000
 20
447.300000
 42
-0.015890
  0
VERTEX
  8
0
 10
423.066725
 20
449.399000
 42
-0.020339
  0
VERTEX
  8
0
 10
423.267904
 20
451.322187
 42
-0.018669
  0
VERTEX
  8
0
 10
423.556177
 20
452.886529
 42
-0.137210
  0
VERTEX
  8
0
 10
423.912013
 20
453.550000
 42
0.143479
  0
VERTEX
  8
0
 10
424.540973
 20
454.758159
 42
0.013839
  0
VERTEX
  8
0
 10
425.097801
 20
458.055449
 42
0.010475
  0
VERTEX
  8
0
 10
425.724467
 20
463.311365
 42
0.002074
  0
VERTEX
  8
0
 10
426.610256
 20
472.750000
 42
-0.013628
  0
VERTEX
  8
0
 10
426.891071
 20
475.145823
 42
-0.021963
  0
VERTEX
  8
0
 10
427.274722
 20
477.164062
 42
-0.017651
  0
VERTEX
  8
0
 10
427.699365
 20
478.716090
 42
-0.328182
  0
VERTEX
  8
0
 10
428.085327
 20
479.000000
 42
0.340569
  0
VERTEX
  8
0
 10
428.444048
 20
479.276396
 42
0.023256
  0
VERTEX
  8
0
 10
428.731315
 20
480.615625
 42
0.025571
  0
VERTEX
  8
0
 10
428.934052
 20
482.391558
 42
0.015635
  0
VERTEX
  8
0
 10
429.000000
 20
484.500000
 42
-0.017105
  0
VERTEX
  8
0
 10
429.072146
 20
486.608340
 42
-0.027868
  0
VERTEX
  8
0
 10
429.293750
 20
488.384375
 42
-0.026982
  0
VERTEX
  8
0
 10
429.608967
 20
489.707933
 42
-0.332234
  0
VERTEX
  8
0
 10
430.000000
 20
490.000000
 42
0.322437
  0
VERTEX
  8
0
 10
430.389817
 20
490.280551
 42
0.031449
  0
VERTEX
  8
0
 10
430.706250
 20
491.468750
 42
0.030530
  0
VERTEX
  8
0
 10
430.927795
 20
493.083446
 42
0.018830
  0
VERTEX
  8
0
 10
431.000000
 20
495.000000
 42
-0.017074
  0
VERTEX
  8
0
 10
431.065468
 20
496.916675
 42
-0.027819
  0
VERTEX
  8
0
 10
431.266564
 20
498.531250
 42
-0.026902
  0
VERTEX
  8
0
 10
431.552586
 20
499.734772
 42
-0.332411
  0
VERTEX
  8
0
 10
431.907450
 20
500.000000
 42
0.312256
  0
VERTEX
  8
0
 10
432.290160
 20
500.264829
 42
0.023091
  0
VERTEX
  8
0
 10
432.704936
 20
501.542188
 42
0.025589
  0
VERTEX
  8
0
 10
433.078102
 20
503.237725
 42
0.016069
  0
VERTEX
  8
0
 10
433.348003
 20
505.250000
 42
-0.005933
  0
VERTEX
  8
0
 10
433.971128
 20
510.737800
 42
-0.011813
  0
VERTEX
  8
0
 10
434.618371
 20
515.062648
 42
-0.014298
  0
VERTEX
  8
0
 10
435.291338
 20
518.369360
 42
-0.045896
  0
VERTEX
  8
0
 10
436.000000
 20
520.500000
 42
0.029695
  0
VERTEX
  8
0
 10
436.372319
 20
521.509150
 42
0.011611
  0
VERTEX
  8
0
 10
436.769812
 20
522.940625
 42
0.011446
  0
VERTEX
  8
0
 10
437.129358
 20
524.513396
 42
0.013972
  0
VERTEX
  8
0
 10
437.390535
 20
526.000000
 42
-0.004178
  0
VERTEX
  8
0
 10
438.108799
 20
530.617230
 42
-0.009590
  0
VERTEX
  8
0
 10
438.745141
 20
534.077679
 42
-0.012406
  0
VERTEX
  8
0
 10
439.343283
 20
536.680924
 42
-0.032648
  0
VERTEX
  8
0
 10
439.937905
 20
538.500000
 42
0.031911
  0
VERTEX
  8
0
 10
440.343621
 20
539.735014
 42
0.004211
  0
VERTEX
  8
0
 10
441.012787
 20
542.409375
 42
0.004873
  0
VERTEX
  8
0
 10
441.749566
 20
545.598941
 42
0.004068
  0
VERTEX
  8
0
 10
442.471398
 20
549.000000
 42
-0.001148
  0
VERTEX
  8
0
 10
443.195151
 20
552.510937
 42
-0.001136
  0
VERTEX
  8
0
 10
443.937619
 20
556.031250
 42
-0.001114
  0
VERTEX
  8
0
 10
444.601370
 20
559.109680
 42
-0.004396
  0
VERTEX
  8
0
 10
445.030799
 20
561.000000
 42
0.000233
  0
VERTEX
  8
0
 10
445.482394
 20
562.913979
 42
0.000055
  0
VERTEX
  8
0
 10
446.235863
 20
566.115625
 42
0.000056
  0
VERTEX
  8
0
 10
447.101522
 20
569.797656
 42
0.000055
  0
VERTEX
  8
0
 10
447.971082
 20
573.500000
 42
-0.002245
  0
VERTEX
  8
0
 10
448.850227
 20
577.170851
 42
-0.002389
  0
VERTEX
  8
0
 10
449.744650
 20
580.758356
 42
-0.002272
  0
VERTEX
  8
0
 10
450.543064
 20
583.838172
 42
-0.011053
  0
VERTEX
  8
0
 10
451.041917
 20
585.570998
 42
0.017138
  0
VERTEX
  8
0
 10
451.408805
 20
586.906340
 42
0.013340
  0
VERTEX
  8
0
 10
451.718563
 20
588.379972
 42
0.013546
  0
VERTEX
  8
0
 10
451.933542
 20
589.770241
 42
0.031592
  0
VERTEX
  8
0
 10
452.000000
 20
590.820998
 42
-0.043943
  0
VERTEX
  8
0
 10
452.073451
 20
591.655135
 42
-0.063734
  0
VERTEX
  8
0
 10
452.293750
 20
592.359918
 42
-0.083503
  0
VERTEX
  8
0
 10
452.617786
 20
592.836754
 42
-0.204612
  0
VERTEX
  8
0
 10
453.000000
 20
593.000000
 42
0.275259
  0
VERTEX
  8
0
 10
453.385522
 20
593.229636
 42
0.053437
  0
VERTEX
  8
0
 10
453.706250
 20
594.010789
 42
0.043243
  0
VERTEX
  8
0
 10
453.927436
 20
595.122516
 42
0.027497
  0
VERTEX
  8
0
 10
454.000000
 20
596.440983
 42
-0.026918
  0
VERTEX
  8
0
 10
454.073414
 20
597.803639
 42
-0.033489
  0
VERTEX
  8
0
 10
454.293750
 20
599.052725
 42
-0.035556
  0
VERTEX
  8
0
 10
454.613307
 20
600.041340
 42
-0.159713
  0
VERTEX
  8
0
 10
455.000000
 20
600.500000
 42
0.144823
  0
VERTEX
  8
0
 10
455.385448
 20
600.931076
 42
0.040930
  0
VERTEX
  8
0
 10
455.706250
 20
601.783064
 42
0.037579
  0
VERTEX
  8
0
 10
455.926362
 20
602.851470
 42
0.032024
  0
VERTEX
  8
0
 10
456.000000
 20
604.000000
 42
-0.032024
  0
VERTEX
  8
0
 10
456.073638
 20
605.148530
 42
-0.037579
  0
VERTEX
  8
0
 10
456.293750
 20
606.216936
 42
-0.040930
  0
VERTEX
  8
0
 10
456.614552
 20
607.068924
 42
-0.144823
  0
VERTEX
  8
0
 10
457.000000
 20
607.500000
 42
0.159713
  0
VERTEX
  8
0
 10
457.386693
 20
607.958660
 42
0.035556
  0
VERTEX
  8
0
 10
457.706250
 20
608.947275
 42
0.033489
  0
VERTEX
  8
0
 10
457.926586
 20
610.196361
 42
0.026918
  0
VERTEX
  8
0
 10
458.000000
 20
611.559017
 42
-0.027497
  0
VERTEX
  8
0
 10
458.072564
 20
612.877484
 42
-0.043243
  0
VERTEX
  8
0
 10
458.293750
 20
613.989211
 42
-0.053437
  0
VERTEX
  8
0
 10
458.614478
 20
614.770364
 42
-0.275259
  0
VERTEX
  8
0
 10
459.000000
 20
615.000000
 42
0.277684
  0
VERTEX
  8
0
 10
459.385692
 20
615.232098
 42
0.052312
  0
VERTEX
  8
0
 10
459.706250
 20
616.028125
 42
0.042582
  0
VERTEX
  8
0
 10
459.927458
 20
617.158889
 42
0.027026
  0
VERTEX
  8
0
 10
460.000000
 20
618.500000
 42
-0.027026
  0
VERTEX
  8
0
 10
460.072542
 20
619.841111
 42
-0.042582
  0
VERTEX
  8
0
 10
460.293750
 20
620.971875
 42
-0.052312
  0
VERTEX
  8
0
 10
460.614308
 20
621.767902
 42
-0.277684
  0
VERTEX
  8
0
 10
461.000000
 20
622.000000
 42
0.254951
  0
VERTEX
  8
0
 10
461.384262
 20
622.209557
 42
0.062710
  0
VERTEX
  8
0
 10
461.706250
 20
622.881250
 42
0.048861
  0
VERTEX
  8
0
 10
461.927234
 20
623.850749
 42
0.031626
  0
VERTEX
  8
0
 10
462.000000
 20
625.000000
 42
-0.031626
  0
VERTEX
  8
0
 10
462.072766
 20
626.149251
 42
-0.048861
  0
VERTEX
  8
0
 10
462.293750
 20
627.118750
 42
-0.062710
  0
VERTEX
  8
0
 10
462.615738
 20
627.790443
 42
-0.254951
  0
VERTEX
  8
0
 10
463.000000
 20
628.000000
 42
0.275259
  0
VERTEX
  8
0
 10
463.385522
 20
628.229636
 42
0.053437
  0
VERTEX
  8
0
 10
463.706250
 20
629.010789
 42
0.043243
  0
VERTEX
  8
0
 10
463.927436
 20
630.122516
 42
0.027497
  0
VERTEX
  8
0
 10
464.000000
 20
631.440983
 42
-0.026918
  0
VERTEX
  8
0
 10
464.073414
 20
632.803639
 42
-0.033489
  0
VERTEX
  8
0
 10
464.293750
 20
634.052725
 42
-0.035556
  0
VERTEX
  8
0
 10
464.613307
 20
635.041340
 42
-0.159713
  0
VERTEX
  8
0
 10
465.000000
 20
635.500000
 42
0.111983
  0
VERTEX
  8
0
 10
465.383579
 20
635.876896
 42
0.050144
  0
VERTEX
  8
0
 10
465.706250
 20
636.510636
 42
0.046179
  0
VERTEX
  8
0
 10
465.925928
 20
637.279081
 42
0.046572
  0
VERTEX
  8
0
 10
466.000000
 20
638.072586
 42
-0.037005
  0
VERTEX
  8
0
 10
466.064818
 20
638.947197
 42
-0.022635
  0
VERTEX
  8
0
 10
466.263577
 20
639.963065
 42
-0.022635
  0
VERTEX
  8
0
 10
466.553357
 20
640.956806
 42
-0.037004
  0
VERTEX
  8
0
 10
466.897282
 20
641.763569
 42
0.031609
  0
VERTEX
  8
0
 10
467.371110
 20
642.842655
 42
0.004188
  0
VERTEX
  8
0
 10
468.208304
 20
645.193048
 42
0.004841
  0
VERTEX
  8
0
 10
469.151748
 20
648.001139
 42
0.004045
  0
VERTEX
  8
0
 10
470.100321
 20
651.000000
 42
-0.011507
  0
VERTEX
  8
0
 10
472.604792
 20
658.525326
 42
-0.008046
  0
VERTEX
  8
0
 10
475.757611
 20
666.891857
 42
-0.008130
  0
VERTEX
  8
0
 10
479.075878
 20
674.902128
 42
-0.015019
  0
VERTEX
  8
0
 10
482.070826
 20
681.279909
 42
0.000000
  0
VERTEX
  8
0
 10
485.000000
 20
687.059817
 42
0.000000
  0
VERTEX
  8
0
 10
485.000000
 20
827.029909
 42
0.000467
  0
VERTEX
  8
0
 10
484.942372
 20
888.677684
 42
0.001319
  0
VERTEX
  8
0
 10
484.748214
 20
931.757477
 42
0.000099
  0
VERTEX
  8
0
 10
484.493031
 20
966.510673
 42
0.412007
  0
VERTEX
  8
0
 10
484.000000
 20
967.000000
 42
-0.191087
  0
VERTEX
  8
0
 10
483.618118
 20
967.151477
 42
-0.088204
  0
VERTEX
  8
0
 10
483.293750
 20
967.587500
 42
-0.068025
  0
VERTEX
  8
0
 10
483.073693
 20
968.234582
 42
-0.048028
  0
VERTEX
  8
0
 10
483.000000
 20
969.000000
 42
-0.048028
  0
VERTEX
  8
0
 10
483.073693
 20
969.765418
 42
-0.068025
  0
VERTEX
  8
0
 10
483.293750
 20
970.412500
 42
-0.088204
  0
VERTEX
  8
0
 10
483.618118
 20
970.848523
 42
-0.191087
  0
VERTEX
  8
0
 10
484.000000
 20
971.000000
 42
0.412007
  0
VERTEX
  8
0
 10
484.493031
 20
971.489327
 42
0.000099
  0
VERTEX
  8
0
 10
484.748214
 20
1006.242523
 42
0.001319
  0
VERTEX
  8
0
 10
484.942372
 20
1049.322316
 42
0.000467
  0
VERTEX
  8
0
 10
485.000000
 20
1110.970091
 42
0.000000
  0
VERTEX
  8
0
 10
485.000000
 20
1250.940183
 42
0.000000
  0
VERTEX
  8
0
 10
482.070826
 20
1256.720091
 42
-0.015019
  0
VERTEX
  8
0
 10
479.075878
 20
1263.097872
 42
-0.008130
  0
VERTEX
  8
0
 10
475.757611
 20
1271.108143
 42
-0.008046
  0
VERTEX
  8
0
 10
472.604792
 20
1279.474674
 42
-0.011507
  0
VERTEX
  8
0
 10
470.100321
 20
1287.000000
 42
0.004045
  0
VERTEX
  8
0
 10
469.151748
 20
1289.998861
 42
0.004841
  0
VERTEX
  8
0
 10
468.208304
 20
1292.806952
 42
0.004188
  0
VERTEX
  8
0
 10
467.371110
 20
1295.157345
 42
0.031609
  0
VERTEX
  8
0
 10
466.897282
 20
1296.236431
 42
-0.037004
  0
VERTEX
  8
0
 10
466.553357
 20
1297.043194
 42
-0.022635
  0
VERTEX
  8
0
 10
466.263577
 20
1298.036935
 42
-0.022635
  0
VERTEX
  8
0
 10
466.064818
 20
1299.052803
 42
-0.037005
  0
VERTEX
  8
0
 10
466.000000
 20
1299.927414
 42
0.046572
  0
VERTEX
  8
0
 10
465.925928
 20
1300.720919
 42
0.046179
  0
VERTEX
  8
0
 10
465.706250
 20
1301.489364
 42
0.050144
  0
VERTEX
  8
0
 10
465.383579
 20
1302.123104
 42
0.111983
  0
VERTEX
  8
0
 10
465.000000
 20
1302.500000
 42
-0.159713
  0
VERTEX
  8
0
 10
464.613307
 20
1302.958660
 42
-0.035556
  0
VERTEX
  8
0
 10
464.293750
 20
1303.947275
 42
-0.033489
  0
VERTEX
  8
0
 10
464.073414
 20
1305.196361
 42
-0.026918
  0
VERTEX
  8
0
 10
464.000000
 20
1306.559017
 42
0.027497
  0
VERTEX
  8
0
 10
463.927436
 20
1307.877484
 42
0.043243
  0
VERTEX
  8
0
 10
463.706250
 20
1308.989211
 42
0.053437
  0
VERTEX
  8
0
 10
463.385522
 20
1309.770364
 42
0.275259
  0
VERTEX
  8
0
 10
463.000000
 20
1310.000000
 42
-0.254951
  0
VERTEX
  8
0
 10
462.615738
 20
1310.209557
 42
-0.062710
  0
VERTEX
  8
0
 10
462.293750
 20
1310.881250
 42
-0.048861
  0
VERTEX
  8
0
 10
462.072766
 20
1311.850749
 42
-0.031626
  0
VERTEX
  8
0
 10
462.000000
 20
1313.000000
 42
0.031626
  0
VERTEX
  8
0
 10
461.927234
 20
1314.149251
 42
0.048861
  0
VERTEX
  8
0
 10
461.706250
 20
1315.118750
 42
0.062710
  0
VERTEX
  8
0
 10
461.384262
 20
1315.790443
 42
0.254951
  0
VERTEX
  8
0
 10
461.000000
 20
1316.000000
 42
-0.277684
  0
VERTEX
  8
0
 10
460.614308
 20
1316.232098
 42
-0.052312
  0
VERTEX
  8
0
 10
460.293750
 20
1317.028125
 42
-0.042582
  0
VERTEX
  8
0
 10
460.072542
 20
1318.158889
 42
-0.027026
  0
VERTEX
  8
0
 10
460.000000
 20
1319.500000
 42
0.027026
  0
VERTEX
  8
0
 10
459.927458
 20
1320.841111
 42
0.042582
  0
VERTEX
  8
0
 10
459.706250
 20
1321.971875
 42
0.052312
  0
VERTEX
  8
0
 10
459.385692
 20
1322.767902
 42
0.277684
  0
VERTEX
  8
0
 10
459.000000
 20
1323.000000
 42
-0.275259
  0
VERTEX
  8
0
 10
458.614478
 20
1323.229636
 42
-0.053437
  0
VERTEX
  8
0
 10
458.293750
 20
1324.010789
 42
-0.043243
  0
VERTEX
  8
0
 10
458.072564
 20
1325.122516
 42
-0.027497
  0
VERTEX
  8
0
 10
458.000000
 20
1326.440983
 42
0.026918
  0
VERTEX
  8
0
 10
457.926586
 20
1327.803639
 42
0.033489
  0
VERTEX
  8
0
 10
457.706250
 20
1329.052725
 42
0.035556
  0
VERTEX
  8
0
 10
457.386693
 20
1330.041340
 42
0.159713
  0
VERTEX
  8
0
 10
457.000000
 20
1330.500000
 42
-0.144823
  0
VERTEX
  8
0
 10
456.614552
 20
1330.931076
 42
-0.040930
  0
VERTEX
  8
0
 10
456.293750
 20
1331.783064
 42
-0.037579
  0
VERTEX
  8
0
 10
456.073638
 20
1332.851470
 42
-0.032024
  0
VERTEX
  8
0
 10
456.000000
 20
1334.000000
 42
0.032024
  0
VERTEX
  8
0
 10
455.926362
 20
1335.148530
 42
0.037579
  0
VERTEX
  8
0
 10
455.706250
 20
1336.216936
 42
0.040930
  0
VERTEX
  8
0
 10
455.385448
 20
1337.068924
 42
0.144823
  0
VERTEX
  8
0
 10
455.000000
 20
1337.500000
 42
-0.159713
  0
VERTEX
  8
0
 10
454.613307
 20
1337.958660
 42
-0.035556
  0
VERTEX
  8
0
 10
454.293750
 20
1338.947275
 42
-0.033489
  0
VERTEX
  8
0
 10
454.073414
 20
1340.196361
 42
-0.026918
  0
VERTEX
  8
0
 10
454.000000
 20
1341.559017
 42
0.027497
  0
VERTEX
  8
0
 10
453.927436
 20
1342.877484
 42
0.043243
  0
VERTEX
  8
0
 10
453.706250
 20
1343.989211
 42
0.053437
  0
VERTEX
  8
0
 10
453.385522
 20
1344.770364
 42
0.275259
  0
VERTEX
  8
0
 10
453.000000
 20
1345.000000
 42
-0.204612
  0
VERTEX
  8
0
 10
452.617786
 20
1345.163246
 42
-0.083503
  0
VERTEX
  8
0
 10
452.293750
 20
1345.640082
 42
-0.063734
  0
VERTEX
  8
0
 10
452.073451
 20
1346.344865
 42
-0.043943
  0
VERTEX
  8
0
 10
452.000000
 20
1347.179002
 42
0.031592
  0
VERTEX
  8
0
 10
451.933542
 20
1348.229759
 42
0.013546
  0
VERTEX
  8
0
 10
451.718563
 20
1349.620028
 42
0.013340
  0
VERTEX
  8
0
 10
451.408805
 20
1351.093660
 42
0.017138
  0
VERTEX
  8
0
 10
451.041917
 20
1352.429002
 42
-0.011053
  0
VERTEX
  8
0
 10
450.543064
 20
1354.161828
 42
-0.002272
  0
VERTEX
  8
0
 10
449.744650
 20
1357.241644
 42
-0.002389
  0
VERTEX
  8
0
 10
448.850227
 20
1360.829149
 42
-0.002245
  0
VERTEX
  8
0
 10
447.971082
 20
1364.500000
 42
0.000055
  0
VERTEX
  8
0
 10
447.101522
 20
1368.202344
 42
0.000056
  0
VERTEX
  8
0
 10
446.235863
 20
1371.884375
 42
0.000055
  0
VERTEX
  8
0
 10
445.482394
 20
1375.086021
 42
0.000233
  0
VERTEX
  8
0
 10
445.030799
 20
1377.000000
 42
-0.004396
  0
VERTEX
  8
0
 10
444.601370
 20
1378.890320
 42
-0.001114
  0
VERTEX
  8
0
 10
443.937619
 20
1381.968750
 42
-0.001136
  0
VERTEX
  8
0
 10
443.195151
 20
1385.489063
 42
-0.001148
  0
VERTEX
  8
0
 10
442.471398
 20
1389.000000
 42
0.004068
  0
VERTEX
  8
0
 10
441.749566
 20
1392.401059
 42
0.004873
  0
VERTEX
  8
0
 10
441.012787
 20
1395.590625
 42
0.004211
  0
VERTEX
  8
0
 10
440.343621
 20
1398.264986
 42
0.031911
  0
VERTEX
  8
0
 10
439.937905
 20
1399.500000
 42
-0.032648
  0
VERTEX
  8
0
 10
439.343283
 20
1401.319076
 42
-0.012406
  0
VERTEX
  8
0
 10
438.745141
 20
1403.922321
 42
-0.009590
  0
VERTEX
  8
0
 10
438.108799
 20
1407.382770
 42
-0.004178
  0
VERTEX
  8
0
 10
437.390535
 20
1412.000000
 42
0.013972
  0
VERTEX
  8
0
 10
437.129358
 20
1413.486604
 42
0.011446
  0
VERTEX
  8
0
 10
436.769812
 20
1415.059375
 42
0.011611
  0
VERTEX
  8
0
 10
436.372319
 20
1416.490850
 42
0.029695
  0
VERTEX
  8
0
 10
436.000000
 20
1417.500000
 42
-0.045896
  0
VERTEX
  8
0
 10
435.291338
 20
1419.630640
 42
-0.014298
  0
VERTEX
  8
0
 10
434.618371
 20
1422.937352
 42
-0.011813
  0
VERTEX
  8
0
 10
433.971128
 20
1427.262200
 42
-0.005933
  0
VERTEX
  8
0
 10
433.348003
 20
1432.750000
 42
0.016069
  0
VERTEX
  8
0
 10
433.078102
 20
1434.762275
 42
0.025589
  0
VERTEX
  8
0
 10
432.704936
 20
1436.457813
 42
0.023091
  0
VERTEX
  8
0
 10
432.290160
 20
1437.735171
 42
0.312256
  0
VERTEX
  8
0
 10
431.907450
 20
1438.000000
 42
-0.332411
  0
VERTEX
  8
0
 10
431.552586
 20
1438.265228
 42
-0.026902
  0
VERTEX
  8
0
 10
431.266564
 20
1439.468750
 42
-0.027819
  0
VERTEX
  8
0
 10
431.065468
 20
1441.083325
 42
-0.017074
  0
VERTEX
  8
0
 10
431.000000
 20
1443.000000
 42
0.018830
  0
VERTEX
  8
0
 10
430.927795
 20
1444.916554
 42
0.030530
  0
VERTEX
  8
0
 10
430.706250
 20
1446.531250
 42
0.031449
  0
VERTEX
  8
0
 10
430.389817
 20
1447.719449
 42
0.322437
  0
VERTEX
  8
0
 10
430.000000
 20
1448.000000
 42
-0.332234
  0
VERTEX
  8
0
 10
429.608967
 20
1448.292067
 42
-0.026982
  0
VERTEX
  8
0
 10
429.293750
 20
1449.615625
 42
-0.027868
  0
VERTEX
  8
0
 10
429.072146
 20
1451.391660
 42
-0.017105
  0
VERTEX
  8
0
 10
429.000000
 20
1453.500000
 42
0.015635
  0
VERTEX
  8
0
 10
428.934052
 20
1455.608442
 42
0.025571
  0
VERTEX
  8
0
 10
428.731315
 20
1457.384375
 42
0.023256
  0
VERTEX
  8
0
 10
428.444048
 20
1458.723604
 42
0.340569
  0
VERTEX
  8
0
 10
428.085327
 20
1459.000000
 42
-0.328182
  0
VERTEX
  8
0
 10
427.699365
 20
1459.283910
 42
-0.017651
  0
VERTEX
  8
0
 10
427.274722
 20
1460.835938
 42
-0.021963
  0
VERTEX
  8
0
 10
426.891071
 20
1462.854177
 42
-0.013628
  0
VERTEX
  8
0
 10
426.610256
 20
1465.250000
 42
0.002074
  0
VERTEX
  8
0
 10
425.724467
 20
1474.688635
 42
0.010475
  0
VERTEX
  8
0
 10
425.097801
 20
1479.944551
 42
0.013839
  0
VERTEX
  8
0
 10
424.540973
 20
1483.241841
 42
0.143479
  0
VERTEX
  8
0
 10
423.912013
 20
1484.450000
 42
-0.137210
  0
VERTEX
  8
0
 10
423.556177
 20
1485.113471
 42
-0.018669
  0
VERTEX
  8
0
 10
423.267904
 20
1486.677813
 42
-0.020339
  0
VERTEX
  8
0
 10
423.066725
 20
1488.601000
 42
-0.015890
  0
VERTEX
  8
0
 10
423.000000
 20
1490.700000
 42
0.016100
  0
VERTEX
  8
0
 10
422.934560
 20
1492.731741
 42
0.026300
  0
VERTEX
  8
0
 10
422.733436
 20
1494.443125
 42
0.024425
  0
VERTEX
  8
0
 10
422.448096
 20
1495.728716
 42
0.337935
  0
VERTEX
  8
0
 10
422.092550
 20
1496.000000
 42
-0.312648
  0
VERTEX
  8
0
 10
421.710279
 20
1496.264929
 42
-0.023122
  0
VERTEX
  8
0
 10
421.297638
 20
1497.542187
 42
-0.025608
  0
VERTEX
  8
0
 10
420.927301
 20
1499.237721
 42
-0.016075
  0
VERTEX
  8
0
 10
420.660760
 20
1501.250000
 42
0.027890
  0
VERTEX
  8
0
 10
418.277593
 20
1516.470962
 42
0.009463
  0
VERTEX
  8
0
 10
413.167886
 20
1538.293620
 42
0.003327
  0
VERTEX
  8
0
 10
407.260196
 20
1560.902633
 42
0.226586
  0
VERTEX
  8
0
 10
404.751940
 20
1563.833333
 42
-0.179719
  0
VERTEX
  8
0
 10
404.461676
 20
1564.116436
 42
-0.042467
  0
VERTEX
  8
0
 10
404.220882
 20
1564.761310
 42
-0.038415
  0
VERTEX
  8
0
 10
404.055176
 20
1565.597263
 42
-0.029733
  0
VERTEX
  8
0
 10
404.000000
 20
1566.524316
 42
0.038918
  0
VERTEX
  8
0
 10
403.926118
 20
1567.472092
 42
0.042177
  0
VERTEX
  8
0
 10
403.706250
 20
1568.370954
 42
0.046287
  0
VERTEX
  8
0
 10
403.384338
 20
1569.098224
 42
0.127689
  0
VERTEX
  8
0
 10
403.000000
 20
1569.500000
 42
-0.111412
  0
VERTEX
  8
0
 10
402.616444
 20
1569.876024
 42
-0.050262
  0
VERTEX
  8
0
 10
402.293750
 20
1570.506650
 42
-0.046318
  0
VERTEX
  8
0
 10
402.074077
 20
1571.270704
 42
-0.046881
  0
VERTEX
  8
0
 10
402.000000
 20
1572.059017
 42
0.049547
  0
VERTEX
  8
0
 10
401.926216
 20
1572.801778
 42
0.069539
  0
VERTEX
  8
0
 10
401.706250
 20
1573.429836
 42
0.089706
  0
VERTEX
  8
0
 10
401.381787
 20
1573.852535
 42
0.186414
  0
VERTEX
  8
0
 10
401.000000
 20
1574.000000
 42
-0.226478
  0
VERTEX
  8
0
 10
400.617064
 20
1574.182831
 42
-0.074992
  0
VERTEX
  8
0
 10
400.293750
 20
1574.734375
 42
-0.057076
  0
VERTEX
  8
0
 10
400.073116
 20
1575.542644
 42
-0.038131
  0
VERTEX
  8
0
 10
400.000000
 20
1576.500000
 42
0.038131
  0
VERTEX
  8
0
 10
399.926884
 20
1577.457356
 42
0.057076
  0
VERTEX
  8
0
 10
399.706250
 20
1578.265625
 42
0.074992
  0
VERTEX
  8
0
 10
399.382936
 20
1578.817169
 42
0.226478
  0
VERTEX
  8
0
 10
399.000000
 20
1579.000000
 42
-0.191087
  0
VERTEX
  8
0
 10
398.618118
 20
1579.151477
 42
-0.088204
  0
VERTEX
  8
0
 10
398.293750
 20
1579.587500
 42
-0.068025
  0
VERTEX
  8
0
 10
398.073693
 20
1580.234582
 42
-0.048028
  0
VERTEX
  8
0
 10
398.000000
 20
1581.000000
 42
0.048028
  0
VERTEX
  8
0
 10
397.926307
 20
1581.765418
 42
0.068025
  0
VERTEX
  8
0
 10
397.706250
 20
1582.412500
 42
0.088204
  0
VERTEX
  8
0
 10
397.381882
 20
1582.848523
 42
0.191087
  0
VERTEX
  8
0
 10
397.000000
 20
1583.000000
 42
-0.191087
  0
VERTEX
  8
0
 10
396.618118
 20
1583.151477
 42
-0.088204
  0
VERTEX
  8
0
 10
396.293750
 20
1583.587500
 42
-0.068025
  0
VERTEX
  8
0
 10
396.073693
 20
1584.234582
 42
-0.048028
  0
VERTEX
  8
0
 10
396.000000
 20
1585.000000
 42
0.048028
  0
VERTEX
  8
0
 10
395.926307
 20
1585.765418
 42
0.068025
  0
VERTEX
  8
0
 10
395.706250
 20
1586.412500
 42
0.088204
  0
VERTEX
  8
0
 10
395.381882
 20
1586.848523
 42
0.191087
  0
VERTEX
  8
0
 10
395.000000
 20
1587.000000
 42
-0.191087
  0
VERTEX
  8
0
 10
394.618118
 20
1587.151477
 42
-0.088204
  0
VERTEX
  8
0
 10
394.293750
 20
1587.587500
 42
-0.068025
  0
VERTEX
  8
0
 10
394.073693
 20
1588.234582
 42
-0.048028
  0
VERTEX
  8
0
 10
394.000000
 20
1589.000000
 42
0.048028
  0
VERTEX
  8
0
 10
393.926307
 20
1589.765418
 42
0.068025
  0
VERTEX
  8
0
 10
393.706250
 20
1590.412500
 42
0.088204
  0
VERTEX
  8
0
 10
393.381882
 20
1590.848523
 42
0.191087
  0
VERTEX
  8
0
 10
393.000000
 20
1591.000000
 42
-0.191087
  0
VERTEX
  8
0
 10
392.618118
 20
1591.151477
 42
-0.088204
  0
VERTEX
  8
0
 10
392.293750
 20
1591.587500
 42
-0.068025
  0
VERTEX
  8
0
 10
392.073693
 20
1592.234582
 42
-0.048028
  0
VERTEX
  8
0
 10
392.000000
 20
1593.000000
 42
0.048028
  0
VERTEX
  8
0
 10
391.926307
 20
1593.765418
 42
0.068025
  0
VERTEX
  8
0
 10
391.706250
 20
1594.412500
 42
0.088204
  0
VERTEX
  8
0
 10
391.381882
 20
1594.848523
 42
0.191087
  0
VERTEX
  8
0
 10
391.000000
 20
1595.000000
 42
-0.191087
  0
VERTEX
  8
0
 10
390.618118
 20
1595.151477
 42
-0.088204
  0
VERTEX
  8
0
 10
390.293750
 20
1595.587500
 42
-0.068025
  0
VERTEX
  8
0
 10
390.073693
 20
1596.234582
 42
-0.048028
  0
VERTEX
  8
0
 10
390.000000
 20
1597.000000
 42
0.048028
  0
VERTEX
  8
0
 10
389.926307
 20
1597.765418
 42
0.068025
  0
VERTEX
  8
0
 10
389.706250
 20
1598.412500
 42
0.088204
  0
VERTEX
  8
0
 10
389.381882
 20
1598.848523
 42
0.191087
  0
VERTEX
  8
0
 10
389.000000
 20
1599.000000
 42
-0.148195
  0
VERTEX
  8
0
 10
388.618646
 20
1599.115568
 42
-0.098894
  0
VERTEX
  8
0
 10
388.293750
 20
1599.440625
 42
-0.082425
  0
VERTEX
  8
0
 10
388.074694
 20
1599.926543
 42
-0.064853
  0
VERTEX
  8
0
 10
388.000000
 20
1600.500000
 42
0.048420
  0
VERTEX
  8
0
 10
387.944278
 20
1601.074049
 42
0.068420
  0
VERTEX
  8
0
 10
387.777958
 20
1601.559375
 42
0.088604
  0
VERTEX
  8
0
 10
387.532752
 20
1601.886296
 42
0.189864
  0
VERTEX
  8
0
 10
387.244111
 20
1602.000000
 42
-0.224551
  0
VERTEX
  8
0
 10
386.872340
 20
1602.175830
 42
-0.024645
  0
VERTEX
  8
0
 10
386.294903
 20
1602.954688
 42
-0.026312
  0
VERTEX
  8
0
 10
385.670909
 20
1604.004990
 42
-0.018274
  0
VERTEX
  8
0
 10
385.074224
 20
1605.250000
 42
0.008701
  0
VERTEX
  8
0
 10
384.490123
 20
1606.531117
 42
0.011036
  0
VERTEX
  8
0
 10
383.904353
 20
1607.692187
 42
0.009187
  0
VERTEX
  8
0
 10
383.377530
 20
1608.639143
 42
0.084137
  0
VERTEX
  8
0
 10
383.077300
 20
1609.000000
 42
-0.065676
  0
VERTEX
  8
0
 10
381.967752
 20
1610.238187
 42
-0.005774
  0
VERTEX
  8
0
 10
379.628682
 20
1613.747210
 42
-0.003446
  0
VERTEX
  8
0
 10
377.261460
 20
1617.444409
 42
-0.141589
  0
VERTEX
  8
0
 10
377.000000
 20
1618.349205
 42
0.149589
  0
VERTEX
  8
0
 10
376.871859
 20
1618.767930
 42
0.015746
  0
VERTEX
  8
0
 10
376.265625
 20
1619.607409
 42
0.018374
  0
VERTEX
  8
0
 10
375.457473
 20
1620.579291
 42
0.013746
  0
VERTEX
  8
0
 10
374.500000
 20
1621.590909
 42
-0.017007
  0
VERTEX
  8
0
 10
373.542729
 20
1622.615613
 42
-0.021584
  0
VERTEX
  8
0
 10
372.734375
 20
1623.627140
 42
-0.020233
  0
VERTEX
  8
0
 10
372.141145
 20
1624.512001
 42
-0.138408
  0
VERTEX
  8
0
 10
372.000000
 20
1625.012121
 42
0.155132
  0
VERTEX
  8
0
 10
371.831253
 20
1625.542913
 42
0.013501
  0
VERTEX
  8
0
 10
370.971875
 20
1626.690852
 42
0.016731
  0
VERTEX
  8
0
 10
369.840609
 20
1628.025571
 42
0.012215
  0
VERTEX
  8
0
 10
368.500000
 20
1629.433333
 42
-0.006954
  0
VERTEX
  8
0
 10
367.158820
 20
1630.812347
 42
-0.010365
  0
VERTEX
  8
0
 10
366.028125
 20
1632.058517
 42
-0.005755
  0
VERTEX
  8
0
 10
365.117681
 20
1633.129364
 42
-0.175032
  0
VERTEX
  8
0
 10
365.000000
 20
1633.455236
 42
0.195235
  0
VERTEX
  8
0
 10
364.206808
 20
1635.409188
 42
0.001370
  0
VERTEX
  8
0
 10
351.450962
 20
1648.459809
 42
0.004294
  0
VERTEX
  8
0
 10
339.536794
 20
1660.376251
 42
0.040677
  0
VERTEX
  8
0
 10
334.000000
 20
1664.998301
 42
-0.014081
  0
VERTEX
  8
0
 10
332.422862
 20
1666.178559
 42
-0.007814
  0
VERTEX
  8
0
 10
330.563646
 20
1667.701307
 42
-0.007787
  0
VERTEX
  8
0
 10
328.727766
 20
1669.303193
 42
-0.012456
  0
VERTEX
  8
0
 10
327.216667
 20
1670.733458
 42
0.010132
  0
VERTEX
  8
0
 10
325.906716
 20
1671.984927
 42
0.014331
  0
VERTEX
  8
0
 10
324.687292
 20
1673.040812
 42
0.010388
  0
VERTEX
  8
0
 10
323.642197
 20
1673.858990
 42
0.161824
  0
VERTEX
  8
0
 10
323.216667
 20
1674.001221
 42
-0.134883
  0
VERTEX
  8
0
 10
322.803200
 20
1674.115586
 42
-0.013940
  0
VERTEX
  8
0
 10
321.941888
 20
1674.662663
 42
-0.016544
  0
VERTEX
  8
0
 10
320.937825
 20
1675.389893
 42
-0.012503
  0
VERTEX
  8
0
 10
319.883377
 20
1676.251221
 42
0.005666
  0
VERTEX
  8
0
 10
318.645047
 20
1677.291304
 42
0.002872
  0
VERTEX
  8
0
 10
317.064054
 20
1678.573796
 42
0.002852
  0
VERTEX
  8
0
 10
315.416845
 20
1679.879018
 42
0.004253
  0
VERTEX
  8
0
 10
313.960089
 20
1681.000000
 42
-0.008374
  0
VERTEX
  8
0
 10
312.527405
 20
1682.121375
 42
-0.005916
  0
VERTEX
  8
0
 10
310.954638
 20
1683.426563
 42
-0.005973
  0
VERTEX
  8
0
 10
309.480594
 20
1684.710214
 42
-0.012522
  0
VERTEX
  8
0
 10
308.372167
 20
1685.750000
 42
0.021023
  0
VERTEX
  8
0
 10
307.422100
 20
1686.611349
 42
0.024942
  0
VERTEX
  8
0
 10
306.453926
 20
1687.339062
 42
0.024940
  0
VERTEX
  8
0
 10
305.590442
 20
1687.862312
 42
0.124368
  0
VERTEX
  8
0
 10
305.045455
 20
1688.000000
 42
-0.094588
  0
VERTEX
  8
0
 10
304.646398
 20
1688.076174
 42
-0.096788
  0
VERTEX
  8
0
 10
304.307102
 20
1688.293750
 42
-0.098920
  0
VERTEX
  8
0
 10
304.079978
 20
1688.618426
 42
-0.103674
  0
VERTEX
  8
0
 10
304.000000
 20
1689.000000
 42
0.109085
  0
VERTEX
  8
0
 10
303.915764
 20
1689.381509
 42
0.099782
  0
VERTEX
  8
0
 10
303.677230
 20
1689.706250
 42
0.095294
  0
VERTEX
  8
0
 10
303.320713
 20
1689.924024
 42
0.089824
  0
VERTEX
  8
0
 10
302.901210
 20
1690.000000
 42
-0.143035
  0
VERTEX
  8
0
 10
302.312902
 20
1690.171812
 42
-0.021819
  0
VERTEX
  8
0
 10
301.301978
 20
1690.881250
 42
-0.022916
  0
VERTEX
  8
0
 10
300.153501
 20
1691.851293
 42
-0.018062
  0
VERTEX
  8
0
 10
299.000000
 20
1693.000000
 42
0.015666
  0
VERTEX
  8
0
 10
297.857332
 20
1694.148876
 42
0.020606
  0
VERTEX
  8
0
 10
296.741589
 20
1695.118750
 42
0.018565
  0
VERTEX
  8
0
 10
295.769444
 20
1695.838390
 42
0.151164
  0
VERTEX
  8
0
 10
295.247104
 20
1696.000000
 42
-0.137829
  0
VERTEX
  8
0
 10
294.717882
 20
1696.148709
 42
-0.017457
  0
VERTEX
  8
0
 10
293.717934
 20
1696.807812
 42
-0.019408
  0
VERTEX
  8
0
 10
292.564007
 20
1697.696915
 42
-0.015010
  0
VERTEX
  8
0
 10
291.376131
 20
1698.750000
 42
0.008797
  0
VERTEX
  8
0
 10
290.007626
 20
1699.993924
 42
0.004837
  0
VERTEX
  8
0
 10
288.291921
 20
1701.470055
 42
0.004820
  0
VERTEX
  8
0
 10
286.521660
 20
1702.934595
 42
0.007691
  0
VERTEX
  8
0
 10
284.977817
 20
1704.148060
 42
-0.006441
  0
VERTEX
  8
0
 10
283.484684
 20
1705.315639
 42
-0.004855
  0
VERTEX
  8
0
 10
281.872954
 20
1706.635697
 42
-0.004909
  0
VERTEX
  8
0
 10
280.382018
 20
1707.906261
 42
-0.011293
  0
VERTEX
  8
0
 10
279.291813
 20
1708.898060
 42
0.011138
  0
VERTEX
  8
0
 10
278.407330
 20
1709.703207
 42
0.015395
  0
VERTEX
  8
0
 10
277.576482
 20
1710.382555
 42
0.011925
  0
VERTEX
  8
0
 10
276.864468
 20
1710.902545
 42
0.152908
  0
VERTEX
  8
0
 10
276.553244
 20
1711.000000
 42
-0.167573
  0
VERTEX
  8
0
 10
275.705905
 20
1711.292187
 42
-0.009482
  0
VERTEX
  8
0
 10
273.524176
 20
1713.067627
 42
-0.012317
  0
VERTEX
  8
0
 10
270.781522
 20
1715.505734
 42
-0.005969
  0
VERTEX
  8
0
 10
267.390286
 20
1718.750000
 42
0.011236
  0
VERTEX
  8
0
 10
265.652274
 20
1720.377980
 42
0.015581
  0
VERTEX
  8
0
 10
264.018483
 20
1721.751563
 42
0.012051
  0
VERTEX
  8
0
 10
262.616977
 20
1722.803412
 42
0.156184
  0
VERTEX
  8
0
 10
262.002982
 20
1723.000000
 42
-0.150038
  0
VERTEX
  8
0
 10
261.389963
 20
1723.188189
 42
-0.012470
  0
VERTEX
  8
0
 10
260.020084
 20
1724.167500
 42
-0.015767
  0
VERTEX
  8
0
 10
258.422134
 20
1725.452105
 42
-0.011502
  0
VERTEX
  8
0
 10
256.726666
 20
1726.974466
 42
0.006487
  0
VERTEX
  8
0
 10
252.263833
 20
1731.063214
 42
0.006432
  0
VERTEX
  8
0
 10
247.683718
 20
1735.046725
 42
0.006757
  0
VERTEX
  8
0
 10
243.313091
 20
1738.650035
 42
0.011029
  0
VERTEX
  8
0
 10
239.500000
 20
1741.572265
 42
-0.013492
  0
VERTEX
  8
0
 10
237.703097
 20
1742.963457
 42
-0.007611
  0
VERTEX
  8
0
 10
235.596468
 20
1744.741540
 42
-0.007592
  0
VERTEX
  8
0
 10
233.524176
 20
1746.601417
 42
-0.012337
  0
VERTEX
  8
0
 10
231.828401
 20
1748.250000
 42
0.013613
  0
VERTEX
  8
0
 10
230.343485
 20
1749.686244
 42
0.018308
  0
VERTEX
  8
0
 10
228.918553
 20
1750.898438
 42
0.015563
  0
VERTEX
  8
0
 10
227.687576
 20
1751.809542
 42
0.152680
  0
VERTEX
  8
0
 10
227.078401
 20
1752.000000
 42
-0.091591
  0
VERTEX
  8
0
 10
226.666715
 20
1752.076051
 42
-0.095880
  0
VERTEX
  8
0
 10
226.316780
 20
1752.293750
 42
-0.099487
  0
VERTEX
  8
0
 10
226.082610
 20
1752.618468
 42
-0.107021
  0
VERTEX
  8
0
 10
226.000000
 20
1753.000000
 42
0.107021
  0
VERTEX
  8
0
 10
225.917390
 20
1753.381532
 42
0.099487
  0
VERTEX
  8
0
 10
225.683220
 20
1753.706250
 42
0.095880
  0
VERTEX
  8
0
 10
225.333285
 20
1753.923949
 42
0.091591
  0
VERTEX
  8
0
 10
224.921599
 20
1754.000000
 42
-0.157214
  0
VERTEX
  8
0
 10
224.308348
 20
1754.197710
 42
-0.014680
  0
VERTEX
  8
0
 10
223.031039
 20
1755.175000
 42
-0.017724
  0
VERTEX
  8
0
 10
221.550663
 20
1756.467921
 42
-0.013010
  0
VERTEX
  8
0
 10
220.000000
 20
1758.000000
 42
0.010586
  0
VERTEX
  8
0
 10
218.464021
 20
1759.532355
 42
0.014973
  0
VERTEX
  8
0
 10
217.028577
 20
1760.825000
 42
0.011025
  0
VERTEX
  8
0
 10
215.796015
 20
1761.823985
 42
0.166272
  0
VERTEX
  8
0
 10
215.281348
 20
1762.000000
 42
-0.164983
  0
VERTEX
  8
0
 10
214.764486
 20
1762.175319
 42
-0.010734
  0
VERTEX
  8
0
 10
213.511585
 20
1763.179218
 42
-0.014699
  0
VERTEX
  8
0
 10
212.051352
 20
1764.476495
 42
-0.010384
  0
VERTEX
  8
0
 10
210.485980
 20
1766.014358
 42
0.014127
  0
VERTEX
  8
0
 10
208.691763
 20
1767.750843
 42
0.009258
  0
VERTEX
  8
0
 10
206.532836
 20
1769.653093
 42
0.009316
  0
VERTEX
  8
0
 10
204.359350
 20
1771.429234
 42
0.017622
  0
VERTEX
  8
0
 10
202.533032
 20
1772.764358
 42
-0.019493
  0
VERTEX
  8
0
 10
200.656080
 20
1774.147298
 42
-0.008876
  0
VERTEX
  8
0
 10
198.308462
 20
1776.091718
 42
-0.008774
  0
VERTEX
  8
0
 10
195.903446
 20
1778.231184
 42
-0.011926
  0
VERTEX
  8
0
 10
193.814924
 20
1780.250000
 42
0.006462
  0
VERTEX
  8
0
 10
191.972526
 20
1782.070264
 42
0.009721
  0
VERTEX
  8
0
 10
190.315462
 20
1783.604687
 42
0.005073
  0
VERTEX
  8
0
 10
188.888788
 20
1784.849432
 42
0.178680
  0
VERTEX
  8
0
 10
188.480906
 20
1785.000000
 42
-0.172747
  0
VERTEX
  8
0
 10
188.065675
 20
1785.147872
 42
-0.004363
  0
VERTEX
  8
0
 10
186.505083
 20
1786.443668
 42
-0.008842
  0
VERTEX
  8
0
 10
184.692702
 20
1788.031224
 42
-0.005854
  0
VERTEX
  8
0
 10
182.665982
 20
1789.914616
 42
0.003223
  0
VERTEX
  8
0
 10
178.192893
 20
1794.115453
 42
0.004801
  0
VERTEX
  8
0
 10
174.220583
 20
1797.727791
 42
0.005504
  0
VERTEX
  8
0
 10
170.718798
 20
1800.782802
 42
0.009112
  0
VERTEX
  8
0
 10
167.689316
 20
1803.273645
 42
-0.017580
  0
VERTEX
  8
0
 10
166.059394
 20
1804.660680
 42
-0.002509
  0
VERTEX
  8
0
 10
162.834283
 20
1807.636633
 42
-0.002851
  0
VERTEX
  8
0
 10
159.055191
 20
1811.199533
 42
-0.002429
  0
VERTEX
  8
0
 10
155.108461
 20
1815.000000
 42
0.002686
  0
VERTEX
  8
0
 10
151.022534
 20
1818.930467
 42
0.002552
  0
VERTEX
  8
0
 10
146.825101
 20
1822.884375
 42
0.002532
  0
VERTEX
  8
0
 10
143.078509
 20
1826.342375
 42
0.009025
  0
VERTEX
  8
0
 10
140.629602
 20
1828.500000
 42
-0.003155
  0
VERTEX
  8
0
 10
138.492662
 20
1830.338655
 42
-0.001829
  0
VERTEX
  8
0
 10
135.947103
 20
1832.573437
 42
-0.001828
  0
VERTEX
  8
0
 10
133.410948
 20
1834.833025
 42
-0.003078
  0
VERTEX
  8
0
 10
131.301382
 20
1836.750000
 42
0.009425
  0
VERTEX
  8
0
 10
129.463312
 20
1838.378147
 42
0.013338
  0
VERTEX
  8
0
 10
127.762797
 20
1839.751563
 42
0.009421
  0
VERTEX
  8
0
 10
126.309526
 20
1840.819803
 42
0.154981
  0
VERTEX
  8
0
 10
125.742135
 20
1841.000000
 42
-0.151775
  0
VERTEX
  8
0
 10
125.224671
 20
1841.160779
 42
-0.018318
  0
VERTEX
  8
0
 10
124.255250
 20
1841.881250
 42
-0.020431
  0
VERTEX
  8
0
 10
123.141884
 20
1842.851111
 42
-0.015491
  0
VERTEX
  8
0
 10
122.000000
 20
1844.000000
 42
0.017926
  0
VERTEX
  8
0
 10
120.847119
 20
1845.148716
 42
0.022790
  0
VERTEX
  8
0
 10
119.700511
 20
1846.118750
 42
0.021641
  0
VERTEX
  8
0
 10
118.691859
 20
1846.828713
 42
0.143484
  0
VERTEX
  8
0
 10
118.107264
 20
1847.000000
 42
-0.133514
  0
VERTEX
  8
0
 10
117.601993
 20
1847.137371
 42
-0.044138
  0
VERTEX
  8
0
 10
116.970328
 20
1847.587500
 42
-0.040273
  0
VERTEX
  8
0
 10
116.326345
 20
1848.234662
 42
-0.036062
  0
VERTEX
  8
0
 10
115.767927
 20
1849.000000
 42
0.033434
  0
VERTEX
  8
0
 10
115.215523
 20
1849.765505
 42
0.038465
  0
VERTEX
  8
0
 10
114.589279
 20
1850.412859
 42
0.041999
  0
VERTEX
  8
0
 10
113.982701
 20
1850.865549
 42
0.139895
  0
VERTEX
  8
0
 10
113.509453
 20
1851.001221
 42
-0.116988
  0
VERTEX
  8
0
 10
112.959774
 20
1851.132321
 42
-0.019471
  0
VERTEX
  8
0
 10
112.002646
 20
1851.662663
 42
-0.020436
  0
VERTEX
  8
0
 10
110.906148
 20
1852.390156
 42
-0.016839
  0
VERTEX
  8
0
 10
109.797427
 20
1853.251221
 42
0.017705
  0
VERTEX
  8
0
 10
108.415064
 20
1854.320974
 42
0.006689
  0
VERTEX
  8
0
 10
106.411602
 20
1855.720671
 42
0.006615
  0
VERTEX
  8
0
 10
104.189633
 20
1857.186635
 42
0.008016
  0
VERTEX
  8
0
 10
102.066315
 20
1858.500000
 42
-0.010117
  0
VERTEX
  8
0
 10
100.138042
 20
1859.703952
 42
-0.015151
  0
VERTEX
  8
0
 10
98.509361
 20
1860.839063
 42
-0.010018
  0
VERTEX
  8
0
 10
97.223841
 20
1861.834726
 42
-0.220097
  0
VERTEX
  8
0
 10
97.018888
 20
1862.250000
 42
0.223010
  0
VERTEX
  8
0
 10
96.875094
 20
1862.537323
 42
0.072964
  0
VERTEX
  8
0
 10
96.454016
 20
1862.779687
 42
0.056194
  0
VERTEX
  8
0
 10
95.842785
 20
1862.945126
 42
0.038034
  0
VERTEX
  8
0
 10
95.122445
 20
1863.000000
 42
-0.067559
  0
VERTEX
  8
0
 10
94.312334
 20
1863.109963
 42
-0.044533
  0
VERTEX
  8
0
 10
93.430735
 20
1863.440625
 42
-0.044279
  0
VERTEX
  8
0
 10
92.614539
 20
1863.925824
 42
-0.063393
  0
VERTEX
  8
0
 10
92.000000
 20
1864.500000
 42
0.033978
  0
VERTEX
  8
0
 10
91.453715
 20
1865.074011
 42
0.035553
  0
VERTEX
  8
0
 10
90.842504
 20
1865.559375
 42
0.038020
  0
VERTEX
  8
0
 10
90.257397
 20
1865.897543
 42
0.112484
  0
VERTEX
  8
0
 10
89.807731
 20
1866.000000
 42
-0.119427
  0
VERTEX
  8
0
 10
89.231972
 20
1866.139512
 42
-0.009748
  0
VERTEX
  8
0
 10
87.857790
 20
1866.881250
 42
-0.012653
  0
VERTEX
  8
0
 10
86.239181
 20
1867.850951
 42
-0.009395
  0
VERTEX
  8
0
 10
84.500000
 20
1869.000000
 42
0.010587
  0
VERTEX
  8
0
 10
82.751957
 20
1870.148929
 42
0.013890
  0
VERTEX
  8
0
 10
81.106241
 20
1871.118750
 42
0.011386
  0
VERTEX
  8
0
 10
79.705711
 20
1871.851382
 42
0.115305
  0
VERTEX
  8
0
 10
79.069825
 20
1872.000000
 42
-0.092354
  0
VERTEX
  8
0
 10
78.661427
 20
1872.076083
 42
-0.096121
  0
VERTEX
  8
0
 10
78.314261
 20
1872.293750
 42
-0.099350
  0
VERTEX
  8
0
 10
78.081925
 20
1872.618457
 42
-0.106151
  0
VERTEX
  8
0
 10
78.000000
 20
1873.000000
 42
0.173062
  0
VERTEX
  8
0
 10
77.863853
 20
1873.381567
 42
0.093597
  0
VERTEX
  8
0
 10
77.477348
 20
1873.706250
 42
0.073949
  0
VERTEX
  8
0
 10
76.901422
 20
1873.925933
 42
0.054248
  0
VERTEX
  8
0
 10
76.220759
 20
1874.000000
 42
-0.091287
  0
VERTEX
  8
0
 10
75.434551
 20
1874.144747
 42
-0.047927
  0
VERTEX
  8
0
 10
74.540724
 20
1874.587500
 42
-0.045499
  0
VERTEX
  8
0
 10
73.683198
 20
1875.234851
 42
-0.052224
  0
VERTEX
  8
0
 10
73.000000
 20
1876.000000
 42
0.052224
  0
VERTEX
  8
0
 10
72.316802
 20
1876.765149
 42
0.045499
  0
VERTEX
  8
0
 10
71.459276
 20
1877.412500
 42
0.047927
  0
VERTEX
  8
0
 10
70.565449
 20
1877.855253
 42
0.091287
  0
VERTEX
  8
0
 10
69.779241
 20
1878.000000
 42
-0.054248
  0
VERTEX
  8
0
 10
69.098578
 20
1878.074067
 42
-0.073949
  0
VERTEX
  8
0
 10
68.522652
 20
1878.293750
 42
-0.093597
  0
VERTEX
  8
0
 10
68.136147
 20
1878.618433
 42
-0.173062
  0
VERTEX
  8
0
 10
68.000000
 20
1879.000000
 42
0.173062
  0
VERTEX
  8
0
 10
67.863853
 20
1879.381567
 42
0.093597
  0
VERTEX
  8
0
 10
67.477348
 20
1879.706250
 42
0.073949
  0
VERTEX
  8
0
 10
66.901422
 20
1879.925933
 42
0.054248
  0
VERTEX
  8
0
 10
66.220759
 20
1880.000000
 42
-0.091287
  0
VERTEX
  8
0
 10
65.434551
 20
1880.144747
 42
-0.047927
  0
VERTEX
  8
0
 10
64.540724
 20
1880.587500
 42
-0.045499
  0
VERTEX
  8
0
 10
63.683198
 20
1881.234851
 42
-0.052224
  0
VERTEX
  8
0
 10
63.000000
 20
1882.000000
 42
0.052224
  0
VERTEX
  8
0
 10
62.316802
 20
1882.765149
 42
0.045499
  0
VERTEX
  8
0
 10
61.459276
 20
1883.412500
 42
0.047927
  0
VERTEX
  8
0
 10
60.565449
 20
1883.855253
 42
0.091287
  0
VERTEX
  8
0
 10
59.779241
 20
1884.000000
 42
-0.044750
  0
VERTEX
  8
0
 10
59.098169
 20
1884.061079
 42
-0.064608
  0
VERTEX
  8
0
 10
58.522652
 20
1884.244112
 42
-0.084512
  0
VERTEX
  8
0
 10
58.133628
 20
1884.513455
 42
-0.201824
  0
VERTEX
  8
0
 10
58.000000
 20
1884.831020
 42
0.193066
  0
VERTEX
  8
0
 10
57.836720
 20
1885.238121
 42
0.030557
  0
VERTEX
  8
0
 10
57.192188
 20
1885.834754
 42
0.030119
  0
VERTEX
  8
0
 10
56.303134
 20
1886.476882
 42
0.022236
  0
VERTEX
  8
0
 10
55.250000
 20
1887.081020
 42
-0.032443
  0
VERTEX
  8
0
 10
54.018899
 20
1887.821026
 42
-0.016898
  0
VERTEX
  8
0
 10
52.581461
 20
1888.890987
 42
-0.016733
  0
VERTEX
  8
0
 10
51.174526
 20
1890.093290
 42
-0.024468
  0
VERTEX
  8
0
 10
50.027316
 20
1891.250000
 42
0.022770
  0
VERTEX
  8
0
 10
48.990279
 20
1892.302746
 42
0.027209
  0
VERTEX
  8
0
 10
47.919123
 20
1893.192188
 42
0.027637
  0
VERTEX
  8
0
 10
46.953316
 20
1893.829539
 42
0.132786
  0
VERTEX
  8
0
 10
46.322770
 20
1894.000000
 42
-0.121526
  0
VERTEX
  8
0
 10
45.689527
 20
1894.156218
 42
-0.026634
  0
VERTEX
  8
0
 10
44.718393
 20
1894.734375
 42
-0.026234
  0
VERTEX
  8
0
 10
43.638413
 20
1895.543005
 42
-0.022565
  0
VERTEX
  8
0
 10
42.590909
 20
1896.500000
 42
0.024203
  0
VERTEX
  8
0
 10
41.536564
 20
1897.456930
 42
0.027424
  0
VERTEX
  8
0
 10
40.436155
 20
1898.265625
 42
0.028202
  0
VERTEX
  8
0
 10
39.437959
 20
1898.840533
 42
0.117070
  0
VERTEX
  8
0
 10
38.766214
 20
1899.000000
 42
-0.113243
  0
VERTEX
  8
0
 10
38.156398
 20
1899.139909
 42
-0.043766
  0
VERTEX
  8
0
 10
37.407202
 20
1899.587500
 42
-0.040482
  0
VERTEX
  8
0
 10
36.649462
 20
1900.234755
 42
-0.039628
  0
VERTEX
  8
0
 10
36.000000
 20
1901.000000
 42
0.052224
  0
VERTEX
  8
0
 10
35.316802
 20
1901.765149
 42
0.045499
  0
VERTEX
  8
0
 10
34.459276
 20
1902.412500
 42
0.047927
  0
VERTEX
  8
0
 10
33.565449
 20
1902.855253
 42
0.091287
  0
VERTEX
  8
0
 10
32.779241
 20
1903.000000
 42
-0.054248
  0
VERTEX
  8
0
 10
32.098578
 20
1903.074067
 42
-0.073949
  0
VERTEX
  8
0
 10
31.522652
 20
1903.293750
 42
-0.093597
  0
VERTEX
  8
0
 10
31.136147
 20
1903.618433
 42
-0.173062
  0
VERTEX
  8
0
 10
31.000000
 20
1904.000000
 42
0.191087
  0
VERTEX
  8
0
 10
30.848523
 20
1904.381882
 42
0.088204
  0
VERTEX
  8
0
 10
30.412500
 20
1904.706250
 42
0.068025
  0
VERTEX
  8
0
 10
29.765418
 20
1904.926307
 42
0.048028
  0
VERTEX
  8
0
 10
29.000000
 20
1905.000000
 42
-0.048028
  0
VERTEX
  8
0
 10
28.234582
 20
1905.073693
 42
-0.068025
  0
VERTEX
  8
0
 10
27.587500
 20
1905.293750
 42
-0.088204
  0
VERTEX
  8
0
 10
27.151477
 20
1905.618118
 42
-0.191087
  0
VERTEX
  8
0
 10
27.000000
 20
1906.000000
 42
0.254951
  0
VERTEX
  8
0
 10
26.790443
 20
1906.384262
 42
0.062710
  0
VERTEX
  8
0
 10
26.118750
 20
1906.706250
 42
0.048861
  0
VERTEX
  8
0
 10
25.149251
 20
1906.927234
 42
0.031626
  0
VERTEX
  8
0
 10
24.000000
 20
1907.000000
 42
-0.031626
  0
VERTEX
  8
0
 10
22.850749
 20
1907.072766
 42
-0.048861
  0
VERTEX
  8
0
 10
21.881250
 20
1907.293750
 42
-0.062710
  0
VERTEX
  8
0
 10
21.209557
 20
1907.615738
 42
-0.254951
  0
VERTEX
  8
0
 10
21.000000
 20
1908.000000
 42
0.222681
  0
VERTEX
  8
0
 10
20.820624
 20
1908.382793
 42
0.076538
  0
VERTEX
  8
0
 10
20.282961
 20
1908.706250
 42
0.058208
  0
VERTEX
  8
0
 10
19.493720
 20
1908.926830
 42
0.039081
  0
VERTEX
  8
0
 10
18.559017
 20
1909.000000
 42
-0.037634
  0
VERTEX
  8
0
 10
17.579340
 20
1909.073842
 42
-0.041396
  0
VERTEX
  8
0
 10
16.653525
 20
1909.293750
 42
-0.045439
  0
VERTEX
  8
0
 10
15.906663
 20
1909.615492
 42
-0.130646
  0
VERTEX
  8
0
 10
15.500000
 20
1910.000000
 42
0.212560
  0
VERTEX
  8
0
 10
14.921570
 20
1910.394315
 42
0.014001
  0
VERTEX
  8
0
 10
12.877725
 20
1910.706250
 42
0.018327
  0
VERTEX
  8
0
 10
10.336795
 20
1910.927367
 42
0.012539
  0
VERTEX
  8
0
 10
7.440983
 20
1911.000000
 42
0.000000
  0
VERTEX
  8
0
 10
0.000000
 20
1911.000000
 42
0.000000
  0
SEQEND
  0
POLYLINE
  8
0
 66
1
 70
1
  0
VERTEX
  8
0
 10
96.310298
 20
1732.913558
 42
-0.036266
  0
VERTEX
  8
0
 10
101.552592
 20
1730.840064
 42
-0.016339
  0
VERTEX
  8
0
 10
108.111774
 20
1727.410063
 42
-0.010391
  0
VERTEX
  8
0
 10
114.299129
 20
1723.740761
 42
-0.164391
  0
VERTEX
  8
0
 10
115.833333
 20
1721.877581
 42
0.121299
  0
VERTEX
  8
0
 10
116.065293
 20
1721.541720
 42
0.065125
  0
VERTEX
  8
0
 10
116.484896
 20
1721.257789
 42
0.058880
  0
VERTEX
  8
0
 10
117.016775
 20
1721.065322
 42
0.057458
  0
VERTEX
  8
0
 10
117.583333
 20
1721.000000
 42
-0.068857
  0
VERTEX
  8
0
 10
118.124800
 20
1720.925077
 42
-0.085122
  0
VERTEX
  8
0
 10
118.583854
 20
1720.706250
 42
-0.099913
  0
VERTEX
  8
0
 10
118.890798
 20
1720.381338
 42
-0.140362
  0
VERTEX
  8
0
 10
119.000000
 20
1720.000000
 42
0.107021
  0
VERTEX
  8
0
 10
119.082610
 20
1719.618468
 42
0.099487
  0
VERTEX
  8
0
 10
119.316780
 20
1719.293750
 42
0.095880
  0
VERTEX
  8
0
 10
119.666715
 20
1719.076051
 42
0.091591
  0
VERTEX
  8
0
 10
120.078401
 20
1719.000000
 42
-0.153744
  0
VERTEX
  8
0
 10
120.687287
 20
1718.808243
 42
-0.015566
  0
VERTEX
  8
0
 10
121.918553
 20
1717.888971
 42
-0.018337
  0
VERTEX
  8
0
 10
123.343482
 20
1716.666369
 42
-0.013612
  0
VERTEX
  8
0
 10
124.828401
 20
1715.217773
 42
0.012556
  0
VERTEX
  8
0
 10
126.489304
 20
1713.590637
 42
0.008623
  0
VERTEX
  8
0
 10
128.449593
 20
1711.826526
 42
0.008698
  0
VERTEX
  8
0
 10
130.396926
 20
1710.192515
 42
0.017446
  0
VERTEX
  8
0
 10
132.000000
 20
1708.984315
 42
-0.012578
  0
VERTEX
  8
0
 10
133.565811
 20
1707.827927
 42
-0.007328
  0
VERTEX
  8
0
 10
135.387511
 20
1706.367024
 42
-0.007323
  0
VERTEX
  8
0
 10
137.170330
 20
1704.849372
 42
-0.012285
  0
VERTEX
  8
0
 10
138.617059
 20
1703.516542
 42
0.009872
  0
VERTEX
  8
0
 10
140.015667
 20
1702.215515
 42
0.006849
  0
VERTEX
  8
0
 10
141.644835
 20
1700.798609
 42
0.006910
  0
VERTEX
  8
0
 10
143.247374
 20
1699.480522
 42
0.014113
  0
VERTEX
  8
0
 10
144.547233
 20
1698.500000
 42
-0.011994
  0
VERTEX
  8
0
 10
145.789654
 20
1697.571040
 42
-0.007483
  0
VERTEX
  8
0
 10
147.202092
 20
1696.426563
 42
-0.007507
  0
VERTEX
  8
0
 10
148.561337
 20
1695.255978
 42
-0.013510
  0
VERTEX
  8
0
 10
149.634720
 20
1694.250000
 42
0.021088
  0
VERTEX
  8
0
 10
150.582150
 20
1693.388652
 42
0.025015
  0
VERTEX
  8
0
 10
151.548097
 20
1692.660938
 42
0.025029
  0
VERTEX
  8
0
 10
152.409906
 20
1692.137776
 42
0.124523
  0
VERTEX
  8
0
 10
152.954545
 20
1692.000000
 42
-0.094588
  0
VERTEX
  8
0
 10
153.353602
 20
1691.923826
 42
-0.096788
  0
VERTEX
  8
0
 10
153.692898
 20
1691.706250
 42
-0.098920
  0
VERTEX
  8
0
 10
153.920022
 20
1691.381574
 42
-0.103674
  0
VERTEX
  8
0
 10
154.000000
 20
1691.000000
 42
0.105653
  0
VERTEX
  8
0
 10
154.081534
 20
1690.618451
 42
0.099269
  0
VERTEX
  8
0
 10
154.312821
 20
1690.293750
 42
0.096257
  0
VERTEX
  8
0
 10
154.658405
 20
1690.076101
 42
0.092795
  0
VERTEX
  8
0
 10
155.064924
 20
1690.000000
 42
-0.166120
  0
VERTEX
  8
0
 10
155.695512
 20
1689.784547
 42
-0.010407
  0
VERTEX
  8
0
 10
157.247634
 20
1688.531250
 42
-0.014448
  0
VERTEX
  8
0
 10
159.056802
 20
1686.915489
 42
-0.010168
  0
VERTEX
  8
0
 10
161.000000
 20
1685.000000
 42
0.008458
  0
VERTEX
  8
0
 10
162.930218
 20
1683.084247
 42
0.012345
  0
VERTEX
  8
0
 10
164.699368
 20
1681.468750
 42
0.007858
  0
VERTEX
  8
0
 10
166.217118
 20
1680.191331
 42
0.172664
  0
VERTEX
  8
0
 10
166.754655
 20
1680.000000
 42
-0.168110
  0
VERTEX
  8
0
 10
167.316367
 20
1679.805648
 42
-0.005099
  0
VERTEX
  8
0
 10
169.268271
 20
1678.238776
 42
-0.009556
  0
VERTEX
  8
0
 10
171.541337
 20
1676.301876
 42
-0.006399
  0
VERTEX
  8
0
 10
174.069579
 20
1674.004345
 42
0.005207
  0
VERTEX
  8
0
 10
176.586356
 20
1671.706253
 42
0.007928
  0
VERTEX
  8
0
 10
178.823646
 20
1669.768638
 42
0.003599
  0
VERTEX
  8
0
 10
180.754462
 20
1668.172837
 42
0.171009
  0
VERTEX
  8
0
 10
181.223684
 20
1668.004345
 42
-0.171589
  0
VERTEX
  8
0
 10
181.671454
 20
1667.842988
 42
-0.006461
  0
VERTEX
  8
0
 10
183.056661
 20
1666.679401
 42
-0.011002
  0
VERTEX
  8
0
 10
184.670584
 20
1665.224603
 42
-0.007451
  0
VERTEX
  8
0
 10
186.447368
 20
1663.500000
 42
0.010824
  0
VERTEX
  8
0
 10
188.247485
 20
1661.776178
 42
0.015160
  0
VERTEX
  8
0
 10
189.933360
 20
1660.321875
 42
0.011418
  0
VERTEX
  8
0
 10
191.379511
 20
1659.202672
 42
0.160302
  0
VERTEX
  8
0
 10
191.995423
 20
1659.000000
 42
-0.167038
  0
VERTEX
  8
0
 10
192.628092
 20
1658.782573
 42
-0.008757
  0
VERTEX
  8
0
 10
194.319877
 20
1657.415735
 42
-0.013037
  0
VERTEX
  8
0
 10
196.294275
 20
1655.673049
 42
-0.009046
  0
VERTEX
  8
0
 10
198.436720
 20
1653.606758
 42
0.010327
  0
VERTEX
  8
0
 10
200.727885
 20
1651.408331
 42
0.009744
  0
VERTEX
  8
0
 10
203.151922
 20
1649.262461
 42
0.009750
  0
VERTEX
  8
0
 10
205.372408
 20
1647.446120
 42
0.033150
  0
VERTEX
  8
0
 10
206.914981
 20
1646.391150
 42
-0.015665
  0
VERTEX
  8
0
 10
208.096769
 20
1645.642153
 42
-0.022260
  0
VERTEX
  8
0
 10
209.093776
 20
1644.898708
 42
-0.019327
  0
VERTEX
  8
0
 10
209.843173
 20
1644.236261
 42
-0.204861
  0
VERTEX
  8
0
 10
210.000000
 20
1643.869561
 42
0.210503
  0
VERTEX
  8
0
 10
210.181073
 20
1643.458522
 42
0.007044
  0
VERTEX
  8
0
 10
211.541142
 20
1642.249154
 42
0.012263
  0
VERTEX
  8
0
 10
213.235905
 20
1640.855524
 42
0.008111
  0
VERTEX
  8
0
 10
215.246442
 20
1639.335169
 42
-0.007468
  0
VERTEX
  8
0
 10
217.508303
 20
1637.629328
 42
-0.005470
  0
VERTEX
  8
0
 10
219.968673
 20
1635.671893
 42
-0.005528
  0
VERTEX
  8
0
 10
222.258360
 20
1633.766530
 42
-0.012186
  0
VERTEX
  8
0
 10
223.954780
 20
1632.250000
 42
0.010355
  0
VERTEX
  8
0
 10
225.337213
 20
1631.005024
 42
0.014469
  0
VERTEX
  8
0
 10
226.626855
 20
1629.954688
 42
0.010775
  0
VERTEX
  8
0
 10
227.730380
 20
1629.145009
 42
0.154065
  0
VERTEX
  8
0
 10
228.189820
 20
1629.000000
 42
-0.196137
  0
VERTEX
  8
0
 10
229.037608
 20
1628.654130
 42
-0.001362
  0
VERTEX
  8
0
 10
234.713690
 20
1623.067702
 42
-0.005121
  0
VERTEX
  8
0
 10
239.866742
 20
1617.862794
 42
-0.026506
  0
VERTEX
  8
0
 10
242.527078
 20
1614.812090
 42
-0.017703
  0
VERTEX
  8
0
 10
246.293944
 20
1609.632142
 42
-0.023356
  0
VERTEX
  8
0
 10
249.328373
 20
1604.645380
 42
-0.024724
  0
VERTEX
  8
0
 10
251.420729
 20
1600.319427
 42
-0.100603
  0
VERTEX
  8
0
 10
252.000000
 20
1597.469584
 42
0.038615
  0
VERTEX
  8
0
 10
252.073144
 20
1596.523903
 42
0.057655
  0
VERTEX
  8
0
 10
252.293750
 20
1595.725440
 42
0.075787
  0
VERTEX
  8
0
 10
252.617138
 20
1595.181059
 42
0.224533
  0
VERTEX
  8
0
 10
253.000000
 20
1595.000000
 42
-0.377253
  0
VERTEX
  8
0
 10
253.433673
 20
1594.618495
 42
-0.010159
  0
VERTEX
  8
0
 10
253.728149
 20
1591.889754
 42
-0.014945
  0
VERTEX
  8
0
 10
253.935336
 20
1588.277558
 42
-0.006852
  0
VERTEX
  8
0
 10
254.000000
 20
1583.559017
 42
-0.007657
  0
VERTEX
  8
0
 10
253.930284
 20
1579.006769
 42
-0.013028
  0
VERTEX
  8
0
 10
253.714644
 20
1575.206428
 42
-0.007969
  0
VERTEX
  8
0
 10
253.411923
 20
1572.148471
 42
-0.229563
  0
VERTEX
  8
0
 10
253.000000
 20
1571.500000
 42
0.112609
  0
VERTEX
  8
0
 10
252.616395
 20
1571.122145
 42
0.050014
  0
VERTEX
  8
0
 10
252.293750
 20
1570.484973
 42
0.046026
  0
VERTEX
  8
0
 10
252.074065
 20
1569.711690
 42
0.046237
  0
VERTEX
  8
0
 10
252.000000
 20
1568.912466
 42
-0.101442
  0
VERTEX
  8
0
 10
251.562666
 20
1566.779062
 42
-0.007084
  0
VERTEX
  8
0
 10
249.064073
 20
1561.162195
 42
-0.006726
  0
VERTEX
  8
0
 10
246.400693
 20
1555.594267
 42
-0.110600
  0
VERTEX
  8
0
 10
245.111661
 20
1554.000000
 42
0.065984
  0
VERTEX
  8
0
 10
244.744193
 20
1553.619864
 42
0.004414
  0
VERTEX
  8
0
 10
243.852825
 20
1552.391789
 42
0.006297
  0
VERTEX
  8
0
 10
242.818347
 20
1550.900361
 42
0.004670
  0
VERTEX
  8
0
 10
241.711475
 20
1549.227368
 42
-0.008618
  0
VERTEX
  8
0
 10
239.378699
 20
1545.761259
 42
-0.016286
  0
VERTEX
  8
0
 10
237.361063
 20
1543.063750
 42
-0.016145
  0
VERTEX
  8
0
 10
235.160421
 20
1540.488144
 42
-0.008309
  0
VERTEX
  8
0
 10
232.250000
 20
1537.401105
 42
0.015681
  0
VERTEX
  8
0
 10
231.005468
 20
1536.041436
 42
0.020209
  0
VERTEX
  8
0
 10
229.954688
 20
1534.713597
 42
0.018419
  0
VERTEX
  8
0
 10
229.178036
 20
1533.559135
 42
0.139739
  0
VERTEX
  8
0
 10
229.000000
 20
1532.934543
 42
-0.134234
  0
VERTEX
  8
0
 10
228.836679
 20
1532.337161
 42
-0.023645
  0
VERTEX
  8
0
 10
228.192187
 20
1531.355653
 42
-0.024131
  0
VERTEX
  8
0
 10
227.302867
 20
1530.248136
 42
-0.019635
  0
VERTEX
  8
0
 10
226.250000
 20
1529.149389
 42
0.020266
  0
VERTEX
  8
0
 10
224.867259
 20
1527.702747
 42
0.005907
  0
VERTEX
  8
0
 10
222.857546
 20
1525.366847
 42
0.005925
  0
VERTEX
  8
0
 10
220.654841
 20
1522.680596
 42
0.006311
  0
VERTEX
  8
0
 10
218.562923
 20
1519.998180
 42
-0.001815
  0
VERTEX
  8
0
 10
216.574169
 20
1517.400219
 42
-0.002172
  0
VERTEX
  8
0
 10
214.681506
 20
1514.968215
 42
-0.001867
  0
VERTEX
  8
0
 10
213.069827
 20
1512.931431
 42
-0.014305
  0
VERTEX
  8
0
 10
212.282506
 20
1512.000000
 42
0.009627
  0
VERTEX
  8
0
 10
210.669016
 20
1510.127000
 42
0.007316
  0
VERTEX
  8
0
 10
208.971009
 20
1508.015228
 42
0.007375
  0
VERTEX
  8
0
 10
207.356979
 20
1505.882501
 42
0.010675
  0
VERTEX
  8
0
 10
206.000000
 20
1503.948117
 42
-0.021354
  0
VERTEX
  8
0
 10
205.202455
 20
1502.861324
 42
-0.007804
  0
VERTEX
  8
0
 10
203.985938
 20
1501.391534
 42
-0.007720
  0
VERTEX
  8
0
 10
202.604268
 20
1499.823939
 42
-0.009159
  0
VERTEX
  8
0
 10
201.250000
 20
1498.388179
 42
0.008874
  0
VERTEX
  8
0
 10
200.004840
 20
1497.069601
 42
0.012786
  0
VERTEX
  8
0
 10
198.954688
 20
1495.856319
 42
0.008530
  0
VERTEX
  8
0
 10
198.130218
 20
1494.817408
 42
0.164911
  0
VERTEX
  8
0
 10
198.000000
 20
1494.433333
 42
-0.166712
  0
VERTEX
  8
0
 10
197.868859
 20
1494.050948
 42
-0.008764
  0
VERTEX
  8
0
 10
197.045313
 20
1493.028987
 42
-0.013036
  0
VERTEX
  8
0
 10
195.995157
 20
1491.836206
 42
-0.009049
  0
VERTEX
  8
0
 10
194.750000
 20
1490.541940
 42
0.009763
  0
VERTEX
  8
0
 10
193.323703
 20
1489.055149
 42
0.006219
  0
VERTEX
  8
0
 10
191.720313
 20
1487.273091
 42
0.006247
  0
VERTEX
  8
0
 10
190.190701
 20
1485.485338
 42
0.011539
  0
VERTEX
  8
0
 10
189.000000
 20
1483.989089
 42
-0.012401
  0
VERTEX
  8
0
 10
186.580012
 20
1480.958845
 42
-0.006732
  0
VERTEX
  8
0
 10
183.464804
 20
1477.350308
 42
-0.005811
  0
VERTEX
  8
0
 10
179.694869
 20
1473.198616
 42
-0.003784
  0
VERTEX
  8
0
 10
175.250000
 20
1468.488505
 42
0.006685
  0
VERTEX
  8
0
 10
173.621423
 20
1466.742558
 42
0.009964
  0
VERTEX
  8
0
 10
172.248437
 20
1465.168687
 42
0.005446
  0
VERTEX
  8
0
 10
171.140897
 20
1463.817195
 42
0.170531
  0
VERTEX
  8
0
 10
171.000000
 20
1463.416097
 42
-0.173387
  0
VERTEX
  8
0
 10
170.857495
 20
1463.017507
 42
-0.005673
  0
VERTEX
  8
0
 10
169.751563
 20
1461.699336
 42
-0.010251
  0
VERTEX
  8
0
 10
168.378573
 20
1460.164866
 42
-0.006880
  0
VERTEX
  8
0
 10
166.750000
 20
1458.465662
 42
0.004940
  0
VERTEX
  8
0
 10
162.920155
 20
1454.500635
 42
0.008290
  0
VERTEX
  8
0
 10
159.792123
 20
1451.085845
 42
0.003984
  0
VERTEX
  8
0
 10
157.271743
 20
1448.195051
 42
0.179152
  0
VERTEX
  8
0
 10
157.000000
 20
1447.460977
 42
-0.181814
  0
VERTEX
  8
0
 10
156.875865
 20
1447.130882
 42
-0.002610
  0
VERTEX
  8
0
 10
155.457812
 20
1445.529056
 42
-0.006814
  0
VERTEX
  8
0
 10
153.762223
 20
1443.684955
 42
-0.004393
  0
VERTEX
  8
0
 10
151.750000
 20
1441.592610
 42
0.005222
  0
VERTEX
  8
0
 10
149.580194
 20
1439.328907
 42
0.004841
  0
VERTEX
  8
0
 10
147.402021
 20
1436.962945
 42
0.004833
  0
VERTEX
  8
0
 10
145.504639
 20
1434.820231
 42
0.016173
  0
VERTEX
  8
0
 10
144.320711
 20
1433.364349
 42
-0.011372
  0
VERTEX
  8
0
 10
143.190347
 20
1431.946752
 42
-0.004040
  0
VERTEX
  8
0
 10
141.512379
 20
1429.970557
 42
-0.004007
  0
VERTEX
  8
0
 10
139.634708
 20
1427.829964
 42
-0.004711
  0
VERTEX
  8
0
 10
137.820711
 20
1425.833290
 42
0.003114
  0
VERTEX
  8
0
 10
134.213787
 20
1421.888527
 42
0.009690
  0
VERTEX
  8
0
 10
131.852132
 20
1419.168999
 42
0.008063
  0
VERTEX
  8
0
 10
130.246068
 20
1417.181201
 42
0.167400
  0
VERTEX
  8
0
 10
130.000000
 20
1416.466830
 42
-0.181467
  0
VERTEX
  8
0
 10
129.874754
 20
1416.133101
 42
-0.002659
  0
VERTEX
  8
0
 10
128.457812
 20
1414.528502
 42
-0.006877
  0
VERTEX
  8
0
 10
126.762213
 20
1412.680596
 42
-0.004437
  0
VERTEX
  8
0
 10
124.750000
 20
1410.584869
 42
0.004508
  0
VERTEX
  8
0
 10
122.610044
 20
1408.355469
 42
0.004576
  0
VERTEX
  8
0
 10
120.521420
 20
1406.098885
 42
0.004456
  0
VERTEX
  8
0
 10
118.740482
 20
1404.103611
 42
0.018710
  0
VERTEX
  8
0
 10
117.727176
 20
1402.856608
 42
-0.024958
  0
VERTEX
  8
0
 10
110.446721
 20
1394.122264
 42
-0.011567
  0
VERTEX
  8
0
 10
100.182969
 20
1383.492887
 42
-0.005149
  0
VERTEX
  8
0
 10
89.576305
 20
1373.218924
 42
-0.192104
  0
VERTEX
  8
0
 10
86.520829
 20
1372.000000
 42
0.055371
  0
VERTEX
  8
0
 10
85.944686
 20
1371.936001
 42
0.049536
  0
VERTEX
  8
0
 10
85.373461
 20
1371.746545
 42
0.052547
  0
VERTEX
  8
0
 10
84.891189
 20
1371.467693
 42
0.097301
  0
VERTEX
  8
0
 10
84.584778
 20
1371.137174
 42
-0.137636
  0
VERTEX
  8
0
 10
84.149007
 20
1370.736334
 42
-0.016491
  0
VERTEX
  8
0
 10
82.952161
 20
1370.177062
 42
-0.018645
  0
VERTEX
  8
0
 10
81.452149
 20
1369.600651
 42
-0.014319
  0
VERTEX
  8
0
 10
79.775761
 20
1369.080336
 42
-0.021918
  0
VERTEX
  8
0
 10
77.411609
 20
1368.530564
 42
-0.055043
  0
VERTEX
  8
0
 10
75.649286
 20
1368.398709
 42
-0.060084
  0
VERTEX
  8
0
 10
73.993587
 20
1368.657959
 42
-0.030495
  0
VERTEX
  8
0
 10
72.000000
 20
1369.354902
 42
-0.034786
  0
VERTEX
  8
0
 10
68.880234
 20
1370.927203
 42
-0.045866
  0
VERTEX
  8
0
 10
66.304151
 20
1372.797738
 42
-0.053581
  0
VERTEX
  8
0
 10
64.547833
 20
1374.705729
 42
-0.160602
  0
VERTEX
  8
0
 10
64.000000
 20
1376.367295
 42
0.059344
  0
VERTEX
  8
0
 10
63.925629
 20
1376.991699
 42
0.078271
  0
VERTEX
  8
0
 10
63.706250
 20
1377.520393
 42
0.096675
  0
VERTEX
  8
0
 10
63.381426
 20
1377.874498
 42
0.160289
  0
VERTEX
  8
0
 10
63.000000
 20
1378.000000
 42
-0.191087
  0
VERTEX
  8
0
 10
62.618118
 20
1378.151477
 42
-0.088204
  0
VERTEX
  8
0
 10
62.293750
 20
1378.587500
 42
-0.068025
  0
VERTEX
  8
0
 10
62.073693
 20
1379.234582
 42
-0.048028
  0
VERTEX
  8
0
 10
62.000000
 20
1380.000000
 42
0.048028
  0
VERTEX
  8
0
 10
61.926307
 20
1380.765418
 42
0.068025
  0
VERTEX
  8
0
 10
61.706250
 20
1381.412500
 42
0.088204
  0
VERTEX
  8
0
 10
61.381882
 20
1381.848523
 42
0.191087
  0
VERTEX
  8
0
 10
61.000000
 20
1382.000000
 42
-0.251914
  0
VERTEX
  8
0
 10
60.615903
 20
1382.206632
 42
-0.064068
  0
VERTEX
  8
0
 10
60.293750
 20
1382.863914
 42
-0.049716
  0
VERTEX
  8
0
 10
60.072800
 20
1383.814380
 42
-0.032276
  0
VERTEX
  8
0
 10
60.000000
 20
1384.940983
 42
0.026992
  0
VERTEX
  8
0
 10
59.937076
 20
1386.105741
 42
0.033553
  0
VERTEX
  8
0
 10
59.748235
 20
1387.173651
 42
0.035643
  0
VERTEX
  8
0
 10
59.474333
 20
1388.018939
 42
0.159484
  0
VERTEX
  8
0
 10
59.142929
 20
1388.411665
 42
-0.252901
  0
VERTEX
  8
0
 10
57.148392
 20
1391.880643
 42
-0.003811
  0
VERTEX
  8
0
 10
56.696156
 20
1415.972078
 42
-0.007459
  0
VERTEX
  8
0
 10
56.818609
 20
1448.443137
 42
-0.002481
  0
VERTEX
  8
0
 10
57.943619
 20
1496.000000
 42
0.000547
  0
VERTEX
  8
0
 10
59.335987
 20
1546.580071
 42
0.001005
  0
VERTEX
  8
0
 10
60.341521
 20
1587.753818
 42
0.001193
  0
VERTEX
  8
0
 10
61.055942
 20
1623.435082
 42
0.001437
  0
VERTEX
  8
0
 10
61.550956
 20
1656.971939
 42
-0.001859
  0
VERTEX
  8
0
 10
61.816933
 20
1674.016021
 42
-0.003829
  0
VERTEX
  8
0
 10
62.176786
 20
1687.350242
 42
-0.000973
  0
VERTEX
  8
0
 10
62.581753
 20
1698.414577
 42
-0.188917
  0
VERTEX
  8
0
 10
63.021939
 20
1699.421939
 42
0.147360
  0
VERTEX
  8
0
 10
63.404676
 20
1700.134711
 42
0.016648
  0
VERTEX
  8
0
 10
63.712695
 20
1701.963320
 42
0.019024
  0
VERTEX
  8
0
 10
63.928561
 20
1704.215833
 42
0.014376
  0
VERTEX
  8
0
 10
64.000000
 20
1706.700000
 42
-0.014449
  0
VERTEX
  8
0
 10
64.070771
 20
1709.148449
 42
-0.024911
  0
VERTEX
  8
0
 10
64.289683
 20
1711.175000
 42
-0.022813
  0
VERTEX
  8
0
 10
64.601601
 20
1712.690115
 42
-0.343124
  0
VERTEX
  8
0
 10
65.000000
 20
1713.000000
 42
0.204612
  0
VERTEX
  8
0
 10
65.382214
 20
1713.163246
 42
0.083503
  0
VERTEX
  8
0
 10
65.706250
 20
1713.640082
 42
0.063734
  0
VERTEX
  8
0
 10
65.926549
 20
1714.344865
 42
0.043943
  0
VERTEX
  8
0
 10
66.000000
 20
1715.179002
 42
-0.058880
  0
VERTEX
  8
0
 10
66.247317
 20
1717.271909
 42
-0.015219
  0
VERTEX
  8
0
 10
67.140893
 20
1720.555725
 42
-0.012313
  0
VERTEX
  8
0
 10
68.207436
 20
1723.766129
 42
-0.112194
  0
VERTEX
  8
0
 10
68.996261
 20
1725.000000
 42
0.056723
  0
VERTEX
  8
0
 10
69.265621
 20
1725.333807
 42
0.007278
  0
VERTEX
  8
0
 10
69.748213
 20
1726.119040
 42
0.008432
  0
VERTEX
  8
0
 10
70.293634
 20
1727.072398
 42
0.006937
  0
VERTEX
  8
0
 10
70.844241
 20
1728.107370
 42
-0.109047
  0
VERTEX
  8
0
 10
72.949746
 20
1730.646630
 42
-0.052850
  0
VERTEX
  8
0
 10
76.551703
 20
1732.883243
 42
-0.050269
  0
VERTEX
  8
0
 10
80.846952
 20
1734.449296
 42
-0.061613
  0
VERTEX
  8
0
 10
85.081591
 20
1734.986128
 42
-0.032741
  0
VERTEX
  8
0
 10
87.302870
 20
1734.847272
 42
-0.013660
  0
VERTEX
  8
0
 10
90.269930
 20
1734.383033
 42
-0.013446
  0
VERTEX
  8
0
 10
93.429733
 20
1733.711479
 42
-0.016962
  0
SEQEND
  0
POLYLINE
  8
0
 66
1
 70
1
  0
VERTEX
  8
0
 10
292.500000
 20
1463.720671
 42
-0.071628
  0
VERTEX
  8
0
 10
295.854557
 20
1461.298829
 42
-0.022415
  0
VERTEX
  8
0
 10
300.126772
 20
1456.782706
 42
-0.023009
  0
VERTEX
  8
0
 10
304.196904
 20
1451.611590
 42
-0.038351
  0
VERTEX
  8
0
 10
307.064083
 20
1446.873053
 42
-0.019273
  0
VERTEX
  8
0
 10
309.679452
 20
1441.154341
 42
-0.017652
  0
VERTEX
  8
0
 10
311.930850
 20
1435.082816
 42
-0.017576
  0
VERTEX
  8
0
 10
313.543042
 20
1429.572755
 42
-0.062455
  0
VERTEX
  8
0
 10
314.000000
 20
1425.928745
 42
0.029424
  0
VERTEX
  8
0
 10
314.065761
 20
1424.812230
 42
0.035573
  0
VERTEX
  8
0
 10
314.262720
 20
1423.781310
 42
0.038354
  0
VERTEX
  8
0
 10
314.549119
 20
1422.962735
 42
0.152156
  0
VERTEX
  8
0
 10
314.894367
 20
1422.565285
 42
-0.183942
  0
VERTEX
  8
0
 10
315.508245
 20
1421.763450
 42
-0.021698
  0
VERTEX
  8
0
 10
316.065519
 20
1419.545865
 42
-0.014641
  0
VERTEX
  8
0
 10
316.703770
 20
1415.904818
 42
-0.002795
  0
VERTEX
  8
0
 10
317.632484
 20
1409.250000
 42
0.017338
  0
VERTEX
  8
0
 10
317.908297
 20
1407.621178
 42
0.027230
  0
VERTEX
  8
0
 10
318.268864
 20
1406.248437
 42
0.025634
  0
VERTEX
  8
0
 10
318.657628
 20
1405.223572
 42
0.297590
  0
VERTEX
  8
0
 10
319.000000
 20
1405.000000
 42
-0.329473
  0
VERTEX
  8
0
 10
319.540613
 20
1404.600386
 42
-0.026341
  0
VERTEX
  8
0
 10
319.997965
 20
1402.771450
 42
-0.014031
  0
VERTEX
  8
0
 10
320.555527
 20
1399.408681
 42
-0.001584
  0
VERTEX
  8
0
 10
321.580810
 20
1391.750000
 42
0.017485
  0
VERTEX
  8
0
 10
321.883713
 20
1389.929555
 42
0.027466
  0
VERTEX
  8
0
 10
322.283264
 20
1388.395313
 42
0.026011
  0
VERTEX
  8
0
 10
322.716140
 20
1387.251150
 42
0.297622
  0
VERTEX
  8
0
 10
323.100694
 20
1387.000000
 42
-0.322520
  0
VERTEX
  8
0
 10
323.451268
 20
1386.747613
 42
-0.031410
  0
VERTEX
  8
0
 10
323.735829
 20
1385.678125
 42
-0.030508
  0
VERTEX
  8
0
 10
323.935066
 20
1384.224900
 42
-0.018816
  0
VERTEX
  8
0
 10
324.000000
 20
1382.500000
 42
0.020945
  0
VERTEX
  8
0
 10
324.072283
 20
1380.775243
 42
0.033738
  0
VERTEX
  8
0
 10
324.293750
 20
1379.321875
 42
0.036969
  0
VERTEX
  8
0
 10
324.611488
 20
1378.267028
 42
0.310520
  0
VERTEX
  8
0
 10
325.000000
 20
1378.000000
 42
-0.295869
  0
VERTEX
  8
0
 10
325.387127
 20
1377.748945
 42
-0.043820
  0
VERTEX
  8
0
 10
325.706250
 20
1376.825000
 42
-0.037669
  0
VERTEX
  8
0
 10
325.927610
 20
1375.532944
 42
-0.023598
  0
VERTEX
  8
0
 10
326.000000
 20
1374.000000
 42
0.023598
  0
VERTEX
  8
0
 10
326.072390
 20
1372.467056
 42
0.037669
  0
VERTEX
  8
0
 10
326.293750
 20
1371.175000
 42
0.043820
  0
VERTEX
  8
0
 10
326.612873
 20
1370.251055
 42
0.295869
  0
VERTEX
  8
0
 10
327.000000
 20
1370.000000
 42
-0.322437
  0
VERTEX
  8
0
 10
327.389817
 20
1369.719449
 42
-0.031449
  0
VERTEX
  8
0
 10
327.706250
 20
1368.531250
 42
-0.030530
  0
VERTEX
  8
0
 10
327.927795
 20
1366.916554
 42
-0.018830
  0
VERTEX
  8
0
 10
328.000000
 20
1365.000000
 42
0.018830
  0
VERTEX
  8
0
 10
328.072205
 20
1363.083446
 42
0.030530
  0
VERTEX
  8
0
 10
328.293750
 20
1361.468750
 42
0.031449
  0
VERTEX
  8
0
 10
328.610183
 20
1360.280551
 42
0.322437
  0
VERTEX
  8
0
 10
329.000000
 20
1360.000000
 42
-0.308946
  0
VERTEX
  8
0
 10
329.388352
 20
1359.734720
 42
-0.037703
  0
VERTEX
  8
0
 10
329.706250
 20
1358.695461
 42
-0.034160
  0
VERTEX
  8
0
 10
329.927706
 20
1357.261135
 42
-0.021227
  0
VERTEX
  8
0
 10
330.000000
 20
1355.559017
 42
0.020930
  0
VERTEX
  8
0
 10
330.073113
 20
1353.813184
 42
0.027868
  0
VERTEX
  8
0
 10
330.293750
 20
1352.241025
 42
0.027581
  0
VERTEX
  8
0
 10
330.611109
 20
1350.999702
 42
0.179846
  0
VERTEX
  8
0
 10
331.000000
 20
1350.500000
 42
-0.179846
  0
VERTEX
  8
0
 10
331.388891
 20
1350.000298
 42
-0.027581
  0
VERTEX
  8
0
 10
331.706250
 20
1348.758975
 42
-0.027868
  0
VERTEX
  8
0
 10
331.926887
 20
1347.186816
 42
-0.020930
  0
VERTEX
  8
0
 10
332.000000
 20
1345.440983
 42
0.021227
  0
VERTEX
  8
0
 10
332.072294
 20
1343.738865
 42
0.034160
  0
VERTEX
  8
0
 10
332.293750
 20
1342.304539
 42
0.037703
  0
VERTEX
  8
0
 10
332.611648
 20
1341.265280
 42
0.308946
  0
VERTEX
  8
0
 10
333.000000
 20
1341.000000
 42
-0.308946
  0
VERTEX
  8
0
 10
333.388352
 20
1340.734720
 42
-0.037703
  0
VERTEX
  8
0
 10
333.706250
 20
1339.695461
 42
-0.034160
  0
VERTEX
  8
0
 10
333.927706
 20
1338.261135
 42
-0.021227
  0
VERTEX
  8
0
 10
334.000000
 20
1336.559017
 42
0.020930
  0
VERTEX
  8
0
 10
334.073113
 20
1334.813184
 42
0.027868
  0
VERTEX
  8
0
 10
334.293750
 20
1333.241025
 42
0.027581
  0
VERTEX
  8
0
 10
334.611109
 20
1331.999702
 42
0.179846
  0
VERTEX
  8
0
 10
335.000000
 20
1331.500000
 42
-0.178843
  0
VERTEX
  8
0
 10
335.388765
 20
1331.002457
 42
-0.027992
  0
VERTEX
  8
0
 10
335.706250
 20
1329.776311
 42
-0.028151
  0
VERTEX
  8
0
 10
335.926872
 20
1328.223215
 42
-0.021209
  0
VERTEX
  8
0
 10
336.000000
 20
1326.500000
 42
0.018575
  0
VERTEX
  8
0
 10
336.063835
 20
1324.782273
 42
0.025394
  0
VERTEX
  8
0
 10
336.256925
 20
1323.246448
 42
0.023978
  0
VERTEX
  8
0
 10
336.533467
 20
1322.031446
 42
0.188558
  0
VERTEX
  8
0
 10
336.874639
 20
1321.577477
 42
-0.177819
  0
VERTEX
  8
0
 10
337.247232
 20
1321.102577
 42
-0.016573
  0
VERTEX
  8
0
 10
337.665724
 20
1319.648099
 42
-0.019678
  0
VERTEX
  8
0
 10
338.049670
 20
1317.825890
 42
-0.014190
  0
VERTEX
  8
0
 10
338.339477
 20
1315.768460
 42
0.006670
  0
VERTEX
  8
0
 10
338.633864
 20
1313.423759
 42
0.004351
  0
VERTEX
  8
0
 10
339.033199
 20
1310.725735
 42
0.004376
  0
VERTEX
  8
0
 10
339.468622
 20
1308.101035
 42
0.008334
  0
VERTEX
  8
0
 10
339.872293
 20
1306.000000
 42
-0.001421
  0
VERTEX
  8
0
 10
340.309272
 20
1303.883935
 42
-0.000712
  0
VERTEX
  8
0
 10
340.850330
 20
1301.206250
 42
-0.000706
  0
VERTEX
  8
0
 10
341.402352
 20
1298.433830
 42
-0.001044
  0
VERTEX
  8
0
 10
341.878105
 20
1296.000000
 42
0.002287
  0
VERTEX
  8
0
 10
342.393621
 20
1293.397138
 42
0.001102
  0
VERTEX
  8
0
 10
343.076923
 20
1290.065743
 42
0.001092
  0
VERTEX
  8
0
 10
343.804717
 20
1286.594864
 42
0.001565
  0
VERTEX
  8
0
 10
344.466192
 20
1283.521677
 42
-0.008638
  0
VERTEX
  8
0
 10
345.096817
 20
1280.376169
 42
-0.005417
  0
VERTEX
  8
0
 10
345.730770
 20
1276.677493
 42
-0.005437
  0
VERTEX
  8
0
 10
346.276003
 20
1273.021487
 42
-0.009886
  0
VERTEX
  8
0
 10
346.629800
 20
1270.021677
 42
0.009199
  0
VERTEX
  8
0
 10
346.929409
 20
1267.450945
 42
0.012144
  0
VERTEX
  8
0
 10
347.302163
 20
1265.121993
 42
0.009619
  0
VERTEX
  8
0
 10
347.695029
 20
1263.205878
 42
0.106429
  0
VERTEX
  8
0
 10
348.021778
 20
1262.500000
 42
-0.082353
  0
VERTEX
  8
0
 10
348.347623
 20
1261.876018
 42
-0.014940
  0
VERTEX
  8
0
 10
348.718757
 20
1260.618750
 42
-0.015731
  0
VERTEX
  8
0
 10
349.066401
 20
1259.104721
 42
-0.013686
  0
VERTEX
  8
0
 10
349.336700
 20
1257.500000
 42
0.005845
  0
VERTEX
  8
0
 10
349.629265
 20
1255.579699
 42
0.002612
  0
VERTEX
  8
0
 10
350.056978
 20
1253.059375
 42
0.002585
  0
VERTEX
  8
0
 10
350.537096
 20
1250.398222
 42
0.003504
  0
VERTEX
  8
0
 10
351.000000
 20
1248.000000
 42
-0.003651
  0
VERTEX
  8
0
 10
351.462171
 20
1245.601775
 42
-0.002694
  0
VERTEX
  8
0
 10
351.940069
 20
1242.940625
 42
-0.002722
  0
VERTEX
  8
0
 10
352.364547
 20
1240.420294
 42
-0.006094
  0
VERTEX
  8
0
 10
352.653247
 20
1238.500000
 42
0.017160
  0
VERTEX
  8
0
 10
352.930308
 20
1236.898969
 42
0.019786
  0
VERTEX
  8
0
 10
353.306480
 20
1235.395938
 42
0.019265
  0
VERTEX
  8
0
 10
353.720820
 20
1234.159426
 42
0.099117
  0
VERTEX
  8
0
 10
354.102426
 20
1233.550000
 42
-0.130941
  0
VERTEX
  8
0
 10
354.451889
 20
1232.905156
 42
-0.020348
  0
VERTEX
  8
0
 10
354.736338
 20
1231.469063
 42
-0.021488
  0
VERTEX
  8
0
 10
354.934253
 20
1229.707452
 42
-0.017229
  0
VERTEX
  8
0
 10
355.000000
 20
1227.800000
 42
0.019623
  0
VERTEX
  8
0
 10
355.072233
 20
1225.960163
 42
0.031739
  0
VERTEX
  8
0
 10
355.293750
 20
1224.410000
 42
0.033516
  0
VERTEX
  8
0
 10
355.610695
 20
1223.275405
 42
0.317955
  0
VERTEX
  8
0
 10
356.000000
 20
1223.000000
 42
-0.295869
  0
VERTEX
  8
0
 10
356.387127
 20
1222.748945
 42
-0.043820
  0
VERTEX
  8
0
 10
356.706250
 20
1221.825000
 42
-0.037669
  0
VERTEX
  8
0
 10
356.927610
 20
1220.532944
 42
-0.023598
  0
VERTEX
  8
0
 10
357.000000
 20
1219.000000
 42
0.023598
  0
VERTEX
  8
0
 10
357.072390
 20
1217.467056
 42
0.037669
  0
VERTEX
  8
0
 10
357.293750
 20
1216.175000
 42
0.043820
  0
VERTEX
  8
0
 10
357.612873
 20
1215.251055
 42
0.295869
  0
VERTEX
  8
0
 10
358.000000
 20
1215.000000
 42
-0.308946
  0
VERTEX
  8
0
 10
358.388352
 20
1214.734720
 42
-0.037703
  0
VERTEX
  8
0
 10
358.706250
 20
1213.695461
 42
-0.034160
  0
VERTEX
  8
0
 10
358.927706
 20
1212.261135
 42
-0.021227
  0
VERTEX
  8
0
 10
359.000000
 20
1210.559017
 42
0.018740
  0
VERTEX
  8
0
 10
359.065283
 20
1208.817809
 42
0.025573
  0
VERTEX
  8
0
 10
359.262720
 20
1207.260203
 42
0.024238
  0
VERTEX
  8
0
 10
359.545580
 20
1206.028222
 42
0.187934
  0
VERTEX
  8
0
 10
359.894367
 20
1205.565285
 42
-0.183942
  0
VERTEX
  8
0
 10
360.508245
 20
1204.763450
 42
-0.021698
  0
VERTEX
  8
0
 10
361.065519
 20
1202.545865
 42
-0.014641
  0
VERTEX
  8
0
 10
361.703770
 20
1198.904818
 42
-0.002795
  0
VERTEX
  8
0
 10
362.632484
 20
1192.250000
 42
0.019538
  0
VERTEX
  8
0
 10
362.915644
 20
1190.621338
 42
0.030363
  0
VERTEX
  8
0
 10
363.298443
 20
1189.248437
 42
0.030669
  0
VERTEX
  8
0
 10
363.718200
 20
1188.238615
 42
0.286345
  0
VERTEX
  8
0
 10
364.100694
 20
1188.000000
 42
-0.289998
  0
VERTEX
  8
0
 10
364.448395
 20
1187.779818
 42
-0.046569
  0
VERTEX
  8
0
 10
364.735829
 20
1186.989211
 42
-0.039248
  0
VERTEX
  8
0
 10
364.934858
 20
1185.877661
 42
-0.024685
  0
VERTEX
  8
0
 10
365.000000
 20
1184.559017
 42
0.026918
  0
VERTEX
  8
0
 10
365.073414
 20
1183.196361
 42
0.033489
  0
VERTEX
  8
0
 10
365.293750
 20
1181.947275
 42
0.035556
  0
VERTEX
  8
0
 10
365.613307
 20
1180.958660
 42
0.159713
  0
VERTEX
  8
0
 10
366.000000
 20
1180.500000
 42
-0.144823
  0
VERTEX
  8
0
 10
366.385448
 20
1180.068924
 42
-0.040930
  0
VERTEX
  8
0
 10
366.706250
 20
1179.216936
 42
-0.037579
  0
VERTEX
  8
0
 10
366.926362
 20
1178.148530
 42
-0.032024
  0
VERTEX
  8
0
 10
367.000000
 20
1177.000000
 42
0.028558
  0
VERTEX
  8
0
 10
367.065370
 20
1175.856407
 42
0.034870
  0
VERTEX
  8
0
 10
367.261294
 20
1174.803123
 42
0.037422
  0
VERTEX
  8
0
 10
367.545945
 20
1173.967814
 42
0.154712
  0
VERTEX
  8
0
 10
367.889512
 20
1173.568285
 42
-0.138574
  0
VERTEX
  8
0
 10
368.267348
 20
1173.156002
 42
-0.026959
  0
VERTEX
  8
0
 10
368.675836
 20
1172.222615
 42
-0.026777
  0
VERTEX
  8
0
 10
369.045934
 20
1171.047379
 42
-0.021973
  0
VERTEX
  8
0
 10
369.317256
 20
1169.759268
 42
0.010736
  0
VERTEX
  8
0
 10
369.864219
 20
1166.838663
 42
0.006033
  0
VERTEX
  8
0
 10
370.647166
 20
1163.315405
 42
0.004622
  0
VERTEX
  8
0
 10
371.735228
 20
1158.868797
 42
0.002030
  0
VERTEX
  8
0
 10
373.254320
 20
1153.000000
 42
-0.008275
  0
VERTEX
  8
0
 10
375.429795
 20
1144.140625
 42
-0.020603
  0
VERTEX
  8
0
 10
376.644040
 20
1137.581166
 42
-0.022636
  0
VERTEX
  8
0
 10
377.251047
 20
1131.315571
 42
-0.012058
  0
VERTEX
  8
0
 10
377.462906
 20
1123.528276
 42
-0.014230
  0
VERTEX
  8
0
 10
377.232179
 20
1114.437583
 42
-0.051712
  0
VERTEX
  8
0
 10
376.328881
 20
1108.737595
 42
-0.074673
  0
VERTEX
  8
0
 10
374.489551
 20
1104.500661
 42
-0.056751
  0
VERTEX
  8
0
 10
371.333506
 20
1100.533506
 42
-0.024222
  0
VERTEX
  8
0
 10
369.120661
 20
1098.525266
 42
-0.082202
  0
VERTEX
  8
0
 10
367.439218
 20
1097.552475
 42
-0.073426
  0
VERTEX
  8
0
 10
365.433969
 20
1097.116948
 42
-0.016823
  0
VERTEX
  8
0
 10
361.959017
 20
1097.000000
 42
-0.015951
  0
VERTEX
  8
0
 10
359.676578
 20
1097.072835
 42
-0.022454
  0
VERTEX
  8
0
 10
357.652275
 20
1097.293750
 42
-0.019725
  0
VERTEX
  8
0
 10
356.043030
 20
1097.608330
 42
-0.198738
  0
VERTEX
  8
0
 10
355.500000
 20
1098.000000
 42
0.111412
  0
VERTEX
  8
0
 10
355.123976
 20
1098.383556
 42
0.050262
  0
VERTEX
  8
0
 10
354.493350
 20
1098.706250
 42
0.046318
  0
VERTEX
  8
0
 10
353.729296
 20
1098.925923
 42
0.046881
  0
VERTEX
  8
0
 10
352.940983
 20
1099.000000
 42
-0.049547
  0
VERTEX
  8
0
 10
352.198222
 20
1099.073784
 42
-0.069539
  0
VERTEX
  8
0
 10
351.570164
 20
1099.293750
 42
-0.089706
  0
VERTEX
  8
0
 10
351.147465
 20
1099.618213
 42
-0.186414
  0
VERTEX
  8
0
 10
351.000000
 20
1100.000000
 42
0.191087
  0
VERTEX
  8
0
 10
350.848523
 20
1100.381882
 42
0.088204
  0
VERTEX
  8
0
 10
350.412500
 20
1100.706250
 42
0.068025
  0
VERTEX
  8
0
 10
349.765418
 20
1100.926307
 42
0.048028
  0
VERTEX
  8
0
 10
349.000000
 20
1101.000000
 42
-0.048028
  0
VERTEX
  8
0
 10
348.234582
 20
1101.073693
 42
-0.068025
  0
VERTEX
  8
0
 10
347.587500
 20
1101.293750
 42
-0.088204
  0
VERTEX
  8
0
 10
347.151477
 20
1101.618118
 42
-0.191087
  0
VERTEX
  8
0
 10
347.000000
 20
1102.000000
 42
0.148195
  0
VERTEX
  8
0
 10
346.884432
 20
1102.381354
 42
0.098894
  0
VERTEX
  8
0
 10
346.559375
 20
1102.706250
 42
0.082425
  0
VERTEX
  8
0
 10
346.073457
 20
1102.925306
 42
0.064853
  0
VERTEX
  8
0
 10
345.500000
 20
1103.000000
 42
-0.064853
  0
VERTEX
  8
0
 10
344.926543
 20
1103.074694
 42
-0.082425
  0
VERTEX
  8
0
 10
344.440625
 20
1103.293750
 42
-0.098894
  0
VERTEX
  8
0
 10
344.115568
 20
1103.618646
 42
-0.148195
  0
VERTEX
  8
0
 10
344.000000
 20
1104.000000
 42
0.130232
  0
VERTEX
  8
0
 10
343.898958
 20
1104.381353
 42
0.100668
  0
VERTEX
  8
0
 10
343.614765
 20
1104.706250
 42
0.088576
  0
VERTEX
  8
0
 10
343.189641
 20
1104.924760
 42
0.074660
  0
VERTEX
  8
0
 10
342.688561
 20
1105.000000
 42
-0.097133
  0
VERTEX
  8
0
 10
342.048553
 20
1105.125516
 42
-0.031346
  0
VERTEX
  8
0
 10
341.174400
 20
1105.547766
 42
-0.029912
  0
VERTEX
  8
0
 10
340.238224
 20
1106.151086
 42
-0.029447
  0
VERTEX
  8
0
 10
339.375565
 20
1106.864735
 42
0.020033
  0
VERTEX
  8
0
 10
338.437330
 20
1107.671115
 42
0.012041
  0
VERTEX
  8
0
 10
337.264597
 20
1108.554924
 42
0.012051
  0
VERTEX
  8
0
 10
336.054078
 20
1109.378897
 42
0.020539
  0
VERTEX
  8
0
 10
334.999989
 20
1110.000006
 42
-0.015763
  0
VERTEX
  8
0
 10
333.108861
 20
1111.090137
 42
-0.028338
  0
VERTEX
  8
0
 10
331.642593
 20
1112.117350
 42
-0.014387
  0
VERTEX
  8
0
 10
329.767916
 20
1113.685301
 42
-0.001511
  0
VERTEX
  8
0
 10
325.500000
 20
1117.491909
 42
0.006840
  0
VERTEX
  8
0
 10
323.529720
 20
1119.211872
 42
0.010061
  0
VERTEX
  8
0
 10
321.748368
 20
1120.663817
 42
0.005791
  0
VERTEX
  8
0
 10
320.223048
 20
1121.828597
 42
0.157885
  0
VERTEX
  8
0
 10
319.749763
 20
1121.989335
 42
-0.169958
  0
VERTEX
  8
0
 10
319.276264
 20
1122.162666
 42
-0.005063
  0
VERTEX
  8
0
 10
317.634644
 20
1123.539055
 42
-0.009553
  0
VERTEX
  8
0
 10
315.725261
 20
1125.237414
 42
-0.006387
  0
VERTEX
  8
0
 10
313.602882
 20
1127.250000
 42
0.005012
  0
VERTEX
  8
0
 10
309.125068
 20
1131.519610
 42
0.002656
  0
VERTEX
  8
0
 10
303.493762
 20
1136.726568
 42
0.002605
  0
VERTEX
  8
0
 10
297.533492
 20
1142.122488
 42
0.003360
  0
VERTEX
  8
0
 10
292.000000
 20
1147.013200
 42
0.009782
  0
VERTEX
  8
0
 10
290.458706
 20
1148.304922
 42
0.007413
  0
VERTEX
  8
0
 10
288.719935
 20
1149.663164
 42
0.007502
  0
VERTEX
  8
0
 10
287.049295
 20
1150.889749
 42
0.017274
  0
VERTEX
  8
0
 10
285.748716
 20
1151.748862
 42
-0.033703
  0
VERTEX
  8
0
 10
284.654059
 20
1152.524742
 42
-0.030895
  0
VERTEX
  8
0
 10
283.639328
 20
1153.462038
 42
-0.032296
  0
VERTEX
  8
0
 10
282.839711
 20
1154.413870
 42
-0.081884
  0
VERTEX
  8
0
 10
282.431328
 20
1155.216366
 42
0.043969
  0
VERTEX
  8
0
 10
282.146636
 20
1155.898818
 42
0.053037
  0
VERTEX
  8
0
 10
281.760920
 20
1156.476058
 42
0.061815
  0
VERTEX
  8
0
 10
281.337942
 20
1156.871908
 42
0.158510
  0
VERTEX
  8
0
 10
280.944043
 20
1157.000000
 42
-0.152426
  0
VERTEX
  8
0
 10
279.809907
 20
1157.353967
 42
-0.020275
  0
VERTEX
  8
0
 10
277.780731
 20
1158.882485
 42
-0.014609
  0
VERTEX
  8
0
 10
274.802034
 20
1161.470606
 42
-0.003390
  0
VERTEX
  8
0
 10
269.953164
 20
1166.000000
 42
0.005525
  0
VERTEX
  8
0
 10
267.522333
 20
1168.251309
 42
0.005386
  0
VERTEX
  8
0
 10
265.021856
 20
1170.467741
 42
0.005320
  0
VERTEX
  8
0
 10
262.783971
 20
1172.367423
 42
0.020010
  0
VERTEX
  8
0
 10
261.322336
 20
1173.485927
 42
-0.018716
  0
VERTEX
  8
0
 10
259.940024
 20
1174.538069
 42
-0.006648
  0
VERTEX
  8
0
 10
258.041972
 20
1176.141060
 42
-0.006586
  0
VERTEX
  8
0
 10
256.002865
 20
1177.957782
 42
-0.007712
  0
VERTEX
  8
0
 10
254.118421
 20
1179.735927
 42
0.006890
  0
VERTEX
  8
0
 10
252.392484
 20
1181.369881
 42
0.010250
  0
VERTEX
  8
0
 10
250.833680
 20
1182.747429
 42
0.005703
  0
VERTEX
  8
0
 10
249.495201
 20
1183.856276
 42
0.171769
  0
VERTEX
  8
0
 10
249.089180
 20
1184.000000
 42
-0.167280
  0
VERTEX
  8
0
 10
248.753964
 20
1184.115379
 42
-0.025158
  0
VERTEX
  8
0
 10
248.208323
 20
1184.587500
 42
-0.025913
  0
VERTEX
  8
0
 10
247.599375
 20
1185.234137
 42
-0.019766
  0
VERTEX
  8
0
 10
247.000000
 20
1186.000000
 42
0.023022
  0
VERTEX
  8
0
 10
246.392654
 20
1186.765726
 42
0.028978
  0
VERTEX
  8
0
 10
245.759783
 20
1187.412500
 42
0.029515
  0
VERTEX
  8
0
 10
245.183603
 20
1187.877778
 42
0.156330
  0
VERTEX
  8
0
 10
244.802246
 20
1188.000000
 42
-0.173726
  0
VERTEX
  8
0
 10
244.322341
 20
1188.171933
 42
-0.004799
  0
VERTEX
  8
0
 10
242.600077
 20
1189.615625
 42
-0.009339
  0
VERTEX
  8
0
 10
240.598336
 20
1191.392326
 42
-0.006210
  0
VERTEX
  8
0
 10
238.367448
 20
1193.500000
 42
0.006386
  0
VERTEX
  8
0
 10
236.135022
 20
1195.607640
 42
0.009576
  0
VERTEX
  8
0
 10
234.128488
 20
1197.384375
 42
0.005031
  0
VERTEX
  8
0
 10
232.403177
 20
1198.824421
 42
0.173062
  0
VERTEX
  8
0
 10
231.911097
 20
1199.000000
 42
-0.166854
  0
VERTEX
  8
0
 10
231.424714
 20
1199.166958
 42
-0.006176
  0
VERTEX
  8
0
 10
229.885906
 20
1200.395313
 42
-0.010627
  0
VERTEX
  8
0
 10
228.090634
 20
1201.929924
 42
-0.007204
  0
VERTEX
  8
0
 10
226.109042
 20
1203.750000
 42
0.003168
  0
VERTEX
  8
0
 10
223.849067
 20
1205.859649
 42
0.002035
  0
VERTEX
  8
0
 10
221.201888
 20
1208.279687
 42
0.002045
  0
VERTEX
  8
0
 10
218.591416
 20
1210.627347
 42
0.003838
  0
VERTEX
  8
0
 10
216.459192
 20
1212.500000
 42
-0.006357
  0
VERTEX
  8
0
 10
214.153542
 20
1214.545630
 42
-0.002256
  0
VERTEX
  8
0
 10
210.906371
 20
1217.528125
 42
-0.002238
  0
VERTEX
  8
0
 10
207.370024
 20
1220.835312
 42
-0.002634
  0
VERTEX
  8
0
 10
204.051469
 20
1224.000000
 42
0.002273
  0
VERTEX
  8
0
 10
200.441400
 20
1227.447663
 42
0.001240
  0
VERTEX
  8
0
 10
195.982052
 20
1231.646875
 42
0.001236
  0
VERTEX
  8
0
 10
191.428688
 20
1235.892267
 42
0.001965
  0
VERTEX
  8
0
 10
187.509226
 20
1239.500000
 42
-0.006645
  0
VERTEX
  8
0
 10
178.158622
 20
1248.269998
 42
-0.003895
  0
VERTEX
  8
0
 10
167.188486
 20
1259.002489
 42
-0.001825
  0
VERTEX
  8
0
 10
156.621860
 20
1269.579488
 42
-0.053902
  0
VERTEX
  8
0
 10
154.256924
 20
1272.542836
 42
-0.019492
  0
VERTEX
  8
0
 10
151.677890
 20
1276.976195
 42
-0.011059
  0
VERTEX
  8
0
 10
148.888849
 20
1282.524611
 42
-0.007002
  0
VERTEX
  8
0
 10
146.424580
 20
1287.902600
 42
-0.104291
  0
VERTEX
  8
0
 10
146.000000
 20
1289.916019
 42
0.046316
  0
VERTEX
  8
0
 10
145.925933
 20
1290.713884
 42
0.046062
  0
VERTEX
  8
0
 10
145.706250
 20
1291.486017
 42
0.050045
  0
VERTEX
  8
0
 10
145.383599
 20
1292.122372
 42
0.112461
  0
VERTEX
  8
0
 10
145.000000
 20
1292.500000
 42
-0.252110
  0
VERTEX
  8
0
 10
144.160898
 20
1293.954389
 42
-0.006129
  0
VERTEX
  8
0
 10
144.023799
 20
1301.966583
 42
-0.011091
  0
VERTEX
  8
0
 10
144.157069
 20
1309.656582
 42
-0.083628
  0
VERTEX
  8
0
 10
144.899533
 20
1313.202947
 42
0.012895
  0
VERTEX
  8
0
 10
145.318632
 20
1314.360191
 42
0.004800
  0
VERTEX
  8
0
 10
145.849799
 20
1316.006644
 42
0.004753
  0
VERTEX
  8
0
 10
146.394874
 20
1317.813652
 42
0.005729
  0
VERTEX
  8
0
 10
146.871304
 20
1319.521799
 42
-0.041310
  0
VERTEX
  8
0
 10
147.585638
 20
1321.521337
 42
-0.013425
  0
VERTEX
  8
0
 10
148.958739
 20
1324.345550
 42
-0.013279
  0
VERTEX
  8
0
 10
150.659569
 20
1327.415399
 42
-0.014568
  0
VERTEX
  8
0
 10
152.471771
 20
1330.295448
 42
0.003167
  0
VERTEX
  8
0
 10
154.207333
 20
1332.919045
 42
0.004898
  0
VERTEX
  8
0
 10
155.669833
 20
1335.209311
 42
0.001702
  0
VERTEX
  8
0
 10
156.902136
 20
1337.196437
 42
0.138805
  0
VERTEX
  8
0
 10
157.000000
 20
1337.542168
 42
-0.184307
  0
VERTEX
  8
0
 10
157.125336
 20
1337.870637
 42
-0.001830
  0
VERTEX
  8
0
 10
158.835937
 20
1339.771718
 42
-0.005677
  0
VERTEX
  8
0
 10
160.854318
 20
1341.948227
 42
-0.003613
  0
VERTEX
  8
0
 10
163.250000
 20
1344.437203
 42
0.003142
  0
VERTEX
  8
0
 10
165.918862
 20
1347.204768
 42
0.002486
  0
VERTEX
  8
0
 10
168.770846
 20
1350.229644
 42
0.002513
  0
VERTEX
  8
0
 10
171.389413
 20
1353.063186
 42
0.006258
  0
VERTEX
  8
0
 10
173.267775
 20
1355.168684
 42
-0.001904
  0
VERTEX
  8
0
 10
175.064570
 20
1357.218409
 42
-0.000906
  0
VERTEX
  8
0
 10
177.391774
 20
1359.843301
 42
-0.000898
  0
VERTEX
  8
0
 10
179.834040
 20
1362.578029
 42
-0.001276
  0
VERTEX
  8
0
 10
182.016001
 20
1365.000000
 42
0.006155
  0
VERTEX
  8
0
 10
183.924645
 20
1367.160621
 42
0.009199
  0
VERTEX
  8
0
 10
185.533966
 20
1369.099248
 42
0.004823
  0
VERTEX
  8
0
 10
186.838640
 20
1370.763727
 42
0.164648
  0
VERTEX
  8
0
 10
186.998226
 20
1371.231481
 42
-0.180851
  0
VERTEX
  8
0
 10
187.175304
 20
1371.701560
 42
-0.003555
  0
VERTEX
  8
0
 10
188.908854
 20
1373.657465
 42
-0.008029
  0
VERTEX
  8
0
 10
191.008731
 20
1375.918900
 42
-0.005242
  0
VERTEX
  8
0
 10
193.500000
 20
1378.462963
 42
0.004319
  0
VERTEX
  8
0
 10
195.991361
 20
1380.997743
 42
0.006718
  0
VERTEX
  8
0
 10
198.090625
 20
1383.230081
 42
0.002513
  0
VERTEX
  8
0
 10
199.849760
 20
1385.171324
 42
0.184863
  0
VERTEX
  8
0
 10
200.000000
 20
1385.563791
 42
-0.179644
  0
VERTEX
  8
0
 10
200.142723
 20
1385.948211
 42
-0.003931
  0
VERTEX
  8
0
 10
201.476220
 20
1387.472129
 42
-0.008461
  0
VERTEX
  8
0
 10
203.099477
 20
1389.236951
 42
-0.005552
  0
VERTEX
  8
0
 10
205.025430
 20
1391.216543
 42
0.005186
  0
VERTEX
  8
0
 10
207.003200
 20
1393.246418
 42
0.006541
  0
VERTEX
  8
0
 10
208.788868
 20
1395.167267
 42
0.005293
  0
VERTEX
  8
0
 10
210.245021
 20
1396.809956
 42
0.051166
  0
VERTEX
  8
0
 10
210.780147
 20
1397.571628
 42
-0.045040
  0
VERTEX
  8
0
 10
212.154791
 20
1399.579974
 42
-0.006102
  0
VERTEX
  8
0
 10
215.454022
 20
1403.477569
 42
-0.007069
  0
VERTEX
  8
0
 10
219.455644
 20
1407.959991
 42
-0.006241
  0
VERTEX
  8
0
 10
223.750000
 20
1412.519967
 42
0.005326
  0
VERTEX
  8
0
 10
225.762033
 20
1414.648631
 42
0.008126
  0
VERTEX
  8
0
 10
227.457812
 20
1416.542252
 42
0.003689
  0
VERTEX
  8
0
 10
228.854083
 20
1418.177576
 42
0.176636
  0
VERTEX
  8
0
 10
229.000000
 20
1418.577735
 42
-0.181686
  0
VERTEX
  8
0
 10
229.147800
 20
1418.971055
 42
-0.004356
  0
VERTEX
  8
0
 10
230.468750
 20
1420.454225
 42
-0.008984
  0
VERTEX
  8
0
 10
232.083833
 20
1422.173053
 42
-0.005916
  0
VERTEX
  8
0
 10
234.000000
 20
1424.094246
 42
0.008050
  0
VERTEX
  8
0
 10
235.915813
 20
1426.031547
 42
0.011817
  0
VERTEX
  8
0
 10
237.531250
 20
1427.800428
 42
0.007271
  0
VERTEX
  8
0
 10
238.814736
 20
1429.318328
 42
0.173555
  0
VERTEX
  8
0
 10
239.000000
 20
1429.835984
 42
-0.158100
  0
VERTEX
  8
0
 10
239.168363
 20
1430.355132
 42
-0.008003
  0
VERTEX
  8
0
 10
240.248437
 20
1431.796090
 42
-0.012158
  0
VERTEX
  8
0
 10
241.621722
 20
1433.482084
 42
-0.008453
  0
VERTEX
  8
0
 10
243.250000
 20
1435.320871
 42
0.001511
  0
VERTEX
  8
0
 10
245.085195
 20
1437.336240
 42
0.001145
  0
VERTEX
  8
0
 10
247.086630
 20
1439.557758
 42
0.001157
  0
VERTEX
  8
0
 10
248.955492
 20
1441.651431
 42
0.002699
  0
VERTEX
  8
0
 10
250.342785
 20
1443.229946
 42
-0.007773
  0
VERTEX
  8
0
 10
254.340845
 20
1447.687055
 42
-0.008686
  0
VERTEX
  8
0
 10
258.332741
 20
1451.852925
 42
-0.008311
  0
VERTEX
  8
0
 10
261.852016
 20
1455.284140
 42
-0.041568
  0
VERTEX
  8
0
 10
264.004428
 20
1457.000000
 42
0.006692
  0
VERTEX
  8
0
 10
264.944938
 20
1457.648024
 42
0.005732
  0
VERTEX
  8
0
 10
265.918068
 20
1458.354810
 42
0.005781
  0
VERTEX
  8
0
 10
266.787513
 20
1459.017396
 42
0.016413
  0
VERTEX
  8
0
 10
267.372529
 20
1459.505737
 42
-0.061493
  0
VERTEX
  8
0
 10
269.408881
 20
1460.915573
 42
-0.012470
  0
VERTEX
  8
0
 10
273.357618
 20
1462.861128
 42
-0.012962
  0
VERTEX
  8
0
 10
277.417787
 20
1464.611015
 42
-0.052861
  0
VERTEX
  8
0
 10
280.000000
 20
1465.340654
 42
-0.050824
  0
VERTEX
  8
0
 10
282.852667
 20
1465.535507
 42
-0.023885
  0
VERTEX
  8
0
 10
286.541024
 20
1465.235648
 42
-0.023569
  0
VERTEX
  8
0
 10
290.107619
 20
1464.601333
 42
-0.064881
  0
SEQEND
  0
POLYLINE
  8
0
 66
1
 70
1
  0
VERTEX
  8
0
 10
147.000000
 20
1179.000000
 42
0.226478
  0
VERTEX
  8
0
 10
147.182831
 20
1178.617064
 42
0.074992
  0
VERTEX
  8
0
 10
147.734375
 20
1178.293750
 42
0.057076
  0
VERTEX
  8
0
 10
148.542644
 20
1178.073116
 42
0.038131
  0
VERTEX
  8
0
 10
149.500000
 20
1178.000000
 42
-0.030300
  0
VERTEX
  8
0
 10
150.457777
 20
1177.941905
 42
-0.047089
  0
VERTEX
  8
0
 10
151.265625
 20
1177.765261
 42
-0.059849
  0
VERTEX
  8
0
 10
151.827611
 20
1177.508246
 42
-0.261291
  0
VERTEX
  8
0
 10
152.000000
 20
1177.200888
 42
0.237366
  0
VERTEX
  8
0
 10
152.191819
 20
1176.819597
 42
0.026408
  0
VERTEX
  8
0
 10
153.028125
 20
1176.264741
 42
0.027614
  0
VERTEX
  8
0
 10
154.159144
 20
1175.679133
 42
0.018895
  0
VERTEX
  8
0
 10
155.500000
 20
1175.136160
 42
-0.018320
  0
VERTEX
  8
0
 10
156.840898
 20
1174.594967
 42
-0.026895
  0
VERTEX
  8
0
 10
157.971875
 20
1174.014734
 42
-0.025315
  0
VERTEX
  8
0
 10
158.811145
 20
1173.466765
 42
-0.239888
  0
VERTEX
  8
0
 10
159.000000
 20
1173.095787
 42
0.199215
  0
VERTEX
  8
0
 10
159.153793
 20
1172.725109
 42
0.033454
  0
VERTEX
  8
0
 10
159.745417
 20
1172.208980
 42
0.032159
  0
VERTEX
  8
0
 10
160.565804
 20
1171.664222
 42
0.023592
  0
VERTEX
  8
0
 10
161.537591
 20
1171.164826
 42
-0.017063
  0
VERTEX
  8
0
 10
163.313109
 20
1170.281499
 42
-0.034301
  0
VERTEX
  8
0
 10
164.634773
 20
1169.444860
 42
-0.017948
  0
VERTEX
  8
0
 10
166.275623
 20
1168.148056
 42
-0.001876
  0
VERTEX
  8
0
 10
170.000000
 20
1164.956824
 42
0.009529
  0
VERTEX
  8
0
 10
171.541187
 20
1163.676643
 42
0.007202
  0
VERTEX
  8
0
 10
173.279688
 20
1162.328253
 42
0.007288
  0
VERTEX
  8
0
 10
174.949848
 20
1161.108703
 42
0.016728
  0
VERTEX
  8
0
 10
176.250000
 20
1160.251897
 42
-0.015566
  0
VERTEX
  8
0
 10
177.303436
 20
1159.561183
 42
-0.022036
  0
VERTEX
  8
0
 10
178.192187
 20
1158.877730
 42
-0.019102
  0
VERTEX
  8
0
 10
178.860224
 20
1158.270423
 42
-0.201352
  0
VERTEX
  8
0
 10
179.000000
 20
1157.937402
 42
0.167931
  0
VERTEX
  8
0
 10
179.308686
 20
1157.044234
 42
0.014181
  0
VERTEX
  8
0
 10
180.889193
 20
1155.144295
 42
0.013059
  0
VERTEX
  8
0
 10
182.579152
 20
1153.324247
 42
0.201754
  0
VERTEX
  8
0
 10
183.350011
 20
1153.000000
 42
-0.175525
  0
VERTEX
  8
0
 10
184.152242
 20
1152.709425
 42
-0.005657
  0
VERTEX
  8
0
 10
186.810926
 20
1150.441106
 42
-0.007843
  0
VERTEX
  8
0
 10
190.469483
 20
1147.144970
 42
-0.002337
  0
VERTEX
  8
0
 10
195.951483
 20
1142.000000
 42
0.005349
  0
VERTEX
  8
0
 10
198.380525
 20
1139.747657
 42
0.005213
  0
VERTEX
  8
0
 10
200.877970
 20
1137.528125
 42
0.005148
  0
VERTEX
  8
0
 10
203.112131
 20
1135.623947
 42
0.019359
  0
VERTEX
  8
0
 10
204.569867
 20
1134.500000
 42
-0.019127
  0
VERTEX
  8
0
 10
205.942290
 20
1133.442846
 42
-0.006888
  0
VERTEX
  8
0
 10
207.814303
 20
1131.839063
 42
-0.006820
  0
VERTEX
  8
0
 10
209.819228
 20
1130.023786
 42
-0.008042
  0
VERTEX
  8
0
 10
211.664978
 20
1128.250000
 42
0.005613
  0
VERTEX
  8
0
 10
213.343425
 20
1126.621235
 42
0.008543
  0
VERTEX
  8
0
 10
214.840664
 20
1125.248437
 42
0.004008
  0
VERTEX
  8
0
 10
216.133068
 20
1124.121834
 42
0.179116
  0
VERTEX
  8
0
 10
216.462253
 20
1124.000000
 42
-0.167417
  0
VERTEX
  8
0
 10
217.236066
 20
1123.733429
 42
-0.008279
  0
VERTEX
  8
0
 10
219.362194
 20
1122.013853
 42
-0.010427
  0
VERTEX
  8
0
 10
222.178884
 20
1119.555937
 42
-0.003914
  0
VERTEX
  8
0
 10
226.025395
 20
1116.000000
 42
0.005432
  0
VERTEX
  8
0
 10
228.099799
 20
1114.093944
 42
0.004364
  0
VERTEX
  8
0
 10
230.371211
 20
1112.087500
 42
0.004412
  0
VERTEX
  8
0
 10
232.503232
 20
1110.269800
 42
0.011229
  0
VERTEX
  8
0
 10
234.090604
 20
1109.000000
 42
-0.010688
  0
VERTEX
  8
0
 10
235.642876
 20
1107.761029
 42
-0.004706
  0
VERTEX
  8
0
 10
237.645167
 20
1106.059375
 42
-0.004655
  0
VERTEX
  8
0
 10
239.735508
 20
1104.214394
 42
-0.006231
  0
VERTEX
  8
0
 10
241.594693
 20
1102.500000
 42
0.004188
  0
VERTEX
  8
0
 10
245.134303
 20
1099.209188
 42
0.010581
  0
VERTEX
  8
0
 10
247.779007
 20
1096.892166
 42
0.008201
  0
VERTEX
  8
0
 10
249.798453
 20
1095.252800
 42
0.167924
  0
VERTEX
  8
0
 10
250.529949
 20
1095.000000
 42
-0.187268
  0
VERTEX
  8
0
 10
250.865113
 20
1094.869907
 42
-0.001845
  0
VERTEX
  8
0
 10
252.797455
 20
1093.090625
 42
-0.005734
  0
VERTEX
  8
0
 10
255.008903
 20
1090.991520
 42
-0.003647
  0
VERTEX
  8
0
 10
257.537037
 20
1088.500000
 42
0.005585
  0
VERTEX
  8
0
 10
260.084385
 20
1086.008932
 42
0.008510
  0
VERTEX
  8
0
 10
262.356080
 20
1083.909375
 42
0.003965
  0
VERTEX
  8
0
 10
264.317728
 20
1082.185097
 42
0.180203
  0
VERTEX
  8
0
 10
264.814631
 20
1082.000000
 42
-0.169089
  0
VERTEX
  8
0
 10
265.308590
 20
1081.828038
 42
-0.005023
  0
VERTEX
  8
0
 10
267.038586
 20
1080.428875
 42
-0.009494
  0
VERTEX
  8
0
 10
269.052467
 20
1078.701052
 42
-0.006348
  0
VERTEX
  8
0
 10
271.293602
 20
1076.651491
 42
0.004728
  0
VERTEX
  8
0
 10
273.709520
 20
1074.427670
 42
0.004250
  0
VERTEX
  8
0
 10
276.253859
 20
1072.168668
 42
0.004262
  0
VERTEX
  8
0
 10
278.570742
 20
1070.181101
 42
0.013367
  0
VERTEX
  8
0
 10
280.173395
 20
1068.901491
 42
-0.019791
  0
VERTEX
  8
0
 10
281.884440
 20
1067.498973
 42
-0.004257
  0
VERTEX
  8
0
 10
284.729181
 20
1064.928875
 42
-0.004439
  0
VERTEX
  8
0
 10
287.974017
 20
1061.893163
 42
-0.004224
  0
VERTEX
  8
0
 10
291.219147
 20
1058.750000
 42
0.004301
  0
VERTEX
  8
0
 10
294.286917
 20
1055.779543
 42
0.006684
  0
VERTEX
  8
0
 10
296.988197
 20
1053.276562
 42
0.002507
  0
VERTEX
  8
0
 10
299.336464
 20
1051.179571
 42
0.182982
  0
VERTEX
  8
0
 10
299.810715
 20
1051.000000
 42
-0.165480
  0
VERTEX
  8
0
 10
300.261633
 20
1050.846562
 42
-0.006557
  0
VERTEX
  8
0
 10
301.646349
 20
1049.751563
 42
-0.010971
  0
VERTEX
  8
0
 10
303.262920
 20
1048.378447
 42
-0.007473
  0
VERTEX
  8
0
 10
305.042675
 20
1046.750000
 42
0.007043
  0
VERTEX
  8
0
 10
307.017672
 20
1044.939787
 42
0.005386
  0
VERTEX
  8
0
 10
309.226493
 20
1043.014062
 42
0.005448
  0
VERTEX
  8
0
 10
311.334256
 20
1041.255348
 42
0.012790
  0
VERTEX
  8
0
 10
312.955456
 20
1040.000000
 42
-0.012356
  0
VERTEX
  8
0
 10
314.496230
 20
1038.809067
 42
-0.006784
  0
VERTEX
  8
0
 10
316.325658
 20
1037.279687
 42
-0.006758
  0
VERTEX
  8
0
 10
318.141421
 20
1035.676227
 42
-0.010732
  0
VERTEX
  8
0
 10
319.646921
 20
1034.250000
 42
0.015915
  0
VERTEX
  8
0
 10
320.988198
 20
1033.005474
 42
0.020500
  0
VERTEX
  8
0
 10
322.300511
 20
1031.954688
 42
0.018763
  0
VERTEX
  8
0
 10
323.442891
 20
1031.178732
 42
0.140703
  0
VERTEX
  8
0
 10
324.065457
 20
1031.000000
 42
-0.135901
  0
VERTEX
  8
0
 10
324.662509
 20
1030.834666
 42
-0.023727
  0
VERTEX
  8
0
 10
325.643812
 20
1030.180836
 42
-0.024230
  0
VERTEX
  8
0
 10
326.750741
 20
1029.279028
 42
-0.019645
  0
VERTEX
  8
0
 10
327.848790
 20
1028.211357
 42
0.016532
  0
VERTEX
  8
0
 10
329.108040
 20
1026.971606
 42
0.009226
  0
VERTEX
  8
0
 10
330.717039
 20
1025.542992
 42
0.009196
  0
VERTEX
  8
0
 10
332.399273
 20
1024.156726
 42
0.014729
  0
VERTEX
  8
0
 10
333.890066
 20
1023.043527
 42
-0.037265
  0
VERTEX
  8
0
 10
338.293971
 20
1019.435137
 42
-0.005468
  0
VERTEX
  8
0
 10
346.567503
 20
1011.382533
 42
-0.001773
  0
VERTEX
  8
0
 10
355.380840
 20
1002.552419
 42
-0.197744
  0
VERTEX
  8
0
 10
356.000000
 20
1001.048074
 42
0.136294
  0
VERTEX
  8
0
 10
356.143305
 20
1000.532119
 42
0.021065
  0
VERTEX
  8
0
 10
356.734375
 20
999.637701
 42
0.022178
  0
VERTEX
  8
0
 10
357.542766
 20
998.618243
 42
0.017656
  0
VERTEX
  8
0
 10
358.500000
 20
997.590909
 42
-0.028052
  0
VERTEX
  8
0
 10
359.456807
 20
996.520265
 42
-0.029931
  0
VERTEX
  8
0
 10
360.265625
 20
995.371307
 42
-0.031350
  0
VERTEX
  8
0
 10
360.834386
 20
994.307181
 42
-0.107455
  0
VERTEX
  8
0
 10
361.000000
 20
993.545455
 42
0.062856
  0
VERTEX
  8
0
 10
361.074578
 20
992.954548
 42
0.080979
  0
VERTEX
  8
0
 10
361.293750
 20
992.453977
 42
0.098208
  0
VERTEX
  8
0
 10
361.618628
 20
992.119000
 42
0.152392
  0
VERTEX
  8
0
 10
362.000000
 20
992.000000
 42
-0.148195
  0
VERTEX
  8
0
 10
362.381354
 20
991.884432
 42
-0.098894
  0
VERTEX
  8
0
 10
362.706250
 20
991.559375
 42
-0.082425
  0
VERTEX
  8
0
 10
362.925306
 20
991.073457
 42
-0.064853
  0
VERTEX
  8
0
 10
363.000000
 20
990.500000
 42
0.064853
  0
VERTEX
  8
0
 10
363.074694
 20
989.926543
 42
0.082425
  0
VERTEX
  8
0
 10
363.293750
 20
989.440625
 42
0.098894
  0
VERTEX
  8
0
 10
363.618646
 20
989.115568
 42
0.148195
  0
VERTEX
  8
0
 10
364.000000
 20
989.000000
 42
-0.148195
  0
VERTEX
  8
0
 10
364.381354
 20
988.884432
 42
-0.098894
  0
VERTEX
  8
0
 10
364.706250
 20
988.559375
 42
-0.082425
  0
VERTEX
  8
0
 10
364.925306
 20
988.073457
 42
-0.064853
  0
VERTEX
  8
0
 10
365.000000
 20
987.500000
 42
0.064853
  0
VERTEX
  8
0
 10
365.074694
 20
986.926543
 42
0.082425
  0
VERTEX
  8
0
 10
365.293750
 20
986.440625
 42
0.098894
  0
VERTEX
  8
0
 10
365.618646
 20
986.115568
 42
0.148195
  0
VERTEX
  8
0
 10
366.000000
 20
986.000000
 42
-0.191087
  0
VERTEX
  8
0
 10
366.381882
 20
985.848523
 42
-0.088204
  0
VERTEX
  8
0
 10
366.706250
 20
985.412500
 42
-0.068025
  0
VERTEX
  8
0
 10
366.926307
 20
984.765418
 42
-0.048028
  0
VERTEX
  8
0
 10
367.000000
 20
984.000000
 42
0.048028
  0
VERTEX
  8
0
 10
367.073693
 20
983.234582
 42
0.068025
  0
VERTEX
  8
0
 10
367.293750
 20
982.587500
 42
0.088204
  0
VERTEX
  8
0
 10
367.618118
 20
982.151477
 42
0.191087
  0
VERTEX
  8
0
 10
368.000000
 20
982.000000
 42
-0.186414
  0
VERTEX
  8
0
 10
368.381787
 20
981.852535
 42
-0.089706
  0
VERTEX
  8
0
 10
368.706250
 20
981.429836
 42
-0.069539
  0
VERTEX
  8
0
 10
368.926216
 20
980.801778
 42
-0.049547
  0
VERTEX
  8
0
 10
369.000000
 20
980.059017
 42
0.046881
  0
VERTEX
  8
0
 10
369.074077
 20
979.270704
 42
0.046318
  0
VERTEX
  8
0
 10
369.293750
 20
978.506650
 42
0.050262
  0
VERTEX
  8
0
 10
369.616444
 20
977.876024
 42
0.111412
  0
VERTEX
  8
0
 10
370.000000
 20
977.500000
 42
-0.111412
  0
VERTEX
  8
0
 10
370.383556
 20
977.123976
 42
-0.050262
  0
VERTEX
  8
0
 10
370.706250
 20
976.493350
 42
-0.046318
  0
VERTEX
  8
0
 10
370.925923
 20
975.729296
 42
-0.046881
  0
VERTEX
  8
0
 10
371.000000
 20
974.940983
 42
0.049547
  0
VERTEX
  8
0
 10
371.073784
 20
974.198222
 42
0.069539
  0
VERTEX
  8
0
 10
371.293750
 20
973.570164
 42
0.089706
  0
VERTEX
  8
0
 10
371.618213
 20
973.147465
 42
0.186414
  0
VERTEX
  8
0
 10
372.000000
 20
973.000000
 42
-0.295869
  0
VERTEX
  8
0
 10
372.387127
 20
972.748945
 42
-0.043820
  0
VERTEX
  8
0
 10
372.706250
 20
971.825000
 42
-0.037669
  0
VERTEX
  8
0
 10
372.927610
 20
970.532944
 42
-0.023598
  0
VERTEX
  8
0
 10
373.000000
 20
969.000000
 42
-0.023598
  0
VERTEX
  8
0
 10
372.927610
 20
967.467056
 42
-0.037669
  0
VERTEX
  8
0
 10
372.706250
 20
966.175000
 42
-0.043820
  0
VERTEX
  8
0
 10
372.387127
 20
965.251055
 42
-0.295869
  0
VERTEX
  8
0
 10
372.000000
 20
965.000000
 42
0.186414
  0
VERTEX
  8
0
 10
371.618213
 20
964.852535
 42
0.089706
  0
VERTEX
  8
0
 10
371.293750
 20
964.429836
 42
0.069539
  0
VERTEX
  8
0
 10
371.073784
 20
963.801778
 42
0.049547
  0
VERTEX
  8
0
 10
371.000000
 20
963.059017
 42
-0.046881
  0
VERTEX
  8
0
 10
370.925923
 20
962.270704
 42
-0.046318
  0
VERTEX
  8
0
 10
370.706250
 20
961.506650
 42
-0.050262
  0
VERTEX
  8
0
 10
370.383556
 20
960.876024
 42
-0.111412
  0
VERTEX
  8
0
 10
370.000000
 20
960.500000
 42
0.111412
  0
VERTEX
  8
0
 10
369.616444
 20
960.123976
 42
0.050262
  0
VERTEX
  8
0
 10
369.293750
 20
959.493350
 42
0.046318
  0
VERTEX
  8
0
 10
369.074077
 20
958.729296
 42
0.046881
  0
VERTEX
  8
0
 10
369.000000
 20
957.940983
 42
-0.049547
  0
VERTEX
  8
0
 10
368.926216
 20
957.198222
 42
-0.069539
  0
VERTEX
  8
0
 10
368.706250
 20
956.570164
 42
-0.089706
  0
VERTEX
  8
0
 10
368.381787
 20
956.147465
 42
-0.186414
  0
VERTEX
  8
0
 10
368.000000
 20
956.000000
 42
0.191087
  0
VERTEX
  8
0
 10
367.618118
 20
955.848523
 42
0.088204
  0
VERTEX
  8
0
 10
367.293750
 20
955.412500
 42
0.068025
  0
VERTEX
  8
0
 10
367.073693
 20
954.765418
 42
0.048028
  0
VERTEX
  8
0
 10
367.000000
 20
954.000000
 42
-0.048028
  0
VERTEX
  8
0
 10
366.926307
 20
953.234582
 42
-0.068025
  0
VERTEX
  8
0
 10
366.706250
 20
952.587500
 42
-0.088204
  0
VERTEX
  8
0
 10
366.381882
 20
952.151477
 42
-0.191087
  0
VERTEX
  8
0
 10
366.000000
 20
952.000000
 42
0.148195
  0
VERTEX
  8
0
 10
365.618646
 20
951.884432
 42
0.098894
  0
VERTEX
  8
0
 10
365.293750
 20
951.559375
 42
0.082425
  0
VERTEX
  8
0
 10
365.074694
 20
951.073457
 42
0.064853
  0
VERTEX
  8
0
 10
365.000000
 20
950.500000
 42
-0.064853
  0
VERTEX
  8
0
 10
364.925306
 20
949.926543
 42
-0.082425
  0
VERTEX
  8
0
 10
364.706250
 20
949.440625
 42
-0.098894
  0
VERTEX
  8
0
 10
364.381354
 20
949.115568
 42
-0.148195
  0
VERTEX
  8
0
 10
364.000000
 20
949.000000
 42
0.148195
  0
VERTEX
  8
0
 10
363.618646
 20
948.884432
 42
0.098894
  0
VERTEX
  8
0
 10
363.293750
 20
948.559375
 42
0.082425
  0
VERTEX
  8
0
 10
363.074694
 20
948.073457
 42
0.064853
  0
VERTEX
  8
0
 10
363.000000
 20
947.500000
 42
-0.064853
  0
VERTEX
  8
0
 10
362.925306
 20
946.926543
 42
-0.082425
  0
VERTEX
  8
0
 10
362.706250
 20
946.440625
 42
-0.098894
  0
VERTEX
  8
0
 10
362.381354
 20
946.115568
 42
-0.148195
  0
VERTEX
  8
0
 10
362.000000
 20
946.000000
 42
0.152392
  0
VERTEX
  8
0
 10
361.618628
 20
945.881000
 42
0.098208
  0
VERTEX
  8
0
 10
361.293750
 20
945.546023
 42
0.080979
  0
VERTEX
  8
0
 10
361.074578
 20
945.045452
 42
0.062856
  0
VERTEX
  8
0
 10
361.000000
 20
944.454545
 42
-0.107455
  0
VERTEX
  8
0
 10
360.834386
 20
943.692819
 42
-0.031350
  0
VERTEX
  8
0
 10
360.265625
 20
942.628693
 42
-0.029931
  0
VERTEX
  8
0
 10
359.456807
 20
941.479735
 42
-0.028052
  0
VERTEX
  8
0
 10
358.500000
 20
940.409091
 42
0.017656
  0
VERTEX
  8
0
 10
357.542766
 20
939.381757
 42
0.022178
  0
VERTEX
  8
0
 10
356.734375
 20
938.362299
 42
0.021065
  0
VERTEX
  8
0
 10
356.143305
 20
937.467881
 42
0.136294
  0
VERTEX
  8
0
 10
356.000000
 20
936.951926
 42
-0.197744
  0
VERTEX
  8
0
 10
355.380840
 20
935.447581
 42
-0.001773
  0
VERTEX
  8
0
 10
346.567503
 20
926.617467
 42
-0.005468
  0
VERTEX
  8
0
 10
338.293971
 20
918.564863
 42
-0.037265
  0
VERTEX
  8
0
 10
333.890066
 20
914.956473
 42
0.014729
  0
VERTEX
  8
0
 10
332.399273
 20
913.843274
 42
0.009196
  0
VERTEX
  8
0
 10
330.717039
 20
912.457008
 42
0.009226
  0
VERTEX
  8
0
 10
329.108040
 20
911.028394
 42
0.016532
  0
VERTEX
  8
0
 10
327.848790
 20
909.788643
 42
-0.019645
  0
VERTEX
  8
0
 10
326.750741
 20
908.720972
 42
-0.024230
  0
VERTEX
  8
0
 10
325.643812
 20
907.819164
 42
-0.023727
  0
VERTEX
  8
0
 10
324.662509
 20
907.165334
 42
-0.135901
  0
VERTEX
  8
0
 10
324.065457
 20
907.000000
 42
0.140703
  0
VERTEX
  8
0
 10
323.442891
 20
906.821268
 42
0.018763
  0
VERTEX
  8
0
 10
322.300511
 20
906.045313
 42
0.020500
  0
VERTEX
  8
0
 10
320.988198
 20
904.994526
 42
0.015915
  0
VERTEX
  8
0
 10
319.646921
 20
903.750000
 42
-0.010732
  0
VERTEX
  8
0
 10
318.141421
 20
902.323773
 42
-0.006758
  0
VERTEX
  8
0
 10
316.325658
 20
900.720312
 42
-0.006784
  0
VERTEX
  8
0
 10
314.496230
 20
899.190933
 42
-0.012356
  0
VERTEX
  8
0
 10
312.955456
 20
898.000000
 42
0.012790
  0
VERTEX
  8
0
 10
311.334256
 20
896.744652
 42
0.005448
  0
VERTEX
  8
0
 10
309.226493
 20
894.985937
 42
0.005386
  0
VERTEX
  8
0
 10
307.017672
 20
893.060213
 42
0.007043
  0
VERTEX
  8
0
 10
305.042675
 20
891.250000
 42
-0.007473
  0
VERTEX
  8
0
 10
303.262920
 20
889.621553
 42
-0.010971
  0
VERTEX
  8
0
 10
301.646349
 20
888.248437
 42
-0.006557
  0
VERTEX
  8
0
 10
300.261633
 20
887.153438
 42
-0.165480
  0
VERTEX
  8
0
 10
299.810715
 20
887.000000
 42
0.182982
  0
VERTEX
  8
0
 10
299.336464
 20
886.820429
 42
0.002507
  0
VERTEX
  8
0
 10
296.988197
 20
884.723438
 42
0.006684
  0
VERTEX
  8
0
 10
294.286917
 20
882.220457
 42
0.004301
  0
VERTEX
  8
0
 10
291.219147
 20
879.250000
 42
-0.004224
  0
VERTEX
  8
0
 10
287.974017
 20
876.106837
 42
-0.004439
  0
VERTEX
  8
0
 10
284.729181
 20
873.071125
 42
-0.004257
  0
VERTEX
  8
0
 10
281.884440
 20
870.501027
 42
-0.019791
  0
VERTEX
  8
0
 10
280.173395
 20
869.098509
 42
0.013367
  0
VERTEX
  8
0
 10
278.570742
 20
867.818899
 42
0.004262
  0
VERTEX
  8
0
 10
276.253859
 20
865.831332
 42
0.004250
  0
VERTEX
  8
0
 10
273.709520
 20
863.572330
 42
0.004728
  0
VERTEX
  8
0
 10
271.293602
 20
861.348509
 42
-0.006348
  0
VERTEX
  8
0
 10
269.052467
 20
859.298948
 42
-0.009494
  0
VERTEX
  8
0
 10
267.038586
 20
857.571125
 42
-0.005023
  0
VERTEX
  8
0
 10
265.308590
 20
856.171962
 42
-0.169089
  0
VERTEX
  8
0
 10
264.814631
 20
856.000000
 42
0.180203
  0
VERTEX
  8
0
 10
264.317728
 20
855.814903
 42
0.003965
  0
VERTEX
  8
0
 10
262.356080
 20
854.090625
 42
0.008510
  0
VERTEX
  8
0
 10
260.084385
 20
851.991068
 42
0.005585
  0
VERTEX
  8
0
 10
257.537037
 20
849.500000
 42
-0.003647
  0
VERTEX
  8
0
 10
255.008903
 20
847.008480
 42
-0.005734
  0
VERTEX
  8
0
 10
252.797455
 20
844.909375
 42
-0.001845
  0
VERTEX
  8
0
 10
250.865113
 20
843.130093
 42
-0.187268
  0
VERTEX
  8
0
 10
250.529949
 20
843.000000
 42
0.167924
  0
VERTEX
  8
0
 10
249.798453
 20
842.747200
 42
0.008201
  0
VERTEX
  8
0
 10
247.779007
 20
841.107834
 42
0.010581
  0
VERTEX
  8
0
 10
245.134303
 20
838.790812
 42
0.004188
  0
VERTEX
  8
0
 10
241.594693
 20
835.500000
 42
-0.006231
  0
VERTEX
  8
0
 10
239.735508
 20
833.785606
 42
-0.004655
  0
VERTEX
  8
0
 10
237.645167
 20
831.940625
 42
-0.004706
  0
VERTEX
  8
0
 10
235.642876
 20
830.238971
 42
-0.010688
  0
VERTEX
  8
0
 10
234.090604
 20
829.000000
 42
0.011229
  0
VERTEX
  8
0
 10
232.503232
 20
827.730200
 42
0.004412
  0
VERTEX
  8
0
 10
230.371211
 20
825.912500
 42
0.004364
  0
VERTEX
  8
0
 10
228.099799
 20
823.906056
 42
0.005432
  0
VERTEX
  8
0
 10
226.025395
 20
822.000000
 42
-0.003914
  0
VERTEX
  8
0
 10
222.178884
 20
818.444063
 42
-0.010427
  0
VERTEX
  8
0
 10
219.362194
 20
815.986147
 42
-0.008279
  0
VERTEX
  8
0
 10
217.236066
 20
814.266571
 42
-0.167417
  0
VERTEX
  8
0
 10
216.462253
 20
814.000000
 42
0.179116
  0
VERTEX
  8
0
 10
216.133068
 20
813.878166
 42
0.004008
  0
VERTEX
  8
0
 10
214.840664
 20
812.751563
 42
0.008543
  0
VERTEX
  8
0
 10
213.343425
 20
811.378765
 42
0.005613
  0
VERTEX
  8
0
 10
211.664978
 20
809.750000
 42
-0.008042
  0
VERTEX
  8
0
 10
209.819228
 20
807.976214
 42
-0.006820
  0
VERTEX
  8
0
 10
207.814303
 20
806.160938
 42
-0.006888
  0
VERTEX
  8
0
 10
205.942290
 20
804.557154
 42
-0.019127
  0
VERTEX
  8
0
 10
204.569867
 20
803.500000
 42
0.019359
  0
VERTEX
  8
0
 10
203.112131
 20
802.376053
 42
0.005148
  0
VERTEX
  8
0
 10
200.877970
 20
800.471875
 42
0.005213
  0
VERTEX
  8
0
 10
198.380525
 20
798.252343
 42
0.005349
  0
VERTEX
  8
0
 10
195.951483
 20
796.000000
 42
-0.002337
  0
VERTEX
  8
0
 10
190.469483
 20
790.855030
 42
-0.007843
  0
VERTEX
  8
0
 10
186.810926
 20
787.558894
 42
-0.005657
  0
VERTEX
  8
0
 10
184.152242
 20
785.290575
 42
-0.175525
  0
VERTEX
  8
0
 10
183.350011
 20
785.000000
 42
0.201754
  0
VERTEX
  8
0
 10
182.579152
 20
784.675753
 42
0.013059
  0
VERTEX
  8
0
 10
180.889193
 20
782.855705
 42
0.014181
  0
VERTEX
  8
0
 10
179.308686
 20
780.955766
 42
0.167931
  0
VERTEX
  8
0
 10
179.000000
 20
780.062598
 42
-0.201352
  0
VERTEX
  8
0
 10
178.860224
 20
779.729577
 42
-0.019102
  0
VERTEX
  8
0
 10
178.192187
 20
779.122270
 42
-0.022036
  0
VERTEX
  8
0
 10
177.303436
 20
778.438817
 42
-0.015566
  0
VERTEX
  8
0
 10
176.250000
 20
777.748103
 42
0.016728
  0
VERTEX
  8
0
 10
174.949848
 20
776.891297
 42
0.007288
  0
VERTEX
  8
0
 10
173.279688
 20
775.671747
 42
0.007202
  0
VERTEX
  8
0
 10
171.541187
 20
774.323357
 42
0.009529
  0
VERTEX
  8
0
 10
170.000000
 20
773.043176
 42
-0.001876
  0
VERTEX
  8
0
 10
166.275623
 20
769.851944
 42
-0.017948
  0
VERTEX
  8
0
 10
164.634773
 20
768.555140
 42
-0.034301
  0
VERTEX
  8
0
 10
163.313109
 20
767.718501
 42
-0.017063
  0
VERTEX
  8
0
 10
161.537591
 20
766.835174
 42
0.023592
  0
VERTEX
  8
0
 10
160.565804
 20
766.335778
 42
0.032159
  0
VERTEX
  8
0
 10
159.745417
 20
765.791020
 42
0.033454
  0
VERTEX
  8
0
 10
159.153793
 20
765.274891
 42
0.199215
  0
VERTEX
  8
0
 10
159.000000
 20
764.904213
 42
-0.239888
  0
VERTEX
  8
0
 10
158.811145
 20
764.533235
 42
-0.025315
  0
VERTEX
  8
0
 10
157.971875
 20
763.985266
 42
-0.026895
  0
VERTEX
  8
0
 10
156.840898
 20
763.405033
 42
-0.018320
  0
VERTEX
  8
0
 10
155.500000
 20
762.863840
 42
0.018895
  0
VERTEX
  8
0
 10
154.159144
 20
762.320867
 42
0.027614
  0
VERTEX
  8
0
 10
153.028125
 20
761.735259
 42
0.026408
  0
VERTEX
  8
0
 10
152.191819
 20
761.180403
 42
0.237366
  0
VERTEX
  8
0
 10
152.000000
 20
760.799112
 42
-0.261291
  0
VERTEX
  8
0
 10
151.827611
 20
760.491754
 42
-0.059849
  0
VERTEX
  8
0
 10
151.265625
 20
760.234739
 42
-0.047089
  0
VERTEX
  8
0
 10
150.457777
 20
760.058095
 42
-0.030300
  0
VERTEX
  8
0
 10
149.500000
 20
760.000000
 42
0.038131
  0
VERTEX
  8
0
 10
148.542644
 20
759.926884
 42
0.057076
  0
VERTEX
  8
0
 10
147.734375
 20
759.706250
 42
0.074992
  0
VERTEX
  8
0
 10
147.182831
 20
759.382936
 42
0.226478
  0
VERTEX
  8
0
 10
147.000000
 20
759.000000
 42
-0.396584
  0
VERTEX
  8
0
 10
146.168237
 20
758.116271
 42
-0.020263
  0
VERTEX
  8
0
 10
141.868516
 20
758.030072
 42
-0.026868
  0
VERTEX
  8
0
 10
137.443379
 20
758.359009
 42
-0.098437
  0
VERTEX
  8
0
 10
134.791737
 20
759.250000
 42
-0.037864
  0
VERTEX
  8
0
 10
132.307654
 20
760.935251
 42
-0.038630
  0
VERTEX
  8
0
 10
130.123964
 20
762.965529
 42
-0.039334
  0
VERTEX
  8
0
 10
128.314066
 20
765.269179
 42
-0.042674
  0
VERTEX
  8
0
 10
126.942372
 20
767.768062
 42
0.015633
  0
VERTEX
  8
0
 10
126.347301
 20
769.006326
 42
0.022994
  0
VERTEX
  8
0
 10
125.742110
 20
770.050618
 42
0.019787
  0
VERTEX
  8
0
 10
125.190248
 20
770.838911
 42
0.234263
  0
VERTEX
  8
0
 10
124.865295
 20
771.000000
 42
-0.285664
  0
VERTEX
  8
0
 10
124.583757
 20
771.175143
 42
-0.027136
  0
VERTEX
  8
0
 10
124.250928
 20
771.954687
 42
-0.028194
  0
VERTEX
  8
0
 10
123.934333
 20
773.004535
 42
-0.018182
  0
VERTEX
  8
0
 10
123.681662
 20
774.250000
 42
0.009094
  0
VERTEX
  8
0
 10
123.394216
 20
775.812039
 42
0.004008
  0
VERTEX
  8
0
 10
122.960072
 20
777.867188
 42
0.003965
  0
VERTEX
  8
0
 10
122.464882
 20
780.039413
 42
0.005317
  0
VERTEX
  8
0
 10
121.979481
 20
782.000000
 42
-0.020382
  0
VERTEX
  8
0
 10
121.476249
 20
784.331558
 42
-0.006578
  0
VERTEX
  8
0
 10
120.917777
 20
787.821875
 42
-0.006547
  0
VERTEX
  8
0
 10
120.398011
 20
791.724269
 42
-0.007300
  0
VERTEX
  8
0
 10
120.001168
 20
795.500000
 42
-0.022406
  0
VERTEX
  8
0
 10
119.245195
 20
812.170802
 42
-0.000128
  0
VERTEX
  8
0
 10
119.205048
 20
969.000000
 42
-0.000128
  0
VERTEX
  8
0
 10
119.245195
 20
1125.829198
 42
-0.022406
  0
VERTEX
  8
0
 10
120.001168
 20
1142.500000
 42
-0.007300
  0
VERTEX
  8
0
 10
120.398011
 20
1146.275731
 42
-0.006547
  0
VERTEX
  8
0
 10
120.917777
 20
1150.178125
 42
-0.006578
  0
VERTEX
  8
0
 10
121.476249
 20
1153.668442
 42
-0.020382
  0
VERTEX
  8
0
 10
121.979481
 20
1156.000000
 42
0.005317
  0
VERTEX
  8
0
 10
122.464882
 20
1157.960587
 42
0.003965
  0
VERTEX
  8
0
 10
122.960072
 20
1160.132812
 42
0.004008
  0
VERTEX
  8
0
 10
123.394216
 20
1162.187961
 42
0.009094
  0
VERTEX
  8
0
 10
123.681662
 20
1163.750000
 42
-0.018182
  0
VERTEX
  8
0
 10
123.934333
 20
1164.995465
 42
-0.028194
  0
VERTEX
  8
0
 10
124.250928
 20
1166.045312
 42
-0.027136
  0
VERTEX
  8
0
 10
124.583757
 20
1166.824857
 42
-0.285664
  0
VERTEX
  8
0
 10
124.865295
 20
1167.000000
 42
0.234263
  0
VERTEX
  8
0
 10
125.190248
 20
1167.161089
 42
0.019787
  0
VERTEX
  8
0
 10
125.742110
 20
1167.949382
 42
0.022994
  0
VERTEX
  8
0
 10
126.347301
 20
1168.993674
 42
0.015633
  0
VERTEX
  8
0
 10
126.942372
 20
1170.231938
 42
-0.041982
  0
VERTEX
  8
0
 10
128.266771
 20
1172.652585
 42
-0.037134
  0
VERTEX
  8
0
 10
130.026813
 20
1174.926081
 42
-0.036257
  0
VERTEX
  8
0
 10
132.150574
 20
1176.966133
 42
-0.035623
  0
VERTEX
  8
0
 10
134.558783
 20
1178.691193
 42
-0.107520
  0
VERTEX
  8
0
 10
137.092128
 20
1179.576415
 42
-0.024288
  0
VERTEX
  8
0
 10
141.666857
 20
1179.912723
 42
-0.017898
  0
VERTEX
  8
0
 10
146.176233
 20
1179.863224
 42
-0.400581
  0
SEQEND
  0
POLYLINE
  8
0
 66
1
 70
1
  0
VERTEX
  8
0
 10
371.333506
 20
837.466494
 42
-0.056751
  0
VERTEX
  8
0
 10
374.489551
 20
833.499339
 42
-0.074673
  0
VERTEX
  8
0
 10
376.328881
 20
829.262405
 42
-0.051712
  0
VERTEX
  8
0
 10
377.232179
 20
823.562417
 42
-0.014230
  0
VERTEX
  8
0
 10
377.462906
 20
814.471724
 42
-0.012058
  0
VERTEX
  8
0
 10
377.251047
 20
806.684429
 42
-0.022636
  0
VERTEX
  8
0
 10
376.644040
 20
800.418834
 42
-0.020603
  0
VERTEX
  8
0
 10
375.429795
 20
793.859375
 42
-0.008275
  0
VERTEX
  8
0
 10
373.254320
 20
785.000000
 42
0.002030
  0
VERTEX
  8
0
 10
371.735228
 20
779.131203
 42
0.004622
  0
VERTEX
  8
0
 10
370.647166
 20
774.684595
 42
0.006033
  0
VERTEX
  8
0
 10
369.864219
 20
771.161337
 42
0.010736
  0
VERTEX
  8
0
 10
369.317256
 20
768.240732
 42
-0.021973
  0
VERTEX
  8
0
 10
369.045934
 20
766.952621
 42
-0.026777
  0
VERTEX
  8
0
 10
368.675836
 20
765.777385
 42
-0.026959
  0
VERTEX
  8
0
 10
368.267348
 20
764.843998
 42
-0.138574
  0
VERTEX
  8
0
 10
367.889512
 20
764.431715
 42
0.154712
  0
VERTEX
  8
0
 10
367.545945
 20
764.032186
 42
0.037422
  0
VERTEX
  8
0
 10
367.261294
 20
763.196877
 42
0.034870
  0
VERTEX
  8
0
 10
367.065370
 20
762.143593
 42
0.028558
  0
VERTEX
  8
0
 10
367.000000
 20
761.000000
 42
-0.032024
  0
VERTEX
  8
0
 10
366.926362
 20
759.851470
 42
-0.037579
  0
VERTEX
  8
0
 10
366.706250
 20
758.783064
 42
-0.040930
  0
VERTEX
  8
0
 10
366.385448
 20
757.931076
 42
-0.144823
  0
VERTEX
  8
0
 10
366.000000
 20
757.500000
 42
0.159713
  0
VERTEX
  8
0
 10
365.613307
 20
757.041340
 42
0.035556
  0
VERTEX
  8
0
 10
365.293750
 20
756.052725
 42
0.033489
  0
VERTEX
  8
0
 10
365.073414
 20
754.803639
 42
0.026918
  0
VERTEX
  8
0
 10
365.000000
 20
753.440983
 42
-0.024685
  0
VERTEX
  8
0
 10
364.934858
 20
752.122339
 42
-0.039248
  0
VERTEX
  8
0
 10
364.735829
 20
751.010789
 42
-0.046569
  0
VERTEX
  8
0
 10
364.448395
 20
750.220182
 42
-0.289998
  0
VERTEX
  8
0
 10
364.100694
 20
750.000000
 42
0.286345
  0
VERTEX
  8
0
 10
363.718200
 20
749.761385
 42
0.030669
  0
VERTEX
  8
0
 10
363.298443
 20
748.751562
 42
0.030363
  0
VERTEX
  8
0
 10
362.915644
 20
747.378662
 42
0.019538
  0
VERTEX
  8
0
 10
362.632484
 20
745.750000
 42
-0.002795
  0
VERTEX
  8
0
 10
361.703770
 20
739.095182
 42
-0.014641
  0
VERTEX
  8
0
 10
361.065519
 20
735.454135
 42
-0.021698
  0
VERTEX
  8
0
 10
360.508245
 20
733.236550
 42
-0.183942
  0
VERTEX
  8
0
 10
359.894367
 20
732.434715
 42
0.187934
  0
VERTEX
  8
0
 10
359.545580
 20
731.971778
 42
0.024238
  0
VERTEX
  8
0
 10
359.262720
 20
730.739797
 42
0.025573
  0
VERTEX
  8
0
 10
359.065283
 20
729.182191
 42
0.018740
  0
VERTEX
  8
0
 10
359.000000
 20
727.440983
 42
-0.021227
  0
VERTEX
  8
0
 10
358.927706
 20
725.738865
 42
-0.034160
  0
VERTEX
  8
0
 10
358.706250
 20
724.304539
 42
-0.037703
  0
VERTEX
  8
0
 10
358.388352
 20
723.265280
 42
-0.308946
  0
VERTEX
  8
0
 10
358.000000
 20
723.000000
 42
0.295869
  0
VERTEX
  8
0
 10
357.612873
 20
722.748945
 42
0.043820
  0
VERTEX
  8
0
 10
357.293750
 20
721.825000
 42
0.037669
  0
VERTEX
  8
0
 10
357.072390
 20
720.532944
 42
0.023598
  0
VERTEX
  8
0
 10
357.000000
 20
719.000000
 42
-0.023598
  0
VERTEX
  8
0
 10
356.927610
 20
717.467056
 42
-0.037669
  0
VERTEX
  8
0
 10
356.706250
 20
716.175000
 42
-0.043820
  0
VERTEX
  8
0
 10
356.387127
 20
715.251055
 42
-0.295869
  0
VERTEX
  8
0
 10
356.000000
 20
715.000000
 42
0.317955
  0
VERTEX
  8
0
 10
355.610695
 20
714.724595
 42
0.033516
  0
VERTEX
  8
0
 10
355.293750
 20
713.590000
 42
0.031739
  0
VERTEX
  8
0
 10
355.072233
 20
712.039837
 42
0.019623
  0
VERTEX
  8
0
 10
355.000000
 20
710.200000
 42
-0.017229
  0
VERTEX
  8
0
 10
354.934253
 20
708.292548
 42
-0.021488
  0
VERTEX
  8
0
 10
354.736338
 20
706.530938
 42
-0.020348
  0
VERTEX
  8
0
 10
354.451889
 20
705.094844
 42
-0.130941
  0
VERTEX
  8
0
 10
354.102426
 20
704.450000
 42
0.099117
  0
VERTEX
  8
0
 10
353.720820
 20
703.840574
 42
0.019265
  0
VERTEX
  8
0
 10
353.306480
 20
702.604063
 42
0.019786
  0
VERTEX
  8
0
 10
352.930308
 20
701.101031
 42
0.017160
  0
VERTEX
  8
0
 10
352.653247
 20
699.500000
 42
-0.006094
  0
VERTEX
  8
0
 10
352.364547
 20
697.579706
 42
-0.002722
  0
VERTEX
  8
0
 10
351.940069
 20
695.059375
 42
-0.002694
  0
VERTEX
  8
0
 10
351.462171
 20
692.398225
 42
-0.003651
  0
VERTEX
  8
0
 10
351.000000
 20
690.000000
 42
0.003504
  0
VERTEX
  8
0
 10
350.537096
 20
687.601778
 42
0.002585
  0
VERTEX
  8
0
 10
350.056978
 20
684.940625
 42
0.002612
  0
VERTEX
  8
0
 10
349.629265
 20
682.420301
 42
0.005845
  0
VERTEX
  8
0
 10
349.336700
 20
680.500000
 42
-0.013686
  0
VERTEX
  8
0
 10
349.066401
 20
678.895279
 42
-0.015731
  0
VERTEX
  8
0
 10
348.718757
 20
677.381250
 42
-0.014940
  0
VERTEX
  8
0
 10
348.347623
 20
676.123982
 42
-0.082353
  0
VERTEX
  8
0
 10
348.021778
 20
675.500000
 42
0.106429
  0
VERTEX
  8
0
 10
347.695029
 20
674.794122
 42
0.009619
  0
VERTEX
  8
0
 10
347.302163
 20
672.878007
 42
0.012144
  0
VERTEX
  8
0
 10
346.929409
 20
670.549055
 42
0.009199
  0
VERTEX
  8
0
 10
346.629800
 20
667.978323
 42
-0.009886
  0
VERTEX
  8
0
 10
346.276003
 20
664.978513
 42
-0.005437
  0
VERTEX
  8
0
 10
345.730770
 20
661.322507
 42
-0.005417
  0
VERTEX
  8
0
 10
345.096817
 20
657.623831
 42
-0.008638
  0
VERTEX
  8
0
 10
344.466192
 20
654.478323
 42
0.001565
  0
VERTEX
  8
0
 10
343.804717
 20
651.405136
 42
0.001092
  0
VERTEX
  8
0
 10
343.076923
 20
647.934257
 42
0.001102
  0
VERTEX
  8
0
 10
342.393621
 20
644.602862
 42
0.002287
  0
VERTEX
  8
0
 10
341.878105
 20
642.000000
 42
-0.001044
  0
VERTEX
  8
0
 10
341.402352
 20
639.566170
 42
-0.000706
  0
VERTEX
  8
0
 10
340.850330
 20
636.793750
 42
-0.000712
  0
VERTEX
  8
0
 10
340.309272
 20
634.116065
 42
-0.001421
  0
VERTEX
  8
0
 10
339.872293
 20
632.000000
 42
0.008334
  0
VERTEX
  8
0
 10
339.468622
 20
629.898965
 42
0.004376
  0
VERTEX
  8
0
 10
339.033199
 20
627.274265
 42
0.004351
  0
VERTEX
  8
0
 10
338.633864
 20
624.576241
 42
0.006670
  0
VERTEX
  8
0
 10
338.339477
 20
622.231540
 42
-0.014190
  0
VERTEX
  8
0
 10
338.049670
 20
620.174110
 42
-0.019678
  0
VERTEX
  8
0
 10
337.665724
 20
618.351901
 42
-0.016573
  0
VERTEX
  8
0
 10
337.247232
 20
616.897423
 42
-0.177819
  0
VERTEX
  8
0
 10
336.874639
 20
616.422523
 42
0.188558
  0
VERTEX
  8
0
 10
336.533467
 20
615.968554
 42
0.023978
  0
VERTEX
  8
0
 10
336.256925
 20
614.753552
 42
0.025394
  0
VERTEX
  8
0
 10
336.063835
 20
613.217727
 42
0.018575
  0
VERTEX
  8
0
 10
336.000000
 20
611.500000
 42
-0.021209
  0
VERTEX
  8
0
 10
335.926872
 20
609.776785
 42
-0.028151
  0
VERTEX
  8
0
 10
335.706250
 20
608.223689
 42
-0.027992
  0
VERTEX
  8
0
 10
335.388765
 20
606.997543
 42
-0.178843
  0
VERTEX
  8
0
 10
335.000000
 20
606.500000
 42
0.179846
  0
VERTEX
  8
0
 10
334.611109
 20
606.000298
 42
0.027581
  0
VERTEX
  8
0
 10
334.293750
 20
604.758975
 42
0.027868
  0
VERTEX
  8
0
 10
334.073113
 20
603.186816
 42
0.020930
  0
VERTEX
  8
0
 10
334.000000
 20
601.440983
 42
-0.021227
  0
VERTEX
  8
0
 10
333.927706
 20
599.738865
 42
-0.034160
  0
VERTEX
  8
0
 10
333.706250
 20
598.304539
 42
-0.037703
  0
VERTEX
  8
0
 10
333.388352
 20
597.265280
 42
-0.308946
  0
VERTEX
  8
0
 10
333.000000
 20
597.000000
 42
0.308946
  0
VERTEX
  8
0
 10
332.611648
 20
596.734720
 42
0.037703
  0
VERTEX
  8
0
 10
332.293750
 20
595.695461
 42
0.034160
  0
VERTEX
  8
0
 10
332.072294
 20
594.261135
 42
0.021227
  0
VERTEX
  8
0
 10
332.000000
 20
592.559017
 42
-0.020930
  0
VERTEX
  8
0
 10
331.926887
 20
590.813184
 42
-0.027868
  0
VERTEX
  8
0
 10
331.706250
 20
589.241025
 42
-0.027581
  0
VERTEX
  8
0
 10
331.388891
 20
587.999702
 42
-0.179846
  0
VERTEX
  8
0
 10
331.000000
 20
587.500000
 42
0.179846
  0
VERTEX
  8
0
 10
330.611109
 20
587.000298
 42
0.027581
  0
VERTEX
  8
0
 10
330.293750
 20
585.758975
 42
0.027868
  0
VERTEX
  8
0
 10
330.073113
 20
584.186816
 42
0.020930
  0
VERTEX
  8
0
 10
330.000000
 20
582.440983
 42
-0.021227
  0
VERTEX
  8
0
 10
329.927706
 20
580.738865
 42
-0.034160
  0
VERTEX
  8
0
 10
329.706250
 20
579.304539
 42
-0.037703
  0
VERTEX
  8
0
 10
329.388352
 20
578.265280
 42
-0.308946
  0
VERTEX
  8
0
 10
329.000000
 20
578.000000
 42
0.322437
  0
VERTEX
  8
0
 10
328.610183
 20
577.719449
 42
0.031449
  0
VERTEX
  8
0
 10
328.293750
 20
576.531250
 42
0.030530
  0
VERTEX
  8
0
 10
328.072205
 20
574.916554
 42
0.018830
  0
VERTEX
  8
0
 10
328.000000
 20
573.000000
 42
-0.018830
  0
VERTEX
  8
0
 10
327.927795
 20
571.083446
 42
-0.030530
  0
VERTEX
  8
0
 10
327.706250
 20
569.468750
 42
-0.031449
  0
VERTEX
  8
0
 10
327.389817
 20
568.280551
 42
-0.322437
  0
VERTEX
  8
0
 10
327.000000
 20
568.000000
 42
0.295869
  0
VERTEX
  8
0
 10
326.612873
 20
567.748945
 42
0.043820
  0
VERTEX
  8
0
 10
326.293750
 20
566.825000
 42
0.037669
  0
VERTEX
  8
0
 10
326.072390
 20
565.532944
 42
0.023598
  0
VERTEX
  8
0
 10
326.000000
 20
564.000000
 42
-0.023598
  0
VERTEX
  8
0
 10
325.927610
 20
562.467056
 42
-0.037669
  0
VERTEX
  8
0
 10
325.706250
 20
561.175000
 42
-0.043820
  0
VERTEX
  8
0
 10
325.387127
 20
560.251055
 42
-0.295869
  0
VERTEX
  8
0
 10
325.000000
 20
560.000000
 42
0.310520
  0
VERTEX
  8
0
 10
324.611488
 20
559.732972
 42
0.036969
  0
VERTEX
  8
0
 10
324.293750
 20
558.678125
 42
0.033738
  0
VERTEX
  8
0
 10
324.072283
 20
557.224757
 42
0.020945
  0
VERTEX
  8
0
 10
324.000000
 20
555.500000
 42
-0.018816
  0
VERTEX
  8
0
 10
323.935066
 20
553.775100
 42
-0.030508
  0
VERTEX
  8
0
 10
323.735829
 20
552.321875
 42
-0.031410
  0
VERTEX
  8
0
 10
323.451268
 20
551.252387
 42
-0.322520
  0
VERTEX
  8
0
 10
323.100694
 20
551.000000
 42
0.291988
  0
VERTEX
  8
0
 10
322.716815
 20
550.754930
 42
0.028179
  0
VERTEX
  8
0
 10
322.289105
 20
549.678125
 42
0.028824
  0
VERTEX
  8
0
 10
321.896006
 20
548.224552
 42
0.018448
  0
VERTEX
  8
0
 10
321.600694
 20
546.500000
 42
0.000000
  0
VERTEX
  8
0
 10
321.327240
 20
544.451466
 42
0.000000
  0
VERTEX
  8
0
 10
321.000000
 20
542.000000
 42
-0.000000
  0
VERTEX
  8
0
 10
320.672760
 20
539.548534
 42
-0.000000
  0
VERTEX
  8
0
 10
320.399306
 20
537.500000
 42
-0.016372
  0
VERTEX
  8
0
 10
320.111332
 20
535.775293
 42
-0.025829
  0
VERTEX
  8
0
 10
319.740474
 20
534.321875
 42
-0.023440
  0
VERTEX
  8
0
 10
319.343563
 20
533.228936
 42
-0.302659
  0
VERTEX
  8
0
 10
319.000000
 20
533.000000
 42
0.297590
  0
VERTEX
  8
0
 10
318.657628
 20
532.776428
 42
0.025634
  0
VERTEX
  8
0
 10
318.268864
 20
531.751562
 42
0.027230
  0
VERTEX
  8
0
 10
317.908297
 20
530.378822
 42
0.017338
  0
VERTEX
  8
0
 10
317.632484
 20
528.750000
 42
-0.002795
  0
VERTEX
  8
0
 10
316.703770
 20
522.095182
 42
-0.014641
  0
VERTEX
  8
0
 10
316.065519
 20
518.454135
 42
-0.021698
  0
VERTEX
  8
0
 10
315.508245
 20
516.236550
 42
-0.183942
  0
VERTEX
  8
0
 10
314.894367
 20
515.434715
 42
0.152156
  0
VERTEX
  8
0
 10
314.549119
 20
515.037265
 42
0.038354
  0
VERTEX
  8
0
 10
314.262720
 20
514.218690
 42
0.035573
  0
VERTEX
  8
0
 10
314.065761
 20
513.187770
 42
0.029424
  0
VERTEX
  8
0
 10
314.000000
 20
512.071255
 42
-0.079487
  0
VERTEX
  8
0
 10
312.885565
 20
505.105346
 42
-0.029038
  0
VERTEX
  8
0
 10
309.214689
 20
495.788857
 42
-0.029355
  0
VERTEX
  8
0
 10
304.327602
 20
486.672510
 42
-0.056320
  0
VERTEX
  8
0
 10
299.225545
 20
480.143271
 42
-0.020521
  0
VERTEX
  8
0
 10
294.983253
 20
476.159888
 42
-0.065661
  0
VERTEX
  8
0
 10
291.747693
 20
474.031885
 42
-0.076981
  0
VERTEX
  8
0
 10
288.363255
 20
472.996175
 42
-0.035844
  0
VERTEX
  8
0
 10
283.772694
 20
472.666667
 42
-0.050360
  0
VERTEX
  8
0
 10
279.530496
 20
473.095023
 42
-0.035053
  0
VERTEX
  8
0
 10
274.889333
 20
474.386226
 42
-0.035503
  0
VERTEX
  8
0
 10
270.582327
 20
476.270481
 42
-0.061331
  0
VERTEX
  8
0
 10
267.372529
 20
478.494263
 42
0.016413
  0
VERTEX
  8
0
 10
266.787513
 20
478.982604
 42
0.005781
  0
VERTEX
  8
0
 10
265.918068
 20
479.645190
 42
0.005732
  0
VERTEX
  8
0
 10
264.944938
 20
480.351976
 42
0.006692
  0
VERTEX
  8
0
 10
264.004428
 20
481.000000
 42
-0.041568
  0
VERTEX
  8
0
 10
261.852016
 20
482.715860
 42
-0.008311
  0
VERTEX
  8
0
 10
258.332741
 20
486.147075
 42
-0.008686
  0
VERTEX
  8
0
 10
254.340845
 20
490.312945
 42
-0.007773
  0
VERTEX
  8
0
 10
250.342785
 20
494.770054
 42
0.002699
  0
VERTEX
  8
0
 10
248.955492
 20
496.348569
 42
0.001157
  0
VERTEX
  8
0
 10
247.086630
 20
498.442242
 42
0.001145
  0
VERTEX
  8
0
 10
245.085195
 20
500.663760
 42
0.001511
  0
VERTEX
  8
0
 10
243.250000
 20
502.679129
 42
-0.008453
  0
VERTEX
  8
0
 10
241.621722
 20
504.517916
 42
-0.012158
  0
VERTEX
  8
0
 10
240.248437
 20
506.203910
 42
-0.008003
  0
VERTEX
  8
0
 10
239.168363
 20
507.644868
 42
-0.158100
  0
VERTEX
  8
0
 10
239.000000
 20
508.164016
 42
0.173555
  0
VERTEX
  8
0
 10
238.814736
 20
508.681672
 42
0.007271
  0
VERTEX
  8
0
 10
237.531250
 20
510.199572
 42
0.011817
  0
VERTEX
  8
0
 10
235.915813
 20
511.968453
 42
0.008050
  0
VERTEX
  8
0
 10
234.000000
 20
513.905754
 42
-0.005916
  0
VERTEX
  8
0
 10
232.083833
 20
515.826947
 42
-0.008984
  0
VERTEX
  8
0
 10
230.468750
 20
517.545775
 42
-0.004356
  0
VERTEX
  8
0
 10
229.147800
 20
519.028945
 42
-0.181686
  0
VERTEX
  8
0
 10
229.000000
 20
519.422265
 42
0.176636
  0
VERTEX
  8
0
 10
228.854083
 20
519.822424
 42
0.003689
  0
VERTEX
  8
0
 10
227.457812
 20
521.457748
 42
0.008126
  0
VERTEX
  8
0
 10
225.762033
 20
523.351369
 42
0.005326
  0
VERTEX
  8
0
 10
223.750000
 20
525.480033
 42
-0.006241
  0
VERTEX
  8
0
 10
219.455644
 20
530.040009
 42
-0.007069
  0
VERTEX
  8
0
 10
215.454022
 20
534.522431
 42
-0.006102
  0
VERTEX
  8
0
 10
212.154791
 20
538.420026
 42
-0.045040
  0
VERTEX
  8
0
 10
210.780147
 20
540.428372
 42
0.051166
  0
VERTEX
  8
0
 10
210.245021
 20
541.190044
 42
0.005293
  0
VERTEX
  8
0
 10
208.788868
 20
542.832733
 42
0.006541
  0
VERTEX
  8
0
 10
207.003200
 20
544.753582
 42
0.005186
  0
VERTEX
  8
0
 10
205.025430
 20
546.783457
 42
-0.005552
  0
VERTEX
  8
0
 10
203.099477
 20
548.763049
 42
-0.008461
  0
VERTEX
  8
0
 10
201.476220
 20
550.527871
 42
-0.003931
  0
VERTEX
  8
0
 10
200.142723
 20
552.051789
 42
-0.179644
  0
VERTEX
  8
0
 10
200.000000
 20
552.436209
 42
0.184863
  0
VERTEX
  8
0
 10
199.849760
 20
552.828676
 42
0.002513
  0
VERTEX
  8
0
 10
198.090625
 20
554.769919
 42
0.006718
  0
VERTEX
  8
0
 10
195.991361
 20
557.002257
 42
0.004319
  0
VERTEX
  8
0
 10
193.500000
 20
559.537037
 42
-0.005242
  0
VERTEX
  8
0
 10
191.008731
 20
562.081100
 42
-0.008029
  0
VERTEX
  8
0
 10
188.908854
 20
564.342535
 42
-0.003555
  0
VERTEX
  8
0
 10
187.175304
 20
566.298440
 42
-0.180851
  0
VERTEX
  8
0
 10
186.998226
 20
566.768519
 42
0.164648
  0
VERTEX
  8
0
 10
186.838640
 20
567.236273
 42
0.004823
  0
VERTEX
  8
0
 10
185.533966
 20
568.900752
 42
0.009199
  0
VERTEX
  8
0
 10
183.924645
 20
570.839379
 42
0.006155
  0
VERTEX
  8
0
 10
182.016001
 20
573.000000
 42
-0.001276
  0
VERTEX
  8
0
 10
179.834040
 20
575.421971
 42
-0.000898
  0
VERTEX
  8
0
 10
177.391774
 20
578.156699
 42
-0.000906
  0
VERTEX
  8
0
 10
175.064570
 20
580.781591
 42
-0.001904
  0
VERTEX
  8
0
 10
173.267775
 20
582.831316
 42
0.006258
  0
VERTEX
  8
0
 10
171.389413
 20
584.936814
 42
0.002513
  0
VERTEX
  8
0
 10
168.770846
 20
587.770356
 42
0.002486
  0
VERTEX
  8
0
 10
165.918862
 20
590.795232
 42
0.003142
  0
VERTEX
  8
0
 10
163.250000
 20
593.562797
 42
-0.003613
  0
VERTEX
  8
0
 10
160.854318
 20
596.051773
 42
-0.005677
  0
VERTEX
  8
0
 10
158.835938
 20
598.228282
 42
-0.001830
  0
VERTEX
  8
0
 10
157.125336
 20
600.129363
 42
-0.184307
  0
VERTEX
  8
0
 10
157.000000
 20
600.457832
 42
0.138805
  0
VERTEX
  8
0
 10
156.902136
 20
600.803563
 42
0.001702
  0
VERTEX
  8
0
 10
155.669833
 20
602.790689
 42
0.004898
  0
VERTEX
  8
0
 10
154.207333
 20
605.080955
 42
0.003167
  0
VERTEX
  8
0
 10
152.471771
 20
607.704552
 42
-0.014568
  0
VERTEX
  8
0
 10
150.659569
 20
610.584601
 42
-0.013279
  0
VERTEX
  8
0
 10
148.958739
 20
613.654450
 42
-0.013425
  0
VERTEX
  8
0
 10
147.585638
 20
616.478663
 42
-0.041310
  0
VERTEX
  8
0
 10
146.871304
 20
618.478201
 42
0.005729
  0
VERTEX
  8
0
 10
146.394874
 20
620.186348
 42
0.004753
  0
VERTEX
  8
0
 10
145.849799
 20
621.993356
 42
0.004800
  0
VERTEX
  8
0
 10
145.318632
 20
623.639809
 42
0.012895
  0
VERTEX
  8
0
 10
144.899533
 20
624.797053
 42
-0.083628
  0
VERTEX
  8
0
 10
144.157069
 20
628.343418
 42
-0.011091
  0
VERTEX
  8
0
 10
144.023799
 20
636.033417
 42
-0.006129
  0
VERTEX
  8
0
 10
144.160898
 20
644.045611
 42
-0.252110
  0
VERTEX
  8
0
 10
145.000000
 20
645.500000
 42
0.112461
  0
VERTEX
  8
0
 10
145.383599
 20
645.877628
 42
0.050045
  0
VERTEX
  8
0
 10
145.706250
 20
646.513983
 42
0.046062
  0
VERTEX
  8
0
 10
145.925933
 20
647.286116
 42
0.046316
  0
VERTEX
  8
0
 10
146.000000
 20
648.083981
 42
-0.104291
  0
VERTEX
  8
0
 10
146.424580
 20
650.097400
 42
-0.007002
  0
VERTEX
  8
0
 10
148.888849
 20
655.475389
 42
-0.011059
  0
VERTEX
  8
0
 10
151.677890
 20
661.023805
 42
-0.019492
  0
VERTEX
  8
0
 10
154.256924
 20
665.457164
 42
-0.053902
  0
VERTEX
  8
0
 10
156.621860
 20
668.420512
 42
-0.001825
  0
VERTEX
  8
0
 10
167.188486
 20
678.997511
 42
-0.003895
  0
VERTEX
  8
0
 10
178.158622
 20
689.730002
 42
-0.006645
  0
VERTEX
  8
0
 10
187.509226
 20
698.500000
 42
0.001965
  0
VERTEX
  8
0
 10
191.428688
 20
702.107733
 42
0.001236
  0
VERTEX
  8
0
 10
195.982052
 20
706.353125
 42
0.001240
  0
VERTEX
  8
0
 10
200.441400
 20
710.552337
 42
0.002273
  0
VERTEX
  8
0
 10
204.051469
 20
714.000000
 42
-0.002634
  0
VERTEX
  8
0
 10
207.370024
 20
717.164688
 42
-0.002238
  0
VERTEX
  8
0
 10
210.906371
 20
720.471875
 42
-0.002256
  0
VERTEX
  8
0
 10
214.153542
 20
723.454370
 42
-0.006357
  0
VERTEX
  8
0
 10
216.459192
 20
725.500000
 42
0.003838
  0
VERTEX
  8
0
 10
218.591416
 20
727.372653
 42
0.002045
  0
VERTEX
  8
0
 10
221.201888
 20
729.720313
 42
0.002035
  0
VERTEX
  8
0
 10
223.849067
 20
732.140351
 42
0.003168
  0
VERTEX
  8
0
 10
226.109042
 20
734.250000
 42
-0.007204
  0
VERTEX
  8
0
 10
228.090634
 20
736.070076
 42
-0.010627
  0
VERTEX
  8
0
 10
229.885906
 20
737.604687
 42
-0.006176
  0
VERTEX
  8
0
 10
231.424714
 20
738.833042
 42
-0.166854
  0
VERTEX
  8
0
 10
231.911097
 20
739.000000
 42
0.173062
  0
VERTEX
  8
0
 10
232.403177
 20
739.175579
 42
0.005031
  0
VERTEX
  8
0
 10
234.128488
 20
740.615625
 42
0.009576
  0
VERTEX
  8
0
 10
236.135022
 20
742.392360
 42
0.006386
  0
VERTEX
  8
0
 10
238.367448
 20
744.500000
 42
-0.006210
  0
VERTEX
  8
0
 10
240.598336
 20
746.607674
 42
-0.009339
  0
VERTEX
  8
0
 10
242.600077
 20
748.384375
 42
-0.004799
  0
VERTEX
  8
0
 10
244.322341
 20
749.828067
 42
-0.173726
  0
VERTEX
  8
0
 10
244.802246
 20
750.000000
 42
0.156330
  0
VERTEX
  8
0
 10
245.183603
 20
750.122222
 42
0.029515
  0
VERTEX
  8
0
 10
245.759783
 20
750.587500
 42
0.028978
  0
VERTEX
  8
0
 10
246.392654
 20
751.234274
 42
0.023022
  0
VERTEX
  8
0
 10
247.000000
 20
752.000000
 42
-0.019766
  0
VERTEX
  8
0
 10
247.599375
 20
752.765863
 42
-0.025913
  0
VERTEX
  8
0
 10
248.208323
 20
753.412500
 42
-0.025158
  0
VERTEX
  8
0
 10
248.753964
 20
753.884621
 42
-0.167280
  0
VERTEX
  8
0
 10
249.089180
 20
754.000000
 42
0.171769
  0
VERTEX
  8
0
 10
249.495201
 20
754.143724
 42
0.005703
  0
VERTEX
  8
0
 10
250.833680
 20
755.252571
 42
0.010250
  0
VERTEX
  8
0
 10
252.392484
 20
756.630119
 42
0.006890
  0
VERTEX
  8
0
 10
254.118421
 20
758.264073
 42
-0.007712
  0
VERTEX
  8
0
 10
256.002865
 20
760.042218
 42
-0.006586
  0
VERTEX
  8
0
 10
258.041972
 20
761.858940
 42
-0.006648
  0
VERTEX
  8
0
 10
259.940024
 20
763.461931
 42
-0.018716
  0
VERTEX
  8
0
 10
261.322336
 20
764.514073
 42
0.020010
  0
VERTEX
  8
0
 10
262.783971
 20
765.632577
 42
0.005320
  0
VERTEX
  8
0
 10
265.021856
 20
767.532259
 42
0.005386
  0
VERTEX
  8
0
 10
267.522333
 20
769.748691
 42
0.005525
  0
VERTEX
  8
0
 10
269.953164
 20
772.000000
 42
-0.003390
  0
VERTEX
  8
0
 10
274.802034
 20
776.529394
 42
-0.014609
  0
VERTEX
  8
0
 10
277.780731
 20
779.117515
 42
-0.020275
  0
VERTEX
  8
0
 10
279.809907
 20
780.646033
 42
-0.152426
  0
VERTEX
  8
0
 10
280.944043
 20
781.000000
 42
0.158510
  0
VERTEX
  8
0
 10
281.337942
 20
781.128092
 42
0.061815
  0
VERTEX
  8
0
 10
281.760920
 20
781.523942
 42
0.053037
  0
VERTEX
  8
0
 10
282.146636
 20
782.101182
 42
0.043969
  0
VERTEX
  8
0
 10
282.431328
 20
782.783634
 42
-0.081884
  0
VERTEX
  8
0
 10
282.839711
 20
783.586130
 42
-0.032296
  0
VERTEX
  8
0
 10
283.639328
 20
784.537962
 42
-0.030895
  0
VERTEX
  8
0
 10
284.654059
 20
785.475258
 42
-0.033703
  0
VERTEX
  8
0
 10
285.748716
 20
786.251138
 42
0.017274
  0
VERTEX
  8
0
 10
287.049295
 20
787.110251
 42
0.007502
  0
VERTEX
  8
0
 10
288.719935
 20
788.336836
 42
0.007413
  0
VERTEX
  8
0
 10
290.458706
 20
789.695078
 42
0.009782
  0
VERTEX
  8
0
 10
292.000000
 20
790.986800
 42
0.003360
  0
VERTEX
  8
0
 10
297.533492
 20
795.877512
 42
0.002605
  0
VERTEX
  8
0
 10
303.493762
 20
801.273432
 42
0.002656
  0
VERTEX
  8
0
 10
309.125068
 20
806.480390
 42
0.005012
  0
VERTEX
  8
0
 10
313.602882
 20
810.750000
 42
-0.006387
  0
VERTEX
  8
0
 10
315.725261
 20
812.762586
 42
-0.009553
  0
VERTEX
  8
0
 10
317.634644
 20
814.460945
 42
-0.005063
  0
VERTEX
  8
0
 10
319.276264
 20
815.837334
 42
-0.169958
  0
VERTEX
  8
0
 10
319.749763
 20
816.010665
 42
0.157885
  0
VERTEX
  8
0
 10
320.223048
 20
816.171403
 42
0.005791
  0
VERTEX
  8
0
 10
321.748368
 20
817.336183
 42
0.010061
  0
VERTEX
  8
0
 10
323.529720
 20
818.788128
 42
0.006840
  0
VERTEX
  8
0
 10
325.500000
 20
820.508091
 42
-0.001511
  0
VERTEX
  8
0
 10
329.767916
 20
824.314699
 42
-0.014387
  0
VERTEX
  8
0
 10
331.642593
 20
825.882650
 42
-0.028338
  0
VERTEX
  8
0
 10
333.108861
 20
826.909863
 42
-0.015763
  0
VERTEX
  8
0
 10
334.999989
 20
827.999994
 42
0.020539
  0
VERTEX
  8
0
 10
336.054078
 20
828.621103
 42
0.012051
  0
VERTEX
  8
0
 10
337.264597
 20
829.445076
 42
0.012041
  0
VERTEX
  8
0
 10
338.437330
 20
830.328885
 42
0.020033
  0
VERTEX
  8
0
 10
339.375565
 20
831.135265
 42
-0.029447
  0
VERTEX
  8
0
 10
340.238224
 20
831.848914
 42
-0.029912
  0
VERTEX
  8
0
 10
341.174400
 20
832.452234
 42
-0.031346
  0
VERTEX
  8
0
 10
342.048553
 20
832.874484
 42
-0.097133
  0
VERTEX
  8
0
 10
342.688561
 20
833.000000
 42
0.074660
  0
VERTEX
  8
0
 10
343.189641
 20
833.075240
 42
0.088576
  0
VERTEX
  8
0
 10
343.614765
 20
833.293750
 42
0.100668
  0
VERTEX
  8
0
 10
343.898958
 20
833.618647
 42
0.130232
  0
VERTEX
  8
0
 10
344.000000
 20
834.000000
 42
-0.148195
  0
VERTEX
  8
0
 10
344.115568
 20
834.381354
 42
-0.098894
  0
VERTEX
  8
0
 10
344.440625
 20
834.706250
 42
-0.082425
  0
VERTEX
  8
0
 10
344.926543
 20
834.925306
 42
-0.064853
  0
VERTEX
  8
0
 10
345.500000
 20
835.000000
 42
0.064853
  0
VERTEX
  8
0
 10
346.073457
 20
835.074694
 42
0.082425
  0
VERTEX
  8
0
 10
346.559375
 20
835.293750
 42
0.098894
  0
VERTEX
  8
0
 10
346.884432
 20
835.618646
 42
0.148195
  0
VERTEX
  8
0
 10
347.000000
 20
836.000000
 42
-0.191087
  0
VERTEX
  8
0
 10
347.151477
 20
836.381882
 42
-0.088204
  0
VERTEX
  8
0
 10
347.587500
 20
836.706250
 42
-0.068025
  0
VERTEX
  8
0
 10
348.234582
 20
836.926307
 42
-0.048028
  0
VERTEX
  8
0
 10
349.000000
 20
837.000000
 42
0.048028
  0
VERTEX
  8
0
 10
349.765418
 20
837.073693
 42
0.068025
  0
VERTEX
  8
0
 10
350.412500
 20
837.293750
 42
0.088204
  0
VERTEX
  8
0
 10
350.848523
 20
837.618118
 42
0.191087
  0
VERTEX
  8
0
 10
351.000000
 20
838.000000
 42
-0.186414
  0
VERTEX
  8
0
 10
351.147465
 20
838.381787
 42
-0.089706
  0
VERTEX
  8
0
 10
351.570164
 20
838.706250
 42
-0.069539
  0
VERTEX
  8
0
 10
352.198222
 20
838.926216
 42
-0.049547
  0
VERTEX
  8
0
 10
352.940983
 20
839.000000
 42
0.046881
  0
VERTEX
  8
0
 10
353.729296
 20
839.074077
 42
0.046318
  0
VERTEX
  8
0
 10
354.493350
 20
839.293750
 42
0.050262
  0
VERTEX
  8
0
 10
355.123976
 20
839.616444
 42
0.111412
  0
VERTEX
  8
0
 10
355.500000
 20
840.000000
 42
-0.198738
  0
VERTEX
  8
0
 10
356.043030
 20
840.391670
 42
-0.019725
  0
VERTEX
  8
0
 10
357.652275
 20
840.706250
 42
-0.022454
  0
VERTEX
  8
0
 10
359.676578
 20
840.927165
 42
-0.015951
  0
VERTEX
  8
0
 10
361.959017
 20
841.000000
 42
-0.016823
  0
VERTEX
  8
0
 10
365.433969
 20
840.883052
 42
-0.073426
  0
VERTEX
  8
0
 10
367.439218
 20
840.447525
 42
-0.082202
  0
VERTEX
  8
0
 10
369.120661
 20
839.474734
 42
-0.024222
  0
SEQEND
  0
POLYLINE
  8
0
 66
1
 70
1
  0
VERTEX
  8
0
 10
83.315054
 20
567.492717
 42
0.009903
  0
VERTEX
  8
0
 10
84.519958
 20
566.921145
 42
0.012217
  0
VERTEX
  8
0
 10
85.665712
 20
566.438486
 42
0.010653
  0
VERTEX
  8
0
 10
86.639979
 20
566.079577
 42
0.083105
  0
VERTEX
  8
0
 10
87.115450
 20
566.000000
 42
-0.196624
  0
VERTEX
  8
0
 10
89.633842
 20
564.969822
 42
-0.003199
  0
VERTEX
  8
0
 10
100.672241
 20
553.984571
 42
-0.008868
  0
VERTEX
  8
0
 10
111.039877
 20
543.156526
 42
-0.025252
  0
VERTEX
  8
0
 10
117.727176
 20
535.143392
 42
0.018710
  0
VERTEX
  8
0
 10
118.740482
 20
533.896389
 42
0.004456
  0
VERTEX
  8
0
 10
120.521420
 20
531.901115
 42
0.004576
  0
VERTEX
  8
0
 10
122.610044
 20
529.644531
 42
0.004508
  0
VERTEX
  8
0
 10
124.750000
 20
527.415131
 42
-0.004437
  0
VERTEX
  8
0
 10
126.762213
 20
525.319404
 42
-0.006877
  0
VERTEX
  8
0
 10
128.457812
 20
523.471498
 42
-0.002659
  0
VERTEX
  8
0
 10
129.874754
 20
521.866899
 42
-0.181467
  0
VERTEX
  8
0
 10
130.000000
 20
521.533170
 42
0.167400
  0
VERTEX
  8
0
 10
130.246068
 20
520.818799
 42
0.008063
  0
VERTEX
  8
0
 10
131.852132
 20
518.831001
 42
0.009690
  0
VERTEX
  8
0
 10
134.213787
 20
516.111473
 42
0.003114
  0
VERTEX
  8
0
 10
137.820711
 20
512.166710
 42
-0.004711
  0
VERTEX
  8
0
 10
139.634708
 20
510.170036
 42
-0.004007
  0
VERTEX
  8
0
 10
141.512379
 20
508.029443
 42
-0.004040
  0
VERTEX
  8
0
 10
143.190347
 20
506.053248
 42
-0.011372
  0
VERTEX
  8
0
 10
144.320711
 20
504.635651
 42
0.016173
  0
VERTEX
  8
0
 10
145.504639
 20
503.179769
 42
0.004833
  0
VERTEX
  8
0
 10
147.402021
 20
501.037055
 42
0.004841
  0
VERTEX
  8
0
 10
149.580194
 20
498.671093
 42
0.005222
  0
VERTEX
  8
0
 10
151.750000
 20
496.407390
 42
-0.004393
  0
VERTEX
  8
0
 10
153.762223
 20
494.315045
 42
-0.006814
  0
VERTEX
  8
0
 10
155.457812
 20
492.470944
 42
-0.002610
  0
VERTEX
  8
0
 10
156.875865
 20
490.869118
 42
-0.181814
  0
VERTEX
  8
0
 10
157.000000
 20
490.539023
 42
0.179152
  0
VERTEX
  8
0
 10
157.271743
 20
489.804949
 42
0.003984
  0
VERTEX
  8
0
 10
159.792123
 20
486.914155
 42
0.008290
  0
VERTEX
  8
0
 10
162.920155
 20
483.499365
 42
0.004940
  0
VERTEX
  8
0
 10
166.750000
 20
479.534338
 42
-0.006880
  0
VERTEX
  8
0
 10
168.378573
 20
477.835134
 42
-0.010251
  0
VERTEX
  8
0
 10
169.751563
 20
476.300664
 42
-0.005673
  0
VERTEX
  8
0
 10
170.857495
 20
474.982493
 42
-0.173387
  0
VERTEX
  8
0
 10
171.000000
 20
474.583903
 42
0.170531
  0
VERTEX
  8
0
 10
171.140897
 20
474.182805
 42
0.005446
  0
VERTEX
  8
0
 10
172.248437
 20
472.831313
 42
0.009964
  0
VERTEX
  8
0
 10
173.621423
 20
471.257442
 42
0.006685
  0
VERTEX
  8
0
 10
175.250000
 20
469.511495
 42
-0.003784
  0
VERTEX
  8
0
 10
179.694869
 20
464.801384
 42
-0.005811
  0
VERTEX
  8
0
 10
183.464804
 20
460.649692
 42
-0.006732
  0
VERTEX
  8
0
 10
186.580012
 20
457.041155
 42
-0.012401
  0
VERTEX
  8
0
 10
189.000000
 20
454.010911
 42
0.011539
  0
VERTEX
  8
0
 10
190.190701
 20
452.514662
 42
0.006247
  0
VERTEX
  8
0
 10
191.720313
 20
450.726909
 42
0.006219
  0
VERTEX
  8
0
 10
193.323703
 20
448.944851
 42
0.009763
  0
VERTEX
  8
0
 10
194.750000
 20
447.458060
 42
-0.009049
  0
VERTEX
  8
0
 10
195.995157
 20
446.163794
 42
-0.013036
  0
VERTEX
  8
0
 10
197.045312
 20
444.971013
 42
-0.008764
  0
VERTEX
  8
0
 10
197.868859
 20
443.949052
 42
-0.166712
  0
VERTEX
  8
0
 10
198.000000
 20
443.566667
 42
0.164911
  0
VERTEX
  8
0
 10
198.130218
 20
443.182592
 42
0.008530
  0
VERTEX
  8
0
 10
198.954688
 20
442.143681
 42
0.012786
  0
VERTEX
  8
0
 10
200.004840
 20
440.930399
 42
0.008874
  0
VERTEX
  8
0
 10
201.250000
 20
439.611821
 42
-0.009159
  0
VERTEX
  8
0
 10
202.604268
 20
438.176061
 42
-0.007720
  0
VERTEX
  8
0
 10
203.985938
 20
436.608466
 42
-0.007804
  0
VERTEX
  8
0
 10
205.202455
 20
435.138676
 42
-0.021354
  0
VERTEX
  8
0
 10
206.000000
 20
434.051883
 42
0.010675
  0
VERTEX
  8
0
 10
207.356979
 20
432.117499
 42
0.007375
  0
VERTEX
  8
0
 10
208.971009
 20
429.984772
 42
0.007316
  0
VERTEX
  8
0
 10
210.669016
 20
427.873000
 42
0.009627
  0
VERTEX
  8
0
 10
212.282506
 20
426.000000
 42
-0.014305
  0
VERTEX
  8
0
 10
213.069827
 20
425.068569
 42
-0.001867
  0
VERTEX
  8
0
 10
214.681506
 20
423.031785
 42
-0.002172
  0
VERTEX
  8
0
 10
216.574169
 20
420.599781
 42
-0.001815
  0
VERTEX
  8
0
 10
218.562923
 20
418.001820
 42
0.006311
  0
VERTEX
  8
0
 10
220.654841
 20
415.319404
 42
0.005925
  0
VERTEX
  8
0
 10
222.857546
 20
412.633153
 42
0.005907
  0
VERTEX
  8
0
 10
224.867259
 20
410.297253
 42
0.020266
  0
VERTEX
  8
0
 10
226.250000
 20
408.850611
 42
-0.019635
  0
VERTEX
  8
0
 10
227.302867
 20
407.751864
 42
-0.024131
  0
VERTEX
  8
0
 10
228.192187
 20
406.644347
 42
-0.023645
  0
VERTEX
  8
0
 10
228.836679
 20
405.662839
 42
-0.134234
  0
VERTEX
  8
0
 10
229.000000
 20
405.065457
 42
0.139739
  0
VERTEX
  8
0
 10
229.178036
 20
404.440865
 42
0.018419
  0
VERTEX
  8
0
 10
229.954688
 20
403.286403
 42
0.020209
  0
VERTEX
  8
0
 10
231.005468
 20
401.958564
 42
0.015681
  0
VERTEX
  8
0
 10
232.250000
 20
400.598895
 42
-0.008309
  0
VERTEX
  8
0
 10
235.160421
 20
397.511856
 42
-0.016145
  0
VERTEX
  8
0
 10
237.361063
 20
394.936250
 42
-0.016286
  0
VERTEX
  8
0
 10
239.378699
 20
392.238741
 42
-0.008618
  0
VERTEX
  8
0
 10
241.711475
 20
388.772632
 42
0.004670
  0
VERTEX
  8
0
 10
242.818347
 20
387.099639
 42
0.006297
  0
VERTEX
  8
0
 10
243.852825
 20
385.608211
 42
0.004414
  0
VERTEX
  8
0
 10
244.744193
 20
384.380136
 42
0.065984
  0
VERTEX
  8
0
 10
245.111661
 20
384.000000
 42
-0.110600
  0
VERTEX
  8
0
 10
246.400693
 20
382.405733
 42
-0.006726
  0
VERTEX
  8
0
 10
249.064073
 20
376.837805
 42
-0.007084
  0
VERTEX
  8
0
 10
251.562666
 20
371.220938
 42
-0.101442
  0
VERTEX
  8
0
 10
252.000000
 20
369.087534
 42
0.046237
  0
VERTEX
  8
0
 10
252.074065
 20
368.288310
 42
0.046026
  0
VERTEX
  8
0
 10
252.293750
 20
367.515027
 42
0.050014
  0
VERTEX
  8
0
 10
252.616395
 20
366.877855
 42
0.112609
  0
VERTEX
  8
0
 10
253.000000
 20
366.500000
 42
-0.229563
  0
VERTEX
  8
0
 10
253.411923
 20
365.851529
 42
-0.007969
  0
VERTEX
  8
0
 10
253.714644
 20
362.793572
 42
-0.013028
  0
VERTEX
  8
0
 10
253.930284
 20
358.993231
 42
-0.007657
  0
VERTEX
  8
0
 10
254.000000
 20
354.440983
 42
-0.006852
  0
VERTEX
  8
0
 10
253.935336
 20
349.722442
 42
-0.014945
  0
VERTEX
  8
0
 10
253.728149
 20
346.110246
 42
-0.010159
  0
VERTEX
  8
0
 10
253.433673
 20
343.381505
 42
-0.377253
  0
VERTEX
  8
0
 10
253.000000
 20
343.000000
 42
0.224533
  0
VERTEX
  8
0
 10
252.617138
 20
342.818941
 42
0.075787
  0
VERTEX
  8
0
 10
252.293750
 20
342.274560
 42
0.057655
  0
VERTEX
  8
0
 10
252.073144
 20
341.476097
 42
0.038615
  0
VERTEX
  8
0
 10
252.000000
 20
340.530416
 42
-0.100603
  0
VERTEX
  8
0
 10
251.420729
 20
337.680573
 42
-0.024724
  0
VERTEX
  8
0
 10
249.328373
 20
333.354620
 42
-0.023356
  0
VERTEX
  8
0
 10
246.293944
 20
328.367858
 42
-0.017703
  0
VERTEX
  8
0
 10
242.527078
 20
323.187910
 42
-0.026506
  0
VERTEX
  8
0
 10
239.866742
 20
320.137206
 42
-0.005121
  0
VERTEX
  8
0
 10
234.713690
 20
314.932298
 42
-0.001362
  0
VERTEX
  8
0
 10
229.037608
 20
309.345870
 42
-0.196137
  0
VERTEX
  8
0
 10
228.189820
 20
309.000000
 42
0.154065
  0
VERTEX
  8
0
 10
227.730380
 20
308.854991
 42
0.010775
  0
VERTEX
  8
0
 10
226.626855
 20
308.045313
 42
0.014469
  0
VERTEX
  8
0
 10
225.337213
 20
306.994976
 42
0.010355
  0
VERTEX
  8
0
 10
223.954780
 20
305.750000
 42
-0.012186
  0
VERTEX
  8
0
 10
222.258360
 20
304.233470
 42
-0.005528
  0
VERTEX
  8
0
 10
219.968673
 20
302.328107
 42
-0.005470
  0
VERTEX
  8
0
 10
217.508303
 20
300.370672
 42
-0.007468
  0
VERTEX
  8
0
 10
215.246442
 20
298.664831
 42
0.008111
  0
VERTEX
  8
0
 10
213.235905
 20
297.144476
 42
0.012263
  0
VERTEX
  8
0
 10
211.541142
 20
295.750846
 42
0.007044
  0
VERTEX
  8
0
 10
210.181073
 20
294.541478
 42
0.210503
  0
VERTEX
  8
0
 10
210.000000
 20
294.130439
 42
-0.204861
  0
VERTEX
  8
0
 10
209.843173
 20
293.763739
 42
-0.019327
  0
VERTEX
  8
0
 10
209.093776
 20
293.101292
 42
-0.022260
  0
VERTEX
  8
0
 10
208.096769
 20
292.357847
 42
-0.015665
  0
VERTEX
  8
0
 10
206.914981
 20
291.608850
 42
0.033150
  0
VERTEX
  8
0
 10
205.372408
 20
290.553880
 42
0.009750
  0
VERTEX
  8
0
 10
203.151922
 20
288.737539
 42
0.009744
  0
VERTEX
  8
0
 10
200.727885
 20
286.591669
 42
0.010327
  0
VERTEX
  8
0
 10
198.436720
 20
284.393242
 42
-0.009046
  0
VERTEX
  8
0
 10
196.294275
 20
282.326951
 42
-0.013037
  0
VERTEX
  8
0
 10
194.319877
 20
280.584265
 42
-0.008757
  0
VERTEX
  8
0
 10
192.628092
 20
279.217427
 42
-0.167038
  0
VERTEX
  8
0
 10
191.995423
 20
279.000000
 42
0.160302
  0
VERTEX
  8
0
 10
191.379511
 20
278.797328
 42
0.011418
  0
VERTEX
  8
0
 10
189.933360
 20
277.678125
 42
0.015160
  0
VERTEX
  8
0
 10
188.247485
 20
276.223822
 42
0.010824
  0
VERTEX
  8
0
 10
186.447368
 20
274.500000
 42
-0.007451
  0
VERTEX
  8
0
 10
184.670584
 20
272.775397
 42
-0.011002
  0
VERTEX
  8
0
 10
183.056661
 20
271.320599
 42
-0.006461
  0
VERTEX
  8
0
 10
181.671454
 20
270.157012
 42
-0.171589
  0
VERTEX
  8
0
 10
181.223684
 20
269.995655
 42
0.171009
  0
VERTEX
  8
0
 10
180.754462
 20
269.827163
 42
0.003599
  0
VERTEX
  8
0
 10
178.823646
 20
268.231362
 42
0.007928
  0
VERTEX
  8
0
 10
176.586356
 20
266.293747
 42
0.005207
  0
VERTEX
  8
0
 10
174.069579
 20
263.995655
 42
-0.006399
  0
VERTEX
  8
0
 10
171.541337
 20
261.698124
 42
-0.009556
  0
VERTEX
  8
0
 10
169.268271
 20
259.761224
 42
-0.005099
  0
VERTEX
  8
0
 10
167.316367
 20
258.194352
 42
-0.168110
  0
VERTEX
  8
0
 10
166.754655
 20
258.000000
 42
0.172664
  0
VERTEX
  8
0
 10
166.217118
 20
257.808669
 42
0.007858
  0
VERTEX
  8
0
 10
164.699368
 20
256.531250
 42
0.012345
  0
VERTEX
  8
0
 10
162.930218
 20
254.915753
 42
0.008458
  0
VERTEX
  8
0
 10
161.000000
 20
253.000000
 42
-0.010168
  0
VERTEX
  8
0
 10
159.056802
 20
251.084511
 42
-0.014448
  0
VERTEX
  8
0
 10
157.247634
 20
249.468750
 42
-0.010407
  0
VERTEX
  8
0
 10
155.695512
 20
248.215453
 42
-0.166120
  0
VERTEX
  8
0
 10
155.064924
 20
248.000000
 42
0.092795
  0
VERTEX
  8
0
 10
154.658405
 20
247.923899
 42
0.096257
  0
VERTEX
  8
0
 10
154.312821
 20
247.706250
 42
0.099269
  0
VERTEX
  8
0
 10
154.081534
 20
247.381549
 42
0.105653
  0
VERTEX
  8
0
 10
154.000000
 20
247.000000
 42
-0.103674
  0
VERTEX
  8
0
 10
153.920022
 20
246.618426
 42
-0.098920
  0
VERTEX
  8
0
 10
153.692898
 20
246.293750
 42
-0.096788
  0
VERTEX
  8
0
 10
153.353602
 20
246.076174
 42
-0.094588
  0
VERTEX
  8
0
 10
152.954545
 20
246.000000
 42
0.124523
  0
VERTEX
  8
0
 10
152.409906
 20
245.862224
 42
0.025029
  0
VERTEX
  8
0
 10
151.548097
 20
245.339063
 42
0.025015
  0
VERTEX
  8
0
 10
150.582150
 20
244.611348
 42
0.021088
  0
VERTEX
  8
0
 10
149.634720
 20
243.750000
 42
-0.013510
  0
VERTEX
  8
0
 10
148.561337
 20
242.744022
 42
-0.007507
  0
VERTEX
  8
0
 10
147.202092
 20
241.573438
 42
-0.007483
  0
VERTEX
  8
0
 10
145.789654
 20
240.428960
 42
-0.011994
  0
VERTEX
  8
0
 10
144.547233
 20
239.500000
 42
0.014113
  0
VERTEX
  8
0
 10
143.247374
 20
238.519478
 42
0.006910
  0
VERTEX
  8
0
 10
141.644835
 20
237.201391
 42
0.006849
  0
VERTEX
  8
0
 10
140.015667
 20
235.784485
 42
0.009872
  0
VERTEX
  8
0
 10
138.617059
 20
234.483458
 42
-0.012285
  0
VERTEX
  8
0
 10
137.170330
 20
233.150628
 42
-0.007323
  0
VERTEX
  8
0
 10
135.387511
 20
231.632976
 42
-0.007328
  0
VERTEX
  8
0
 10
133.565811
 20
230.172073
 42
-0.012578
  0
VERTEX
  8
0
 10
132.000000
 20
229.015685
 42
0.017446
  0
VERTEX
  8
0
 10
130.396926
 20
227.807485
 42
0.008698
  0
VERTEX
  8
0
 10
128.449593
 20
226.173474
 42
0.008623
  0
VERTEX
  8
0
 10
126.489304
 20
224.409363
 42
0.012556
  0
VERTEX
  8
0
 10
124.828401
 20
222.782227
 42
-0.013612
  0
VERTEX
  8
0
 10
123.343482
 20
221.333631
 42
-0.018337
  0
VERTEX
  8
0
 10
121.918553
 20
220.111029
 42
-0.015566
  0
VERTEX
  8
0
 10
120.687287
 20
219.191757
 42
-0.153744
  0
VERTEX
  8
0
 10
120.078401
 20
219.000000
 42
0.091591
  0
VERTEX
  8
0
 10
119.666715
 20
218.923949
 42
0.095880
  0
VERTEX
  8
0
 10
119.316780
 20
218.706250
 42
0.099487
  0
VERTEX
  8
0
 10
119.082610
 20
218.381532
 42
0.107021
  0
VERTEX
  8
0
 10
119.000000
 20
218.000000
 42
-0.140362
  0
VERTEX
  8
0
 10
118.890798
 20
217.618662
 42
-0.099913
  0
VERTEX
  8
0
 10
118.583854
 20
217.293750
 42
-0.085122
  0
VERTEX
  8
0
 10
118.124800
 20
217.074923
 42
-0.068857
  0
VERTEX
  8
0
 10
117.583333
 20
217.000000
 42
0.057458
  0
VERTEX
  8
0
 10
117.016775
 20
216.934678
 42
0.058880
  0
VERTEX
  8
0
 10
116.484896
 20
216.742211
 42
0.065125
  0
VERTEX
  8
0
 10
116.065293
 20
216.458280
 42
0.121299
  0
VERTEX
  8
0
 10
115.833333
 20
216.122419
 42
-0.136672
  0
VERTEX
  8
0
 10
115.464720
 20
215.621776
 42
-0.006213
  0
VERTEX
  8
0
 10
113.755724
 20
214.317059
 42
-0.009991
  0
VERTEX
  8
0
 10
111.655623
 20
212.818916
 42
-0.006956
  0
VERTEX
  8
0
 10
109.228707
 20
211.208861
 42
-0.033022
  0
VERTEX
  8
0
 10
103.422395
 20
207.992856
 42
-0.027686
  0
VERTEX
  8
0
 10
96.895492
 20
205.352258
 42
-0.028636
  0
VERTEX
  8
0
 10
90.512196
 20
203.573071
 42
-0.053694
  0
VERTEX
  8
0
 10
85.191122
 20
203.000000
 42
-0.062868
  0
VERTEX
  8
0
 10
80.970802
 20
203.532748
 42
-0.049054
  0
VERTEX
  8
0
 10
76.624471
 20
205.115189
 42
-0.051243
  0
VERTEX
  8
0
 10
72.959412
 20
207.360211
 42
-0.111372
  0
VERTEX
  8
0
 10
70.852746
 20
209.876738
 42
0.006893
  0
VERTEX
  8
0
 10
70.298883
 20
210.917797
 42
0.008394
  0
VERTEX
  8
0
 10
69.750711
 20
211.876292
 42
0.007228
  0
VERTEX
  8
0
 10
69.265913
 20
212.665687
 42
0.056829
  0
VERTEX
  8
0
 10
68.996261
 20
213.000000
 42
-0.112194
  0
VERTEX
  8
0
 10
68.207436
 20
214.233871
 42
-0.012313
  0
VERTEX
  8
0
 10
67.140893
 20
217.444275
 42
-0.015219
  0
VERTEX
  8
0
 10
66.247317
 20
220.728091
 42
-0.058880
  0
VERTEX
  8
0
 10
66.000000
 20
222.820998
 42
0.043943
  0
VERTEX
  8
0
 10
65.926549
 20
223.655135
 42
0.063734
  0
VERTEX
  8
0
 10
65.706250
 20
224.359918
 42
0.083503
  0
VERTEX
  8
0
 10
65.382214
 20
224.836754
 42
0.204612
  0
VERTEX
  8
0
 10
65.000000
 20
225.000000
 42
-0.343124
  0
VERTEX
  8
0
 10
64.601601
 20
225.309885
 42
-0.022813
  0
VERTEX
  8
0
 10
64.289683
 20
226.825000
 42
-0.024911
  0
VERTEX
  8
0
 10
64.070771
 20
228.851551
 42
-0.014449
  0
VERTEX
  8
0
 10
64.000000
 20
231.300000
 42
0.014376
  0
VERTEX
  8
0
 10
63.928561
 20
233.784167
 42
0.019024
  0
VERTEX
  8
0
 10
63.712695
 20
236.036680
 42
0.016648
  0
VERTEX
  8
0
 10
63.404676
 20
237.865289
 42
0.147360
  0
VERTEX
  8
0
 10
63.021939
 20
238.578061
 42
-0.188917
  0
VERTEX
  8
0
 10
62.581753
 20
239.585423
 42
-0.000973
  0
VERTEX
  8
0
 10
62.176786
 20
250.649758
 42
-0.003829
  0
VERTEX
  8
0
 10
61.816933
 20
263.983979
 42
-0.001859
  0
VERTEX
  8
0
 10
61.550956
 20
281.028061
 42
0.001437
  0
VERTEX
  8
0
 10
61.055942
 20
314.564918
 42
0.001193
  0
VERTEX
  8
0
 10
60.341521
 20
350.246182
 42
0.001005
  0
VERTEX
  8
0
 10
59.335987
 20
391.419929
 42
0.000547
  0
VERTEX
  8
0
 10
57.943619
 20
442.000000
 42
-0.002481
  0
VERTEX
  8
0
 10
56.818609
 20
489.556863
 42
-0.007459
  0
VERTEX
  8
0
 10
56.696156
 20
522.027922
 42
-0.003811
  0
VERTEX
  8
0
 10
57.148392
 20
546.119357
 42
-0.252901
  0
VERTEX
  8
0
 10
59.142929
 20
549.588335
 42
0.159484
  0
VERTEX
  8
0
 10
59.474333
 20
549.981061
 42
0.035643
  0
VERTEX
  8
0
 10
59.748235
 20
550.826349
 42
0.033553
  0
VERTEX
  8
0
 10
59.937076
 20
551.894259
 42
0.026992
  0
VERTEX
  8
0
 10
60.000000
 20
553.059017
 42
-0.032276
  0
VERTEX
  8
0
 10
60.072800
 20
554.185620
 42
-0.049716
  0
VERTEX
  8
0
 10
60.293750
 20
555.136086
 42
-0.064068
  0
VERTEX
  8
0
 10
60.615903
 20
555.793368
 42
-0.251914
  0
VERTEX
  8
0
 10
61.000000
 20
556.000000
 42
0.191087
  0
VERTEX
  8
0
 10
61.381882
 20
556.151477
 42
0.088204
  0
VERTEX
  8
0
 10
61.706250
 20
556.587500
 42
0.068025
  0
VERTEX
  8
0
 10
61.926307
 20
557.234582
 42
0.048028
  0
VERTEX
  8
0
 10
62.000000
 20
558.000000
 42
-0.048028
  0
VERTEX
  8
0
 10
62.073693
 20
558.765418
 42
-0.068025
  0
VERTEX
  8
0
 10
62.293750
 20
559.412500
 42
-0.088204
  0
VERTEX
  8
0
 10
62.618118
 20
559.848523
 42
-0.191087
  0
VERTEX
  8
0
 10
63.000000
 20
560.000000
 42
0.154765
  0
VERTEX
  8
0
 10
63.381386
 20
560.120948
 42
0.097780
  0
VERTEX
  8
0
 10
63.706250
 20
560.461607
 42
0.080164
  0
VERTEX
  8
0
 10
63.925485
 20
560.970550
 42
0.061768
  0
VERTEX
  8
0
 10
64.000000
 20
561.571429
 42
-0.132385
  0
VERTEX
  8
0
 10
64.422354
 20
563.138650
 42
-0.069537
  0
VERTEX
  8
0
 10
65.677150
 20
564.737777
 42
-0.050316
  0
VERTEX
  8
0
 10
67.773132
 20
566.384968
 42
-0.023408
  0
VERTEX
  8
0
 10
70.780033
 20
568.101488
 42
-0.057469
  0
VERTEX
  8
0
 10
73.761384
 20
569.213813
 42
-0.072832
  0
VERTEX
  8
0
 10
76.684298
 20
569.497874
 42
-0.065960
  0
VERTEX
  8
0
 10
79.785318
 20
568.932761
 42
-0.037706
  0
SEQEND
  0
ENDSEC
  0
EOF
