999
DXF data, created by potrace 1.11, written by Peter Selinger 2001-2013
  0
SECTION
  2
HEADER
  9
$ACADVER
  1
AC1006
  9
$EXTMIN
 10
0.000000
 20
0.000000
 30
0.000000
  9
$EXTMAX
 10
485.000000
 20
1938.000000
 30
0.000000
  0
ENDSEC
  0
SECTION
  2
ENTITIES
  0
POLYLINE
  8
0
 66
1
 70
1
  0
VERTEX
  8
0
 10
0.000000
 20
969.000000
 42
0.000000
  0
VERTEX
  8
0
 10
0.000000
 20
25.000000
 42
0.000000
  0
VERTEX
  8
0
 10
6.000000
 20
25.000000
 42
0.015416
  0
VERTEX
  8
0
 10
8.316313
 20
25.071434
 42
0.025878
  0
VERTEX
  8
0
 10
10.250000
 20
25.291667
 42
0.024068
  0
VERTEX
  8
0
 10
11.696775
 20
25.604992
 42
0.339565
  0
VERTEX
  8
0
 10
12.000000
 20
26.000000
 42
-0.275259
  0
VERTEX
  8
0
 10
12.229636
 20
26.385522
 42
-0.053437
  0
VERTEX
  8
0
 10
13.010789
 20
26.706250
 42
-0.043243
  0
VERTEX
  8
0
 10
14.122516
 20
26.927436
 42
-0.027497
  0
VERTEX
  8
0
 10
15.440983
 20
27.000000
 42
0.026918
  0
VERTEX
  8
0
 10
16.803639
 20
27.073414
 42
0.033489
  0
VERTEX
  8
0
 10
18.052725
 20
27.293750
 42
0.035556
  0
VERTEX
  8
0
 10
19.041340
 20
27.613307
 42
0.159713
  0
VERTEX
  8
0
 10
19.500000
 20
28.000000
 42
-0.130646
  0
VERTEX
  8
0
 10
19.906663
 20
28.384508
 42
-0.045439
  0
VERTEX
  8
0
 10
20.653525
 20
28.706250
 42
-0.041396
  0
VERTEX
  8
0
 10
21.579340
 20
28.926158
 42
-0.037634
  0
VERTEX
  8
0
 10
22.559017
 20
29.000000
 42
0.039081
  0
VERTEX
  8
0
 10
23.493720
 20
29.073170
 42
0.058208
  0
VERTEX
  8
0
 10
24.282961
 20
29.293750
 42
0.076538
  0
VERTEX
  8
0
 10
24.820624
 20
29.617207
 42
0.222681
  0
VERTEX
  8
0
 10
25.000000
 20
30.000000
 42
-0.254951
  0
VERTEX
  8
0
 10
25.209557
 20
30.384262
 42
-0.062710
  0
VERTEX
  8
0
 10
25.881250
 20
30.706250
 42
-0.048861
  0
VERTEX
  8
0
 10
26.850749
 20
30.927234
 42
-0.031626
  0
VERTEX
  8
0
 10
28.000000
 20
31.000000
 42
0.031626
  0
VERTEX
  8
0
 10
29.149251
 20
31.072766
 42
0.048861
  0
VERTEX
  8
0
 10
30.118750
 20
31.293750
 42
0.062710
  0
VERTEX
  8
0
 10
30.790443
 20
31.615738
 42
0.254951
  0
VERTEX
  8
0
 10
31.000000
 20
32.000000
 42
-0.191087
  0
VERTEX
  8
0
 10
31.151477
 20
32.381882
 42
-0.088204
  0
VERTEX
  8
0
 10
31.587500
 20
32.706250
 42
-0.068025
  0
VERTEX
  8
0
 10
32.234582
 20
32.926307
 42
-0.048028
  0
VERTEX
  8
0
 10
33.000000
 20
33.000000
 42
0.048028
  0
VERTEX
  8
0
 10
33.765418
 20
33.073693
 42
0.068025
  0
VERTEX
  8
0
 10
34.412500
 20
33.293750
 42
0.088204
  0
VERTEX
  8
0
 10
34.848523
 20
33.618118
 42
0.191087
  0
VERTEX
  8
0
 10
35.000000
 20
34.000000
 42
-0.191087
  0
VERTEX
  8
0
 10
35.151477
 20
34.381882
 42
-0.088204
  0
VERTEX
  8
0
 10
35.587500
 20
34.706250
 42
-0.068025
  0
VERTEX
  8
0
 10
36.234582
 20
34.926307
 42
-0.048028
  0
VERTEX
  8
0
 10
37.000000
 20
35.000000
 42
0.048028
  0
VERTEX
  8
0
 10
37.765418
 20
35.073693
 42
0.068025
  0
VERTEX
  8
0
 10
38.412500
 20
35.293750
 42
0.088204
  0
VERTEX
  8
0
 10
38.848523
 20
35.618118
 42
0.191087
  0
VERTEX
  8
0
 10
39.000000
 20
36.000000
 42
-0.191087
  0
VERTEX
  8
0
 10
39.151477
 20
36.381882
 42
-0.088204
  0
VERTEX
  8
0
 10
39.587500
 20
36.706250
 42
-0.068025
  0
VERTEX
  8
0
 10
40.234582
 20
36.926307
 42
-0.048028
  0
VERTEX
  8
0
 10
41.000000
 20
37.000000
 42
0.048028
  0
VERTEX
  8
0
 10
41.765418
 20
37.073693
 42
0.068025
  0
VERTEX
  8
0
 10
42.412500
 20
37.293750
 42
0.088204
  0
VERTEX
  8
0
 10
42.848523
 20
37.618118
 42
0.191087
  0
VERTEX
  8
0
 10
43.000000
 20
38.000000
 42
-0.191087
  0
VERTEX
  8
0
 10
43.151477
 20
38.381882
 42
-0.088204
  0
VERTEX
  8
0
 10
43.587500
 20
38.706250
 42
-0.068025
  0
VERTEX
  8
0
 10
44.234582
 20
38.926307
 42
-0.048028
  0
VERTEX
  8
0
 10
45.000000
 20
39.000000
 42
0.048028
  0
VERTEX
  8
0
 10
45.765418
 20
39.073693
 42
0.068025
  0
VERTEX
  8
0
 10
46.412500
 20
39.293750
 42
0.088204
  0
VERTEX
  8
0
 10
46.848523
 20
39.618118
 42
0.191087
  0
VERTEX
  8
0
 10
47.000000
 20
40.000000
 42
-0.191087
  0
VERTEX
  8
0
 10
47.151477
 20
40.381882
 42
-0.088204
  0
VERTEX
  8
0
 10
47.587500
 20
40.706250
 42
-0.068025
  0
VERTEX
  8
0
 10
48.234582
 20
40.926307
 42
-0.048028
  0
VERTEX
  8
0
 10
49.000000
 20
41.000000
 42
0.045771
  0
VERTEX
  8
0
 10
49.765527
 20
41.070226
 42
0.065694
  0
VERTEX
  8
0
 10
50.412500
 20
41.280439
 42
0.085730
  0
VERTEX
  8
0
 10
50.849357
 20
41.589948
 42
0.198381
  0
VERTEX
  8
0
 10
51.000000
 20
41.954687
 42
-0.248969
  0
VERTEX
  8
0
 10
51.217999
 20
42.365354
 42
-0.040853
  0
VERTEX
  8
0
 10
52.028125
 20
42.821812
 42
-0.036741
  0
VERTEX
  8
0
 10
53.159217
 20
43.244969
 42
-0.024780
  0
VERTEX
  8
0
 10
54.500000
 20
43.565978
 42
0.023055
  0
VERTEX
  8
0
 10
55.840903
 20
43.882132
 42
0.034546
  0
VERTEX
  8
0
 10
56.971875
 20
44.290763
 42
0.037322
  0
VERTEX
  8
0
 10
57.788462
 20
44.726727
 42
0.256887
  0
VERTEX
  8
0
 10
58.000000
 20
45.111291
 42
-0.166505
  0
VERTEX
  8
0
 10
58.116119
 20
45.450321
 42
-0.095263
  0
VERTEX
  8
0
 10
58.444611
 20
45.738942
 42
-0.076157
  0
VERTEX
  8
0
 10
58.934634
 20
45.934041
 42
-0.056782
  0
VERTEX
  8
0
 10
59.513569
 20
46.000000
 42
0.048334
  0
VERTEX
  8
0
 10
60.217545
 20
46.068212
 42
0.023747
  0
VERTEX
  8
0
 10
61.092603
 20
46.282977
 42
0.023311
  0
VERTEX
  8
0
 10
61.987939
 20
46.594433
 42
0.031289
  0
VERTEX
  8
0
 10
62.763569
 20
46.963326
 42
-0.015991
  0
VERTEX
  8
0
 10
65.970810
 20
48.610781
 42
-0.010722
  0
VERTEX
  8
0
 10
69.733693
 20
50.296147
 42
-0.007198
  0
VERTEX
  8
0
 10
73.287535
 20
51.737322
 42
-0.092983
  0
VERTEX
  8
0
 10
74.687829
 20
52.000000
 42
0.074616
  0
VERTEX
  8
0
 10
75.189190
 20
52.075238
 42
0.088552
  0
VERTEX
  8
0
 10
75.614550
 20
52.293750
 42
0.100665
  0
VERTEX
  8
0
 10
75.898901
 20
52.618647
 42
0.130303
  0
VERTEX
  8
0
 10
76.000000
 20
53.000000
 42
-0.186414
  0
VERTEX
  8
0
 10
76.147465
 20
53.381787
 42
-0.089706
  0
VERTEX
  8
0
 10
76.570164
 20
53.706250
 42
-0.069539
  0
VERTEX
  8
0
 10
77.198222
 20
53.926216
 42
-0.049547
  0
VERTEX
  8
0
 10
77.940983
 20
54.000000
 42
0.046881
  0
VERTEX
  8
0
 10
78.729296
 20
54.074077
 42
0.046318
  0
VERTEX
  8
0
 10
79.493350
 20
54.293750
 42
0.050262
  0
VERTEX
  8
0
 10
80.123976
 20
54.616444
 42
0.111412
  0
VERTEX
  8
0
 10
80.500000
 20
55.000000
 42
-0.111412
  0
VERTEX
  8
0
 10
80.876024
 20
55.383556
 42
-0.050262
  0
VERTEX
  8
0
 10
81.506650
 20
55.706250
 42
-0.046318
  0
VERTEX
  8
0
 10
82.270704
 20
55.925923
 42
-0.046881
  0
VERTEX
  8
0
 10
83.059017
 20
56.000000
 42
0.049547
  0
VERTEX
  8
0
 10
83.801778
 20
56.073784
 42
0.069539
  0
VERTEX
  8
0
 10
84.429836
 20
56.293750
 42
0.089706
  0
VERTEX
  8
0
 10
84.852535
 20
56.618213
 42
0.186414
  0
VERTEX
  8
0
 10
85.000000
 20
57.000000
 42
-0.129178
  0
VERTEX
  8
0
 10
85.100198
 20
57.381357
 42
-0.100706
  0
VERTEX
  8
0
 10
85.382062
 20
57.706250
 42
-0.088930
  0
VERTEX
  8
0
 10
85.803702
 20
57.924725
 42
-0.075310
  0
VERTEX
  8
0
 10
86.300635
 20
58.000000
 42
0.086680
  0
VERTEX
  8
0
 10
87.968163
 20
58.291272
 42
0.026575
  0
VERTEX
  8
0
 10
90.332808
 20
59.288226
 42
0.020084
  0
VERTEX
  8
0
 10
92.543235
 20
60.473759
 42
0.262796
  0
VERTEX
  8
0
 10
92.992198
 20
61.250000
 42
-0.268668
  0
VERTEX
  8
0
 10
93.163581
 20
61.538955
 42
-0.055034
  0
VERTEX
  8
0
 10
93.732083
 20
61.779688
 42
-0.044293
  0
VERTEX
  8
0
 10
94.541584
 20
61.945529
 42
-0.028394
  0
VERTEX
  8
0
 10
95.500000
 20
62.000000
 42
0.038131
  0
VERTEX
  8
0
 10
96.457356
 20
62.073116
 42
0.057076
  0
VERTEX
  8
0
 10
97.265625
 20
62.293750
 42
0.074992
  0
VERTEX
  8
0
 10
97.817169
 20
62.617064
 42
0.226478
  0
VERTEX
  8
0
 10
98.000000
 20
63.000000
 42
-0.191087
  0
VERTEX
  8
0
 10
98.151477
 20
63.381882
 42
-0.088204
  0
VERTEX
  8
0
 10
98.587500
 20
63.706250
 42
-0.068025
  0
VERTEX
  8
0
 10
99.234582
 20
63.926307
 42
-0.048028
  0
VERTEX
  8
0
 10
100.000000
 20
64.000000
 42
0.048028
  0
VERTEX
  8
0
 10
100.765418
 20
64.073693
 42
0.068025
  0
VERTEX
  8
0
 10
101.412500
 20
64.293750
 42
0.088204
  0
VERTEX
  8
0
 10
101.848523
 20
64.618118
 42
0.191087
  0
VERTEX
  8
0
 10
102.000000
 20
65.000000
 42
-0.226478
  0
VERTEX
  8
0
 10
102.182831
 20
65.382936
 42
-0.074992
  0
VERTEX
  8
0
 10
102.734375
 20
65.706250
 42
-0.057076
  0
VERTEX
  8
0
 10
103.542644
 20
65.926884
 42
-0.038131
  0
VERTEX
  8
0
 10
104.500000
 20
66.000000
 42
0.028394
  0
VERTEX
  8
0
 10
105.458416
 20
66.054471
 42
0.044293
  0
VERTEX
  8
0
 10
106.267917
 20
66.220313
 42
0.055034
  0
VERTEX
  8
0
 10
106.836419
 20
66.461045
 42
0.268668
  0
VERTEX
  8
0
 10
107.007802
 20
66.750000
 42
-0.187502
  0
VERTEX
  8
0
 10
107.150535
 20
67.106218
 42
-0.035743
  0
VERTEX
  8
0
 10
107.671958
 20
67.589584
 42
-0.033701
  0
VERTEX
  8
0
 10
108.398680
 20
68.096108
 42
-0.025395
  0
VERTEX
  8
0
 10
109.257802
 20
68.554965
 42
0.012855
  0
VERTEX
  8
0
 10
114.482451
 20
71.179291
 42
0.004742
  0
VERTEX
  8
0
 10
121.716085
 20
75.137399
 42
0.002270
  0
VERTEX
  8
0
 10
129.001265
 20
79.257502
 42
0.066638
  0
VERTEX
  8
0
 10
130.691413
 20
80.548556
 42
-0.040559
  0
VERTEX
  8
0
 10
131.340792
 20
81.100338
 42
-0.022683
  0
VERTEX
  8
0
 10
132.209725
 20
81.667020
 42
-0.022503
  0
VERTEX
  8
0
 10
133.145990
 20
82.163453
 42
-0.033814
  0
VERTEX
  8
0
 10
134.005920
 20
82.501879
 42
0.039827
  0
VERTEX
  8
0
 10
134.769047
 20
82.812842
 42
0.049797
  0
VERTEX
  8
0
 10
135.414239
 20
83.222817
 42
0.058203
  0
VERTEX
  8
0
 10
135.859183
 20
83.664615
 42
0.169771
  0
VERTEX
  8
0
 10
136.000000
 20
84.067388
 42
-0.132988
  0
VERTEX
  8
0
 10
136.096323
 20
84.423132
 42
-0.100417
  0
VERTEX
  8
0
 10
136.367188
 20
84.726404
 42
-0.087549
  0
VERTEX
  8
0
 10
136.772349
 20
84.930669
 42
-0.072964
  0
VERTEX
  8
0
 10
137.250000
 20
85.001221
 42
0.106617
  0
VERTEX
  8
0
 10
137.900647
 20
85.142222
 42
0.023922
  0
VERTEX
  8
0
 10
138.915945
 20
85.662663
 42
0.023768
  0
VERTEX
  8
0
 10
140.053604
 20
86.390323
 42
0.021040
  0
VERTEX
  8
0
 10
141.165982
 20
87.251221
 42
-0.000317
  0
VERTEX
  8
0
 10
142.339642
 20
88.239940
 42
-0.000222
  0
VERTEX
  8
0
 10
143.664371
 20
89.353484
 42
-0.000223
  0
VERTEX
  8
0
 10
144.935262
 20
90.419844
 42
-0.000465
  0
VERTEX
  8
0
 10
145.927413
 20
91.250000
 42
-0.021146
  0
VERTEX
  8
0
 10
146.802184
 20
91.919877
 42
-0.023779
  0
VERTEX
  8
0
 10
147.697716
 20
92.485937
 42
-0.023964
  0
VERTEX
  8
0
 10
148.497398
 20
92.890357
 42
-0.105463
  0
VERTEX
  8
0
 10
149.011431
 20
93.000000
 42
0.100219
  0
VERTEX
  8
0
 10
149.388690
 20
93.076384
 42
0.098215
  0
VERTEX
  8
0
 10
149.709608
 20
93.293750
 42
0.097662
  0
VERTEX
  8
0
 10
149.924573
 20
93.618345
 42
0.097870
  0
VERTEX
  8
0
 10
150.000000
 20
94.000000
 42
-0.112508
  0
VERTEX
  8
0
 10
150.086938
 20
94.381472
 42
-0.100182
  0
VERTEX
  8
0
 10
150.332732
 20
94.706250
 42
-0.094286
  0
VERTEX
  8
0
 10
150.700197
 20
94.924148
 42
-0.087025
  0
VERTEX
  8
0
 10
151.132705
 20
95.000000
 42
0.108391
  0
VERTEX
  8
0
 10
151.678340
 20
95.119691
 42
0.035025
  0
VERTEX
  8
0
 10
152.407758
 20
95.519976
 42
0.033041
  0
VERTEX
  8
0
 10
153.180259
 20
96.092714
 42
0.031623
  0
VERTEX
  8
0
 10
153.882705
 20
96.770130
 42
-0.025731
  0
VERTEX
  8
0
 10
155.657811
 20
98.522786
 42
-0.009549
  0
VERTEX
  8
0
 10
158.323997
 20
100.807436
 42
-0.009288
  0
VERTEX
  8
0
 10
161.385571
 20
103.237026
 42
-0.009885
  0
VERTEX
  8
0
 10
164.473271
 20
105.500000
 42
0.040355
  0
VERTEX
  8
0
 10
166.515712
 20
107.197282
 42
0.000370
  0
VERTEX
  8
0
 10
180.627743
 20
121.012500
 42
0.001259
  0
VERTEX
  8
0
 10
196.809974
 20
136.958007
 42
0.000814
  0
VERTEX
  8
0
 10
215.471851
 20
155.500000
 42
-0.000760
  0
VERTEX
  8
0
 10
234.164860
 20
174.076903
 42
-0.001160
  0
VERTEX
  8
0
 10
250.447263
 20
190.134375
 42
-0.000397
  0
VERTEX
  8
0
 10
264.557900
 20
203.963683
 42
-0.031275
  0
VERTEX
  8
0
 10
266.917418
 20
206.000000
 42
0.017850
  0
VERTEX
  8
0
 10
268.670304
 20
207.432547
 42
0.004142
  0
VERTEX
  8
0
 10
271.509154
 20
209.968750
 42
0.004270
  0
VERTEX
  8
0
 10
274.730176
 20
212.945313
 42
0.004169
  0
VERTEX
  8
0
 10
277.925811
 20
216.000000
 42
-0.003423
  0
VERTEX
  8
0
 10
281.449951
 20
219.378779
 42
-0.002042
  0
VERTEX
  8
0
 10
285.687021
 20
223.353125
 42
-0.002044
  0
VERTEX
  8
0
 10
289.940475
 20
227.278001
 42
-0.003540
  0
VERTEX
  8
0
 10
293.511404
 20
230.500000
 42
0.002691
  0
VERTEX
  8
0
 10
296.838259
 20
233.491550
 42
0.002271
  0
VERTEX
  8
0
 10
300.327365
 20
236.692187
 42
0.002290
  0
VERTEX
  8
0
 10
303.483577
 20
239.640921
 42
0.006373
  0
VERTEX
  8
0
 10
305.664071
 20
241.750000
 42
-0.006097
  0
VERTEX
  8
0
 10
307.346057
 20
243.378693
 42
-0.009207
  0
VERTEX
  8
0
 10
308.853547
 20
244.751562
 42
-0.004622
  0
VERTEX
  8
0
 10
310.152168
 20
245.870109
 42
-0.177271
  0
VERTEX
  8
0
 10
310.507018
 20
246.000000
 42
0.169182
  0
VERTEX
  8
0
 10
310.851799
 20
246.120099
 42
0.007077
  0
VERTEX
  8
0
 10
311.874341
 20
246.954687
 42
0.011544
  0
VERTEX
  8
0
 10
313.067283
 20
248.004732
 42
0.007879
  0
VERTEX
  8
0
 10
314.375844
 20
249.250000
 42
-0.008053
  0
VERTEX
  8
0
 10
315.948271
 20
250.745326
 42
-0.004118
  0
VERTEX
  8
0
 10
317.966828
 20
252.573437
 42
-0.004090
  0
VERTEX
  8
0
 10
320.078045
 20
254.423299
 42
-0.006135
  0
VERTEX
  8
0
 10
321.953539
 20
256.000000
 42
0.003466
  0
VERTEX
  8
0
 10
328.970011
 20
261.835007
 42
0.004592
  0
VERTEX
  8
0
 10
335.270350
 20
267.248558
 42
0.005078
  0
VERTEX
  8
0
 10
340.845083
 20
272.229233
 42
0.007353
  0
VERTEX
  8
0
 10
345.658665
 20
276.750000
 42
-0.005388
  0
VERTEX
  8
0
 10
347.379341
 20
278.378780
 42
-0.008213
  0
VERTEX
  8
0
 10
348.910949
 20
279.751563
 42
-0.003762
  0
VERTEX
  8
0
 10
350.233307
 20
280.880871
 42
-0.176627
  0
VERTEX
  8
0
 10
350.560019
 20
281.000000
 42
0.163801
  0
VERTEX
  8
0
 10
350.872182
 20
281.105085
 42
0.007507
  0
VERTEX
  8
0
 10
351.769369
 20
281.807812
 42
0.011832
  0
VERTEX
  8
0
 10
352.817623
 20
282.696357
 42
0.008145
  0
VERTEX
  8
0
 10
353.964452
 20
283.750000
 42
-0.003094
  0
VERTEX
  8
0
 10
355.587288
 20
285.271484
 42
-0.000660
  0
VERTEX
  8
0
 10
358.428355
 20
287.895312
 42
-0.000690
  0
VERTEX
  8
0
 10
361.728826
 20
290.926949
 42
-0.000657
  0
VERTEX
  8
0
 10
365.092525
 20
294.000000
 42
0.002234
  0
VERTEX
  8
0
 10
368.396973
 20
297.038106
 42
0.002579
  0
VERTEX
  8
0
 10
371.519104
 20
299.964548
 42
0.002309
  0
VERTEX
  8
0
 10
374.139678
 20
302.469435
 42
0.015070
  0
VERTEX
  8
0
 10
375.411776
 20
303.772928
 42
-0.003293
  0
VERTEX
  8
0
 10
376.549679
 20
304.995222
 42
-0.000818
  0
VERTEX
  8
0
 10
378.428772
 20
306.980688
 42
-0.000836
  0
VERTEX
  8
0
 10
380.586880
 20
309.245901
 42
-0.000839
  0
VERTEX
  8
0
 10
382.750000
 20
311.501189
 42
0.008712
  0
VERTEX
  8
0
 10
384.761420
 20
313.665515
 42
0.012559
  0
VERTEX
  8
0
 10
386.457812
 20
315.654154
 42
0.008313
  0
VERTEX
  8
0
 10
387.791122
 20
317.356179
 42
0.163404
  0
VERTEX
  8
0
 10
388.000000
 20
317.978261
 42
-0.079879
  0
VERTEX
  8
0
 10
388.062751
 20
318.368539
 42
-0.091247
  0
VERTEX
  8
0
 10
388.244112
 20
318.699864
 42
-0.100757
  0
VERTEX
  8
0
 10
388.514075
 20
318.921379
 42
-0.122178
  0
VERTEX
  8
0
 10
388.831020
 20
319.000000
 42
0.182479
  0
VERTEX
  8
0
 10
389.234774
 20
319.152429
 42
0.033247
  0
VERTEX
  8
0
 10
389.808349
 20
319.729507
 42
0.031932
  0
VERTEX
  8
0
 10
390.421381
 20
320.532504
 42
0.024205
  0
VERTEX
  8
0
 10
390.991132
 20
321.483430
 42
-0.041992
  0
VERTEX
  8
0
 10
391.635403
 20
322.476885
 42
-0.035620
  0
VERTEX
  8
0
 10
392.470270
 20
323.408890
 42
-0.037127
  0
VERTEX
  8
0
 10
393.359552
 20
324.150185
 42
-0.078495
  0
VERTEX
  8
0
 10
394.160112
 20
324.550817
 42
0.065927
  0
VERTEX
  8
0
 10
394.863497
 20
324.881095
 42
0.065222
  0
VERTEX
  8
0
 10
395.459533
 20
325.384068
 42
0.070972
  0
VERTEX
  8
0
 10
395.862732
 20
325.976076
 42
0.114547
  0
VERTEX
  8
0
 10
396.000000
 20
326.567388
 42
-0.068054
  0
VERTEX
  8
0
 10
396.074877
 20
327.114976
 42
-0.084602
  0
VERTEX
  8
0
 10
396.293750
 20
327.579170
 42
-0.099744
  0
VERTEX
  8
0
 10
396.618660
 20
327.889573
 42
-0.141874
  0
VERTEX
  8
0
 10
397.000000
 20
328.000000
 42
0.109085
  0
VERTEX
  8
0
 10
397.381509
 20
328.084236
 42
0.099782
  0
VERTEX
  8
0
 10
397.706250
 20
328.322770
 42
0.095294
  0
VERTEX
  8
0
 10
397.924024
 20
328.679287
 42
0.089824
  0
VERTEX
  8
0
 10
398.000000
 20
329.098790
 42
-0.143035
  0
VERTEX
  8
0
 10
398.171812
 20
329.687098
 42
-0.021819
  0
VERTEX
  8
0
 10
398.881250
 20
330.698022
 42
-0.022916
  0
VERTEX
  8
0
 10
399.851293
 20
331.846499
 42
-0.018062
  0
VERTEX
  8
0
 10
401.000000
 20
333.000000
 42
0.015666
  0
VERTEX
  8
0
 10
402.148876
 20
334.142668
 42
0.020606
  0
VERTEX
  8
0
 10
403.118750
 20
335.258411
 42
0.018565
  0
VERTEX
  8
0
 10
403.838390
 20
336.230556
 42
0.151164
  0
VERTEX
  8
0
 10
404.000000
 20
336.752896
 42
-0.143114
  0
VERTEX
  8
0
 10
404.156589
 20
337.288766
 42
-0.016075
  0
VERTEX
  8
0
 10
404.881250
 20
338.346313
 42
-0.018464
  0
VERTEX
  8
0
 10
405.851089
 20
339.570930
 42
-0.013998
  0
VERTEX
  8
0
 10
407.000000
 20
340.842584
 42
0.020798
  0
VERTEX
  8
0
 10
408.148457
 20
342.149016
 42
0.024540
  0
VERTEX
  8
0
 10
409.118750
 20
343.478473
 42
0.024506
  0
VERTEX
  8
0
 10
409.816337
 20
344.662536
 42
0.121441
  0
VERTEX
  8
0
 10
410.000000
 20
345.407565
 42
-0.056999
  0
VERTEX
  8
0
 10
410.065195
 20
345.977607
 42
-0.058641
  0
VERTEX
  8
0
 10
410.257334
 20
346.512431
 42
-0.064953
  0
VERTEX
  8
0
 10
410.540747
 20
346.934099
 42
-0.122030
  0
VERTEX
  8
0
 10
410.876032
 20
347.166667
 42
0.156929
  0
VERTEX
  8
0
 10
412.107219
 20
348.151948
 42
0.003381
  0
VERTEX
  8
0
 10
416.375453
 20
354.697887
 42
0.003675
  0
VERTEX
  8
0
 10
420.525332
 20
361.262979
 42
0.139991
  0
VERTEX
  8
0
 10
421.000000
 20
362.925106
 42
-0.091902
  0
VERTEX
  8
0
 10
421.076064
 20
363.335447
 42
-0.095979
  0
VERTEX
  8
0
 10
421.293750
 20
363.684250
 42
-0.099432
  0
VERTEX
  8
0
 10
421.618463
 20
363.917670
 42
-0.106665
  0
VERTEX
  8
0
 10
422.000000
 20
364.000000
 42
0.191087
  0
VERTEX
  8
0
 10
422.381882
 20
364.151477
 42
0.088204
  0
VERTEX
  8
0
 10
422.706250
 20
364.587500
 42
0.068025
  0
VERTEX
  8
0
 10
422.926307
 20
365.234582
 42
0.048028
  0
VERTEX
  8
0
 10
423.000000
 20
366.000000
 42
-0.042005
  0
VERTEX
  8
0
 10
423.064440
 20
366.765706
 42
-0.061586
  0
VERTEX
  8
0
 10
423.258112
 20
367.412500
 42
-0.080913
  0
VERTEX
  8
0
 10
423.542657
 20
367.851170
 42
-0.211547
  0
VERTEX
  8
0
 10
423.878680
 20
368.000000
 42
0.208074
  0
VERTEX
  8
0
 10
424.294660
 20
368.180943
 42
0.033695
  0
VERTEX
  8
0
 10
424.864273
 20
368.881250
 42
0.032352
  0
VERTEX
  8
0
 10
425.459931
 20
369.851056
 42
0.023358
  0
VERTEX
  8
0
 10
426.000000
 20
371.000000
 42
-0.023358
  0
VERTEX
  8
0
 10
426.540069
 20
372.148944
 42
-0.032352
  0
VERTEX
  8
0
 10
427.135727
 20
373.118750
 42
-0.033695
  0
VERTEX
  8
0
 10
427.705340
 20
373.819057
 42
-0.208074
  0
VERTEX
  8
0
 10
428.121320
 20
374.000000
 42
0.211547
  0
VERTEX
  8
0
 10
428.457343
 20
374.148830
 42
0.080913
  0
VERTEX
  8
0
 10
428.741888
 20
374.587500
 42
0.061586
  0
VERTEX
  8
0
 10
428.935560
 20
375.234294
 42
0.042005
  0
VERTEX
  8
0
 10
429.000000
 20
376.000000
 42
-0.048028
  0
VERTEX
  8
0
 10
429.073693
 20
376.765418
 42
-0.068025
  0
VERTEX
  8
0
 10
429.293750
 20
377.412500
 42
-0.088204
  0
VERTEX
  8
0
 10
429.618118
 20
377.848523
 42
-0.191087
  0
VERTEX
  8
0
 10
430.000000
 20
378.000000
 42
0.191087
  0
VERTEX
  8
0
 10
430.381882
 20
378.151477
 42
0.088204
  0
VERTEX
  8
0
 10
430.706250
 20
378.587500
 42
0.068025
  0
VERTEX
  8
0
 10
430.926307
 20
379.234582
 42
0.048028
  0
VERTEX
  8
0
 10
431.000000
 20
380.000000
 42
-0.048028
  0
VERTEX
  8
0
 10
431.073693
 20
380.765418
 42
-0.068025
  0
VERTEX
  8
0
 10
431.293750
 20
381.412500
 42
-0.088204
  0
VERTEX
  8
0
 10
431.618118
 20
381.848523
 42
-0.191087
  0
VERTEX
  8
0
 10
432.000000
 20
382.000000
 42
0.191087
  0
VERTEX
  8
0
 10
432.381882
 20
382.151477
 42
0.088204
  0
VERTEX
  8
0
 10
432.706250
 20
382.587500
 42
0.068025
  0
VERTEX
  8
0
 10
432.926307
 20
383.234582
 42
0.048028
  0
VERTEX
  8
0
 10
433.000000
 20
384.000000
 42
-0.035676
  0
VERTEX
  8
0
 10
433.054743
 20
384.766246
 42
-0.053938
  0
VERTEX
  8
0
 10
433.220312
 20
385.413545
 42
-0.070374
  0
VERTEX
  8
0
 10
433.462460
 20
385.858162
 42
-0.235946
  0
VERTEX
  8
0
 10
433.750000
 20
386.003557
 42
0.252497
  0
VERTEX
  8
0
 10
434.144986
 20
386.219031
 42
0.010688
  0
VERTEX
  8
0
 10
435.014063
 20
387.619605
 42
0.016166
  0
VERTEX
  8
0
 10
435.987617
 20
389.394667
 42
0.010555
  0
VERTEX
  8
0
 10
437.000000
 20
391.500000
 42
-0.010555
  0
VERTEX
  8
0
 10
438.012383
 20
393.605333
 42
-0.016166
  0
VERTEX
  8
0
 10
438.985937
 20
395.380395
 42
-0.010688
  0
VERTEX
  8
0
 10
439.855014
 20
396.780969
 42
-0.252497
  0
VERTEX
  8
0
 10
440.250000
 20
396.996443
 42
0.181087
  0
VERTEX
  8
0
 10
440.536292
 20
397.105197
 42
0.090712
  0
VERTEX
  8
0
 10
440.779688
 20
397.413337
 42
0.070890
  0
VERTEX
  8
0
 10
440.944582
 20
397.870638
 42
0.051176
  0
VERTEX
  8
0
 10
441.000000
 20
398.410661
 42
-0.094205
  0
VERTEX
  8
0
 10
441.176001
 20
399.336513
 42
-0.004928
  0
VERTEX
  8
0
 10
442.318092
 20
402.150371
 42
-0.007645
  0
VERTEX
  8
0
 10
443.768185
 20
405.480272
 42
-0.005472
  0
VERTEX
  8
0
 10
445.487122
 20
409.160661
 42
0.004804
  0
VERTEX
  8
0
 10
447.207127
 20
412.830530
 42
0.006826
  0
VERTEX
  8
0
 10
448.659935
 20
416.127742
 42
0.004084
  0
VERTEX
  8
0
 10
449.818248
 20
418.920161
 42
0.093987
  0
VERTEX
  8
0
 10
449.987122
 20
419.763569
 42
-0.053393
  0
VERTEX
  8
0
 10
450.060105
 20
420.385170
 42
-0.019641
  0
VERTEX
  8
0
 10
450.289967
 20
421.239478
 42
-0.019207
  0
VERTEX
  8
0
 10
450.616250
 20
422.160335
 42
-0.021865
  0
VERTEX
  8
0
 10
451.000000
 20
423.013569
 42
-0.027778
  0
VERTEX
  8
0
 10
451.455230
 20
423.917851
 42
0.000000
  0
VERTEX
  8
0
 10
452.000000
 20
425.000000
 42
-0.000000
  0
VERTEX
  8
0
 10
452.544770
 20
426.082149
 42
0.027778
  0
VERTEX
  8
0
 10
453.000000
 20
426.986431
 42
0.026214
  0
VERTEX
  8
0
 10
453.382878
 20
427.857899
 42
0.020814
  0
VERTEX
  8
0
 10
453.706250
 20
428.833959
 42
0.021269
  0
VERTEX
  8
0
 10
453.930189
 20
429.766124
 42
0.048346
  0
VERTEX
  8
0
 10
454.000000
 20
430.486431
 42
-0.064244
  0
VERTEX
  8
0
 10
454.074659
 20
431.065097
 42
-0.081991
  0
VERTEX
  8
0
 10
454.293750
 20
431.555389
 42
-0.098698
  0
VERTEX
  8
0
 10
454.618641
 20
431.883405
 42
-0.149454
  0
VERTEX
  8
0
 10
455.000000
 20
432.000000
 42
0.254951
  0
VERTEX
  8
0
 10
455.384262
 20
432.209557
 42
0.062710
  0
VERTEX
  8
0
 10
455.706250
 20
432.881250
 42
0.048861
  0
VERTEX
  8
0
 10
455.927234
 20
433.850749
 42
0.031626
  0
VERTEX
  8
0
 10
456.000000
 20
435.000000
 42
-0.031626
  0
VERTEX
  8
0
 10
456.072766
 20
436.149251
 42
-0.048861
  0
VERTEX
  8
0
 10
456.293750
 20
437.118750
 42
-0.062710
  0
VERTEX
  8
0
 10
456.615738
 20
437.790443
 42
-0.254951
  0
VERTEX
  8
0
 10
457.000000
 20
438.000000
 42
0.226478
  0
VERTEX
  8
0
 10
457.382936
 20
438.182831
 42
0.074992
  0
VERTEX
  8
0
 10
457.706250
 20
438.734375
 42
0.057076
  0
VERTEX
  8
0
 10
457.926884
 20
439.542644
 42
0.038131
  0
VERTEX
  8
0
 10
458.000000
 20
440.500000
 42
-0.038131
  0
VERTEX
  8
0
 10
458.073116
 20
441.457356
 42
-0.057076
  0
VERTEX
  8
0
 10
458.293750
 20
442.265625
 42
-0.074992
  0
VERTEX
  8
0
 10
458.617064
 20
442.817169
 42
-0.226478
  0
VERTEX
  8
0
 10
459.000000
 20
443.000000
 42
0.226478
  0
VERTEX
  8
0
 10
459.382936
 20
443.182831
 42
0.074992
  0
VERTEX
  8
0
 10
459.706250
 20
443.734375
 42
0.057076
  0
VERTEX
  8
0
 10
459.926884
 20
444.542644
 42
0.038131
  0
VERTEX
  8
0
 10
460.000000
 20
445.500000
 42
-0.038131
  0
VERTEX
  8
0
 10
460.073116
 20
446.457356
 42
-0.057076
  0
VERTEX
  8
0
 10
460.293750
 20
447.265625
 42
-0.074992
  0
VERTEX
  8
0
 10
460.617064
 20
447.817169
 42
-0.226478
  0
VERTEX
  8
0
 10
461.000000
 20
448.000000
 42
0.254951
  0
VERTEX
  8
0
 10
461.384262
 20
448.209557
 42
0.062710
  0
VERTEX
  8
0
 10
461.706250
 20
448.881250
 42
0.048861
  0
VERTEX
  8
0
 10
461.927234
 20
449.850749
 42
0.031626
  0
VERTEX
  8
0
 10
462.000000
 20
451.000000
 42
-0.031626
  0
VERTEX
  8
0
 10
462.072766
 20
452.149251
 42
-0.048861
  0
VERTEX
  8
0
 10
462.293750
 20
453.118750
 42
-0.062710
  0
VERTEX
  8
0
 10
462.615738
 20
453.790443
 42
-0.254951
  0
VERTEX
  8
0
 10
463.000000
 20
454.000000
 42
0.222681
  0
VERTEX
  8
0
 10
463.382793
 20
454.179376
 42
0.076538
  0
VERTEX
  8
0
 10
463.706250
 20
454.717039
 42
0.058208
  0
VERTEX
  8
0
 10
463.926830
 20
455.506280
 42
0.039081
  0
VERTEX
  8
0
 10
464.000000
 20
456.440983
 42
-0.037634
  0
VERTEX
  8
0
 10
464.073842
 20
457.420660
 42
-0.041396
  0
VERTEX
  8
0
 10
464.293750
 20
458.346475
 42
-0.045439
  0
VERTEX
  8
0
 10
464.615492
 20
459.093337
 42
-0.130646
  0
VERTEX
  8
0
 10
465.000000
 20
459.500000
 42
0.130646
  0
VERTEX
  8
0
 10
465.384508
 20
459.906663
 42
0.045439
  0
VERTEX
  8
0
 10
465.706250
 20
460.653525
 42
0.041396
  0
VERTEX
  8
0
 10
465.926158
 20
461.579340
 42
0.037634
  0
VERTEX
  8
0
 10
466.000000
 20
462.559017
 42
-0.039081
  0
VERTEX
  8
0
 10
466.073170
 20
463.493720
 42
-0.058208
  0
VERTEX
  8
0
 10
466.293750
 20
464.282961
 42
-0.076538
  0
VERTEX
  8
0
 10
466.617207
 20
464.820624
 42
-0.222681
  0
VERTEX
  8
0
 10
467.000000
 20
465.000000
 42
0.227337
  0
VERTEX
  8
0
 10
467.382969
 20
465.183616
 42
0.074638
  0
VERTEX
  8
0
 10
467.706250
 20
465.738361
 42
0.056821
  0
VERTEX
  8
0
 10
467.926896
 20
466.551005
 42
0.037919
  0
VERTEX
  8
0
 10
468.000000
 20
467.513569
 42
-0.030227
  0
VERTEX
  8
0
 10
468.065922
 20
468.603028
 42
-0.022099
  0
VERTEX
  8
0
 10
468.265120
 20
469.798853
 42
-0.022465
  0
VERTEX
  8
0
 10
468.556099
 20
470.918890
 42
-0.045089
  0
VERTEX
  8
0
 10
468.902536
 20
471.763569
 42
0.028031
  0
VERTEX
  8
0
 10
469.321994
 20
472.694623
 42
0.008269
  0
VERTEX
  8
0
 10
469.859867
 20
474.164923
 42
0.008273
  0
VERTEX
  8
0
 10
470.410955
 20
475.841231
 42
0.008813
  0
VERTEX
  8
0
 10
470.894145
 20
477.500000
 42
-0.003351
  0
VERTEX
  8
0
 10
472.391720
 20
482.858408
 42
-0.001801
  0
VERTEX
  8
0
 10
474.307136
 20
489.449134
 42
-0.001800
  0
VERTEX
  8
0
 10
476.280661
 20
496.061739
 42
-0.003185
  0
VERTEX
  8
0
 10
477.962929
 20
501.500000
 42
0.006770
  0
VERTEX
  8
0
 10
478.741463
 20
504.082200
 42
0.005436
  0
VERTEX
  8
0
 10
479.511149
 20
506.880460
 42
0.005497
  0
VERTEX
  8
0
 10
480.166157
 20
509.483048
 42
0.013939
  0
VERTEX
  8
0
 10
480.568192
 20
511.390928
 42
-0.016975
  0
VERTEX
  8
0
 10
480.969955
 20
513.241742
 42
-0.007704
  0
VERTEX
  8
0
 10
481.614741
 20
515.635538
 42
-0.007618
  0
VERTEX
  8
0
 10
482.372864
 20
518.141668
 42
-0.010359
  0
VERTEX
  8
0
 10
483.137729
 20
520.376811
 42
0.083279
  0
VERTEX
  8
0
 10
484.368937
 20
526.983208
 42
0.002458
  0
VERTEX
  8
0
 10
484.742121
 20
555.336624
 42
0.001927
  0
VERTEX
  8
0
 10
484.962162
 20
605.444648
 42
0.000134
  0
VERTEX
  8
0
 10
485.000000
 20
746.235883
 42
0.000295
  0
VERTEX
  8
0
 10
484.942602
 20
843.675135
 42
0.000838
  0
VERTEX
  8
0
 10
484.748868
 20
911.558971
 42
0.000040
  0
VERTEX
  8
0
 10
484.495541
 20
966.506778
 42
0.412840
  0
VERTEX
  8
0
 10
484.000000
 20
967.000000
 42
-0.191087
  0
VERTEX
  8
0
 10
483.618118
 20
967.151477
 42
-0.088204
  0
VERTEX
  8
0
 10
483.293750
 20
967.587500
 42
-0.068025
  0
VERTEX
  8
0
 10
483.073693
 20
968.234582
 42
-0.048028
  0
VERTEX
  8
0
 10
483.000000
 20
969.000000
 42
-0.048028
  0
VERTEX
  8
0
 10
483.073693
 20
969.765418
 42
-0.068025
  0
VERTEX
  8
0
 10
483.293750
 20
970.412500
 42
-0.088204
  0
VERTEX
  8
0
 10
483.618118
 20
970.848523
 42
-0.191087
  0
VERTEX
  8
0
 10
484.000000
 20
971.000000
 42
0.412840
  0
VERTEX
  8
0
 10
484.495541
 20
971.493222
 42
0.000040
  0
VERTEX
  8
0
 10
484.748868
 20
1026.441029
 42
0.000838
  0
VERTEX
  8
0
 10
484.942602
 20
1094.324865
 42
0.000295
  0
VERTEX
  8
0
 10
485.000000
 20
1191.764117
 42
0.000134
  0
VERTEX
  8
0
 10
484.962162
 20
1332.555352
 42
0.001927
  0
VERTEX
  8
0
 10
484.742121
 20
1382.663376
 42
0.002458
  0
VERTEX
  8
0
 10
484.368937
 20
1411.016792
 42
0.083279
  0
VERTEX
  8
0
 10
483.137729
 20
1417.623189
 42
-0.010359
  0
VERTEX
  8
0
 10
482.372864
 20
1419.858332
 42
-0.007618
  0
VERTEX
  8
0
 10
481.614741
 20
1422.364462
 42
-0.007704
  0
VERTEX
  8
0
 10
480.969955
 20
1424.758258
 42
-0.016975
  0
VERTEX
  8
0
 10
480.568192
 20
1426.609072
 42
0.013939
  0
VERTEX
  8
0
 10
480.166157
 20
1428.516952
 42
0.005497
  0
VERTEX
  8
0
 10
479.511149
 20
1431.119540
 42
0.005436
  0
VERTEX
  8
0
 10
478.741463
 20
1433.917800
 42
0.006770
  0
VERTEX
  8
0
 10
477.962929
 20
1436.500000
 42
-0.003185
  0
VERTEX
  8
0
 10
476.280661
 20
1441.938261
 42
-0.001800
  0
VERTEX
  8
0
 10
474.307136
 20
1448.550866
 42
-0.001801
  0
VERTEX
  8
0
 10
472.391720
 20
1455.141592
 42
-0.003351
  0
VERTEX
  8
0
 10
470.894145
 20
1460.500000
 42
0.008813
  0
VERTEX
  8
0
 10
470.410955
 20
1462.158769
 42
0.008273
  0
VERTEX
  8
0
 10
469.859867
 20
1463.835077
 42
0.008269
  0
VERTEX
  8
0
 10
469.321994
 20
1465.305377
 42
0.028031
  0
VERTEX
  8
0
 10
468.902536
 20
1466.236431
 42
-0.045089
  0
VERTEX
  8
0
 10
468.556099
 20
1467.081110
 42
-0.022465
  0
VERTEX
  8
0
 10
468.265120
 20
1468.201147
 42
-0.022099
  0
VERTEX
  8
0
 10
468.065922
 20
1469.396972
 42
-0.030227
  0
VERTEX
  8
0
 10
468.000000
 20
1470.486431
 42
0.037919
  0
VERTEX
  8
0
 10
467.926896
 20
1471.448995
 42
0.056821
  0
VERTEX
  8
0
 10
467.706250
 20
1472.261639
 42
0.074638
  0
VERTEX
  8
0
 10
467.382969
 20
1472.816384
 42
0.227337
  0
VERTEX
  8
0
 10
467.000000
 20
1473.000000
 42
-0.222681
  0
VERTEX
  8
0
 10
466.617207
 20
1473.179376
 42
-0.076538
  0
VERTEX
  8
0
 10
466.293750
 20
1473.717039
 42
-0.058208
  0
VERTEX
  8
0
 10
466.073170
 20
1474.506280
 42
-0.039081
  0
VERTEX
  8
0
 10
466.000000
 20
1475.440983
 42
0.037634
  0
VERTEX
  8
0
 10
465.926158
 20
1476.420660
 42
0.041396
  0
VERTEX
  8
0
 10
465.706250
 20
1477.346475
 42
0.045439
  0
VERTEX
  8
0
 10
465.384508
 20
1478.093337
 42
0.130646
  0
VERTEX
  8
0
 10
465.000000
 20
1478.500000
 42
-0.130646
  0
VERTEX
  8
0
 10
464.615492
 20
1478.906663
 42
-0.045439
  0
VERTEX
  8
0
 10
464.293750
 20
1479.653525
 42
-0.041396
  0
VERTEX
  8
0
 10
464.073842
 20
1480.579340
 42
-0.037634
  0
VERTEX
  8
0
 10
464.000000
 20
1481.559017
 42
0.039081
  0
VERTEX
  8
0
 10
463.926830
 20
1482.493720
 42
0.058208
  0
VERTEX
  8
0
 10
463.706250
 20
1483.282961
 42
0.076538
  0
VERTEX
  8
0
 10
463.382793
 20
1483.820624
 42
0.222681
  0
VERTEX
  8
0
 10
463.000000
 20
1484.000000
 42
-0.254951
  0
VERTEX
  8
0
 10
462.615738
 20
1484.209557
 42
-0.062710
  0
VERTEX
  8
0
 10
462.293750
 20
1484.881250
 42
-0.048861
  0
VERTEX
  8
0
 10
462.072766
 20
1485.850749
 42
-0.031626
  0
VERTEX
  8
0
 10
462.000000
 20
1487.000000
 42
0.031626
  0
VERTEX
  8
0
 10
461.927234
 20
1488.149251
 42
0.048861
  0
VERTEX
  8
0
 10
461.706250
 20
1489.118750
 42
0.062710
  0
VERTEX
  8
0
 10
461.384262
 20
1489.790443
 42
0.254951
  0
VERTEX
  8
0
 10
461.000000
 20
1490.000000
 42
-0.226478
  0
VERTEX
  8
0
 10
460.617064
 20
1490.182831
 42
-0.074992
  0
VERTEX
  8
0
 10
460.293750
 20
1490.734375
 42
-0.057076
  0
VERTEX
  8
0
 10
460.073116
 20
1491.542644
 42
-0.038131
  0
VERTEX
  8
0
 10
460.000000
 20
1492.500000
 42
0.038131
  0
VERTEX
  8
0
 10
459.926884
 20
1493.457356
 42
0.057076
  0
VERTEX
  8
0
 10
459.706250
 20
1494.265625
 42
0.074992
  0
VERTEX
  8
0
 10
459.382936
 20
1494.817169
 42
0.226478
  0
VERTEX
  8
0
 10
459.000000
 20
1495.000000
 42
-0.226478
  0
VERTEX
  8
0
 10
458.617064
 20
1495.182831
 42
-0.074992
  0
VERTEX
  8
0
 10
458.293750
 20
1495.734375
 42
-0.057076
  0
VERTEX
  8
0
 10
458.073116
 20
1496.542644
 42
-0.038131
  0
VERTEX
  8
0
 10
458.000000
 20
1497.500000
 42
0.038131
  0
VERTEX
  8
0
 10
457.926884
 20
1498.457356
 42
0.057076
  0
VERTEX
  8
0
 10
457.706250
 20
1499.265625
 42
0.074992
  0
VERTEX
  8
0
 10
457.382936
 20
1499.817169
 42
0.226478
  0
VERTEX
  8
0
 10
457.000000
 20
1500.000000
 42
-0.254951
  0
VERTEX
  8
0
 10
456.615738
 20
1500.209557
 42
-0.062710
  0
VERTEX
  8
0
 10
456.293750
 20
1500.881250
 42
-0.048861
  0
VERTEX
  8
0
 10
456.072766
 20
1501.850749
 42
-0.031626
  0
VERTEX
  8
0
 10
456.000000
 20
1503.000000
 42
0.031626
  0
VERTEX
  8
0
 10
455.927234
 20
1504.149251
 42
0.048861
  0
VERTEX
  8
0
 10
455.706250
 20
1505.118750
 42
0.062710
  0
VERTEX
  8
0
 10
455.384262
 20
1505.790443
 42
0.254951
  0
VERTEX
  8
0
 10
455.000000
 20
1506.000000
 42
-0.149454
  0
VERTEX
  8
0
 10
454.618641
 20
1506.116595
 42
-0.098698
  0
VERTEX
  8
0
 10
454.293750
 20
1506.444611
 42
-0.081991
  0
VERTEX
  8
0
 10
454.074659
 20
1506.934903
 42
-0.064244
  0
VERTEX
  8
0
 10
454.000000
 20
1507.513569
 42
0.048346
  0
VERTEX
  8
0
 10
453.930189
 20
1508.233876
 42
0.021269
  0
VERTEX
  8
0
 10
453.706250
 20
1509.166041
 42
0.020814
  0
VERTEX
  8
0
 10
453.382878
 20
1510.142101
 42
0.026214
  0
VERTEX
  8
0
 10
453.000000
 20
1511.013569
 42
-0.003268
  0
VERTEX
  8
0
 10
452.544770
 20
1511.917851
 42
0.000000
  0
VERTEX
  8
0
 10
452.000000
 20
1513.000000
 42
-0.000000
  0
VERTEX
  8
0
 10
451.455230
 20
1514.082149
 42
0.003268
  0
VERTEX
  8
0
 10
451.000000
 20
1514.986431
 42
-0.021865
  0
VERTEX
  8
0
 10
450.616250
 20
1515.839665
 42
-0.019207
  0
VERTEX
  8
0
 10
450.289967
 20
1516.760522
 42
-0.019641
  0
VERTEX
  8
0
 10
450.060105
 20
1517.614830
 42
-0.053393
  0
VERTEX
  8
0
 10
449.987122
 20
1518.236431
 42
0.093987
  0
VERTEX
  8
0
 10
449.818248
 20
1519.079839
 42
0.004084
  0
VERTEX
  8
0
 10
448.659935
 20
1521.872258
 42
0.006826
  0
VERTEX
  8
0
 10
447.207127
 20
1525.169470
 42
0.004804
  0
VERTEX
  8
0
 10
445.487122
 20
1528.839339
 42
-0.005472
  0
VERTEX
  8
0
 10
443.768185
 20
1532.519728
 42
-0.007645
  0
VERTEX
  8
0
 10
442.318092
 20
1535.849629
 42
-0.004928
  0
VERTEX
  8
0
 10
441.176001
 20
1538.663487
 42
-0.094205
  0
VERTEX
  8
0
 10
441.000000
 20
1539.589339
 42
0.051176
  0
VERTEX
  8
0
 10
440.944582
 20
1540.129362
 42
0.070890
  0
VERTEX
  8
0
 10
440.779688
 20
1540.586663
 42
0.090712
  0
VERTEX
  8
0
 10
440.536292
 20
1540.894803
 42
0.181087
  0
VERTEX
  8
0
 10
440.250000
 20
1541.003557
 42
-0.252497
  0
VERTEX
  8
0
 10
439.855014
 20
1541.219031
 42
-0.010688
  0
VERTEX
  8
0
 10
438.985937
 20
1542.619605
 42
-0.016166
  0
VERTEX
  8
0
 10
438.012383
 20
1544.394667
 42
-0.010555
  0
VERTEX
  8
0
 10
437.000000
 20
1546.500000
 42
0.010555
  0
VERTEX
  8
0
 10
435.987617
 20
1548.605333
 42
0.016166
  0
VERTEX
  8
0
 10
435.014063
 20
1550.380395
 42
0.010688
  0
VERTEX
  8
0
 10
434.144986
 20
1551.780969
 42
0.252497
  0
VERTEX
  8
0
 10
433.750000
 20
1551.996443
 42
-0.235946
  0
VERTEX
  8
0
 10
433.462460
 20
1552.141838
 42
-0.070374
  0
VERTEX
  8
0
 10
433.220312
 20
1552.586455
 42
-0.053938
  0
VERTEX
  8
0
 10
433.054743
 20
1553.233754
 42
-0.035676
  0
VERTEX
  8
0
 10
433.000000
 20
1554.000000
 42
0.048028
  0
VERTEX
  8
0
 10
432.926307
 20
1554.765418
 42
0.068025
  0
VERTEX
  8
0
 10
432.706250
 20
1555.412500
 42
0.088204
  0
VERTEX
  8
0
 10
432.381882
 20
1555.848523
 42
0.191087
  0
VERTEX
  8
0
 10
432.000000
 20
1556.000000
 42
-0.191087
  0
VERTEX
  8
0
 10
431.618118
 20
1556.151477
 42
-0.088204
  0
VERTEX
  8
0
 10
431.293750
 20
1556.587500
 42
-0.068025
  0
VERTEX
  8
0
 10
431.073693
 20
1557.234582
 42
-0.048028
  0
VERTEX
  8
0
 10
431.000000
 20
1558.000000
 42
0.048028
  0
VERTEX
  8
0
 10
430.926307
 20
1558.765418
 42
0.068025
  0
VERTEX
  8
0
 10
430.706250
 20
1559.412500
 42
0.088204
  0
VERTEX
  8
0
 10
430.381882
 20
1559.848523
 42
0.191087
  0
VERTEX
  8
0
 10
430.000000
 20
1560.000000
 42
-0.191087
  0
VERTEX
  8
0
 10
429.618118
 20
1560.151477
 42
-0.088204
  0
VERTEX
  8
0
 10
429.293750
 20
1560.587500
 42
-0.068025
  0
VERTEX
  8
0
 10
429.073693
 20
1561.234582
 42
-0.048028
  0
VERTEX
  8
0
 10
429.000000
 20
1562.000000
 42
0.042005
  0
VERTEX
  8
0
 10
428.935560
 20
1562.765706
 42
0.061586
  0
VERTEX
  8
0
 10
428.741888
 20
1563.412500
 42
0.080913
  0
VERTEX
  8
0
 10
428.457343
 20
1563.851170
 42
0.211547
  0
VERTEX
  8
0
 10
428.121320
 20
1564.000000
 42
-0.208074
  0
VERTEX
  8
0
 10
427.705340
 20
1564.180943
 42
-0.033695
  0
VERTEX
  8
0
 10
427.135727
 20
1564.881250
 42
-0.032352
  0
VERTEX
  8
0
 10
426.540069
 20
1565.851056
 42
-0.023358
  0
VERTEX
  8
0
 10
426.000000
 20
1567.000000
 42
0.023358
  0
VERTEX
  8
0
 10
425.459931
 20
1568.148944
 42
0.032352
  0
VERTEX
  8
0
 10
424.864273
 20
1569.118750
 42
0.033695
  0
VERTEX
  8
0
 10
424.294660
 20
1569.819057
 42
0.208074
  0
VERTEX
  8
0
 10
423.878680
 20
1570.000000
 42
-0.211547
  0
VERTEX
  8
0
 10
423.542657
 20
1570.148830
 42
-0.080913
  0
VERTEX
  8
0
 10
423.258112
 20
1570.587500
 42
-0.061586
  0
VERTEX
  8
0
 10
423.064440
 20
1571.234294
 42
-0.042005
  0
VERTEX
  8
0
 10
423.000000
 20
1572.000000
 42
0.048028
  0
VERTEX
  8
0
 10
422.926307
 20
1572.765418
 42
0.068025
  0
VERTEX
  8
0
 10
422.706250
 20
1573.412500
 42
0.088204
  0
VERTEX
  8
0
 10
422.381882
 20
1573.848523
 42
0.191087
  0
VERTEX
  8
0
 10
422.000000
 20
1574.000000
 42
-0.106665
  0
VERTEX
  8
0
 10
421.618463
 20
1574.082330
 42
-0.099432
  0
VERTEX
  8
0
 10
421.293750
 20
1574.315750
 42
-0.095979
  0
VERTEX
  8
0
 10
421.076064
 20
1574.664553
 42
-0.091902
  0
VERTEX
  8
0
 10
421.000000
 20
1575.074894
 42
0.139991
  0
VERTEX
  8
0
 10
420.525332
 20
1576.737021
 42
0.003675
  0
VERTEX
  8
0
 10
416.375453
 20
1583.302113
 42
0.003381
  0
VERTEX
  8
0
 10
412.107219
 20
1589.848052
 42
0.156929
  0
VERTEX
  8
0
 10
410.876032
 20
1590.833333
 42
-0.122030
  0
VERTEX
  8
0
 10
410.540747
 20
1591.065901
 42
-0.064953
  0
VERTEX
  8
0
 10
410.257334
 20
1591.487569
 42
-0.058641
  0
VERTEX
  8
0
 10
410.065195
 20
1592.022393
 42
-0.056999
  0
VERTEX
  8
0
 10
410.000000
 20
1592.592435
 42
0.121441
  0
VERTEX
  8
0
 10
409.816337
 20
1593.337464
 42
0.024506
  0
VERTEX
  8
0
 10
409.118750
 20
1594.521527
 42
0.024540
  0
VERTEX
  8
0
 10
408.148457
 20
1595.850984
 42
0.020798
  0
VERTEX
  8
0
 10
407.000000
 20
1597.157416
 42
-0.013998
  0
VERTEX
  8
0
 10
405.851089
 20
1598.429070
 42
-0.018464
  0
VERTEX
  8
0
 10
404.881250
 20
1599.653687
 42
-0.016075
  0
VERTEX
  8
0
 10
404.156589
 20
1600.711234
 42
-0.143114
  0
VERTEX
  8
0
 10
404.000000
 20
1601.247104
 42
0.151164
  0
VERTEX
  8
0
 10
403.838390
 20
1601.769444
 42
0.018565
  0
VERTEX
  8
0
 10
403.118750
 20
1602.741589
 42
0.020606
  0
VERTEX
  8
0
 10
402.148876
 20
1603.857332
 42
0.015666
  0
VERTEX
  8
0
 10
401.000000
 20
1605.000000
 42
-0.018062
  0
VERTEX
  8
0
 10
399.851293
 20
1606.153501
 42
-0.022916
  0
VERTEX
  8
0
 10
398.881250
 20
1607.301978
 42
-0.021819
  0
VERTEX
  8
0
 10
398.171812
 20
1608.312902
 42
-0.143035
  0
VERTEX
  8
0
 10
398.000000
 20
1608.901210
 42
0.089824
  0
VERTEX
  8
0
 10
397.924024
 20
1609.320713
 42
0.095294
  0
VERTEX
  8
0
 10
397.706250
 20
1609.677230
 42
0.099782
  0
VERTEX
  8
0
 10
397.381509
 20
1609.915764
 42
0.109085
  0
VERTEX
  8
0
 10
397.000000
 20
1610.000000
 42
-0.141874
  0
VERTEX
  8
0
 10
396.618660
 20
1610.110427
 42
-0.099744
  0
VERTEX
  8
0
 10
396.293750
 20
1610.420830
 42
-0.084602
  0
VERTEX
  8
0
 10
396.074877
 20
1610.885024
 42
-0.068054
  0
VERTEX
  8
0
 10
396.000000
 20
1611.432612
 42
0.114547
  0
VERTEX
  8
0
 10
395.862732
 20
1612.023924
 42
0.070972
  0
VERTEX
  8
0
 10
395.459533
 20
1612.615932
 42
0.065222
  0
VERTEX
  8
0
 10
394.863497
 20
1613.118905
 42
0.065927
  0
VERTEX
  8
0
 10
394.160112
 20
1613.449183
 42
-0.078495
  0
VERTEX
  8
0
 10
393.359552
 20
1613.849815
 42
-0.037127
  0
VERTEX
  8
0
 10
392.470270
 20
1614.591110
 42
-0.035620
  0
VERTEX
  8
0
 10
391.635403
 20
1615.523115
 42
-0.041992
  0
VERTEX
  8
0
 10
390.991132
 20
1616.516570
 42
0.024205
  0
VERTEX
  8
0
 10
390.421381
 20
1617.467496
 42
0.031932
  0
VERTEX
  8
0
 10
389.808349
 20
1618.270493
 42
0.033247
  0
VERTEX
  8
0
 10
389.234774
 20
1618.847571
 42
0.182479
  0
VERTEX
  8
0
 10
388.831020
 20
1619.000000
 42
-0.122178
  0
VERTEX
  8
0
 10
388.514075
 20
1619.078621
 42
-0.100757
  0
VERTEX
  8
0
 10
388.244112
 20
1619.300136
 42
-0.091247
  0
VERTEX
  8
0
 10
388.062751
 20
1619.631461
 42
-0.079879
  0
VERTEX
  8
0
 10
388.000000
 20
1620.021739
 42
0.163404
  0
VERTEX
  8
0
 10
387.791122
 20
1620.643821
 42
0.008313
  0
VERTEX
  8
0
 10
386.457812
 20
1622.345846
 42
0.012559
  0
VERTEX
  8
0
 10
384.761420
 20
1624.334485
 42
0.008712
  0
VERTEX
  8
0
 10
382.750000
 20
1626.498811
 42
-0.000839
  0
VERTEX
  8
0
 10
380.586880
 20
1628.754099
 42
-0.000836
  0
VERTEX
  8
0
 10
378.428772
 20
1631.019312
 42
-0.000818
  0
VERTEX
  8
0
 10
376.549679
 20
1633.004778
 42
-0.003293
  0
VERTEX
  8
0
 10
375.411776
 20
1634.227072
 42
0.015070
  0
VERTEX
  8
0
 10
374.139678
 20
1635.530565
 42
0.002309
  0
VERTEX
  8
0
 10
371.519104
 20
1638.035452
 42
0.002579
  0
VERTEX
  8
0
 10
368.396973
 20
1640.961894
 42
0.002234
  0
VERTEX
  8
0
 10
365.092525
 20
1644.000000
 42
-0.000657
  0
VERTEX
  8
0
 10
361.728826
 20
1647.073051
 42
-0.000690
  0
VERTEX
  8
0
 10
358.428355
 20
1650.104687
 42
-0.000660
  0
VERTEX
  8
0
 10
355.587288
 20
1652.728516
 42
-0.003094
  0
VERTEX
  8
0
 10
353.964452
 20
1654.250000
 42
0.008145
  0
VERTEX
  8
0
 10
352.817623
 20
1655.303643
 42
0.011832
  0
VERTEX
  8
0
 10
351.769369
 20
1656.192188
 42
0.007507
  0
VERTEX
  8
0
 10
350.872182
 20
1656.894915
 42
0.163801
  0
VERTEX
  8
0
 10
350.560019
 20
1657.000000
 42
-0.176627
  0
VERTEX
  8
0
 10
350.233307
 20
1657.119129
 42
-0.003762
  0
VERTEX
  8
0
 10
348.910949
 20
1658.248437
 42
-0.008213
  0
VERTEX
  8
0
 10
347.379341
 20
1659.621220
 42
-0.005388
  0
VERTEX
  8
0
 10
345.658665
 20
1661.250000
 42
0.007353
  0
VERTEX
  8
0
 10
340.845083
 20
1665.770767
 42
0.005078
  0
VERTEX
  8
0
 10
335.270350
 20
1670.751442
 42
0.004592
  0
VERTEX
  8
0
 10
328.970011
 20
1676.164993
 42
0.003466
  0
VERTEX
  8
0
 10
321.953539
 20
1682.000000
 42
-0.006135
  0
VERTEX
  8
0
 10
320.078045
 20
1683.576701
 42
-0.004090
  0
VERTEX
  8
0
 10
317.966828
 20
1685.426563
 42
-0.004118
  0
VERTEX
  8
0
 10
315.948271
 20
1687.254674
 42
-0.008053
  0
VERTEX
  8
0
 10
314.375844
 20
1688.750000
 42
0.007879
  0
VERTEX
  8
0
 10
313.067283
 20
1689.995268
 42
0.011544
  0
VERTEX
  8
0
 10
311.874341
 20
1691.045312
 42
0.007077
  0
VERTEX
  8
0
 10
310.851799
 20
1691.879901
 42
0.169182
  0
VERTEX
  8
0
 10
310.507018
 20
1692.000000
 42
-0.177271
  0
VERTEX
  8
0
 10
310.152168
 20
1692.129891
 42
-0.004622
  0
VERTEX
  8
0
 10
308.853547
 20
1693.248437
 42
-0.009207
  0
VERTEX
  8
0
 10
307.346057
 20
1694.621307
 42
-0.006097
  0
VERTEX
  8
0
 10
305.664071
 20
1696.250000
 42
0.006373
  0
VERTEX
  8
0
 10
303.483577
 20
1698.359079
 42
0.002290
  0
VERTEX
  8
0
 10
300.327365
 20
1701.307813
 42
0.002271
  0
VERTEX
  8
0
 10
296.838259
 20
1704.508450
 42
0.002691
  0
VERTEX
  8
0
 10
293.511404
 20
1707.500000
 42
-0.003540
  0
VERTEX
  8
0
 10
289.940475
 20
1710.721999
 42
-0.002044
  0
VERTEX
  8
0
 10
285.687021
 20
1714.646875
 42
-0.002042
  0
VERTEX
  8
0
 10
281.449951
 20
1718.621221
 42
-0.003423
  0
VERTEX
  8
0
 10
277.925811
 20
1722.000000
 42
0.004169
  0
VERTEX
  8
0
 10
274.730176
 20
1725.054687
 42
0.004270
  0
VERTEX
  8
0
 10
271.509154
 20
1728.031250
 42
0.004142
  0
VERTEX
  8
0
 10
268.670304
 20
1730.567453
 42
0.017850
  0
VERTEX
  8
0
 10
266.917418
 20
1732.000000
 42
-0.031275
  0
VERTEX
  8
0
 10
264.557900
 20
1734.036317
 42
-0.000397
  0
VERTEX
  8
0
 10
250.447263
 20
1747.865625
 42
-0.001160
  0
VERTEX
  8
0
 10
234.164860
 20
1763.923097
 42
-0.000760
  0
VERTEX
  8
0
 10
215.471851
 20
1782.500000
 42
0.000814
  0
VERTEX
  8
0
 10
196.809974
 20
1801.041993
 42
0.001259
  0
VERTEX
  8
0
 10
180.627743
 20
1816.987500
 42
0.000370
  0
VERTEX
  8
0
 10
166.515712
 20
1830.802718
 42
0.040355
  0
VERTEX
  8
0
 10
164.473271
 20
1832.500000
 42
-0.009885
  0
VERTEX
  8
0
 10
161.385571
 20
1834.762974
 42
-0.009288
  0
VERTEX
  8
0
 10
158.323997
 20
1837.192564
 42
-0.009549
  0
VERTEX
  8
0
 10
155.657811
 20
1839.477214
 42
-0.025731
  0
VERTEX
  8
0
 10
153.882705
 20
1841.229870
 42
0.031623
  0
VERTEX
  8
0
 10
153.180259
 20
1841.907286
 42
0.033041
  0
VERTEX
  8
0
 10
152.407758
 20
1842.480024
 42
0.035025
  0
VERTEX
  8
0
 10
151.678340
 20
1842.880309
 42
0.108391
  0
VERTEX
  8
0
 10
151.132705
 20
1843.000000
 42
-0.087025
  0
VERTEX
  8
0
 10
150.700197
 20
1843.075852
 42
-0.094286
  0
VERTEX
  8
0
 10
150.332732
 20
1843.293750
 42
-0.100182
  0
VERTEX
  8
0
 10
150.086938
 20
1843.618528
 42
-0.112508
  0
VERTEX
  8
0
 10
150.000000
 20
1844.000000
 42
0.097870
  0
VERTEX
  8
0
 10
149.924573
 20
1844.381655
 42
0.097662
  0
VERTEX
  8
0
 10
149.709608
 20
1844.706250
 42
0.098215
  0
VERTEX
  8
0
 10
149.388690
 20
1844.923616
 42
0.100219
  0
VERTEX
  8
0
 10
149.011431
 20
1845.000000
 42
-0.105463
  0
VERTEX
  8
0
 10
148.497398
 20
1845.109643
 42
-0.023964
  0
VERTEX
  8
0
 10
147.697716
 20
1845.514062
 42
-0.023779
  0
VERTEX
  8
0
 10
146.802184
 20
1846.080123
 42
-0.021146
  0
VERTEX
  8
0
 10
145.927413
 20
1846.750000
 42
-0.000465
  0
VERTEX
  8
0
 10
144.935262
 20
1847.580156
 42
-0.000223
  0
VERTEX
  8
0
 10
143.664371
 20
1848.646516
 42
-0.000222
  0
VERTEX
  8
0
 10
142.339642
 20
1849.760060
 42
-0.000317
  0
VERTEX
  8
0
 10
141.165982
 20
1850.748779
 42
0.021040
  0
VERTEX
  8
0
 10
140.053604
 20
1851.609677
 42
0.023768
  0
VERTEX
  8
0
 10
138.915945
 20
1852.337337
 42
0.023922
  0
VERTEX
  8
0
 10
137.900647
 20
1852.857778
 42
0.106617
  0
VERTEX
  8
0
 10
137.250000
 20
1852.998779
 42
-0.072964
  0
VERTEX
  8
0
 10
136.772349
 20
1853.069331
 42
-0.087549
  0
VERTEX
  8
0
 10
136.367188
 20
1853.273596
 42
-0.100417
  0
VERTEX
  8
0
 10
136.096323
 20
1853.576868
 42
-0.132988
  0
VERTEX
  8
0
 10
136.000000
 20
1853.932612
 42
0.169771
  0
VERTEX
  8
0
 10
135.859183
 20
1854.335385
 42
0.058203
  0
VERTEX
  8
0
 10
135.414239
 20
1854.777183
 42
0.049797
  0
VERTEX
  8
0
 10
134.769047
 20
1855.187158
 42
0.039827
  0
VERTEX
  8
0
 10
134.005920
 20
1855.498121
 42
-0.033814
  0
VERTEX
  8
0
 10
133.145990
 20
1855.836547
 42
-0.022503
  0
VERTEX
  8
0
 10
132.209725
 20
1856.332980
 42
-0.022683
  0
VERTEX
  8
0
 10
131.340792
 20
1856.899662
 42
-0.040559
  0
VERTEX
  8
0
 10
130.691413
 20
1857.451444
 42
0.066638
  0
VERTEX
  8
0
 10
129.001265
 20
1858.742498
 42
0.002270
  0
VERTEX
  8
0
 10
121.716085
 20
1862.862601
 42
0.004742
  0
VERTEX
  8
0
 10
114.482451
 20
1866.820709
 42
0.012855
  0
VERTEX
  8
0
 10
109.257802
 20
1869.445035
 42
-0.025395
  0
VERTEX
  8
0
 10
108.398680
 20
1869.903892
 42
-0.033701
  0
VERTEX
  8
0
 10
107.671958
 20
1870.410416
 42
-0.035743
  0
VERTEX
  8
0
 10
107.150535
 20
1870.893782
 42
-0.187502
  0
VERTEX
  8
0
 10
107.007802
 20
1871.250000
 42
0.268668
  0
VERTEX
  8
0
 10
106.836419
 20
1871.538955
 42
0.055034
  0
VERTEX
  8
0
 10
106.267917
 20
1871.779687
 42
0.044293
  0
VERTEX
  8
0
 10
105.458416
 20
1871.945529
 42
0.028394
  0
VERTEX
  8
0
 10
104.500000
 20
1872.000000
 42
-0.038131
  0
VERTEX
  8
0
 10
103.542644
 20
1872.073116
 42
-0.057076
  0
VERTEX
  8
0
 10
102.734375
 20
1872.293750
 42
-0.074992
  0
VERTEX
  8
0
 10
102.182831
 20
1872.617064
 42
-0.226478
  0
VERTEX
  8
0
 10
102.000000
 20
1873.000000
 42
0.191087
  0
VERTEX
  8
0
 10
101.848523
 20
1873.381882
 42
0.088204
  0
VERTEX
  8
0
 10
101.412500
 20
1873.706250
 42
0.068025
  0
VERTEX
  8
0
 10
100.765418
 20
1873.926307
 42
0.048028
  0
VERTEX
  8
0
 10
100.000000
 20
1874.000000
 42
-0.048028
  0
VERTEX
  8
0
 10
99.234582
 20
1874.073693
 42
-0.068025
  0
VERTEX
  8
0
 10
98.587500
 20
1874.293750
 42
-0.088204
  0
VERTEX
  8
0
 10
98.151477
 20
1874.618118
 42
-0.191087
  0
VERTEX
  8
0
 10
98.000000
 20
1875.000000
 42
0.226478
  0
VERTEX
  8
0
 10
97.817169
 20
1875.382936
 42
0.074992
  0
VERTEX
  8
0
 10
97.265625
 20
1875.706250
 42
0.057076
  0
VERTEX
  8
0
 10
96.457356
 20
1875.926884
 42
0.038131
  0
VERTEX
  8
0
 10
95.500000
 20
1876.000000
 42
-0.028394
  0
VERTEX
  8
0
 10
94.541584
 20
1876.054471
 42
-0.044293
  0
VERTEX
  8
0
 10
93.732083
 20
1876.220313
 42
-0.055034
  0
VERTEX
  8
0
 10
93.163581
 20
1876.461045
 42
-0.268668
  0
VERTEX
  8
0
 10
92.992198
 20
1876.750000
 42
0.262796
  0
VERTEX
  8
0
 10
92.543235
 20
1877.526241
 42
0.020084
  0
VERTEX
  8
0
 10
90.332808
 20
1878.711774
 42
0.026575
  0
VERTEX
  8
0
 10
87.968163
 20
1879.708728
 42
0.086680
  0
VERTEX
  8
0
 10
86.300635
 20
1880.000000
 42
-0.075310
  0
VERTEX
  8
0
 10
85.803702
 20
1880.075275
 42
-0.088930
  0
VERTEX
  8
0
 10
85.382062
 20
1880.293750
 42
-0.100706
  0
VERTEX
  8
0
 10
85.100198
 20
1880.618643
 42
-0.129178
  0
VERTEX
  8
0
 10
85.000000
 20
1881.000000
 42
0.186414
  0
VERTEX
  8
0
 10
84.852535
 20
1881.381787
 42
0.089706
  0
VERTEX
  8
0
 10
84.429836
 20
1881.706250
 42
0.069539
  0
VERTEX
  8
0
 10
83.801778
 20
1881.926216
 42
0.049547
  0
VERTEX
  8
0
 10
83.059017
 20
1882.000000
 42
-0.046881
  0
VERTEX
  8
0
 10
82.270704
 20
1882.074077
 42
-0.046318
  0
VERTEX
  8
0
 10
81.506650
 20
1882.293750
 42
-0.050262
  0
VERTEX
  8
0
 10
80.876024
 20
1882.616444
 42
-0.111412
  0
VERTEX
  8
0
 10
80.500000
 20
1883.000000
 42
0.111412
  0
VERTEX
  8
0
 10
80.123976
 20
1883.383556
 42
0.050262
  0
VERTEX
  8
0
 10
79.493350
 20
1883.706250
 42
0.046318
  0
VERTEX
  8
0
 10
78.729296
 20
1883.925923
 42
0.046881
  0
VERTEX
  8
0
 10
77.940983
 20
1884.000000
 42
-0.049547
  0
VERTEX
  8
0
 10
77.198222
 20
1884.073784
 42
-0.069539
  0
VERTEX
  8
0
 10
76.570164
 20
1884.293750
 42
-0.089706
  0
VERTEX
  8
0
 10
76.147465
 20
1884.618213
 42
-0.186414
  0
VERTEX
  8
0
 10
76.000000
 20
1885.000000
 42
0.149454
  0
VERTEX
  8
0
 10
75.883405
 20
1885.381359
 42
0.098698
  0
VERTEX
  8
0
 10
75.555389
 20
1885.706250
 42
0.081991
  0
VERTEX
  8
0
 10
75.065097
 20
1885.925341
 42
0.064244
  0
VERTEX
  8
0
 10
74.486431
 20
1886.000000
 42
-0.048334
  0
VERTEX
  8
0
 10
73.782455
 20
1886.068212
 42
-0.023747
  0
VERTEX
  8
0
 10
72.907397
 20
1886.282977
 42
-0.023311
  0
VERTEX
  8
0
 10
72.012061
 20
1886.594433
 42
-0.031289
  0
VERTEX
  8
0
 10
71.236431
 20
1886.963326
 42
0.015991
  0
VERTEX
  8
0
 10
68.029190
 20
1888.610781
 42
0.010722
  0
VERTEX
  8
0
 10
64.266307
 20
1890.296147
 42
0.007198
  0
VERTEX
  8
0
 10
60.712465
 20
1891.737322
 42
0.092983
  0
VERTEX
  8
0
 10
59.312171
 20
1892.000000
 42
-0.065935
  0
VERTEX
  8
0
 10
58.810555
 20
1892.066437
 42
-0.083180
  0
VERTEX
  8
0
 10
58.385450
 20
1892.261058
 42
-0.099215
  0
VERTEX
  8
0
 10
58.101119
 20
1892.549802
 42
-0.146003
  0
VERTEX
  8
0
 10
58.000000
 20
1892.888709
 42
0.256887
  0
VERTEX
  8
0
 10
57.788462
 20
1893.273273
 42
0.037322
  0
VERTEX
  8
0
 10
56.971875
 20
1893.709237
 42
0.034546
  0
VERTEX
  8
0
 10
55.840903
 20
1894.117868
 42
0.023055
  0
VERTEX
  8
0
 10
54.500000
 20
1894.434022
 42
-0.024780
  0
VERTEX
  8
0
 10
53.159217
 20
1894.755031
 42
-0.036741
  0
VERTEX
  8
0
 10
52.028125
 20
1895.178188
 42
-0.040853
  0
VERTEX
  8
0
 10
51.217999
 20
1895.634646
 42
-0.248969
  0
VERTEX
  8
0
 10
51.000000
 20
1896.045313
 42
0.198381
  0
VERTEX
  8
0
 10
50.849357
 20
1896.410052
 42
0.085730
  0
VERTEX
  8
0
 10
50.412500
 20
1896.719561
 42
0.065694
  0
VERTEX
  8
0
 10
49.765527
 20
1896.929774
 42
0.045771
  0
VERTEX
  8
0
 10
49.000000
 20
1897.000000
 42
-0.048028
  0
VERTEX
  8
0
 10
48.234582
 20
1897.073693
 42
-0.068025
  0
VERTEX
  8
0
 10
47.587500
 20
1897.293750
 42
-0.088204
  0
VERTEX
  8
0
 10
47.151477
 20
1897.618118
 42
-0.191087
  0
VERTEX
  8
0
 10
47.000000
 20
1898.000000
 42
0.191087
  0
VERTEX
  8
0
 10
46.848523
 20
1898.381882
 42
0.088204
  0
VERTEX
  8
0
 10
46.412500
 20
1898.706250
 42
0.068025
  0
VERTEX
  8
0
 10
45.765418
 20
1898.926307
 42
0.048028
  0
VERTEX
  8
0
 10
45.000000
 20
1899.000000
 42
-0.048028
  0
VERTEX
  8
0
 10
44.234582
 20
1899.073693
 42
-0.068025
  0
VERTEX
  8
0
 10
43.587500
 20
1899.293750
 42
-0.088204
  0
VERTEX
  8
0
 10
43.151477
 20
1899.618118
 42
-0.191087
  0
VERTEX
  8
0
 10
43.000000
 20
1900.000000
 42
0.191087
  0
VERTEX
  8
0
 10
42.848523
 20
1900.381882
 42
0.088204
  0
VERTEX
  8
0
 10
42.412500
 20
1900.706250
 42
0.068025
  0
VERTEX
  8
0
 10
41.765418
 20
1900.926307
 42
0.048028
  0
VERTEX
  8
0
 10
41.000000
 20
1901.000000
 42
-0.048028
  0
VERTEX
  8
0
 10
40.234582
 20
1901.073693
 42
-0.068025
  0
VERTEX
  8
0
 10
39.587500
 20
1901.293750
 42
-0.088204
  0
VERTEX
  8
0
 10
39.151477
 20
1901.618118
 42
-0.191087
  0
VERTEX
  8
0
 10
39.000000
 20
1902.000000
 42
0.191087
  0
VERTEX
  8
0
 10
38.848523
 20
1902.381882
 42
0.088204
  0
VERTEX
  8
0
 10
38.412500
 20
1902.706250
 42
0.068025
  0
VERTEX
  8
0
 10
37.765418
 20
1902.926307
 42
0.048028
  0
VERTEX
  8
0
 10
37.000000
 20
1903.000000
 42
-0.048028
  0
VERTEX
  8
0
 10
36.234582
 20
1903.073693
 42
-0.068025
  0
VERTEX
  8
0
 10
35.587500
 20
1903.293750
 42
-0.088204
  0
VERTEX
  8
0
 10
35.151477
 20
1903.618118
 42
-0.191087
  0
VERTEX
  8
0
 10
35.000000
 20
1904.000000
 42
0.191087
  0
VERTEX
  8
0
 10
34.848523
 20
1904.381882
 42
0.088204
  0
VERTEX
  8
0
 10
34.412500
 20
1904.706250
 42
0.068025
  0
VERTEX
  8
0
 10
33.765418
 20
1904.926307
 42
0.048028
  0
VERTEX
  8
0
 10
33.000000
 20
1905.000000
 42
-0.048028
  0
VERTEX
  8
0
 10
32.234582
 20
1905.073693
 42
-0.068025
  0
VERTEX
  8
0
 10
31.587500
 20
1905.293750
 42
-0.088204
  0
VERTEX
  8
0
 10
31.151477
 20
1905.618118
 42
-0.191087
  0
VERTEX
  8
0
 10
31.000000
 20
1906.000000
 42
0.254951
  0
VERTEX
  8
0
 10
30.790443
 20
1906.384262
 42
0.062710
  0
VERTEX
  8
0
 10
30.118750
 20
1906.706250
 42
0.048861
  0
VERTEX
  8
0
 10
29.149251
 20
1906.927234
 42
0.031626
  0
VERTEX
  8
0
 10
28.000000
 20
1907.000000
 42
-0.031626
  0
VERTEX
  8
0
 10
26.850749
 20
1907.072766
 42
-0.048861
  0
VERTEX
  8
0
 10
25.881250
 20
1907.293750
 42
-0.062710
  0
VERTEX
  8
0
 10
25.209557
 20
1907.615738
 42
-0.254951
  0
VERTEX
  8
0
 10
25.000000
 20
1908.000000
 42
0.222681
  0
VERTEX
  8
0
 10
24.820624
 20
1908.382793
 42
0.076538
  0
VERTEX
  8
0
 10
24.282961
 20
1908.706250
 42
0.058208
  0
VERTEX
  8
0
 10
23.493720
 20
1908.926830
 42
0.039081
  0
VERTEX
  8
0
 10
22.559017
 20
1909.000000
 42
-0.037634
  0
VERTEX
  8
0
 10
21.579340
 20
1909.073842
 42
-0.041396
  0
VERTEX
  8
0
 10
20.653525
 20
1909.293750
 42
-0.045439
  0
VERTEX
  8
0
 10
19.906663
 20
1909.615492
 42
-0.130646
  0
VERTEX
  8
0
 10
19.500000
 20
1910.000000
 42
0.159713
  0
VERTEX
  8
0
 10
19.041340
 20
1910.386693
 42
0.035556
  0
VERTEX
  8
0
 10
18.052725
 20
1910.706250
 42
0.033489
  0
VERTEX
  8
0
 10
16.803639
 20
1910.926586
 42
0.026918
  0
VERTEX
  8
0
 10
15.440983
 20
1911.000000
 42
-0.027497
  0
VERTEX
  8
0
 10
14.122516
 20
1911.072564
 42
-0.043243
  0
VERTEX
  8
0
 10
13.010789
 20
1911.293750
 42
-0.053437
  0
VERTEX
  8
0
 10
12.229636
 20
1911.614478
 42
-0.275259
  0
VERTEX
  8
0
 10
12.000000
 20
1912.000000
 42
0.339565
  0
VERTEX
  8
0
 10
11.696775
 20
1912.395008
 42
0.024068
  0
VERTEX
  8
0
 10
10.250000
 20
1912.708333
 42
0.025878
  0
VERTEX
  8
0
 10
8.316313
 20
1912.928566
 42
0.015416
  0
VERTEX
  8
0
 10
6.000000
 20
1913.000000
 42
0.000000
  0
VERTEX
  8
0
 10
0.000000
 20
1913.000000
 42
0.000000
  0
SEQEND
  0
POLYLINE
  8
0
 66
1
 70
1
  0
VERTEX
  8
0
 10
122.070160
 20
1698.739540
 42
-0.016429
  0
VERTEX
  8
0
 10
123.575981
 20
1698.214699
 42
-0.024779
  0
VERTEX
  8
0
 10
124.845609
 20
1697.651098
 42
-0.022016
  0
VERTEX
  8
0
 10
125.800359
 20
1697.115358
 42
-0.259453
  0
VERTEX
  8
0
 10
126.000000
 20
1696.756521
 42
0.235321
  0
VERTEX
  8
0
 10
126.144474
 20
1696.466548
 42
0.071297
  0
VERTEX
  8
0
 10
126.587500
 20
1696.222228
 42
0.054474
  0
VERTEX
  8
0
 10
127.234020
 20
1696.055225
 42
0.036002
  0
VERTEX
  8
0
 10
128.000000
 20
1696.000000
 42
-0.035971
  0
VERTEX
  8
0
 10
128.765981
 20
1695.944823
 42
-0.054436
  0
VERTEX
  8
0
 10
129.412500
 20
1695.777958
 42
-0.071241
  0
VERTEX
  8
0
 10
129.855554
 20
1695.533846
 42
-0.235453
  0
VERTEX
  8
0
 10
130.000000
 20
1695.244111
 42
0.224347
  0
VERTEX
  8
0
 10
130.175755
 20
1694.872122
 42
0.024600
  0
VERTEX
  8
0
 10
130.954688
 20
1694.293582
 42
0.026279
  0
VERTEX
  8
0
 10
132.004991
 20
1693.668135
 42
0.018256
  0
VERTEX
  8
0
 10
133.250000
 20
1693.069728
 42
-0.024707
  0
VERTEX
  8
0
 10
134.612845
 20
1692.392911
 42
-0.019391
  0
VERTEX
  8
0
 10
136.020393
 20
1691.531641
 42
-0.019780
  0
VERTEX
  8
0
 10
137.268925
 20
1690.626186
 42
-0.044737
  0
VERTEX
  8
0
 10
138.117295
 20
1689.825616
 42
0.017639
  0
VERTEX
  8
0
 10
138.782050
 20
1689.126541
 42
0.022791
  0
VERTEX
  8
0
 10
139.442009
 20
1688.536275
 42
0.021429
  0
VERTEX
  8
0
 10
140.022676
 20
1688.102782
 42
0.150735
  0
VERTEX
  8
0
 10
140.355864
 20
1688.000000
 42
-0.163448
  0
VERTEX
  8
0
 10
141.226736
 20
1687.707502
 42
-0.011269
  0
VERTEX
  8
0
 10
143.288006
 20
1686.072443
 42
-0.012039
  0
VERTEX
  8
0
 10
146.078028
 20
1683.639129
 42
-0.004175
  0
VERTEX
  8
0
 10
149.987195
 20
1680.000000
 42
0.003081
  0
VERTEX
  8
0
 10
155.258757
 20
1675.071022
 42
0.004441
  0
VERTEX
  8
0
 10
159.987764
 20
1670.780847
 42
0.004975
  0
VERTEX
  8
0
 10
164.300947
 20
1667.013521
 42
0.006570
  0
VERTEX
  8
0
 10
168.309426
 20
1663.672314
 42
-0.006808
  0
VERTEX
  8
0
 10
170.468372
 20
1661.871020
 42
-0.003672
  0
VERTEX
  8
0
 10
173.081159
 20
1659.596519
 42
-0.003656
  0
VERTEX
  8
0
 10
175.709772
 20
1657.239651
 42
-0.005742
  0
VERTEX
  8
0
 10
177.930063
 20
1655.172314
 42
0.001780
  0
VERTEX
  8
0
 10
180.338957
 20
1652.893469
 42
0.000729
  0
VERTEX
  8
0
 10
183.624675
 20
1649.816242
 42
0.000722
  0
VERTEX
  8
0
 10
187.162501
 20
1646.522123
 42
0.000924
  0
VERTEX
  8
0
 10
190.429705
 20
1643.500000
 42
-0.001198
  0
VERTEX
  8
0
 10
193.908318
 20
1640.278790
 42
-0.000674
  0
VERTEX
  8
0
 10
198.115962
 20
1636.353125
 42
-0.000673
  0
VERTEX
  8
0
 10
202.352246
 20
1632.379332
 42
-0.001102
  0
VERTEX
  8
0
 10
205.929268
 20
1629.000000
 42
0.000795
  0
VERTEX
  8
0
 10
209.574669
 20
1625.551829
 42
0.000440
  0
VERTEX
  8
0
 10
214.035551
 20
1621.353125
 42
0.000439
  0
VERTEX
  8
0
 10
218.562303
 20
1617.107405
 42
0.000707
  0
VERTEX
  8
0
 10
222.426201
 20
1613.500000
 42
-0.004838
  0
VERTEX
  8
0
 10
230.297149
 20
1606.028884
 42
-0.002371
  0
VERTEX
  8
0
 10
240.184796
 20
1596.368703
 42
-0.001850
  0
VERTEX
  8
0
 10
249.559020
 20
1587.054163
 42
-0.014680
  0
VERTEX
  8
0
 10
253.750000
 20
1582.605087
 42
-0.018624
  0
VERTEX
  8
0
 10
254.611398
 20
1581.559125
 42
-0.022314
  0
VERTEX
  8
0
 10
255.339062
 20
1580.511471
 42
-0.021758
  0
VERTEX
  8
0
 10
255.865951
 20
1579.588974
 42
-0.119421
  0
VERTEX
  8
0
 10
256.000000
 20
1579.035733
 42
0.095508
  0
VERTEX
  8
0
 10
256.076210
 20
1578.640403
 42
0.097045
  0
VERTEX
  8
0
 10
256.293750
 20
1578.304247
 42
0.098731
  0
VERTEX
  8
0
 10
256.618413
 20
1578.079201
 42
0.102684
  0
VERTEX
  8
0
 10
257.000000
 20
1578.000000
 42
-0.148195
  0
VERTEX
  8
0
 10
257.381354
 20
1577.884432
 42
-0.098894
  0
VERTEX
  8
0
 10
257.706250
 20
1577.559375
 42
-0.082425
  0
VERTEX
  8
0
 10
257.925306
 20
1577.073457
 42
-0.064853
  0
VERTEX
  8
0
 10
258.000000
 20
1576.500000
 42
0.064853
  0
VERTEX
  8
0
 10
258.074694
 20
1575.926543
 42
0.082425
  0
VERTEX
  8
0
 10
258.293750
 20
1575.440625
 42
0.098894
  0
VERTEX
  8
0
 10
258.618646
 20
1575.115568
 42
0.148195
  0
VERTEX
  8
0
 10
259.000000
 20
1575.000000
 42
-0.191087
  0
VERTEX
  8
0
 10
259.381882
 20
1574.848523
 42
-0.088204
  0
VERTEX
  8
0
 10
259.706250
 20
1574.412500
 42
-0.068025
  0
VERTEX
  8
0
 10
259.926307
 20
1573.765418
 42
-0.048028
  0
VERTEX
  8
0
 10
260.000000
 20
1573.000000
 42
0.048028
  0
VERTEX
  8
0
 10
260.073693
 20
1572.234582
 42
0.068025
  0
VERTEX
  8
0
 10
260.293750
 20
1571.587500
 42
0.088204
  0
VERTEX
  8
0
 10
260.618118
 20
1571.151477
 42
0.191087
  0
VERTEX
  8
0
 10
261.000000
 20
1571.000000
 42
-0.226478
  0
VERTEX
  8
0
 10
261.382936
 20
1570.817169
 42
-0.074992
  0
VERTEX
  8
0
 10
261.706250
 20
1570.265625
 42
-0.057076
  0
VERTEX
  8
0
 10
261.926884
 20
1569.457356
 42
-0.038131
  0
VERTEX
  8
0
 10
262.000000
 20
1568.500000
 42
0.038131
  0
VERTEX
  8
0
 10
262.073116
 20
1567.542644
 42
0.057076
  0
VERTEX
  8
0
 10
262.293750
 20
1566.734375
 42
0.074992
  0
VERTEX
  8
0
 10
262.617064
 20
1566.182831
 42
0.226478
  0
VERTEX
  8
0
 10
263.000000
 20
1566.000000
 42
-0.254951
  0
VERTEX
  8
0
 10
263.384262
 20
1565.790443
 42
-0.062710
  0
VERTEX
  8
0
 10
263.706250
 20
1565.118750
 42
-0.048861
  0
VERTEX
  8
0
 10
263.927234
 20
1564.149251
 42
-0.031626
  0
VERTEX
  8
0
 10
264.000000
 20
1563.000000
 42
0.031626
  0
VERTEX
  8
0
 10
264.072766
 20
1561.850749
 42
0.048861
  0
VERTEX
  8
0
 10
264.293750
 20
1560.881250
 42
0.062710
  0
VERTEX
  8
0
 10
264.615738
 20
1560.209557
 42
0.254951
  0
VERTEX
  8
0
 10
265.000000
 20
1560.000000
 42
-0.368504
  0
VERTEX
  8
0
 10
265.423816
 20
1559.638562
 42
-0.013417
  0
VERTEX
  8
0
 10
265.723684
 20
1557.375000
 42
-0.017647
  0
VERTEX
  8
0
 10
265.933788
 20
1554.360608
 42
-0.008575
  0
VERTEX
  8
0
 10
266.000000
 20
1550.500000
 42
-0.008575
  0
VERTEX
  8
0
 10
265.933788
 20
1546.639392
 42
-0.017647
  0
VERTEX
  8
0
 10
265.723684
 20
1543.625000
 42
-0.013417
  0
VERTEX
  8
0
 10
265.423816
 20
1541.361438
 42
-0.368504
  0
VERTEX
  8
0
 10
265.000000
 20
1541.000000
 42
0.254951
  0
VERTEX
  8
0
 10
264.615738
 20
1540.790443
 42
0.062710
  0
VERTEX
  8
0
 10
264.293750
 20
1540.118750
 42
0.048861
  0
VERTEX
  8
0
 10
264.072766
 20
1539.149251
 42
0.031626
  0
VERTEX
  8
0
 10
264.000000
 20
1538.000000
 42
-0.031626
  0
VERTEX
  8
0
 10
263.927234
 20
1536.850749
 42
-0.048861
  0
VERTEX
  8
0
 10
263.706250
 20
1535.881250
 42
-0.062710
  0
VERTEX
  8
0
 10
263.384262
 20
1535.209557
 42
-0.254951
  0
VERTEX
  8
0
 10
263.000000
 20
1535.000000
 42
0.254951
  0
VERTEX
  8
0
 10
262.615738
 20
1534.790443
 42
0.062710
  0
VERTEX
  8
0
 10
262.293750
 20
1534.118750
 42
0.048861
  0
VERTEX
  8
0
 10
262.072766
 20
1533.149251
 42
0.031626
  0
VERTEX
  8
0
 10
262.000000
 20
1532.000000
 42
-0.026188
  0
VERTEX
  8
0
 10
261.939748
 20
1530.850429
 42
-0.041399
  0
VERTEX
  8
0
 10
261.755888
 20
1529.881250
 42
-0.050287
  0
VERTEX
  8
0
 10
261.489762
 20
1529.196582
 42
-0.282037
  0
VERTEX
  8
0
 10
261.168980
 20
1529.000000
 42
0.193066
  0
VERTEX
  8
0
 10
260.761879
 20
1528.836720
 42
0.030557
  0
VERTEX
  8
0
 10
260.165246
 20
1528.192188
 42
0.030119
  0
VERTEX
  8
0
 10
259.523118
 20
1527.303134
 42
0.022236
  0
VERTEX
  8
0
 10
258.918980
 20
1526.250000
 42
-0.010786
  0
VERTEX
  8
0
 10
258.302339
 20
1525.115674
 42
-0.010046
  0
VERTEX
  8
0
 10
257.623075
 20
1523.981446
 42
-0.010079
  0
VERTEX
  8
0
 10
256.978978
 20
1522.998003
 42
-0.033225
  0
VERTEX
  8
0
 10
256.500000
 20
1522.388964
 42
0.011314
  0
VERTEX
  8
0
 10
255.937808
 20
1521.735188
 42
0.001982
  0
VERTEX
  8
0
 10
254.912500
 20
1520.476656
 42
0.002149
  0
VERTEX
  8
0
 10
253.721890
 20
1518.990310
 42
0.001928
  0
VERTEX
  8
0
 10
252.500000
 20
1517.439158
 42
-0.012678
  0
VERTEX
  8
0
 10
250.898919
 20
1515.494154
 42
-0.003956
  0
VERTEX
  8
0
 10
248.400610
 20
1512.657032
 42
-0.003951
  0
VERTEX
  8
0
 10
245.558848
 20
1509.530954
 42
-0.004352
  0
VERTEX
  8
0
 10
242.757397
 20
1506.550194
 42
0.000050
  0
VERTEX
  8
0
 10
240.065229
 20
1503.734646
 42
0.000062
  0
VERTEX
  8
0
 10
237.552636
 20
1501.105727
 42
0.000051
  0
VERTEX
  8
0
 10
235.441185
 20
1498.895526
 42
0.000448
  0
VERTEX
  8
0
 10
234.507397
 20
1497.916112
 42
0.021494
  0
VERTEX
  8
0
 10
233.930357
 20
1497.255103
 42
0.025044
  0
VERTEX
  8
0
 10
233.442798
 20
1496.578791
 42
0.025200
  0
VERTEX
  8
0
 10
233.093314
 20
1495.974240
 42
0.118998
  0
VERTEX
  8
0
 10
233.000000
 20
1495.587712
 42
-0.172280
  0
VERTEX
  8
0
 10
232.840920
 20
1495.139726
 42
-0.008662
  0
VERTEX
  8
0
 10
231.825000
 20
1493.932960
 42
-0.013066
  0
VERTEX
  8
0
 10
230.532545
 20
1492.526548
 42
-0.009015
  0
VERTEX
  8
0
 10
229.000000
 20
1491.000000
 42
0.008205
  0
VERTEX
  8
0
 10
227.467353
 20
1489.478287
 42
0.012043
  0
VERTEX
  8
0
 10
226.175000
 20
1488.086816
 42
0.007471
  0
VERTEX
  8
0
 10
225.149328
 20
1486.892206
 42
0.175395
  0
VERTEX
  8
0
 10
225.000000
 20
1486.479610
 42
-0.167465
  0
VERTEX
  8
0
 10
224.864336
 20
1486.085920
 42
-0.011954
  0
VERTEX
  8
0
 10
224.118750
 20
1485.178134
 42
-0.015772
  0
VERTEX
  8
0
 10
223.149233
 20
1484.122831
 42
-0.011210
  0
VERTEX
  8
0
 10
222.000000
 20
1483.000000
 42
0.015666
  0
VERTEX
  8
0
 10
220.851124
 20
1481.857332
 42
0.020606
  0
VERTEX
  8
0
 10
219.881250
 20
1480.741589
 42
0.018565
  0
VERTEX
  8
0
 10
219.161610
 20
1479.769444
 42
0.151164
  0
VERTEX
  8
0
 10
219.000000
 20
1479.247104
 42
-0.141784
  0
VERTEX
  8
0
 10
218.845692
 20
1478.713878
 42
-0.016611
  0
VERTEX
  8
0
 10
218.142619
 20
1477.678663
 42
-0.018850
  0
VERTEX
  8
0
 10
217.199019
 20
1476.481527
 42
-0.014380
  0
VERTEX
  8
0
 10
216.081256
 20
1475.242442
 42
0.014903
  0
VERTEX
  8
0
 10
214.866206
 20
1473.892678
 42
0.011709
  0
VERTEX
  8
0
 10
213.628837
 20
1472.361598
 42
0.011880
  0
VERTEX
  8
0
 10
212.544916
 20
1470.882834
 42
0.028365
  0
VERTEX
  8
0
 10
211.831256
 20
1469.724170
 42
-0.025638
  0
VERTEX
  8
0
 10
210.412406
 20
1467.392220
 42
-0.010569
  0
VERTEX
  8
0
 10
208.266466
 20
1464.379980
 42
-0.010619
  0
VERTEX
  8
0
 10
205.901718
 20
1461.341694
 42
-0.017186
  0
VERTEX
  8
0
 10
203.750000
 20
1458.873409
 42
0.024245
  0
VERTEX
  8
0
 10
203.080169
 20
1458.082776
 42
0.026845
  0
VERTEX
  8
0
 10
202.514062
 20
1457.256564
 42
0.027615
  0
VERTEX
  8
0
 10
202.112450
 20
1456.506903
 42
0.109586
  0
VERTEX
  8
0
 10
202.000000
 20
1456.000000
 42
-0.099038
  0
VERTEX
  8
0
 10
201.923658
 20
1455.618362
 42
-0.097945
  0
VERTEX
  8
0
 10
201.706250
 20
1455.293750
 42
-0.097945
  0
VERTEX
  8
0
 10
201.381638
 20
1455.076342
 42
-0.099038
  0
VERTEX
  8
0
 10
201.000000
 20
1455.000000
 42
0.099968
  0
VERTEX
  8
0
 10
200.618375
 20
1454.922929
 42
0.098159
  0
VERTEX
  8
0
 10
200.293750
 20
1454.703576
 42
0.097723
  0
VERTEX
  8
0
 10
200.076309
 20
1454.376024
 42
0.098116
  0
VERTEX
  8
0
 10
200.000000
 20
1453.990898
 42
-0.140186
  0
VERTEX
  8
0
 10
199.839046
 20
1453.428107
 42
-0.017253
  0
VERTEX
  8
0
 10
199.118750
 20
1452.356077
 42
-0.019310
  0
VERTEX
  8
0
 10
198.148845
 20
1451.118507
 42
-0.014845
  0
VERTEX
  8
0
 10
197.000000
 20
1449.842584
 42
0.013048
  0
VERTEX
  8
0
 10
195.851013
 20
1448.575687
 42
0.017484
  0
VERTEX
  8
0
 10
194.881250
 20
1447.365541
 42
0.014723
  0
VERTEX
  8
0
 10
194.151264
 20
1446.323667
 42
0.146463
  0
VERTEX
  8
0
 10
194.000000
 20
1445.818353
 42
-0.156882
  0
VERTEX
  8
0
 10
193.834877
 20
1445.305038
 42
-0.012794
  0
VERTEX
  8
0
 10
192.971875
 20
1444.165183
 42
-0.016204
  0
VERTEX
  8
0
 10
191.840657
 20
1442.838475
 42
-0.011741
  0
VERTEX
  8
0
 10
190.500000
 20
1441.433333
 42
0.011742
  0
VERTEX
  8
0
 10
189.159344
 20
1440.028188
 42
0.016205
  0
VERTEX
  8
0
 10
188.028125
 20
1438.701470
 42
0.012795
  0
VERTEX
  8
0
 10
187.165128
 20
1437.561604
 42
0.156879
  0
VERTEX
  8
0
 10
187.000000
 20
1437.048266
 42
-0.154304
  0
VERTEX
  8
0
 10
186.833494
 20
1436.521574
 42
-0.010644
  0
VERTEX
  8
0
 10
185.898438
 20
1435.248970
 42
-0.014365
  0
VERTEX
  8
0
 10
184.686520
 20
1433.761559
 42
-0.010267
  0
VERTEX
  8
0
 10
183.250000
 20
1432.165862
 42
0.006022
  0
VERTEX
  8
0
 10
181.637196
 20
1430.404644
 42
0.004425
  0
VERTEX
  8
0
 10
179.890472
 20
1428.415278
 42
0.004472
  0
VERTEX
  8
0
 10
178.270980
 20
1426.503239
 42
0.009925
  0
VERTEX
  8
0
 10
177.079268
 20
1425.011197
 42
-0.014065
  0
VERTEX
  8
0
 10
175.820799
 20
1423.462048
 42
-0.005094
  0
VERTEX
  8
0
 10
173.951028
 20
1421.332564
 42
-0.005047
  0
VERTEX
  8
0
 10
171.855665
 20
1419.041580
 42
-0.005988
  0
VERTEX
  8
0
 10
169.829268
 20
1416.921888
 42
0.009384
  0
VERTEX
  8
0
 10
167.979126
 20
1414.960061
 42
0.013411
  0
VERTEX
  8
0
 10
166.418597
 20
1413.146409
 42
0.009284
  0
VERTEX
  8
0
 10
165.200520
 20
1411.593456
 42
0.163064
  0
VERTEX
  8
0
 10
165.000000
 20
1410.994953
 42
-0.099556
  0
VERTEX
  8
0
 10
164.923639
 20
1410.615249
 42
-0.098065
  0
VERTEX
  8
0
 10
164.706250
 20
1410.292268
 42
-0.097822
  0
VERTEX
  8
0
 10
164.381646
 20
1410.075938
 42
-0.098522
  0
VERTEX
  8
0
 10
164.000000
 20
1410.000000
 42
0.104683
  0
VERTEX
  8
0
 10
163.618439
 20
1409.919229
 42
0.099103
  0
VERTEX
  8
0
 10
163.293750
 20
1409.689982
 42
0.096520
  0
VERTEX
  8
0
 10
163.076137
 20
1409.347481
 42
0.093666
  0
VERTEX
  8
0
 10
163.000000
 20
1408.944620
 42
-0.169866
  0
VERTEX
  8
0
 10
162.775872
 20
1408.303937
 42
-0.008132
  0
VERTEX
  8
0
 10
161.310937
 20
1406.526463
 42
-0.012537
  0
VERTEX
  8
0
 10
159.453063
 20
1404.453111
 42
-0.008631
  0
VERTEX
  8
0
 10
157.250000
 20
1402.194620
 42
0.005174
  0
VERTEX
  8
0
 10
154.839867
 20
1399.757781
 42
0.004438
  0
VERTEX
  8
0
 10
152.352934
 20
1397.144670
 42
0.004473
  0
VERTEX
  8
0
 10
150.136404
 20
1394.730963
 42
0.012781
  0
VERTEX
  8
0
 10
148.653603
 20
1393.000000
 42
-0.015965
  0
VERTEX
  8
0
 10
141.290722
 20
1384.514800
 42
-0.004466
  0
VERTEX
  8
0
 10
129.242725
 20
1371.725416
 42
-0.004573
  0
VERTEX
  8
0
 10
116.869421
 20
1359.057530
 42
-0.013846
  0
VERTEX
  8
0
 10
108.134510
 20
1350.750000
 42
-0.016301
  0
VERTEX
  8
0
 10
106.429923
 20
1349.314138
 42
-0.020400
  0
VERTEX
  8
0
 10
104.755063
 20
1348.101562
 42
-0.019051
  0
VERTEX
  8
0
 10
103.296628
 20
1347.211896
 42
-0.128107
  0
VERTEX
  8
0
 10
102.483174
 20
1347.000000
 42
0.065624
  0
VERTEX
  8
0
 10
101.916177
 20
1346.925261
 42
0.082965
  0
VERTEX
  8
0
 10
101.435682
 20
1346.706250
 42
0.099126
  0
VERTEX
  8
0
 10
101.114290
 20
1346.381349
 42
0.146628
  0
VERTEX
  8
0
 10
101.000000
 20
1346.000000
 42
-0.191087
  0
VERTEX
  8
0
 10
100.848523
 20
1345.618118
 42
-0.088204
  0
VERTEX
  8
0
 10
100.412500
 20
1345.293750
 42
-0.068025
  0
VERTEX
  8
0
 10
99.765418
 20
1345.073693
 42
-0.048028
  0
VERTEX
  8
0
 10
99.000000
 20
1345.000000
 42
0.048028
  0
VERTEX
  8
0
 10
98.234582
 20
1344.926307
 42
0.068025
  0
VERTEX
  8
0
 10
97.587500
 20
1344.706250
 42
0.088204
  0
VERTEX
  8
0
 10
97.151477
 20
1344.381882
 42
0.191087
  0
VERTEX
  8
0
 10
97.000000
 20
1344.000000
 42
-0.191087
  0
VERTEX
  8
0
 10
96.848523
 20
1343.618118
 42
-0.088204
  0
VERTEX
  8
0
 10
96.412500
 20
1343.293750
 42
-0.068025
  0
VERTEX
  8
0
 10
95.765418
 20
1343.073693
 42
-0.048028
  0
VERTEX
  8
0
 10
95.000000
 20
1343.000000
 42
0.048028
  0
VERTEX
  8
0
 10
94.234582
 20
1342.926307
 42
0.068025
  0
VERTEX
  8
0
 10
93.587500
 20
1342.706250
 42
0.088204
  0
VERTEX
  8
0
 10
93.151477
 20
1342.381882
 42
0.191087
  0
VERTEX
  8
0
 10
93.000000
 20
1342.000000
 42
-0.295869
  0
VERTEX
  8
0
 10
92.748945
 20
1341.612873
 42
-0.043820
  0
VERTEX
  8
0
 10
91.825000
 20
1341.293750
 42
-0.037669
  0
VERTEX
  8
0
 10
90.532944
 20
1341.072390
 42
-0.023598
  0
VERTEX
  8
0
 10
89.000000
 20
1341.000000
 42
-0.023598
  0
VERTEX
  8
0
 10
87.467056
 20
1341.072390
 42
-0.037669
  0
VERTEX
  8
0
 10
86.175000
 20
1341.293750
 42
-0.043820
  0
VERTEX
  8
0
 10
85.251055
 20
1341.612873
 42
-0.295869
  0
VERTEX
  8
0
 10
85.000000
 20
1342.000000
 42
0.154765
  0
VERTEX
  8
0
 10
84.879052
 20
1342.381386
 42
0.097780
  0
VERTEX
  8
0
 10
84.538393
 20
1342.706250
 42
0.080164
  0
VERTEX
  8
0
 10
84.029450
 20
1342.925485
 42
0.061768
  0
VERTEX
  8
0
 10
83.428571
 20
1343.000000
 42
-0.198307
  0
VERTEX
  8
0
 10
80.937836
 20
1344.028297
 42
-0.036721
  0
VERTEX
  8
0
 10
77.620795
 20
1347.853885
 42
-0.038859
  0
VERTEX
  8
0
 10
74.835998
 20
1352.263979
 42
-0.121988
  0
VERTEX
  8
0
 10
74.000000
 20
1355.639547
 42
0.040456
  0
VERTEX
  8
0
 10
73.926752
 20
1356.543338
 42
0.059818
  0
VERTEX
  8
0
 10
73.706250
 20
1357.306617
 42
0.078668
  0
VERTEX
  8
0
 10
73.382605
 20
1357.825444
 42
0.217340
  0
VERTEX
  8
0
 10
73.000000
 20
1358.000000
 42
-0.308946
  0
VERTEX
  8
0
 10
72.611648
 20
1358.265280
 42
-0.037703
  0
VERTEX
  8
0
 10
72.293750
 20
1359.304539
 42
-0.034160
  0
VERTEX
  8
0
 10
72.072294
 20
1360.738865
 42
-0.021227
  0
VERTEX
  8
0
 10
72.000000
 20
1362.440983
 42
0.020930
  0
VERTEX
  8
0
 10
71.926887
 20
1364.186816
 42
0.027868
  0
VERTEX
  8
0
 10
71.706250
 20
1365.758975
 42
0.027581
  0
VERTEX
  8
0
 10
71.388891
 20
1367.000298
 42
0.179846
  0
VERTEX
  8
0
 10
71.000000
 20
1367.500000
 42
-0.258375
  0
VERTEX
  8
0
 10
70.069518
 20
1369.157518
 42
-0.001178
  0
VERTEX
  8
0
 10
69.997432
 20
1389.838638
 42
-0.001406
  0
VERTEX
  8
0
 10
70.031908
 20
1410.348242
 42
-0.197619
  0
VERTEX
  8
0
 10
70.949077
 20
1412.550000
 42
0.171683
  0
VERTEX
  8
0
 10
71.344466
 20
1413.379370
 42
0.003962
  0
VERTEX
  8
0
 10
71.771590
 20
1417.774063
 42
0.008367
  0
VERTEX
  8
0
 10
72.149063
 20
1422.991130
 42
0.005518
  0
VERTEX
  8
0
 10
72.416375
 20
1429.000000
 42
-0.001856
  0
VERTEX
  8
0
 10
72.686041
 20
1436.258915
 42
-0.000945
  0
VERTEX
  8
0
 10
73.076104
 20
1445.381250
 42
-0.000938
  0
VERTEX
  8
0
 10
73.513809
 20
1454.787629
 42
-0.001406
  0
VERTEX
  8
0
 10
73.934547
 20
1463.000000
 42
-0.000453
  0
VERTEX
  8
0
 10
74.657333
 20
1476.151043
 42
-0.000463
  0
VERTEX
  8
0
 10
75.398713
 20
1489.203673
 42
-0.000304
  0
VERTEX
  8
0
 10
76.391986
 20
1506.229424
 42
-0.000076
  0
VERTEX
  8
0
 10
78.033310
 20
1534.000000
 42
0.000561
  0
VERTEX
  8
0
 10
79.252598
 20
1554.975429
 42
0.000901
  0
VERTEX
  8
0
 10
80.240403
 20
1572.871916
 42
0.000840
  0
VERTEX
  8
0
 10
81.210561
 20
1591.635594
 42
0.000414
  0
VERTEX
  8
0
 10
82.384470
 20
1615.500000
 42
-0.001988
  0
VERTEX
  8
0
 10
84.214590
 20
1650.460221
 42
-0.015344
  0
VERTEX
  8
0
 10
85.637896
 20
1666.785523
 42
-0.032808
  0
VERTEX
  8
0
 10
87.577116
 20
1677.249621
 42
-0.042096
  0
VERTEX
  8
0
 10
90.776406
 20
1686.500000
 42
-0.023196
  0
VERTEX
  8
0
 10
92.569406
 20
1690.087282
 42
-0.039204
  0
VERTEX
  8
0
 10
94.433398
 20
1692.881734
 42
-0.035663
  0
VERTEX
  8
0
 10
96.835189
 20
1695.523150
 42
-0.015752
  0
VERTEX
  8
0
 10
100.352532
 20
1698.671384
 42
-0.139700
  0
VERTEX
  8
0
 10
103.580593
 20
1700.116718
 42
-0.035072
  0
VERTEX
  8
0
 10
109.389229
 20
1700.542986
 42
-0.035072
  0
VERTEX
  8
0
 10
115.975458
 20
1700.101195
 42
-0.041380
  0
SEQEND
  0
POLYLINE
  8
0
 66
1
 70
1
  0
VERTEX
  8
0
 10
291.500000
 20
1387.254946
 42
-0.066077
  0
VERTEX
  8
0
 10
296.681507
 20
1384.626064
 42
-0.056585
  0
VERTEX
  8
0
 10
301.306653
 20
1380.614061
 42
-0.048022
  0
VERTEX
  8
0
 10
305.524361
 20
1375.034141
 42
-0.028389
  0
VERTEX
  8
0
 10
309.490019
 20
1367.679489
 42
-0.006965
  0
VERTEX
  8
0
 10
311.174858
 20
1363.945098
 42
-0.007882
  0
VERTEX
  8
0
 10
312.684504
 20
1360.315225
 42
-0.007276
  0
VERTEX
  8
0
 10
313.872355
 20
1357.195618
 42
-0.042393
  0
VERTEX
  8
0
 10
314.331665
 20
1355.500000
 42
0.007555
  0
VERTEX
  8
0
 10
314.620611
 20
1354.036340
 42
0.003101
  0
VERTEX
  8
0
 10
315.054853
 20
1352.059375
 42
0.003067
  0
VERTEX
  8
0
 10
315.547265
 20
1349.942533
 42
0.003927
  0
VERTEX
  8
0
 10
316.027867
 20
1348.000000
 42
-0.009638
  0
VERTEX
  8
0
 10
316.505942
 20
1345.968427
 42
-0.006028
  0
VERTEX
  8
0
 10
316.990899
 20
1343.573438
 42
-0.006049
  0
VERTEX
  8
0
 10
317.411813
 20
1341.201595
 42
-0.010952
  0
VERTEX
  8
0
 10
317.690088
 20
1339.250000
 42
0.019610
  0
VERTEX
  8
0
 10
317.951161
 20
1337.621308
 42
0.030587
  0
VERTEX
  8
0
 10
318.315364
 20
1336.248437
 42
0.031067
  0
VERTEX
  8
0
 10
318.721407
 20
1335.239408
 42
0.289206
  0
VERTEX
  8
0
 10
319.100694
 20
1335.000000
 42
-0.307342
  0
VERTEX
  8
0
 10
319.449797
 20
1334.763028
 42
-0.038452
  0
VERTEX
  8
0
 10
319.735829
 20
1333.842336
 42
-0.034590
  0
VERTEX
  8
0
 10
319.934976
 20
1332.569479
 42
-0.021515
  0
VERTEX
  8
0
 10
320.000000
 20
1331.059017
 42
0.023552
  0
VERTEX
  8
0
 10
320.073250
 20
1329.504790
 42
0.030444
  0
VERTEX
  8
0
 10
320.293750
 20
1328.094150
 42
0.031293
  0
VERTEX
  8
0
 10
320.612194
 20
1326.980410
 42
0.170670
  0
VERTEX
  8
0
 10
321.000000
 20
1326.500000
 42
-0.170670
  0
VERTEX
  8
0
 10
321.387806
 20
1326.019590
 42
-0.031293
  0
VERTEX
  8
0
 10
321.706250
 20
1324.905850
 42
-0.030444
  0
VERTEX
  8
0
 10
321.926750
 20
1323.495210
 42
-0.023552
  0
VERTEX
  8
0
 10
322.000000
 20
1321.940983
 42
0.023957
  0
VERTEX
  8
0
 10
322.072405
 20
1320.430680
 42
0.038191
  0
VERTEX
  8
0
 10
322.293750
 20
1319.157664
 42
0.044731
  0
VERTEX
  8
0
 10
322.613040
 20
1318.248983
 42
0.293924
  0
VERTEX
  8
0
 10
323.000000
 20
1318.000000
 42
-0.295869
  0
VERTEX
  8
0
 10
323.387127
 20
1317.748945
 42
-0.043820
  0
VERTEX
  8
0
 10
323.706250
 20
1316.825000
 42
-0.037669
  0
VERTEX
  8
0
 10
323.927610
 20
1315.532944
 42
-0.023598
  0
VERTEX
  8
0
 10
324.000000
 20
1314.000000
 42
0.023598
  0
VERTEX
  8
0
 10
324.072390
 20
1312.467056
 42
0.037669
  0
VERTEX
  8
0
 10
324.293750
 20
1311.175000
 42
0.043820
  0
VERTEX
  8
0
 10
324.612873
 20
1310.251055
 42
0.295869
  0
VERTEX
  8
0
 10
325.000000
 20
1310.000000
 42
-0.293924
  0
VERTEX
  8
0
 10
325.386960
 20
1309.751017
 42
-0.044731
  0
VERTEX
  8
0
 10
325.706250
 20
1308.842336
 42
-0.038191
  0
VERTEX
  8
0
 10
325.927595
 20
1307.569320
 42
-0.023957
  0
VERTEX
  8
0
 10
326.000000
 20
1306.059017
 42
0.023552
  0
VERTEX
  8
0
 10
326.073250
 20
1304.504790
 42
0.030444
  0
VERTEX
  8
0
 10
326.293750
 20
1303.094150
 42
0.031293
  0
VERTEX
  8
0
 10
326.612194
 20
1301.980410
 42
0.170670
  0
VERTEX
  8
0
 10
327.000000
 20
1301.500000
 42
-0.170670
  0
VERTEX
  8
0
 10
327.387806
 20
1301.019590
 42
-0.031293
  0
VERTEX
  8
0
 10
327.706250
 20
1299.905850
 42
-0.030444
  0
VERTEX
  8
0
 10
327.926750
 20
1298.495210
 42
-0.023552
  0
VERTEX
  8
0
 10
328.000000
 20
1296.940983
 42
0.021515
  0
VERTEX
  8
0
 10
328.065024
 20
1295.430521
 42
0.034590
  0
VERTEX
  8
0
 10
328.264171
 20
1294.157664
 42
0.038452
  0
VERTEX
  8
0
 10
328.550203
 20
1293.236972
 42
0.307342
  0
VERTEX
  8
0
 10
328.899306
 20
1293.000000
 42
-0.291988
  0
VERTEX
  8
0
 10
329.283185
 20
1292.754930
 42
-0.028179
  0
VERTEX
  8
0
 10
329.710895
 20
1291.678125
 42
-0.028824
  0
VERTEX
  8
0
 10
330.103994
 20
1290.224552
 42
-0.018448
  0
VERTEX
  8
0
 10
330.399306
 20
1288.500000
 42
0.000000
  0
VERTEX
  8
0
 10
330.672760
 20
1286.451466
 42
0.011158
  0
VERTEX
  8
0
 10
331.000000
 20
1284.000000
 42
0.000000
  0
VERTEX
  8
0
 10
331.327240
 20
1281.548534
 42
0.006757
  0
VERTEX
  8
0
 10
331.600694
 20
1279.500000
 42
0.018448
  0
VERTEX
  8
0
 10
331.896006
 20
1277.775448
 42
0.028824
  0
VERTEX
  8
0
 10
332.289105
 20
1276.321875
 42
0.028179
  0
VERTEX
  8
0
 10
332.716815
 20
1275.245070
 42
0.291988
  0
VERTEX
  8
0
 10
333.100694
 20
1275.000000
 42
-0.307342
  0
VERTEX
  8
0
 10
333.449797
 20
1274.763028
 42
-0.038452
  0
VERTEX
  8
0
 10
333.735829
 20
1273.842336
 42
-0.034590
  0
VERTEX
  8
0
 10
333.934976
 20
1272.569479
 42
-0.021515
  0
VERTEX
  8
0
 10
334.000000
 20
1271.059017
 42
0.023552
  0
VERTEX
  8
0
 10
334.073250
 20
1269.504790
 42
0.030444
  0
VERTEX
  8
0
 10
334.293750
 20
1268.094150
 42
0.031293
  0
VERTEX
  8
0
 10
334.612194
 20
1266.980410
 42
0.170670
  0
VERTEX
  8
0
 10
335.000000
 20
1266.500000
 42
-0.170670
  0
VERTEX
  8
0
 10
335.387806
 20
1266.019590
 42
-0.031293
  0
VERTEX
  8
0
 10
335.706250
 20
1264.905850
 42
-0.030444
  0
VERTEX
  8
0
 10
335.926750
 20
1263.495210
 42
-0.023552
  0
VERTEX
  8
0
 10
336.000000
 20
1261.940983
 42
0.020873
  0
VERTEX
  8
0
 10
336.063084
 20
1260.430481
 42
0.033629
  0
VERTEX
  8
0
 10
336.256376
 20
1259.157664
 42
0.036780
  0
VERTEX
  8
0
 10
336.533653
 20
1258.233450
 42
0.310926
  0
VERTEX
  8
0
 10
336.872771
 20
1258.000000
 42
-0.301998
  0
VERTEX
  8
0
 10
337.244853
 20
1257.752710
 42
-0.024993
  0
VERTEX
  8
0
 10
337.660881
 20
1256.604687
 42
-0.026817
  0
VERTEX
  8
0
 10
338.042944
 20
1255.070503
 42
-0.017001
  0
VERTEX
  8
0
 10
338.330106
 20
1253.250000
 42
0.007624
  0
VERTEX
  8
0
 10
338.622488
 20
1251.140088
 42
0.005010
  0
VERTEX
  8
0
 10
339.020361
 20
1248.720313
 42
0.005041
  0
VERTEX
  8
0
 10
339.455101
 20
1246.372169
 42
0.009674
  0
VERTEX
  8
0
 10
339.859032
 20
1244.500000
 42
-0.000588
  0
VERTEX
  8
0
 10
340.302481
 20
1242.611777
 42
-0.000288
  0
VERTEX
  8
0
 10
340.862974
 20
1240.206250
 42
-0.000286
  0
VERTEX
  8
0
 10
341.442482
 20
1237.706129
 42
-0.000416
  0
VERTEX
  8
0
 10
341.950584
 20
1235.500000
 42
0.000574
  0
VERTEX
  8
0
 10
342.459420
 20
1233.293875
 42
0.000395
  0
VERTEX
  8
0
 10
343.041169
 20
1230.793750
 42
0.000398
  0
VERTEX
  8
0
 10
343.604923
 20
1228.388237
 42
0.000811
  0
VERTEX
  8
0
 10
344.052265
 20
1226.500000
 42
-0.005529
  0
VERTEX
  8
0
 10
345.087530
 20
1221.938669
 42
-0.001816
  0
VERTEX
  8
0
 10
346.512534
 20
1215.203262
 42
-0.001728
  0
VERTEX
  8
0
 10
347.872959
 20
1208.540191
 42
-0.007153
  0
VERTEX
  8
0
 10
348.623364
 20
1204.500000
 42
0.014211
  0
VERTEX
  8
0
 10
348.882836
 20
1203.205058
 42
0.010624
  0
VERTEX
  8
0
 10
349.239330
 20
1201.793750
 42
0.010761
  0
VERTEX
  8
0
 10
349.632298
 20
1200.477806
 42
0.023993
  0
VERTEX
  8
0
 10
350.000000
 20
1199.500000
 42
-0.024192
  0
VERTEX
  8
0
 10
350.367263
 20
1198.522181
 42
-0.010855
  0
VERTEX
  8
0
 10
350.758818
 20
1197.206250
 42
-0.010717
  0
VERTEX
  8
0
 10
351.113273
 20
1195.794943
 42
-0.014335
  0
VERTEX
  8
0
 10
351.370331
 20
1194.500000
 42
0.008725
  0
VERTEX
  8
0
 10
351.643844
 20
1193.036377
 42
0.003576
  0
VERTEX
  8
0
 10
352.063871
 20
1191.059375
 42
0.003537
  0
VERTEX
  8
0
 10
352.545177
 20
1188.942539
 42
0.004522
  0
VERTEX
  8
0
 10
353.019903
 20
1187.000000
 42
-0.007348
  0
VERTEX
  8
0
 10
353.495840
 20
1185.003661
 42
-0.005004
  0
VERTEX
  8
0
 10
353.980926
 20
1182.720313
 42
-0.005043
  0
VERTEX
  8
0
 10
354.404753
 20
1180.507475
 42
-0.010106
  0
VERTEX
  8
0
 10
354.686466
 20
1178.750000
 42
0.022019
  0
VERTEX
  8
0
 10
354.952035
 20
1177.313128
 42
0.033726
  0
VERTEX
  8
0
 10
355.319158
 20
1176.101562
 42
0.036163
  0
VERTEX
  8
0
 10
355.726236
 20
1175.223107
 42
0.272607
  0
VERTEX
  8
0
 10
356.105035
 20
1175.000000
 42
-0.309710
  0
VERTEX
  8
0
 10
356.452666
 20
1174.761825
 42
-0.037346
  0
VERTEX
  8
0
 10
356.737104
 20
1173.825000
 42
-0.033955
  0
VERTEX
  8
0
 10
356.935305
 20
1172.533108
 42
-0.021090
  0
VERTEX
  8
0
 10
357.000000
 20
1171.000000
 42
0.023598
  0
VERTEX
  8
0
 10
357.072390
 20
1169.467056
 42
0.037669
  0
VERTEX
  8
0
 10
357.293750
 20
1168.175000
 42
0.043820
  0
VERTEX
  8
0
 10
357.612873
 20
1167.251055
 42
0.295869
  0
VERTEX
  8
0
 10
358.000000
 20
1167.000000
 42
-0.322437
  0
VERTEX
  8
0
 10
358.389817
 20
1166.719449
 42
-0.031449
  0
VERTEX
  8
0
 10
358.706250
 20
1165.531250
 42
-0.030530
  0
VERTEX
  8
0
 10
358.927795
 20
1163.916554
 42
-0.018830
  0
VERTEX
  8
0
 10
359.000000
 20
1162.000000
 42
0.017211
  0
VERTEX
  8
0
 10
359.065993
 20
1160.083335
 42
0.028032
  0
VERTEX
  8
0
 10
359.268685
 20
1158.468750
 42
0.027253
  0
VERTEX
  8
0
 10
359.557078
 20
1157.266489
 42
0.331633
  0
VERTEX
  8
0
 10
359.914673
 20
1157.000000
 42
-0.394800
  0
VERTEX
  8
0
 10
361.226048
 20
1155.773344
 42
-0.004975
  0
VERTEX
  8
0
 10
361.931829
 20
1143.357535
 42
-0.012932
  0
VERTEX
  8
0
 10
362.183956
 20
1131.336595
 42
-0.039982
  0
VERTEX
  8
0
 10
361.496456
 20
1123.250000
 42
-0.019248
  0
VERTEX
  8
0
 10
361.160849
 20
1121.621398
 42
-0.029671
  0
VERTEX
  8
0
 10
360.734575
 20
1120.248437
 42
-0.029495
  0
VERTEX
  8
0
 10
360.283287
 20
1119.236079
 42
-0.280121
  0
VERTEX
  8
0
 10
359.894965
 20
1119.000000
 42
0.175215
  0
VERTEX
  8
0
 10
359.553449
 20
1118.876532
 42
0.093013
  0
VERTEX
  8
0
 10
359.262896
 20
1118.525556
 42
0.073230
  0
VERTEX
  8
0
 10
359.066244
 20
1118.002783
 42
0.053450
  0
VERTEX
  8
0
 10
359.000000
 20
1117.384870
 42
-0.133402
  0
VERTEX
  8
0
 10
358.773549
 20
1116.551219
 42
-0.026507
  0
VERTEX
  8
0
 10
357.914471
 20
1115.249879
 42
-0.026339
  0
VERTEX
  8
0
 10
356.719297
 20
1113.799242
 42
-0.021859
  0
VERTEX
  8
0
 10
355.304583
 20
1112.384870
 42
-0.024882
  0
VERTEX
  8
0
 10
353.042282
 20
1110.510810
 42
-0.074250
  0
VERTEX
  8
0
 10
351.276455
 20
1109.560233
 42
-0.067982
  0
VERTEX
  8
0
 10
349.223838
 20
1109.123061
 42
-0.018525
  0
VERTEX
  8
0
 10
345.903545
 20
1109.000000
 42
-0.057089
  0
VERTEX
  8
0
 10
340.925193
 20
1109.570272
 42
-0.027165
  0
VERTEX
  8
0
 10
334.722545
 20
1111.370157
 42
-0.027040
  0
VERTEX
  8
0
 10
328.831082
 20
1113.797437
 42
-0.065901
  0
VERTEX
  8
0
 10
324.901601
 20
1116.352223
 42
0.023059
  0
VERTEX
  8
0
 10
324.092270
 20
1116.982933
 42
0.025279
  0
VERTEX
  8
0
 10
323.252057
 20
1117.515966
 42
0.025831
  0
VERTEX
  8
0
 10
322.493955
 20
1117.894529
 42
0.103235
  0
VERTEX
  8
0
 10
321.988569
 20
1118.000000
 42
-0.100219
  0
VERTEX
  8
0
 10
321.611310
 20
1118.076384
 42
-0.098215
  0
VERTEX
  8
0
 10
321.290392
 20
1118.293750
 42
-0.097662
  0
VERTEX
  8
0
 10
321.075427
 20
1118.618345
 42
-0.097870
  0
VERTEX
  8
0
 10
321.000000
 20
1119.000000
 42
0.148195
  0
VERTEX
  8
0
 10
320.884432
 20
1119.381354
 42
0.098894
  0
VERTEX
  8
0
 10
320.559375
 20
1119.706250
 42
0.082425
  0
VERTEX
  8
0
 10
320.073457
 20
1119.925306
 42
0.064853
  0
VERTEX
  8
0
 10
319.500000
 20
1120.000000
 42
-0.064853
  0
VERTEX
  8
0
 10
318.926543
 20
1120.074694
 42
-0.082425
  0
VERTEX
  8
0
 10
318.440625
 20
1120.293750
 42
-0.098894
  0
VERTEX
  8
0
 10
318.115568
 20
1120.618646
 42
-0.148195
  0
VERTEX
  8
0
 10
318.000000
 20
1121.000000
 42
0.127083
  0
VERTEX
  8
0
 10
317.901479
 20
1121.381366
 42
0.100760
  0
VERTEX
  8
0
 10
317.624223
 20
1121.706250
 42
0.089631
  0
VERTEX
  8
0
 10
317.209482
 20
1121.924656
 42
0.076630
  0
VERTEX
  8
0
 10
316.720759
 20
1122.000000
 42
-0.115942
  0
VERTEX
  8
0
 10
316.128761
 20
1122.139145
 42
-0.043072
  0
VERTEX
  8
0
 10
315.393849
 20
1122.587500
 42
-0.039803
  0
VERTEX
  8
0
 10
314.646083
 20
1123.234732
 42
-0.038332
  0
VERTEX
  8
0
 10
314.000000
 20
1124.000000
 42
0.038332
  0
VERTEX
  8
0
 10
313.353917
 20
1124.765268
 42
0.039803
  0
VERTEX
  8
0
 10
312.606151
 20
1125.412500
 42
0.043072
  0
VERTEX
  8
0
 10
311.871239
 20
1125.860855
 42
0.115942
  0
VERTEX
  8
0
 10
311.279241
 20
1126.000000
 42
-0.076630
  0
VERTEX
  8
0
 10
310.790518
 20
1126.075344
 42
-0.089631
  0
VERTEX
  8
0
 10
310.375777
 20
1126.293750
 42
-0.100760
  0
VERTEX
  8
0
 10
310.098521
 20
1126.618634
 42
-0.127083
  0
VERTEX
  8
0
 10
310.000000
 20
1127.000000
 42
0.098921
  0
VERTEX
  8
0
 10
309.923749
 20
1127.381640
 42
0.097917
  0
VERTEX
  8
0
 10
309.706586
 20
1127.706250
 42
0.097972
  0
VERTEX
  8
0
 10
309.382344
 20
1127.923653
 42
0.099155
  0
VERTEX
  8
0
 10
309.001145
 20
1128.000000
 42
-0.154934
  0
VERTEX
  8
0
 10
308.416624
 20
1128.185579
 42
-0.012075
  0
VERTEX
  8
0
 10
307.084946
 20
1129.175000
 42
-0.015569
  0
VERTEX
  8
0
 10
305.532159
 20
1130.467795
 42
-0.011248
  0
VERTEX
  8
0
 10
303.880563
 20
1132.000000
 42
0.010289
  0
VERTEX
  8
0
 10
302.235186
 20
1133.532320
 42
0.014468
  0
VERTEX
  8
0
 10
300.701473
 20
1134.825000
 42
0.010643
  0
VERTEX
  8
0
 10
299.387900
 20
1135.823803
 42
0.158513
  0
VERTEX
  8
0
 10
298.846085
 20
1136.000000
 42
-0.154507
  0
VERTEX
  8
0
 10
298.321397
 20
1136.166101
 42
-0.013754
  0
VERTEX
  8
0
 10
297.196969
 20
1137.004485
 42
-0.016919
  0
VERTEX
  8
0
 10
295.890124
 20
1138.109757
 42
-0.012385
  0
VERTEX
  8
0
 10
294.513808
 20
1139.419525
 42
0.015902
  0
VERTEX
  8
0
 10
292.878261
 20
1140.954218
 42
0.008456
  0
VERTEX
  8
0
 10
290.763046
 20
1142.753566
 42
0.008408
  0
VERTEX
  8
0
 10
288.537247
 20
1144.521151
 42
0.012926
  0
VERTEX
  8
0
 10
286.547142
 20
1145.967566
 42
-0.010903
  0
VERTEX
  8
0
 10
284.804875
 20
1147.223111
 42
-0.016037
  0
VERTEX
  8
0
 10
283.335723
 20
1148.407080
 42
-0.011314
  0
VERTEX
  8
0
 10
282.190241
 20
1149.438435
 42
-0.206657
  0
VERTEX
  8
0
 10
282.000000
 20
1149.879061
 42
0.197895
  0
VERTEX
  8
0
 10
281.840642
 20
1150.265926
 42
0.028542
  0
VERTEX
  8
0
 10
281.192187
 20
1150.848866
 42
0.028756
  0
VERTEX
  8
0
 10
280.303210
 20
1151.480407
 42
0.020959
  0
VERTEX
  8
0
 10
279.250000
 20
1152.081020
 42
-0.036611
  0
VERTEX
  8
0
 10
277.941418
 20
1152.882508
 42
-0.013752
  0
VERTEX
  8
0
 10
276.229280
 20
1154.184737
 42
-0.013538
  0
VERTEX
  8
0
 10
274.435750
 20
1155.710236
 42
-0.016019
  0
VERTEX
  8
0
 10
272.828401
 20
1157.250000
 42
0.012109
  0
VERTEX
  8
0
 10
271.352231
 20
1158.686399
 42
0.016675
  0
VERTEX
  8
0
 10
269.953974
 20
1159.898438
 42
0.013337
  0
VERTEX
  8
0
 10
268.750933
 20
1160.820914
 42
0.158171
  0
VERTEX
  8
0
 10
268.198983
 20
1161.000000
 42
-0.153056
  0
VERTEX
  8
0
 10
267.639070
 20
1161.175507
 42
-0.012258
  0
VERTEX
  8
0
 10
266.374346
 20
1162.101562
 42
-0.015671
  0
VERTEX
  8
0
 10
264.899468
 20
1163.313583
 42
-0.011366
  0
VERTEX
  8
0
 10
263.332476
 20
1164.750000
 42
0.007586
  0
VERTEX
  8
0
 10
261.481305
 20
1166.472851
 42
0.003920
  0
VERTEX
  8
0
 10
259.117466
 20
1168.573437
 42
0.003895
  0
VERTEX
  8
0
 10
256.652867
 20
1170.695564
 42
0.005895
  0
VERTEX
  8
0
 10
254.472303
 20
1172.500000
 42
-0.018906
  0
VERTEX
  8
0
 10
251.467453
 20
1175.121187
 42
-0.001968
  0
VERTEX
  8
0
 10
244.672545
 20
1181.567188
 42
-0.002442
  0
VERTEX
  8
0
 10
236.643048
 20
1189.320089
 42
-0.001953
  0
VERTEX
  8
0
 10
228.064575
 20
1197.750000
 42
0.000712
  0
VERTEX
  8
0
 10
219.814307
 20
1205.897726
 42
0.001174
  0
VERTEX
  8
0
 10
212.815281
 20
1212.757812
 42
0.000079
  0
VERTEX
  8
0
 10
206.509511
 20
1218.907502
 42
0.195617
  0
VERTEX
  8
0
 10
206.282130
 20
1219.000000
 42
-0.202162
  0
VERTEX
  8
0
 10
205.673809
 20
1219.256439
 42
-0.000819
  0
VERTEX
  8
0
 10
200.436588
 20
1224.643819
 42
-0.004499
  0
VERTEX
  8
0
 10
195.588075
 20
1229.738645
 42
-0.011129
  0
VERTEX
  8
0
 10
192.152395
 20
1233.582552
 42
-0.057468
  0
VERTEX
  8
0
 10
186.681775
 20
1241.712360
 42
-0.039237
  0
VERTEX
  8
0
 10
182.350605
 20
1251.983257
 42
-0.039811
  0
VERTEX
  8
0
 10
179.765049
 20
1262.500786
 42
-0.072542
  0
VERTEX
  8
0
 10
179.618167
 20
1271.325867
 42
-0.026785
  0
VERTEX
  8
0
 10
180.637607
 20
1276.873093
 42
-0.021276
  0
VERTEX
  8
0
 10
182.308553
 20
1282.731380
 42
-0.021045
  0
VERTEX
  8
0
 10
184.497775
 20
1288.504114
 42
-0.024276
  0
VERTEX
  8
0
 10
187.074491
 20
1293.796329
 42
-0.005289
  0
VERTEX
  8
0
 10
188.323544
 20
1296.017729
 42
-0.007428
  0
VERTEX
  8
0
 10
189.488435
 20
1297.971422
 42
-0.004688
  0
VERTEX
  8
0
 10
190.502652
 20
1299.582349
 42
-0.094571
  0
VERTEX
  8
0
 10
190.899487
 20
1300.000000
 42
0.065186
  0
VERTEX
  8
0
 10
191.291315
 20
1300.366901
 42
0.006365
  0
VERTEX
  8
0
 10
192.103759
 20
1301.381250
 42
0.007976
  0
VERTEX
  8
0
 10
193.041261
 20
1302.623112
 42
0.006233
  0
VERTEX
  8
0
 10
194.020548
 20
1304.000000
 42
-0.019795
  0
VERTEX
  8
0
 10
195.267808
 20
1305.656645
 42
-0.008256
  0
VERTEX
  8
0
 10
197.073130
 20
1307.793750
 42
-0.008153
  0
VERTEX
  8
0
 10
199.083388
 20
1310.020905
 42
-0.010458
  0
VERTEX
  8
0
 10
201.008136
 20
1312.000000
 42
0.007247
  0
VERTEX
  8
0
 10
202.873377
 20
1313.893425
 42
0.007007
  0
VERTEX
  8
0
 10
204.704305
 20
1315.861183
 42
0.006948
  0
VERTEX
  8
0
 10
206.267239
 20
1317.637859
 42
0.025421
  0
VERTEX
  8
0
 10
207.182662
 20
1318.825302
 42
-0.024240
  0
VERTEX
  8
0
 10
208.156533
 20
1320.094752
 42
-0.004707
  0
VERTEX
  8
0
 10
210.044670
 20
1322.281365
 42
-0.004994
  0
VERTEX
  8
0
 10
212.297993
 20
1324.790781
 42
-0.004598
  0
VERTEX
  8
0
 10
214.663234
 20
1327.325302
 42
0.005730
  0
VERTEX
  8
0
 10
217.113428
 20
1329.962798
 42
0.004976
  0
VERTEX
  8
0
 10
219.621896
 20
1332.781719
 42
0.005011
  0
VERTEX
  8
0
 10
221.841810
 20
1335.379026
 42
0.014639
  0
VERTEX
  8
0
 10
223.301584
 20
1337.229486
 42
-0.015482
  0
VERTEX
  8
0
 10
224.753036
 20
1339.063033
 42
-0.005506
  0
VERTEX
  8
0
 10
226.935832
 20
1341.594478
 42
-0.005458
  0
VERTEX
  8
0
 10
229.394290
 20
1344.322316
 42
-0.006408
  0
VERTEX
  8
0
 10
231.785244
 20
1346.851882
 42
0.004551
  0
VERTEX
  8
0
 10
234.204245
 20
1349.392156
 42
0.003716
  0
VERTEX
  8
0
 10
236.747402
 20
1352.152796
 42
0.003754
  0
VERTEX
  8
0
 10
239.050008
 20
1354.728488
 42
0.009829
  0
VERTEX
  8
0
 10
240.652721
 20
1356.622396
 42
-0.019754
  0
VERTEX
  8
0
 10
246.320380
 20
1363.056420
 42
-0.007617
  0
VERTEX
  8
0
 10
254.663150
 20
1371.542359
 42
-0.003504
  0
VERTEX
  8
0
 10
263.313636
 20
1379.958444
 42
-0.114832
  0
VERTEX
  8
0
 10
265.804284
 20
1381.437882
 42
0.030277
  0
VERTEX
  8
0
 10
266.644998
 20
1381.761904
 42
0.041009
  0
VERTEX
  8
0
 10
267.355009
 20
1382.159405
 42
0.046665
  0
VERTEX
  8
0
 10
267.854830
 20
1382.568251
 42
0.200608
  0
VERTEX
  8
0
 10
268.000000
 20
1382.915513
 42
-0.302746
  0
VERTEX
  8
0
 10
268.855971
 20
1384.199623
 42
-0.011543
  0
VERTEX
  8
0
 10
274.476308
 20
1386.391294
 42
-0.019994
  0
VERTEX
  8
0
 10
280.276143
 20
1388.241137
 42
-0.055365
  0
VERTEX
  8
0
 10
284.500000
 20
1388.914758
 42
-0.056989
  0
VERTEX
  8
0
 10
285.585178
 20
1388.842679
 42
-0.013160
  0
VERTEX
  8
0
 10
287.381250
 20
1388.466431
 42
-0.013425
  0
VERTEX
  8
0
 10
289.439063
 20
1387.919747
 42
-0.012761
  0
SEQEND
  0
POLYLINE
  8
0
 66
1
 70
1
  0
VERTEX
  8
0
 10
177.013569
 20
1121.000000
 42
-0.000000
  0
VERTEX
  8
0
 10
177.917851
 20
1120.544770
 42
0.000000
  0
VERTEX
  8
0
 10
179.000000
 20
1120.000000
 42
-0.000000
  0
VERTEX
  8
0
 10
180.082149
 20
1119.455230
 42
0.000000
  0
VERTEX
  8
0
 10
180.986431
 20
1119.000000
 42
0.026214
  0
VERTEX
  8
0
 10
181.857899
 20
1118.617122
 42
0.020814
  0
VERTEX
  8
0
 10
182.833959
 20
1118.293750
 42
0.021269
  0
VERTEX
  8
0
 10
183.766124
 20
1118.069811
 42
0.048346
  0
VERTEX
  8
0
 10
184.486431
 20
1118.000000
 42
-0.052941
  0
VERTEX
  8
0
 10
185.065507
 20
1117.938514
 42
-0.072765
  0
VERTEX
  8
0
 10
185.555389
 20
1117.755888
 42
-0.092624
  0
VERTEX
  8
0
 10
185.884374
 20
1117.486112
 42
-0.176613
  0
VERTEX
  8
0
 10
186.000000
 20
1117.168980
 42
0.193661
  0
VERTEX
  8
0
 10
186.163516
 20
1116.762641
 42
0.030769
  0
VERTEX
  8
0
 10
186.807813
 20
1116.169469
 42
0.030271
  0
VERTEX
  8
0
 10
187.696865
 20
1115.531987
 42
0.022334
  0
VERTEX
  8
0
 10
188.750000
 20
1114.933353
 42
-0.018464
  0
VERTEX
  8
0
 10
191.551422
 20
1113.369486
 42
-0.013842
  0
VERTEX
  8
0
 10
194.518822
 20
1111.451721
 42
-0.014009
  0
VERTEX
  8
0
 10
197.313325
 20
1109.416555
 42
-0.022012
  0
VERTEX
  8
0
 10
199.581896
 20
1107.500000
 42
0.012084
  0
VERTEX
  8
0
 10
200.615960
 20
1106.590610
 42
0.006220
  0
VERTEX
  8
0
 10
201.951650
 20
1105.500000
 42
0.006178
  0
VERTEX
  8
0
 10
203.354586
 20
1104.411321
 42
0.009285
  0
VERTEX
  8
0
 10
204.607093
 20
1103.500000
 42
-0.011920
  0
VERTEX
  8
0
 10
205.869820
 20
1102.571027
 42
-0.007449
  0
VERTEX
  8
0
 10
207.305470
 20
1101.426563
 42
-0.007474
  0
VERTEX
  8
0
 10
208.687208
 20
1100.255964
 42
-0.013475
  0
VERTEX
  8
0
 10
209.778446
 20
1099.250000
 42
0.018979
  0
VERTEX
  8
0
 10
210.733783
 20
1098.388569
 42
0.023179
  0
VERTEX
  8
0
 10
211.692021
 20
1097.660938
 42
0.022573
  0
VERTEX
  8
0
 10
212.537719
 20
1097.133121
 42
0.128914
  0
VERTEX
  8
0
 10
213.045455
 20
1097.000000
 42
-0.103894
  0
VERTEX
  8
0
 10
213.409682
 20
1096.923492
 42
-0.098961
  0
VERTEX
  8
0
 10
213.719602
 20
1096.706250
 42
-0.096730
  0
VERTEX
  8
0
 10
213.927296
 20
1096.381710
 42
-0.094386
  0
VERTEX
  8
0
 10
214.000000
 20
1096.000000
 42
0.107021
  0
VERTEX
  8
0
 10
214.082610
 20
1095.618468
 42
0.099487
  0
VERTEX
  8
0
 10
214.316780
 20
1095.293750
 42
0.095880
  0
VERTEX
  8
0
 10
214.666715
 20
1095.076051
 42
0.091591
  0
VERTEX
  8
0
 10
215.078401
 20
1095.000000
 42
-0.157214
  0
VERTEX
  8
0
 10
215.691652
 20
1094.802290
 42
-0.014680
  0
VERTEX
  8
0
 10
216.968961
 20
1093.825000
 42
-0.017724
  0
VERTEX
  8
0
 10
218.449337
 20
1092.532079
 42
-0.013010
  0
VERTEX
  8
0
 10
220.000000
 20
1091.000000
 42
0.011240
  0
VERTEX
  8
0
 10
221.539924
 20
1089.467722
 42
0.015738
  0
VERTEX
  8
0
 10
222.987472
 20
1088.175000
 42
0.012017
  0
VERTEX
  8
0
 10
224.231554
 20
1087.182360
 42
0.163797
  0
VERTEX
  8
0
 10
224.773285
 20
1087.000000
 42
-0.139268
  0
VERTEX
  8
0
 10
225.292596
 20
1086.852493
 42
-0.017148
  0
VERTEX
  8
0
 10
226.283482
 20
1086.192188
 42
-0.019204
  0
VERTEX
  8
0
 10
227.427874
 20
1085.303106
 42
-0.014778
  0
VERTEX
  8
0
 10
228.608302
 20
1084.250000
 42
0.010576
  0
VERTEX
  8
0
 10
230.037177
 20
1082.953523
 42
0.004651
  0
VERTEX
  8
0
 10
231.979841
 20
1081.295858
 42
0.004600
  0
VERTEX
  8
0
 10
234.073714
 20
1079.575084
 42
0.006154
  0
VERTEX
  8
0
 10
236.006616
 20
1078.055049
 42
-0.004283
  0
VERTEX
  8
0
 10
237.842899
 20
1076.622080
 42
-0.004351
  0
VERTEX
  8
0
 10
239.644709
 20
1075.165257
 42
-0.004235
  0
VERTEX
  8
0
 10
241.189690
 20
1073.871590
 42
-0.017832
  0
VERTEX
  8
0
 10
242.081754
 20
1073.055049
 42
0.016613
  0
VERTEX
  8
0
 10
242.914521
 20
1072.289049
 42
0.005534
  0
VERTEX
  8
0
 10
244.182490
 20
1071.222421
 42
0.005502
  0
VERTEX
  8
0
 10
245.614020
 20
1070.071183
 42
0.006243
  0
VERTEX
  8
0
 10
247.012008
 20
1069.000000
 42
-0.011778
  0
VERTEX
  8
0
 10
248.530955
 20
1067.809217
 42
-0.006408
  0
VERTEX
  8
0
 10
250.342270
 20
1066.279687
 42
-0.006382
  0
VERTEX
  8
0
 10
252.145426
 20
1064.676272
 42
-0.010059
  0
VERTEX
  8
0
 10
253.646921
 20
1063.250000
 42
0.014915
  0
VERTEX
  8
0
 10
254.982914
 20
1062.005393
 42
0.019522
  0
VERTEX
  8
0
 10
256.279222
 20
1060.954688
 42
0.017393
  0
VERTEX
  8
0
 10
257.403217
 20
1060.173597
 42
0.144118
  0
VERTEX
  8
0
 10
257.992982
 20
1060.000000
 42
-0.156046
  0
VERTEX
  8
0
 10
258.611443
 20
1059.802166
 42
-0.012260
  0
VERTEX
  8
0
 10
260.011641
 20
1058.751563
 42
-0.015749
  0
VERTEX
  8
0
 10
261.643350
 20
1057.377965
 42
-0.011377
  0
VERTEX
  8
0
 10
263.376994
 20
1055.750000
 42
0.007173
  0
VERTEX
  8
0
 10
265.195971
 20
1054.012892
 42
0.006924
  0
VERTEX
  8
0
 10
267.085290
 20
1052.307812
 42
0.006868
  0
VERTEX
  8
0
 10
268.790092
 20
1050.852534
 42
0.025039
  0
VERTEX
  8
0
 10
269.928473
 20
1050.000000
 42
-0.017303
  0
VERTEX
  8
0
 10
271.006701
 20
1049.218244
 42
-0.006615
  0
VERTEX
  8
0
 10
272.454029
 20
1048.059375
 42
-0.006541
  0
VERTEX
  8
0
 10
273.993830
 20
1046.758529
 42
-0.007981
  0
VERTEX
  8
0
 10
275.398667
 20
1045.500000
 42
0.006564
  0
VERTEX
  8
0
 10
278.376961
 20
1042.816624
 42
0.012663
  0
VERTEX
  8
0
 10
280.841990
 20
1040.761746
 42
0.009868
  0
VERTEX
  8
0
 10
282.822317
 20
1039.256785
 42
0.158843
  0
VERTEX
  8
0
 10
283.610221
 20
1039.000000
 42
-0.173107
  0
VERTEX
  8
0
 10
283.958911
 20
1038.875549
 42
-0.009710
  0
VERTEX
  8
0
 10
284.848254
 20
1038.118750
 42
-0.014007
  0
VERTEX
  8
0
 10
285.883648
 20
1037.149363
 42
-0.009735
  0
VERTEX
  8
0
 10
287.000000
 20
1036.000000
 42
0.018044
  0
VERTEX
  8
0
 10
288.153417
 20
1034.851292
 42
0.022899
  0
VERTEX
  8
0
 10
289.301642
 20
1033.881250
 42
0.021795
  0
VERTEX
  8
0
 10
290.312258
 20
1033.171741
 42
0.143095
  0
VERTEX
  8
0
 10
290.900065
 20
1033.000000
 42
-0.150905
  0
VERTEX
  8
0
 10
291.532421
 20
1032.804701
 42
-0.013701
  0
VERTEX
  8
0
 10
292.886034
 20
1031.825000
 42
-0.016784
  0
VERTEX
  8
0
 10
294.460689
 20
1030.532078
 42
-0.012346
  0
VERTEX
  8
0
 10
296.119437
 20
1029.000000
 42
0.010315
  0
VERTEX
  8
0
 10
297.764988
 20
1027.467683
 42
0.014499
  0
VERTEX
  8
0
 10
299.299233
 20
1026.175000
 42
0.010683
  0
VERTEX
  8
0
 10
300.613296
 20
1025.176471
 42
0.158413
  0
VERTEX
  8
0
 10
301.156315
 20
1025.000000
 42
-0.119178
  0
VERTEX
  8
0
 10
301.644069
 20
1024.882066
 42
-0.022003
  0
VERTEX
  8
0
 10
302.453082
 20
1024.420495
 42
-0.022503
  0
VERTEX
  8
0
 10
303.370879
 20
1023.782477
 42
-0.018832
  0
VERTEX
  8
0
 10
304.285733
 20
1023.027217
 42
0.006255
  0
VERTEX
  8
0
 10
307.921359
 20
1019.868767
 42
0.006037
  0
VERTEX
  8
0
 10
311.677611
 20
1016.764195
 42
0.006326
  0
VERTEX
  8
0
 10
315.180306
 20
1014.012061
 42
0.013058
  0
VERTEX
  8
0
 10
318.000000
 20
1011.968219
 42
-0.043263
  0
VERTEX
  8
0
 10
323.337595
 20
1007.584709
 42
-0.007622
  0
VERTEX
  8
0
 10
332.483487
 20
998.367506
 42
-0.007930
  0
VERTEX
  8
0
 10
341.353727
 20
988.853814
 42
-0.038155
  0
VERTEX
  8
0
 10
345.880780
 20
983.000000
 42
0.006261
  0
VERTEX
  8
0
 10
347.321883
 20
980.868614
 42
0.008954
  0
VERTEX
  8
0
 10
348.657166
 20
979.017708
 42
0.005496
  0
VERTEX
  8
0
 10
349.817024
 20
977.504150
 42
0.122538
  0
VERTEX
  8
0
 10
350.250000
 20
977.166667
 42
-0.134002
  0
VERTEX
  8
0
 10
350.537583
 20
976.931894
 42
-0.057346
  0
VERTEX
  8
0
 10
350.779688
 20
976.494122
 42
-0.051053
  0
VERTEX
  8
0
 10
350.944430
 20
975.939203
 42
-0.046677
  0
VERTEX
  8
0
 10
351.000000
 20
975.345238
 42
0.078418
  0
VERTEX
  8
0
 10
351.106980
 20
974.667323
 42
0.038070
  0
VERTEX
  8
0
 10
351.440625
 20
973.853646
 42
0.036555
  0
VERTEX
  8
0
 10
351.925955
 20
973.040896
 42
0.043528
  0
VERTEX
  8
0
 10
352.500000
 20
972.357143
 42
-0.094006
  0
VERTEX
  8
0
 10
353.564570
 20
970.794155
 42
-0.102981
  0
VERTEX
  8
0
 10
353.938057
 20
969.000000
 42
-0.102981
  0
VERTEX
  8
0
 10
353.564570
 20
967.205845
 42
-0.094006
  0
VERTEX
  8
0
 10
352.500000
 20
965.642857
 42
0.043528
  0
VERTEX
  8
0
 10
351.925955
 20
964.959104
 42
0.036555
  0
VERTEX
  8
0
 10
351.440625
 20
964.146354
 42
0.038070
  0
VERTEX
  8
0
 10
351.106980
 20
963.332677
 42
0.078418
  0
VERTEX
  8
0
 10
351.000000
 20
962.654762
 42
-0.046677
  0
VERTEX
  8
0
 10
350.944430
 20
962.060797
 42
-0.051053
  0
VERTEX
  8
0
 10
350.779688
 20
961.505878
 42
-0.057346
  0
VERTEX
  8
0
 10
350.537583
 20
961.068106
 42
-0.134002
  0
VERTEX
  8
0
 10
350.250000
 20
960.833333
 42
0.122538
  0
VERTEX
  8
0
 10
349.817024
 20
960.495850
 42
0.005496
  0
VERTEX
  8
0
 10
348.657166
 20
958.982292
 42
0.008954
  0
VERTEX
  8
0
 10
347.321883
 20
957.131386
 42
0.006261
  0
VERTEX
  8
0
 10
345.880780
 20
955.000000
 42
-0.038155
  0
VERTEX
  8
0
 10
341.353727
 20
949.146186
 42
-0.007930
  0
VERTEX
  8
0
 10
332.483487
 20
939.632494
 42
-0.007622
  0
VERTEX
  8
0
 10
323.337595
 20
930.415291
 42
-0.043263
  0
VERTEX
  8
0
 10
318.000000
 20
926.031781
 42
0.013058
  0
VERTEX
  8
0
 10
315.180306
 20
923.987939
 42
0.006326
  0
VERTEX
  8
0
 10
311.677611
 20
921.235805
 42
0.006037
  0
VERTEX
  8
0
 10
307.921359
 20
918.131233
 42
0.006255
  0
VERTEX
  8
0
 10
304.285733
 20
914.972783
 42
-0.018832
  0
VERTEX
  8
0
 10
303.370879
 20
914.217523
 42
-0.022503
  0
VERTEX
  8
0
 10
302.453082
 20
913.579505
 42
-0.022003
  0
VERTEX
  8
0
 10
301.644069
 20
913.117934
 42
-0.119178
  0
VERTEX
  8
0
 10
301.156315
 20
913.000000
 42
0.158413
  0
VERTEX
  8
0
 10
300.613296
 20
912.823529
 42
0.010683
  0
VERTEX
  8
0
 10
299.299233
 20
911.825000
 42
0.014499
  0
VERTEX
  8
0
 10
297.764988
 20
910.532317
 42
0.010315
  0
VERTEX
  8
0
 10
296.119437
 20
909.000000
 42
-0.012346
  0
VERTEX
  8
0
 10
294.460689
 20
907.467922
 42
-0.016784
  0
VERTEX
  8
0
 10
292.886034
 20
906.175000
 42
-0.013701
  0
VERTEX
  8
0
 10
291.532421
 20
905.195299
 42
-0.150905
  0
VERTEX
  8
0
 10
290.900065
 20
905.000000
 42
0.143095
  0
VERTEX
  8
0
 10
290.312258
 20
904.828259
 42
0.021795
  0
VERTEX
  8
0
 10
289.301642
 20
904.118750
 42
0.022899
  0
VERTEX
  8
0
 10
288.153417
 20
903.148708
 42
0.018044
  0
VERTEX
  8
0
 10
287.000000
 20
902.000000
 42
-0.009735
  0
VERTEX
  8
0
 10
285.883648
 20
900.850637
 42
-0.014007
  0
VERTEX
  8
0
 10
284.848254
 20
899.881250
 42
-0.009710
  0
VERTEX
  8
0
 10
283.958911
 20
899.124451
 42
-0.173107
  0
VERTEX
  8
0
 10
283.610221
 20
899.000000
 42
0.158843
  0
VERTEX
  8
0
 10
282.822317
 20
898.743215
 42
0.009868
  0
VERTEX
  8
0
 10
280.841990
 20
897.238254
 42
0.012663
  0
VERTEX
  8
0
 10
278.376961
 20
895.183376
 42
0.006564
  0
VERTEX
  8
0
 10
275.398667
 20
892.500000
 42
-0.007981
  0
VERTEX
  8
0
 10
273.993830
 20
891.241471
 42
-0.006541
  0
VERTEX
  8
0
 10
272.454029
 20
889.940625
 42
-0.006615
  0
VERTEX
  8
0
 10
271.006701
 20
888.781756
 42
-0.017303
  0
VERTEX
  8
0
 10
269.928473
 20
888.000000
 42
0.025039
  0
VERTEX
  8
0
 10
268.790092
 20
887.147466
 42
0.006868
  0
VERTEX
  8
0
 10
267.085290
 20
885.692187
 42
0.006924
  0
VERTEX
  8
0
 10
265.195971
 20
883.987108
 42
0.007173
  0
VERTEX
  8
0
 10
263.376994
 20
882.250000
 42
-0.011377
  0
VERTEX
  8
0
 10
261.643350
 20
880.622035
 42
-0.015749
  0
VERTEX
  8
0
 10
260.011641
 20
879.248438
 42
-0.012260
  0
VERTEX
  8
0
 10
258.611443
 20
878.197834
 42
-0.156046
  0
VERTEX
  8
0
 10
257.992982
 20
878.000000
 42
0.144118
  0
VERTEX
  8
0
 10
257.403217
 20
877.826403
 42
0.017393
  0
VERTEX
  8
0
 10
256.279222
 20
877.045313
 42
0.019522
  0
VERTEX
  8
0
 10
254.982914
 20
875.994607
 42
0.014915
  0
VERTEX
  8
0
 10
253.646921
 20
874.750000
 42
-0.010059
  0
VERTEX
  8
0
 10
252.145426
 20
873.323728
 42
-0.006382
  0
VERTEX
  8
0
 10
250.342270
 20
871.720312
 42
-0.006408
  0
VERTEX
  8
0
 10
248.530955
 20
870.190783
 42
-0.011778
  0
VERTEX
  8
0
 10
247.012008
 20
869.000000
 42
0.006243
  0
VERTEX
  8
0
 10
245.614020
 20
867.928817
 42
0.005502
  0
VERTEX
  8
0
 10
244.182490
 20
866.777579
 42
0.005534
  0
VERTEX
  8
0
 10
242.914521
 20
865.710951
 42
0.016613
  0
VERTEX
  8
0
 10
242.081754
 20
864.944951
 42
-0.017832
  0
VERTEX
  8
0
 10
241.189690
 20
864.128410
 42
-0.004235
  0
VERTEX
  8
0
 10
239.644709
 20
862.834743
 42
-0.004351
  0
VERTEX
  8
0
 10
237.842899
 20
861.377920
 42
-0.004283
  0
VERTEX
  8
0
 10
236.006616
 20
859.944951
 42
0.006154
  0
VERTEX
  8
0
 10
234.073714
 20
858.424916
 42
0.004600
  0
VERTEX
  8
0
 10
231.979841
 20
856.704142
 42
0.004651
  0
VERTEX
  8
0
 10
230.037177
 20
855.046477
 42
0.010576
  0
VERTEX
  8
0
 10
228.608302
 20
853.750000
 42
-0.014778
  0
VERTEX
  8
0
 10
227.427874
 20
852.696894
 42
-0.019204
  0
VERTEX
  8
0
 10
226.283482
 20
851.807812
 42
-0.017148
  0
VERTEX
  8
0
 10
225.292596
 20
851.147507
 42
-0.139268
  0
VERTEX
  8
0
 10
224.773285
 20
851.000000
 42
0.163797
  0
VERTEX
  8
0
 10
224.231554
 20
850.817640
 42
0.012017
  0
VERTEX
  8
0
 10
222.987472
 20
849.825000
 42
0.015738
  0
VERTEX
  8
0
 10
221.539924
 20
848.532278
 42
0.011240
  0
VERTEX
  8
0
 10
220.000000
 20
847.000000
 42
-0.013010
  0
VERTEX
  8
0
 10
218.449337
 20
845.467921
 42
-0.017724
  0
VERTEX
  8
0
 10
216.968961
 20
844.175000
 42
-0.014680
  0
VERTEX
  8
0
 10
215.691652
 20
843.197710
 42
-0.157214
  0
VERTEX
  8
0
 10
215.078401
 20
843.000000
 42
0.091591
  0
VERTEX
  8
0
 10
214.666715
 20
842.923949
 42
0.095880
  0
VERTEX
  8
0
 10
214.316780
 20
842.706250
 42
0.099487
  0
VERTEX
  8
0
 10
214.082610
 20
842.381532
 42
0.107021
  0
VERTEX
  8
0
 10
214.000000
 20
842.000000
 42
-0.094386
  0
VERTEX
  8
0
 10
213.927296
 20
841.618290
 42
-0.096730
  0
VERTEX
  8
0
 10
213.719602
 20
841.293750
 42
-0.098961
  0
VERTEX
  8
0
 10
213.409682
 20
841.076508
 42
-0.103894
  0
VERTEX
  8
0
 10
213.045455
 20
841.000000
 42
0.128914
  0
VERTEX
  8
0
 10
212.537719
 20
840.866879
 42
0.022573
  0
VERTEX
  8
0
 10
211.692021
 20
840.339062
 42
0.023179
  0
VERTEX
  8
0
 10
210.733783
 20
839.611431
 42
0.018979
  0
VERTEX
  8
0
 10
209.778446
 20
838.750000
 42
-0.013475
  0
VERTEX
  8
0
 10
208.687208
 20
837.744036
 42
-0.007474
  0
VERTEX
  8
0
 10
207.305470
 20
836.573438
 42
-0.007449
  0
VERTEX
  8
0
 10
205.869820
 20
835.428973
 42
-0.011920
  0
VERTEX
  8
0
 10
204.607093
 20
834.500000
 42
0.009285
  0
VERTEX
  8
0
 10
203.354586
 20
833.588679
 42
0.006178
  0
VERTEX
  8
0
 10
201.951650
 20
832.500000
 42
0.006220
  0
VERTEX
  8
0
 10
200.615960
 20
831.409390
 42
0.012084
  0
VERTEX
  8
0
 10
199.581896
 20
830.500000
 42
-0.022012
  0
VERTEX
  8
0
 10
197.313325
 20
828.583445
 42
-0.014009
  0
VERTEX
  8
0
 10
194.518822
 20
826.548279
 42
-0.013842
  0
VERTEX
  8
0
 10
191.551422
 20
824.630514
 42
-0.018464
  0
VERTEX
  8
0
 10
188.750000
 20
823.066647
 42
0.022334
  0
VERTEX
  8
0
 10
187.696865
 20
822.468013
 42
0.030271
  0
VERTEX
  8
0
 10
186.807813
 20
821.830531
 42
0.030769
  0
VERTEX
  8
0
 10
186.163516
 20
821.237359
 42
0.193661
  0
VERTEX
  8
0
 10
186.000000
 20
820.831020
 42
-0.176613
  0
VERTEX
  8
0
 10
185.884374
 20
820.513888
 42
-0.092624
  0
VERTEX
  8
0
 10
185.555389
 20
820.244112
 42
-0.072765
  0
VERTEX
  8
0
 10
185.065507
 20
820.061486
 42
-0.052941
  0
VERTEX
  8
0
 10
184.486431
 20
820.000000
 42
0.048346
  0
VERTEX
  8
0
 10
183.766124
 20
819.930189
 42
0.021269
  0
VERTEX
  8
0
 10
182.833959
 20
819.706250
 42
0.020814
  0
VERTEX
  8
0
 10
181.857899
 20
819.382878
 42
0.026214
  0
VERTEX
  8
0
 10
180.986431
 20
819.000000
 42
0.000000
  0
VERTEX
  8
0
 10
180.082149
 20
818.544770
 42
0.000000
  0
VERTEX
  8
0
 10
179.000000
 20
818.000000
 42
0.014599
  0
VERTEX
  8
0
 10
177.917851
 20
817.455230
 42
0.000000
  0
VERTEX
  8
0
 10
177.013569
 20
817.000000
 42
-0.101368
  0
VERTEX
  8
0
 10
173.366656
 20
816.012912
 42
-0.045122
  0
VERTEX
  8
0
 10
168.366707
 20
816.152432
 42
-0.044691
  0
VERTEX
  8
0
 10
163.636318
 20
817.147831
 42
-0.145917
  0
VERTEX
  8
0
 10
161.000000
 20
818.899704
 42
0.058524
  0
VERTEX
  8
0
 10
160.685290
 20
819.198453
 42
0.011977
  0
VERTEX
  8
0
 10
160.059375
 20
819.643899
 42
0.012459
  0
VERTEX
  8
0
 10
159.302345
 20
820.128754
 42
0.011418
  0
VERTEX
  8
0
 10
158.500000
 20
820.590166
 42
-0.112938
  0
VERTEX
  8
0
 10
156.353591
 20
822.487894
 42
-0.015844
  0
VERTEX
  8
0
 10
153.038804
 20
827.436441
 42
-0.019226
  0
VERTEX
  8
0
 10
149.935612
 20
832.855385
 42
-0.041106
  0
VERTEX
  8
0
 10
148.061494
 20
837.294790
 42
-0.057561
  0
VERTEX
  8
0
 10
146.030963
 20
847.194837
 42
-0.015326
  0
VERTEX
  8
0
 10
145.117517
 20
863.301404
 42
-0.006015
  0
VERTEX
  8
0
 10
144.710580
 20
892.424220
 42
-0.000486
  0
VERTEX
  8
0
 10
144.636188
 20
969.000000
 42
-0.000486
  0
VERTEX
  8
0
 10
144.710580
 20
1045.575780
 42
-0.006015
  0
VERTEX
  8
0
 10
145.117517
 20
1074.698596
 42
-0.015326
  0
VERTEX
  8
0
 10
146.030963
 20
1090.805163
 42
-0.057561
  0
VERTEX
  8
0
 10
148.061494
 20
1100.705210
 42
-0.041106
  0
VERTEX
  8
0
 10
149.935612
 20
1105.144615
 42
-0.019226
  0
VERTEX
  8
0
 10
153.038804
 20
1110.563559
 42
-0.015844
  0
VERTEX
  8
0
 10
156.353591
 20
1115.512106
 42
-0.112938
  0
VERTEX
  8
0
 10
158.500000
 20
1117.409834
 42
0.010906
  0
VERTEX
  8
0
 10
159.302348
 20
1117.870156
 42
0.011950
  0
VERTEX
  8
0
 10
160.059375
 20
1118.351743
 42
0.011440
  0
VERTEX
  8
0
 10
160.685842
 20
1118.792733
 42
0.056994
  0
VERTEX
  8
0
 10
161.000000
 20
1119.085463
 42
-0.142076
  0
VERTEX
  8
0
 10
163.676289
 20
1120.845424
 42
-0.045144
  0
VERTEX
  8
0
 10
168.392768
 20
1121.846856
 42
-0.045471
  0
VERTEX
  8
0
 10
173.371042
 20
1121.986844
 42
-0.101246
  0
SEQEND
  0
POLYLINE
  8
0
 66
1
 70
1
  0
VERTEX
  8
0
 10
355.304583
 20
825.615130
 42
-0.021859
  0
VERTEX
  8
0
 10
356.719297
 20
824.200758
 42
-0.026339
  0
VERTEX
  8
0
 10
357.914471
 20
822.750121
 42
-0.026507
  0
VERTEX
  8
0
 10
358.773549
 20
821.448781
 42
-0.133402
  0
VERTEX
  8
0
 10
359.000000
 20
820.615130
 42
0.053450
  0
VERTEX
  8
0
 10
359.066244
 20
819.997217
 42
0.073230
  0
VERTEX
  8
0
 10
359.262896
 20
819.474444
 42
0.093013
  0
VERTEX
  8
0
 10
359.553449
 20
819.123468
 42
0.175215
  0
VERTEX
  8
0
 10
359.894965
 20
819.000000
 42
-0.280121
  0
VERTEX
  8
0
 10
360.283287
 20
818.763921
 42
-0.029495
  0
VERTEX
  8
0
 10
360.734575
 20
817.751562
 42
-0.029671
  0
VERTEX
  8
0
 10
361.160849
 20
816.378602
 42
-0.019248
  0
VERTEX
  8
0
 10
361.496456
 20
814.750000
 42
-0.039982
  0
VERTEX
  8
0
 10
362.183956
 20
806.663405
 42
-0.012932
  0
VERTEX
  8
0
 10
361.931829
 20
794.642465
 42
-0.004975
  0
VERTEX
  8
0
 10
361.226048
 20
782.226656
 42
-0.394800
  0
VERTEX
  8
0
 10
359.914673
 20
781.000000
 42
0.331633
  0
VERTEX
  8
0
 10
359.557078
 20
780.733511
 42
0.027253
  0
VERTEX
  8
0
 10
359.268685
 20
779.531250
 42
0.028032
  0
VERTEX
  8
0
 10
359.065993
 20
777.916665
 42
0.017211
  0
VERTEX
  8
0
 10
359.000000
 20
776.000000
 42
-0.018830
  0
VERTEX
  8
0
 10
358.927795
 20
774.083446
 42
-0.030530
  0
VERTEX
  8
0
 10
358.706250
 20
772.468750
 42
-0.031449
  0
VERTEX
  8
0
 10
358.389817
 20
771.280551
 42
-0.322437
  0
VERTEX
  8
0
 10
358.000000
 20
771.000000
 42
0.295869
  0
VERTEX
  8
0
 10
357.612873
 20
770.748945
 42
0.043820
  0
VERTEX
  8
0
 10
357.293750
 20
769.825000
 42
0.037669
  0
VERTEX
  8
0
 10
357.072390
 20
768.532944
 42
0.023598
  0
VERTEX
  8
0
 10
357.000000
 20
767.000000
 42
-0.021090
  0
VERTEX
  8
0
 10
356.935305
 20
765.466892
 42
-0.033955
  0
VERTEX
  8
0
 10
356.737104
 20
764.175000
 42
-0.037346
  0
VERTEX
  8
0
 10
356.452666
 20
763.238175
 42
-0.309710
  0
VERTEX
  8
0
 10
356.105035
 20
763.000000
 42
0.272607
  0
VERTEX
  8
0
 10
355.726236
 20
762.776893
 42
0.036163
  0
VERTEX
  8
0
 10
355.319158
 20
761.898438
 42
0.033726
  0
VERTEX
  8
0
 10
354.952035
 20
760.686872
 42
0.022019
  0
VERTEX
  8
0
 10
354.686466
 20
759.250000
 42
-0.010106
  0
VERTEX
  8
0
 10
354.404753
 20
757.492525
 42
-0.005043
  0
VERTEX
  8
0
 10
353.980926
 20
755.279688
 42
-0.005004
  0
VERTEX
  8
0
 10
353.495840
 20
752.996339
 42
-0.007348
  0
VERTEX
  8
0
 10
353.019903
 20
751.000000
 42
0.004522
  0
VERTEX
  8
0
 10
352.545177
 20
749.057461
 42
0.003537
  0
VERTEX
  8
0
 10
352.063871
 20
746.940625
 42
0.003576
  0
VERTEX
  8
0
 10
351.643844
 20
744.963623
 42
0.008725
  0
VERTEX
  8
0
 10
351.370331
 20
743.500000
 42
-0.014335
  0
VERTEX
  8
0
 10
351.113273
 20
742.205057
 42
-0.010717
  0
VERTEX
  8
0
 10
350.758818
 20
740.793750
 42
-0.010855
  0
VERTEX
  8
0
 10
350.367263
 20
739.477819
 42
-0.024192
  0
VERTEX
  8
0
 10
350.000000
 20
738.500000
 42
0.023993
  0
VERTEX
  8
0
 10
349.632298
 20
737.522194
 42
0.010761
  0
VERTEX
  8
0
 10
349.239330
 20
736.206250
 42
0.010624
  0
VERTEX
  8
0
 10
348.882836
 20
734.794942
 42
0.014211
  0
VERTEX
  8
0
 10
348.623364
 20
733.500000
 42
-0.007153
  0
VERTEX
  8
0
 10
347.872959
 20
729.459809
 42
-0.001728
  0
VERTEX
  8
0
 10
346.512534
 20
722.796738
 42
-0.001816
  0
VERTEX
  8
0
 10
345.087530
 20
716.061331
 42
-0.005529
  0
VERTEX
  8
0
 10
344.052265
 20
711.500000
 42
0.000811
  0
VERTEX
  8
0
 10
343.604923
 20
709.611763
 42
0.000398
  0
VERTEX
  8
0
 10
343.041169
 20
707.206250
 42
0.000395
  0
VERTEX
  8
0
 10
342.459420
 20
704.706125
 42
0.000574
  0
VERTEX
  8
0
 10
341.950584
 20
702.500000
 42
-0.000416
  0
VERTEX
  8
0
 10
341.442482
 20
700.293871
 42
-0.000286
  0
VERTEX
  8
0
 10
340.862974
 20
697.793750
 42
-0.000288
  0
VERTEX
  8
0
 10
340.302481
 20
695.388223
 42
-0.000588
  0
VERTEX
  8
0
 10
339.859032
 20
693.500000
 42
0.009674
  0
VERTEX
  8
0
 10
339.455101
 20
691.627831
 42
0.005041
  0
VERTEX
  8
0
 10
339.020361
 20
689.279687
 42
0.005010
  0
VERTEX
  8
0
 10
338.622488
 20
686.859912
 42
0.007624
  0
VERTEX
  8
0
 10
338.330106
 20
684.750000
 42
-0.017001
  0
VERTEX
  8
0
 10
338.042944
 20
682.929497
 42
-0.026817
  0
VERTEX
  8
0
 10
337.660881
 20
681.395313
 42
-0.024993
  0
VERTEX
  8
0
 10
337.244853
 20
680.247290
 42
-0.301998
  0
VERTEX
  8
0
 10
336.872771
 20
680.000000
 42
0.310926
  0
VERTEX
  8
0
 10
336.533653
 20
679.766550
 42
0.036780
  0
VERTEX
  8
0
 10
336.256376
 20
678.842336
 42
0.033629
  0
VERTEX
  8
0
 10
336.063084
 20
677.569519
 42
0.020873
  0
VERTEX
  8
0
 10
336.000000
 20
676.059017
 42
-0.023552
  0
VERTEX
  8
0
 10
335.926750
 20
674.504790
 42
-0.030444
  0
VERTEX
  8
0
 10
335.706250
 20
673.094150
 42
-0.031293
  0
VERTEX
  8
0
 10
335.387806
 20
671.980410
 42
-0.170670
  0
VERTEX
  8
0
 10
335.000000
 20
671.500000
 42
0.170670
  0
VERTEX
  8
0
 10
334.612194
 20
671.019590
 42
0.031293
  0
VERTEX
  8
0
 10
334.293750
 20
669.905850
 42
0.030444
  0
VERTEX
  8
0
 10
334.073250
 20
668.495210
 42
0.023552
  0
VERTEX
  8
0
 10
334.000000
 20
666.940983
 42
-0.021515
  0
VERTEX
  8
0
 10
333.934976
 20
665.430521
 42
-0.034590
  0
VERTEX
  8
0
 10
333.735829
 20
664.157664
 42
-0.038452
  0
VERTEX
  8
0
 10
333.449797
 20
663.236972
 42
-0.307342
  0
VERTEX
  8
0
 10
333.100694
 20
663.000000
 42
0.297622
  0
VERTEX
  8
0
 10
332.716140
 20
662.748850
 42
0.026011
  0
VERTEX
  8
0
 10
332.283264
 20
661.604687
 42
0.027466
  0
VERTEX
  8
0
 10
331.883713
 20
660.070445
 42
0.017485
  0
VERTEX
  8
0
 10
331.580810
 20
658.250000
 42
-0.001722
  0
VERTEX
  8
0
 10
330.546432
 20
650.539490
 42
-0.015722
  0
VERTEX
  8
0
 10
329.979406
 20
647.201006
 42
-0.032840
  0
VERTEX
  8
0
 10
329.497277
 20
645.426807
 42
-0.320273
  0
VERTEX
  8
0
 10
328.899306
 20
645.000000
 42
0.307342
  0
VERTEX
  8
0
 10
328.550203
 20
644.763028
 42
0.038452
  0
VERTEX
  8
0
 10
328.264171
 20
643.842336
 42
0.034590
  0
VERTEX
  8
0
 10
328.065024
 20
642.569479
 42
0.021515
  0
VERTEX
  8
0
 10
328.000000
 20
641.059017
 42
-0.023552
  0
VERTEX
  8
0
 10
327.926750
 20
639.504790
 42
-0.030444
  0
VERTEX
  8
0
 10
327.706250
 20
638.094150
 42
-0.031293
  0
VERTEX
  8
0
 10
327.387806
 20
636.980410
 42
-0.170670
  0
VERTEX
  8
0
 10
327.000000
 20
636.500000
 42
0.170670
  0
VERTEX
  8
0
 10
326.612194
 20
636.019590
 42
0.031293
  0
VERTEX
  8
0
 10
326.293750
 20
634.905850
 42
0.030444
  0
VERTEX
  8
0
 10
326.073250
 20
633.495210
 42
0.023552
  0
VERTEX
  8
0
 10
326.000000
 20
631.940983
 42
-0.023957
  0
VERTEX
  8
0
 10
325.927595
 20
630.430680
 42
-0.038191
  0
VERTEX
  8
0
 10
325.706250
 20
629.157664
 42
-0.044731
  0
VERTEX
  8
0
 10
325.386960
 20
628.248983
 42
-0.293924
  0
VERTEX
  8
0
 10
325.000000
 20
628.000000
 42
0.295869
  0
VERTEX
  8
0
 10
324.612873
 20
627.748945
 42
0.043820
  0
VERTEX
  8
0
 10
324.293750
 20
626.825000
 42
0.037669
  0
VERTEX
  8
0
 10
324.072390
 20
625.532944
 42
0.023598
  0
VERTEX
  8
0
 10
324.000000
 20
624.000000
 42
-0.023598
  0
VERTEX
  8
0
 10
323.927610
 20
622.467056
 42
-0.037669
  0
VERTEX
  8
0
 10
323.706250
 20
621.175000
 42
-0.043820
  0
VERTEX
  8
0
 10
323.387127
 20
620.251055
 42
-0.295869
  0
VERTEX
  8
0
 10
323.000000
 20
620.000000
 42
0.293924
  0
VERTEX
  8
0
 10
322.613040
 20
619.751017
 42
0.044731
  0
VERTEX
  8
0
 10
322.293750
 20
618.842336
 42
0.038191
  0
VERTEX
  8
0
 10
322.072405
 20
617.569320
 42
0.023957
  0
VERTEX
  8
0
 10
322.000000
 20
616.059017
 42
-0.023552
  0
VERTEX
  8
0
 10
321.926750
 20
614.504790
 42
-0.030444
  0
VERTEX
  8
0
 10
321.706250
 20
613.094150
 42
-0.031293
  0
VERTEX
  8
0
 10
321.387806
 20
611.980410
 42
-0.170670
  0
VERTEX
  8
0
 10
321.000000
 20
611.500000
 42
0.170670
  0
VERTEX
  8
0
 10
320.612194
 20
611.019590
 42
0.031293
  0
VERTEX
  8
0
 10
320.293750
 20
609.905850
 42
0.030444
  0
VERTEX
  8
0
 10
320.073250
 20
608.495210
 42
0.023552
  0
VERTEX
  8
0
 10
320.000000
 20
606.940983
 42
-0.021515
  0
VERTEX
  8
0
 10
319.934976
 20
605.430521
 42
-0.034590
  0
VERTEX
  8
0
 10
319.735829
 20
604.157664
 42
-0.038452
  0
VERTEX
  8
0
 10
319.449797
 20
603.236972
 42
-0.307342
  0
VERTEX
  8
0
 10
319.100694
 20
603.000000
 42
0.289206
  0
VERTEX
  8
0
 10
318.721407
 20
602.760592
 42
0.031067
  0
VERTEX
  8
0
 10
318.315364
 20
601.751562
 42
0.030587
  0
VERTEX
  8
0
 10
317.951161
 20
600.378692
 42
0.019610
  0
VERTEX
  8
0
 10
317.690088
 20
598.750000
 42
-0.010952
  0
VERTEX
  8
0
 10
317.411813
 20
596.798405
 42
-0.006049
  0
VERTEX
  8
0
 10
316.990899
 20
594.426563
 42
-0.006028
  0
VERTEX
  8
0
 10
316.505942
 20
592.031573
 42
-0.009638
  0
VERTEX
  8
0
 10
316.027867
 20
590.000000
 42
0.003927
  0
VERTEX
  8
0
 10
315.547265
 20
588.057467
 42
0.003067
  0
VERTEX
  8
0
 10
315.054853
 20
585.940625
 42
0.003101
  0
VERTEX
  8
0
 10
314.620611
 20
583.963660
 42
0.007555
  0
VERTEX
  8
0
 10
314.331665
 20
582.500000
 42
-0.042393
  0
VERTEX
  8
0
 10
313.872355
 20
580.804382
 42
-0.007276
  0
VERTEX
  8
0
 10
312.684504
 20
577.684775
 42
-0.007882
  0
VERTEX
  8
0
 10
311.174858
 20
574.054902
 42
-0.006965
  0
VERTEX
  8
0
 10
309.490019
 20
570.320511
 42
-0.028299
  0
VERTEX
  8
0
 10
305.474697
 20
562.870554
 42
-0.049685
  0
VERTEX
  8
0
 10
301.240966
 20
557.303777
 42
-0.058379
  0
VERTEX
  8
0
 10
296.543670
 20
553.309642
 42
-0.062345
  0
VERTEX
  8
0
 10
291.149382
 20
550.613388
 42
-0.017574
  0
VERTEX
  8
0
 10
287.981567
 20
549.620119
 42
-0.052847
  0
VERTEX
  8
0
 10
285.748724
 20
549.252678
 42
-0.052187
  0
VERTEX
  8
0
 10
283.473200
 20
549.359196
 42
-0.016819
  0
VERTEX
  8
0
 10
280.149382
 20
549.980148
 42
-0.020285
  0
VERTEX
  8
0
 10
275.953155
 20
551.091442
 42
-0.028185
  0
VERTEX
  8
0
 10
272.309031
 20
552.445688
 42
-0.032227
  0
VERTEX
  8
0
 10
269.342486
 20
553.977286
 42
-0.061169
  0
VERTEX
  8
0
 10
267.227468
 20
555.629675
 42
0.032747
  0
VERTEX
  8
0
 10
266.629474
 20
556.154079
 42
0.032483
  0
VERTEX
  8
0
 10
265.966565
 20
556.597467
 42
0.034276
  0
VERTEX
  8
0
 10
265.337071
 20
556.906255
 42
0.097184
  0
VERTEX
  8
0
 10
264.859319
 20
557.000000
 42
-0.198547
  0
VERTEX
  8
0
 10
263.534212
 20
557.547787
 42
-0.001231
  0
VERTEX
  8
0
 10
254.211000
 20
566.890738
 42
-0.005223
  0
VERTEX
  8
0
 10
245.710328
 20
575.632231
 42
-0.019586
  0
VERTEX
  8
0
 10
240.652721
 20
581.377604
 42
0.009829
  0
VERTEX
  8
0
 10
239.050008
 20
583.271512
 42
0.003754
  0
VERTEX
  8
0
 10
236.747402
 20
585.847204
 42
0.003716
  0
VERTEX
  8
0
 10
234.204245
 20
588.607844
 42
0.004551
  0
VERTEX
  8
0
 10
231.785244
 20
591.148118
 42
-0.006408
  0
VERTEX
  8
0
 10
229.394290
 20
593.677684
 42
-0.005458
  0
VERTEX
  8
0
 10
226.935832
 20
596.405522
 42
-0.005506
  0
VERTEX
  8
0
 10
224.753036
 20
598.936967
 42
-0.015482
  0
VERTEX
  8
0
 10
223.301584
 20
600.770514
 42
0.014639
  0
VERTEX
  8
0
 10
221.841810
 20
602.620974
 42
0.005011
  0
VERTEX
  8
0
 10
219.621896
 20
605.218281
 42
0.004976
  0
VERTEX
  8
0
 10
217.113428
 20
608.037202
 42
0.005730
  0
VERTEX
  8
0
 10
214.663234
 20
610.674698
 42
-0.004598
  0
VERTEX
  8
0
 10
212.297993
 20
613.209219
 42
-0.004994
  0
VERTEX
  8
0
 10
210.044670
 20
615.718635
 42
-0.004707
  0
VERTEX
  8
0
 10
208.156533
 20
617.905248
 42
-0.024240
  0
VERTEX
  8
0
 10
207.182662
 20
619.174698
 42
0.025421
  0
VERTEX
  8
0
 10
206.267239
 20
620.362141
 42
0.006948
  0
VERTEX
  8
0
 10
204.704305
 20
622.138817
 42
0.007007
  0
VERTEX
  8
0
 10
202.873377
 20
624.106575
 42
0.007247
  0
VERTEX
  8
0
 10
201.008136
 20
626.000000
 42
-0.010458
  0
VERTEX
  8
0
 10
199.083388
 20
627.979095
 42
-0.008153
  0
VERTEX
  8
0
 10
197.073130
 20
630.206250
 42
-0.008256
  0
VERTEX
  8
0
 10
195.267808
 20
632.343355
 42
-0.019795
  0
VERTEX
  8
0
 10
194.020548
 20
634.000000
 42
0.006233
  0
VERTEX
  8
0
 10
193.041261
 20
635.376888
 42
0.007976
  0
VERTEX
  8
0
 10
192.103759
 20
636.618750
 42
0.006365
  0
VERTEX
  8
0
 10
191.291315
 20
637.633099
 42
0.065186
  0
VERTEX
  8
0
 10
190.899487
 20
638.000000
 42
-0.094571
  0
VERTEX
  8
0
 10
190.502652
 20
638.417651
 42
-0.004688
  0
VERTEX
  8
0
 10
189.488435
 20
640.028578
 42
-0.007428
  0
VERTEX
  8
0
 10
188.323544
 20
641.982271
 42
-0.005289
  0
VERTEX
  8
0
 10
187.074491
 20
644.203671
 42
-0.024276
  0
VERTEX
  8
0
 10
184.497775
 20
649.495886
 42
-0.021045
  0
VERTEX
  8
0
 10
182.308553
 20
655.268620
 42
-0.021276
  0
VERTEX
  8
0
 10
180.637607
 20
661.126907
 42
-0.026785
  0
VERTEX
  8
0
 10
179.618167
 20
666.674133
 42
-0.072542
  0
VERTEX
  8
0
 10
179.765049
 20
675.499214
 42
-0.039811
  0
VERTEX
  8
0
 10
182.350605
 20
686.016743
 42
-0.039237
  0
VERTEX
  8
0
 10
186.681775
 20
696.287640
 42
-0.057468
  0
VERTEX
  8
0
 10
192.152395
 20
704.417448
 42
-0.011129
  0
VERTEX
  8
0
 10
195.588075
 20
708.261355
 42
-0.004499
  0
VERTEX
  8
0
 10
200.436588
 20
713.356181
 42
-0.000819
  0
VERTEX
  8
0
 10
205.673809
 20
718.743561
 42
-0.202162
  0
VERTEX
  8
0
 10
206.282130
 20
719.000000
 42
0.195617
  0
VERTEX
  8
0
 10
206.509511
 20
719.092498
 42
0.000079
  0
VERTEX
  8
0
 10
212.815281
 20
725.242188
 42
0.001174
  0
VERTEX
  8
0
 10
219.814307
 20
732.102274
 42
0.000712
  0
VERTEX
  8
0
 10
228.064575
 20
740.250000
 42
-0.001953
  0
VERTEX
  8
0
 10
236.643048
 20
748.679911
 42
-0.002442
  0
VERTEX
  8
0
 10
244.672545
 20
756.432812
 42
-0.001968
  0
VERTEX
  8
0
 10
251.467453
 20
762.878813
 42
-0.018906
  0
VERTEX
  8
0
 10
254.472303
 20
765.500000
 42
0.005895
  0
VERTEX
  8
0
 10
256.652867
 20
767.304436
 42
0.003895
  0
VERTEX
  8
0
 10
259.117466
 20
769.426563
 42
0.003920
  0
VERTEX
  8
0
 10
261.481305
 20
771.527149
 42
0.007586
  0
VERTEX
  8
0
 10
263.332476
 20
773.250000
 42
-0.011366
  0
VERTEX
  8
0
 10
264.899468
 20
774.686417
 42
-0.015671
  0
VERTEX
  8
0
 10
266.374346
 20
775.898438
 42
-0.012258
  0
VERTEX
  8
0
 10
267.639070
 20
776.824493
 42
-0.153056
  0
VERTEX
  8
0
 10
268.198983
 20
777.000000
 42
0.158171
  0
VERTEX
  8
0
 10
268.750933
 20
777.179086
 42
0.013337
  0
VERTEX
  8
0
 10
269.953974
 20
778.101562
 42
0.016675
  0
VERTEX
  8
0
 10
271.352231
 20
779.313601
 42
0.012109
  0
VERTEX
  8
0
 10
272.828401
 20
780.750000
 42
-0.016019
  0
VERTEX
  8
0
 10
274.435750
 20
782.289764
 42
-0.013538
  0
VERTEX
  8
0
 10
276.229280
 20
783.815263
 42
-0.013752
  0
VERTEX
  8
0
 10
277.941418
 20
785.117492
 42
-0.036611
  0
VERTEX
  8
0
 10
279.250000
 20
785.918980
 42
0.020959
  0
VERTEX
  8
0
 10
280.303210
 20
786.519593
 42
0.028756
  0
VERTEX
  8
0
 10
281.192187
 20
787.151134
 42
0.028542
  0
VERTEX
  8
0
 10
281.840642
 20
787.734074
 42
0.197895
  0
VERTEX
  8
0
 10
282.000000
 20
788.120939
 42
-0.206657
  0
VERTEX
  8
0
 10
282.190241
 20
788.561565
 42
-0.011314
  0
VERTEX
  8
0
 10
283.335723
 20
789.592920
 42
-0.016037
  0
VERTEX
  8
0
 10
284.804875
 20
790.776889
 42
-0.010903
  0
VERTEX
  8
0
 10
286.547142
 20
792.032434
 42
0.012926
  0
VERTEX
  8
0
 10
288.537247
 20
793.478849
 42
0.008408
  0
VERTEX
  8
0
 10
290.763046
 20
795.246434
 42
0.008456
  0
VERTEX
  8
0
 10
292.878261
 20
797.045782
 42
0.015902
  0
VERTEX
  8
0
 10
294.513808
 20
798.580475
 42
-0.012385
  0
VERTEX
  8
0
 10
295.890124
 20
799.890243
 42
-0.016919
  0
VERTEX
  8
0
 10
297.196969
 20
800.995515
 42
-0.013754
  0
VERTEX
  8
0
 10
298.321397
 20
801.833899
 42
-0.154507
  0
VERTEX
  8
0
 10
298.846085
 20
802.000000
 42
0.158513
  0
VERTEX
  8
0
 10
299.387900
 20
802.176197
 42
0.010643
  0
VERTEX
  8
0
 10
300.701473
 20
803.175000
 42
0.014468
  0
VERTEX
  8
0
 10
302.235186
 20
804.467680
 42
0.010289
  0
VERTEX
  8
0
 10
303.880563
 20
806.000000
 42
-0.011248
  0
VERTEX
  8
0
 10
305.532159
 20
807.532205
 42
-0.015569
  0
VERTEX
  8
0
 10
307.084946
 20
808.825000
 42
-0.012075
  0
VERTEX
  8
0
 10
308.416624
 20
809.814421
 42
-0.154934
  0
VERTEX
  8
0
 10
309.001145
 20
810.000000
 42
0.099155
  0
VERTEX
  8
0
 10
309.382344
 20
810.076347
 42
0.097972
  0
VERTEX
  8
0
 10
309.706586
 20
810.293750
 42
0.097917
  0
VERTEX
  8
0
 10
309.923749
 20
810.618360
 42
0.098921
  0
VERTEX
  8
0
 10
310.000000
 20
811.000000
 42
-0.127083
  0
VERTEX
  8
0
 10
310.098521
 20
811.381366
 42
-0.100760
  0
VERTEX
  8
0
 10
310.375777
 20
811.706250
 42
-0.089631
  0
VERTEX
  8
0
 10
310.790518
 20
811.924656
 42
-0.076630
  0
VERTEX
  8
0
 10
311.279241
 20
812.000000
 42
0.115942
  0
VERTEX
  8
0
 10
311.871239
 20
812.139145
 42
0.043072
  0
VERTEX
  8
0
 10
312.606151
 20
812.587500
 42
0.039803
  0
VERTEX
  8
0
 10
313.353917
 20
813.234732
 42
0.038332
  0
VERTEX
  8
0
 10
314.000000
 20
814.000000
 42
-0.038332
  0
VERTEX
  8
0
 10
314.646083
 20
814.765268
 42
-0.039803
  0
VERTEX
  8
0
 10
315.393849
 20
815.412500
 42
-0.043072
  0
VERTEX
  8
0
 10
316.128761
 20
815.860855
 42
-0.115942
  0
VERTEX
  8
0
 10
316.720759
 20
816.000000
 42
0.076630
  0
VERTEX
  8
0
 10
317.209482
 20
816.075344
 42
0.089631
  0
VERTEX
  8
0
 10
317.624223
 20
816.293750
 42
0.100760
  0
VERTEX
  8
0
 10
317.901479
 20
816.618634
 42
0.127083
  0
VERTEX
  8
0
 10
318.000000
 20
817.000000
 42
-0.148195
  0
VERTEX
  8
0
 10
318.115568
 20
817.381354
 42
-0.098894
  0
VERTEX
  8
0
 10
318.440625
 20
817.706250
 42
-0.082425
  0
VERTEX
  8
0
 10
318.926543
 20
817.925306
 42
-0.064853
  0
VERTEX
  8
0
 10
319.500000
 20
818.000000
 42
0.064853
  0
VERTEX
  8
0
 10
320.073457
 20
818.074694
 42
0.082425
  0
VERTEX
  8
0
 10
320.559375
 20
818.293750
 42
0.098894
  0
VERTEX
  8
0
 10
320.884432
 20
818.618646
 42
0.148195
  0
VERTEX
  8
0
 10
321.000000
 20
819.000000
 42
-0.097870
  0
VERTEX
  8
0
 10
321.075427
 20
819.381655
 42
-0.097662
  0
VERTEX
  8
0
 10
321.290392
 20
819.706250
 42
-0.098215
  0
VERTEX
  8
0
 10
321.611310
 20
819.923616
 42
-0.100219
  0
VERTEX
  8
0
 10
321.988569
 20
820.000000
 42
0.103525
  0
VERTEX
  8
0
 10
322.494470
 20
820.105882
 42
0.025735
  0
VERTEX
  8
0
 10
323.255037
 20
820.486586
 42
0.025204
  0
VERTEX
  8
0
 10
324.098532
 20
821.022426
 42
0.022943
  0
VERTEX
  8
0
 10
324.911746
 20
821.656463
 42
-0.063081
  0
VERTEX
  8
0
 10
328.841520
 20
824.242954
 42
-0.029370
  0
VERTEX
  8
0
 10
334.477703
 20
826.608544
 42
-0.029330
  0
VERTEX
  8
0
 10
340.469088
 20
828.331527
 42
-0.052402
  0
VERTEX
  8
0
 10
345.554583
 20
828.927563
 42
-0.015863
  0
VERTEX
  8
0
 10
349.151018
 20
828.856488
 42
-0.069114
  0
VERTEX
  8
0
 10
351.238092
 20
828.456199
 42
-0.079072
  0
VERTEX
  8
0
 10
352.997764
 20
827.528165
 42
-0.024612
  0
SEQEND
  0
POLYLINE
  8
0
 66
1
 70
1
  0
VERTEX
  8
0
 10
93.000000
 20
596.000000
 42
0.191087
  0
VERTEX
  8
0
 10
93.151477
 20
595.618118
 42
0.088204
  0
VERTEX
  8
0
 10
93.587500
 20
595.293750
 42
0.068025
  0
VERTEX
  8
0
 10
94.234582
 20
595.073693
 42
0.048028
  0
VERTEX
  8
0
 10
95.000000
 20
595.000000
 42
-0.048028
  0
VERTEX
  8
0
 10
95.765418
 20
594.926307
 42
-0.068025
  0
VERTEX
  8
0
 10
96.412500
 20
594.706250
 42
-0.088204
  0
VERTEX
  8
0
 10
96.848523
 20
594.381882
 42
-0.191087
  0
VERTEX
  8
0
 10
97.000000
 20
594.000000
 42
0.191087
  0
VERTEX
  8
0
 10
97.151477
 20
593.618118
 42
0.088204
  0
VERTEX
  8
0
 10
97.587500
 20
593.293750
 42
0.068025
  0
VERTEX
  8
0
 10
98.234582
 20
593.073693
 42
0.048028
  0
VERTEX
  8
0
 10
99.000000
 20
593.000000
 42
-0.048028
  0
VERTEX
  8
0
 10
99.765418
 20
592.926307
 42
-0.068025
  0
VERTEX
  8
0
 10
100.412500
 20
592.706250
 42
-0.088204
  0
VERTEX
  8
0
 10
100.848523
 20
592.381882
 42
-0.191087
  0
VERTEX
  8
0
 10
101.000000
 20
592.000000
 42
0.146628
  0
VERTEX
  8
0
 10
101.114290
 20
591.618651
 42
0.099126
  0
VERTEX
  8
0
 10
101.435682
 20
591.293750
 42
0.082965
  0
VERTEX
  8
0
 10
101.916177
 20
591.074739
 42
0.065624
  0
VERTEX
  8
0
 10
102.483174
 20
591.000000
 42
-0.128107
  0
VERTEX
  8
0
 10
103.296628
 20
590.788104
 42
-0.019051
  0
VERTEX
  8
0
 10
104.755063
 20
589.898438
 42
-0.020400
  0
VERTEX
  8
0
 10
106.429923
 20
588.685862
 42
-0.016301
  0
VERTEX
  8
0
 10
108.134510
 20
587.250000
 42
-0.013846
  0
VERTEX
  8
0
 10
116.869421
 20
578.942470
 42
-0.004573
  0
VERTEX
  8
0
 10
129.242725
 20
566.274584
 42
-0.004466
  0
VERTEX
  8
0
 10
141.290722
 20
553.485200
 42
-0.015965
  0
VERTEX
  8
0
 10
148.653603
 20
545.000000
 42
0.012781
  0
VERTEX
  8
0
 10
150.136404
 20
543.269037
 42
0.004473
  0
VERTEX
  8
0
 10
152.352934
 20
540.855330
 42
0.004438
  0
VERTEX
  8
0
 10
154.839867
 20
538.242219
 42
0.005174
  0
VERTEX
  8
0
 10
157.250000
 20
535.805380
 42
-0.008631
  0
VERTEX
  8
0
 10
159.453063
 20
533.546889
 42
-0.012537
  0
VERTEX
  8
0
 10
161.310937
 20
531.473537
 42
-0.008132
  0
VERTEX
  8
0
 10
162.775872
 20
529.696063
 42
-0.169866
  0
VERTEX
  8
0
 10
163.000000
 20
529.055380
 42
0.093666
  0
VERTEX
  8
0
 10
163.076137
 20
528.652519
 42
0.096520
  0
VERTEX
  8
0
 10
163.293750
 20
528.310018
 42
0.099103
  0
VERTEX
  8
0
 10
163.618439
 20
528.080771
 42
0.104683
  0
VERTEX
  8
0
 10
164.000000
 20
528.000000
 42
-0.098522
  0
VERTEX
  8
0
 10
164.381646
 20
527.924062
 42
-0.097822
  0
VERTEX
  8
0
 10
164.706250
 20
527.707732
 42
-0.098065
  0
VERTEX
  8
0
 10
164.923639
 20
527.384751
 42
-0.099556
  0
VERTEX
  8
0
 10
165.000000
 20
527.005047
 42
0.163064
  0
VERTEX
  8
0
 10
165.200520
 20
526.406544
 42
0.009284
  0
VERTEX
  8
0
 10
166.418597
 20
524.853591
 42
0.013411
  0
VERTEX
  8
0
 10
167.979126
 20
523.039939
 42
0.009384
  0
VERTEX
  8
0
 10
169.829268
 20
521.078112
 42
-0.005988
  0
VERTEX
  8
0
 10
171.855665
 20
518.958420
 42
-0.005047
  0
VERTEX
  8
0
 10
173.951028
 20
516.667436
 42
-0.005094
  0
VERTEX
  8
0
 10
175.820799
 20
514.537952
 42
-0.014065
  0
VERTEX
  8
0
 10
177.079268
 20
512.988803
 42
0.009925
  0
VERTEX
  8
0
 10
178.270980
 20
511.496761
 42
0.004472
  0
VERTEX
  8
0
 10
179.890472
 20
509.584722
 42
0.004425
  0
VERTEX
  8
0
 10
181.637196
 20
507.595356
 42
0.006022
  0
VERTEX
  8
0
 10
183.250000
 20
505.834138
 42
-0.010267
  0
VERTEX
  8
0
 10
184.686520
 20
504.238441
 42
-0.014365
  0
VERTEX
  8
0
 10
185.898438
 20
502.751030
 42
-0.010644
  0
VERTEX
  8
0
 10
186.833494
 20
501.478426
 42
-0.154304
  0
VERTEX
  8
0
 10
187.000000
 20
500.951734
 42
0.156879
  0
VERTEX
  8
0
 10
187.165128
 20
500.438396
 42
0.012795
  0
VERTEX
  8
0
 10
188.028125
 20
499.298530
 42
0.016205
  0
VERTEX
  8
0
 10
189.159344
 20
497.971812
 42
0.011742
  0
VERTEX
  8
0
 10
190.500000
 20
496.566667
 42
-0.011741
  0
VERTEX
  8
0
 10
191.840657
 20
495.161525
 42
-0.016204
  0
VERTEX
  8
0
 10
192.971875
 20
493.834817
 42
-0.012794
  0
VERTEX
  8
0
 10
193.834877
 20
492.694962
 42
-0.156882
  0
VERTEX
  8
0
 10
194.000000
 20
492.181647
 42
0.146463
  0
VERTEX
  8
0
 10
194.151264
 20
491.676333
 42
0.014723
  0
VERTEX
  8
0
 10
194.881250
 20
490.634459
 42
0.017484
  0
VERTEX
  8
0
 10
195.851013
 20
489.424313
 42
0.013048
  0
VERTEX
  8
0
 10
197.000000
 20
488.157416
 42
-0.014845
  0
VERTEX
  8
0
 10
198.148845
 20
486.881493
 42
-0.019310
  0
VERTEX
  8
0
 10
199.118750
 20
485.643923
 42
-0.017253
  0
VERTEX
  8
0
 10
199.839046
 20
484.571893
 42
-0.140186
  0
VERTEX
  8
0
 10
200.000000
 20
484.009102
 42
0.098116
  0
VERTEX
  8
0
 10
200.076309
 20
483.623976
 42
0.097723
  0
VERTEX
  8
0
 10
200.293750
 20
483.296424
 42
0.098159
  0
VERTEX
  8
0
 10
200.618375
 20
483.077071
 42
0.099968
  0
VERTEX
  8
0
 10
201.000000
 20
483.000000
 42
-0.099038
  0
VERTEX
  8
0
 10
201.381638
 20
482.923658
 42
-0.097945
  0
VERTEX
  8
0
 10
201.706250
 20
482.706250
 42
-0.097945
  0
VERTEX
  8
0
 10
201.923658
 20
482.381638
 42
-0.099038
  0
VERTEX
  8
0
 10
202.000000
 20
482.000000
 42
0.109586
  0
VERTEX
  8
0
 10
202.112450
 20
481.493097
 42
0.027615
  0
VERTEX
  8
0
 10
202.514062
 20
480.743436
 42
0.026845
  0
VERTEX
  8
0
 10
203.080169
 20
479.917224
 42
0.024245
  0
VERTEX
  8
0
 10
203.750000
 20
479.126591
 42
-0.017186
  0
VERTEX
  8
0
 10
205.901718
 20
476.658306
 42
-0.010619
  0
VERTEX
  8
0
 10
208.266466
 20
473.620020
 42
-0.010569
  0
VERTEX
  8
0
 10
210.412406
 20
470.607780
 42
-0.025638
  0
VERTEX
  8
0
 10
211.831256
 20
468.275830
 42
0.028365
  0
VERTEX
  8
0
 10
212.544916
 20
467.117166
 42
0.011880
  0
VERTEX
  8
0
 10
213.628837
 20
465.638402
 42
0.011709
  0
VERTEX
  8
0
 10
214.866206
 20
464.107322
 42
0.014903
  0
VERTEX
  8
0
 10
216.081256
 20
462.757558
 42
-0.014380
  0
VERTEX
  8
0
 10
217.199019
 20
461.518473
 42
-0.018850
  0
VERTEX
  8
0
 10
218.142619
 20
460.321337
 42
-0.016611
  0
VERTEX
  8
0
 10
218.845692
 20
459.286122
 42
-0.141784
  0
VERTEX
  8
0
 10
219.000000
 20
458.752896
 42
0.151164
  0
VERTEX
  8
0
 10
219.161610
 20
458.230556
 42
0.018565
  0
VERTEX
  8
0
 10
219.881250
 20
457.258411
 42
0.020606
  0
VERTEX
  8
0
 10
220.851124
 20
456.142668
 42
0.015666
  0
VERTEX
  8
0
 10
222.000000
 20
455.000000
 42
-0.011210
  0
VERTEX
  8
0
 10
223.149233
 20
453.877169
 42
-0.015772
  0
VERTEX
  8
0
 10
224.118750
 20
452.821866
 42
-0.011954
  0
VERTEX
  8
0
 10
224.864336
 20
451.914080
 42
-0.167465
  0
VERTEX
  8
0
 10
225.000000
 20
451.520390
 42
0.175395
  0
VERTEX
  8
0
 10
225.149328
 20
451.107794
 42
0.007471
  0
VERTEX
  8
0
 10
226.175000
 20
449.913184
 42
0.012043
  0
VERTEX
  8
0
 10
227.467353
 20
448.521713
 42
0.008205
  0
VERTEX
  8
0
 10
229.000000
 20
447.000000
 42
-0.009015
  0
VERTEX
  8
0
 10
230.532545
 20
445.473452
 42
-0.013066
  0
VERTEX
  8
0
 10
231.825000
 20
444.067040
 42
-0.008662
  0
VERTEX
  8
0
 10
232.840920
 20
442.860274
 42
-0.172280
  0
VERTEX
  8
0
 10
233.000000
 20
442.412288
 42
0.118998
  0
VERTEX
  8
0
 10
233.093314
 20
442.025760
 42
0.025200
  0
VERTEX
  8
0
 10
233.442798
 20
441.421209
 42
0.025044
  0
VERTEX
  8
0
 10
233.930357
 20
440.744897
 42
0.021494
  0
VERTEX
  8
0
 10
234.507397
 20
440.083888
 42
0.000448
  0
VERTEX
  8
0
 10
235.441185
 20
439.104474
 42
0.000051
  0
VERTEX
  8
0
 10
237.552636
 20
436.894273
 42
0.000062
  0
VERTEX
  8
0
 10
240.065229
 20
434.265354
 42
0.000050
  0
VERTEX
  8
0
 10
242.757397
 20
431.449806
 42
-0.004352
  0
VERTEX
  8
0
 10
245.558848
 20
428.469046
 42
-0.003951
  0
VERTEX
  8
0
 10
248.400610
 20
425.342968
 42
-0.003956
  0
VERTEX
  8
0
 10
250.898919
 20
422.505846
 42
-0.012678
  0
VERTEX
  8
0
 10
252.500000
 20
420.560842
 42
0.001928
  0
VERTEX
  8
0
 10
253.721890
 20
419.009690
 42
0.002149
  0
VERTEX
  8
0
 10
254.912500
 20
417.523344
 42
0.001982
  0
VERTEX
  8
0
 10
255.937808
 20
416.264812
 42
0.011314
  0
VERTEX
  8
0
 10
256.500000
 20
415.611036
 42
-0.033225
  0
VERTEX
  8
0
 10
256.978978
 20
415.001997
 42
-0.010079
  0
VERTEX
  8
0
 10
257.623075
 20
414.018554
 42
-0.010046
  0
VERTEX
  8
0
 10
258.302339
 20
412.884326
 42
-0.010786
  0
VERTEX
  8
0
 10
258.918980
 20
411.750000
 42
0.022236
  0
VERTEX
  8
0
 10
259.523118
 20
410.696866
 42
0.030119
  0
VERTEX
  8
0
 10
260.165246
 20
409.807813
 42
0.030557
  0
VERTEX
  8
0
 10
260.761879
 20
409.163280
 42
0.193066
  0
VERTEX
  8
0
 10
261.168980
 20
409.000000
 42
-0.282037
  0
VERTEX
  8
0
 10
261.489762
 20
408.803418
 42
-0.050287
  0
VERTEX
  8
0
 10
261.755888
 20
408.118750
 42
-0.041399
  0
VERTEX
  8
0
 10
261.939748
 20
407.149571
 42
-0.026188
  0
VERTEX
  8
0
 10
262.000000
 20
406.000000
 42
0.031626
  0
VERTEX
  8
0
 10
262.072766
 20
404.850749
 42
0.048861
  0
VERTEX
  8
0
 10
262.293750
 20
403.881250
 42
0.062710
  0
VERTEX
  8
0
 10
262.615738
 20
403.209557
 42
0.254951
  0
VERTEX
  8
0
 10
263.000000
 20
403.000000
 42
-0.254951
  0
VERTEX
  8
0
 10
263.384262
 20
402.790443
 42
-0.062710
  0
VERTEX
  8
0
 10
263.706250
 20
402.118750
 42
-0.048861
  0
VERTEX
  8
0
 10
263.927234
 20
401.149251
 42
-0.031626
  0
VERTEX
  8
0
 10
264.000000
 20
400.000000
 42
0.031626
  0
VERTEX
  8
0
 10
264.072766
 20
398.850749
 42
0.048861
  0
VERTEX
  8
0
 10
264.293750
 20
397.881250
 42
0.062710
  0
VERTEX
  8
0
 10
264.615738
 20
397.209557
 42
0.254951
  0
VERTEX
  8
0
 10
265.000000
 20
397.000000
 42
-0.368504
  0
VERTEX
  8
0
 10
265.423816
 20
396.638562
 42
-0.013417
  0
VERTEX
  8
0
 10
265.723684
 20
394.375000
 42
-0.017647
  0
VERTEX
  8
0
 10
265.933788
 20
391.360608
 42
-0.008575
  0
VERTEX
  8
0
 10
266.000000
 20
387.500000
 42
-0.008575
  0
VERTEX
  8
0
 10
265.933788
 20
383.639392
 42
-0.017647
  0
VERTEX
  8
0
 10
265.723684
 20
380.625000
 42
-0.013417
  0
VERTEX
  8
0
 10
265.423816
 20
378.361438
 42
-0.368504
  0
VERTEX
  8
0
 10
265.000000
 20
378.000000
 42
0.254951
  0
VERTEX
  8
0
 10
264.615738
 20
377.790443
 42
0.062710
  0
VERTEX
  8
0
 10
264.293750
 20
377.118750
 42
0.048861
  0
VERTEX
  8
0
 10
264.072766
 20
376.149251
 42
0.031626
  0
VERTEX
  8
0
 10
264.000000
 20
375.000000
 42
-0.031626
  0
VERTEX
  8
0
 10
263.927234
 20
373.850749
 42
-0.048861
  0
VERTEX
  8
0
 10
263.706250
 20
372.881250
 42
-0.062710
  0
VERTEX
  8
0
 10
263.384262
 20
372.209557
 42
-0.254951
  0
VERTEX
  8
0
 10
263.000000
 20
372.000000
 42
0.226478
  0
VERTEX
  8
0
 10
262.617064
 20
371.817169
 42
0.074992
  0
VERTEX
  8
0
 10
262.293750
 20
371.265625
 42
0.057076
  0
VERTEX
  8
0
 10
262.073116
 20
370.457356
 42
0.038131
  0
VERTEX
  8
0
 10
262.000000
 20
369.500000
 42
-0.038131
  0
VERTEX
  8
0
 10
261.926884
 20
368.542644
 42
-0.057076
  0
VERTEX
  8
0
 10
261.706250
 20
367.734375
 42
-0.074992
  0
VERTEX
  8
0
 10
261.382936
 20
367.182831
 42
-0.226478
  0
VERTEX
  8
0
 10
261.000000
 20
367.000000
 42
0.191087
  0
VERTEX
  8
0
 10
260.618118
 20
366.848523
 42
0.088204
  0
VERTEX
  8
0
 10
260.293750
 20
366.412500
 42
0.068025
  0
VERTEX
  8
0
 10
260.073693
 20
365.765418
 42
0.048028
  0
VERTEX
  8
0
 10
260.000000
 20
365.000000
 42
-0.048028
  0
VERTEX
  8
0
 10
259.926307
 20
364.234582
 42
-0.068025
  0
VERTEX
  8
0
 10
259.706250
 20
363.587500
 42
-0.088204
  0
VERTEX
  8
0
 10
259.381882
 20
363.151477
 42
-0.191087
  0
VERTEX
  8
0
 10
259.000000
 20
363.000000
 42
0.148195
  0
VERTEX
  8
0
 10
258.618646
 20
362.884432
 42
0.098894
  0
VERTEX
  8
0
 10
258.293750
 20
362.559375
 42
0.082425
  0
VERTEX
  8
0
 10
258.074694
 20
362.073457
 42
0.064853
  0
VERTEX
  8
0
 10
258.000000
 20
361.500000
 42
-0.064853
  0
VERTEX
  8
0
 10
257.925306
 20
360.926543
 42
-0.082425
  0
VERTEX
  8
0
 10
257.706250
 20
360.440625
 42
-0.098894
  0
VERTEX
  8
0
 10
257.381354
 20
360.115568
 42
-0.148195
  0
VERTEX
  8
0
 10
257.000000
 20
360.000000
 42
0.102684
  0
VERTEX
  8
0
 10
256.618413
 20
359.920799
 42
0.098731
  0
VERTEX
  8
0
 10
256.293750
 20
359.695753
 42
0.097045
  0
VERTEX
  8
0
 10
256.076210
 20
359.359597
 42
0.095508
  0
VERTEX
  8
0
 10
256.000000
 20
358.964267
 42
-0.119421
  0
VERTEX
  8
0
 10
255.865951
 20
358.411026
 42
-0.021758
  0
VERTEX
  8
0
 10
255.339063
 20
357.488529
 42
-0.022314
  0
VERTEX
  8
0
 10
254.611398
 20
356.440875
 42
-0.018624
  0
VERTEX
  8
0
 10
253.750000
 20
355.394913
 42
-0.014680
  0
VERTEX
  8
0
 10
249.559020
 20
350.945837
 42
-0.001850
  0
VERTEX
  8
0
 10
240.184796
 20
341.631297
 42
-0.002371
  0
VERTEX
  8
0
 10
230.297149
 20
331.971116
 42
-0.004838
  0
VERTEX
  8
0
 10
222.426201
 20
324.500000
 42
0.000707
  0
VERTEX
  8
0
 10
218.562303
 20
320.892595
 42
0.000439
  0
VERTEX
  8
0
 10
214.035551
 20
316.646875
 42
0.000440
  0
VERTEX
  8
0
 10
209.574669
 20
312.448171
 42
0.000795
  0
VERTEX
  8
0
 10
205.929268
 20
309.000000
 42
-0.001102
  0
VERTEX
  8
0
 10
202.352246
 20
305.620668
 42
-0.000673
  0
VERTEX
  8
0
 10
198.115962
 20
301.646875
 42
-0.000674
  0
VERTEX
  8
0
 10
193.908318
 20
297.721210
 42
-0.001198
  0
VERTEX
  8
0
 10
190.429705
 20
294.500000
 42
0.000924
  0
VERTEX
  8
0
 10
187.162501
 20
291.477877
 42
0.000722
  0
VERTEX
  8
0
 10
183.624675
 20
288.183758
 42
0.000729
  0
VERTEX
  8
0
 10
180.338957
 20
285.106531
 42
0.001780
  0
VERTEX
  8
0
 10
177.930063
 20
282.827686
 42
-0.005742
  0
VERTEX
  8
0
 10
175.709772
 20
280.760349
 42
-0.003656
  0
VERTEX
  8
0
 10
173.081159
 20
278.403481
 42
-0.003672
  0
VERTEX
  8
0
 10
170.468372
 20
276.128980
 42
-0.006808
  0
VERTEX
  8
0
 10
168.309426
 20
274.327686
 42
0.006570
  0
VERTEX
  8
0
 10
164.300947
 20
270.986479
 42
0.004975
  0
VERTEX
  8
0
 10
159.987764
 20
267.219153
 42
0.004441
  0
VERTEX
  8
0
 10
155.258757
 20
262.928978
 42
0.003081
  0
VERTEX
  8
0
 10
149.987195
 20
258.000000
 42
-0.004175
  0
VERTEX
  8
0
 10
146.078028
 20
254.360871
 42
-0.012039
  0
VERTEX
  8
0
 10
143.288006
 20
251.927557
 42
-0.011269
  0
VERTEX
  8
0
 10
141.226736
 20
250.292498
 42
-0.163448
  0
VERTEX
  8
0
 10
140.355864
 20
250.000000
 42
0.150735
  0
VERTEX
  8
0
 10
140.022676
 20
249.897218
 42
0.021429
  0
VERTEX
  8
0
 10
139.442009
 20
249.463725
 42
0.022791
  0
VERTEX
  8
0
 10
138.782050
 20
248.873459
 42
0.017639
  0
VERTEX
  8
0
 10
138.117295
 20
248.174384
 42
-0.044737
  0
VERTEX
  8
0
 10
137.268925
 20
247.373814
 42
-0.019780
  0
VERTEX
  8
0
 10
136.020393
 20
246.468359
 42
-0.019391
  0
VERTEX
  8
0
 10
134.612845
 20
245.607089
 42
-0.024707
  0
VERTEX
  8
0
 10
133.250000
 20
244.930272
 42
0.018256
  0
VERTEX
  8
0
 10
132.004991
 20
244.331865
 42
0.026279
  0
VERTEX
  8
0
 10
130.954687
 20
243.706418
 42
0.024600
  0
VERTEX
  8
0
 10
130.175755
 20
243.127878
 42
0.224347
  0
VERTEX
  8
0
 10
130.000000
 20
242.755889
 42
-0.235453
  0
VERTEX
  8
0
 10
129.855554
 20
242.466154
 42
-0.071241
  0
VERTEX
  8
0
 10
129.412500
 20
242.222042
 42
-0.054436
  0
VERTEX
  8
0
 10
128.765981
 20
242.055177
 42
-0.035971
  0
VERTEX
  8
0
 10
128.000000
 20
242.000000
 42
0.037233
  0
VERTEX
  8
0
 10
127.234075
 20
241.942885
 42
0.055989
  0
VERTEX
  8
0
 10
126.587500
 20
241.770380
 42
0.073472
  0
VERTEX
  8
0
 10
126.145546
 20
241.517764
 42
0.230151
  0
VERTEX
  8
0
 10
126.000000
 20
241.218315
 42
-0.368544
  0
VERTEX
  8
0
 10
124.251398
 20
239.168222
 42
-0.017446
  0
VERTEX
  8
0
 10
114.561907
 20
237.965326
 42
-0.020773
  0
VERTEX
  8
0
 10
104.775986
 20
237.504235
 42
-0.178897
  0
VERTEX
  8
0
 10
100.733012
 20
238.973195
 42
-0.014431
  0
VERTEX
  8
0
 10
97.001570
 20
242.322045
 42
-0.034750
  0
VERTEX
  8
0
 10
94.497575
 20
245.058603
 42
-0.039451
  0
VERTEX
  8
0
 10
92.587012
 20
247.895386
 42
-0.024188
  0
VERTEX
  8
0
 10
90.776406
 20
251.500000
 42
-0.042096
  0
VERTEX
  8
0
 10
87.577116
 20
260.750379
 42
-0.032808
  0
VERTEX
  8
0
 10
85.637896
 20
271.214477
 42
-0.015344
  0
VERTEX
  8
0
 10
84.214590
 20
287.539779
 42
-0.001988
  0
VERTEX
  8
0
 10
82.384470
 20
322.500000
 42
0.000414
  0
VERTEX
  8
0
 10
81.210561
 20
346.364406
 42
0.000840
  0
VERTEX
  8
0
 10
80.240403
 20
365.128084
 42
0.000901
  0
VERTEX
  8
0
 10
79.252598
 20
383.024571
 42
0.000561
  0
VERTEX
  8
0
 10
78.033310
 20
404.000000
 42
-0.000076
  0
VERTEX
  8
0
 10
76.391986
 20
431.770576
 42
-0.000304
  0
VERTEX
  8
0
 10
75.398713
 20
448.796327
 42
-0.000463
  0
VERTEX
  8
0
 10
74.657333
 20
461.848957
 42
-0.000453
  0
VERTEX
  8
0
 10
73.934547
 20
475.000000
 42
-0.001406
  0
VERTEX
  8
0
 10
73.513809
 20
483.212371
 42
-0.000938
  0
VERTEX
  8
0
 10
73.076104
 20
492.618750
 42
-0.000945
  0
VERTEX
  8
0
 10
72.686041
 20
501.741085
 42
-0.001856
  0
VERTEX
  8
0
 10
72.416375
 20
509.000000
 42
0.005518
  0
VERTEX
  8
0
 10
72.149063
 20
515.008870
 42
0.008367
  0
VERTEX
  8
0
 10
71.771590
 20
520.225937
 42
0.003962
  0
VERTEX
  8
0
 10
71.344466
 20
524.620630
 42
0.171683
  0
VERTEX
  8
0
 10
70.949077
 20
525.450000
 42
-0.197619
  0
VERTEX
  8
0
 10
70.031908
 20
527.651758
 42
-0.001406
  0
VERTEX
  8
0
 10
69.997432
 20
548.161362
 42
-0.001178
  0
VERTEX
  8
0
 10
70.069518
 20
568.842482
 42
-0.258375
  0
VERTEX
  8
0
 10
71.000000
 20
570.500000
 42
0.179846
  0
VERTEX
  8
0
 10
71.388891
 20
570.999702
 42
0.027581
  0
VERTEX
  8
0
 10
71.706250
 20
572.241025
 42
0.027868
  0
VERTEX
  8
0
 10
71.926887
 20
573.813184
 42
0.020930
  0
VERTEX
  8
0
 10
72.000000
 20
575.559017
 42
-0.021227
  0
VERTEX
  8
0
 10
72.072294
 20
577.261135
 42
-0.034160
  0
VERTEX
  8
0
 10
72.293750
 20
578.695461
 42
-0.037703
  0
VERTEX
  8
0
 10
72.611648
 20
579.734720
 42
-0.308946
  0
VERTEX
  8
0
 10
73.000000
 20
580.000000
 42
0.217340
  0
VERTEX
  8
0
 10
73.382605
 20
580.174556
 42
0.078668
  0
VERTEX
  8
0
 10
73.706250
 20
580.693383
 42
0.059818
  0
VERTEX
  8
0
 10
73.926752
 20
581.456662
 42
0.040456
  0
VERTEX
  8
0
 10
74.000000
 20
582.360453
 42
-0.121988
  0
VERTEX
  8
0
 10
74.835998
 20
585.736021
 42
-0.038859
  0
VERTEX
  8
0
 10
77.620795
 20
590.146115
 42
-0.036721
  0
VERTEX
  8
0
 10
80.937836
 20
593.971703
 42
-0.198307
  0
VERTEX
  8
0
 10
83.428571
 20
595.000000
 42
0.061768
  0
VERTEX
  8
0
 10
84.029450
 20
595.074515
 42
0.080164
  0
VERTEX
  8
0
 10
84.538393
 20
595.293750
 42
0.097780
  0
VERTEX
  8
0
 10
84.879052
 20
595.618614
 42
0.154765
  0
VERTEX
  8
0
 10
85.000000
 20
596.000000
 42
-0.295869
  0
VERTEX
  8
0
 10
85.251055
 20
596.387127
 42
-0.043820
  0
VERTEX
  8
0
 10
86.175000
 20
596.706250
 42
-0.037669
  0
VERTEX
  8
0
 10
87.467056
 20
596.927610
 42
-0.023598
  0
VERTEX
  8
0
 10
89.000000
 20
597.000000
 42
-0.023598
  0
VERTEX
  8
0
 10
90.532944
 20
596.927610
 42
-0.037669
  0
VERTEX
  8
0
 10
91.825000
 20
596.706250
 42
-0.043820
  0
VERTEX
  8
0
 10
92.748945
 20
596.387127
 42
-0.295869
  0
SEQEND
  0
ENDSEC
  0
EOF
