999
DXF data, created by potrace 1.11, written by Peter Selinger 2001-2013
  0
SECTION
  2
HEADER
  9
$ACADVER
  1
AC1006
  9
$EXTMIN
 10
0.000000
 20
0.000000
 30
0.000000
  9
$EXTMAX
 10
485.000000
 20
1938.000000
 30
0.000000
  0
ENDSEC
  0
SECTION
  2
ENTITIES
  0
POLYLINE
  8
0
 66
1
 70
1
  0
VERTEX
  8
0
 10
64.000000
 20
1926.000000
 42
-0.042803
  0
VERTEX
  8
0
 10
62.614214
 20
1925.683731
 42
-0.010280
  0
VERTEX
  8
0
 10
60.270686
 20
1925.405267
 42
-0.010483
  0
VERTEX
  8
0
 10
57.557751
 20
1925.196657
 42
-0.010217
  0
VERTEX
  8
0
 10
54.815100
 20
1925.099680
 42
0.011630
  0
VERTEX
  8
0
 10
52.081965
 20
1924.995311
 42
0.012166
  0
VERTEX
  8
0
 10
49.397566
 20
1924.764540
 42
0.011902
  0
VERTEX
  8
0
 10
47.092805
 20
1924.454100
 42
0.051453
  0
VERTEX
  8
0
 10
45.759740
 20
1924.098753
 42
-0.050579
  0
VERTEX
  8
0
 10
44.392445
 20
1923.731728
 42
-0.010216
  0
VERTEX
  8
0
 10
41.898739
 20
1923.378411
 42
-0.010685
  0
VERTEX
  8
0
 10
38.968630
 20
1923.087537
 42
-0.009815
  0
VERTEX
  8
0
 10
35.944640
 20
1922.912108
 42
0.008218
  0
VERTEX
  8
0
 10
32.935210
 20
1922.747171
 42
0.009244
  0
VERTEX
  8
0
 10
30.048956
 20
1922.487650
 42
0.008615
  0
VERTEX
  8
0
 10
27.605759
 20
1922.179678
 42
0.048422
  0
VERTEX
  8
0
 10
26.328403
 20
1921.867915
 42
-0.043701
  0
VERTEX
  8
0
 10
25.122850
 20
1921.561615
 42
-0.010558
  0
VERTEX
  8
0
 10
23.082619
 20
1921.273375
 42
-0.010755
  0
VERTEX
  8
0
 10
20.719060
 20
1921.041655
 42
-0.010495
  0
VERTEX
  8
0
 10
18.328403
 20
1920.909491
 42
0.012857
  0
VERTEX
  8
0
 10
15.969001
 20
1920.767874
 42
0.014237
  0
VERTEX
  8
0
 10
13.699252
 20
1920.507686
 42
0.013692
  0
VERTEX
  8
0
 10
11.782289
 20
1920.178650
 42
0.068385
  0
VERTEX
  8
0
 10
10.754157
 20
1919.821972
 42
-0.058565
  0
VERTEX
  8
0
 10
9.789223
 20
1919.465925
 42
-0.016020
  0
VERTEX
  8
0
 10
8.198059
 20
1919.135994
 42
-0.015968
  0
VERTEX
  8
0
 10
6.356609
 20
1918.875582
 42
-0.016016
  0
VERTEX
  8
0
 10
4.504157
 20
1918.733551
 42
0.000000
  0
VERTEX
  8
0
 10
0.000000
 20
1918.533021
 42
0.000000
  0
VERTEX
  8
0
 10
-0.000000
 20
969.000000
 42
0.000000
  0
VERTEX
  8
0
 10
-0.000000
 20
19.466979
 42
0.000000
  0
VERTEX
  8
0
 10
4.504157
 20
19.266449
 42
-0.016016
  0
VERTEX
  8
0
 10
6.356609
 20
19.124418
 42
-0.015968
  0
VERTEX
  8
0
 10
8.198059
 20
18.864006
 42
-0.016020
  0
VERTEX
  8
0
 10
9.789223
 20
18.534075
 42
-0.058565
  0
VERTEX
  8
0
 10
10.754157
 20
18.178028
 42
0.068385
  0
VERTEX
  8
0
 10
11.782289
 20
17.821350
 42
0.013692
  0
VERTEX
  8
0
 10
13.699252
 20
17.492314
 42
0.014237
  0
VERTEX
  8
0
 10
15.969001
 20
17.232126
 42
0.012857
  0
VERTEX
  8
0
 10
18.328403
 20
17.090509
 42
-0.010495
  0
VERTEX
  8
0
 10
20.719060
 20
16.958345
 42
-0.010755
  0
VERTEX
  8
0
 10
23.082619
 20
16.726625
 42
-0.010558
  0
VERTEX
  8
0
 10
25.122850
 20
16.438385
 42
-0.043701
  0
VERTEX
  8
0
 10
26.328403
 20
16.132085
 42
0.048621
  0
VERTEX
  8
0
 10
27.608004
 20
15.820313
 42
0.008567
  0
VERTEX
  8
0
 10
30.065218
 20
15.512317
 42
0.009211
  0
VERTEX
  8
0
 10
32.969373
 20
15.252758
 42
0.008167
  0
VERTEX
  8
0
 10
36.000000
 20
15.087780
 42
-0.007151
  0
VERTEX
  8
0
 10
38.945715
 20
14.933430
 42
-0.009797
  0
VERTEX
  8
0
 10
41.590625
 20
14.704756
 42
-0.006930
  0
VERTEX
  8
0
 10
43.783275
 20
14.441042
 42
-0.105290
  0
VERTEX
  8
0
 10
44.500000
 20
14.184794
 42
0.128921
  0
VERTEX
  8
0
 10
49.977607
 20
12.509892
 42
0.002844
  0
VERTEX
  8
0
 10
77.909323
 20
11.542232
 42
0.006075
  0
VERTEX
  8
0
 10
104.424790
 20
11.096952
 42
0.037638
  0
VERTEX
  8
0
 10
118.000000
 20
12.056956
 42
0.008563
  0
VERTEX
  8
0
 10
126.085896
 20
13.386482
 42
0.007617
  0
VERTEX
  8
0
 10
134.444858
 20
15.040292
 42
0.007651
  0
VERTEX
  8
0
 10
142.706648
 20
16.938690
 42
0.008892
  0
VERTEX
  8
0
 10
150.500000
 20
19.003087
 42
-0.002876
  0
VERTEX
  8
0
 10
152.214606
 20
19.479422
 42
-0.002330
  0
VERTEX
  8
0
 10
154.059375
 20
19.971289
 42
-0.002353
  0
VERTEX
  8
0
 10
155.764953
 20
20.408976
 42
-0.006093
  0
VERTEX
  8
0
 10
157.000000
 20
20.703771
 42
0.016652
  0
VERTEX
  8
0
 10
158.030468
 20
20.972851
 42
0.015791
  0
VERTEX
  8
0
 10
159.059375
 20
21.314164
 42
0.015967
  0
VERTEX
  8
0
 10
159.949572
 20
21.673660
 42
0.052191
  0
VERTEX
  8
0
 10
160.500000
 20
21.988836
 42
-0.061077
  0
VERTEX
  8
0
 10
161.145842
 20
22.343603
 42
-0.008146
  0
VERTEX
  8
0
 10
162.601562
 20
22.898230
 42
-0.009326
  0
VERTEX
  8
0
 10
164.358020
 20
23.498050
 42
-0.007714
  0
VERTEX
  8
0
 10
166.250000
 20
24.072956
 42
0.014242
  0
VERTEX
  8
0
 10
168.070342
 20
24.652155
 42
0.021927
  0
VERTEX
  8
0
 10
169.604688
 20
25.265671
 42
0.017802
  0
VERTEX
  8
0
 10
170.778614
 20
25.847041
 42
0.275512
  0
VERTEX
  8
0
 10
171.000000
 20
26.218315
 42
-0.290404
  0
VERTEX
  8
0
 10
171.191718
 20
26.520566
 42
-0.046379
  0
VERTEX
  8
0
 10
171.881250
 20
26.770380
 42
-0.039139
  0
VERTEX
  8
0
 10
172.850344
 20
26.943380
 42
-0.024610
  0
VERTEX
  8
0
 10
174.000000
 20
27.000000
 42
0.031626
  0
VERTEX
  8
0
 10
175.149251
 20
27.072766
 42
0.048861
  0
VERTEX
  8
0
 10
176.118750
 20
27.293750
 42
0.062710
  0
VERTEX
  8
0
 10
176.790443
 20
27.615738
 42
0.254951
  0
VERTEX
  8
0
 10
177.000000
 20
28.000000
 42
-0.226478
  0
VERTEX
  8
0
 10
177.182831
 20
28.382936
 42
-0.074992
  0
VERTEX
  8
0
 10
177.734375
 20
28.706250
 42
-0.057076
  0
VERTEX
  8
0
 10
178.542644
 20
28.926884
 42
-0.038131
  0
VERTEX
  8
0
 10
179.500000
 20
29.000000
 42
0.038131
  0
VERTEX
  8
0
 10
180.457356
 20
29.073116
 42
0.057076
  0
VERTEX
  8
0
 10
181.265625
 20
29.293750
 42
0.074992
  0
VERTEX
  8
0
 10
181.817169
 20
29.617064
 42
0.226478
  0
VERTEX
  8
0
 10
182.000000
 20
30.000000
 42
-0.191087
  0
VERTEX
  8
0
 10
182.151477
 20
30.381882
 42
-0.088204
  0
VERTEX
  8
0
 10
182.587500
 20
30.706250
 42
-0.068025
  0
VERTEX
  8
0
 10
183.234582
 20
30.926307
 42
-0.048028
  0
VERTEX
  8
0
 10
184.000000
 20
31.000000
 42
0.048028
  0
VERTEX
  8
0
 10
184.765418
 20
31.073693
 42
0.068025
  0
VERTEX
  8
0
 10
185.412500
 20
31.293750
 42
0.088204
  0
VERTEX
  8
0
 10
185.848523
 20
31.618118
 42
0.191087
  0
VERTEX
  8
0
 10
186.000000
 20
32.000000
 42
-0.226478
  0
VERTEX
  8
0
 10
186.182831
 20
32.382936
 42
-0.074992
  0
VERTEX
  8
0
 10
186.734375
 20
32.706250
 42
-0.057076
  0
VERTEX
  8
0
 10
187.542644
 20
32.926884
 42
-0.038131
  0
VERTEX
  8
0
 10
188.500000
 20
33.000000
 42
0.038131
  0
VERTEX
  8
0
 10
189.457356
 20
33.073116
 42
0.057076
  0
VERTEX
  8
0
 10
190.265625
 20
33.293750
 42
0.074992
  0
VERTEX
  8
0
 10
190.817169
 20
33.617064
 42
0.226478
  0
VERTEX
  8
0
 10
191.000000
 20
34.000000
 42
-0.226478
  0
VERTEX
  8
0
 10
191.182831
 20
34.382936
 42
-0.074992
  0
VERTEX
  8
0
 10
191.734375
 20
34.706250
 42
-0.057076
  0
VERTEX
  8
0
 10
192.542644
 20
34.926884
 42
-0.038131
  0
VERTEX
  8
0
 10
193.500000
 20
35.000000
 42
0.038131
  0
VERTEX
  8
0
 10
194.457356
 20
35.073116
 42
0.057076
  0
VERTEX
  8
0
 10
195.265625
 20
35.293750
 42
0.074992
  0
VERTEX
  8
0
 10
195.817169
 20
35.617064
 42
0.226478
  0
VERTEX
  8
0
 10
196.000000
 20
36.000000
 42
-0.191087
  0
VERTEX
  8
0
 10
196.151477
 20
36.381882
 42
-0.088204
  0
VERTEX
  8
0
 10
196.587500
 20
36.706250
 42
-0.068025
  0
VERTEX
  8
0
 10
197.234582
 20
36.926307
 42
-0.048028
  0
VERTEX
  8
0
 10
198.000000
 20
37.000000
 42
0.048028
  0
VERTEX
  8
0
 10
198.765418
 20
37.073693
 42
0.068025
  0
VERTEX
  8
0
 10
199.412500
 20
37.293750
 42
0.088204
  0
VERTEX
  8
0
 10
199.848523
 20
37.618118
 42
0.191087
  0
VERTEX
  8
0
 10
200.000000
 20
38.000000
 42
-0.191087
  0
VERTEX
  8
0
 10
200.151477
 20
38.381882
 42
-0.088204
  0
VERTEX
  8
0
 10
200.587500
 20
38.706250
 42
-0.068025
  0
VERTEX
  8
0
 10
201.234582
 20
38.926307
 42
-0.048028
  0
VERTEX
  8
0
 10
202.000000
 20
39.000000
 42
0.048028
  0
VERTEX
  8
0
 10
202.765418
 20
39.073693
 42
0.068025
  0
VERTEX
  8
0
 10
203.412500
 20
39.293750
 42
0.088204
  0
VERTEX
  8
0
 10
203.848523
 20
39.618118
 42
0.191087
  0
VERTEX
  8
0
 10
204.000000
 20
40.000000
 42
-0.191087
  0
VERTEX
  8
0
 10
204.151477
 20
40.381882
 42
-0.088204
  0
VERTEX
  8
0
 10
204.587500
 20
40.706250
 42
-0.068025
  0
VERTEX
  8
0
 10
205.234582
 20
40.926307
 42
-0.048028
  0
VERTEX
  8
0
 10
206.000000
 20
41.000000
 42
0.048028
  0
VERTEX
  8
0
 10
206.765418
 20
41.073693
 42
0.068025
  0
VERTEX
  8
0
 10
207.412500
 20
41.293750
 42
0.088204
  0
VERTEX
  8
0
 10
207.848523
 20
41.618118
 42
0.191087
  0
VERTEX
  8
0
 10
208.000000
 20
42.000000
 42
-0.147557
  0
VERTEX
  8
0
 10
208.115047
 20
42.381352
 42
-0.098990
  0
VERTEX
  8
0
 10
208.438610
 20
42.706250
 42
-0.082645
  0
VERTEX
  8
0
 10
208.922317
 20
42.925288
 42
-0.065165
  0
VERTEX
  8
0
 10
209.493140
 20
43.000000
 42
0.087603
  0
VERTEX
  8
0
 10
211.550646
 20
43.363276
 42
0.017411
  0
VERTEX
  8
0
 10
215.028085
 20
44.769736
 42
0.010850
  0
VERTEX
  8
0
 10
218.482532
 20
46.399640
 42
0.284374
  0
VERTEX
  8
0
 10
219.000000
 20
47.235900
 42
-0.233749
  0
VERTEX
  8
0
 10
219.144808
 20
47.528726
 42
-0.071963
  0
VERTEX
  8
0
 10
219.587500
 20
47.775546
 42
-0.054933
  0
VERTEX
  8
0
 10
220.234036
 20
47.944206
 42
-0.036372
  0
VERTEX
  8
0
 10
221.000000
 20
48.000000
 42
0.048028
  0
VERTEX
  8
0
 10
221.765418
 20
48.073693
 42
0.068025
  0
VERTEX
  8
0
 10
222.412500
 20
48.293750
 42
0.088204
  0
VERTEX
  8
0
 10
222.848523
 20
48.618118
 42
0.191087
  0
VERTEX
  8
0
 10
223.000000
 20
49.000000
 42
-0.191087
  0
VERTEX
  8
0
 10
223.151477
 20
49.381882
 42
-0.088204
  0
VERTEX
  8
0
 10
223.587500
 20
49.706250
 42
-0.068025
  0
VERTEX
  8
0
 10
224.234582
 20
49.926307
 42
-0.048028
  0
VERTEX
  8
0
 10
225.000000
 20
50.000000
 42
0.048028
  0
VERTEX
  8
0
 10
225.765418
 20
50.073693
 42
0.068025
  0
VERTEX
  8
0
 10
226.412500
 20
50.293750
 42
0.088204
  0
VERTEX
  8
0
 10
226.848523
 20
50.618118
 42
0.191087
  0
VERTEX
  8
0
 10
227.000000
 20
51.000000
 42
-0.184457
  0
VERTEX
  8
0
 10
227.145793
 20
51.381750
 42
-0.090315
  0
VERTEX
  8
0
 10
227.563021
 20
51.706250
 42
-0.070178
  0
VERTEX
  8
0
 10
228.183242
 20
51.926177
 42
-0.050201
  0
VERTEX
  8
0
 10
228.916667
 20
52.000000
 42
0.036404
  0
VERTEX
  8
0
 10
229.674758
 20
52.055268
 42
0.044078
  0
VERTEX
  8
0
 10
230.368229
 20
52.220313
 42
0.049842
  0
VERTEX
  8
0
 10
230.906393
 20
52.461515
 42
0.159230
  0
VERTEX
  8
0
 10
231.166667
 20
52.750000
 42
-0.153622
  0
VERTEX
  8
0
 10
231.762480
 20
53.425112
 42
-0.005365
  0
VERTEX
  8
0
 10
234.809863
 20
55.219325
 42
-0.009595
  0
VERTEX
  8
0
 10
238.499195
 20
57.245387
 42
-0.006653
  0
VERTEX
  8
0
 10
242.742198
 20
59.399134
 42
0.024972
  0
VERTEX
  8
0
 10
243.601319
 20
59.875567
 42
0.033038
  0
VERTEX
  8
0
 10
244.328042
 20
60.396933
 42
0.034802
  0
VERTEX
  8
0
 10
244.850197
 20
60.891183
 42
0.185295
  0
VERTEX
  8
0
 10
244.992198
 20
61.250000
 42
-0.235061
  0
VERTEX
  8
0
 10
245.139048
 20
61.537567
 42
-0.069969
  0
VERTEX
  8
0
 10
245.585208
 20
61.779688
 42
-0.053772
  0
VERTEX
  8
0
 10
246.233454
 20
61.945248
 42
-0.035668
  0
VERTEX
  8
0
 10
247.000000
 20
62.000000
 42
0.048028
  0
VERTEX
  8
0
 10
247.765418
 20
62.073693
 42
0.068025
  0
VERTEX
  8
0
 10
248.412500
 20
62.293750
 42
0.088204
  0
VERTEX
  8
0
 10
248.848523
 20
62.618118
 42
0.191087
  0
VERTEX
  8
0
 10
249.000000
 20
63.000000
 42
-0.148195
  0
VERTEX
  8
0
 10
249.115568
 20
63.381354
 42
-0.098894
  0
VERTEX
  8
0
 10
249.440625
 20
63.706250
 42
-0.082425
  0
VERTEX
  8
0
 10
249.926543
 20
63.925306
 42
-0.064853
  0
VERTEX
  8
0
 10
250.500000
 20
64.000000
 42
0.064853
  0
VERTEX
  8
0
 10
251.073457
 20
64.074694
 42
0.082425
  0
VERTEX
  8
0
 10
251.559375
 20
64.293750
 42
0.098894
  0
VERTEX
  8
0
 10
251.884432
 20
64.618646
 42
0.148195
  0
VERTEX
  8
0
 10
252.000000
 20
65.000000
 42
-0.152058
  0
VERTEX
  8
0
 10
252.118726
 20
65.381371
 42
-0.098266
  0
VERTEX
  8
0
 10
252.452908
 20
65.706250
 42
-0.081094
  0
VERTEX
  8
0
 10
252.952305
 20
65.925413
 42
-0.063011
  0
VERTEX
  8
0
 10
253.541813
 20
66.000000
 42
0.091681
  0
VERTEX
  8
0
 10
254.282083
 20
66.136887
 42
0.032799
  0
VERTEX
  8
0
 10
255.261326
 20
66.587500
 42
0.031223
  0
VERTEX
  8
0
 10
256.295150
 20
67.234610
 42
0.032092
  0
VERTEX
  8
0
 10
257.230375
 20
68.000000
 42
-0.027562
  0
VERTEX
  8
0
 10
258.148584
 20
68.765446
 42
-0.028874
  0
VERTEX
  8
0
 10
259.131751
 20
69.412500
 42
-0.030131
  0
VERTEX
  8
0
 10
260.040330
 20
69.867297
 42
-0.101307
  0
VERTEX
  8
0
 10
260.688561
 20
70.000000
 42
0.062821
  0
VERTEX
  8
0
 10
261.189993
 20
70.063250
 42
0.080953
  0
VERTEX
  8
0
 10
261.614765
 20
70.249137
 42
0.098195
  0
VERTEX
  8
0
 10
261.899021
 20
70.524674
 42
0.152468
  0
VERTEX
  8
0
 10
262.000000
 20
70.848126
 42
-0.228955
  0
VERTEX
  8
0
 10
262.205296
 20
71.272956
 42
-0.021267
  0
VERTEX
  8
0
 10
263.175000
 20
71.976966
 42
-0.023993
  0
VERTEX
  8
0
 10
264.467552
 20
72.747306
 42
-0.016465
  0
VERTEX
  8
0
 10
266.000000
 20
73.500000
 42
0.014205
  0
VERTEX
  8
0
 10
267.532645
 20
74.244215
 42
0.021118
  0
VERTEX
  8
0
 10
268.825000
 20
74.988774
 42
0.017150
  0
VERTEX
  8
0
 10
269.811204
 20
75.662324
 42
0.238709
  0
VERTEX
  8
0
 10
270.000000
 20
76.035243
 42
-0.179273
  0
VERTEX
  8
0
 10
270.119856
 20
76.358783
 42
-0.051492
  0
VERTEX
  8
0
 10
270.514063
 20
76.732220
 42
-0.044723
  0
VERTEX
  8
0
 10
271.080137
 20
77.091924
 42
-0.034826
  0
VERTEX
  8
0
 10
271.750000
 20
77.380727
 42
0.053101
  0
VERTEX
  8
0
 10
273.374543
 20
78.152558
 42
0.008955
  0
VERTEX
  8
0
 10
276.278847
 20
80.004087
 42
0.010490
  0
VERTEX
  8
0
 10
279.300173
 20
82.099757
 42
0.018149
  0
VERTEX
  8
0
 10
281.707794
 20
83.982679
 42
-0.020523
  0
VERTEX
  8
0
 10
282.210641
 20
84.372107
 42
-0.023404
  0
VERTEX
  8
0
 10
282.722745
 20
84.701162
 42
-0.023438
  0
VERTEX
  8
0
 10
283.178401
 20
84.936911
 42
-0.108065
  0
VERTEX
  8
0
 10
283.466895
 20
85.000000
 42
0.164567
  0
VERTEX
  8
0
 10
283.805744
 20
85.114631
 42
0.007534
  0
VERTEX
  8
0
 10
284.778400
 20
85.881250
 42
0.011874
  0
VERTEX
  8
0
 10
285.914611
 20
86.850569
 42
0.008170
  0
VERTEX
  8
0
 10
287.157416
 20
88.000000
 42
-0.016599
  0
VERTEX
  8
0
 10
288.442230
 20
89.148717
 42
-0.020978
  0
VERTEX
  8
0
 10
289.706694
 20
90.118750
 42
-0.019584
  0
VERTEX
  8
0
 10
290.809997
 20
90.831041
 42
-0.134328
  0
VERTEX
  8
0
 10
291.427555
 20
91.000000
 42
0.125545
  0
VERTEX
  8
0
 10
291.961046
 20
91.136099
 42
0.040344
  0
VERTEX
  8
0
 10
292.649718
 20
91.587500
 42
0.037324
  0
VERTEX
  8
0
 10
293.364939
 20
92.234637
 42
0.034062
  0
VERTEX
  8
0
 10
294.000000
 20
93.000000
 42
-0.038332
  0
VERTEX
  8
0
 10
294.646083
 20
93.765268
 42
-0.039803
  0
VERTEX
  8
0
 10
295.393849
 20
94.412500
 42
-0.043072
  0
VERTEX
  8
0
 10
296.128761
 20
94.860855
 42
-0.115942
  0
VERTEX
  8
0
 10
296.720759
 20
95.000000
 42
0.076630
  0
VERTEX
  8
0
 10
297.209482
 20
95.075344
 42
0.089631
  0
VERTEX
  8
0
 10
297.624223
 20
95.293750
 42
0.100760
  0
VERTEX
  8
0
 10
297.901479
 20
95.618634
 42
0.127083
  0
VERTEX
  8
0
 10
298.000000
 20
96.000000
 42
-0.109085
  0
VERTEX
  8
0
 10
298.084236
 20
96.381509
 42
-0.099782
  0
VERTEX
  8
0
 10
298.322770
 20
96.706250
 42
-0.095294
  0
VERTEX
  8
0
 10
298.679287
 20
96.924024
 42
-0.089824
  0
VERTEX
  8
0
 10
299.098790
 20
97.000000
 42
0.143035
  0
VERTEX
  8
0
 10
299.687098
 20
97.171812
 42
0.021819
  0
VERTEX
  8
0
 10
300.698022
 20
97.881250
 42
0.022916
  0
VERTEX
  8
0
 10
301.846499
 20
98.851293
 42
0.018062
  0
VERTEX
  8
0
 10
303.000000
 20
100.000000
 42
-0.018062
  0
VERTEX
  8
0
 10
304.153501
 20
101.148707
 42
-0.022916
  0
VERTEX
  8
0
 10
305.301978
 20
102.118750
 42
-0.021819
  0
VERTEX
  8
0
 10
306.312902
 20
102.828188
 42
-0.143035
  0
VERTEX
  8
0
 10
306.901210
 20
103.000000
 42
0.089824
  0
VERTEX
  8
0
 10
307.320713
 20
103.075976
 42
0.095294
  0
VERTEX
  8
0
 10
307.677230
 20
103.293750
 42
0.099782
  0
VERTEX
  8
0
 10
307.915764
 20
103.618491
 42
0.109085
  0
VERTEX
  8
0
 10
308.000000
 20
104.000000
 42
-0.141383
  0
VERTEX
  8
0
 10
308.110029
 20
104.381339
 42
-0.099800
  0
VERTEX
  8
0
 10
308.419305
 20
104.706250
 42
-0.084771
  0
VERTEX
  8
0
 10
308.881825
 20
104.925108
 42
-0.068313
  0
VERTEX
  8
0
 10
309.427420
 20
105.000000
 42
0.115127
  0
VERTEX
  8
0
 10
310.101524
 20
105.157300
 42
0.039214
  0
VERTEX
  8
0
 10
310.970918
 20
105.674757
 42
0.036530
  0
VERTEX
  8
0
 10
311.874640
 20
106.418040
 42
0.034700
  0
VERTEX
  8
0
 10
312.677420
 20
107.297046
 42
-0.028114
  0
VERTEX
  8
0
 10
313.614537
 20
108.350663
 42
-0.012386
  0
VERTEX
  8
0
 10
314.963201
 20
109.639891
 42
-0.012213
  0
VERTEX
  8
0
 10
316.464420
 20
110.939853
 42
-0.016048
  0
VERTEX
  8
0
 10
317.899435
 20
112.047046
 42
0.036351
  0
VERTEX
  8
0
 10
326.925656
 20
119.614782
 42
0.003746
  0
VERTEX
  8
0
 10
346.734169
 20
139.128181
 42
0.004623
  0
VERTEX
  8
0
 10
366.157747
 20
158.913780
 42
0.021516
  0
VERTEX
  8
0
 10
376.749335
 20
170.895475
 42
-0.005013
  0
VERTEX
  8
0
 10
378.002061
 20
172.410552
 42
-0.003121
  0
VERTEX
  8
0
 10
379.499805
 20
174.163111
 42
-0.003131
  0
VERTEX
  8
0
 10
380.998717
 20
175.873275
 42
-0.005666
  0
VERTEX
  8
0
 10
382.250000
 20
177.251230
 42
0.013424
  0
VERTEX
  8
0
 10
383.303189
 20
178.447823
 42
0.017774
  0
VERTEX
  8
0
 10
384.192187
 20
179.594821
 42
0.015251
  0
VERTEX
  8
0
 10
384.858482
 20
180.582866
 42
0.141638
  0
VERTEX
  8
0
 10
385.000000
 20
181.072422
 42
-0.158056
  0
VERTEX
  8
0
 10
385.162615
 20
181.573993
 42
-0.012320
  0
VERTEX
  8
0
 10
386.028125
 20
182.708566
 42
-0.015848
  0
VERTEX
  8
0
 10
387.159312
 20
184.029936
 42
-0.011425
  0
VERTEX
  8
0
 10
388.500000
 20
185.433333
 42
0.011741
  0
VERTEX
  8
0
 10
389.840657
 20
186.838475
 42
0.016204
  0
VERTEX
  8
0
 10
390.971875
 20
188.165183
 42
0.012794
  0
VERTEX
  8
0
 10
391.834877
 20
189.305038
 42
0.156882
  0
VERTEX
  8
0
 10
392.000000
 20
189.818353
 42
-0.146463
  0
VERTEX
  8
0
 10
392.151264
 20
190.323667
 42
-0.014723
  0
VERTEX
  8
0
 10
392.881250
 20
191.365541
 42
-0.017484
  0
VERTEX
  8
0
 10
393.851013
 20
192.575687
 42
-0.013048
  0
VERTEX
  8
0
 10
395.000000
 20
193.842584
 42
0.007381
  0
VERTEX
  8
0
 10
396.149511
 20
195.081544
 42
0.010869
  0
VERTEX
  8
0
 10
397.118750
 20
196.205844
 42
0.006408
  0
VERTEX
  8
0
 10
397.893121
 20
197.169507
 42
0.167567
  0
VERTEX
  8
0
 10
398.000000
 20
197.479467
 42
-0.160930
  0
VERTEX
  8
0
 10
398.189601
 20
198.053292
 42
-0.006625
  0
VERTEX
  8
0
 10
399.522479
 20
199.801172
 42
-0.011852
  0
VERTEX
  8
0
 10
401.090624
 20
201.707193
 42
-0.011790
  0
VERTEX
  8
0
 10
402.750000
 20
203.540163
 42
0.024324
  0
VERTEX
  8
0
 10
403.228452
 20
204.096051
 42
0.027043
  0
VERTEX
  8
0
 10
403.632812
 20
204.677119
 42
0.027831
  0
VERTEX
  8
0
 10
403.919740
 20
205.204537
 42
0.111103
  0
VERTEX
  8
0
 10
404.000000
 20
205.561276
 42
-0.138066
  0
VERTEX
  8
0
 10
404.104072
 20
205.930983
 42
-0.024295
  0
VERTEX
  8
0
 10
404.514063
 20
206.533651
 42
-0.024715
  0
VERTEX
  8
0
 10
405.079989
 20
207.211880
 42
-0.020001
  0
VERTEX
  8
0
 10
405.750000
 20
207.882705
 42
0.036608
  0
VERTEX
  8
0
 10
406.554868
 20
208.743896
 42
0.013915
  0
VERTEX
  8
0
 10
407.551314
 20
210.053044
 42
0.013694
  0
VERTEX
  8
0
 10
408.559494
 20
211.541410
 42
0.016306
  0
VERTEX
  8
0
 10
409.424687
 20
213.000000
 42
-0.006819
  0
VERTEX
  8
0
 10
410.206505
 20
214.376906
 42
-0.008790
  0
VERTEX
  8
0
 10
410.963843
 20
215.618750
 42
-0.006976
  0
VERTEX
  8
0
 10
411.627938
 20
216.634228
 42
-0.073345
  0
VERTEX
  8
0
 10
411.961615
 20
217.000000
 42
0.067076
  0
VERTEX
  8
0
 10
412.327343
 20
217.390996
 42
0.003398
  0
VERTEX
  8
0
 10
413.330125
 20
218.821875
 42
0.005388
  0
VERTEX
  8
0
 10
414.495288
 20
220.548220
 42
0.003873
  0
VERTEX
  8
0
 10
415.760631
 20
222.500000
 42
-0.003323
  0
VERTEX
  8
0
 10
417.055975
 20
224.502878
 42
-0.003886
  0
VERTEX
  8
0
 10
418.312766
 20
226.386039
 42
-0.003441
  0
VERTEX
  8
0
 10
419.398272
 20
227.962035
 42
-0.023580
  0
VERTEX
  8
0
 10
419.973703
 20
228.707794
 42
0.037306
  0
VERTEX
  8
0
 10
420.366501
 20
229.246798
 42
0.031821
  0
VERTEX
  8
0
 10
420.698525
 20
229.866946
 42
0.033070
  0
VERTEX
  8
0
 10
420.927718
 20
230.472492
 42
0.074063
  0
VERTEX
  8
0
 10
421.000000
 20
230.957794
 42
-0.094894
  0
VERTEX
  8
0
 10
421.076186
 20
231.355605
 42
-0.096874
  0
VERTEX
  8
0
 10
421.293750
 20
231.693852
 42
-0.098858
  0
VERTEX
  8
0
 10
421.618422
 20
231.920282
 42
-0.103343
  0
VERTEX
  8
0
 10
422.000000
 20
232.000000
 42
0.148195
  0
VERTEX
  8
0
 10
422.381354
 20
232.115568
 42
0.098894
  0
VERTEX
  8
0
 10
422.706250
 20
232.440625
 42
0.082425
  0
VERTEX
  8
0
 10
422.925306
 20
232.926543
 42
0.064853
  0
VERTEX
  8
0
 10
423.000000
 20
233.500000
 42
-0.064853
  0
VERTEX
  8
0
 10
423.074694
 20
234.073457
 42
-0.082425
  0
VERTEX
  8
0
 10
423.293750
 20
234.559375
 42
-0.098894
  0
VERTEX
  8
0
 10
423.618646
 20
234.884432
 42
-0.148195
  0
VERTEX
  8
0
 10
424.000000
 20
235.000000
 42
0.148195
  0
VERTEX
  8
0
 10
424.381354
 20
235.115568
 42
0.098894
  0
VERTEX
  8
0
 10
424.706250
 20
235.440625
 42
0.082425
  0
VERTEX
  8
0
 10
424.925306
 20
235.926543
 42
0.064853
  0
VERTEX
  8
0
 10
425.000000
 20
236.500000
 42
-0.064853
  0
VERTEX
  8
0
 10
425.074694
 20
237.073457
 42
-0.082425
  0
VERTEX
  8
0
 10
425.293750
 20
237.559375
 42
-0.098894
  0
VERTEX
  8
0
 10
425.618646
 20
237.884432
 42
-0.148195
  0
VERTEX
  8
0
 10
426.000000
 20
238.000000
 42
0.173062
  0
VERTEX
  8
0
 10
426.381567
 20
238.136147
 42
0.093597
  0
VERTEX
  8
0
 10
426.706250
 20
238.522652
 42
0.073949
  0
VERTEX
  8
0
 10
426.925933
 20
239.098578
 42
0.054248
  0
VERTEX
  8
0
 10
427.000000
 20
239.779241
 42
-0.091287
  0
VERTEX
  8
0
 10
427.144747
 20
240.565449
 42
-0.047927
  0
VERTEX
  8
0
 10
427.587500
 20
241.459276
 42
-0.045499
  0
VERTEX
  8
0
 10
428.234851
 20
242.316802
 42
-0.052224
  0
VERTEX
  8
0
 10
429.000000
 20
243.000000
 42
0.052224
  0
VERTEX
  8
0
 10
429.765149
 20
243.683198
 42
0.045499
  0
VERTEX
  8
0
 10
430.412500
 20
244.540724
 42
0.047927
  0
VERTEX
  8
0
 10
430.855253
 20
245.434551
 42
0.091287
  0
VERTEX
  8
0
 10
431.000000
 20
246.220759
 42
-0.054248
  0
VERTEX
  8
0
 10
431.074067
 20
246.901422
 42
-0.073949
  0
VERTEX
  8
0
 10
431.293750
 20
247.477348
 42
-0.093597
  0
VERTEX
  8
0
 10
431.618433
 20
247.863853
 42
-0.173062
  0
VERTEX
  8
0
 10
432.000000
 20
248.000000
 42
0.173062
  0
VERTEX
  8
0
 10
432.381567
 20
248.136147
 42
0.093597
  0
VERTEX
  8
0
 10
432.706250
 20
248.522652
 42
0.073949
  0
VERTEX
  8
0
 10
432.925933
 20
249.098578
 42
0.054248
  0
VERTEX
  8
0
 10
433.000000
 20
249.779241
 42
-0.091287
  0
VERTEX
  8
0
 10
433.144747
 20
250.565449
 42
-0.047927
  0
VERTEX
  8
0
 10
433.587500
 20
251.459276
 42
-0.045499
  0
VERTEX
  8
0
 10
434.234851
 20
252.316802
 42
-0.052224
  0
VERTEX
  8
0
 10
435.000000
 20
253.000000
 42
0.052224
  0
VERTEX
  8
0
 10
435.765149
 20
253.683198
 42
0.045499
  0
VERTEX
  8
0
 10
436.412500
 20
254.540724
 42
0.047927
  0
VERTEX
  8
0
 10
436.855253
 20
255.434551
 42
0.091287
  0
VERTEX
  8
0
 10
437.000000
 20
256.220759
 42
-0.054248
  0
VERTEX
  8
0
 10
437.074067
 20
256.901422
 42
-0.073949
  0
VERTEX
  8
0
 10
437.293750
 20
257.477348
 42
-0.093597
  0
VERTEX
  8
0
 10
437.618433
 20
257.863853
 42
-0.173062
  0
VERTEX
  8
0
 10
438.000000
 20
258.000000
 42
0.101067
  0
VERTEX
  8
0
 10
438.381609
 20
258.077932
 42
0.098400
  0
VERTEX
  8
0
 10
438.706250
 20
258.299587
 42
0.097454
  0
VERTEX
  8
0
 10
438.923731
 20
258.630620
 42
0.097046
  0
VERTEX
  8
0
 10
439.000000
 20
259.019872
 42
-0.109461
  0
VERTEX
  8
0
 10
439.135080
 20
259.629506
 42
-0.010837
  0
VERTEX
  8
0
 10
439.801811
 20
260.982757
 42
-0.013254
  0
VERTEX
  8
0
 10
440.684218
 20
262.575356
 42
-0.010144
  0
VERTEX
  8
0
 10
441.729568
 20
264.269872
 42
0.001287
  0
VERTEX
  8
0
 10
444.634731
 20
268.797674
 42
0.007631
  0
VERTEX
  8
0
 10
446.111737
 20
271.192569
 42
0.009196
  0
VERTEX
  8
0
 10
447.399021
 20
273.446191
 42
0.002403
  0
VERTEX
  8
0
 10
449.381145
 20
277.111098
 42
-0.004710
  0
VERTEX
  8
0
 10
450.529907
 20
279.211910
 42
-0.006608
  0
VERTEX
  8
0
 10
451.597743
 20
281.063885
 42
-0.004122
  0
VERTEX
  8
0
 10
452.525790
 20
282.596454
 42
-0.084826
  0
VERTEX
  8
0
 10
452.881145
 20
283.000000
 42
0.081982
  0
VERTEX
  8
0
 10
453.795617
 20
284.026731
 42
0.009338
  0
VERTEX
  8
0
 10
455.411750
 20
286.690371
 42
0.011542
  0
VERTEX
  8
0
 10
456.924474
 20
289.435851
 42
0.043381
  0
VERTEX
  8
0
 10
457.678279
 20
291.250000
 42
-0.042985
  0
VERTEX
  8
0
 10
457.955892
 20
291.919615
 42
-0.052305
  0
VERTEX
  8
0
 10
458.329726
 20
292.485937
 42
-0.061039
  0
VERTEX
  8
0
 10
458.738081
 20
292.874766
 42
-0.161118
  0
VERTEX
  8
0
 10
459.116631
 20
293.000000
 42
0.166062
  0
VERTEX
  8
0
 10
459.453620
 20
293.115096
 42
0.095369
  0
VERTEX
  8
0
 10
459.740510
 20
293.440625
 42
0.076307
  0
VERTEX
  8
0
 10
459.934428
 20
293.926261
 42
0.056959
  0
VERTEX
  8
0
 10
460.000000
 20
294.500000
 42
-0.064853
  0
VERTEX
  8
0
 10
460.074694
 20
295.073457
 42
-0.082425
  0
VERTEX
  8
0
 10
460.293750
 20
295.559375
 42
-0.098894
  0
VERTEX
  8
0
 10
460.618646
 20
295.884432
 42
-0.148195
  0
VERTEX
  8
0
 10
461.000000
 20
296.000000
 42
0.148195
  0
VERTEX
  8
0
 10
461.381354
 20
296.115568
 42
0.098894
  0
VERTEX
  8
0
 10
461.706250
 20
296.440625
 42
0.082425
  0
VERTEX
  8
0
 10
461.925306
 20
296.926543
 42
0.064853
  0
VERTEX
  8
0
 10
462.000000
 20
297.500000
 42
-0.064853
  0
VERTEX
  8
0
 10
462.074694
 20
298.073457
 42
-0.082425
  0
VERTEX
  8
0
 10
462.293750
 20
298.559375
 42
-0.098894
  0
VERTEX
  8
0
 10
462.618646
 20
298.884432
 42
-0.148195
  0
VERTEX
  8
0
 10
463.000000
 20
299.000000
 42
0.148195
  0
VERTEX
  8
0
 10
463.381354
 20
299.115568
 42
0.098894
  0
VERTEX
  8
0
 10
463.706250
 20
299.440625
 42
0.082425
  0
VERTEX
  8
0
 10
463.925306
 20
299.926543
 42
0.064853
  0
VERTEX
  8
0
 10
464.000000
 20
300.500000
 42
-0.064853
  0
VERTEX
  8
0
 10
464.074694
 20
301.073457
 42
-0.082425
  0
VERTEX
  8
0
 10
464.293750
 20
301.559375
 42
-0.098894
  0
VERTEX
  8
0
 10
464.618646
 20
301.884432
 42
-0.148195
  0
VERTEX
  8
0
 10
465.000000
 20
302.000000
 42
0.173062
  0
VERTEX
  8
0
 10
465.381567
 20
302.136147
 42
0.093597
  0
VERTEX
  8
0
 10
465.706250
 20
302.522652
 42
0.073949
  0
VERTEX
  8
0
 10
465.925933
 20
303.098578
 42
0.054248
  0
VERTEX
  8
0
 10
466.000000
 20
303.779241
 42
-0.091287
  0
VERTEX
  8
0
 10
466.144747
 20
304.565449
 42
-0.047927
  0
VERTEX
  8
0
 10
466.587500
 20
305.459276
 42
-0.045499
  0
VERTEX
  8
0
 10
467.234851
 20
306.316802
 42
-0.052224
  0
VERTEX
  8
0
 10
468.000000
 20
307.000000
 42
0.039628
  0
VERTEX
  8
0
 10
468.765245
 20
307.649462
 42
0.040482
  0
VERTEX
  8
0
 10
469.412500
 20
308.407202
 42
0.043766
  0
VERTEX
  8
0
 10
469.860091
 20
309.156398
 42
0.113243
  0
VERTEX
  8
0
 10
470.000000
 20
309.766214
 42
-0.117070
  0
VERTEX
  8
0
 10
470.159467
 20
310.437959
 42
-0.028202
  0
VERTEX
  8
0
 10
470.734375
 20
311.436155
 42
-0.027424
  0
VERTEX
  8
0
 10
471.543070
 20
312.536564
 42
-0.024203
  0
VERTEX
  8
0
 10
472.500000
 20
313.590909
 42
0.013034
  0
VERTEX
  8
0
 10
473.457647
 20
314.599828
 42
0.017604
  0
VERTEX
  8
0
 10
474.266146
 20
315.563494
 42
0.014709
  0
VERTEX
  8
0
 10
474.876206
 20
316.394184
 42
0.151522
  0
VERTEX
  8
0
 10
475.001774
 20
316.795455
 42
-0.165058
  0
VERTEX
  8
0
 10
475.156627
 20
317.248017
 42
-0.004531
  0
VERTEX
  8
0
 10
476.461267
 20
318.908665
 42
-0.008890
  0
VERTEX
  8
0
 10
478.065307
 20
320.841302
 42
-0.005927
  0
VERTEX
  8
0
 10
479.967769
 20
323.000000
 42
0.000000
  0
VERTEX
  8
0
 10
484.931992
 20
328.500000
 42
0.000000
  0
VERTEX
  8
0
 10
484.965996
 20
647.750000
 42
0.000203
  0
VERTEX
  8
0
 10
484.923757
 20
788.830588
 42
0.000580
  0
VERTEX
  8
0
 10
484.740717
 20
886.946001
 42
0.000019
  0
VERTEX
  8
0
 10
484.496901
 20
966.504638
 42
0.413305
  0
VERTEX
  8
0
 10
484.000000
 20
967.000000
 42
-0.191087
  0
VERTEX
  8
0
 10
483.618118
 20
967.151477
 42
-0.088204
  0
VERTEX
  8
0
 10
483.293750
 20
967.587500
 42
-0.068025
  0
VERTEX
  8
0
 10
483.073693
 20
968.234582
 42
-0.048028
  0
VERTEX
  8
0
 10
483.000000
 20
969.000000
 42
-0.048028
  0
VERTEX
  8
0
 10
483.073693
 20
969.765418
 42
-0.068025
  0
VERTEX
  8
0
 10
483.293750
 20
970.412500
 42
-0.088204
  0
VERTEX
  8
0
 10
483.618118
 20
970.848523
 42
-0.191087
  0
VERTEX
  8
0
 10
484.000000
 20
971.000000
 42
0.413305
  0
VERTEX
  8
0
 10
484.496901
 20
971.495362
 42
0.000019
  0
VERTEX
  8
0
 10
484.740717
 20
1051.053999
 42
0.000580
  0
VERTEX
  8
0
 10
484.923757
 20
1149.169412
 42
0.000203
  0
VERTEX
  8
0
 10
484.965996
 20
1290.250000
 42
0.000000
  0
VERTEX
  8
0
 10
484.931992
 20
1609.500000
 42
0.000000
  0
VERTEX
  8
0
 10
479.967769
 20
1615.000000
 42
-0.005927
  0
VERTEX
  8
0
 10
478.065307
 20
1617.158698
 42
-0.008890
  0
VERTEX
  8
0
 10
476.461267
 20
1619.091335
 42
-0.004531
  0
VERTEX
  8
0
 10
475.156627
 20
1620.751983
 42
-0.165058
  0
VERTEX
  8
0
 10
475.001774
 20
1621.204545
 42
0.151522
  0
VERTEX
  8
0
 10
474.876206
 20
1621.605816
 42
0.014709
  0
VERTEX
  8
0
 10
474.266146
 20
1622.436506
 42
0.017604
  0
VERTEX
  8
0
 10
473.457647
 20
1623.400172
 42
0.013034
  0
VERTEX
  8
0
 10
472.500000
 20
1624.409091
 42
-0.024203
  0
VERTEX
  8
0
 10
471.543070
 20
1625.463436
 42
-0.027424
  0
VERTEX
  8
0
 10
470.734375
 20
1626.563845
 42
-0.028202
  0
VERTEX
  8
0
 10
470.159467
 20
1627.562041
 42
-0.117070
  0
VERTEX
  8
0
 10
470.000000
 20
1628.233786
 42
0.113243
  0
VERTEX
  8
0
 10
469.860091
 20
1628.843602
 42
0.043766
  0
VERTEX
  8
0
 10
469.412500
 20
1629.592798
 42
0.040482
  0
VERTEX
  8
0
 10
468.765245
 20
1630.350538
 42
0.039628
  0
VERTEX
  8
0
 10
468.000000
 20
1631.000000
 42
-0.052224
  0
VERTEX
  8
0
 10
467.234851
 20
1631.683198
 42
-0.045499
  0
VERTEX
  8
0
 10
466.587500
 20
1632.540724
 42
-0.047927
  0
VERTEX
  8
0
 10
466.144747
 20
1633.434551
 42
-0.091287
  0
VERTEX
  8
0
 10
466.000000
 20
1634.220759
 42
0.054248
  0
VERTEX
  8
0
 10
465.925933
 20
1634.901422
 42
0.073949
  0
VERTEX
  8
0
 10
465.706250
 20
1635.477348
 42
0.093597
  0
VERTEX
  8
0
 10
465.381567
 20
1635.863853
 42
0.173062
  0
VERTEX
  8
0
 10
465.000000
 20
1636.000000
 42
-0.148195
  0
VERTEX
  8
0
 10
464.618646
 20
1636.115568
 42
-0.098894
  0
VERTEX
  8
0
 10
464.293750
 20
1636.440625
 42
-0.082425
  0
VERTEX
  8
0
 10
464.074694
 20
1636.926543
 42
-0.064853
  0
VERTEX
  8
0
 10
464.000000
 20
1637.500000
 42
0.064853
  0
VERTEX
  8
0
 10
463.925306
 20
1638.073457
 42
0.082425
  0
VERTEX
  8
0
 10
463.706250
 20
1638.559375
 42
0.098894
  0
VERTEX
  8
0
 10
463.381354
 20
1638.884432
 42
0.148195
  0
VERTEX
  8
0
 10
463.000000
 20
1639.000000
 42
-0.148195
  0
VERTEX
  8
0
 10
462.618646
 20
1639.115568
 42
-0.098894
  0
VERTEX
  8
0
 10
462.293750
 20
1639.440625
 42
-0.082425
  0
VERTEX
  8
0
 10
462.074694
 20
1639.926543
 42
-0.064853
  0
VERTEX
  8
0
 10
462.000000
 20
1640.500000
 42
0.064853
  0
VERTEX
  8
0
 10
461.925306
 20
1641.073457
 42
0.082425
  0
VERTEX
  8
0
 10
461.706250
 20
1641.559375
 42
0.098894
  0
VERTEX
  8
0
 10
461.381354
 20
1641.884432
 42
0.148195
  0
VERTEX
  8
0
 10
461.000000
 20
1642.000000
 42
-0.148195
  0
VERTEX
  8
0
 10
460.618646
 20
1642.115568
 42
-0.098894
  0
VERTEX
  8
0
 10
460.293750
 20
1642.440625
 42
-0.082425
  0
VERTEX
  8
0
 10
460.074694
 20
1642.926543
 42
-0.064853
  0
VERTEX
  8
0
 10
460.000000
 20
1643.500000
 42
0.056959
  0
VERTEX
  8
0
 10
459.934428
 20
1644.073739
 42
0.076307
  0
VERTEX
  8
0
 10
459.740510
 20
1644.559375
 42
0.095369
  0
VERTEX
  8
0
 10
459.453620
 20
1644.884904
 42
0.166062
  0
VERTEX
  8
0
 10
459.116631
 20
1645.000000
 42
-0.161118
  0
VERTEX
  8
0
 10
458.738081
 20
1645.125234
 42
-0.061039
  0
VERTEX
  8
0
 10
458.329726
 20
1645.514062
 42
-0.052305
  0
VERTEX
  8
0
 10
457.955892
 20
1646.080385
 42
-0.042985
  0
VERTEX
  8
0
 10
457.678279
 20
1646.750000
 42
0.043381
  0
VERTEX
  8
0
 10
456.924474
 20
1648.564149
 42
0.011542
  0
VERTEX
  8
0
 10
455.411750
 20
1651.309629
 42
0.009338
  0
VERTEX
  8
0
 10
453.795617
 20
1653.973269
 42
0.081982
  0
VERTEX
  8
0
 10
452.881145
 20
1655.000000
 42
-0.084826
  0
VERTEX
  8
0
 10
452.525790
 20
1655.403546
 42
-0.004122
  0
VERTEX
  8
0
 10
451.597743
 20
1656.936115
 42
-0.006608
  0
VERTEX
  8
0
 10
450.529907
 20
1658.788090
 42
-0.004710
  0
VERTEX
  8
0
 10
449.381145
 20
1660.888902
 42
0.002403
  0
VERTEX
  8
0
 10
447.399021
 20
1664.553809
 42
0.009196
  0
VERTEX
  8
0
 10
446.111737
 20
1666.807431
 42
0.007631
  0
VERTEX
  8
0
 10
444.634731
 20
1669.202326
 42
0.001287
  0
VERTEX
  8
0
 10
441.729568
 20
1673.730128
 42
-0.010144
  0
VERTEX
  8
0
 10
440.684218
 20
1675.424644
 42
-0.013254
  0
VERTEX
  8
0
 10
439.801811
 20
1677.017243
 42
-0.010837
  0
VERTEX
  8
0
 10
439.135080
 20
1678.370494
 42
-0.109461
  0
VERTEX
  8
0
 10
439.000000
 20
1678.980128
 42
0.097046
  0
VERTEX
  8
0
 10
438.923731
 20
1679.369380
 42
0.097454
  0
VERTEX
  8
0
 10
438.706250
 20
1679.700413
 42
0.098400
  0
VERTEX
  8
0
 10
438.381609
 20
1679.922068
 42
0.101067
  0
VERTEX
  8
0
 10
438.000000
 20
1680.000000
 42
-0.173062
  0
VERTEX
  8
0
 10
437.618433
 20
1680.136147
 42
-0.093597
  0
VERTEX
  8
0
 10
437.293750
 20
1680.522652
 42
-0.073949
  0
VERTEX
  8
0
 10
437.074067
 20
1681.098578
 42
-0.054248
  0
VERTEX
  8
0
 10
437.000000
 20
1681.779241
 42
0.091287
  0
VERTEX
  8
0
 10
436.855253
 20
1682.565449
 42
0.047927
  0
VERTEX
  8
0
 10
436.412500
 20
1683.459276
 42
0.045499
  0
VERTEX
  8
0
 10
435.765149
 20
1684.316802
 42
0.052224
  0
VERTEX
  8
0
 10
435.000000
 20
1685.000000
 42
-0.052224
  0
VERTEX
  8
0
 10
434.234851
 20
1685.683198
 42
-0.045499
  0
VERTEX
  8
0
 10
433.587500
 20
1686.540724
 42
-0.047927
  0
VERTEX
  8
0
 10
433.144747
 20
1687.434551
 42
-0.091287
  0
VERTEX
  8
0
 10
433.000000
 20
1688.220759
 42
0.054248
  0
VERTEX
  8
0
 10
432.925933
 20
1688.901422
 42
0.073949
  0
VERTEX
  8
0
 10
432.706250
 20
1689.477348
 42
0.093597
  0
VERTEX
  8
0
 10
432.381567
 20
1689.863853
 42
0.173062
  0
VERTEX
  8
0
 10
432.000000
 20
1690.000000
 42
-0.173062
  0
VERTEX
  8
0
 10
431.618433
 20
1690.136147
 42
-0.093597
  0
VERTEX
  8
0
 10
431.293750
 20
1690.522652
 42
-0.073949
  0
VERTEX
  8
0
 10
431.074067
 20
1691.098578
 42
-0.054248
  0
VERTEX
  8
0
 10
431.000000
 20
1691.779241
 42
0.091287
  0
VERTEX
  8
0
 10
430.855253
 20
1692.565449
 42
0.047927
  0
VERTEX
  8
0
 10
430.412500
 20
1693.459276
 42
0.045499
  0
VERTEX
  8
0
 10
429.765149
 20
1694.316802
 42
0.052224
  0
VERTEX
  8
0
 10
429.000000
 20
1695.000000
 42
-0.052224
  0
VERTEX
  8
0
 10
428.234851
 20
1695.683198
 42
-0.045499
  0
VERTEX
  8
0
 10
427.587500
 20
1696.540724
 42
-0.047927
  0
VERTEX
  8
0
 10
427.144747
 20
1697.434551
 42
-0.091287
  0
VERTEX
  8
0
 10
427.000000
 20
1698.220759
 42
0.054248
  0
VERTEX
  8
0
 10
426.925933
 20
1698.901422
 42
0.073949
  0
VERTEX
  8
0
 10
426.706250
 20
1699.477348
 42
0.093597
  0
VERTEX
  8
0
 10
426.381567
 20
1699.863853
 42
0.173062
  0
VERTEX
  8
0
 10
426.000000
 20
1700.000000
 42
-0.148195
  0
VERTEX
  8
0
 10
425.618646
 20
1700.115568
 42
-0.098894
  0
VERTEX
  8
0
 10
425.293750
 20
1700.440625
 42
-0.082425
  0
VERTEX
  8
0
 10
425.074694
 20
1700.926543
 42
-0.064853
  0
VERTEX
  8
0
 10
425.000000
 20
1701.500000
 42
0.064853
  0
VERTEX
  8
0
 10
424.925306
 20
1702.073457
 42
0.082425
  0
VERTEX
  8
0
 10
424.706250
 20
1702.559375
 42
0.098894
  0
VERTEX
  8
0
 10
424.381354
 20
1702.884432
 42
0.148195
  0
VERTEX
  8
0
 10
424.000000
 20
1703.000000
 42
-0.148195
  0
VERTEX
  8
0
 10
423.618646
 20
1703.115568
 42
-0.098894
  0
VERTEX
  8
0
 10
423.293750
 20
1703.440625
 42
-0.082425
  0
VERTEX
  8
0
 10
423.074694
 20
1703.926543
 42
-0.064853
  0
VERTEX
  8
0
 10
423.000000
 20
1704.500000
 42
0.064853
  0
VERTEX
  8
0
 10
422.925306
 20
1705.073457
 42
0.082425
  0
VERTEX
  8
0
 10
422.706250
 20
1705.559375
 42
0.098894
  0
VERTEX
  8
0
 10
422.381354
 20
1705.884432
 42
0.148195
  0
VERTEX
  8
0
 10
422.000000
 20
1706.000000
 42
-0.103343
  0
VERTEX
  8
0
 10
421.618422
 20
1706.079718
 42
-0.098858
  0
VERTEX
  8
0
 10
421.293750
 20
1706.306148
 42
-0.096874
  0
VERTEX
  8
0
 10
421.076186
 20
1706.644395
 42
-0.094894
  0
VERTEX
  8
0
 10
421.000000
 20
1707.042206
 42
0.074063
  0
VERTEX
  8
0
 10
420.927718
 20
1707.527508
 42
0.033070
  0
VERTEX
  8
0
 10
420.698525
 20
1708.133054
 42
0.031821
  0
VERTEX
  8
0
 10
420.366501
 20
1708.753202
 42
0.037306
  0
VERTEX
  8
0
 10
419.973703
 20
1709.292206
 42
-0.023580
  0
VERTEX
  8
0
 10
419.398272
 20
1710.037965
 42
-0.003441
  0
VERTEX
  8
0
 10
418.312766
 20
1711.613961
 42
-0.003886
  0
VERTEX
  8
0
 10
417.055975
 20
1713.497122
 42
-0.003323
  0
VERTEX
  8
0
 10
415.760631
 20
1715.500000
 42
0.003873
  0
VERTEX
  8
0
 10
414.495288
 20
1717.451780
 42
0.005388
  0
VERTEX
  8
0
 10
413.330125
 20
1719.178125
 42
0.003398
  0
VERTEX
  8
0
 10
412.327343
 20
1720.609004
 42
0.067076
  0
VERTEX
  8
0
 10
411.961615
 20
1721.000000
 42
-0.073345
  0
VERTEX
  8
0
 10
411.627938
 20
1721.365772
 42
-0.006976
  0
VERTEX
  8
0
 10
410.963843
 20
1722.381250
 42
-0.008790
  0
VERTEX
  8
0
 10
410.206505
 20
1723.623094
 42
-0.006819
  0
VERTEX
  8
0
 10
409.424687
 20
1725.000000
 42
0.016306
  0
VERTEX
  8
0
 10
408.559494
 20
1726.458590
 42
0.013694
  0
VERTEX
  8
0
 10
407.551314
 20
1727.946956
 42
0.013915
  0
VERTEX
  8
0
 10
406.554868
 20
1729.256104
 42
0.036608
  0
VERTEX
  8
0
 10
405.750000
 20
1730.117295
 42
-0.017695
  0
VERTEX
  8
0
 10
405.079901
 20
1730.782049
 42
-0.022630
  0
VERTEX
  8
0
 10
404.514063
 20
1731.442009
 42
-0.021372
  0
VERTEX
  8
0
 10
404.099237
 20
1732.022119
 42
-0.145524
  0
VERTEX
  8
0
 10
404.000000
 20
1732.355864
 42
0.155216
  0
VERTEX
  8
0
 10
403.787656
 20
1733.023411
 42
0.009755
  0
VERTEX
  8
0
 10
402.547041
 20
1734.705577
 42
0.014177
  0
VERTEX
  8
0
 10
400.996482
 20
1736.610045
 42
0.011910
  0
VERTEX
  8
0
 10
399.250000
 20
1738.540163
 42
-0.020193
  0
VERTEX
  8
0
 10
398.771464
 20
1739.086950
 42
-0.024015
  0
VERTEX
  8
0
 10
398.367188
 20
1739.640811
 42
-0.023818
  0
VERTEX
  8
0
 10
398.075846
 20
1740.132534
 42
-0.122419
  0
VERTEX
  8
0
 10
398.000000
 20
1740.437673
 42
0.162935
  0
VERTEX
  8
0
 10
397.881396
 20
1740.791971
 42
0.008158
  0
VERTEX
  8
0
 10
397.118750
 20
1741.769816
 42
0.012409
  0
VERTEX
  8
0
 10
396.149389
 20
1742.912513
 42
0.008600
  0
VERTEX
  8
0
 10
395.000000
 20
1744.157416
 42
-0.013048
  0
VERTEX
  8
0
 10
393.851013
 20
1745.424313
 42
-0.017484
  0
VERTEX
  8
0
 10
392.881250
 20
1746.634459
 42
-0.014723
  0
VERTEX
  8
0
 10
392.151264
 20
1747.676333
 42
-0.146463
  0
VERTEX
  8
0
 10
392.000000
 20
1748.181647
 42
0.156882
  0
VERTEX
  8
0
 10
391.834877
 20
1748.694962
 42
0.012794
  0
VERTEX
  8
0
 10
390.971875
 20
1749.834817
 42
0.016204
  0
VERTEX
  8
0
 10
389.840657
 20
1751.161525
 42
0.011741
  0
VERTEX
  8
0
 10
388.500000
 20
1752.566667
 42
-0.011425
  0
VERTEX
  8
0
 10
387.159312
 20
1753.970064
 42
-0.015848
  0
VERTEX
  8
0
 10
386.028125
 20
1755.291434
 42
-0.012320
  0
VERTEX
  8
0
 10
385.162615
 20
1756.426007
 42
-0.158056
  0
VERTEX
  8
0
 10
385.000000
 20
1756.927578
 42
0.141638
  0
VERTEX
  8
0
 10
384.858482
 20
1757.417134
 42
0.015251
  0
VERTEX
  8
0
 10
384.192187
 20
1758.405179
 42
0.017774
  0
VERTEX
  8
0
 10
383.303189
 20
1759.552177
 42
0.013424
  0
VERTEX
  8
0
 10
382.250000
 20
1760.748770
 42
-0.005666
  0
VERTEX
  8
0
 10
380.998717
 20
1762.126725
 42
-0.003131
  0
VERTEX
  8
0
 10
379.499805
 20
1763.836889
 42
-0.003121
  0
VERTEX
  8
0
 10
378.002061
 20
1765.589448
 42
-0.005013
  0
VERTEX
  8
0
 10
376.749335
 20
1767.104525
 42
0.021516
  0
VERTEX
  8
0
 10
366.157747
 20
1779.086220
 42
0.004623
  0
VERTEX
  8
0
 10
346.734169
 20
1798.871819
 42
0.003746
  0
VERTEX
  8
0
 10
326.925656
 20
1818.385218
 42
0.036351
  0
VERTEX
  8
0
 10
317.899435
 20
1825.952954
 42
-0.016048
  0
VERTEX
  8
0
 10
316.464420
 20
1827.060147
 42
-0.012213
  0
VERTEX
  8
0
 10
314.963201
 20
1828.360109
 42
-0.012386
  0
VERTEX
  8
0
 10
313.614537
 20
1829.649337
 42
-0.028114
  0
VERTEX
  8
0
 10
312.677420
 20
1830.702954
 42
0.034700
  0
VERTEX
  8
0
 10
311.874640
 20
1831.581960
 42
0.036530
  0
VERTEX
  8
0
 10
310.970918
 20
1832.325243
 42
0.039214
  0
VERTEX
  8
0
 10
310.101524
 20
1832.842700
 42
0.115127
  0
VERTEX
  8
0
 10
309.427420
 20
1833.000000
 42
-0.068313
  0
VERTEX
  8
0
 10
308.881825
 20
1833.074892
 42
-0.084771
  0
VERTEX
  8
0
 10
308.419305
 20
1833.293750
 42
-0.099800
  0
VERTEX
  8
0
 10
308.110029
 20
1833.618661
 42
-0.141383
  0
VERTEX
  8
0
 10
308.000000
 20
1834.000000
 42
0.109085
  0
VERTEX
  8
0
 10
307.915764
 20
1834.381509
 42
0.099782
  0
VERTEX
  8
0
 10
307.677230
 20
1834.706250
 42
0.095294
  0
VERTEX
  8
0
 10
307.320713
 20
1834.924024
 42
0.089824
  0
VERTEX
  8
0
 10
306.901210
 20
1835.000000
 42
-0.143035
  0
VERTEX
  8
0
 10
306.312902
 20
1835.171812
 42
-0.021819
  0
VERTEX
  8
0
 10
305.301978
 20
1835.881250
 42
-0.022916
  0
VERTEX
  8
0
 10
304.153501
 20
1836.851293
 42
-0.018062
  0
VERTEX
  8
0
 10
303.000000
 20
1838.000000
 42
0.018062
  0
VERTEX
  8
0
 10
301.846499
 20
1839.148707
 42
0.022916
  0
VERTEX
  8
0
 10
300.698022
 20
1840.118750
 42
0.021819
  0
VERTEX
  8
0
 10
299.687098
 20
1840.828188
 42
0.143035
  0
VERTEX
  8
0
 10
299.098790
 20
1841.000000
 42
-0.089824
  0
VERTEX
  8
0
 10
298.679287
 20
1841.075976
 42
-0.095294
  0
VERTEX
  8
0
 10
298.322770
 20
1841.293750
 42
-0.099782
  0
VERTEX
  8
0
 10
298.084236
 20
1841.618491
 42
-0.109085
  0
VERTEX
  8
0
 10
298.000000
 20
1842.000000
 42
0.127083
  0
VERTEX
  8
0
 10
297.901479
 20
1842.381366
 42
0.100760
  0
VERTEX
  8
0
 10
297.624223
 20
1842.706250
 42
0.089631
  0
VERTEX
  8
0
 10
297.209482
 20
1842.924656
 42
0.076630
  0
VERTEX
  8
0
 10
296.720759
 20
1843.000000
 42
-0.115942
  0
VERTEX
  8
0
 10
296.128761
 20
1843.139145
 42
-0.043072
  0
VERTEX
  8
0
 10
295.393849
 20
1843.587500
 42
-0.039803
  0
VERTEX
  8
0
 10
294.646083
 20
1844.234732
 42
-0.038332
  0
VERTEX
  8
0
 10
294.000000
 20
1845.000000
 42
0.034062
  0
VERTEX
  8
0
 10
293.364939
 20
1845.765363
 42
0.037324
  0
VERTEX
  8
0
 10
292.649718
 20
1846.412500
 42
0.040344
  0
VERTEX
  8
0
 10
291.961046
 20
1846.863901
 42
0.125545
  0
VERTEX
  8
0
 10
291.427555
 20
1847.000000
 42
-0.134328
  0
VERTEX
  8
0
 10
290.809997
 20
1847.168959
 42
-0.019584
  0
VERTEX
  8
0
 10
289.706694
 20
1847.881250
 42
-0.020978
  0
VERTEX
  8
0
 10
288.442230
 20
1848.851283
 42
-0.016599
  0
VERTEX
  8
0
 10
287.157416
 20
1850.000000
 42
0.008170
  0
VERTEX
  8
0
 10
285.914611
 20
1851.149431
 42
0.011874
  0
VERTEX
  8
0
 10
284.778400
 20
1852.118750
 42
0.007534
  0
VERTEX
  8
0
 10
283.805744
 20
1852.885369
 42
0.164567
  0
VERTEX
  8
0
 10
283.466895
 20
1853.000000
 42
-0.108065
  0
VERTEX
  8
0
 10
283.178401
 20
1853.063089
 42
-0.023438
  0
VERTEX
  8
0
 10
282.722745
 20
1853.298838
 42
-0.023404
  0
VERTEX
  8
0
 10
282.210641
 20
1853.627893
 42
-0.020523
  0
VERTEX
  8
0
 10
281.707794
 20
1854.017321
 42
0.018149
  0
VERTEX
  8
0
 10
279.300173
 20
1855.900243
 42
0.010490
  0
VERTEX
  8
0
 10
276.278847
 20
1857.995913
 42
0.008955
  0
VERTEX
  8
0
 10
273.374543
 20
1859.847442
 42
0.053101
  0
VERTEX
  8
0
 10
271.750000
 20
1860.619273
 42
-0.034826
  0
VERTEX
  8
0
 10
271.080137
 20
1860.908076
 42
-0.044723
  0
VERTEX
  8
0
 10
270.514063
 20
1861.267780
 42
-0.051492
  0
VERTEX
  8
0
 10
270.119856
 20
1861.641217
 42
-0.179273
  0
VERTEX
  8
0
 10
270.000000
 20
1861.964757
 42
0.238709
  0
VERTEX
  8
0
 10
269.811204
 20
1862.337676
 42
0.017150
  0
VERTEX
  8
0
 10
268.825000
 20
1863.011226
 42
0.021118
  0
VERTEX
  8
0
 10
267.532645
 20
1863.755785
 42
0.014205
  0
VERTEX
  8
0
 10
266.000000
 20
1864.500000
 42
-0.016465
  0
VERTEX
  8
0
 10
264.467552
 20
1865.252694
 42
-0.023993
  0
VERTEX
  8
0
 10
263.175000
 20
1866.023034
 42
-0.021267
  0
VERTEX
  8
0
 10
262.205296
 20
1866.727044
 42
-0.228955
  0
VERTEX
  8
0
 10
262.000000
 20
1867.151874
 42
0.152468
  0
VERTEX
  8
0
 10
261.899021
 20
1867.475326
 42
0.098195
  0
VERTEX
  8
0
 10
261.614765
 20
1867.750863
 42
0.080953
  0
VERTEX
  8
0
 10
261.189993
 20
1867.936750
 42
0.062821
  0
VERTEX
  8
0
 10
260.688561
 20
1868.000000
 42
-0.101307
  0
VERTEX
  8
0
 10
260.040330
 20
1868.132703
 42
-0.030131
  0
VERTEX
  8
0
 10
259.131751
 20
1868.587500
 42
-0.028874
  0
VERTEX
  8
0
 10
258.148584
 20
1869.234554
 42
-0.027562
  0
VERTEX
  8
0
 10
257.230375
 20
1870.000000
 42
0.032092
  0
VERTEX
  8
0
 10
256.295150
 20
1870.765390
 42
0.031223
  0
VERTEX
  8
0
 10
255.261326
 20
1871.412500
 42
0.032799
  0
VERTEX
  8
0
 10
254.282083
 20
1871.863113
 42
0.091681
  0
VERTEX
  8
0
 10
253.541813
 20
1872.000000
 42
-0.063011
  0
VERTEX
  8
0
 10
252.952305
 20
1872.074587
 42
-0.081094
  0
VERTEX
  8
0
 10
252.452908
 20
1872.293750
 42
-0.098266
  0
VERTEX
  8
0
 10
252.118726
 20
1872.618629
 42
-0.152058
  0
VERTEX
  8
0
 10
252.000000
 20
1873.000000
 42
0.148195
  0
VERTEX
  8
0
 10
251.884432
 20
1873.381354
 42
0.098894
  0
VERTEX
  8
0
 10
251.559375
 20
1873.706250
 42
0.082425
  0
VERTEX
  8
0
 10
251.073457
 20
1873.925306
 42
0.064853
  0
VERTEX
  8
0
 10
250.500000
 20
1874.000000
 42
-0.064853
  0
VERTEX
  8
0
 10
249.926543
 20
1874.074694
 42
-0.082425
  0
VERTEX
  8
0
 10
249.440625
 20
1874.293750
 42
-0.098894
  0
VERTEX
  8
0
 10
249.115568
 20
1874.618646
 42
-0.148195
  0
VERTEX
  8
0
 10
249.000000
 20
1875.000000
 42
0.191087
  0
VERTEX
  8
0
 10
248.848523
 20
1875.381882
 42
0.088204
  0
VERTEX
  8
0
 10
248.412500
 20
1875.706250
 42
0.068025
  0
VERTEX
  8
0
 10
247.765418
 20
1875.926307
 42
0.048028
  0
VERTEX
  8
0
 10
247.000000
 20
1876.000000
 42
-0.035668
  0
VERTEX
  8
0
 10
246.233454
 20
1876.054752
 42
-0.053772
  0
VERTEX
  8
0
 10
245.585208
 20
1876.220313
 42
-0.069969
  0
VERTEX
  8
0
 10
245.139048
 20
1876.462433
 42
-0.235061
  0
VERTEX
  8
0
 10
244.992198
 20
1876.750000
 42
0.185295
  0
VERTEX
  8
0
 10
244.850197
 20
1877.108817
 42
0.034802
  0
VERTEX
  8
0
 10
244.328042
 20
1877.603067
 42
0.033038
  0
VERTEX
  8
0
 10
243.601319
 20
1878.124433
 42
0.024972
  0
VERTEX
  8
0
 10
242.742198
 20
1878.600866
 42
-0.006653
  0
VERTEX
  8
0
 10
238.499195
 20
1880.754613
 42
-0.009595
  0
VERTEX
  8
0
 10
234.809863
 20
1882.780675
 42
-0.005365
  0
VERTEX
  8
0
 10
231.762480
 20
1884.574888
 42
-0.153622
  0
VERTEX
  8
0
 10
231.166667
 20
1885.250000
 42
0.159230
  0
VERTEX
  8
0
 10
230.906393
 20
1885.538485
 42
0.049842
  0
VERTEX
  8
0
 10
230.368229
 20
1885.779687
 42
0.044078
  0
VERTEX
  8
0
 10
229.674758
 20
1885.944732
 42
0.036404
  0
VERTEX
  8
0
 10
228.916667
 20
1886.000000
 42
-0.050201
  0
VERTEX
  8
0
 10
228.183242
 20
1886.073823
 42
-0.070178
  0
VERTEX
  8
0
 10
227.563021
 20
1886.293750
 42
-0.090315
  0
VERTEX
  8
0
 10
227.145793
 20
1886.618250
 42
-0.184457
  0
VERTEX
  8
0
 10
227.000000
 20
1887.000000
 42
0.191087
  0
VERTEX
  8
0
 10
226.848523
 20
1887.381882
 42
0.088204
  0
VERTEX
  8
0
 10
226.412500
 20
1887.706250
 42
0.068025
  0
VERTEX
  8
0
 10
225.765418
 20
1887.926307
 42
0.048028
  0
VERTEX
  8
0
 10
225.000000
 20
1888.000000
 42
-0.048028
  0
VERTEX
  8
0
 10
224.234582
 20
1888.073693
 42
-0.068025
  0
VERTEX
  8
0
 10
223.587500
 20
1888.293750
 42
-0.088204
  0
VERTEX
  8
0
 10
223.151477
 20
1888.618118
 42
-0.191087
  0
VERTEX
  8
0
 10
223.000000
 20
1889.000000
 42
0.191087
  0
VERTEX
  8
0
 10
222.848523
 20
1889.381882
 42
0.088204
  0
VERTEX
  8
0
 10
222.412500
 20
1889.706250
 42
0.068025
  0
VERTEX
  8
0
 10
221.765418
 20
1889.926307
 42
0.048028
  0
VERTEX
  8
0
 10
221.000000
 20
1890.000000
 42
-0.036372
  0
VERTEX
  8
0
 10
220.234036
 20
1890.055794
 42
-0.054933
  0
VERTEX
  8
0
 10
219.587500
 20
1890.224454
 42
-0.071963
  0
VERTEX
  8
0
 10
219.144808
 20
1890.471274
 42
-0.233749
  0
VERTEX
  8
0
 10
219.000000
 20
1890.764100
 42
0.284374
  0
VERTEX
  8
0
 10
218.482532
 20
1891.600360
 42
0.010850
  0
VERTEX
  8
0
 10
215.028085
 20
1893.230264
 42
0.017411
  0
VERTEX
  8
0
 10
211.550646
 20
1894.636724
 42
0.087603
  0
VERTEX
  8
0
 10
209.493140
 20
1895.000000
 42
-0.065165
  0
VERTEX
  8
0
 10
208.922317
 20
1895.074712
 42
-0.082645
  0
VERTEX
  8
0
 10
208.438610
 20
1895.293750
 42
-0.098990
  0
VERTEX
  8
0
 10
208.115047
 20
1895.618648
 42
-0.147557
  0
VERTEX
  8
0
 10
208.000000
 20
1896.000000
 42
0.191087
  0
VERTEX
  8
0
 10
207.848523
 20
1896.381882
 42
0.088204
  0
VERTEX
  8
0
 10
207.412500
 20
1896.706250
 42
0.068025
  0
VERTEX
  8
0
 10
206.765418
 20
1896.926307
 42
0.048028
  0
VERTEX
  8
0
 10
206.000000
 20
1897.000000
 42
-0.048028
  0
VERTEX
  8
0
 10
205.234582
 20
1897.073693
 42
-0.068025
  0
VERTEX
  8
0
 10
204.587500
 20
1897.293750
 42
-0.088204
  0
VERTEX
  8
0
 10
204.151477
 20
1897.618118
 42
-0.191087
  0
VERTEX
  8
0
 10
204.000000
 20
1898.000000
 42
0.191087
  0
VERTEX
  8
0
 10
203.848523
 20
1898.381882
 42
0.088204
  0
VERTEX
  8
0
 10
203.412500
 20
1898.706250
 42
0.068025
  0
VERTEX
  8
0
 10
202.765418
 20
1898.926307
 42
0.048028
  0
VERTEX
  8
0
 10
202.000000
 20
1899.000000
 42
-0.048028
  0
VERTEX
  8
0
 10
201.234582
 20
1899.073693
 42
-0.068025
  0
VERTEX
  8
0
 10
200.587500
 20
1899.293750
 42
-0.088204
  0
VERTEX
  8
0
 10
200.151477
 20
1899.618118
 42
-0.191087
  0
VERTEX
  8
0
 10
200.000000
 20
1900.000000
 42
0.191087
  0
VERTEX
  8
0
 10
199.848523
 20
1900.381882
 42
0.088204
  0
VERTEX
  8
0
 10
199.412500
 20
1900.706250
 42
0.068025
  0
VERTEX
  8
0
 10
198.765418
 20
1900.926307
 42
0.048028
  0
VERTEX
  8
0
 10
198.000000
 20
1901.000000
 42
-0.048028
  0
VERTEX
  8
0
 10
197.234582
 20
1901.073693
 42
-0.068025
  0
VERTEX
  8
0
 10
196.587500
 20
1901.293750
 42
-0.088204
  0
VERTEX
  8
0
 10
196.151477
 20
1901.618118
 42
-0.191087
  0
VERTEX
  8
0
 10
196.000000
 20
1902.000000
 42
0.226478
  0
VERTEX
  8
0
 10
195.817169
 20
1902.382936
 42
0.074992
  0
VERTEX
  8
0
 10
195.265625
 20
1902.706250
 42
0.057076
  0
VERTEX
  8
0
 10
194.457356
 20
1902.926884
 42
0.038131
  0
VERTEX
  8
0
 10
193.500000
 20
1903.000000
 42
-0.038131
  0
VERTEX
  8
0
 10
192.542644
 20
1903.073116
 42
-0.057076
  0
VERTEX
  8
0
 10
191.734375
 20
1903.293750
 42
-0.074992
  0
VERTEX
  8
0
 10
191.182831
 20
1903.617064
 42
-0.226478
  0
VERTEX
  8
0
 10
191.000000
 20
1904.000000
 42
0.226478
  0
VERTEX
  8
0
 10
190.817169
 20
1904.382936
 42
0.074992
  0
VERTEX
  8
0
 10
190.265625
 20
1904.706250
 42
0.057076
  0
VERTEX
  8
0
 10
189.457356
 20
1904.926884
 42
0.038131
  0
VERTEX
  8
0
 10
188.500000
 20
1905.000000
 42
-0.038131
  0
VERTEX
  8
0
 10
187.542644
 20
1905.073116
 42
-0.057076
  0
VERTEX
  8
0
 10
186.734375
 20
1905.293750
 42
-0.074992
  0
VERTEX
  8
0
 10
186.182831
 20
1905.617064
 42
-0.226478
  0
VERTEX
  8
0
 10
186.000000
 20
1906.000000
 42
0.191087
  0
VERTEX
  8
0
 10
185.848523
 20
1906.381882
 42
0.088204
  0
VERTEX
  8
0
 10
185.412500
 20
1906.706250
 42
0.068025
  0
VERTEX
  8
0
 10
184.765418
 20
1906.926307
 42
0.048028
  0
VERTEX
  8
0
 10
184.000000
 20
1907.000000
 42
-0.048028
  0
VERTEX
  8
0
 10
183.234582
 20
1907.073693
 42
-0.068025
  0
VERTEX
  8
0
 10
182.587500
 20
1907.293750
 42
-0.088204
  0
VERTEX
  8
0
 10
182.151477
 20
1907.618118
 42
-0.191087
  0
VERTEX
  8
0
 10
182.000000
 20
1908.000000
 42
0.226478
  0
VERTEX
  8
0
 10
181.817169
 20
1908.382936
 42
0.074992
  0
VERTEX
  8
0
 10
181.265625
 20
1908.706250
 42
0.057076
  0
VERTEX
  8
0
 10
180.457356
 20
1908.926884
 42
0.038131
  0
VERTEX
  8
0
 10
179.500000
 20
1909.000000
 42
-0.038131
  0
VERTEX
  8
0
 10
178.542644
 20
1909.073116
 42
-0.057076
  0
VERTEX
  8
0
 10
177.734375
 20
1909.293750
 42
-0.074992
  0
VERTEX
  8
0
 10
177.182831
 20
1909.617064
 42
-0.226478
  0
VERTEX
  8
0
 10
177.000000
 20
1910.000000
 42
0.254951
  0
VERTEX
  8
0
 10
176.790443
 20
1910.384262
 42
0.062710
  0
VERTEX
  8
0
 10
176.118750
 20
1910.706250
 42
0.048861
  0
VERTEX
  8
0
 10
175.149251
 20
1910.927234
 42
0.031626
  0
VERTEX
  8
0
 10
174.000000
 20
1911.000000
 42
-0.024610
  0
VERTEX
  8
0
 10
172.850344
 20
1911.056620
 42
-0.039139
  0
VERTEX
  8
0
 10
171.881250
 20
1911.229620
 42
-0.046379
  0
VERTEX
  8
0
 10
171.191718
 20
1911.479434
 42
-0.290404
  0
VERTEX
  8
0
 10
171.000000
 20
1911.781685
 42
0.274545
  0
VERTEX
  8
0
 10
170.778929
 20
1912.153951
 42
0.017706
  0
VERTEX
  8
0
 10
169.604688
 20
1912.741026
 42
0.021852
  0
VERTEX
  8
0
 10
168.070335
 20
1913.361905
 42
0.014205
  0
VERTEX
  8
0
 10
166.250000
 20
1913.949841
 42
-0.004744
  0
VERTEX
  8
0
 10
164.321471
 20
1914.532669
 42
-0.005134
  0
VERTEX
  8
0
 10
162.454687
 20
1915.137332
 42
-0.004851
  0
VERTEX
  8
0
 10
160.865118
 20
1915.687510
 42
-0.024674
  0
VERTEX
  8
0
 10
160.000000
 20
1916.045401
 42
0.029833
  0
VERTEX
  8
0
 10
158.498812
 20
1916.648378
 42
0.007936
  0
VERTEX
  8
0
 10
156.038737
 20
1917.426716
 42
0.005632
  0
VERTEX
  8
0
 10
152.458144
 20
1918.453574
 42
0.001703
  0
VERTEX
  8
0
 10
147.000000
 20
1919.932584
 42
-0.000623
  0
VERTEX
  8
0
 10
145.057514
 20
1920.454444
 42
-0.000481
  0
VERTEX
  8
0
 10
142.940625
 20
1921.028175
 42
-0.000486
  0
VERTEX
  8
0
 10
140.964172
 20
1921.567952
 42
-0.001165
  0
VERTEX
  8
0
 10
139.500000
 20
1921.973024
 42
0.014073
  0
VERTEX
  8
0
 10
137.892522
 20
1922.373380
 42
0.003807
  0
VERTEX
  8
0
 10
135.325000
 20
1922.916157
 42
0.003850
  0
VERTEX
  8
0
 10
132.400000
 20
1923.487856
 42
0.003986
  0
VERTEX
  8
0
 10
129.500000
 20
1924.007622
 42
-0.000899
  0
VERTEX
  8
0
 10
126.468783
 20
1924.531614
 42
-0.000682
  0
VERTEX
  8
0
 10
123.146479
 20
1925.116753
 42
-0.000690
  0
VERTEX
  8
0
 10
120.030632
 20
1925.674349
 42
-0.001611
  0
VERTEX
  8
0
 10
117.700779
 20
1926.102359
 42
0.043814
  0
VERTEX
  8
0
 10
110.562410
 20
1926.799344
 42
0.002916
  0
VERTEX
  8
0
 10
89.956745
 20
1926.880253
 42
0.001961
  0
VERTEX
  8
0
 10
68.691321
 20
1926.756323
 42
0.075188
  0
SEQEND
  0
ENDSEC
  0
EOF
