999
DXF data, created by potrace 1.11, written by Peter Selinger 2001-2013
  0
SECTION
  2
HEADER
  9
$ACADVER
  1
AC1006
  9
$EXTMIN
 10
0.000000
 20
0.000000
 30
0.000000
  9
$EXTMAX
 10
485.000000
 20
1938.000000
 30
0.000000
  0
ENDSEC
  0
SECTION
  2
ENTITIES
  0
POLYLINE
  8
0
 66
1
 70
1
  0
VERTEX
  8
0
 10
-0.000000
 20
969.702607
 42
0.000000
  0
VERTEX
  8
0
 10
-0.000000
 20
28.405214
 42
0.000000
  0
VERTEX
  8
0
 10
6.750000
 20
28.822939
 42
0.011854
  0
VERTEX
  8
0
 10
9.360830
 20
29.046748
 42
0.017985
  0
VERTEX
  8
0
 10
11.615104
 20
29.376360
 42
0.012932
  0
VERTEX
  8
0
 10
13.417242
 20
29.754854
 42
0.248882
  0
VERTEX
  8
0
 10
13.833333
 20
30.120332
 42
-0.196629
  0
VERTEX
  8
0
 10
14.150328
 20
30.460251
 42
-0.041935
  0
VERTEX
  8
0
 10
14.925521
 20
30.741598
 42
-0.037909
  0
VERTEX
  8
0
 10
15.942138
 20
30.935586
 42
-0.028200
  0
VERTEX
  8
0
 10
17.083333
 20
31.000000
 42
0.032551
  0
VERTEX
  8
0
 10
18.200605
 20
31.072814
 42
0.050076
  0
VERTEX
  8
0
 10
19.143229
 20
31.293750
 42
0.064635
  0
VERTEX
  8
0
 10
19.794591
 20
31.615970
 42
0.250638
  0
VERTEX
  8
0
 10
20.000000
 20
32.000000
 42
-0.226478
  0
VERTEX
  8
0
 10
20.182831
 20
32.382936
 42
-0.074992
  0
VERTEX
  8
0
 10
20.734375
 20
32.706250
 42
-0.057076
  0
VERTEX
  8
0
 10
21.542644
 20
32.926884
 42
-0.038131
  0
VERTEX
  8
0
 10
22.500000
 20
33.000000
 42
0.038131
  0
VERTEX
  8
0
 10
23.457356
 20
33.073116
 42
0.057076
  0
VERTEX
  8
0
 10
24.265625
 20
33.293750
 42
0.074992
  0
VERTEX
  8
0
 10
24.817169
 20
33.617064
 42
0.226478
  0
VERTEX
  8
0
 10
25.000000
 20
34.000000
 42
-0.191087
  0
VERTEX
  8
0
 10
25.151477
 20
34.381882
 42
-0.088204
  0
VERTEX
  8
0
 10
25.587500
 20
34.706250
 42
-0.068025
  0
VERTEX
  8
0
 10
26.234582
 20
34.926307
 42
-0.048028
  0
VERTEX
  8
0
 10
27.000000
 20
35.000000
 42
0.042005
  0
VERTEX
  8
0
 10
27.765706
 20
35.064440
 42
0.061586
  0
VERTEX
  8
0
 10
28.412500
 20
35.258112
 42
0.080913
  0
VERTEX
  8
0
 10
28.851170
 20
35.542657
 42
0.211547
  0
VERTEX
  8
0
 10
29.000000
 20
35.878680
 42
-0.208074
  0
VERTEX
  8
0
 10
29.180943
 20
36.294660
 42
-0.033695
  0
VERTEX
  8
0
 10
29.881250
 20
36.864273
 42
-0.032352
  0
VERTEX
  8
0
 10
30.851056
 20
37.459931
 42
-0.023358
  0
VERTEX
  8
0
 10
32.000000
 20
38.000000
 42
0.023358
  0
VERTEX
  8
0
 10
33.148944
 20
38.540069
 42
0.032352
  0
VERTEX
  8
0
 10
34.118750
 20
39.135727
 42
0.033695
  0
VERTEX
  8
0
 10
34.819057
 20
39.705340
 42
0.208074
  0
VERTEX
  8
0
 10
35.000000
 20
40.121320
 42
-0.184046
  0
VERTEX
  8
0
 10
35.127798
 20
40.456750
 42
-0.090441
  0
VERTEX
  8
0
 10
35.493403
 20
40.741888
 42
-0.070312
  0
VERTEX
  8
0
 10
36.036940
 20
40.935126
 42
-0.050340
  0
VERTEX
  8
0
 10
36.679671
 20
41.000000
 42
0.193369
  0
VERTEX
  8
0
 10
38.658003
 20
41.794814
 42
0.002496
  0
VERTEX
  8
0
 10
48.471212
 20
51.292049
 42
0.002444
  0
VERTEX
  8
0
 10
58.202867
 20
60.898342
 42
0.199327
  0
VERTEX
  8
0
 10
59.000000
 20
62.818458
 42
-0.167425
  0
VERTEX
  8
0
 10
59.403978
 20
63.991084
 42
-0.028015
  0
VERTEX
  8
0
 10
60.995369
 20
65.807137
 42
-0.027150
  0
VERTEX
  8
0
 10
63.242138
 20
67.862493
 42
-0.018458
  0
VERTEX
  8
0
 10
66.002104
 20
69.959488
 42
0.010019
  0
VERTEX
  8
0
 10
67.577173
 20
71.114814
 42
0.005763
  0
VERTEX
  8
0
 10
69.430063
 20
72.566037
 42
0.005756
  0
VERTEX
  8
0
 10
71.258400
 20
74.067253
 42
0.009569
  0
VERTEX
  8
0
 10
72.759814
 20
75.379096
 42
-0.008441
  0
VERTEX
  8
0
 10
74.182931
 20
76.628200
 42
-0.006648
  0
VERTEX
  8
0
 10
75.764357
 20
77.933921
 42
-0.006728
  0
VERTEX
  8
0
 10
77.266495
 20
79.108044
 42
-0.016476
  0
VERTEX
  8
0
 10
78.410436
 20
79.919608
 42
0.014462
  0
VERTEX
  8
0
 10
81.701971
 20
82.234907
 42
0.009804
  0
VERTEX
  8
0
 10
85.319448
 20
85.051388
 42
0.009869
  0
VERTEX
  8
0
 10
88.684904
 20
87.891169
 42
0.020915
  0
VERTEX
  8
0
 10
91.151210
 20
90.246784
 42
-0.020182
  0
VERTEX
  8
0
 10
92.251578
 20
91.300853
 42
-0.024608
  0
VERTEX
  8
0
 10
93.365468
 20
92.191243
 42
-0.024298
  0
VERTEX
  8
0
 10
94.355334
 20
92.834906
 42
-0.132764
  0
VERTEX
  8
0
 10
94.966134
 20
93.000000
 42
0.159238
  0
VERTEX
  8
0
 10
95.642669
 20
93.221066
 42
0.012454
  0
VERTEX
  8
0
 10
97.166476
 20
94.395313
 42
0.015986
  0
VERTEX
  8
0
 10
98.940201
 20
95.930492
 42
0.011518
  0
VERTEX
  8
0
 10
100.822510
 20
97.750000
 42
-0.007832
  0
VERTEX
  8
0
 10
102.946025
 20
99.833162
 42
-0.005121
  0
VERTEX
  8
0
 10
105.456349
 20
102.171299
 42
-0.005151
  0
VERTEX
  8
0
 10
107.950342
 20
104.400321
 42
-0.009825
  0
VERTEX
  8
0
 10
110.007586
 20
106.131017
 42
0.013995
  0
VERTEX
  8
0
 10
112.408197
 20
108.185006
 42
0.003275
  0
VERTEX
  8
0
 10
116.310020
 20
111.764072
 42
0.003373
  0
VERTEX
  8
0
 10
120.745717
 20
115.942809
 42
0.003307
  0
VERTEX
  8
0
 10
125.154183
 20
120.208499
 42
-0.003223
  0
VERTEX
  8
0
 10
129.545351
 20
124.458884
 42
-0.003364
  0
VERTEX
  8
0
 10
133.929152
 20
128.591680
 42
-0.003233
  0
VERTEX
  8
0
 10
137.764423
 20
132.112944
 42
-0.014776
  0
VERTEX
  8
0
 10
140.065224
 20
134.077482
 42
0.008143
  0
VERTEX
  8
0
 10
142.142879
 20
135.804371
 42
0.003169
  0
VERTEX
  8
0
 10
144.961613
 20
138.257135
 42
0.003136
  0
VERTEX
  8
0
 10
147.980903
 20
140.952060
 42
0.003886
  0
VERTEX
  8
0
 10
150.756068
 20
143.500000
 42
-0.004394
  0
VERTEX
  8
0
 10
153.335265
 20
145.863196
 42
-0.005552
  0
VERTEX
  8
0
 10
155.763481
 20
148.000782
 42
-0.004451
  0
VERTEX
  8
0
 10
157.832355
 20
149.749828
 42
-0.044093
  0
VERTEX
  8
0
 10
158.767622
 20
150.396279
 42
0.044555
  0
VERTEX
  8
0
 10
159.630568
 20
150.993921
 42
0.007444
  0
VERTEX
  8
0
 10
161.160685
 20
152.308182
 42
0.008106
  0
VERTEX
  8
0
 10
162.916383
 20
153.913723
 42
0.007108
  0
VERTEX
  8
0
 10
164.698911
 20
155.646279
 42
-0.007700
  0
VERTEX
  8
0
 10
166.419623
 20
157.314794
 42
-0.011324
  0
VERTEX
  8
0
 10
167.986308
 20
158.722363
 42
-0.006814
  0
VERTEX
  8
0
 10
169.330373
 20
159.844558
 42
-0.170649
  0
VERTEX
  8
0
 10
169.776316
 20
160.004319
 42
0.163407
  0
VERTEX
  8
0
 10
170.233929
 20
160.161022
 42
0.005513
  0
VERTEX
  8
0
 10
171.756168
 20
161.354428
 42
0.009894
  0
VERTEX
  8
0
 10
173.531601
 20
162.836880
 42
0.006678
  0
VERTEX
  8
0
 10
175.500000
 20
164.594369
 42
-0.003822
  0
VERTEX
  8
0
 10
177.739195
 20
166.616743
 42
-0.002524
  0
VERTEX
  8
0
 10
180.341931
 20
168.908151
 42
-0.002540
  0
VERTEX
  8
0
 10
182.894976
 20
171.110313
 42
-0.004921
  0
VERTEX
  8
0
 10
184.961894
 20
172.840050
 42
0.005820
  0
VERTEX
  8
0
 10
186.954034
 20
174.513308
 42
0.003585
  0
VERTEX
  8
0
 10
189.261284
 20
176.526452
 42
0.003594
  0
VERTEX
  8
0
 10
191.514337
 20
178.550010
 42
0.006427
  0
VERTEX
  8
0
 10
193.332476
 20
180.250000
 42
-0.010755
  0
VERTEX
  8
0
 10
194.895703
 20
181.686486
 42
-0.014980
  0
VERTEX
  8
0
 10
196.359046
 20
182.898437
 42
-0.011349
  0
VERTEX
  8
0
 10
197.612622
 20
183.829930
 42
-0.155319
  0
VERTEX
  8
0
 10
198.146898
 20
184.000000
 42
0.162913
  0
VERTEX
  8
0
 10
198.687566
 20
184.180966
 42
0.009923
  0
VERTEX
  8
0
 10
200.046583
 20
185.248437
 42
0.013960
  0
VERTEX
  8
0
 10
201.632891
 20
186.621827
 42
0.009821
  0
VERTEX
  8
0
 10
203.342029
 20
188.250000
 42
-0.008689
  0
VERTEX
  8
0
 10
205.233628
 20
190.060178
 42
-0.006546
  0
VERTEX
  8
0
 10
207.372834
 20
191.985938
 42
-0.006621
  0
VERTEX
  8
0
 10
209.432128
 20
193.743833
 42
-0.015154
  0
VERTEX
  8
0
 10
211.040511
 20
195.000000
 42
0.012842
  0
VERTEX
  8
0
 10
212.663285
 20
196.255371
 42
0.005474
  0
VERTEX
  8
0
 10
214.772323
 20
198.014063
 42
0.005412
  0
VERTEX
  8
0
 10
216.982035
 20
199.939788
 42
0.007080
  0
VERTEX
  8
0
 10
218.957325
 20
201.750000
 42
-0.007693
  0
VERTEX
  8
0
 10
220.738621
 20
203.378416
 42
-0.011252
  0
VERTEX
  8
0
 10
222.359967
 20
204.751563
 42
-0.006869
  0
VERTEX
  8
0
 10
223.748221
 20
205.843438
 42
-0.164645
  0
VERTEX
  8
0
 10
224.210788
 20
206.000000
 42
0.177414
  0
VERTEX
  8
0
 10
224.681348
 20
206.172395
 42
0.004911
  0
VERTEX
  8
0
 10
226.353087
 20
207.615625
 42
0.009525
  0
VERTEX
  8
0
 10
228.294815
 20
209.392315
 42
0.006326
  0
VERTEX
  8
0
 10
230.456522
 20
211.500000
 42
-0.008651
  0
VERTEX
  8
0
 10
232.637994
 20
213.607262
 42
-0.012547
  0
VERTEX
  8
0
 10
234.641033
 20
215.384375
 42
-0.008174
  0
VERTEX
  8
0
 10
236.357637
 20
216.784673
 42
-0.168548
  0
VERTEX
  8
0
 10
236.978261
 20
217.000000
 42
0.096862
  0
VERTEX
  8
0
 10
237.368229
 20
217.076262
 42
0.097407
  0
VERTEX
  8
0
 10
237.699864
 20
217.293750
 42
0.098440
  0
VERTEX
  8
0
 10
237.921918
 20
217.618393
 42
0.101258
  0
VERTEX
  8
0
 10
238.000000
 20
218.000000
 42
-0.107021
  0
VERTEX
  8
0
 10
238.082610
 20
218.381532
 42
-0.099487
  0
VERTEX
  8
0
 10
238.316780
 20
218.706250
 42
-0.095880
  0
VERTEX
  8
0
 10
238.666715
 20
218.923949
 42
-0.091591
  0
VERTEX
  8
0
 10
239.078401
 20
219.000000
 42
0.152680
  0
VERTEX
  8
0
 10
239.687576
 20
219.190458
 42
0.015563
  0
VERTEX
  8
0
 10
240.918553
 20
220.101562
 42
0.018308
  0
VERTEX
  8
0
 10
242.343485
 20
221.313756
 42
0.013613
  0
VERTEX
  8
0
 10
243.828401
 20
222.750000
 42
-0.011756
  0
VERTEX
  8
0
 10
245.524093
 20
224.402342
 42
-0.007197
  0
VERTEX
  8
0
 10
247.596468
 20
226.273982
 42
-0.007213
  0
VERTEX
  8
0
 10
249.703043
 20
228.069046
 42
-0.012729
  0
VERTEX
  8
0
 10
251.500000
 20
229.480575
 42
0.010604
  0
VERTEX
  8
0
 10
253.270139
 20
230.858912
 42
0.006598
  0
VERTEX
  8
0
 10
255.289479
 20
232.546000
 42
0.006619
  0
VERTEX
  8
0
 10
257.238143
 20
234.263502
 42
0.011903
  0
VERTEX
  8
0
 10
258.783333
 20
235.730575
 42
-0.013276
  0
VERTEX
  8
0
 10
260.109472
 20
236.982767
 42
-0.017864
  0
VERTEX
  8
0
 10
261.378416
 20
238.039607
 42
-0.015062
  0
VERTEX
  8
0
 10
262.472765
 20
238.835180
 42
-0.150748
  0
VERTEX
  8
0
 10
263.007018
 20
239.000000
 42
0.164466
  0
VERTEX
  8
0
 10
263.568791
 20
239.189922
 42
0.009764
  0
VERTEX
  8
0
 10
264.993015
 20
240.321875
 42
0.013859
  0
VERTEX
  8
0
 10
266.655020
 20
241.776028
 42
0.009722
  0
VERTEX
  8
0
 10
268.447368
 20
243.500000
 42
-0.010602
  0
VERTEX
  8
0
 10
270.245916
 20
245.223852
 42
-0.014901
  0
VERTEX
  8
0
 10
271.926974
 20
246.678125
 42
-0.011084
  0
VERTEX
  8
0
 10
273.368579
 20
247.799792
 42
-0.161137
  0
VERTEX
  8
0
 10
273.973684
 20
248.000000
 42
0.096416
  0
VERTEX
  8
0
 10
274.365406
 20
248.076245
 42
0.097290
  0
VERTEX
  8
0
 10
274.698520
 20
248.293750
 42
0.098538
  0
VERTEX
  8
0
 10
274.921552
 20
248.618400
 42
0.101724
  0
VERTEX
  8
0
 10
275.000000
 20
249.000000
 42
-0.103674
  0
VERTEX
  8
0
 10
275.079978
 20
249.381574
 42
-0.098920
  0
VERTEX
  8
0
 10
275.307102
 20
249.706250
 42
-0.096788
  0
VERTEX
  8
0
 10
275.646398
 20
249.923826
 42
-0.094588
  0
VERTEX
  8
0
 10
276.045455
 20
250.000000
 42
0.123067
  0
VERTEX
  8
0
 10
276.593384
 20
250.136938
 42
0.024205
  0
VERTEX
  8
0
 10
277.471110
 20
250.660938
 42
0.024335
  0
VERTEX
  8
0
 10
278.458205
 20
251.388641
 42
0.020481
  0
VERTEX
  8
0
 10
279.430664
 20
252.250000
 42
-0.013805
  0
VERTEX
  8
0
 10
282.143927
 20
254.718691
 42
-0.005484
  0
VERTEX
  8
0
 10
285.996875
 20
257.961746
 42
-0.004836
  0
VERTEX
  8
0
 10
290.702307
 20
261.759234
 42
-0.003273
  0
VERTEX
  8
0
 10
296.134971
 20
266.000000
 42
0.008103
  0
VERTEX
  8
0
 10
297.543222
 20
267.121345
 42
0.005694
  0
VERTEX
  8
0
 10
299.092657
 20
268.426562
 42
0.005747
  0
VERTEX
  8
0
 10
300.547489
 20
269.710128
 42
0.011970
  0
VERTEX
  8
0
 10
301.645148
 20
270.750000
 42
-0.010960
  0
VERTEX
  8
0
 10
302.551270
 20
271.611898
 42
-0.015302
  0
VERTEX
  8
0
 10
303.400927
 20
272.339062
 42
-0.011627
  0
VERTEX
  8
0
 10
304.129770
 20
272.897765
 42
-0.159011
  0
VERTEX
  8
0
 10
304.443115
 20
273.000000
 42
0.196070
  0
VERTEX
  8
0
 10
306.538236
 20
273.854430
 42
0.001139
  0
VERTEX
  8
0
 10
321.871275
 20
288.924102
 42
0.001125
  0
VERTEX
  8
0
 10
337.144719
 20
304.071807
 42
0.199402
  0
VERTEX
  8
0
 10
338.000000
 20
306.131153
 42
-0.144761
  0
VERTEX
  8
0
 10
338.169771
 20
306.705248
 42
-0.021134
  0
VERTEX
  8
0
 10
338.881250
 20
307.707528
 42
-0.022430
  0
VERTEX
  8
0
 10
339.851257
 20
308.848866
 42
-0.017541
  0
VERTEX
  8
0
 10
341.000000
 20
310.000000
 42
0.011152
  0
VERTEX
  8
0
 10
342.149238
 20
311.122578
 42
0.015705
  0
VERTEX
  8
0
 10
343.118750
 20
312.177104
 42
0.011866
  0
VERTEX
  8
0
 10
343.864745
 20
313.084141
 42
0.167684
  0
VERTEX
  8
0
 10
344.000000
 20
313.476104
 42
-0.130290
  0
VERTEX
  8
0
 10
344.121582
 20
313.934769
 42
-0.002955
  0
VERTEX
  8
0
 10
345.265000
 20
315.912706
 42
-0.006435
  0
VERTEX
  8
0
 10
346.656120
 20
318.218101
 42
-0.004288
  0
VERTEX
  8
0
 10
348.306382
 20
320.824894
 42
0.004132
  0
VERTEX
  8
0
 10
350.134135
 20
323.710071
 42
0.003263
  0
VERTEX
  8
0
 10
352.065577
 20
326.861063
 42
0.003299
  0
VERTEX
  8
0
 10
353.820643
 20
329.810493
 42
0.008176
  0
VERTEX
  8
0
 10
355.056382
 20
332.000000
 42
-0.009063
  0
VERTEX
  8
0
 10
356.047052
 20
333.748039
 42
-0.012543
  0
VERTEX
  8
0
 10
357.002500
 20
335.276042
 42
-0.009134
  0
VERTEX
  8
0
 10
357.846736
 20
336.504354
 42
-0.133826
  0
VERTEX
  8
0
 10
358.250000
 20
336.833333
 42
0.159230
  0
VERTEX
  8
0
 10
358.538485
 20
337.093607
 42
0.049842
  0
VERTEX
  8
0
 10
358.779687
 20
337.631771
 42
0.044078
  0
VERTEX
  8
0
 10
358.944732
 20
338.325242
 42
0.036404
  0
VERTEX
  8
0
 10
359.000000
 20
339.083333
 42
-0.050201
  0
VERTEX
  8
0
 10
359.073823
 20
339.816758
 42
-0.070178
  0
VERTEX
  8
0
 10
359.293750
 20
340.436979
 42
-0.090315
  0
VERTEX
  8
0
 10
359.618250
 20
340.854207
 42
-0.184457
  0
VERTEX
  8
0
 10
360.000000
 20
341.000000
 42
0.191087
  0
VERTEX
  8
0
 10
360.381882
 20
341.151477
 42
0.088204
  0
VERTEX
  8
0
 10
360.706250
 20
341.587500
 42
0.068025
  0
VERTEX
  8
0
 10
360.926307
 20
342.234582
 42
0.048028
  0
VERTEX
  8
0
 10
361.000000
 20
343.000000
 42
-0.048028
  0
VERTEX
  8
0
 10
361.073693
 20
343.765418
 42
-0.068025
  0
VERTEX
  8
0
 10
361.293750
 20
344.412500
 42
-0.088204
  0
VERTEX
  8
0
 10
361.618118
 20
344.848523
 42
-0.191087
  0
VERTEX
  8
0
 10
362.000000
 20
345.000000
 42
0.188692
  0
VERTEX
  8
0
 10
362.381832
 20
345.149417
 42
0.088982
  0
VERTEX
  8
0
 10
362.706250
 20
345.578565
 42
0.068799
  0
VERTEX
  8
0
 10
362.926261
 20
346.215843
 42
0.048799
  0
VERTEX
  8
0
 10
363.000000
 20
346.969584
 42
-0.066235
  0
VERTEX
  8
0
 10
363.132463
 20
347.965141
 42
-0.020615
  0
VERTEX
  8
0
 10
363.587500
 20
349.406597
 42
-0.020208
  0
VERTEX
  8
0
 10
364.234469
 20
350.992166
 42
-0.020986
  0
VERTEX
  8
0
 10
365.000000
 20
352.500000
 42
0.020986
  0
VERTEX
  8
0
 10
365.765531
 20
354.007834
 42
0.020208
  0
VERTEX
  8
0
 10
366.412500
 20
355.593403
 42
0.020615
  0
VERTEX
  8
0
 10
366.867537
 20
357.034859
 42
0.066235
  0
VERTEX
  8
0
 10
367.000000
 20
358.030416
 42
-0.048799
  0
VERTEX
  8
0
 10
367.073739
 20
358.784157
 42
-0.068799
  0
VERTEX
  8
0
 10
367.293750
 20
359.421435
 42
-0.088982
  0
VERTEX
  8
0
 10
367.618168
 20
359.850583
 42
-0.188692
  0
VERTEX
  8
0
 10
368.000000
 20
360.000000
 42
0.213207
  0
VERTEX
  8
0
 10
368.382470
 20
360.170857
 42
0.080277
  0
VERTEX
  8
0
 10
368.706250
 20
360.675625
 42
0.061077
  0
VERTEX
  8
0
 10
368.926688
 20
361.419414
 42
0.041555
  0
VERTEX
  8
0
 10
369.000000
 20
362.300000
 42
-0.032005
  0
VERTEX
  8
0
 10
369.060888
 20
363.250240
 42
-0.030245
  0
VERTEX
  8
0
 10
369.242673
 20
364.203437
 42
-0.031643
  0
VERTEX
  8
0
 10
369.508294
 20
365.026465
 42
-0.085284
  0
VERTEX
  8
0
 10
369.826120
 20
365.550000
 42
0.075357
  0
VERTEX
  8
0
 10
370.219944
 20
366.170780
 42
0.011221
  0
VERTEX
  8
0
 10
370.787876
 20
367.542812
 42
0.012412
  0
VERTEX
  8
0
 10
371.386470
 20
369.207447
 42
0.010408
  0
VERTEX
  8
0
 10
371.940102
 20
371.000000
 42
-0.004315
  0
VERTEX
  8
0
 10
372.492643
 20
372.869529
 42
-0.004073
  0
VERTEX
  8
0
 10
373.087797
 20
374.765625
 42
-0.004050
  0
VERTEX
  8
0
 10
373.642163
 20
376.436301
 42
-0.014156
  0
VERTEX
  8
0
 10
374.038658
 20
377.500000
 42
0.018342
  0
VERTEX
  8
0
 10
374.393675
 20
378.477343
 42
0.008072
  0
VERTEX
  8
0
 10
374.794557
 20
379.793750
 42
0.007976
  0
VERTEX
  8
0
 10
375.175302
 20
381.205057
 42
0.010608
  0
VERTEX
  8
0
 10
375.473512
 20
382.500000
 42
0.000163
  0
VERTEX
  8
0
 10
375.806943
 20
384.105245
 42
0.000043
  0
VERTEX
  8
0
 10
376.339613
 20
386.675000
 42
0.000044
  0
VERTEX
  8
0
 10
376.945392
 20
389.600001
 42
0.000045
  0
VERTEX
  8
0
 10
377.545459
 20
392.500000
 42
-0.001502
  0
VERTEX
  8
0
 10
378.169718
 20
395.473226
 42
-0.001264
  0
VERTEX
  8
0
 10
378.848339
 20
398.618750
 42
-0.001274
  0
VERTEX
  8
0
 10
379.482402
 20
401.487024
 42
-0.003533
  0
VERTEX
  8
0
 10
379.947735
 20
403.500000
 42
0.002608
  0
VERTEX
  8
0
 10
382.598483
 20
414.870931
 42
0.005777
  0
VERTEX
  8
0
 10
384.474244
 20
423.575097
 42
0.005970
  0
VERTEX
  8
0
 10
385.720870
 20
430.100689
 42
0.044235
  0
VERTEX
  8
0
 10
386.000000
 20
433.249626
 42
-0.034569
  0
VERTEX
  8
0
 10
386.072921
 20
434.303078
 42
-0.052675
  0
VERTEX
  8
0
 10
386.293750
 20
435.192078
 42
-0.068632
  0
VERTEX
  8
0
 10
386.616422
 20
435.803228
 42
-0.241532
  0
VERTEX
  8
0
 10
387.000000
 20
436.000000
 42
0.295869
  0
VERTEX
  8
0
 10
387.387127
 20
436.251055
 42
0.043820
  0
VERTEX
  8
0
 10
387.706250
 20
437.175000
 42
0.037669
  0
VERTEX
  8
0
 10
387.927610
 20
438.467056
 42
0.023598
  0
VERTEX
  8
0
 10
388.000000
 20
440.000000
 42
-0.023598
  0
VERTEX
  8
0
 10
388.072390
 20
441.532944
 42
-0.037669
  0
VERTEX
  8
0
 10
388.293750
 20
442.825000
 42
-0.043820
  0
VERTEX
  8
0
 10
388.612873
 20
443.748945
 42
-0.295869
  0
VERTEX
  8
0
 10
389.000000
 20
444.000000
 42
0.293924
  0
VERTEX
  8
0
 10
389.386960
 20
444.248983
 42
0.044731
  0
VERTEX
  8
0
 10
389.706250
 20
445.157664
 42
0.038191
  0
VERTEX
  8
0
 10
389.927595
 20
446.430680
 42
0.023957
  0
VERTEX
  8
0
 10
390.000000
 20
447.940983
 42
-0.023552
  0
VERTEX
  8
0
 10
390.073250
 20
449.495210
 42
-0.030444
  0
VERTEX
  8
0
 10
390.293750
 20
450.905850
 42
-0.031293
  0
VERTEX
  8
0
 10
390.612194
 20
452.019590
 42
-0.170670
  0
VERTEX
  8
0
 10
391.000000
 20
452.500000
 42
0.158284
  0
VERTEX
  8
0
 10
391.386560
 20
452.955916
 42
0.036095
  0
VERTEX
  8
0
 10
391.706250
 20
453.929939
 42
0.033884
  0
VERTEX
  8
0
 10
391.926564
 20
455.159953
 42
0.027380
  0
VERTEX
  8
0
 10
392.000000
 20
456.500000
 42
-0.027380
  0
VERTEX
  8
0
 10
392.073436
 20
457.840047
 42
-0.033884
  0
VERTEX
  8
0
 10
392.293750
 20
459.070061
 42
-0.036095
  0
VERTEX
  8
0
 10
392.613440
 20
460.044084
 42
-0.158284
  0
VERTEX
  8
0
 10
393.000000
 20
460.500000
 42
0.170670
  0
VERTEX
  8
0
 10
393.387806
 20
460.980410
 42
0.031293
  0
VERTEX
  8
0
 10
393.706250
 20
462.094150
 42
0.030444
  0
VERTEX
  8
0
 10
393.926750
 20
463.504790
 42
0.023552
  0
VERTEX
  8
0
 10
394.000000
 20
465.059017
 42
-0.023957
  0
VERTEX
  8
0
 10
394.072405
 20
466.569320
 42
-0.038191
  0
VERTEX
  8
0
 10
394.293750
 20
467.842336
 42
-0.044731
  0
VERTEX
  8
0
 10
394.613040
 20
468.751017
 42
-0.293924
  0
VERTEX
  8
0
 10
395.000000
 20
469.000000
 42
0.277684
  0
VERTEX
  8
0
 10
395.385692
 20
469.232098
 42
0.052312
  0
VERTEX
  8
0
 10
395.706250
 20
470.028125
 42
0.042582
  0
VERTEX
  8
0
 10
395.927458
 20
471.158889
 42
0.027026
  0
VERTEX
  8
0
 10
396.000000
 20
472.500000
 42
-0.027026
  0
VERTEX
  8
0
 10
396.072542
 20
473.841111
 42
-0.042582
  0
VERTEX
  8
0
 10
396.293750
 20
474.971875
 42
-0.052312
  0
VERTEX
  8
0
 10
396.614308
 20
475.767902
 42
-0.277684
  0
VERTEX
  8
0
 10
397.000000
 20
476.000000
 42
0.275259
  0
VERTEX
  8
0
 10
397.385522
 20
476.229636
 42
0.053437
  0
VERTEX
  8
0
 10
397.706250
 20
477.010789
 42
0.043243
  0
VERTEX
  8
0
 10
397.927436
 20
478.122516
 42
0.027497
  0
VERTEX
  8
0
 10
398.000000
 20
479.440983
 42
-0.026918
  0
VERTEX
  8
0
 10
398.073414
 20
480.803639
 42
-0.033489
  0
VERTEX
  8
0
 10
398.293750
 20
482.052725
 42
-0.035556
  0
VERTEX
  8
0
 10
398.613307
 20
483.041340
 42
-0.159713
  0
VERTEX
  8
0
 10
399.000000
 20
483.500000
 42
0.158284
  0
VERTEX
  8
0
 10
399.386560
 20
483.955916
 42
0.036095
  0
VERTEX
  8
0
 10
399.706250
 20
484.929939
 42
0.033884
  0
VERTEX
  8
0
 10
399.926564
 20
486.159953
 42
0.027380
  0
VERTEX
  8
0
 10
400.000000
 20
487.500000
 42
-0.024400
  0
VERTEX
  8
0
 10
400.065195
 20
488.835150
 42
-0.031238
  0
VERTEX
  8
0
 10
400.261294
 20
490.050002
 42
-0.032422
  0
VERTEX
  8
0
 10
400.544827
 20
491.009530
 42
-0.167820
  0
VERTEX
  8
0
 10
400.889512
 20
491.431715
 42
0.141945
  0
VERTEX
  8
0
 10
401.271355
 20
491.853942
 42
0.024812
  0
VERTEX
  8
0
 10
401.697061
 20
492.850822
 42
0.025189
  0
VERTEX
  8
0
 10
402.090575
 20
494.106847
 42
0.020254
  0
VERTEX
  8
0
 10
402.389512
 20
495.490732
 42
-0.000012
  0
VERTEX
  8
0
 10
402.667351
 20
497.087616
 42
-0.000007
  0
VERTEX
  8
0
 10
402.999682
 20
498.997277
 42
-0.000007
  0
VERTEX
  8
0
 10
403.331913
 20
500.906058
 42
-0.000012
  0
VERTEX
  8
0
 10
403.609406
 20
502.500000
 42
-0.023222
  0
VERTEX
  8
0
 10
403.907606
 20
503.840922
 42
-0.034922
  0
VERTEX
  8
0
 10
404.301411
 20
504.971875
 42
-0.037981
  0
VERTEX
  8
0
 10
404.726897
 20
505.787531
 42
-0.259088
  0
VERTEX
  8
0
 10
405.109406
 20
506.000000
 42
0.291300
  0
VERTEX
  8
0
 10
405.453834
 20
506.219270
 42
0.045959
  0
VERTEX
  8
0
 10
405.738388
 20
507.010789
 42
0.038897
  0
VERTEX
  8
0
 10
405.935498
 20
508.122324
 42
0.024443
  0
VERTEX
  8
0
 10
406.000000
 20
509.440983
 42
-0.026918
  0
VERTEX
  8
0
 10
406.073414
 20
510.803639
 42
-0.033489
  0
VERTEX
  8
0
 10
406.293750
 20
512.052725
 42
-0.035556
  0
VERTEX
  8
0
 10
406.613307
 20
513.041340
 42
-0.159713
  0
VERTEX
  8
0
 10
407.000000
 20
513.500000
 42
0.159713
  0
VERTEX
  8
0
 10
407.386693
 20
513.958660
 42
0.035556
  0
VERTEX
  8
0
 10
407.706250
 20
514.947275
 42
0.033489
  0
VERTEX
  8
0
 10
407.926586
 20
516.196361
 42
0.026918
  0
VERTEX
  8
0
 10
408.000000
 20
517.559017
 42
-0.022888
  0
VERTEX
  8
0
 10
408.060399
 20
518.877767
 42
-0.036627
  0
VERTEX
  8
0
 10
408.245192
 20
519.989211
 42
-0.042003
  0
VERTEX
  8
0
 10
408.511274
 20
520.786969
 42
-0.299749
  0
VERTEX
  8
0
 10
408.834695
 20
521.000000
 42
0.315603
  0
VERTEX
  8
0
 10
409.208389
 20
521.261971
 42
0.014196
  0
VERTEX
  8
0
 10
409.729234
 20
522.835938
 42
0.019451
  0
VERTEX
  8
0
 10
410.249510
 20
524.854267
 42
0.012186
  0
VERTEX
  8
0
 10
410.707809
 20
527.250000
 42
-0.010433
  0
VERTEX
  8
0
 10
411.257486
 20
530.179002
 42
-0.005190
  0
VERTEX
  8
0
 10
412.069680
 20
533.867188
 42
-0.005149
  0
VERTEX
  8
0
 10
412.990612
 20
537.672725
 42
-0.007540
  0
VERTEX
  8
0
 10
413.885759
 20
541.000000
 42
0.003975
  0
VERTEX
  8
0
 10
414.820936
 20
544.379847
 42
0.002482
  0
VERTEX
  8
0
 10
415.865259
 20
548.353125
 42
0.002490
  0
VERTEX
  8
0
 10
416.855619
 20
552.279508
 42
0.004525
  0
VERTEX
  8
0
 10
417.620037
 20
555.500000
 42
-0.006151
  0
VERTEX
  8
0
 10
418.296043
 20
558.307356
 42
-0.007193
  0
VERTEX
  8
0
 10
419.008531
 20
560.953827
 42
-0.006437
  0
VERTEX
  8
0
 10
419.670843
 20
563.171292
 42
-0.042952
  0
VERTEX
  8
0
 10
420.107392
 20
564.236431
 42
0.050914
  0
VERTEX
  8
0
 10
420.450549
 20
565.113142
 42
0.021401
  0
VERTEX
  8
0
 10
420.737797
 20
566.348022
 42
0.020909
  0
VERTEX
  8
0
 10
420.934526
 20
567.705325
 42
0.025537
  0
VERTEX
  8
0
 10
421.000000
 20
568.986431
 42
-0.031481
  0
VERTEX
  8
0
 10
421.072759
 20
570.140890
 42
-0.048668
  0
VERTEX
  8
0
 10
421.293750
 20
571.114764
 42
-0.062402
  0
VERTEX
  8
0
 10
421.615700
 20
571.789778
 42
-0.255639
  0
VERTEX
  8
0
 10
422.000000
 20
572.000000
 42
0.275259
  0
VERTEX
  8
0
 10
422.385522
 20
572.229636
 42
0.053437
  0
VERTEX
  8
0
 10
422.706250
 20
573.010789
 42
0.043243
  0
VERTEX
  8
0
 10
422.927436
 20
574.122516
 42
0.027497
  0
VERTEX
  8
0
 10
423.000000
 20
575.440983
 42
-0.026918
  0
VERTEX
  8
0
 10
423.073414
 20
576.803639
 42
-0.033489
  0
VERTEX
  8
0
 10
423.293750
 20
578.052725
 42
-0.035556
  0
VERTEX
  8
0
 10
423.613307
 20
579.041340
 42
-0.159713
  0
VERTEX
  8
0
 10
424.000000
 20
579.500000
 42
0.159713
  0
VERTEX
  8
0
 10
424.386693
 20
579.958660
 42
0.035556
  0
VERTEX
  8
0
 10
424.706250
 20
580.947275
 42
0.033489
  0
VERTEX
  8
0
 10
424.926586
 20
582.196361
 42
0.026918
  0
VERTEX
  8
0
 10
425.000000
 20
583.559017
 42
-0.027497
  0
VERTEX
  8
0
 10
425.072564
 20
584.877484
 42
-0.043243
  0
VERTEX
  8
0
 10
425.293750
 20
585.989211
 42
-0.053437
  0
VERTEX
  8
0
 10
425.614478
 20
586.770364
 42
-0.275259
  0
VERTEX
  8
0
 10
426.000000
 20
587.000000
 42
0.295869
  0
VERTEX
  8
0
 10
426.387127
 20
587.251055
 42
0.043820
  0
VERTEX
  8
0
 10
426.706250
 20
588.175000
 42
0.037669
  0
VERTEX
  8
0
 10
426.927610
 20
589.467056
 42
0.023598
  0
VERTEX
  8
0
 10
427.000000
 20
591.000000
 42
-0.023598
  0
VERTEX
  8
0
 10
427.072390
 20
592.532944
 42
-0.037669
  0
VERTEX
  8
0
 10
427.293750
 20
593.825000
 42
-0.043820
  0
VERTEX
  8
0
 10
427.612873
 20
594.748945
 42
-0.295869
  0
VERTEX
  8
0
 10
428.000000
 20
595.000000
 42
0.295869
  0
VERTEX
  8
0
 10
428.387127
 20
595.251055
 42
0.043820
  0
VERTEX
  8
0
 10
428.706250
 20
596.175000
 42
0.037669
  0
VERTEX
  8
0
 10
428.927610
 20
597.467056
 42
0.023598
  0
VERTEX
  8
0
 10
429.000000
 20
599.000000
 42
-0.023598
  0
VERTEX
  8
0
 10
429.072390
 20
600.532944
 42
-0.037669
  0
VERTEX
  8
0
 10
429.293750
 20
601.825000
 42
-0.043820
  0
VERTEX
  8
0
 10
429.612873
 20
602.748945
 42
-0.295869
  0
VERTEX
  8
0
 10
430.000000
 20
603.000000
 42
0.251914
  0
VERTEX
  8
0
 10
430.384097
 20
603.206632
 42
0.064068
  0
VERTEX
  8
0
 10
430.706250
 20
603.863914
 42
0.049716
  0
VERTEX
  8
0
 10
430.927200
 20
604.814380
 42
0.032276
  0
VERTEX
  8
0
 10
431.000000
 20
605.940983
 42
-0.027995
  0
VERTEX
  8
0
 10
431.065347
 20
607.107183
 42
-0.034403
  0
VERTEX
  8
0
 10
431.261294
 20
608.179541
 42
-0.036797
  0
VERTEX
  8
0
 10
431.545813
 20
609.029351
 42
-0.156404
  0
VERTEX
  8
0
 10
431.889512
 20
609.431715
 42
0.141945
  0
VERTEX
  8
0
 10
432.271355
 20
609.853942
 42
0.024812
  0
VERTEX
  8
0
 10
432.697061
 20
610.850822
 42
0.025189
  0
VERTEX
  8
0
 10
433.090575
 20
612.106847
 42
0.020254
  0
VERTEX
  8
0
 10
433.389512
 20
613.490732
 42
-0.000012
  0
VERTEX
  8
0
 10
433.667351
 20
615.087616
 42
-0.000007
  0
VERTEX
  8
0
 10
433.999682
 20
616.997277
 42
-0.000007
  0
VERTEX
  8
0
 10
434.331913
 20
618.906058
 42
-0.000012
  0
VERTEX
  8
0
 10
434.609406
 20
620.500000
 42
-0.023222
  0
VERTEX
  8
0
 10
434.907606
 20
621.840922
 42
-0.034922
  0
VERTEX
  8
0
 10
435.301411
 20
622.971875
 42
-0.037981
  0
VERTEX
  8
0
 10
435.726897
 20
623.787531
 42
-0.259088
  0
VERTEX
  8
0
 10
436.109406
 20
624.000000
 42
0.291300
  0
VERTEX
  8
0
 10
436.453834
 20
624.219270
 42
0.045959
  0
VERTEX
  8
0
 10
436.738388
 20
625.010789
 42
0.038897
  0
VERTEX
  8
0
 10
436.935498
 20
626.122324
 42
0.024443
  0
VERTEX
  8
0
 10
437.000000
 20
627.440983
 42
-0.026918
  0
VERTEX
  8
0
 10
437.073414
 20
628.803639
 42
-0.033489
  0
VERTEX
  8
0
 10
437.293750
 20
630.052725
 42
-0.035556
  0
VERTEX
  8
0
 10
437.613307
 20
631.041340
 42
-0.159713
  0
VERTEX
  8
0
 10
438.000000
 20
631.500000
 42
0.144823
  0
VERTEX
  8
0
 10
438.385448
 20
631.931076
 42
0.040930
  0
VERTEX
  8
0
 10
438.706250
 20
632.783064
 42
0.037579
  0
VERTEX
  8
0
 10
438.926362
 20
633.851470
 42
0.032024
  0
VERTEX
  8
0
 10
439.000000
 20
635.000000
 42
-0.032024
  0
VERTEX
  8
0
 10
439.073638
 20
636.148530
 42
-0.037579
  0
VERTEX
  8
0
 10
439.293750
 20
637.216936
 42
-0.040930
  0
VERTEX
  8
0
 10
439.614552
 20
638.068924
 42
-0.144823
  0
VERTEX
  8
0
 10
440.000000
 20
638.500000
 42
0.111886
  0
VERTEX
  8
0
 10
440.383575
 20
638.876748
 42
0.050164
  0
VERTEX
  8
0
 10
440.706250
 20
639.509957
 42
0.046203
  0
VERTEX
  8
0
 10
440.925927
 20
640.277654
 42
0.046625
  0
VERTEX
  8
0
 10
441.000000
 20
641.070275
 42
-0.061036
  0
VERTEX
  8
0
 10
441.156105
 20
642.344307
 42
-0.004116
  0
VERTEX
  8
0
 10
442.071188
 20
645.897300
 42
-0.005864
  0
VERTEX
  8
0
 10
443.249855
 20
650.122677
 42
-0.004358
  0
VERTEX
  8
0
 10
444.646596
 20
654.761258
 42
0.003379
  0
VERTEX
  8
0
 10
446.124736
 20
659.635567
 42
0.003288
  0
VERTEX
  8
0
 10
447.550711
 20
664.574034
 42
0.003243
  0
VERTEX
  8
0
 10
448.747237
 20
668.930586
 42
0.012223
  0
VERTEX
  8
0
 10
449.412193
 20
671.682263
 42
-0.009811
  0
VERTEX
  8
0
 10
449.894374
 20
673.720607
 42
-0.012916
  0
VERTEX
  8
0
 10
450.418218
 20
675.557968
 42
-0.010390
  0
VERTEX
  8
0
 10
450.922651
 20
677.058267
 42
-0.110514
  0
VERTEX
  8
0
 10
451.265597
 20
677.598930
 42
0.104707
  0
VERTEX
  8
0
 10
451.548686
 20
678.034100
 42
0.032181
  0
VERTEX
  8
0
 10
451.784269
 20
678.785683
 42
0.030628
  0
VERTEX
  8
0
 10
451.945883
 20
679.683127
 42
0.029242
  0
VERTEX
  8
0
 10
452.000000
 20
680.607650
 42
-0.040291
  0
VERTEX
  8
0
 10
452.073923
 20
681.523527
 42
-0.042976
  0
VERTEX
  8
0
 10
452.293750
 20
682.395433
 42
-0.047126
  0
VERTEX
  8
0
 10
452.615828
 20
683.103199
 42
-0.124636
  0
VERTEX
  8
0
 10
453.000000
 20
683.500000
 42
0.128561
  0
VERTEX
  8
0
 10
453.384387
 20
683.903211
 42
0.046040
  0
VERTEX
  8
0
 10
453.706250
 20
684.636189
 42
0.041947
  0
VERTEX
  8
0
 10
453.926129
 20
685.542916
 42
0.038534
  0
VERTEX
  8
0
 10
454.000000
 20
686.500000
 42
-0.038534
  0
VERTEX
  8
0
 10
454.073871
 20
687.457084
 42
-0.041947
  0
VERTEX
  8
0
 10
454.293750
 20
688.363811
 42
-0.046040
  0
VERTEX
  8
0
 10
454.615613
 20
689.096789
 42
-0.128561
  0
VERTEX
  8
0
 10
455.000000
 20
689.500000
 42
0.146547
  0
VERTEX
  8
0
 10
455.385578
 20
689.934161
 42
0.040338
  0
VERTEX
  8
0
 10
455.706250
 20
690.800400
 42
0.037109
  0
VERTEX
  8
0
 10
455.926388
 20
691.887885
 42
0.031397
  0
VERTEX
  8
0
 10
456.000000
 20
693.059017
 42
-0.032276
  0
VERTEX
  8
0
 10
456.072800
 20
694.185620
 42
-0.049716
  0
VERTEX
  8
0
 10
456.293750
 20
695.136086
 42
-0.064068
  0
VERTEX
  8
0
 10
456.615903
 20
695.793368
 42
-0.251914
  0
VERTEX
  8
0
 10
457.000000
 20
696.000000
 42
0.254951
  0
VERTEX
  8
0
 10
457.384262
 20
696.209557
 42
0.062710
  0
VERTEX
  8
0
 10
457.706250
 20
696.881250
 42
0.048861
  0
VERTEX
  8
0
 10
457.927234
 20
697.850749
 42
0.031626
  0
VERTEX
  8
0
 10
458.000000
 20
699.000000
 42
-0.031626
  0
VERTEX
  8
0
 10
458.072766
 20
700.149251
 42
-0.048861
  0
VERTEX
  8
0
 10
458.293750
 20
701.118750
 42
-0.062710
  0
VERTEX
  8
0
 10
458.615738
 20
701.790443
 42
-0.254951
  0
VERTEX
  8
0
 10
459.000000
 20
702.000000
 42
0.254951
  0
VERTEX
  8
0
 10
459.384262
 20
702.209557
 42
0.062710
  0
VERTEX
  8
0
 10
459.706250
 20
702.881250
 42
0.048861
  0
VERTEX
  8
0
 10
459.927234
 20
703.850749
 42
0.031626
  0
VERTEX
  8
0
 10
460.000000
 20
705.000000
 42
-0.031626
  0
VERTEX
  8
0
 10
460.072766
 20
706.149251
 42
-0.048861
  0
VERTEX
  8
0
 10
460.293750
 20
707.118750
 42
-0.062710
  0
VERTEX
  8
0
 10
460.615738
 20
707.790443
 42
-0.254951
  0
VERTEX
  8
0
 10
461.000000
 20
708.000000
 42
0.226478
  0
VERTEX
  8
0
 10
461.382936
 20
708.182831
 42
0.074992
  0
VERTEX
  8
0
 10
461.706250
 20
708.734375
 42
0.057076
  0
VERTEX
  8
0
 10
461.926884
 20
709.542644
 42
0.038131
  0
VERTEX
  8
0
 10
462.000000
 20
710.500000
 42
-0.038131
  0
VERTEX
  8
0
 10
462.073116
 20
711.457356
 42
-0.057076
  0
VERTEX
  8
0
 10
462.293750
 20
712.265625
 42
-0.074992
  0
VERTEX
  8
0
 10
462.617064
 20
712.817169
 42
-0.226478
  0
VERTEX
  8
0
 10
463.000000
 20
713.000000
 42
0.251914
  0
VERTEX
  8
0
 10
463.384097
 20
713.206632
 42
0.064068
  0
VERTEX
  8
0
 10
463.706250
 20
713.863914
 42
0.049716
  0
VERTEX
  8
0
 10
463.927200
 20
714.814380
 42
0.032276
  0
VERTEX
  8
0
 10
464.000000
 20
715.940983
 42
-0.031397
  0
VERTEX
  8
0
 10
464.073612
 20
717.112115
 42
-0.037109
  0
VERTEX
  8
0
 10
464.293750
 20
718.199600
 42
-0.040338
  0
VERTEX
  8
0
 10
464.614422
 20
719.065839
 42
-0.146547
  0
VERTEX
  8
0
 10
465.000000
 20
719.500000
 42
0.130646
  0
VERTEX
  8
0
 10
465.384508
 20
719.906663
 42
0.045439
  0
VERTEX
  8
0
 10
465.706250
 20
720.653525
 42
0.041396
  0
VERTEX
  8
0
 10
465.926158
 20
721.579340
 42
0.037634
  0
VERTEX
  8
0
 10
466.000000
 20
722.559017
 42
-0.039081
  0
VERTEX
  8
0
 10
466.073170
 20
723.493720
 42
-0.058208
  0
VERTEX
  8
0
 10
466.293750
 20
724.282961
 42
-0.076538
  0
VERTEX
  8
0
 10
466.617207
 20
724.820624
 42
-0.222681
  0
VERTEX
  8
0
 10
467.000000
 20
725.000000
 42
0.222681
  0
VERTEX
  8
0
 10
467.382793
 20
725.179376
 42
0.076538
  0
VERTEX
  8
0
 10
467.706250
 20
725.717039
 42
0.058208
  0
VERTEX
  8
0
 10
467.926830
 20
726.506280
 42
0.039081
  0
VERTEX
  8
0
 10
468.000000
 20
727.440983
 42
-0.037634
  0
VERTEX
  8
0
 10
468.073842
 20
728.420660
 42
-0.041396
  0
VERTEX
  8
0
 10
468.293750
 20
729.346475
 42
-0.045439
  0
VERTEX
  8
0
 10
468.615492
 20
730.093337
 42
-0.130646
  0
VERTEX
  8
0
 10
469.000000
 20
730.500000
 42
0.111412
  0
VERTEX
  8
0
 10
469.383556
 20
730.876024
 42
0.050262
  0
VERTEX
  8
0
 10
469.706250
 20
731.506650
 42
0.046318
  0
VERTEX
  8
0
 10
469.925923
 20
732.270704
 42
0.046881
  0
VERTEX
  8
0
 10
470.000000
 20
733.059017
 42
-0.049547
  0
VERTEX
  8
0
 10
470.073784
 20
733.801778
 42
-0.069539
  0
VERTEX
  8
0
 10
470.293750
 20
734.429836
 42
-0.089706
  0
VERTEX
  8
0
 10
470.618213
 20
734.852535
 42
-0.186414
  0
VERTEX
  8
0
 10
471.000000
 20
735.000000
 42
0.144882
  0
VERTEX
  8
0
 10
471.381344
 20
735.112869
 42
0.099368
  0
VERTEX
  8
0
 10
471.706250
 20
735.430202
 42
0.083567
  0
VERTEX
  8
0
 10
471.925211
 20
735.904682
 42
0.066500
  0
VERTEX
  8
0
 10
472.000000
 20
736.464517
 42
-0.123842
  0
VERTEX
  8
0
 10
472.718701
 20
739.321711
 42
-0.005742
  0
VERTEX
  8
0
 10
477.588417
 20
748.144425
 42
-0.003525
  0
VERTEX
  8
0
 10
482.804192
 20
757.193536
 42
-0.266255
  0
VERTEX
  8
0
 10
484.211287
 20
758.000000
 42
0.411939
  0
VERTEX
  8
0
 10
484.535649
 20
758.321851
 42
0.000056
  0
VERTEX
  8
0
 10
484.768316
 20
788.696875
 42
0.001180
  0
VERTEX
  8
0
 10
484.943324
 20
822.429401
 42
0.000707
  0
VERTEX
  8
0
 10
485.000000
 20
862.500000
 42
0.000630
  0
VERTEX
  8
0
 10
484.942159
 20
908.434800
 42
0.001763
  0
VERTEX
  8
0
 10
484.747608
 20
940.625000
 42
0.000176
  0
VERTEX
  8
0
 10
484.490743
 20
966.514273
 42
0.411208
  0
VERTEX
  8
0
 10
484.000000
 20
967.000000
 42
-0.191087
  0
VERTEX
  8
0
 10
483.618118
 20
967.151477
 42
-0.088204
  0
VERTEX
  8
0
 10
483.293750
 20
967.587500
 42
-0.068025
  0
VERTEX
  8
0
 10
483.073693
 20
968.234582
 42
-0.048028
  0
VERTEX
  8
0
 10
483.000000
 20
969.000000
 42
-0.048028
  0
VERTEX
  8
0
 10
483.073693
 20
969.765418
 42
-0.068025
  0
VERTEX
  8
0
 10
483.293750
 20
970.412500
 42
-0.088204
  0
VERTEX
  8
0
 10
483.618118
 20
970.848523
 42
-0.191087
  0
VERTEX
  8
0
 10
484.000000
 20
971.000000
 42
0.411208
  0
VERTEX
  8
0
 10
484.490743
 20
971.485727
 42
0.000176
  0
VERTEX
  8
0
 10
484.747608
 20
997.375000
 42
0.001763
  0
VERTEX
  8
0
 10
484.942159
 20
1029.565200
 42
0.000630
  0
VERTEX
  8
0
 10
485.000000
 20
1075.500000
 42
0.000707
  0
VERTEX
  8
0
 10
484.943324
 20
1115.570599
 42
0.001180
  0
VERTEX
  8
0
 10
484.768316
 20
1149.303125
 42
0.000056
  0
VERTEX
  8
0
 10
484.535649
 20
1179.678149
 42
0.411939
  0
VERTEX
  8
0
 10
484.211287
 20
1180.000000
 42
-0.266255
  0
VERTEX
  8
0
 10
482.804192
 20
1180.806464
 42
-0.003525
  0
VERTEX
  8
0
 10
477.588417
 20
1189.855575
 42
-0.005742
  0
VERTEX
  8
0
 10
472.718701
 20
1198.678289
 42
-0.123842
  0
VERTEX
  8
0
 10
472.000000
 20
1201.535483
 42
0.066500
  0
VERTEX
  8
0
 10
471.925211
 20
1202.095318
 42
0.083567
  0
VERTEX
  8
0
 10
471.706250
 20
1202.569798
 42
0.099368
  0
VERTEX
  8
0
 10
471.381344
 20
1202.887131
 42
0.144882
  0
VERTEX
  8
0
 10
471.000000
 20
1203.000000
 42
-0.186414
  0
VERTEX
  8
0
 10
470.618213
 20
1203.147465
 42
-0.089706
  0
VERTEX
  8
0
 10
470.293750
 20
1203.570164
 42
-0.069539
  0
VERTEX
  8
0
 10
470.073784
 20
1204.198222
 42
-0.049547
  0
VERTEX
  8
0
 10
470.000000
 20
1204.940983
 42
0.046881
  0
VERTEX
  8
0
 10
469.925923
 20
1205.729296
 42
0.046318
  0
VERTEX
  8
0
 10
469.706250
 20
1206.493350
 42
0.050262
  0
VERTEX
  8
0
 10
469.383556
 20
1207.123976
 42
0.111412
  0
VERTEX
  8
0
 10
469.000000
 20
1207.500000
 42
-0.130646
  0
VERTEX
  8
0
 10
468.615492
 20
1207.906663
 42
-0.045439
  0
VERTEX
  8
0
 10
468.293750
 20
1208.653525
 42
-0.041396
  0
VERTEX
  8
0
 10
468.073842
 20
1209.579340
 42
-0.037634
  0
VERTEX
  8
0
 10
468.000000
 20
1210.559017
 42
0.039081
  0
VERTEX
  8
0
 10
467.926830
 20
1211.493720
 42
0.058208
  0
VERTEX
  8
0
 10
467.706250
 20
1212.282961
 42
0.076538
  0
VERTEX
  8
0
 10
467.382793
 20
1212.820624
 42
0.222681
  0
VERTEX
  8
0
 10
467.000000
 20
1213.000000
 42
-0.222681
  0
VERTEX
  8
0
 10
466.617207
 20
1213.179376
 42
-0.076538
  0
VERTEX
  8
0
 10
466.293750
 20
1213.717039
 42
-0.058208
  0
VERTEX
  8
0
 10
466.073170
 20
1214.506280
 42
-0.039081
  0
VERTEX
  8
0
 10
466.000000
 20
1215.440983
 42
0.037634
  0
VERTEX
  8
0
 10
465.926158
 20
1216.420660
 42
0.041396
  0
VERTEX
  8
0
 10
465.706250
 20
1217.346475
 42
0.045439
  0
VERTEX
  8
0
 10
465.384508
 20
1218.093337
 42
0.130646
  0
VERTEX
  8
0
 10
465.000000
 20
1218.500000
 42
-0.146547
  0
VERTEX
  8
0
 10
464.614422
 20
1218.934161
 42
-0.040338
  0
VERTEX
  8
0
 10
464.293750
 20
1219.800400
 42
-0.037109
  0
VERTEX
  8
0
 10
464.073612
 20
1220.887885
 42
-0.031397
  0
VERTEX
  8
0
 10
464.000000
 20
1222.059017
 42
0.032276
  0
VERTEX
  8
0
 10
463.927200
 20
1223.185620
 42
0.049716
  0
VERTEX
  8
0
 10
463.706250
 20
1224.136086
 42
0.064068
  0
VERTEX
  8
0
 10
463.384097
 20
1224.793368
 42
0.251914
  0
VERTEX
  8
0
 10
463.000000
 20
1225.000000
 42
-0.226478
  0
VERTEX
  8
0
 10
462.617064
 20
1225.182831
 42
-0.074992
  0
VERTEX
  8
0
 10
462.293750
 20
1225.734375
 42
-0.057076
  0
VERTEX
  8
0
 10
462.073116
 20
1226.542644
 42
-0.038131
  0
VERTEX
  8
0
 10
462.000000
 20
1227.500000
 42
0.038131
  0
VERTEX
  8
0
 10
461.926884
 20
1228.457356
 42
0.057076
  0
VERTEX
  8
0
 10
461.706250
 20
1229.265625
 42
0.074992
  0
VERTEX
  8
0
 10
461.382936
 20
1229.817169
 42
0.226478
  0
VERTEX
  8
0
 10
461.000000
 20
1230.000000
 42
-0.254951
  0
VERTEX
  8
0
 10
460.615738
 20
1230.209557
 42
-0.062710
  0
VERTEX
  8
0
 10
460.293750
 20
1230.881250
 42
-0.048861
  0
VERTEX
  8
0
 10
460.072766
 20
1231.850749
 42
-0.031626
  0
VERTEX
  8
0
 10
460.000000
 20
1233.000000
 42
0.031626
  0
VERTEX
  8
0
 10
459.927234
 20
1234.149251
 42
0.048861
  0
VERTEX
  8
0
 10
459.706250
 20
1235.118750
 42
0.062710
  0
VERTEX
  8
0
 10
459.384262
 20
1235.790443
 42
0.254951
  0
VERTEX
  8
0
 10
459.000000
 20
1236.000000
 42
-0.254951
  0
VERTEX
  8
0
 10
458.615738
 20
1236.209557
 42
-0.062710
  0
VERTEX
  8
0
 10
458.293750
 20
1236.881250
 42
-0.048861
  0
VERTEX
  8
0
 10
458.072766
 20
1237.850749
 42
-0.031626
  0
VERTEX
  8
0
 10
458.000000
 20
1239.000000
 42
0.031626
  0
VERTEX
  8
0
 10
457.927234
 20
1240.149251
 42
0.048861
  0
VERTEX
  8
0
 10
457.706250
 20
1241.118750
 42
0.062710
  0
VERTEX
  8
0
 10
457.384262
 20
1241.790443
 42
0.254951
  0
VERTEX
  8
0
 10
457.000000
 20
1242.000000
 42
-0.251914
  0
VERTEX
  8
0
 10
456.615903
 20
1242.206632
 42
-0.064068
  0
VERTEX
  8
0
 10
456.293750
 20
1242.863914
 42
-0.049716
  0
VERTEX
  8
0
 10
456.072800
 20
1243.814380
 42
-0.032276
  0
VERTEX
  8
0
 10
456.000000
 20
1244.940983
 42
0.031397
  0
VERTEX
  8
0
 10
455.926388
 20
1246.112115
 42
0.037109
  0
VERTEX
  8
0
 10
455.706250
 20
1247.199600
 42
0.040338
  0
VERTEX
  8
0
 10
455.385578
 20
1248.065839
 42
0.146547
  0
VERTEX
  8
0
 10
455.000000
 20
1248.500000
 42
-0.128561
  0
VERTEX
  8
0
 10
454.615613
 20
1248.903211
 42
-0.046040
  0
VERTEX
  8
0
 10
454.293750
 20
1249.636189
 42
-0.041947
  0
VERTEX
  8
0
 10
454.073871
 20
1250.542916
 42
-0.038534
  0
VERTEX
  8
0
 10
454.000000
 20
1251.500000
 42
0.038534
  0
VERTEX
  8
0
 10
453.926129
 20
1252.457084
 42
0.041947
  0
VERTEX
  8
0
 10
453.706250
 20
1253.363811
 42
0.046040
  0
VERTEX
  8
0
 10
453.384387
 20
1254.096789
 42
0.128561
  0
VERTEX
  8
0
 10
453.000000
 20
1254.500000
 42
-0.124636
  0
VERTEX
  8
0
 10
452.615828
 20
1254.896801
 42
-0.047126
  0
VERTEX
  8
0
 10
452.293750
 20
1255.604567
 42
-0.042976
  0
VERTEX
  8
0
 10
452.073923
 20
1256.476473
 42
-0.040291
  0
VERTEX
  8
0
 10
452.000000
 20
1257.392350
 42
0.029242
  0
VERTEX
  8
0
 10
451.945883
 20
1258.316873
 42
0.030628
  0
VERTEX
  8
0
 10
451.784269
 20
1259.214317
 42
0.032181
  0
VERTEX
  8
0
 10
451.548686
 20
1259.965900
 42
0.104707
  0
VERTEX
  8
0
 10
451.265597
 20
1260.401070
 42
-0.110514
  0
VERTEX
  8
0
 10
450.922651
 20
1260.941733
 42
-0.010390
  0
VERTEX
  8
0
 10
450.418218
 20
1262.442032
 42
-0.012916
  0
VERTEX
  8
0
 10
449.894374
 20
1264.279393
 42
-0.009811
  0
VERTEX
  8
0
 10
449.412193
 20
1266.317737
 42
0.012223
  0
VERTEX
  8
0
 10
448.747237
 20
1269.069414
 42
0.003243
  0
VERTEX
  8
0
 10
447.550711
 20
1273.425966
 42
0.003288
  0
VERTEX
  8
0
 10
446.124736
 20
1278.364433
 42
0.003379
  0
VERTEX
  8
0
 10
444.646596
 20
1283.238742
 42
-0.004358
  0
VERTEX
  8
0
 10
443.249855
 20
1287.877323
 42
-0.005864
  0
VERTEX
  8
0
 10
442.071188
 20
1292.102700
 42
-0.004116
  0
VERTEX
  8
0
 10
441.156105
 20
1295.655693
 42
-0.061036
  0
VERTEX
  8
0
 10
441.000000
 20
1296.929725
 42
0.046625
  0
VERTEX
  8
0
 10
440.925927
 20
1297.722346
 42
0.046203
  0
VERTEX
  8
0
 10
440.706250
 20
1298.490043
 42
0.050164
  0
VERTEX
  8
0
 10
440.383575
 20
1299.123252
 42
0.111886
  0
VERTEX
  8
0
 10
440.000000
 20
1299.500000
 42
-0.144823
  0
VERTEX
  8
0
 10
439.614552
 20
1299.931076
 42
-0.040930
  0
VERTEX
  8
0
 10
439.293750
 20
1300.783064
 42
-0.037579
  0
VERTEX
  8
0
 10
439.073638
 20
1301.851470
 42
-0.032024
  0
VERTEX
  8
0
 10
439.000000
 20
1303.000000
 42
0.032024
  0
VERTEX
  8
0
 10
438.926362
 20
1304.148530
 42
0.037579
  0
VERTEX
  8
0
 10
438.706250
 20
1305.216936
 42
0.040930
  0
VERTEX
  8
0
 10
438.385448
 20
1306.068924
 42
0.144823
  0
VERTEX
  8
0
 10
438.000000
 20
1306.500000
 42
-0.159713
  0
VERTEX
  8
0
 10
437.613307
 20
1306.958660
 42
-0.035556
  0
VERTEX
  8
0
 10
437.293750
 20
1307.947275
 42
-0.033489
  0
VERTEX
  8
0
 10
437.073414
 20
1309.196361
 42
-0.026918
  0
VERTEX
  8
0
 10
437.000000
 20
1310.559017
 42
0.024443
  0
VERTEX
  8
0
 10
436.935498
 20
1311.877676
 42
0.038897
  0
VERTEX
  8
0
 10
436.738388
 20
1312.989211
 42
0.045959
  0
VERTEX
  8
0
 10
436.453834
 20
1313.780730
 42
0.291300
  0
VERTEX
  8
0
 10
436.109406
 20
1314.000000
 42
-0.259088
  0
VERTEX
  8
0
 10
435.726897
 20
1314.212469
 42
-0.037981
  0
VERTEX
  8
0
 10
435.301411
 20
1315.028125
 42
-0.034922
  0
VERTEX
  8
0
 10
434.907606
 20
1316.159078
 42
-0.023222
  0
VERTEX
  8
0
 10
434.609406
 20
1317.500000
 42
-0.000012
  0
VERTEX
  8
0
 10
434.331913
 20
1319.093942
 42
-0.000007
  0
VERTEX
  8
0
 10
433.999682
 20
1321.002723
 42
-0.000007
  0
VERTEX
  8
0
 10
433.667351
 20
1322.912384
 42
-0.000012
  0
VERTEX
  8
0
 10
433.389512
 20
1324.509268
 42
0.020254
  0
VERTEX
  8
0
 10
433.090575
 20
1325.893153
 42
0.025189
  0
VERTEX
  8
0
 10
432.697061
 20
1327.149178
 42
0.024812
  0
VERTEX
  8
0
 10
432.271355
 20
1328.146058
 42
0.141945
  0
VERTEX
  8
0
 10
431.889512
 20
1328.568285
 42
-0.156404
  0
VERTEX
  8
0
 10
431.545813
 20
1328.970649
 42
-0.036797
  0
VERTEX
  8
0
 10
431.261294
 20
1329.820459
 42
-0.034403
  0
VERTEX
  8
0
 10
431.065347
 20
1330.892817
 42
-0.027995
  0
VERTEX
  8
0
 10
431.000000
 20
1332.059017
 42
0.032276
  0
VERTEX
  8
0
 10
430.927200
 20
1333.185620
 42
0.049716
  0
VERTEX
  8
0
 10
430.706250
 20
1334.136086
 42
0.064068
  0
VERTEX
  8
0
 10
430.384097
 20
1334.793368
 42
0.251914
  0
VERTEX
  8
0
 10
430.000000
 20
1335.000000
 42
-0.295869
  0
VERTEX
  8
0
 10
429.612873
 20
1335.251055
 42
-0.043820
  0
VERTEX
  8
0
 10
429.293750
 20
1336.175000
 42
-0.037669
  0
VERTEX
  8
0
 10
429.072390
 20
1337.467056
 42
-0.023598
  0
VERTEX
  8
0
 10
429.000000
 20
1339.000000
 42
0.023598
  0
VERTEX
  8
0
 10
428.927610
 20
1340.532944
 42
0.037669
  0
VERTEX
  8
0
 10
428.706250
 20
1341.825000
 42
0.043820
  0
VERTEX
  8
0
 10
428.387127
 20
1342.748945
 42
0.295869
  0
VERTEX
  8
0
 10
428.000000
 20
1343.000000
 42
-0.295869
  0
VERTEX
  8
0
 10
427.612873
 20
1343.251055
 42
-0.043820
  0
VERTEX
  8
0
 10
427.293750
 20
1344.175000
 42
-0.037669
  0
VERTEX
  8
0
 10
427.072390
 20
1345.467056
 42
-0.023598
  0
VERTEX
  8
0
 10
427.000000
 20
1347.000000
 42
0.023598
  0
VERTEX
  8
0
 10
426.927610
 20
1348.532944
 42
0.037669
  0
VERTEX
  8
0
 10
426.706250
 20
1349.825000
 42
0.043820
  0
VERTEX
  8
0
 10
426.387127
 20
1350.748945
 42
0.295869
  0
VERTEX
  8
0
 10
426.000000
 20
1351.000000
 42
-0.275259
  0
VERTEX
  8
0
 10
425.614478
 20
1351.229636
 42
-0.053437
  0
VERTEX
  8
0
 10
425.293750
 20
1352.010789
 42
-0.043243
  0
VERTEX
  8
0
 10
425.072564
 20
1353.122516
 42
-0.027497
  0
VERTEX
  8
0
 10
425.000000
 20
1354.440983
 42
0.026918
  0
VERTEX
  8
0
 10
424.926586
 20
1355.803639
 42
0.033489
  0
VERTEX
  8
0
 10
424.706250
 20
1357.052725
 42
0.035556
  0
VERTEX
  8
0
 10
424.386693
 20
1358.041340
 42
0.159713
  0
VERTEX
  8
0
 10
424.000000
 20
1358.500000
 42
-0.159713
  0
VERTEX
  8
0
 10
423.613307
 20
1358.958660
 42
-0.035556
  0
VERTEX
  8
0
 10
423.293750
 20
1359.947275
 42
-0.033489
  0
VERTEX
  8
0
 10
423.073414
 20
1361.196361
 42
-0.026918
  0
VERTEX
  8
0
 10
423.000000
 20
1362.559017
 42
0.027497
  0
VERTEX
  8
0
 10
422.927436
 20
1363.877484
 42
0.043243
  0
VERTEX
  8
0
 10
422.706250
 20
1364.989211
 42
0.053437
  0
VERTEX
  8
0
 10
422.385522
 20
1365.770364
 42
0.275259
  0
VERTEX
  8
0
 10
422.000000
 20
1366.000000
 42
-0.255639
  0
VERTEX
  8
0
 10
421.615700
 20
1366.210222
 42
-0.062402
  0
VERTEX
  8
0
 10
421.293750
 20
1366.885236
 42
-0.048668
  0
VERTEX
  8
0
 10
421.072759
 20
1367.859110
 42
-0.031481
  0
VERTEX
  8
0
 10
421.000000
 20
1369.013569
 42
0.025537
  0
VERTEX
  8
0
 10
420.934526
 20
1370.294675
 42
0.020909
  0
VERTEX
  8
0
 10
420.737797
 20
1371.651978
 42
0.021401
  0
VERTEX
  8
0
 10
420.450549
 20
1372.886858
 42
0.050914
  0
VERTEX
  8
0
 10
420.107392
 20
1373.763569
 42
-0.042952
  0
VERTEX
  8
0
 10
419.670843
 20
1374.828708
 42
-0.006437
  0
VERTEX
  8
0
 10
419.008531
 20
1377.046173
 42
-0.007193
  0
VERTEX
  8
0
 10
418.296043
 20
1379.692644
 42
-0.006151
  0
VERTEX
  8
0
 10
417.620037
 20
1382.500000
 42
0.004525
  0
VERTEX
  8
0
 10
416.855619
 20
1385.720492
 42
0.002490
  0
VERTEX
  8
0
 10
415.865259
 20
1389.646875
 42
0.002482
  0
VERTEX
  8
0
 10
414.820936
 20
1393.620153
 42
0.003975
  0
VERTEX
  8
0
 10
413.885759
 20
1397.000000
 42
-0.007540
  0
VERTEX
  8
0
 10
412.990612
 20
1400.327275
 42
-0.005149
  0
VERTEX
  8
0
 10
412.069680
 20
1404.132812
 42
-0.005190
  0
VERTEX
  8
0
 10
411.257486
 20
1407.820998
 42
-0.010433
  0
VERTEX
  8
0
 10
410.707809
 20
1410.750000
 42
0.012186
  0
VERTEX
  8
0
 10
410.249510
 20
1413.145733
 42
0.019451
  0
VERTEX
  8
0
 10
409.729234
 20
1415.164062
 42
0.014196
  0
VERTEX
  8
0
 10
409.208389
 20
1416.738029
 42
0.315603
  0
VERTEX
  8
0
 10
408.834695
 20
1417.000000
 42
-0.299749
  0
VERTEX
  8
0
 10
408.511274
 20
1417.213031
 42
-0.042003
  0
VERTEX
  8
0
 10
408.245192
 20
1418.010789
 42
-0.036627
  0
VERTEX
  8
0
 10
408.060399
 20
1419.122233
 42
-0.022888
  0
VERTEX
  8
0
 10
408.000000
 20
1420.440983
 42
0.026918
  0
VERTEX
  8
0
 10
407.926586
 20
1421.803639
 42
0.033489
  0
VERTEX
  8
0
 10
407.706250
 20
1423.052725
 42
0.035556
  0
VERTEX
  8
0
 10
407.386693
 20
1424.041340
 42
0.159713
  0
VERTEX
  8
0
 10
407.000000
 20
1424.500000
 42
-0.159713
  0
VERTEX
  8
0
 10
406.613307
 20
1424.958660
 42
-0.035556
  0
VERTEX
  8
0
 10
406.293750
 20
1425.947275
 42
-0.033489
  0
VERTEX
  8
0
 10
406.073414
 20
1427.196361
 42
-0.026918
  0
VERTEX
  8
0
 10
406.000000
 20
1428.559017
 42
0.024443
  0
VERTEX
  8
0
 10
405.935498
 20
1429.877676
 42
0.038897
  0
VERTEX
  8
0
 10
405.738388
 20
1430.989211
 42
0.045959
  0
VERTEX
  8
0
 10
405.453834
 20
1431.780730
 42
0.291300
  0
VERTEX
  8
0
 10
405.109406
 20
1432.000000
 42
-0.259088
  0
VERTEX
  8
0
 10
404.726897
 20
1432.212469
 42
-0.037981
  0
VERTEX
  8
0
 10
404.301411
 20
1433.028125
 42
-0.034922
  0
VERTEX
  8
0
 10
403.907606
 20
1434.159078
 42
-0.023222
  0
VERTEX
  8
0
 10
403.609406
 20
1435.500000
 42
-0.000012
  0
VERTEX
  8
0
 10
403.331913
 20
1437.093942
 42
-0.000007
  0
VERTEX
  8
0
 10
402.999682
 20
1439.002723
 42
-0.000007
  0
VERTEX
  8
0
 10
402.667351
 20
1440.912384
 42
-0.000012
  0
VERTEX
  8
0
 10
402.389512
 20
1442.509268
 42
0.020254
  0
VERTEX
  8
0
 10
402.090575
 20
1443.893153
 42
0.025189
  0
VERTEX
  8
0
 10
401.697061
 20
1445.149178
 42
0.024812
  0
VERTEX
  8
0
 10
401.271355
 20
1446.146058
 42
0.141945
  0
VERTEX
  8
0
 10
400.889512
 20
1446.568285
 42
-0.167820
  0
VERTEX
  8
0
 10
400.544827
 20
1446.990470
 42
-0.032422
  0
VERTEX
  8
0
 10
400.261294
 20
1447.949998
 42
-0.031238
  0
VERTEX
  8
0
 10
400.065195
 20
1449.164850
 42
-0.024400
  0
VERTEX
  8
0
 10
400.000000
 20
1450.500000
 42
0.027380
  0
VERTEX
  8
0
 10
399.926564
 20
1451.840047
 42
0.033884
  0
VERTEX
  8
0
 10
399.706250
 20
1453.070061
 42
0.036095
  0
VERTEX
  8
0
 10
399.386560
 20
1454.044084
 42
0.158284
  0
VERTEX
  8
0
 10
399.000000
 20
1454.500000
 42
-0.159713
  0
VERTEX
  8
0
 10
398.613307
 20
1454.958660
 42
-0.035556
  0
VERTEX
  8
0
 10
398.293750
 20
1455.947275
 42
-0.033489
  0
VERTEX
  8
0
 10
398.073414
 20
1457.196361
 42
-0.026918
  0
VERTEX
  8
0
 10
398.000000
 20
1458.559017
 42
0.027497
  0
VERTEX
  8
0
 10
397.927436
 20
1459.877484
 42
0.043243
  0
VERTEX
  8
0
 10
397.706250
 20
1460.989211
 42
0.053437
  0
VERTEX
  8
0
 10
397.385522
 20
1461.770364
 42
0.275259
  0
VERTEX
  8
0
 10
397.000000
 20
1462.000000
 42
-0.277684
  0
VERTEX
  8
0
 10
396.614308
 20
1462.232098
 42
-0.052312
  0
VERTEX
  8
0
 10
396.293750
 20
1463.028125
 42
-0.042582
  0
VERTEX
  8
0
 10
396.072542
 20
1464.158889
 42
-0.027026
  0
VERTEX
  8
0
 10
396.000000
 20
1465.500000
 42
0.027026
  0
VERTEX
  8
0
 10
395.927458
 20
1466.841111
 42
0.042582
  0
VERTEX
  8
0
 10
395.706250
 20
1467.971875
 42
0.052312
  0
VERTEX
  8
0
 10
395.385692
 20
1468.767902
 42
0.277684
  0
VERTEX
  8
0
 10
395.000000
 20
1469.000000
 42
-0.293924
  0
VERTEX
  8
0
 10
394.613040
 20
1469.248983
 42
-0.044731
  0
VERTEX
  8
0
 10
394.293750
 20
1470.157664
 42
-0.038191
  0
VERTEX
  8
0
 10
394.072405
 20
1471.430680
 42
-0.023957
  0
VERTEX
  8
0
 10
394.000000
 20
1472.940983
 42
0.023552
  0
VERTEX
  8
0
 10
393.926750
 20
1474.495210
 42
0.030444
  0
VERTEX
  8
0
 10
393.706250
 20
1475.905850
 42
0.031293
  0
VERTEX
  8
0
 10
393.387806
 20
1477.019590
 42
0.170670
  0
VERTEX
  8
0
 10
393.000000
 20
1477.500000
 42
-0.158284
  0
VERTEX
  8
0
 10
392.613440
 20
1477.955916
 42
-0.036095
  0
VERTEX
  8
0
 10
392.293750
 20
1478.929939
 42
-0.033884
  0
VERTEX
  8
0
 10
392.073436
 20
1480.159953
 42
-0.027380
  0
VERTEX
  8
0
 10
392.000000
 20
1481.500000
 42
0.027380
  0
VERTEX
  8
0
 10
391.926564
 20
1482.840047
 42
0.033884
  0
VERTEX
  8
0
 10
391.706250
 20
1484.070061
 42
0.036095
  0
VERTEX
  8
0
 10
391.386560
 20
1485.044084
 42
0.158284
  0
VERTEX
  8
0
 10
391.000000
 20
1485.500000
 42
-0.170670
  0
VERTEX
  8
0
 10
390.612194
 20
1485.980410
 42
-0.031293
  0
VERTEX
  8
0
 10
390.293750
 20
1487.094150
 42
-0.030444
  0
VERTEX
  8
0
 10
390.073250
 20
1488.504790
 42
-0.023552
  0
VERTEX
  8
0
 10
390.000000
 20
1490.059017
 42
0.023957
  0
VERTEX
  8
0
 10
389.927595
 20
1491.569320
 42
0.038191
  0
VERTEX
  8
0
 10
389.706250
 20
1492.842336
 42
0.044731
  0
VERTEX
  8
0
 10
389.386960
 20
1493.751017
 42
0.293924
  0
VERTEX
  8
0
 10
389.000000
 20
1494.000000
 42
-0.295869
  0
VERTEX
  8
0
 10
388.612873
 20
1494.251055
 42
-0.043820
  0
VERTEX
  8
0
 10
388.293750
 20
1495.175000
 42
-0.037669
  0
VERTEX
  8
0
 10
388.072390
 20
1496.467056
 42
-0.023598
  0
VERTEX
  8
0
 10
388.000000
 20
1498.000000
 42
0.023598
  0
VERTEX
  8
0
 10
387.927610
 20
1499.532944
 42
0.037669
  0
VERTEX
  8
0
 10
387.706250
 20
1500.825000
 42
0.043820
  0
VERTEX
  8
0
 10
387.387127
 20
1501.748945
 42
0.295869
  0
VERTEX
  8
0
 10
387.000000
 20
1502.000000
 42
-0.241532
  0
VERTEX
  8
0
 10
386.616422
 20
1502.196772
 42
-0.068632
  0
VERTEX
  8
0
 10
386.293750
 20
1502.807922
 42
-0.052675
  0
VERTEX
  8
0
 10
386.072921
 20
1503.696922
 42
-0.034569
  0
VERTEX
  8
0
 10
386.000000
 20
1504.750374
 42
0.044235
  0
VERTEX
  8
0
 10
385.720870
 20
1507.899311
 42
0.005970
  0
VERTEX
  8
0
 10
384.474244
 20
1514.424903
 42
0.005777
  0
VERTEX
  8
0
 10
382.598483
 20
1523.129069
 42
0.002608
  0
VERTEX
  8
0
 10
379.947735
 20
1534.500000
 42
-0.003533
  0
VERTEX
  8
0
 10
379.482402
 20
1536.512976
 42
-0.001274
  0
VERTEX
  8
0
 10
378.848339
 20
1539.381250
 42
-0.001264
  0
VERTEX
  8
0
 10
378.169718
 20
1542.526774
 42
-0.001502
  0
VERTEX
  8
0
 10
377.545459
 20
1545.500000
 42
0.000045
  0
VERTEX
  8
0
 10
376.945392
 20
1548.399999
 42
0.000044
  0
VERTEX
  8
0
 10
376.339613
 20
1551.325000
 42
0.000043
  0
VERTEX
  8
0
 10
375.806943
 20
1553.894755
 42
0.000163
  0
VERTEX
  8
0
 10
375.473512
 20
1555.500000
 42
0.010608
  0
VERTEX
  8
0
 10
375.175302
 20
1556.794943
 42
0.007976
  0
VERTEX
  8
0
 10
374.794557
 20
1558.206250
 42
0.008072
  0
VERTEX
  8
0
 10
374.393675
 20
1559.522657
 42
0.018342
  0
VERTEX
  8
0
 10
374.038658
 20
1560.500000
 42
-0.014156
  0
VERTEX
  8
0
 10
373.642163
 20
1561.563699
 42
-0.004050
  0
VERTEX
  8
0
 10
373.087797
 20
1563.234375
 42
-0.004073
  0
VERTEX
  8
0
 10
372.492643
 20
1565.130471
 42
-0.004315
  0
VERTEX
  8
0
 10
371.940102
 20
1567.000000
 42
0.010408
  0
VERTEX
  8
0
 10
371.386470
 20
1568.792553
 42
0.012412
  0
VERTEX
  8
0
 10
370.787876
 20
1570.457187
 42
0.011221
  0
VERTEX
  8
0
 10
370.219944
 20
1571.829220
 42
0.075357
  0
VERTEX
  8
0
 10
369.826120
 20
1572.450000
 42
-0.085284
  0
VERTEX
  8
0
 10
369.508294
 20
1572.973535
 42
-0.031643
  0
VERTEX
  8
0
 10
369.242673
 20
1573.796563
 42
-0.030245
  0
VERTEX
  8
0
 10
369.060888
 20
1574.749760
 42
-0.032005
  0
VERTEX
  8
0
 10
369.000000
 20
1575.700000
 42
0.041555
  0
VERTEX
  8
0
 10
368.926688
 20
1576.580586
 42
0.061077
  0
VERTEX
  8
0
 10
368.706250
 20
1577.324375
 42
0.080277
  0
VERTEX
  8
0
 10
368.382470
 20
1577.829143
 42
0.213207
  0
VERTEX
  8
0
 10
368.000000
 20
1578.000000
 42
-0.188692
  0
VERTEX
  8
0
 10
367.618168
 20
1578.149417
 42
-0.088982
  0
VERTEX
  8
0
 10
367.293750
 20
1578.578565
 42
-0.068799
  0
VERTEX
  8
0
 10
367.073739
 20
1579.215843
 42
-0.048799
  0
VERTEX
  8
0
 10
367.000000
 20
1579.969584
 42
0.066235
  0
VERTEX
  8
0
 10
366.867537
 20
1580.965141
 42
0.020615
  0
VERTEX
  8
0
 10
366.412500
 20
1582.406597
 42
0.020208
  0
VERTEX
  8
0
 10
365.765531
 20
1583.992166
 42
0.020986
  0
VERTEX
  8
0
 10
365.000000
 20
1585.500000
 42
-0.020986
  0
VERTEX
  8
0
 10
364.234469
 20
1587.007834
 42
-0.020208
  0
VERTEX
  8
0
 10
363.587500
 20
1588.593403
 42
-0.020615
  0
VERTEX
  8
0
 10
363.132463
 20
1590.034859
 42
-0.066235
  0
VERTEX
  8
0
 10
363.000000
 20
1591.030416
 42
0.048799
  0
VERTEX
  8
0
 10
362.926261
 20
1591.784157
 42
0.068799
  0
VERTEX
  8
0
 10
362.706250
 20
1592.421435
 42
0.088982
  0
VERTEX
  8
0
 10
362.381832
 20
1592.850583
 42
0.188692
  0
VERTEX
  8
0
 10
362.000000
 20
1593.000000
 42
-0.191087
  0
VERTEX
  8
0
 10
361.618118
 20
1593.151477
 42
-0.088204
  0
VERTEX
  8
0
 10
361.293750
 20
1593.587500
 42
-0.068025
  0
VERTEX
  8
0
 10
361.073693
 20
1594.234582
 42
-0.048028
  0
VERTEX
  8
0
 10
361.000000
 20
1595.000000
 42
0.048028
  0
VERTEX
  8
0
 10
360.926307
 20
1595.765418
 42
0.068025
  0
VERTEX
  8
0
 10
360.706250
 20
1596.412500
 42
0.088204
  0
VERTEX
  8
0
 10
360.381882
 20
1596.848523
 42
0.191087
  0
VERTEX
  8
0
 10
360.000000
 20
1597.000000
 42
-0.184457
  0
VERTEX
  8
0
 10
359.618250
 20
1597.145793
 42
-0.090315
  0
VERTEX
  8
0
 10
359.293750
 20
1597.563021
 42
-0.070178
  0
VERTEX
  8
0
 10
359.073823
 20
1598.183242
 42
-0.050201
  0
VERTEX
  8
0
 10
359.000000
 20
1598.916667
 42
0.036404
  0
VERTEX
  8
0
 10
358.944732
 20
1599.674758
 42
0.044078
  0
VERTEX
  8
0
 10
358.779688
 20
1600.368229
 42
0.049842
  0
VERTEX
  8
0
 10
358.538485
 20
1600.906393
 42
0.159230
  0
VERTEX
  8
0
 10
358.250000
 20
1601.166667
 42
-0.133826
  0
VERTEX
  8
0
 10
357.846736
 20
1601.495646
 42
-0.009134
  0
VERTEX
  8
0
 10
357.002500
 20
1602.723958
 42
-0.012543
  0
VERTEX
  8
0
 10
356.047052
 20
1604.251961
 42
-0.009063
  0
VERTEX
  8
0
 10
355.056382
 20
1606.000000
 42
0.008176
  0
VERTEX
  8
0
 10
353.820643
 20
1608.189507
 42
0.003299
  0
VERTEX
  8
0
 10
352.065577
 20
1611.138937
 42
0.003263
  0
VERTEX
  8
0
 10
350.134135
 20
1614.289929
 42
0.004132
  0
VERTEX
  8
0
 10
348.306382
 20
1617.175106
 42
-0.004288
  0
VERTEX
  8
0
 10
346.656120
 20
1619.781899
 42
-0.006435
  0
VERTEX
  8
0
 10
345.265000
 20
1622.087294
 42
-0.002955
  0
VERTEX
  8
0
 10
344.121582
 20
1624.065231
 42
-0.130290
  0
VERTEX
  8
0
 10
344.000000
 20
1624.523896
 42
0.167684
  0
VERTEX
  8
0
 10
343.864745
 20
1624.915859
 42
0.011866
  0
VERTEX
  8
0
 10
343.118750
 20
1625.822896
 42
0.015705
  0
VERTEX
  8
0
 10
342.149238
 20
1626.877422
 42
0.011152
  0
VERTEX
  8
0
 10
341.000000
 20
1628.000000
 42
-0.017541
  0
VERTEX
  8
0
 10
339.851257
 20
1629.151134
 42
-0.022430
  0
VERTEX
  8
0
 10
338.881250
 20
1630.292472
 42
-0.021134
  0
VERTEX
  8
0
 10
338.169771
 20
1631.294752
 42
-0.144761
  0
VERTEX
  8
0
 10
338.000000
 20
1631.868847
 42
0.199402
  0
VERTEX
  8
0
 10
337.144719
 20
1633.928193
 42
0.001125
  0
VERTEX
  8
0
 10
321.871275
 20
1649.075898
 42
0.001139
  0
VERTEX
  8
0
 10
306.538236
 20
1664.145570
 42
0.196070
  0
VERTEX
  8
0
 10
304.443115
 20
1665.000000
 42
-0.159011
  0
VERTEX
  8
0
 10
304.129770
 20
1665.102235
 42
-0.011627
  0
VERTEX
  8
0
 10
303.400927
 20
1665.660938
 42
-0.015302
  0
VERTEX
  8
0
 10
302.551270
 20
1666.388102
 42
-0.010960
  0
VERTEX
  8
0
 10
301.645148
 20
1667.250000
 42
0.011970
  0
VERTEX
  8
0
 10
300.547489
 20
1668.289872
 42
0.005747
  0
VERTEX
  8
0
 10
299.092657
 20
1669.573437
 42
0.005694
  0
VERTEX
  8
0
 10
297.543222
 20
1670.878655
 42
0.008103
  0
VERTEX
  8
0
 10
296.134971
 20
1672.000000
 42
-0.003273
  0
VERTEX
  8
0
 10
290.702307
 20
1676.240766
 42
-0.004836
  0
VERTEX
  8
0
 10
285.996875
 20
1680.038254
 42
-0.005484
  0
VERTEX
  8
0
 10
282.143927
 20
1683.281309
 42
-0.013805
  0
VERTEX
  8
0
 10
279.430664
 20
1685.750000
 42
0.020481
  0
VERTEX
  8
0
 10
278.458205
 20
1686.611359
 42
0.024335
  0
VERTEX
  8
0
 10
277.471110
 20
1687.339062
 42
0.024205
  0
VERTEX
  8
0
 10
276.593384
 20
1687.863062
 42
0.123067
  0
VERTEX
  8
0
 10
276.045455
 20
1688.000000
 42
-0.094588
  0
VERTEX
  8
0
 10
275.646398
 20
1688.076174
 42
-0.096788
  0
VERTEX
  8
0
 10
275.307102
 20
1688.293750
 42
-0.098920
  0
VERTEX
  8
0
 10
275.079978
 20
1688.618426
 42
-0.103674
  0
VERTEX
  8
0
 10
275.000000
 20
1689.000000
 42
0.101724
  0
VERTEX
  8
0
 10
274.921552
 20
1689.381600
 42
0.098538
  0
VERTEX
  8
0
 10
274.698520
 20
1689.706250
 42
0.097290
  0
VERTEX
  8
0
 10
274.365406
 20
1689.923755
 42
0.096416
  0
VERTEX
  8
0
 10
273.973684
 20
1690.000000
 42
-0.161137
  0
VERTEX
  8
0
 10
273.368579
 20
1690.200208
 42
-0.011084
  0
VERTEX
  8
0
 10
271.926974
 20
1691.321875
 42
-0.014901
  0
VERTEX
  8
0
 10
270.245916
 20
1692.776148
 42
-0.010602
  0
VERTEX
  8
0
 10
268.447368
 20
1694.500000
 42
0.009722
  0
VERTEX
  8
0
 10
266.655020
 20
1696.223972
 42
0.013859
  0
VERTEX
  8
0
 10
264.993015
 20
1697.678125
 42
0.009764
  0
VERTEX
  8
0
 10
263.568791
 20
1698.810078
 42
0.164466
  0
VERTEX
  8
0
 10
263.007018
 20
1699.000000
 42
-0.150748
  0
VERTEX
  8
0
 10
262.472765
 20
1699.164820
 42
-0.015062
  0
VERTEX
  8
0
 10
261.378416
 20
1699.960393
 42
-0.017864
  0
VERTEX
  8
0
 10
260.109472
 20
1701.017233
 42
-0.013276
  0
VERTEX
  8
0
 10
258.783333
 20
1702.269425
 42
0.011903
  0
VERTEX
  8
0
 10
257.238143
 20
1703.736498
 42
0.006619
  0
VERTEX
  8
0
 10
255.289479
 20
1705.454000
 42
0.006598
  0
VERTEX
  8
0
 10
253.270139
 20
1707.141088
 42
0.010604
  0
VERTEX
  8
0
 10
251.500000
 20
1708.519425
 42
-0.012729
  0
VERTEX
  8
0
 10
249.703043
 20
1709.930954
 42
-0.007213
  0
VERTEX
  8
0
 10
247.596468
 20
1711.726018
 42
-0.007197
  0
VERTEX
  8
0
 10
245.524093
 20
1713.597658
 42
-0.011756
  0
VERTEX
  8
0
 10
243.828401
 20
1715.250000
 42
0.013613
  0
VERTEX
  8
0
 10
242.343485
 20
1716.686244
 42
0.018308
  0
VERTEX
  8
0
 10
240.918553
 20
1717.898438
 42
0.015563
  0
VERTEX
  8
0
 10
239.687576
 20
1718.809542
 42
0.152680
  0
VERTEX
  8
0
 10
239.078401
 20
1719.000000
 42
-0.091591
  0
VERTEX
  8
0
 10
238.666715
 20
1719.076051
 42
-0.095880
  0
VERTEX
  8
0
 10
238.316780
 20
1719.293750
 42
-0.099487
  0
VERTEX
  8
0
 10
238.082610
 20
1719.618468
 42
-0.107021
  0
VERTEX
  8
0
 10
238.000000
 20
1720.000000
 42
0.101258
  0
VERTEX
  8
0
 10
237.921918
 20
1720.381607
 42
0.098440
  0
VERTEX
  8
0
 10
237.699864
 20
1720.706250
 42
0.097407
  0
VERTEX
  8
0
 10
237.368229
 20
1720.923738
 42
0.096862
  0
VERTEX
  8
0
 10
236.978261
 20
1721.000000
 42
-0.168548
  0
VERTEX
  8
0
 10
236.357637
 20
1721.215327
 42
-0.008174
  0
VERTEX
  8
0
 10
234.641033
 20
1722.615625
 42
-0.012547
  0
VERTEX
  8
0
 10
232.637994
 20
1724.392738
 42
-0.008651
  0
VERTEX
  8
0
 10
230.456522
 20
1726.500000
 42
0.006326
  0
VERTEX
  8
0
 10
228.294815
 20
1728.607685
 42
0.009525
  0
VERTEX
  8
0
 10
226.353087
 20
1730.384375
 42
0.004911
  0
VERTEX
  8
0
 10
224.681348
 20
1731.827605
 42
0.177414
  0
VERTEX
  8
0
 10
224.210788
 20
1732.000000
 42
-0.164645
  0
VERTEX
  8
0
 10
223.748221
 20
1732.156562
 42
-0.006869
  0
VERTEX
  8
0
 10
222.359967
 20
1733.248437
 42
-0.011252
  0
VERTEX
  8
0
 10
220.738621
 20
1734.621584
 42
-0.007693
  0
VERTEX
  8
0
 10
218.957325
 20
1736.250000
 42
0.007080
  0
VERTEX
  8
0
 10
216.982035
 20
1738.060212
 42
0.005412
  0
VERTEX
  8
0
 10
214.772323
 20
1739.985938
 42
0.005474
  0
VERTEX
  8
0
 10
212.663285
 20
1741.744629
 42
0.012842
  0
VERTEX
  8
0
 10
211.040511
 20
1743.000000
 42
-0.015154
  0
VERTEX
  8
0
 10
209.432128
 20
1744.256167
 42
-0.006621
  0
VERTEX
  8
0
 10
207.372834
 20
1746.014062
 42
-0.006546
  0
VERTEX
  8
0
 10
205.233628
 20
1747.939822
 42
-0.008689
  0
VERTEX
  8
0
 10
203.342029
 20
1749.750000
 42
0.009821
  0
VERTEX
  8
0
 10
201.632891
 20
1751.378173
 42
0.013960
  0
VERTEX
  8
0
 10
200.046583
 20
1752.751563
 42
0.009923
  0
VERTEX
  8
0
 10
198.687566
 20
1753.819034
 42
0.162913
  0
VERTEX
  8
0
 10
198.146898
 20
1754.000000
 42
-0.155319
  0
VERTEX
  8
0
 10
197.612622
 20
1754.170070
 42
-0.011349
  0
VERTEX
  8
0
 10
196.359046
 20
1755.101562
 42
-0.014980
  0
VERTEX
  8
0
 10
194.895703
 20
1756.313514
 42
-0.010755
  0
VERTEX
  8
0
 10
193.332476
 20
1757.750000
 42
0.006427
  0
VERTEX
  8
0
 10
191.514337
 20
1759.449990
 42
0.003594
  0
VERTEX
  8
0
 10
189.261284
 20
1761.473548
 42
0.003585
  0
VERTEX
  8
0
 10
186.954034
 20
1763.486692
 42
0.005820
  0
VERTEX
  8
0
 10
184.961894
 20
1765.159950
 42
-0.004921
  0
VERTEX
  8
0
 10
182.894976
 20
1766.889687
 42
-0.002540
  0
VERTEX
  8
0
 10
180.341931
 20
1769.091849
 42
-0.002524
  0
VERTEX
  8
0
 10
177.739195
 20
1771.383257
 42
-0.003822
  0
VERTEX
  8
0
 10
175.500000
 20
1773.405631
 42
0.006678
  0
VERTEX
  8
0
 10
173.531601
 20
1775.163120
 42
0.009894
  0
VERTEX
  8
0
 10
171.756168
 20
1776.645572
 42
0.005513
  0
VERTEX
  8
0
 10
170.233929
 20
1777.838978
 42
0.163407
  0
VERTEX
  8
0
 10
169.776316
 20
1777.995681
 42
-0.170649
  0
VERTEX
  8
0
 10
169.330373
 20
1778.155442
 42
-0.006814
  0
VERTEX
  8
0
 10
167.986308
 20
1779.277637
 42
-0.011324
  0
VERTEX
  8
0
 10
166.419623
 20
1780.685206
 42
-0.007700
  0
VERTEX
  8
0
 10
164.698911
 20
1782.353721
 42
0.007108
  0
VERTEX
  8
0
 10
162.916383
 20
1784.086277
 42
0.008106
  0
VERTEX
  8
0
 10
161.160685
 20
1785.691818
 42
0.007444
  0
VERTEX
  8
0
 10
159.630568
 20
1787.006079
 42
0.044555
  0
VERTEX
  8
0
 10
158.767622
 20
1787.603721
 42
-0.044093
  0
VERTEX
  8
0
 10
157.832355
 20
1788.250172
 42
-0.004451
  0
VERTEX
  8
0
 10
155.763481
 20
1789.999218
 42
-0.005552
  0
VERTEX
  8
0
 10
153.335265
 20
1792.136804
 42
-0.004394
  0
VERTEX
  8
0
 10
150.756068
 20
1794.500000
 42
0.003886
  0
VERTEX
  8
0
 10
147.980903
 20
1797.047940
 42
0.003136
  0
VERTEX
  8
0
 10
144.961613
 20
1799.742865
 42
0.003169
  0
VERTEX
  8
0
 10
142.142879
 20
1802.195629
 42
0.008143
  0
VERTEX
  8
0
 10
140.065224
 20
1803.922518
 42
-0.014776
  0
VERTEX
  8
0
 10
137.764423
 20
1805.887056
 42
-0.003233
  0
VERTEX
  8
0
 10
133.929152
 20
1809.408320
 42
-0.003364
  0
VERTEX
  8
0
 10
129.545351
 20
1813.541116
 42
-0.003223
  0
VERTEX
  8
0
 10
125.154183
 20
1817.791501
 42
0.003307
  0
VERTEX
  8
0
 10
120.745717
 20
1822.057191
 42
0.003373
  0
VERTEX
  8
0
 10
116.310020
 20
1826.235928
 42
0.003275
  0
VERTEX
  8
0
 10
112.408197
 20
1829.814994
 42
0.013995
  0
VERTEX
  8
0
 10
110.007586
 20
1831.868983
 42
-0.009825
  0
VERTEX
  8
0
 10
107.950342
 20
1833.599679
 42
-0.005151
  0
VERTEX
  8
0
 10
105.456349
 20
1835.828701
 42
-0.005121
  0
VERTEX
  8
0
 10
102.946025
 20
1838.166838
 42
-0.007832
  0
VERTEX
  8
0
 10
100.822510
 20
1840.250000
 42
0.011518
  0
VERTEX
  8
0
 10
98.940201
 20
1842.069508
 42
0.015986
  0
VERTEX
  8
0
 10
97.166476
 20
1843.604687
 42
0.012454
  0
VERTEX
  8
0
 10
95.642669
 20
1844.778934
 42
0.159238
  0
VERTEX
  8
0
 10
94.966134
 20
1845.000000
 42
-0.132764
  0
VERTEX
  8
0
 10
94.355334
 20
1845.165094
 42
-0.024298
  0
VERTEX
  8
0
 10
93.365468
 20
1845.808757
 42
-0.024608
  0
VERTEX
  8
0
 10
92.251578
 20
1846.699147
 42
-0.020182
  0
VERTEX
  8
0
 10
91.151210
 20
1847.753216
 42
0.020915
  0
VERTEX
  8
0
 10
88.684904
 20
1850.108831
 42
0.009869
  0
VERTEX
  8
0
 10
85.319448
 20
1852.948612
 42
0.009804
  0
VERTEX
  8
0
 10
81.701971
 20
1855.765093
 42
0.014462
  0
VERTEX
  8
0
 10
78.410436
 20
1858.080392
 42
-0.016476
  0
VERTEX
  8
0
 10
77.266495
 20
1858.891956
 42
-0.006728
  0
VERTEX
  8
0
 10
75.764357
 20
1860.066079
 42
-0.006648
  0
VERTEX
  8
0
 10
74.182931
 20
1861.371800
 42
-0.008441
  0
VERTEX
  8
0
 10
72.759814
 20
1862.620904
 42
0.009569
  0
VERTEX
  8
0
 10
71.258400
 20
1863.932747
 42
0.005756
  0
VERTEX
  8
0
 10
69.430063
 20
1865.433963
 42
0.005763
  0
VERTEX
  8
0
 10
67.577173
 20
1866.885186
 42
0.010019
  0
VERTEX
  8
0
 10
66.002104
 20
1868.040512
 42
-0.018458
  0
VERTEX
  8
0
 10
63.242138
 20
1870.137507
 42
-0.027150
  0
VERTEX
  8
0
 10
60.995369
 20
1872.192863
 42
-0.028015
  0
VERTEX
  8
0
 10
59.403978
 20
1874.008916
 42
-0.167425
  0
VERTEX
  8
0
 10
59.000000
 20
1875.181542
 42
0.199327
  0
VERTEX
  8
0
 10
58.202867
 20
1877.101658
 42
0.002444
  0
VERTEX
  8
0
 10
48.471212
 20
1886.707951
 42
0.002496
  0
VERTEX
  8
0
 10
38.658003
 20
1896.205186
 42
0.193369
  0
VERTEX
  8
0
 10
36.679671
 20
1897.000000
 42
-0.050340
  0
VERTEX
  8
0
 10
36.036940
 20
1897.064874
 42
-0.070312
  0
VERTEX
  8
0
 10
35.493403
 20
1897.258112
 42
-0.090441
  0
VERTEX
  8
0
 10
35.127798
 20
1897.543250
 42
-0.184046
  0
VERTEX
  8
0
 10
35.000000
 20
1897.878680
 42
0.208074
  0
VERTEX
  8
0
 10
34.819057
 20
1898.294660
 42
0.033695
  0
VERTEX
  8
0
 10
34.118750
 20
1898.864273
 42
0.032352
  0
VERTEX
  8
0
 10
33.148944
 20
1899.459931
 42
0.023358
  0
VERTEX
  8
0
 10
32.000000
 20
1900.000000
 42
-0.023358
  0
VERTEX
  8
0
 10
30.851056
 20
1900.540069
 42
-0.032352
  0
VERTEX
  8
0
 10
29.881250
 20
1901.135727
 42
-0.033695
  0
VERTEX
  8
0
 10
29.180943
 20
1901.705340
 42
-0.208074
  0
VERTEX
  8
0
 10
29.000000
 20
1902.121320
 42
0.211547
  0
VERTEX
  8
0
 10
28.851170
 20
1902.457343
 42
0.080913
  0
VERTEX
  8
0
 10
28.412500
 20
1902.741888
 42
0.061586
  0
VERTEX
  8
0
 10
27.765706
 20
1902.935560
 42
0.042005
  0
VERTEX
  8
0
 10
27.000000
 20
1903.000000
 42
-0.048028
  0
VERTEX
  8
0
 10
26.234582
 20
1903.073693
 42
-0.068025
  0
VERTEX
  8
0
 10
25.587500
 20
1903.293750
 42
-0.088204
  0
VERTEX
  8
0
 10
25.151477
 20
1903.618118
 42
-0.191087
  0
VERTEX
  8
0
 10
25.000000
 20
1904.000000
 42
0.226478
  0
VERTEX
  8
0
 10
24.817169
 20
1904.382936
 42
0.074992
  0
VERTEX
  8
0
 10
24.265625
 20
1904.706250
 42
0.057076
  0
VERTEX
  8
0
 10
23.457356
 20
1904.926884
 42
0.038131
  0
VERTEX
  8
0
 10
22.500000
 20
1905.000000
 42
-0.038131
  0
VERTEX
  8
0
 10
21.542644
 20
1905.073116
 42
-0.057076
  0
VERTEX
  8
0
 10
20.734375
 20
1905.293750
 42
-0.074992
  0
VERTEX
  8
0
 10
20.182831
 20
1905.617064
 42
-0.226478
  0
VERTEX
  8
0
 10
20.000000
 20
1906.000000
 42
0.254951
  0
VERTEX
  8
0
 10
19.790443
 20
1906.384262
 42
0.062710
  0
VERTEX
  8
0
 10
19.118750
 20
1906.706250
 42
0.048861
  0
VERTEX
  8
0
 10
18.149251
 20
1906.927234
 42
0.031626
  0
VERTEX
  8
0
 10
17.000000
 20
1907.000000
 42
-0.031626
  0
VERTEX
  8
0
 10
15.850749
 20
1907.072766
 42
-0.048861
  0
VERTEX
  8
0
 10
14.881250
 20
1907.293750
 42
-0.062710
  0
VERTEX
  8
0
 10
14.209557
 20
1907.615738
 42
-0.254951
  0
VERTEX
  8
0
 10
14.000000
 20
1908.000000
 42
0.339565
  0
VERTEX
  8
0
 10
13.696775
 20
1908.395008
 42
0.024068
  0
VERTEX
  8
0
 10
12.250000
 20
1908.708333
 42
0.025878
  0
VERTEX
  8
0
 10
10.316313
 20
1908.928566
 42
0.015416
  0
VERTEX
  8
0
 10
8.000000
 20
1909.000000
 42
-0.015416
  0
VERTEX
  8
0
 10
5.683687
 20
1909.071434
 42
-0.025878
  0
VERTEX
  8
0
 10
3.750000
 20
1909.291667
 42
-0.024068
  0
VERTEX
  8
0
 10
2.303225
 20
1909.604992
 42
-0.339565
  0
VERTEX
  8
0
 10
2.000000
 20
1910.000000
 42
0.099038
  0
VERTEX
  8
0
 10
1.923658
 20
1910.381638
 42
0.097945
  0
VERTEX
  8
0
 10
1.706250
 20
1910.706250
 42
0.097945
  0
VERTEX
  8
0
 10
1.381638
 20
1910.923658
 42
0.099038
  0
VERTEX
  8
0
 10
1.000000
 20
1911.000000
 42
0.413900
  0
VERTEX
  8
0
 10
0.501058
 20
1910.501593
 42
0.000002
  0
VERTEX
  8
0
 10
0.250266
 20
1675.425652
 42
0.000197
  0
VERTEX
  8
0
 10
0.057093
 20
1386.338018
 42
0.000069
  0
SEQEND
  0
POLYLINE
  8
0
 66
1
 70
1
  0
VERTEX
  8
0
 10
75.000000
 20
1753.000000
 42
0.222681
  0
VERTEX
  8
0
 10
75.179376
 20
1752.617207
 42
0.076538
  0
VERTEX
  8
0
 10
75.717039
 20
1752.293750
 42
0.058208
  0
VERTEX
  8
0
 10
76.506280
 20
1752.073170
 42
0.039081
  0
VERTEX
  8
0
 10
77.440983
 20
1752.000000
 42
-0.037634
  0
VERTEX
  8
0
 10
78.420660
 20
1751.926158
 42
-0.041396
  0
VERTEX
  8
0
 10
79.346475
 20
1751.706250
 42
-0.045439
  0
VERTEX
  8
0
 10
80.093337
 20
1751.384508
 42
-0.130646
  0
VERTEX
  8
0
 10
80.500000
 20
1751.000000
 42
0.111412
  0
VERTEX
  8
0
 10
80.876024
 20
1750.616444
 42
0.050262
  0
VERTEX
  8
0
 10
81.506650
 20
1750.293750
 42
0.046318
  0
VERTEX
  8
0
 10
82.270704
 20
1750.074077
 42
0.046881
  0
VERTEX
  8
0
 10
83.059017
 20
1750.000000
 42
-0.049547
  0
VERTEX
  8
0
 10
83.801778
 20
1749.926216
 42
-0.069539
  0
VERTEX
  8
0
 10
84.429836
 20
1749.706250
 42
-0.089706
  0
VERTEX
  8
0
 10
84.852535
 20
1749.381787
 42
-0.186414
  0
VERTEX
  8
0
 10
85.000000
 20
1749.000000
 42
0.124164
  0
VERTEX
  8
0
 10
85.096215
 20
1748.618522
 42
0.100671
  0
VERTEX
  8
0
 10
85.367188
 20
1748.293391
 42
0.090501
  0
VERTEX
  8
0
 10
85.772496
 20
1748.074685
 42
0.078495
  0
VERTEX
  8
0
 10
86.250000
 20
1747.998779
 42
-0.113170
  0
VERTEX
  8
0
 10
86.911510
 20
1747.846429
 42
-0.022469
  0
VERTEX
  8
0
 10
87.986315
 20
1747.263900
 42
-0.022734
  0
VERTEX
  8
0
 10
89.201467
 20
1746.455451
 42
-0.019441
  0
VERTEX
  8
0
 10
90.405539
 20
1745.498779
 42
0.012580
  0
VERTEX
  8
0
 10
91.576648
 20
1744.541797
 42
0.016637
  0
VERTEX
  8
0
 10
92.692284
 20
1743.734016
 42
0.014047
  0
VERTEX
  8
0
 10
93.649444
 20
1743.126800
 42
0.135122
  0
VERTEX
  8
0
 10
94.110085
 20
1743.000000
 42
-0.137912
  0
VERTEX
  8
0
 10
94.550573
 20
1742.876147
 42
-0.018519
  0
VERTEX
  8
0
 10
95.361070
 20
1742.339062
 42
-0.020240
  0
VERTEX
  8
0
 10
96.293147
 20
1741.611586
 42
-0.015773
  0
VERTEX
  8
0
 10
97.246751
 20
1740.750000
 42
0.013540
  0
VERTEX
  8
0
 10
98.371531
 20
1739.724596
 42
0.006816
  0
VERTEX
  8
0
 10
99.842558
 20
1738.489324
 42
0.006763
  0
VERTEX
  8
0
 10
101.398823
 20
1737.252948
 42
0.009967
  0
VERTEX
  8
0
 10
102.800870
 20
1736.213657
 42
-0.016280
  0
VERTEX
  8
0
 10
104.408230
 20
1734.990436
 42
-0.005334
  0
VERTEX
  8
0
 10
106.696554
 20
1733.087381
 42
-0.005307
  0
VERTEX
  8
0
 10
109.193450
 20
1730.919346
 42
-0.005974
  0
VERTEX
  8
0
 10
111.546045
 20
1728.781625
 42
0.004448
  0
VERTEX
  8
0
 10
113.824996
 20
1726.698084
 42
0.004693
  0
VERTEX
  8
0
 10
116.100658
 20
1724.692680
 42
0.004494
  0
VERTEX
  8
0
 10
118.093788
 20
1723.000281
 42
0.021113
  0
VERTEX
  8
0
 10
119.287381
 20
1722.087673
 42
-0.026368
  0
VERTEX
  8
0
 10
120.466609
 20
1721.166263
 42
-0.005710
  0
VERTEX
  8
0
 10
122.398616
 20
1719.446237
 42
-0.005941
  0
VERTEX
  8
0
 10
124.591163
 20
1717.400718
 42
-0.005651
  0
VERTEX
  8
0
 10
126.771739
 20
1715.269705
 42
0.008057
  0
VERTEX
  8
0
 10
128.857814
 20
1713.250578
 42
0.011797
  0
VERTEX
  8
0
 10
130.762689
 20
1711.547976
 42
0.007309
  0
VERTEX
  8
0
 10
132.396058
 20
1710.196666
 42
0.170771
  0
VERTEX
  8
0
 10
132.955084
 20
1710.000000
 42
-0.166636
  0
VERTEX
  8
0
 10
133.513554
 20
1709.808562
 42
-0.007649
  0
VERTEX
  8
0
 10
135.106816
 20
1708.531250
 42
-0.012025
  0
VERTEX
  8
0
 10
136.967002
 20
1706.915724
 42
-0.008268
  0
VERTEX
  8
0
 10
139.000000
 20
1705.000000
 42
0.006703
  0
VERTEX
  8
0
 10
141.020565
 20
1703.084013
 42
0.010003
  0
VERTEX
  8
0
 10
142.842188
 20
1701.468750
 42
0.005447
  0
VERTEX
  8
0
 10
144.407220
 20
1700.165115
 42
0.172592
  0
VERTEX
  8
0
 10
144.871311
 20
1700.000000
 42
-0.175599
  0
VERTEX
  8
0
 10
145.345569
 20
1699.828143
 42
-0.003938
  0
VERTEX
  8
0
 10
147.221897
 20
1698.237500
 42
-0.008404
  0
VERTEX
  8
0
 10
149.396877
 20
1696.299420
 42
-0.005528
  0
VERTEX
  8
0
 10
151.836965
 20
1694.000000
 42
0.007399
  0
VERTEX
  8
0
 10
154.295006
 20
1691.700972
 42
0.010904
  0
VERTEX
  8
0
 10
156.525889
 20
1689.762500
 42
0.006423
  0
VERTEX
  8
0
 10
158.438480
 20
1688.213561
 42
0.168539
  0
VERTEX
  8
0
 10
159.054048
 20
1688.000000
 42
-0.169587
  0
VERTEX
  8
0
 10
159.657645
 20
1687.789214
 42
-0.007777
  0
VERTEX
  8
0
 10
161.368458
 20
1686.384375
 42
-0.012206
  0
VERTEX
  8
0
 10
163.364326
 20
1684.607310
 42
-0.008380
  0
VERTEX
  8
0
 10
165.543478
 20
1682.500000
 42
0.006490
  0
VERTEX
  8
0
 10
167.706569
 20
1680.392345
 42
0.009746
  0
VERTEX
  8
0
 10
169.652606
 20
1678.615625
 42
0.005128
  0
VERTEX
  8
0
 10
171.327134
 20
1677.175732
 42
0.176795
  0
VERTEX
  8
0
 10
171.808593
 20
1677.000000
 42
-0.163298
  0
VERTEX
  8
0
 10
172.282248
 20
1676.841068
 42
-0.007087
  0
VERTEX
  8
0
 10
173.681288
 20
1675.751563
 42
-0.011430
  0
VERTEX
  8
0
 10
175.315943
 20
1674.378388
 42
-0.007840
  0
VERTEX
  8
0
 10
177.109308
 20
1672.750000
 42
0.006453
  0
VERTEX
  8
0
 10
179.091854
 20
1670.939772
 42
0.004967
  0
VERTEX
  8
0
 10
181.300115
 20
1669.014062
 42
0.005024
  0
VERTEX
  8
0
 10
183.400584
 20
1667.254989
 42
0.011927
  0
VERTEX
  8
0
 10
185.006741
 20
1666.000000
 42
-0.014563
  0
VERTEX
  8
0
 10
186.596713
 20
1664.744106
 42
-0.006309
  0
VERTEX
  8
0
 10
188.641046
 20
1662.985938
 42
-0.006236
  0
VERTEX
  8
0
 10
190.769794
 20
1661.060191
 42
-0.008235
  0
VERTEX
  8
0
 10
192.657971
 20
1659.250000
 42
0.011365
  0
VERTEX
  8
0
 10
194.377497
 20
1657.622024
 42
0.015756
  0
VERTEX
  8
0
 10
195.995693
 20
1656.248437
 42
0.012236
  0
VERTEX
  8
0
 10
197.384594
 20
1655.197314
 42
0.157116
  0
VERTEX
  8
0
 10
197.997018
 20
1655.000000
 42
-0.150038
  0
VERTEX
  8
0
 10
198.610037
 20
1654.811811
 42
-0.012470
  0
VERTEX
  8
0
 10
199.979916
 20
1653.832500
 42
-0.015767
  0
VERTEX
  8
0
 10
201.577866
 20
1652.547895
 42
-0.011502
  0
VERTEX
  8
0
 10
203.273334
 20
1651.025534
 42
0.007039
  0
VERTEX
  8
0
 10
207.588813
 20
1647.080538
 42
0.006451
  0
VERTEX
  8
0
 10
212.139747
 20
1643.140310
 42
0.006678
  0
VERTEX
  8
0
 10
216.567811
 20
1639.505404
 42
0.010307
  0
VERTEX
  8
0
 10
220.500000
 20
1636.495138
 42
-0.025709
  0
VERTEX
  8
0
 10
224.391219
 20
1633.321528
 42
-0.012607
  0
VERTEX
  8
0
 10
229.024306
 20
1628.911028
 42
-0.006003
  0
VERTEX
  8
0
 10
233.437786
 20
1624.384806
 42
-0.192522
  0
VERTEX
  8
0
 10
234.000000
 20
1622.978800
 42
0.134837
  0
VERTEX
  8
0
 10
234.131242
 20
1622.500980
 42
0.021258
  0
VERTEX
  8
0
 10
234.669184
 20
1621.677437
 42
0.022293
  0
VERTEX
  8
0
 10
235.405827
 20
1620.739395
 42
0.017829
  0
VERTEX
  8
0
 10
236.278073
 20
1619.795455
 42
-0.058903
  0
VERTEX
  8
0
 10
238.474358
 20
1616.988406
 42
-0.031093
  0
VERTEX
  8
0
 10
240.536081
 20
1613.067454
 42
-0.023057
  0
VERTEX
  8
0
 10
242.649294
 20
1607.711731
 42
-0.009612
  0
VERTEX
  8
0
 10
245.022969
 20
1600.313978
 42
-0.063676
  0
VERTEX
  8
0
 10
245.833713
 20
1595.417312
 42
-0.031004
  0
VERTEX
  8
0
 10
245.674483
 20
1589.071602
 42
-0.029266
  0
VERTEX
  8
0
 10
244.662105
 20
1582.167197
 42
-0.030174
  0
VERTEX
  8
0
 10
242.856793
 20
1575.500000
 42
-0.007633
  0
VERTEX
  8
0
 10
241.899316
 20
1572.793506
 42
-0.011359
  0
VERTEX
  8
0
 10
240.971995
 20
1570.458333
 42
-0.006594
  0
VERTEX
  8
0
 10
240.131292
 20
1568.544587
 42
-0.183382
  0
VERTEX
  8
0
 10
239.750000
 20
1568.166667
 42
0.137972
  0
VERTEX
  8
0
 10
239.462300
 20
1567.928036
 42
0.056323
  0
VERTEX
  8
0
 10
239.220312
 20
1567.476122
 42
0.049973
  0
VERTEX
  8
0
 10
239.055523
 20
1566.901386
 42
0.044872
  0
VERTEX
  8
0
 10
239.000000
 20
1566.283962
 42
-0.091292
  0
VERTEX
  8
0
 10
238.869398
 20
1565.574625
 42
-0.040754
  0
VERTEX
  8
0
 10
238.458612
 20
1564.714638
 42
-0.038556
  0
VERTEX
  8
0
 10
237.862190
 20
1563.850582
 42
-0.042352
  0
VERTEX
  8
0
 10
237.156977
 20
1563.117295
 42
0.029677
  0
VERTEX
  8
0
 10
236.362922
 20
1562.332405
 42
0.017056
  0
VERTEX
  8
0
 10
235.498074
 20
1561.300930
 42
0.017000
  0
VERTEX
  8
0
 10
234.697075
 20
1560.201530
 42
0.027089
  0
VERTEX
  8
0
 10
234.097721
 20
1559.205021
 42
-0.045871
  0
VERTEX
  8
0
 10
232.676113
 20
1557.030449
 42
-0.013443
  0
VERTEX
  8
0
 10
230.109529
 20
1553.968181
 42
-0.007718
  0
VERTEX
  8
0
 10
225.870087
 20
1549.324134
 42
-0.001469
  0
VERTEX
  8
0
 10
218.000000
 20
1541.014827
 42
0.002896
  0
VERTEX
  8
0
 10
214.966884
 20
1537.794073
 42
0.003148
  0
VERTEX
  8
0
 10
212.055167
 20
1534.626369
 42
0.002958
  0
VERTEX
  8
0
 10
209.594391
 20
1531.882750
 42
0.015408
  0
VERTEX
  8
0
 10
208.294185
 20
1530.321353
 42
-0.007253
  0
VERTEX
  8
0
 10
207.205728
 20
1528.970026
 42
-0.003124
  0
VERTEX
  8
0
 10
205.717169
 20
1527.198516
 42
-0.003090
  0
VERTEX
  8
0
 10
204.108664
 20
1525.331860
 42
-0.004082
  0
VERTEX
  8
0
 10
202.618892
 20
1523.652320
 42
0.005314
  0
VERTEX
  8
0
 10
201.120595
 20
1521.954761
 42
0.003844
  0
VERTEX
  8
0
 10
199.485690
 20
1520.032585
 42
0.003882
  0
VERTEX
  8
0
 10
197.960431
 20
1518.182127
 42
0.008437
  0
VERTEX
  8
0
 10
196.824707
 20
1516.732942
 42
-0.016381
  0
VERTEX
  8
0
 10
195.560324
 20
1515.171333
 42
-0.004884
  0
VERTEX
  8
0
 10
193.530665
 20
1512.871775
 42
-0.004893
  0
VERTEX
  8
0
 10
191.199305
 20
1510.332262
 42
-0.005273
  0
VERTEX
  8
0
 10
188.875430
 20
1507.901990
 42
0.005772
  0
VERTEX
  8
0
 10
186.438792
 20
1505.348690
 42
0.004105
  0
VERTEX
  8
0
 10
183.764670
 20
1502.433345
 42
0.004144
  0
VERTEX
  8
0
 10
181.258462
 20
1499.608905
 42
0.008796
  0
VERTEX
  8
0
 10
179.375430
 20
1497.372792
 42
-0.008433
  0
VERTEX
  8
0
 10
177.516807
 20
1495.162404
 42
-0.004219
  0
VERTEX
  8
0
 10
175.096220
 20
1492.427274
 42
-0.004187
  0
VERTEX
  8
0
 10
172.542785
 20
1489.637952
 42
-0.006167
  0
VERTEX
  8
0
 10
170.250000
 20
1487.235205
 42
0.003677
  0
VERTEX
  8
0
 10
168.237639
 20
1485.147250
 42
0.005771
  0
VERTEX
  8
0
 10
166.542188
 20
1483.320241
 42
0.001889
  0
VERTEX
  8
0
 10
165.106809
 20
1481.725160
 42
0.184287
  0
VERTEX
  8
0
 10
165.000000
 20
1481.445211
 42
-0.173379
  0
VERTEX
  8
0
 10
164.726282
 20
1480.679577
 42
-0.006359
  0
VERTEX
  8
0
 10
162.711029
 20
1478.284108
 42
-0.009304
  0
VERTEX
  8
0
 10
159.924242
 20
1475.174687
 42
-0.003726
  0
VERTEX
  8
0
 10
156.000000
 20
1471.019266
 42
0.003978
  0
VERTEX
  8
0
 10
153.591074
 20
1468.465853
 42
0.002723
  0
VERTEX
  8
0
 10
150.895085
 20
1465.530322
 42
0.002745
  0
VERTEX
  8
0
 10
148.328186
 20
1462.673257
 42
0.005555
  0
VERTEX
  8
0
 10
146.344970
 20
1460.390759
 42
-0.004552
  0
VERTEX
  8
0
 10
144.355903
 20
1458.092227
 42
-0.002192
  0
VERTEX
  8
0
 10
141.766958
 20
1455.180786
 42
-0.002173
  0
VERTEX
  8
0
 10
139.040449
 20
1452.168024
 42
-0.003113
  0
VERTEX
  8
0
 10
136.594970
 20
1449.522553
 42
0.005873
  0
VERTEX
  8
0
 10
134.450872
 20
1447.177266
 42
0.008853
  0
VERTEX
  8
0
 10
132.643523
 20
1445.079484
 42
0.004407
  0
VERTEX
  8
0
 10
131.169787
 20
1443.274255
 42
0.170584
  0
VERTEX
  8
0
 10
131.000000
 20
1442.791072
 42
-0.179704
  0
VERTEX
  8
0
 10
130.821067
 20
1442.309293
 42
-0.004007
  0
VERTEX
  8
0
 10
129.164062
 20
1440.417129
 42
-0.008550
  0
VERTEX
  8
0
 10
127.145248
 20
1438.225381
 42
-0.005615
  0
VERTEX
  8
0
 10
124.750000
 20
1435.768422
 42
0.004448
  0
VERTEX
  8
0
 10
122.192488
 20
1433.157246
 42
0.004419
  0
VERTEX
  8
0
 10
119.676196
 20
1430.495334
 42
0.004335
  0
VERTEX
  8
0
 10
117.517088
 20
1428.129655
 42
0.017180
  0
VERTEX
  8
0
 10
116.254072
 20
1426.620221
 42
-0.010614
  0
VERTEX
  8
0
 10
115.056363
 20
1425.150040
 42
-0.003245
  0
VERTEX
  8
0
 10
113.184514
 20
1422.978159
 42
-0.003247
  0
VERTEX
  8
0
 10
111.056413
 20
1420.572819
 42
-0.003545
  0
VERTEX
  8
0
 10
108.958370
 20
1418.265384
 42
0.006554
  0
VERTEX
  8
0
 10
106.900993
 20
1415.975137
 42
0.006466
  0
VERTEX
  8
0
 10
104.894910
 20
1413.621499
 42
0.006373
  0
VERTEX
  8
0
 10
103.191289
 20
1411.515514
 42
0.024582
  0
VERTEX
  8
0
 10
102.216488
 20
1410.145066
 42
-0.051494
  0
VERTEX
  8
0
 10
99.110493
 20
1406.240782
 42
-0.006055
  0
VERTEX
  8
0
 10
91.229959
 20
1398.385755
 42
-0.006839
  0
VERTEX
  8
0
 10
83.168240
 20
1390.754268
 42
-0.038182
  0
VERTEX
  8
0
 10
78.500000
 20
1387.071115
 42
-0.033107
  0
VERTEX
  8
0
 10
74.335433
 20
1384.656301
 42
-0.039943
  0
VERTEX
  8
0
 10
70.136533
 20
1382.981947
 42
-0.042956
  0
VERTEX
  8
0
 10
66.584566
 20
1382.210995
 42
-0.232370
  0
VERTEX
  8
0
 10
64.769970
 20
1382.830030
 42
0.049632
  0
VERTEX
  8
0
 10
64.223176
 20
1383.277850
 42
0.037937
  0
VERTEX
  8
0
 10
63.548451
 20
1383.656321
 42
0.038920
  0
VERTEX
  8
0
 10
62.854767
 20
1383.915491
 42
0.070053
  0
VERTEX
  8
0
 10
62.254545
 20
1384.000000
 42
-0.197693
  0
VERTEX
  8
0
 10
59.619561
 20
1385.084207
 42
-0.038305
  0
VERTEX
  8
0
 10
56.179749
 20
1389.057799
 42
-0.038914
  0
VERTEX
  8
0
 10
52.963332
 20
1394.197649
 42
-0.046017
  0
VERTEX
  8
0
 10
50.787475
 20
1399.500000
 42
-0.035003
  0
VERTEX
  8
0
 10
48.400825
 20
1409.811254
 42
-0.029851
  0
VERTEX
  8
0
 10
47.310874
 20
1420.921244
 42
-0.011317
  0
VERTEX
  8
0
 10
47.030374
 20
1439.046909
 42
-0.000910
  0
VERTEX
  8
0
 10
47.459165
 20
1486.797932
 42
0.000156
  0
VERTEX
  8
0
 10
47.801720
 20
1519.461253
 42
0.000079
  0
VERTEX
  8
0
 10
48.213292
 20
1560.553143
 42
0.000079
  0
VERTEX
  8
0
 10
48.624529
 20
1602.951697
 42
0.000118
  0
VERTEX
  8
0
 10
48.969289
 20
1640.000000
 42
-0.000840
  0
VERTEX
  8
0
 10
49.579212
 20
1696.737185
 42
-0.009554
  0
VERTEX
  8
0
 10
50.286097
 20
1719.144795
 42
-0.024692
  0
VERTEX
  8
0
 10
51.559930
 20
1731.838454
 42
-0.063979
  0
VERTEX
  8
0
 10
54.071730
 20
1740.667338
 42
-0.029873
  0
VERTEX
  8
0
 10
56.089201
 20
1744.691824
 42
-0.030450
  0
VERTEX
  8
0
 10
58.560378
 20
1748.420421
 42
-0.027990
  0
VERTEX
  8
0
 10
60.998947
 20
1751.303038
 42
-0.206015
  0
VERTEX
  8
0
 10
62.618689
 20
1752.000000
 42
0.070706
  0
VERTEX
  8
0
 10
63.146585
 20
1752.075026
 42
0.086280
  0
VERTEX
  8
0
 10
63.594240
 20
1752.293750
 42
0.100238
  0
VERTEX
  8
0
 10
63.893525
 20
1752.618661
 42
0.136987
  0
VERTEX
  8
0
 10
64.000000
 20
1753.000000
 42
-0.332234
  0
VERTEX
  8
0
 10
64.292067
 20
1753.391033
 42
-0.026982
  0
VERTEX
  8
0
 10
65.615625
 20
1753.706250
 42
-0.027868
  0
VERTEX
  8
0
 10
67.391660
 20
1753.927854
 42
-0.017105
  0
VERTEX
  8
0
 10
69.500000
 20
1754.000000
 42
-0.017105
  0
VERTEX
  8
0
 10
71.608340
 20
1753.927854
 42
-0.027868
  0
VERTEX
  8
0
 10
73.384375
 20
1753.706250
 42
-0.026982
  0
VERTEX
  8
0
 10
74.707933
 20
1753.391033
 42
-0.332234
  0
SEQEND
  0
POLYLINE
  8
0
 66
1
 70
1
  0
VERTEX
  8
0
 10
287.379605
 20
1500.663873
 42
-0.012561
  0
VERTEX
  8
0
 10
289.532337
 20
1498.400175
 42
-0.017110
  0
VERTEX
  8
0
 10
291.349009
 20
1496.247458
 42
-0.014013
  0
VERTEX
  8
0
 10
292.724940
 20
1494.394411
 42
-0.153866
  0
VERTEX
  8
0
 10
293.000000
 20
1493.521739
 42
0.063882
  0
VERTEX
  8
0
 10
293.074638
 20
1492.939937
 42
0.081731
  0
VERTEX
  8
0
 10
293.293750
 20
1492.447011
 42
0.098577
  0
VERTEX
  8
0
 10
293.618638
 20
1492.117213
 42
0.150209
  0
VERTEX
  8
0
 10
294.000000
 20
1492.000000
 42
-0.191087
  0
VERTEX
  8
0
 10
294.381882
 20
1491.848523
 42
-0.088204
  0
VERTEX
  8
0
 10
294.706250
 20
1491.412500
 42
-0.068025
  0
VERTEX
  8
0
 10
294.926307
 20
1490.765418
 42
-0.048028
  0
VERTEX
  8
0
 10
295.000000
 20
1490.000000
 42
0.048028
  0
VERTEX
  8
0
 10
295.073693
 20
1489.234582
 42
0.068025
  0
VERTEX
  8
0
 10
295.293750
 20
1488.587500
 42
0.088204
  0
VERTEX
  8
0
 10
295.618118
 20
1488.151477
 42
0.191087
  0
VERTEX
  8
0
 10
296.000000
 20
1488.000000
 42
-0.186414
  0
VERTEX
  8
0
 10
296.381787
 20
1487.852535
 42
-0.089706
  0
VERTEX
  8
0
 10
296.706250
 20
1487.429836
 42
-0.069539
  0
VERTEX
  8
0
 10
296.926216
 20
1486.801778
 42
-0.049547
  0
VERTEX
  8
0
 10
297.000000
 20
1486.059017
 42
0.046881
  0
VERTEX
  8
0
 10
297.074077
 20
1485.270704
 42
0.046318
  0
VERTEX
  8
0
 10
297.293750
 20
1484.506650
 42
0.050262
  0
VERTEX
  8
0
 10
297.616444
 20
1483.876024
 42
0.111412
  0
VERTEX
  8
0
 10
298.000000
 20
1483.500000
 42
-0.130646
  0
VERTEX
  8
0
 10
298.384508
 20
1483.093337
 42
-0.045439
  0
VERTEX
  8
0
 10
298.706250
 20
1482.346475
 42
-0.041396
  0
VERTEX
  8
0
 10
298.926158
 20
1481.420660
 42
-0.037634
  0
VERTEX
  8
0
 10
299.000000
 20
1480.440983
 42
0.034529
  0
VERTEX
  8
0
 10
299.064642
 20
1479.506032
 42
0.052624
  0
VERTEX
  8
0
 10
299.260410
 20
1478.717039
 42
0.068555
  0
VERTEX
  8
0
 10
299.546451
 20
1478.174587
 42
0.241710
  0
VERTEX
  8
0
 10
299.886501
 20
1478.000000
 42
-0.297765
  0
VERTEX
  8
0
 10
300.505722
 20
1477.595357
 42
-0.034096
  0
VERTEX
  8
0
 10
301.097531
 20
1475.948619
 42
-0.021749
  0
VERTEX
  8
0
 10
301.761757
 20
1473.154014
 42
-0.004661
  0
VERTEX
  8
0
 10
302.656861
 20
1468.250000
 42
0.025034
  0
VERTEX
  8
0
 10
302.936938
 20
1467.004972
 42
0.037260
  0
VERTEX
  8
0
 10
303.315351
 20
1465.954688
 42
0.041763
  0
VERTEX
  8
0
 10
303.729389
 20
1465.203561
 42
0.250963
  0
VERTEX
  8
0
 10
304.109406
 20
1465.000000
 42
-0.282710
  0
VERTEX
  8
0
 10
304.454163
 20
1464.788134
 42
-0.049414
  0
VERTEX
  8
0
 10
304.742250
 20
1464.045312
 42
-0.040924
  0
VERTEX
  8
0
 10
304.943543
 20
1462.995375
 42
-0.025899
  0
VERTEX
  8
0
 10
305.013147
 20
1461.750000
 42
0.047916
  0
VERTEX
  8
0
 10
305.209119
 20
1459.792953
 42
0.006067
  0
VERTEX
  8
0
 10
306.085147
 20
1455.635938
 42
0.007073
  0
VERTEX
  8
0
 10
307.257845
 20
1450.715671
 42
0.005825
  0
VERTEX
  8
0
 10
308.644048
 20
1445.500000
 42
-0.004175
  0
VERTEX
  8
0
 10
310.107904
 20
1440.064476
 42
-0.003905
  0
VERTEX
  8
0
 10
311.514789
 20
1434.482812
 42
-0.003889
  0
VERTEX
  8
0
 10
312.686523
 20
1429.508139
 42
-0.013314
  0
VERTEX
  8
0
 10
313.336534
 20
1426.250000
 42
0.011574
  0
VERTEX
  8
0
 10
313.805836
 20
1423.854226
 42
0.018504
  0
VERTEX
  8
0
 10
314.328909
 20
1421.835938
 42
0.012961
  0
VERTEX
  8
0
 10
314.847507
 20
1420.252537
 42
0.317123
  0
VERTEX
  8
0
 10
315.205634
 20
1420.000000
 42
-0.305930
  0
VERTEX
  8
0
 10
315.513890
 20
1419.791915
 42
-0.039111
  0
VERTEX
  8
0
 10
315.766655
 20
1418.989211
 42
-0.034969
  0
VERTEX
  8
0
 10
315.942556
 20
1417.877830
 42
-0.021769
  0
VERTEX
  8
0
 10
316.000000
 20
1416.559017
 42
0.026918
  0
VERTEX
  8
0
 10
316.073414
 20
1415.196361
 42
0.033489
  0
VERTEX
  8
0
 10
316.293750
 20
1413.947275
 42
0.035556
  0
VERTEX
  8
0
 10
316.613307
 20
1412.958660
 42
0.159713
  0
VERTEX
  8
0
 10
317.000000
 20
1412.500000
 42
-0.159713
  0
VERTEX
  8
0
 10
317.386693
 20
1412.041340
 42
-0.035556
  0
VERTEX
  8
0
 10
317.706250
 20
1411.052725
 42
-0.033489
  0
VERTEX
  8
0
 10
317.926586
 20
1409.803639
 42
-0.026918
  0
VERTEX
  8
0
 10
318.000000
 20
1408.440983
 42
0.024443
  0
VERTEX
  8
0
 10
318.064502
 20
1407.122324
 42
0.038897
  0
VERTEX
  8
0
 10
318.261612
 20
1406.010789
 42
0.045959
  0
VERTEX
  8
0
 10
318.546166
 20
1405.219270
 42
0.291300
  0
VERTEX
  8
0
 10
318.890594
 20
1405.000000
 42
-0.312634
  0
VERTEX
  8
0
 10
319.505045
 20
1404.574185
 42
-0.029707
  0
VERTEX
  8
0
 10
320.073937
 20
1402.731029
 42
-0.018941
  0
VERTEX
  8
0
 10
320.720982
 20
1399.573161
 42
-0.003562
  0
VERTEX
  8
0
 10
321.643406
 20
1393.750000
 42
0.021941
  0
VERTEX
  8
0
 10
321.925484
 20
1392.313150
 42
0.033494
  0
VERTEX
  8
0
 10
322.306509
 20
1391.101562
 42
0.035740
  0
VERTEX
  8
0
 10
322.723709
 20
1390.222465
 42
0.270375
  0
VERTEX
  8
0
 10
323.105035
 20
1390.000000
 42
-0.290646
  0
VERTEX
  8
0
 10
323.451105
 20
1389.780270
 42
-0.046266
  0
VERTEX
  8
0
 10
323.737104
 20
1388.989211
 42
-0.039073
  0
VERTEX
  8
0
 10
323.935177
 20
1387.877668
 42
-0.024564
  0
VERTEX
  8
0
 10
324.000000
 20
1386.559017
 42
0.026918
  0
VERTEX
  8
0
 10
324.073414
 20
1385.196361
 42
0.033489
  0
VERTEX
  8
0
 10
324.293750
 20
1383.947275
 42
0.035556
  0
VERTEX
  8
0
 10
324.613307
 20
1382.958660
 42
0.159713
  0
VERTEX
  8
0
 10
325.000000
 20
1382.500000
 42
-0.146547
  0
VERTEX
  8
0
 10
325.385578
 20
1382.065839
 42
-0.040338
  0
VERTEX
  8
0
 10
325.706250
 20
1381.199600
 42
-0.037109
  0
VERTEX
  8
0
 10
325.926388
 20
1380.112115
 42
-0.031397
  0
VERTEX
  8
0
 10
326.000000
 20
1378.940983
 42
0.032276
  0
VERTEX
  8
0
 10
326.072800
 20
1377.814380
 42
0.049716
  0
VERTEX
  8
0
 10
326.293750
 20
1376.863914
 42
0.064068
  0
VERTEX
  8
0
 10
326.615903
 20
1376.206632
 42
0.251914
  0
VERTEX
  8
0
 10
327.000000
 20
1376.000000
 42
-0.295869
  0
VERTEX
  8
0
 10
327.387127
 20
1375.748945
 42
-0.043820
  0
VERTEX
  8
0
 10
327.706250
 20
1374.825000
 42
-0.037669
  0
VERTEX
  8
0
 10
327.927610
 20
1373.532944
 42
-0.023598
  0
VERTEX
  8
0
 10
328.000000
 20
1372.000000
 42
0.023598
  0
VERTEX
  8
0
 10
328.072390
 20
1370.467056
 42
0.037669
  0
VERTEX
  8
0
 10
328.293750
 20
1369.175000
 42
0.043820
  0
VERTEX
  8
0
 10
328.612873
 20
1368.251055
 42
0.295869
  0
VERTEX
  8
0
 10
329.000000
 20
1368.000000
 42
-0.295869
  0
VERTEX
  8
0
 10
329.387127
 20
1367.748945
 42
-0.043820
  0
VERTEX
  8
0
 10
329.706250
 20
1366.825000
 42
-0.037669
  0
VERTEX
  8
0
 10
329.927610
 20
1365.532944
 42
-0.023598
  0
VERTEX
  8
0
 10
330.000000
 20
1364.000000
 42
0.023598
  0
VERTEX
  8
0
 10
330.072390
 20
1362.467056
 42
0.037669
  0
VERTEX
  8
0
 10
330.293750
 20
1361.175000
 42
0.043820
  0
VERTEX
  8
0
 10
330.612873
 20
1360.251055
 42
0.295869
  0
VERTEX
  8
0
 10
331.000000
 20
1360.000000
 42
-0.275259
  0
VERTEX
  8
0
 10
331.385522
 20
1359.770364
 42
-0.053437
  0
VERTEX
  8
0
 10
331.706250
 20
1358.989211
 42
-0.043243
  0
VERTEX
  8
0
 10
331.927436
 20
1357.877484
 42
-0.027497
  0
VERTEX
  8
0
 10
332.000000
 20
1356.559017
 42
0.026918
  0
VERTEX
  8
0
 10
332.073414
 20
1355.196361
 42
0.033489
  0
VERTEX
  8
0
 10
332.293750
 20
1353.947275
 42
0.035556
  0
VERTEX
  8
0
 10
332.613307
 20
1352.958660
 42
0.159713
  0
VERTEX
  8
0
 10
333.000000
 20
1352.500000
 42
-0.159713
  0
VERTEX
  8
0
 10
333.386693
 20
1352.041340
 42
-0.035556
  0
VERTEX
  8
0
 10
333.706250
 20
1351.052725
 42
-0.033489
  0
VERTEX
  8
0
 10
333.926586
 20
1349.803639
 42
-0.026918
  0
VERTEX
  8
0
 10
334.000000
 20
1348.440983
 42
0.027497
  0
VERTEX
  8
0
 10
334.072564
 20
1347.122516
 42
0.043243
  0
VERTEX
  8
0
 10
334.293750
 20
1346.010789
 42
0.053437
  0
VERTEX
  8
0
 10
334.614478
 20
1345.229636
 42
0.275259
  0
VERTEX
  8
0
 10
335.000000
 20
1345.000000
 42
-0.255639
  0
VERTEX
  8
0
 10
335.384300
 20
1344.789778
 42
-0.062402
  0
VERTEX
  8
0
 10
335.706250
 20
1344.114764
 42
-0.048668
  0
VERTEX
  8
0
 10
335.927241
 20
1343.140890
 42
-0.031481
  0
VERTEX
  8
0
 10
336.000000
 20
1341.986431
 42
0.025956
  0
VERTEX
  8
0
 10
336.066551
 20
1340.705323
 42
0.021234
  0
VERTEX
  8
0
 10
336.266502
 20
1339.348022
 42
0.021740
  0
VERTEX
  8
0
 10
336.558478
 20
1338.113264
 42
0.051494
  0
VERTEX
  8
0
 10
336.907242
 20
1337.236431
 42
-0.042554
  0
VERTEX
  8
0
 10
337.353143
 20
1336.171130
 42
-0.006389
  0
VERTEX
  8
0
 10
338.035578
 20
1333.953827
 42
-0.007137
  0
VERTEX
  8
0
 10
338.772362
 20
1331.307355
 42
-0.006106
  0
VERTEX
  8
0
 10
339.474386
 20
1328.500000
 42
0.002002
  0
VERTEX
  8
0
 10
340.183185
 20
1325.563325
 42
0.001803
  0
VERTEX
  8
0
 10
340.940249
 20
1322.528125
 42
0.001806
  0
VERTEX
  8
0
 10
341.638652
 20
1319.811748
 42
0.005714
  0
VERTEX
  8
0
 10
342.133633
 20
1318.000000
 42
-0.004015
  0
VERTEX
  8
0
 10
343.217923
 20
1314.083656
 42
-0.004154
  0
VERTEX
  8
0
 10
344.226560
 20
1310.194585
 42
-0.003619
  0
VERTEX
  8
0
 10
345.282076
 20
1305.847765
 42
-0.001975
  0
VERTEX
  8
0
 10
346.517454
 20
1300.500000
 42
0.001313
  0
VERTEX
  8
0
 10
347.200149
 20
1297.526774
 42
0.001105
  0
VERTEX
  8
0
 10
347.938442
 20
1294.381250
 42
0.001115
  0
VERTEX
  8
0
 10
348.625118
 20
1291.512950
 42
0.003091
  0
VERTEX
  8
0
 10
349.124961
 20
1289.500000
 42
-0.005630
  0
VERTEX
  8
0
 10
349.554601
 20
1287.731428
 42
-0.003887
  0
VERTEX
  8
0
 10
350.002806
 20
1285.720312
 42
-0.003920
  0
VERTEX
  8
0
 10
350.403589
 20
1283.779761
 42
-0.008008
  0
VERTEX
  8
0
 10
350.681662
 20
1282.250000
 42
0.025103
  0
VERTEX
  8
0
 10
350.952232
 20
1281.004960
 42
0.037452
  0
VERTEX
  8
0
 10
351.322636
 20
1279.954688
 42
0.042116
  0
VERTEX
  8
0
 10
351.730921
 20
1279.203953
 42
0.252284
  0
VERTEX
  8
0
 10
352.109406
 20
1279.000000
 42
-0.291300
  0
VERTEX
  8
0
 10
352.453834
 20
1278.780730
 42
-0.045959
  0
VERTEX
  8
0
 10
352.738388
 20
1277.989211
 42
-0.038897
  0
VERTEX
  8
0
 10
352.935498
 20
1276.877676
 42
-0.024443
  0
VERTEX
  8
0
 10
353.000000
 20
1275.559017
 42
0.026918
  0
VERTEX
  8
0
 10
353.073414
 20
1274.196361
 42
0.033489
  0
VERTEX
  8
0
 10
353.293750
 20
1272.947275
 42
0.035556
  0
VERTEX
  8
0
 10
353.613307
 20
1271.958660
 42
0.159713
  0
VERTEX
  8
0
 10
354.000000
 20
1271.500000
 42
-0.158284
  0
VERTEX
  8
0
 10
354.386560
 20
1271.044084
 42
-0.036095
  0
VERTEX
  8
0
 10
354.706250
 20
1270.070061
 42
-0.033884
  0
VERTEX
  8
0
 10
354.926564
 20
1268.840047
 42
-0.027380
  0
VERTEX
  8
0
 10
355.000000
 20
1267.500000
 42
0.027380
  0
VERTEX
  8
0
 10
355.073436
 20
1266.159953
 42
0.033884
  0
VERTEX
  8
0
 10
355.293750
 20
1264.929939
 42
0.036095
  0
VERTEX
  8
0
 10
355.613440
 20
1263.955916
 42
0.158284
  0
VERTEX
  8
0
 10
356.000000
 20
1263.500000
 42
-0.159713
  0
VERTEX
  8
0
 10
356.386693
 20
1263.041340
 42
-0.035556
  0
VERTEX
  8
0
 10
356.706250
 20
1262.052725
 42
-0.033489
  0
VERTEX
  8
0
 10
356.926586
 20
1260.803639
 42
-0.026918
  0
VERTEX
  8
0
 10
357.000000
 20
1259.440983
 42
0.027497
  0
VERTEX
  8
0
 10
357.072564
 20
1258.122516
 42
0.043243
  0
VERTEX
  8
0
 10
357.293750
 20
1257.010789
 42
0.053437
  0
VERTEX
  8
0
 10
357.614478
 20
1256.229636
 42
0.275259
  0
VERTEX
  8
0
 10
358.000000
 20
1256.000000
 42
-0.295869
  0
VERTEX
  8
0
 10
358.387127
 20
1255.748945
 42
-0.043820
  0
VERTEX
  8
0
 10
358.706250
 20
1254.825000
 42
-0.037669
  0
VERTEX
  8
0
 10
358.927610
 20
1253.532944
 42
-0.023598
  0
VERTEX
  8
0
 10
359.000000
 20
1252.000000
 42
0.023598
  0
VERTEX
  8
0
 10
359.072390
 20
1250.467056
 42
0.037669
  0
VERTEX
  8
0
 10
359.293750
 20
1249.175000
 42
0.043820
  0
VERTEX
  8
0
 10
359.612873
 20
1248.251055
 42
0.295869
  0
VERTEX
  8
0
 10
360.000000
 20
1248.000000
 42
-0.295869
  0
VERTEX
  8
0
 10
360.387127
 20
1247.748945
 42
-0.043820
  0
VERTEX
  8
0
 10
360.706250
 20
1246.825000
 42
-0.037669
  0
VERTEX
  8
0
 10
360.927610
 20
1245.532944
 42
-0.023598
  0
VERTEX
  8
0
 10
361.000000
 20
1244.000000
 42
0.023598
  0
VERTEX
  8
0
 10
361.072390
 20
1242.467056
 42
0.037669
  0
VERTEX
  8
0
 10
361.293750
 20
1241.175000
 42
0.043820
  0
VERTEX
  8
0
 10
361.612873
 20
1240.251055
 42
0.295869
  0
VERTEX
  8
0
 10
362.000000
 20
1240.000000
 42
-0.275259
  0
VERTEX
  8
0
 10
362.385522
 20
1239.770364
 42
-0.053437
  0
VERTEX
  8
0
 10
362.706250
 20
1238.989211
 42
-0.043243
  0
VERTEX
  8
0
 10
362.927436
 20
1237.877484
 42
-0.027497
  0
VERTEX
  8
0
 10
363.000000
 20
1236.559017
 42
0.026918
  0
VERTEX
  8
0
 10
363.073414
 20
1235.196361
 42
0.033489
  0
VERTEX
  8
0
 10
363.293750
 20
1233.947275
 42
0.035556
  0
VERTEX
  8
0
 10
363.613307
 20
1232.958660
 42
0.159713
  0
VERTEX
  8
0
 10
364.000000
 20
1232.500000
 42
-0.159713
  0
VERTEX
  8
0
 10
364.386693
 20
1232.041340
 42
-0.035556
  0
VERTEX
  8
0
 10
364.706250
 20
1231.052725
 42
-0.033489
  0
VERTEX
  8
0
 10
364.926586
 20
1229.803639
 42
-0.026918
  0
VERTEX
  8
0
 10
365.000000
 20
1228.440983
 42
0.027497
  0
VERTEX
  8
0
 10
365.072564
 20
1227.122516
 42
0.043243
  0
VERTEX
  8
0
 10
365.293750
 20
1226.010789
 42
0.053437
  0
VERTEX
  8
0
 10
365.614478
 20
1225.229636
 42
0.275259
  0
VERTEX
  8
0
 10
366.000000
 20
1225.000000
 42
-0.295869
  0
VERTEX
  8
0
 10
366.387127
 20
1224.748945
 42
-0.043820
  0
VERTEX
  8
0
 10
366.706250
 20
1223.825000
 42
-0.037669
  0
VERTEX
  8
0
 10
366.927610
 20
1222.532944
 42
-0.023598
  0
VERTEX
  8
0
 10
367.000000
 20
1221.000000
 42
0.021194
  0
VERTEX
  8
0
 10
367.065013
 20
1219.466898
 42
0.034110
  0
VERTEX
  8
0
 10
367.264171
 20
1218.175000
 42
0.037616
  0
VERTEX
  8
0
 10
367.550042
 20
1217.238753
 42
0.309132
  0
VERTEX
  8
0
 10
367.899306
 20
1217.000000
 42
-0.289206
  0
VERTEX
  8
0
 10
368.278593
 20
1216.760592
 42
-0.031067
  0
VERTEX
  8
0
 10
368.684636
 20
1215.751563
 42
-0.030587
  0
VERTEX
  8
0
 10
369.048839
 20
1214.378692
 42
-0.019610
  0
VERTEX
  8
0
 10
369.309912
 20
1212.750000
 42
0.010315
  0
VERTEX
  8
0
 10
369.580798
 20
1210.832742
 42
0.006235
  0
VERTEX
  8
0
 10
369.976667
 20
1208.573437
 42
0.006244
  0
VERTEX
  8
0
 10
370.426018
 20
1206.338504
 42
0.010897
  0
VERTEX
  8
0
 10
370.861719
 20
1204.500000
 42
-0.002685
  0
VERTEX
  8
0
 10
371.342121
 20
1202.611636
 42
-0.001323
  0
VERTEX
  8
0
 10
371.933563
 20
1200.206250
 42
-0.001313
  0
VERTEX
  8
0
 10
372.534344
 20
1197.706098
 42
-0.001916
  0
VERTEX
  8
0
 10
373.049416
 20
1195.500000
 42
0.001012
  0
VERTEX
  8
0
 10
373.551999
 20
1193.329661
 42
0.000757
  0
VERTEX
  8
0
 10
374.114138
 20
1190.940625
 42
0.000765
  0
VERTEX
  8
0
 10
374.650338
 20
1188.692550
 42
0.001751
  0
VERTEX
  8
0
 10
375.063051
 20
1187.000000
 42
-0.002483
  0
VERTEX
  8
0
 10
375.501887
 20
1185.188807
 42
-0.000779
  0
VERTEX
  8
0
 10
376.141440
 20
1182.471875
 42
-0.000778
  0
VERTEX
  8
0
 10
376.845948
 20
1179.436677
 42
-0.000861
  0
VERTEX
  8
0
 10
377.517454
 20
1176.500000
 42
0.001313
  0
VERTEX
  8
0
 10
378.200149
 20
1173.526774
 42
0.001105
  0
VERTEX
  8
0
 10
378.938442
 20
1170.381250
 42
0.001115
  0
VERTEX
  8
0
 10
379.625118
 20
1167.512950
 42
0.003091
  0
VERTEX
  8
0
 10
380.124961
 20
1165.500000
 42
-0.005630
  0
VERTEX
  8
0
 10
380.554601
 20
1163.731428
 42
-0.003887
  0
VERTEX
  8
0
 10
381.002806
 20
1161.720312
 42
-0.003920
  0
VERTEX
  8
0
 10
381.403589
 20
1159.779761
 42
-0.008008
  0
VERTEX
  8
0
 10
381.681662
 20
1158.250000
 42
0.025103
  0
VERTEX
  8
0
 10
381.952232
 20
1157.004960
 42
0.037452
  0
VERTEX
  8
0
 10
382.322636
 20
1155.954688
 42
0.042116
  0
VERTEX
  8
0
 10
382.730921
 20
1155.203953
 42
0.252284
  0
VERTEX
  8
0
 10
383.109406
 20
1155.000000
 42
-0.291300
  0
VERTEX
  8
0
 10
383.453834
 20
1154.780730
 42
-0.045959
  0
VERTEX
  8
0
 10
383.738388
 20
1153.989211
 42
-0.038897
  0
VERTEX
  8
0
 10
383.935498
 20
1152.877676
 42
-0.024443
  0
VERTEX
  8
0
 10
384.000000
 20
1151.559017
 42
0.026918
  0
VERTEX
  8
0
 10
384.073414
 20
1150.196361
 42
0.033489
  0
VERTEX
  8
0
 10
384.293750
 20
1148.947275
 42
0.035556
  0
VERTEX
  8
0
 10
384.613307
 20
1147.958660
 42
0.159713
  0
VERTEX
  8
0
 10
385.000000
 20
1147.500000
 42
-0.158284
  0
VERTEX
  8
0
 10
385.386560
 20
1147.044084
 42
-0.036095
  0
VERTEX
  8
0
 10
385.706250
 20
1146.070061
 42
-0.033884
  0
VERTEX
  8
0
 10
385.926564
 20
1144.840047
 42
-0.027380
  0
VERTEX
  8
0
 10
386.000000
 20
1143.500000
 42
0.024531
  0
VERTEX
  8
0
 10
386.065556
 20
1142.164636
 42
0.031360
  0
VERTEX
  8
0
 10
386.262720
 20
1140.949116
 42
0.032593
  0
VERTEX
  8
0
 10
386.547842
 20
1139.988991
 42
0.167385
  0
VERTEX
  8
0
 10
386.894367
 20
1139.565285
 42
-0.193207
  0
VERTEX
  8
0
 10
387.578438
 20
1138.637845
 42
-0.016121
  0
VERTEX
  8
0
 10
388.247599
 20
1135.667250
 42
-0.015774
  0
VERTEX
  8
0
 10
388.926568
 20
1131.399768
 42
-0.005575
  0
VERTEX
  8
0
 10
389.637462
 20
1125.250000
 42
0.016059
  0
VERTEX
  8
0
 10
389.912937
 20
1123.237732
 42
0.025557
  0
VERTEX
  8
0
 10
390.290794
 20
1121.542187
 42
0.023038
  0
VERTEX
  8
0
 10
390.709112
 20
1120.264663
 42
0.311608
  0
VERTEX
  8
0
 10
391.092550
 20
1120.000000
 42
-0.408821
  0
VERTEX
  8
0
 10
391.930215
 20
1119.177646
 42
-0.005934
  0
VERTEX
  8
0
 10
391.980469
 20
1111.539154
 42
-0.006766
  0
VERTEX
  8
0
 10
391.837564
 20
1103.946731
 42
-0.251317
  0
VERTEX
  8
0
 10
391.000000
 20
1102.500000
 42
0.115555
  0
VERTEX
  8
0
 10
390.616268
 20
1102.117597
 42
0.049372
  0
VERTEX
  8
0
 10
390.293750
 20
1101.463975
 42
0.045296
  0
VERTEX
  8
0
 10
390.074034
 20
1100.667560
 42
0.044694
  0
VERTEX
  8
0
 10
390.000000
 20
1099.840983
 42
-0.158833
  0
VERTEX
  8
0
 10
389.297643
 20
1097.685772
 42
-0.031570
  0
VERTEX
  8
0
 10
386.673081
 20
1094.526351
 42
-0.031004
  0
VERTEX
  8
0
 10
383.684997
 20
1091.728668
 42
-0.174364
  0
VERTEX
  8
0
 10
381.659017
 20
1091.000000
 42
0.058185
  0
VERTEX
  8
0
 10
381.023726
 20
1090.925820
 42
0.050362
  0
VERTEX
  8
0
 10
380.389150
 20
1090.706250
 42
0.052965
  0
VERTEX
  8
0
 10
379.849304
 20
1090.382954
 42
0.093220
  0
VERTEX
  8
0
 10
379.500000
 20
1090.000000
 42
-0.158284
  0
VERTEX
  8
0
 10
379.044084
 20
1089.613440
 42
-0.036095
  0
VERTEX
  8
0
 10
378.070061
 20
1089.293750
 42
-0.033884
  0
VERTEX
  8
0
 10
376.840047
 20
1089.073436
 42
-0.027380
  0
VERTEX
  8
0
 10
375.500000
 20
1089.000000
 42
-0.027380
  0
VERTEX
  8
0
 10
374.159953
 20
1089.073436
 42
-0.033884
  0
VERTEX
  8
0
 10
372.929939
 20
1089.293750
 42
-0.036095
  0
VERTEX
  8
0
 10
371.955916
 20
1089.613440
 42
-0.158284
  0
VERTEX
  8
0
 10
371.500000
 20
1090.000000
 42
0.146547
  0
VERTEX
  8
0
 10
371.065839
 20
1090.385578
 42
0.040338
  0
VERTEX
  8
0
 10
370.199600
 20
1090.706250
 42
0.037109
  0
VERTEX
  8
0
 10
369.112115
 20
1090.926388
 42
0.031397
  0
VERTEX
  8
0
 10
367.940983
 20
1091.000000
 42
-0.032276
  0
VERTEX
  8
0
 10
366.814380
 20
1091.072800
 42
-0.049716
  0
VERTEX
  8
0
 10
365.863914
 20
1091.293750
 42
-0.064068
  0
VERTEX
  8
0
 10
365.206632
 20
1091.615903
 42
-0.251914
  0
VERTEX
  8
0
 10
365.000000
 20
1092.000000
 42
0.129178
  0
VERTEX
  8
0
 10
364.899802
 20
1092.381357
 42
0.100706
  0
VERTEX
  8
0
 10
364.617938
 20
1092.706250
 42
0.088930
  0
VERTEX
  8
0
 10
364.196298
 20
1092.924725
 42
0.075310
  0
VERTEX
  8
0
 10
363.699365
 20
1093.000000
 42
-0.086680
  0
VERTEX
  8
0
 10
362.031837
 20
1093.291272
 42
-0.026575
  0
VERTEX
  8
0
 10
359.667192
 20
1094.288226
 42
-0.020084
  0
VERTEX
  8
0
 10
357.456765
 20
1095.473759
 42
-0.262796
  0
VERTEX
  8
0
 10
357.007802
 20
1096.250000
 42
0.235061
  0
VERTEX
  8
0
 10
356.860952
 20
1096.537567
 42
0.069969
  0
VERTEX
  8
0
 10
356.414792
 20
1096.779687
 42
0.053772
  0
VERTEX
  8
0
 10
355.766546
 20
1096.945248
 42
0.035668
  0
VERTEX
  8
0
 10
355.000000
 20
1097.000000
 42
-0.048028
  0
VERTEX
  8
0
 10
354.234582
 20
1097.073693
 42
-0.068025
  0
VERTEX
  8
0
 10
353.587500
 20
1097.293750
 42
-0.088204
  0
VERTEX
  8
0
 10
353.151477
 20
1097.618118
 42
-0.191087
  0
VERTEX
  8
0
 10
353.000000
 20
1098.000000
 42
0.148195
  0
VERTEX
  8
0
 10
352.884432
 20
1098.381354
 42
0.098894
  0
VERTEX
  8
0
 10
352.559375
 20
1098.706250
 42
0.082425
  0
VERTEX
  8
0
 10
352.073457
 20
1098.925306
 42
0.064853
  0
VERTEX
  8
0
 10
351.500000
 20
1099.000000
 42
-0.064853
  0
VERTEX
  8
0
 10
350.926543
 20
1099.074694
 42
-0.082425
  0
VERTEX
  8
0
 10
350.440625
 20
1099.293750
 42
-0.098894
  0
VERTEX
  8
0
 10
350.115568
 20
1099.618646
 42
-0.148195
  0
VERTEX
  8
0
 10
350.000000
 20
1100.000000
 42
0.106313
  0
VERTEX
  8
0
 10
349.917947
 20
1100.381541
 42
0.099376
  0
VERTEX
  8
0
 10
349.685268
 20
1100.706250
 42
0.096076
  0
VERTEX
  8
0
 10
349.337584
 20
1100.923923
 42
0.092210
  0
VERTEX
  8
0
 10
348.928571
 20
1101.000000
 42
-0.085708
  0
VERTEX
  8
0
 10
348.424285
 20
1101.087083
 42
-0.034595
  0
VERTEX
  8
0
 10
347.781859
 20
1101.367188
 42
-0.032958
  0
VERTEX
  8
0
 10
347.116541
 20
1101.771639
 42
-0.035804
  0
VERTEX
  8
0
 10
346.529429
 20
1102.250000
 42
0.009400
  0
VERTEX
  8
0
 10
345.803727
 20
1102.907934
 42
0.002421
  0
VERTEX
  8
0
 10
344.607416
 20
1103.942072
 42
0.002463
  0
VERTEX
  8
0
 10
343.231111
 20
1105.108509
 42
0.002504
  0
VERTEX
  8
0
 10
341.850857
 20
1106.254925
 42
-0.000370
  0
VERTEX
  8
0
 10
340.385275
 20
1107.461683
 42
-0.000266
  0
VERTEX
  8
0
 10
338.749939
 20
1108.811712
 42
-0.000269
  0
VERTEX
  8
0
 10
337.194892
 20
1110.098261
 42
-0.000580
  0
VERTEX
  8
0
 10
336.000000
 20
1111.090262
 42
0.003986
  0
VERTEX
  8
0
 10
334.836750
 20
1112.042687
 42
0.002165
  0
VERTEX
  8
0
 10
333.392972
 20
1113.195423
 42
0.002157
  0
VERTEX
  8
0
 10
331.914042
 20
1114.355433
 42
0.003415
  0
VERTEX
  8
0
 10
330.635651
 20
1115.335337
 42
-0.016618
  0
VERTEX
  8
0
 10
329.179898
 20
1116.513483
 42
-0.004953
  0
VERTEX
  8
0
 10
327.037055
 20
1118.406318
 42
-0.004962
  0
VERTEX
  8
0
 10
324.671094
 20
1120.581268
 42
-0.005346
  0
VERTEX
  8
0
 10
322.407390
 20
1122.750000
 42
0.004494
  0
VERTEX
  8
0
 10
320.314216
 20
1124.762203
 42
0.006960
  0
VERTEX
  8
0
 10
318.467511
 20
1126.457813
 42
0.002719
  0
VERTEX
  8
0
 10
316.864470
 20
1127.873492
 42
0.181446
  0
VERTEX
  8
0
 10
316.527337
 20
1128.000000
 42
-0.176887
  0
VERTEX
  8
0
 10
316.187223
 20
1128.124210
 42
-0.002557
  0
VERTEX
  8
0
 10
314.522138
 20
1129.542187
 42
-0.006674
  0
VERTEX
  8
0
 10
312.603943
 20
1131.237793
 42
-0.004309
  0
VERTEX
  8
0
 10
310.425923
 20
1133.250000
 42
0.005615
  0
VERTEX
  8
0
 10
308.165032
 20
1135.327847
 42
0.006745
  0
VERTEX
  8
0
 10
305.990666
 20
1137.229209
 42
0.005853
  0
VERTEX
  8
0
 10
304.121851
 20
1138.782068
 42
0.044122
  0
VERTEX
  8
0
 10
303.170325
 20
1139.423903
 42
-0.035959
  0
VERTEX
  8
0
 10
302.319951
 20
1139.977557
 42
-0.009576
  0
VERTEX
  8
0
 10
301.049853
 20
1140.980013
 42
-0.009659
  0
VERTEX
  8
0
 10
299.645983
 20
1142.178494
 42
-0.009819
  0
VERTEX
  8
0
 10
298.297260
 20
1143.423903
 42
0.006728
  0
VERTEX
  8
0
 10
296.805897
 20
1144.818203
 42
0.003753
  0
VERTEX
  8
0
 10
294.954627
 20
1146.477646
 42
0.003743
  0
VERTEX
  8
0
 10
293.056709
 20
1148.128265
 42
0.006062
  0
VERTEX
  8
0
 10
291.415548
 20
1149.500000
 42
-0.005577
  0
VERTEX
  8
0
 10
289.756866
 20
1150.883653
 42
-0.003278
  0
VERTEX
  8
0
 10
287.802621
 20
1152.573438
 42
-0.003278
  0
VERTEX
  8
0
 10
285.871007
 20
1154.288423
 42
-0.005585
  0
VERTEX
  8
0
 10
284.282439
 20
1155.750000
 42
0.009319
  0
VERTEX
  8
0
 10
282.908727
 20
1156.995083
 42
0.013256
  0
VERTEX
  8
0
 10
281.639271
 20
1158.045312
 42
0.009237
  0
VERTEX
  8
0
 10
280.553673
 20
1158.864076
 42
0.158229
  0
VERTEX
  8
0
 10
280.134910
 20
1159.000000
 42
-0.162551
  0
VERTEX
  8
0
 10
279.780095
 20
1159.118482
 42
-0.027061
  0
VERTEX
  8
0
 10
279.221756
 20
1159.587500
 42
-0.027243
  0
VERTEX
  8
0
 10
278.602728
 20
1160.234197
 42
-0.021140
  0
VERTEX
  8
0
 10
278.000000
 20
1161.000000
 42
0.024702
  0
VERTEX
  8
0
 10
277.388505
 20
1161.765660
 42
0.030445
  0
VERTEX
  8
0
 10
276.743234
 20
1162.412500
 42
0.031553
  0
VERTEX
  8
0
 10
276.150732
 20
1162.874869
 42
0.151025
  0
VERTEX
  8
0
 10
275.745907
 20
1163.000000
 42
-0.156877
  0
VERTEX
  8
0
 10
275.273106
 20
1163.152086
 42
-0.012499
  0
VERTEX
  8
0
 10
274.211688
 20
1163.954688
 42
-0.015965
  0
VERTEX
  8
0
 10
272.975571
 20
1165.005091
 42
-0.011542
  0
VERTEX
  8
0
 10
271.664094
 20
1166.250000
 42
0.009340
  0
VERTEX
  8
0
 10
270.174694
 20
1167.676323
 42
0.005975
  0
VERTEX
  8
0
 10
268.394335
 20
1169.279687
 42
0.006003
  0
VERTEX
  8
0
 10
266.611686
 20
1170.809389
 42
0.011148
  0
VERTEX
  8
0
 10
265.123844
 20
1172.000000
 42
-0.004361
  0
VERTEX
  8
0
 10
263.660761
 20
1173.138569
 42
-0.002702
  0
VERTEX
  8
0
 10
261.961373
 20
1174.500000
 42
-0.002710
  0
VERTEX
  8
0
 10
260.297913
 20
1175.862468
 42
-0.004882
  0
VERTEX
  8
0
 10
258.951318
 20
1177.000000
 42
-0.001198
  0
VERTEX
  8
0
 10
253.716169
 20
1181.532612
 42
-0.002143
  0
VERTEX
  8
0
 10
249.438267
 20
1185.286750
 42
-0.002579
  0
VERTEX
  8
0
 10
245.874904
 20
1188.473911
 42
-0.004065
  0
VERTEX
  8
0
 10
242.852926
 20
1191.250000
 42
0.008170
  0
VERTEX
  8
0
 10
241.262888
 20
1192.686769
 42
0.011838
  0
VERTEX
  8
0
 10
239.809034
 20
1193.898438
 42
0.007566
  0
VERTEX
  8
0
 10
238.565404
 20
1194.855641
 42
0.161597
  0
VERTEX
  8
0
 10
238.130404
 20
1195.000000
 42
-0.169210
  0
VERTEX
  8
0
 10
237.681669
 20
1195.156337
 42
-0.005015
  0
VERTEX
  8
0
 10
236.108770
 20
1196.429625
 42
-0.009488
  0
VERTEX
  8
0
 10
234.277847
 20
1198.001835
 42
-0.006343
  0
VERTEX
  8
0
 10
232.240206
 20
1199.866809
 42
0.004782
  0
VERTEX
  8
0
 10
229.987823
 20
1201.941287
 42
0.003742
  0
VERTEX
  8
0
 10
227.505054
 20
1204.150930
 42
0.003783
  0
VERTEX
  8
0
 10
225.163112
 20
1206.172902
 42
0.009236
  0
VERTEX
  8
0
 10
223.399921
 20
1207.616809
 42
-0.004365
  0
VERTEX
  8
0
 10
221.797738
 20
1208.902997
 42
-0.003004
  0
VERTEX
  8
0
 10
220.003417
 20
1210.387438
 42
-0.003028
  0
VERTEX
  8
0
 10
218.293842
 20
1211.836859
 42
-0.006166
  0
VERTEX
  8
0
 10
216.971993
 20
1213.000000
 42
0.004375
  0
VERTEX
  8
0
 10
214.035518
 20
1215.602628
 42
0.010511
  0
VERTEX
  8
0
 10
211.803751
 20
1217.465040
 42
0.008029
  0
VERTEX
  8
0
 10
210.085158
 20
1218.794306
 42
0.161967
  0
VERTEX
  8
0
 10
209.466830
 20
1219.000000
 42
-0.184805
  0
VERTEX
  8
0
 10
209.133586
 20
1219.127526
 42
-0.002530
  0
VERTEX
  8
0
 10
207.490800
 20
1220.615625
 42
-0.006741
  0
VERTEX
  8
0
 10
205.601472
 20
1222.391929
 42
-0.004335
  0
VERTEX
  8
0
 10
203.456522
 20
1224.500000
 42
0.006142
  0
VERTEX
  8
0
 10
201.296065
 20
1226.608021
 42
0.009265
  0
VERTEX
  8
0
 10
199.358220
 20
1228.385644
 42
0.004685
  0
VERTEX
  8
0
 10
197.688889
 20
1229.833310
 42
0.176577
  0
VERTEX
  8
0
 10
197.228261
 20
1230.004319
 42
-0.163323
  0
VERTEX
  8
0
 10
196.768124
 20
1230.161782
 42
-0.005570
  0
VERTEX
  8
0
 10
195.245177
 20
1231.355128
 42
-0.009950
  0
VERTEX
  8
0
 10
193.468726
 20
1232.838356
 42
-0.006721
  0
VERTEX
  8
0
 10
191.500000
 20
1234.596751
 42
0.005066
  0
VERTEX
  8
0
 10
189.329814
 20
1236.548031
 42
0.003994
  0
VERTEX
  8
0
 10
186.942257
 20
1238.617767
 42
0.004038
  0
VERTEX
  8
0
 10
184.693365
 20
1240.504886
 42
0.009970
  0
VERTEX
  8
0
 10
183.005555
 20
1241.842432
 42
-0.013962
  0
VERTEX
  8
0
 10
181.331021
 20
1243.191356
 42
-0.005687
  0
VERTEX
  8
0
 10
179.126671
 20
1245.114652
 42
-0.005622
  0
VERTEX
  8
0
 10
176.802751
 20
1247.236724
 42
-0.007140
  0
VERTEX
  8
0
 10
174.707936
 20
1249.250000
 42
0.009436
  0
VERTEX
  8
0
 10
172.796969
 20
1251.069777
 42
0.013492
  0
VERTEX
  8
0
 10
171.029546
 20
1252.604687
 42
0.009350
  0
VERTEX
  8
0
 10
169.515676
 20
1253.802638
 42
0.164132
  0
VERTEX
  8
0
 10
168.930642
 20
1254.000000
 42
-0.166221
  0
VERTEX
  8
0
 10
168.335478
 20
1254.203480
 42
-0.007877
  0
VERTEX
  8
0
 10
166.661661
 20
1255.542187
 42
-0.012225
  0
VERTEX
  8
0
 10
164.707232
 20
1257.238515
 42
-0.008426
  0
VERTEX
  8
0
 10
162.574365
 20
1259.250000
 42
0.005730
  0
VERTEX
  8
0
 10
158.575577
 20
1263.062161
 42
0.011476
  0
VERTEX
  8
0
 10
155.314241
 20
1265.963802
 42
0.009831
  0
VERTEX
  8
0
 10
151.616007
 20
1268.981979
 42
0.003166
  0
VERTEX
  8
0
 10
146.017571
 20
1273.313478
 42
-0.008445
  0
VERTEX
  8
0
 10
143.621923
 20
1275.207753
 42
-0.005701
  0
VERTEX
  8
0
 10
140.951161
 20
1277.445209
 42
-0.005743
  0
VERTEX
  8
0
 10
138.417563
 20
1279.668392
 42
-0.011369
  0
VERTEX
  8
0
 10
136.468950
 20
1281.500000
 42
0.006715
  0
VERTEX
  8
0
 10
134.678728
 20
1283.214386
 42
0.005002
  0
VERTEX
  8
0
 10
132.659463
 20
1285.059375
 42
0.005057
  0
VERTEX
  8
0
 10
130.720282
 20
1286.760890
 42
0.011432
  0
VERTEX
  8
0
 10
129.210454
 20
1288.000000
 42
-0.013571
  0
VERTEX
  8
0
 10
127.986975
 20
1289.012894
 42
-0.018905
  0
VERTEX
  8
0
 10
126.953223
 20
1289.988481
 42
-0.015589
  0
VERTEX
  8
0
 10
126.168703
 20
1290.838485
 42
-0.177381
  0
VERTEX
  8
0
 10
126.009074
 20
1291.258658
 42
0.141883
  0
VERTEX
  8
0
 10
125.874516
 20
1291.703326
 42
0.012116
  0
VERTEX
  8
0
 10
125.194853
 20
1292.696875
 42
0.015262
  0
VERTEX
  8
0
 10
124.303977
 20
1293.857380
 42
0.011228
  0
VERTEX
  8
0
 10
123.250000
 20
1295.089365
 42
-0.038879
  0
VERTEX
  8
0
 10
120.681782
 20
1298.450771
 42
-0.018512
  0
VERTEX
  8
0
 10
117.892103
 20
1303.129207
 42
-0.015123
  0
VERTEX
  8
0
 10
115.539926
 20
1307.754977
 42
-0.110456
  0
VERTEX
  8
0
 10
115.000229
 20
1310.166667
 42
0.065017
  0
VERTEX
  8
0
 10
114.913140
 20
1310.832857
 42
0.064091
  0
VERTEX
  8
0
 10
114.657810
 20
1311.457836
 42
0.069720
  0
VERTEX
  8
0
 10
114.280423
 20
1311.949072
 42
0.114182
  0
VERTEX
  8
0
 10
113.834868
 20
1312.221711
 42
-0.272394
  0
VERTEX
  8
0
 10
113.291749
 20
1312.844511
 42
-0.019358
  0
VERTEX
  8
0
 10
112.941884
 20
1315.214444
 42
-0.018868
  0
VERTEX
  8
0
 10
112.701282
 20
1318.639874
 42
-0.006682
  0
VERTEX
  8
0
 10
112.607740
 20
1323.555044
 42
-0.021162
  0
VERTEX
  8
0
 10
112.917800
 20
1332.010671
 42
-0.050997
  0
VERTEX
  8
0
 10
114.042855
 20
1338.162770
 42
-0.053512
  0
VERTEX
  8
0
 10
116.350862
 20
1343.782372
 42
-0.025398
  0
VERTEX
  8
0
 10
120.429279
 20
1350.473289
 42
-0.005862
  0
VERTEX
  8
0
 10
124.211472
 20
1355.885737
 42
-0.020361
  0
VERTEX
  8
0
 10
126.836322
 20
1359.251413
 42
-0.015053
  0
VERTEX
  8
0
 10
130.085239
 20
1362.858708
 42
-0.002146
  0
VERTEX
  8
0
 10
137.000000
 20
1370.024516
 42
0.002887
  0
VERTEX
  8
0
 10
140.796997
 20
1373.971042
 42
0.003387
  0
VERTEX
  8
0
 10
144.349467
 20
1377.757371
 42
0.002985
  0
VERTEX
  8
0
 10
147.309852
 20
1380.994341
 42
0.020831
  0
VERTEX
  8
0
 10
148.679037
 20
1382.642609
 42
-0.016535
  0
VERTEX
  8
0
 10
149.904617
 20
1384.144051
 42
-0.004158
  0
VERTEX
  8
0
 10
152.001328
 20
1386.506070
 42
-0.004240
  0
VERTEX
  8
0
 10
154.444975
 20
1389.167521
 42
-0.004263
  0
VERTEX
  8
0
 10
156.929037
 20
1391.782308
 42
0.007176
  0
VERTEX
  8
0
 10
159.255306
 20
1394.259747
 42
0.010618
  0
VERTEX
  8
0
 10
161.216655
 20
1396.503448
 42
0.006107
  0
VERTEX
  8
0
 10
162.788774
 20
1398.428168
 42
0.169776
  0
VERTEX
  8
0
 10
163.000000
 20
1399.032308
 42
-0.102445
  0
VERTEX
  8
0
 10
163.076461
 20
1399.401570
 42
-0.098684
  0
VERTEX
  8
0
 10
163.293750
 20
1399.715741
 42
-0.097107
  0
VERTEX
  8
0
 10
163.618312
 20
1399.926244
 42
-0.095733
  0
VERTEX
  8
0
 10
164.000000
 20
1400.000000
 42
0.100685
  0
VERTEX
  8
0
 10
164.381615
 20
1400.077633
 42
0.098317
  0
VERTEX
  8
0
 10
164.706250
 20
1400.298488
 42
0.097548
  0
VERTEX
  8
0
 10
164.923717
 20
1400.628311
 42
0.097415
  0
VERTEX
  8
0
 10
165.000000
 20
1401.016129
 42
-0.177432
  0
VERTEX
  8
0
 10
165.234948
 20
1401.657362
 42
-0.004905
  0
VERTEX
  8
0
 10
167.203125
 20
1403.936895
 42
-0.009519
  0
VERTEX
  8
0
 10
169.625882
 20
1406.584532
 42
-0.006321
  0
VERTEX
  8
0
 10
172.500000
 20
1409.532258
 42
0.004516
  0
VERTEX
  8
0
 10
175.375204
 20
1412.459878
 42
0.006990
  0
VERTEX
  8
0
 10
177.799465
 20
1415.044708
 42
0.002746
  0
VERTEX
  8
0
 10
179.823627
 20
1417.288952
 42
0.181034
  0
VERTEX
  8
0
 10
180.008817
 20
1417.766129
 42
-0.177992
  0
VERTEX
  8
0
 10
180.193100
 20
1418.249393
 42
-0.002323
  0
VERTEX
  8
0
 10
182.362454
 20
1420.716597
 42
-0.006356
  0
VERTEX
  8
0
 10
184.945269
 20
1423.553191
 42
-0.004087
  0
VERTEX
  8
0
 10
188.008817
 20
1426.779733
 42
0.005467
  0
VERTEX
  8
0
 10
191.071352
 20
1430.023081
 42
0.008321
  0
VERTEX
  8
0
 10
193.652590
 20
1432.912311
 42
0.003861
  0
VERTEX
  8
0
 10
195.773237
 20
1435.405677
 42
0.176054
  0
VERTEX
  8
0
 10
196.000000
 20
1436.029733
 42
-0.102166
  0
VERTEX
  8
0
 10
196.076451
 20
1436.399981
 42
-0.098628
  0
VERTEX
  8
0
 10
196.293750
 20
1436.714984
 42
-0.097178
  0
VERTEX
  8
0
 10
196.618316
 20
1436.926038
 42
-0.095997
  0
VERTEX
  8
0
 10
197.000000
 20
1437.000000
 42
0.104683
  0
VERTEX
  8
0
 10
197.381561
 20
1437.080771
 42
0.099103
  0
VERTEX
  8
0
 10
197.706250
 20
1437.310018
 42
0.096520
  0
VERTEX
  8
0
 10
197.923863
 20
1437.652519
 42
0.093666
  0
VERTEX
  8
0
 10
198.000000
 20
1438.055380
 42
-0.169576
  0
VERTEX
  8
0
 10
198.223878
 20
1438.696509
 42
-0.008098
  0
VERTEX
  8
0
 10
199.689063
 20
1440.478631
 42
-0.012500
  0
VERTEX
  8
0
 10
201.546936
 20
1442.557587
 42
-0.008605
  0
VERTEX
  8
0
 10
203.750000
 20
1444.822723
 42
0.007105
  0
VERTEX
  8
0
 10
206.313938
 20
1447.443131
 42
0.004300
  0
VERTEX
  8
0
 10
209.278154
 20
1450.614203
 42
0.004307
  0
VERTEX
  8
0
 10
212.167493
 20
1453.813852
 42
0.007554
  0
VERTEX
  8
0
 10
214.494779
 20
1456.517343
 42
-0.006760
  0
VERTEX
  8
0
 10
216.753177
 20
1459.149255
 42
-0.004448
  0
VERTEX
  8
0
 10
219.419188
 20
1462.118836
 42
-0.004476
  0
VERTEX
  8
0
 10
222.065444
 20
1464.962635
 42
-0.008612
  0
VERTEX
  8
0
 10
224.244779
 20
1467.185076
 42
0.010415
  0
VERTEX
  8
0
 10
226.066445
 20
1469.056227
 42
0.014716
  0
VERTEX
  8
0
 10
227.603154
 20
1470.802195
 42
0.010790
  0
VERTEX
  8
0
 10
228.791467
 20
1472.299868
 42
0.163727
  0
VERTEX
  8
0
 10
229.000000
 20
1472.919629
 42
-0.179216
  0
VERTEX
  8
0
 10
229.480866
 20
1474.218121
 42
-0.005890
  0
VERTEX
  8
0
 10
233.193202
 20
1478.441293
 42
-0.008928
  0
VERTEX
  8
0
 10
238.320277
 20
1483.936568
 42
-0.003473
  0
VERTEX
  8
0
 10
245.598818
 20
1491.359877
 42
-0.003975
  0
VERTEX
  8
0
 10
251.304756
 20
1497.008478
 42
-0.020800
  0
VERTEX
  8
0
 10
254.594810
 20
1499.957575
 42
-0.037712
  0
VERTEX
  8
0
 10
256.838223
 20
1501.538336
 42
-0.135427
  0
VERTEX
  8
0
 10
258.511431
 20
1502.000000
 42
0.065375
  0
VERTEX
  8
0
 10
259.080499
 20
1502.074725
 42
0.082791
  0
VERTEX
  8
0
 10
259.562733
 20
1502.293750
 42
0.099053
  0
VERTEX
  8
0
 10
259.885300
 20
1502.618650
 42
0.147131
  0
VERTEX
  8
0
 10
260.000000
 20
1503.000000
 42
-0.191087
  0
VERTEX
  8
0
 10
260.151477
 20
1503.381882
 42
-0.088204
  0
VERTEX
  8
0
 10
260.587500
 20
1503.706250
 42
-0.068025
  0
VERTEX
  8
0
 10
261.234582
 20
1503.926307
 42
-0.048028
  0
VERTEX
  8
0
 10
262.000000
 20
1504.000000
 42
0.044568
  0
VERTEX
  8
0
 10
262.765584
 20
1504.068376
 42
0.064411
  0
VERTEX
  8
0
 10
263.412500
 20
1504.273319
 42
0.084287
  0
VERTEX
  8
0
 10
263.849874
 20
1504.574873
 42
0.202450
  0
VERTEX
  8
0
 10
264.000000
 20
1504.930449
 42
-0.313684
  0
VERTEX
  8
0
 10
264.629014
 20
1505.834418
 42
-0.052346
  0
VERTEX
  8
0
 10
266.793999
 20
1506.388033
 42
-0.034671
  0
VERTEX
  8
0
 10
270.218684
 20
1506.650319
 42
-0.012331
  0
VERTEX
  8
0
 10
275.129605
 20
1506.564189
 42
-0.016240
  0
VERTEX
  8
0
 10
279.386892
 20
1506.245683
 42
-0.085637
  0
VERTEX
  8
0
 10
281.630892
 20
1505.605245
 42
-0.073923
  0
VERTEX
  8
0
 10
283.678000
 20
1504.215402
 42
-0.010344
  0
SEQEND
  0
POLYLINE
  8
0
 66
1
 70
1
  0
VERTEX
  8
0
 10
123.912108
 20
1226.279031
 42
-0.018825
  0
VERTEX
  8
0
 10
126.169929
 20
1225.489466
 42
-0.019537
  0
VERTEX
  8
0
 10
128.333637
 20
1224.541006
 42
-0.019666
  0
VERTEX
  8
0
 10
130.134378
 20
1223.576995
 42
-0.075678
  0
VERTEX
  8
0
 10
131.117295
 20
1222.779031
 42
0.044457
  0
VERTEX
  8
0
 10
131.856697
 20
1222.098274
 42
0.038627
  0
VERTEX
  8
0
 10
132.739117
 20
1221.522590
 42
0.040514
  0
VERTEX
  8
0
 10
133.625522
 20
1221.126899
 42
0.084921
  0
VERTEX
  8
0
 10
134.367295
 20
1221.000000
 42
-0.046078
  0
VERTEX
  8
0
 10
134.992223
 20
1220.942287
 42
-0.066017
  0
VERTEX
  8
0
 10
135.520393
 20
1220.769585
 42
-0.086084
  0
VERTEX
  8
0
 10
135.876922
 20
1220.515266
 42
-0.197365
  0
VERTEX
  8
0
 10
136.000000
 20
1220.215608
 42
0.196026
  0
VERTEX
  8
0
 10
136.164519
 20
1219.812095
 42
0.023031
  0
VERTEX
  8
0
 10
136.889203
 20
1219.136365
 42
0.024823
  0
VERTEX
  8
0
 10
137.867639
 20
1218.385171
 42
0.017893
  0
VERTEX
  8
0
 10
139.027075
 20
1217.643078
 42
-0.019388
  0
VERTEX
  8
0
 10
140.362387
 20
1216.782778
 42
-0.011717
  0
VERTEX
  8
0
 10
141.878017
 20
1215.667136
 42
-0.011730
  0
VERTEX
  8
0
 10
143.333495
 20
1214.486695
 42
-0.020129
  0
VERTEX
  8
0
 10
144.481621
 20
1213.427470
 42
0.011103
  0
VERTEX
  8
0
 10
145.453736
 20
1212.497596
 42
0.015481
  0
VERTEX
  8
0
 10
146.366422
 20
1211.713069
 42
0.011837
  0
VERTEX
  8
0
 10
147.149654
 20
1211.110957
 42
0.159257
  0
VERTEX
  8
0
 10
147.489178
 20
1211.000000
 42
-0.183454
  0
VERTEX
  8
0
 10
148.148051
 20
1210.749835
 42
-0.002881
  0
VERTEX
  8
0
 10
151.193662
 20
1208.015978
 42
-0.005545
  0
VERTEX
  8
0
 10
155.313912
 20
1204.190156
 42
-0.001645
  0
VERTEX
  8
0
 10
161.529502
 20
1198.250000
 42
0.009155
  0
VERTEX
  8
0
 10
163.285280
 20
1196.621769
 42
0.013100
  0
VERTEX
  8
0
 10
164.905150
 20
1195.248437
 42
0.008966
  0
VERTEX
  8
0
 10
166.291367
 20
1194.174612
 42
0.161676
  0
VERTEX
  8
0
 10
166.817257
 20
1194.000000
 42
-0.173193
  0
VERTEX
  8
0
 10
167.365210
 20
1193.804327
 42
-0.005299
  0
VERTEX
  8
0
 10
169.238426
 20
1192.237500
 42
-0.009861
  0
VERTEX
  8
0
 10
171.417931
 20
1190.299209
 42
-0.006594
  0
VERTEX
  8
0
 10
173.837989
 20
1188.000000
 42
0.005021
  0
VERTEX
  8
0
 10
176.243200
 20
1185.700458
 42
0.007706
  0
VERTEX
  8
0
 10
178.376360
 20
1183.762500
 42
0.003316
  0
VERTEX
  8
0
 10
180.222104
 20
1182.158485
 42
0.179081
  0
VERTEX
  8
0
 10
180.650409
 20
1182.000000
 42
-0.174022
  0
VERTEX
  8
0
 10
181.056353
 20
1181.854302
 42
-0.007044
  0
VERTEX
  8
0
 10
182.265220
 20
1180.829302
 42
-0.011612
  0
VERTEX
  8
0
 10
183.673717
 20
1179.541704
 42
-0.007891
  0
VERTEX
  8
0
 10
185.218613
 20
1178.014646
 42
0.007229
  0
VERTEX
  8
0
 10
186.815102
 20
1176.432407
 42
0.008373
  0
VERTEX
  8
0
 10
188.381509
 20
1174.973990
 42
0.007597
  0
VERTEX
  8
0
 10
189.744439
 20
1173.783968
 42
0.048130
  0
VERTEX
  8
0
 10
190.500015
 20
1173.259930
 42
-0.042298
  0
VERTEX
  8
0
 10
192.351868
 20
1172.007227
 42
-0.005399
  0
VERTEX
  8
0
 10
196.062328
 20
1168.944263
 42
-0.006784
  0
VERTEX
  8
0
 10
200.051882
 20
1165.484078
 42
-0.009239
  0
VERTEX
  8
0
 10
203.547848
 20
1162.250000
 42
0.007791
  0
VERTEX
  8
0
 10
204.886153
 20
1161.004739
 42
0.011402
  0
VERTEX
  8
0
 10
206.105305
 20
1159.954688
 42
0.006983
  0
VERTEX
  8
0
 10
207.149648
 20
1159.120059
 42
0.166586
  0
VERTEX
  8
0
 10
207.500000
 20
1159.000000
 42
-0.169481
  0
VERTEX
  8
0
 10
207.847996
 20
1158.878554
 42
-0.007289
  0
VERTEX
  8
0
 10
208.865592
 20
1158.045312
 42
-0.011750
  0
VERTEX
  8
0
 10
210.052738
 20
1156.995257
 42
-0.008033
  0
VERTEX
  8
0
 10
211.353079
 20
1155.750000
 42
0.009935
  0
VERTEX
  8
0
 10
212.853841
 20
1154.323720
 42
0.006312
  0
VERTEX
  8
0
 10
214.654692
 20
1152.720313
 42
0.006339
  0
VERTEX
  8
0
 10
216.462694
 20
1151.190755
 42
0.011670
  0
VERTEX
  8
0
 10
217.977648
 20
1150.000000
 42
-0.009577
  0
VERTEX
  8
0
 10
219.526304
 20
1148.793207
 42
-0.004746
  0
VERTEX
  8
0
 10
221.446729
 20
1147.206250
 42
-0.004708
  0
VERTEX
  8
0
 10
223.407568
 20
1145.522502
 42
-0.006879
  0
VERTEX
  8
0
 10
225.099662
 20
1144.000000
 42
0.005627
  0
VERTEX
  8
0
 10
229.783159
 20
1139.764657
 42
0.009520
  0
VERTEX
  8
0
 10
233.812425
 20
1136.336972
 42
0.009907
  0
VERTEX
  8
0
 10
237.083939
 20
1133.766087
 42
0.053528
  0
VERTEX
  8
0
 10
239.020747
 20
1132.607003
 42
-0.057756
  0
VERTEX
  8
0
 10
239.804861
 20
1132.128727
 42
-0.041275
  0
VERTEX
  8
0
 10
240.560650
 20
1131.430830
 42
-0.041793
  0
VERTEX
  8
0
 10
241.178471
 20
1130.633397
 42
-0.067174
  0
VERTEX
  8
0
 10
241.545385
 20
1129.857003
 42
0.042237
  0
VERTEX
  8
0
 10
241.838934
 20
1129.146419
 42
0.051723
  0
VERTEX
  8
0
 10
242.232239
 20
1128.545495
 42
0.060398
  0
VERTEX
  8
0
 10
242.660485
 20
1128.132508
 42
0.163076
  0
VERTEX
  8
0
 10
243.055957
 20
1128.000000
 42
-0.146913
  0
VERTEX
  8
0
 10
244.080983
 20
1127.692177
 42
-0.021048
  0
VERTEX
  8
0
 10
245.877037
 20
1126.394804
 42
-0.016776
  0
VERTEX
  8
0
 10
248.357662
 20
1124.300295
 42
-0.005250
  0
VERTEX
  8
0
 10
251.934192
 20
1121.000000
 42
0.006521
  0
VERTEX
  8
0
 10
253.592596
 20
1119.477472
 42
0.004488
  0
VERTEX
  8
0
 10
255.509644
 20
1117.793750
 42
0.004525
  0
VERTEX
  8
0
 10
257.383780
 20
1116.206640
 42
0.009199
  0
VERTEX
  8
0
 10
258.890621
 20
1115.000000
 42
-0.007634
  0
VERTEX
  8
0
 10
262.406567
 20
1112.202546
 42
-0.005016
  0
VERTEX
  8
0
 10
266.371840
 20
1108.880366
 42
-0.004972
  0
VERTEX
  8
0
 10
270.067597
 20
1105.656188
 42
-0.013069
  0
VERTEX
  8
0
 10
272.632728
 20
1103.250000
 42
0.012709
  0
VERTEX
  8
0
 10
273.550111
 20
1102.388218
 42
0.017234
  0
VERTEX
  8
0
 10
274.423667
 20
1101.660938
 42
0.014232
  0
VERTEX
  8
0
 10
275.175672
 20
1101.111083
 42
0.151874
  0
VERTEX
  8
0
 10
275.532946
 20
1101.000000
 42
-0.177864
  0
VERTEX
  8
0
 10
275.916914
 20
1100.858950
 42
-0.006550
  0
VERTEX
  8
0
 10
277.102483
 20
1099.825000
 42
-0.011212
  0
VERTEX
  8
0
 10
278.482110
 20
1098.532729
 42
-0.007563
  0
VERTEX
  8
0
 10
280.000000
 20
1097.000000
 42
0.013010
  0
VERTEX
  8
0
 10
281.550663
 20
1095.467921
 42
0.017724
  0
VERTEX
  8
0
 10
283.031039
 20
1094.175000
 42
0.014680
  0
VERTEX
  8
0
 10
284.308348
 20
1093.197710
 42
0.157214
  0
VERTEX
  8
0
 10
284.921599
 20
1093.000000
 42
-0.091591
  0
VERTEX
  8
0
 10
285.333285
 20
1092.923949
 42
-0.095880
  0
VERTEX
  8
0
 10
285.683220
 20
1092.706250
 42
-0.099487
  0
VERTEX
  8
0
 10
285.917390
 20
1092.381532
 42
-0.107021
  0
VERTEX
  8
0
 10
286.000000
 20
1092.000000
 42
0.101258
  0
VERTEX
  8
0
 10
286.078082
 20
1091.618393
 42
0.098440
  0
VERTEX
  8
0
 10
286.300136
 20
1091.293750
 42
0.097407
  0
VERTEX
  8
0
 10
286.631771
 20
1091.076262
 42
0.096862
  0
VERTEX
  8
0
 10
287.021739
 20
1091.000000
 42
-0.165491
  0
VERTEX
  8
0
 10
287.640659
 20
1090.789381
 42
-0.008582
  0
VERTEX
  8
0
 10
289.310453
 20
1089.457813
 42
-0.012846
  0
VERTEX
  8
0
 10
291.260163
 20
1087.761413
 42
-0.008914
  0
VERTEX
  8
0
 10
293.378324
 20
1085.750000
 42
0.007447
  0
VERTEX
  8
0
 10
295.846755
 20
1083.392152
 42
0.004324
  0
VERTEX
  8
0
 10
298.877249
 20
1080.630873
 42
0.004321
  0
VERTEX
  8
0
 10
301.963512
 20
1077.914932
 42
0.007265
  0
VERTEX
  8
0
 10
304.606585
 20
1075.695526
 42
-0.000943
  0
VERTEX
  8
0
 10
312.403047
 20
1069.315116
 42
-0.005361
  0
VERTEX
  8
0
 10
316.508640
 20
1065.867869
 42
-0.009130
  0
VERTEX
  8
0
 10
319.488130
 20
1063.215207
 42
-0.007278
  0
VERTEX
  8
0
 10
322.606361
 20
1060.250000
 42
0.011333
  0
VERTEX
  8
0
 10
324.346381
 20
1058.622033
 42
0.015688
  0
VERTEX
  8
0
 10
325.983470
 20
1057.248437
 42
0.012196
  0
VERTEX
  8
0
 10
327.388013
 20
1056.197583
 42
0.155727
  0
VERTEX
  8
0
 10
328.007018
 20
1056.000000
 42
-0.142669
  0
VERTEX
  8
0
 10
328.599549
 20
1055.827415
 42
-0.016932
  0
VERTEX
  8
0
 10
329.741003
 20
1055.045312
 42
-0.019125
  0
VERTEX
  8
0
 10
331.059568
 20
1053.994614
 42
-0.014601
  0
VERTEX
  8
0
 10
332.421929
 20
1052.750000
 42
0.017282
  0
VERTEX
  8
0
 10
334.144908
 20
1051.192793
 42
0.006530
  0
VERTEX
  8
0
 10
336.654689
 20
1049.132812
 42
0.006459
  0
VERTEX
  8
0
 10
339.445460
 20
1046.961026
 42
0.007829
  0
VERTEX
  8
0
 10
342.119678
 20
1045.000000
 42
-0.028126
  0
VERTEX
  8
0
 10
348.912162
 20
1039.581923
 42
-0.011437
  0
VERTEX
  8
0
 10
357.549532
 20
1031.496235
 42
-0.005035
  0
VERTEX
  8
0
 10
366.013828
 20
1023.032516
 42
-0.196305
  0
VERTEX
  8
0
 10
367.000000
 20
1020.617479
 42
0.051260
  0
VERTEX
  8
0
 10
367.063617
 20
1019.998582
 42
0.071195
  0
VERTEX
  8
0
 10
367.252919
 20
1019.475135
 42
0.091253
  0
VERTEX
  8
0
 10
367.532362
 20
1019.123257
 42
0.181358
  0
VERTEX
  8
0
 10
367.861001
 20
1019.000000
 42
-0.278099
  0
VERTEX
  8
0
 10
368.692888
 20
1018.498522
 42
-0.001581
  0
VERTEX
  8
0
 10
373.113381
 20
1010.062267
 42
-0.006667
  0
VERTEX
  8
0
 10
377.079596
 20
1002.179363
 42
-0.023900
  0
VERTEX
  8
0
 10
379.300195
 20
997.000000
 42
0.006900
  0
VERTEX
  8
0
 10
379.721992
 20
995.915870
 42
0.005055
  0
VERTEX
  8
0
 10
380.218708
 20
994.724298
 42
0.005108
  0
VERTEX
  8
0
 10
380.712116
 20
993.605266
 42
0.011273
  0
VERTEX
  8
0
 10
381.116671
 20
992.763569
 42
-0.043657
  0
VERTEX
  8
0
 10
381.455697
 20
991.922888
 42
-0.022088
  0
VERTEX
  8
0
 10
381.740522
 20
990.816190
 42
-0.021757
  0
VERTEX
  8
0
 10
381.935532
 20
989.639400
 42
-0.030188
  0
VERTEX
  8
0
 10
382.000000
 20
988.572586
 42
0.033060
  0
VERTEX
  8
0
 10
382.064833
 20
987.593123
 42
0.038335
  0
VERTEX
  8
0
 10
382.258483
 20
986.679307
 42
0.041867
  0
VERTEX
  8
0
 10
382.540948
 20
985.949190
 42
0.142043
  0
VERTEX
  8
0
 10
382.879943
 20
985.574200
 42
-0.241254
  0
VERTEX
  8
0
 10
383.924995
 20
983.845567
 42
-0.006915
  0
VERTEX
  8
0
 10
384.426172
 20
974.980026
 42
-0.014521
  0
VERTEX
  8
0
 10
384.546964
 20
966.099274
 42
-0.034211
  0
VERTEX
  8
0
 10
383.992424
 20
959.500000
 42
-0.001837
  0
VERTEX
  8
0
 10
382.759860
 20
951.658119
 42
-0.016569
  0
VERTEX
  8
0
 10
382.094638
 20
948.249023
 42
-0.035505
  0
VERTEX
  8
0
 10
381.543889
 20
946.448378
 42
-0.310155
  0
VERTEX
  8
0
 10
380.890594
 20
946.000000
 42
0.210479
  0
VERTEX
  8
0
 10
380.550045
 20
945.849997
 42
0.081319
  0
VERTEX
  8
0
 10
380.261612
 20
945.408514
 42
0.061914
  0
VERTEX
  8
0
 10
380.065329
 20
944.757318
 42
0.042297
  0
VERTEX
  8
0
 10
380.000000
 20
943.986431
 42
-0.033490
  0
VERTEX
  8
0
 10
379.939829
 20
943.089087
 42
-0.021080
  0
VERTEX
  8
0
 10
379.755730
 20
942.054272
 42
-0.021144
  0
VERTEX
  8
0
 10
379.487266
 20
941.047110
 42
-0.035974
  0
VERTEX
  8
0
 10
379.168444
 20
940.236431
 42
-0.003368
  0
VERTEX
  8
0
 10
374.879092
 20
931.432255
 42
-0.007297
  0
VERTEX
  8
0
 10
371.438734
 20
924.737226
 42
-0.002795
  0
VERTEX
  8
0
 10
368.569223
 20
919.419893
 42
-0.274160
  0
VERTEX
  8
0
 10
367.861001
 20
919.000000
 42
0.181358
  0
VERTEX
  8
0
 10
367.532362
 20
918.876743
 42
0.091253
  0
VERTEX
  8
0
 10
367.252919
 20
918.524865
 42
0.071195
  0
VERTEX
  8
0
 10
367.063617
 20
918.001418
 42
0.051260
  0
VERTEX
  8
0
 10
367.000000
 20
917.382521
 42
-0.196305
  0
VERTEX
  8
0
 10
366.013828
 20
914.967484
 42
-0.005035
  0
VERTEX
  8
0
 10
357.549532
 20
906.503765
 42
-0.011437
  0
VERTEX
  8
0
 10
348.912162
 20
898.418077
 42
-0.028126
  0
VERTEX
  8
0
 10
342.119678
 20
893.000000
 42
0.007829
  0
VERTEX
  8
0
 10
339.445460
 20
891.038974
 42
0.006459
  0
VERTEX
  8
0
 10
336.654689
 20
888.867188
 42
0.006530
  0
VERTEX
  8
0
 10
334.144908
 20
886.807207
 42
0.017282
  0
VERTEX
  8
0
 10
332.421929
 20
885.250000
 42
-0.014601
  0
VERTEX
  8
0
 10
331.059568
 20
884.005386
 42
-0.019125
  0
VERTEX
  8
0
 10
329.741003
 20
882.954687
 42
-0.016932
  0
VERTEX
  8
0
 10
328.599549
 20
882.172585
 42
-0.142669
  0
VERTEX
  8
0
 10
328.007018
 20
882.000000
 42
0.155727
  0
VERTEX
  8
0
 10
327.388013
 20
881.802417
 42
0.012196
  0
VERTEX
  8
0
 10
325.983470
 20
880.751562
 42
0.015688
  0
VERTEX
  8
0
 10
324.346381
 20
879.377967
 42
0.011333
  0
VERTEX
  8
0
 10
322.606361
 20
877.750000
 42
-0.007278
  0
VERTEX
  8
0
 10
319.488130
 20
874.784793
 42
-0.009130
  0
VERTEX
  8
0
 10
316.508640
 20
872.132131
 42
-0.005361
  0
VERTEX
  8
0
 10
312.403047
 20
868.684884
 42
-0.000943
  0
VERTEX
  8
0
 10
304.606585
 20
862.304474
 42
0.007265
  0
VERTEX
  8
0
 10
301.963512
 20
860.085068
 42
0.004321
  0
VERTEX
  8
0
 10
298.877249
 20
857.369127
 42
0.004324
  0
VERTEX
  8
0
 10
295.846755
 20
854.607848
 42
0.007447
  0
VERTEX
  8
0
 10
293.378324
 20
852.250000
 42
-0.008914
  0
VERTEX
  8
0
 10
291.260163
 20
850.238587
 42
-0.012846
  0
VERTEX
  8
0
 10
289.310453
 20
848.542187
 42
-0.008582
  0
VERTEX
  8
0
 10
287.640659
 20
847.210619
 42
-0.165491
  0
VERTEX
  8
0
 10
287.021739
 20
847.000000
 42
0.096862
  0
VERTEX
  8
0
 10
286.631771
 20
846.923738
 42
0.097407
  0
VERTEX
  8
0
 10
286.300136
 20
846.706250
 42
0.098440
  0
VERTEX
  8
0
 10
286.078082
 20
846.381607
 42
0.101258
  0
VERTEX
  8
0
 10
286.000000
 20
846.000000
 42
-0.107021
  0
VERTEX
  8
0
 10
285.917390
 20
845.618468
 42
-0.099487
  0
VERTEX
  8
0
 10
285.683220
 20
845.293750
 42
-0.095880
  0
VERTEX
  8
0
 10
285.333285
 20
845.076051
 42
-0.091591
  0
VERTEX
  8
0
 10
284.921599
 20
845.000000
 42
0.157214
  0
VERTEX
  8
0
 10
284.308348
 20
844.802290
 42
0.014680
  0
VERTEX
  8
0
 10
283.031039
 20
843.825000
 42
0.017724
  0
VERTEX
  8
0
 10
281.550663
 20
842.532079
 42
0.013010
  0
VERTEX
  8
0
 10
280.000000
 20
841.000000
 42
-0.007563
  0
VERTEX
  8
0
 10
278.482110
 20
839.467271
 42
-0.011212
  0
VERTEX
  8
0
 10
277.102483
 20
838.175000
 42
-0.006550
  0
VERTEX
  8
0
 10
275.916914
 20
837.141050
 42
-0.177864
  0
VERTEX
  8
0
 10
275.532946
 20
837.000000
 42
0.151874
  0
VERTEX
  8
0
 10
275.175672
 20
836.888917
 42
0.014232
  0
VERTEX
  8
0
 10
274.423667
 20
836.339062
 42
0.017234
  0
VERTEX
  8
0
 10
273.550111
 20
835.611782
 42
0.012709
  0
VERTEX
  8
0
 10
272.632728
 20
834.750000
 42
-0.013069
  0
VERTEX
  8
0
 10
270.067597
 20
832.343812
 42
-0.004972
  0
VERTEX
  8
0
 10
266.371840
 20
829.119634
 42
-0.005016
  0
VERTEX
  8
0
 10
262.406567
 20
825.797454
 42
-0.007634
  0
VERTEX
  8
0
 10
258.890621
 20
823.000000
 42
0.009199
  0
VERTEX
  8
0
 10
257.383780
 20
821.793360
 42
0.004525
  0
VERTEX
  8
0
 10
255.509644
 20
820.206250
 42
0.004488
  0
VERTEX
  8
0
 10
253.592596
 20
818.522528
 42
0.006521
  0
VERTEX
  8
0
 10
251.934192
 20
817.000000
 42
-0.005250
  0
VERTEX
  8
0
 10
248.357662
 20
813.699705
 42
-0.016776
  0
VERTEX
  8
0
 10
245.877037
 20
811.605196
 42
-0.021048
  0
VERTEX
  8
0
 10
244.080983
 20
810.307823
 42
-0.146913
  0
VERTEX
  8
0
 10
243.055957
 20
810.000000
 42
0.163076
  0
VERTEX
  8
0
 10
242.660485
 20
809.867492
 42
0.060398
  0
VERTEX
  8
0
 10
242.232239
 20
809.454505
 42
0.051723
  0
VERTEX
  8
0
 10
241.838934
 20
808.853581
 42
0.042237
  0
VERTEX
  8
0
 10
241.545385
 20
808.142997
 42
-0.067174
  0
VERTEX
  8
0
 10
241.178471
 20
807.366603
 42
-0.041793
  0
VERTEX
  8
0
 10
240.560650
 20
806.569170
 42
-0.041275
  0
VERTEX
  8
0
 10
239.804861
 20
805.871273
 42
-0.057756
  0
VERTEX
  8
0
 10
239.020747
 20
805.392997
 42
0.053528
  0
VERTEX
  8
0
 10
237.083939
 20
804.233913
 42
0.009907
  0
VERTEX
  8
0
 10
233.812425
 20
801.663028
 42
0.009520
  0
VERTEX
  8
0
 10
229.783159
 20
798.235343
 42
0.005627
  0
VERTEX
  8
0
 10
225.099662
 20
794.000000
 42
-0.006879
  0
VERTEX
  8
0
 10
223.407568
 20
792.477498
 42
-0.004708
  0
VERTEX
  8
0
 10
221.446729
 20
790.793750
 42
-0.004746
  0
VERTEX
  8
0
 10
219.526304
 20
789.206793
 42
-0.009577
  0
VERTEX
  8
0
 10
217.977648
 20
788.000000
 42
0.011670
  0
VERTEX
  8
0
 10
216.462694
 20
786.809245
 42
0.006339
  0
VERTEX
  8
0
 10
214.654692
 20
785.279688
 42
0.006312
  0
VERTEX
  8
0
 10
212.853841
 20
783.676280
 42
0.009935
  0
VERTEX
  8
0
 10
211.353079
 20
782.250000
 42
-0.008033
  0
VERTEX
  8
0
 10
210.052738
 20
781.004743
 42
-0.011750
  0
VERTEX
  8
0
 10
208.865592
 20
779.954687
 42
-0.007289
  0
VERTEX
  8
0
 10
207.847996
 20
779.121446
 42
-0.169481
  0
VERTEX
  8
0
 10
207.500000
 20
779.000000
 42
0.166586
  0
VERTEX
  8
0
 10
207.149648
 20
778.879941
 42
0.006983
  0
VERTEX
  8
0
 10
206.105305
 20
778.045313
 42
0.011402
  0
VERTEX
  8
0
 10
204.886153
 20
776.995261
 42
0.007791
  0
VERTEX
  8
0
 10
203.547848
 20
775.750000
 42
-0.009239
  0
VERTEX
  8
0
 10
200.051882
 20
772.515922
 42
-0.006784
  0
VERTEX
  8
0
 10
196.062328
 20
769.055737
 42
-0.005399
  0
VERTEX
  8
0
 10
192.351868
 20
765.992773
 42
-0.042298
  0
VERTEX
  8
0
 10
190.500015
 20
764.740070
 42
0.048130
  0
VERTEX
  8
0
 10
189.744439
 20
764.216032
 42
0.007597
  0
VERTEX
  8
0
 10
188.381509
 20
763.026010
 42
0.008373
  0
VERTEX
  8
0
 10
186.815102
 20
761.567593
 42
0.007229
  0
VERTEX
  8
0
 10
185.218613
 20
759.985354
 42
-0.007891
  0
VERTEX
  8
0
 10
183.673717
 20
758.458296
 42
-0.011612
  0
VERTEX
  8
0
 10
182.265220
 20
757.170698
 42
-0.007044
  0
VERTEX
  8
0
 10
181.056353
 20
756.145698
 42
-0.174022
  0
VERTEX
  8
0
 10
180.650409
 20
756.000000
 42
0.179081
  0
VERTEX
  8
0
 10
180.222104
 20
755.841515
 42
0.003316
  0
VERTEX
  8
0
 10
178.376360
 20
754.237500
 42
0.007706
  0
VERTEX
  8
0
 10
176.243200
 20
752.299542
 42
0.005021
  0
VERTEX
  8
0
 10
173.837989
 20
750.000000
 42
-0.006594
  0
VERTEX
  8
0
 10
171.417931
 20
747.700791
 42
-0.009861
  0
VERTEX
  8
0
 10
169.238426
 20
745.762500
 42
-0.005299
  0
VERTEX
  8
0
 10
167.365210
 20
744.195673
 42
-0.173193
  0
VERTEX
  8
0
 10
166.817257
 20
744.000000
 42
0.161676
  0
VERTEX
  8
0
 10
166.291367
 20
743.825388
 42
0.008966
  0
VERTEX
  8
0
 10
164.905150
 20
742.751562
 42
0.013100
  0
VERTEX
  8
0
 10
163.285280
 20
741.378231
 42
0.009155
  0
VERTEX
  8
0
 10
161.529502
 20
739.750000
 42
-0.001645
  0
VERTEX
  8
0
 10
155.313912
 20
733.809844
 42
-0.005545
  0
VERTEX
  8
0
 10
151.193662
 20
729.984022
 42
-0.002881
  0
VERTEX
  8
0
 10
148.148051
 20
727.250165
 42
-0.183454
  0
VERTEX
  8
0
 10
147.489178
 20
727.000000
 42
0.159257
  0
VERTEX
  8
0
 10
147.149654
 20
726.889043
 42
0.011837
  0
VERTEX
  8
0
 10
146.366422
 20
726.286931
 42
0.015481
  0
VERTEX
  8
0
 10
145.453736
 20
725.502404
 42
0.011103
  0
VERTEX
  8
0
 10
144.481621
 20
724.572530
 42
-0.020129
  0
VERTEX
  8
0
 10
143.333495
 20
723.513305
 42
-0.011730
  0
VERTEX
  8
0
 10
141.878017
 20
722.332864
 42
-0.011717
  0
VERTEX
  8
0
 10
140.362387
 20
721.217222
 42
-0.019388
  0
VERTEX
  8
0
 10
139.027075
 20
720.356922
 42
0.017893
  0
VERTEX
  8
0
 10
137.867639
 20
719.614829
 42
0.024823
  0
VERTEX
  8
0
 10
136.889203
 20
718.863635
 42
0.023031
  0
VERTEX
  8
0
 10
136.164519
 20
718.187905
 42
0.196026
  0
VERTEX
  8
0
 10
136.000000
 20
717.784392
 42
-0.197365
  0
VERTEX
  8
0
 10
135.876922
 20
717.484734
 42
-0.086084
  0
VERTEX
  8
0
 10
135.520393
 20
717.230415
 42
-0.066017
  0
VERTEX
  8
0
 10
134.992223
 20
717.057713
 42
-0.046078
  0
VERTEX
  8
0
 10
134.367295
 20
717.000000
 42
0.085775
  0
VERTEX
  8
0
 10
133.625536
 20
716.871809
 42
0.040758
  0
VERTEX
  8
0
 10
132.739117
 20
716.471985
 42
0.038820
  0
VERTEX
  8
0
 10
131.856708
 20
715.890316
 42
0.044459
  0
VERTEX
  8
0
 10
131.117295
 20
715.202501
 42
-0.116136
  0
VERTEX
  8
0
 10
128.190232
 20
713.170267
 42
-0.031613
  0
VERTEX
  8
0
 10
122.795356
 20
711.427602
 42
-0.032493
  0
VERTEX
  8
0
 10
116.773187
 20
710.305141
 42
-0.050555
  0
VERTEX
  8
0
 10
111.497400
 20
710.208658
 42
-0.015079
  0
VERTEX
  8
0
 10
109.273318
 20
710.460815
 42
-0.020612
  0
VERTEX
  8
0
 10
107.291580
 20
710.830176
 42
-0.017936
  0
VERTEX
  8
0
 10
105.708747
 20
711.253539
 42
-0.172620
  0
VERTEX
  8
0
 10
105.157961
 20
711.662847
 42
0.067918
  0
VERTEX
  8
0
 10
104.783009
 20
712.085672
 42
0.028759
  0
VERTEX
  8
0
 10
104.179214
 20
712.546783
 42
0.027801
  0
VERTEX
  8
0
 10
103.468235
 20
712.972109
 42
0.032528
  0
VERTEX
  8
0
 10
102.750000
 20
713.291557
 42
-0.070965
  0
VERTEX
  8
0
 10
102.080995
 20
713.652837
 42
-0.064307
  0
VERTEX
  8
0
 10
101.514062
 20
714.197408
 42
-0.067826
  0
VERTEX
  8
0
 10
101.130495
 20
714.834935
 42
-0.101897
  0
VERTEX
  8
0
 10
101.000000
 20
715.468615
 42
0.063461
  0
VERTEX
  8
0
 10
100.925386
 20
716.054120
 42
0.081424
  0
VERTEX
  8
0
 10
100.706250
 20
716.550156
 42
0.098430
  0
VERTEX
  8
0
 10
100.381366
 20
716.882059
 42
0.151099
  0
VERTEX
  8
0
 10
100.000000
 20
717.000000
 42
-0.148195
  0
VERTEX
  8
0
 10
99.618646
 20
717.115568
 42
-0.098894
  0
VERTEX
  8
0
 10
99.293750
 20
717.440625
 42
-0.082425
  0
VERTEX
  8
0
 10
99.074694
 20
717.926543
 42
-0.064853
  0
VERTEX
  8
0
 10
99.000000
 20
718.500000
 42
0.064853
  0
VERTEX
  8
0
 10
98.925306
 20
719.073457
 42
0.082425
  0
VERTEX
  8
0
 10
98.706250
 20
719.559375
 42
0.098894
  0
VERTEX
  8
0
 10
98.381354
 20
719.884432
 42
0.148195
  0
VERTEX
  8
0
 10
98.000000
 20
720.000000
 42
-0.226478
  0
VERTEX
  8
0
 10
97.617064
 20
720.182831
 42
-0.074992
  0
VERTEX
  8
0
 10
97.293750
 20
720.734375
 42
-0.057076
  0
VERTEX
  8
0
 10
97.073116
 20
721.542644
 42
-0.038131
  0
VERTEX
  8
0
 10
97.000000
 20
722.500000
 42
0.038131
  0
VERTEX
  8
0
 10
96.926884
 20
723.457356
 42
0.057076
  0
VERTEX
  8
0
 10
96.706250
 20
724.265625
 42
0.074992
  0
VERTEX
  8
0
 10
96.382936
 20
724.817169
 42
0.226478
  0
VERTEX
  8
0
 10
96.000000
 20
725.000000
 42
-0.332234
  0
VERTEX
  8
0
 10
95.608967
 20
725.292067
 42
-0.026982
  0
VERTEX
  8
0
 10
95.293750
 20
726.615625
 42
-0.027868
  0
VERTEX
  8
0
 10
95.072146
 20
728.391660
 42
-0.017105
  0
VERTEX
  8
0
 10
95.000000
 20
730.500000
 42
0.017105
  0
VERTEX
  8
0
 10
94.927854
 20
732.608340
 42
0.027868
  0
VERTEX
  8
0
 10
94.706250
 20
734.384375
 42
0.026982
  0
VERTEX
  8
0
 10
94.391033
 20
735.707933
 42
0.332234
  0
VERTEX
  8
0
 10
94.000000
 20
736.000000
 42
-0.412915
  0
VERTEX
  8
0
 10
93.504228
 20
736.493577
 42
-0.000036
  0
VERTEX
  8
0
 10
93.251073
 20
794.500000
 42
-0.000794
  0
VERTEX
  8
0
 10
93.057377
 20
866.140275
 42
-0.000279
  0
VERTEX
  8
0
 10
93.000000
 20
969.000000
 42
-0.000279
  0
VERTEX
  8
0
 10
93.057377
 20
1071.859725
 42
-0.000794
  0
VERTEX
  8
0
 10
93.251073
 20
1143.500000
 42
-0.000036
  0
VERTEX
  8
0
 10
93.504228
 20
1201.506423
 42
-0.412915
  0
VERTEX
  8
0
 10
94.000000
 20
1202.000000
 42
0.332234
  0
VERTEX
  8
0
 10
94.391033
 20
1202.292067
 42
0.026982
  0
VERTEX
  8
0
 10
94.706250
 20
1203.615625
 42
0.027868
  0
VERTEX
  8
0
 10
94.927854
 20
1205.391660
 42
0.017105
  0
VERTEX
  8
0
 10
95.000000
 20
1207.500000
 42
-0.017105
  0
VERTEX
  8
0
 10
95.072146
 20
1209.608340
 42
-0.027868
  0
VERTEX
  8
0
 10
95.293750
 20
1211.384375
 42
-0.026982
  0
VERTEX
  8
0
 10
95.608967
 20
1212.707933
 42
-0.332234
  0
VERTEX
  8
0
 10
96.000000
 20
1213.000000
 42
0.226478
  0
VERTEX
  8
0
 10
96.382936
 20
1213.182831
 42
0.074992
  0
VERTEX
  8
0
 10
96.706250
 20
1213.734375
 42
0.057076
  0
VERTEX
  8
0
 10
96.926884
 20
1214.542644
 42
0.038131
  0
VERTEX
  8
0
 10
97.000000
 20
1215.500000
 42
-0.038131
  0
VERTEX
  8
0
 10
97.073116
 20
1216.457356
 42
-0.057076
  0
VERTEX
  8
0
 10
97.293750
 20
1217.265625
 42
-0.074992
  0
VERTEX
  8
0
 10
97.617064
 20
1217.817169
 42
-0.226478
  0
VERTEX
  8
0
 10
98.000000
 20
1218.000000
 42
0.148195
  0
VERTEX
  8
0
 10
98.381354
 20
1218.115568
 42
0.098894
  0
VERTEX
  8
0
 10
98.706250
 20
1218.440625
 42
0.082425
  0
VERTEX
  8
0
 10
98.925306
 20
1218.926543
 42
0.064853
  0
VERTEX
  8
0
 10
99.000000
 20
1219.500000
 42
-0.064853
  0
VERTEX
  8
0
 10
99.074694
 20
1220.073457
 42
-0.082425
  0
VERTEX
  8
0
 10
99.293750
 20
1220.559375
 42
-0.098894
  0
VERTEX
  8
0
 10
99.618646
 20
1220.884432
 42
-0.148195
  0
VERTEX
  8
0
 10
100.000000
 20
1221.000000
 42
0.156778
  0
VERTEX
  8
0
 10
100.381399
 20
1221.122603
 42
0.097394
  0
VERTEX
  8
0
 10
100.706250
 20
1221.468126
 42
0.079473
  0
VERTEX
  8
0
 10
100.925538
 20
1221.984222
 42
0.060868
  0
VERTEX
  8
0
 10
101.000000
 20
1222.593620
 42
-0.114309
  0
VERTEX
  8
0
 10
101.150168
 20
1223.241886
 42
-0.075597
  0
VERTEX
  8
0
 10
101.587500
 20
1223.872748
 42
-0.069688
  0
VERTEX
  8
0
 10
102.235545
 20
1224.391003
 42
-0.070024
  0
VERTEX
  8
0
 10
103.000000
 20
1224.710251
 42
0.035643
  0
VERTEX
  8
0
 10
103.765617
 20
1224.969960
 42
0.047439
  0
VERTEX
  8
0
 10
104.412500
 20
1225.317579
 42
0.056078
  0
VERTEX
  8
0
 10
104.861364
 20
1225.695609
 42
0.192012
  0
VERTEX
  8
0
 10
105.000000
 20
1226.043307
 42
-0.376887
  0
VERTEX
  8
0
 10
106.253141
 20
1227.469650
 42
-0.029167
  0
VERTEX
  8
0
 10
111.753359
 20
1227.859618
 42
-0.033732
  0
VERTEX
  8
0
 10
118.169696
 20
1227.506520
 42
-0.044116
  0
SEQEND
  0
POLYLINE
  8
0
 66
1
 70
1
  0
VERTEX
  8
0
 10
379.500000
 20
848.000000
 42
0.093220
  0
VERTEX
  8
0
 10
379.849304
 20
847.617046
 42
0.052965
  0
VERTEX
  8
0
 10
380.389150
 20
847.293750
 42
0.050362
  0
VERTEX
  8
0
 10
381.023726
 20
847.074180
 42
0.058185
  0
VERTEX
  8
0
 10
381.659017
 20
847.000000
 42
-0.174364
  0
VERTEX
  8
0
 10
383.684997
 20
846.271332
 42
-0.031004
  0
VERTEX
  8
0
 10
386.673081
 20
843.473649
 42
-0.031570
  0
VERTEX
  8
0
 10
389.297643
 20
840.314228
 42
-0.158833
  0
VERTEX
  8
0
 10
390.000000
 20
838.159017
 42
0.044694
  0
VERTEX
  8
0
 10
390.074034
 20
837.332440
 42
0.045296
  0
VERTEX
  8
0
 10
390.293750
 20
836.536025
 42
0.049372
  0
VERTEX
  8
0
 10
390.616268
 20
835.882403
 42
0.115555
  0
VERTEX
  8
0
 10
391.000000
 20
835.500000
 42
-0.251317
  0
VERTEX
  8
0
 10
391.837564
 20
834.053269
 42
-0.006766
  0
VERTEX
  8
0
 10
391.980469
 20
826.460846
 42
-0.005934
  0
VERTEX
  8
0
 10
391.930215
 20
818.822354
 42
-0.408821
  0
VERTEX
  8
0
 10
391.092550
 20
818.000000
 42
0.311608
  0
VERTEX
  8
0
 10
390.709112
 20
817.735337
 42
0.023038
  0
VERTEX
  8
0
 10
390.290794
 20
816.457813
 42
0.025557
  0
VERTEX
  8
0
 10
389.912937
 20
814.762268
 42
0.016059
  0
VERTEX
  8
0
 10
389.637462
 20
812.750000
 42
-0.005575
  0
VERTEX
  8
0
 10
388.926568
 20
806.600232
 42
-0.015774
  0
VERTEX
  8
0
 10
388.247599
 20
802.332750
 42
-0.016121
  0
VERTEX
  8
0
 10
387.578438
 20
799.362155
 42
-0.193207
  0
VERTEX
  8
0
 10
386.894367
 20
798.434715
 42
0.167385
  0
VERTEX
  8
0
 10
386.547842
 20
798.011009
 42
0.032593
  0
VERTEX
  8
0
 10
386.262720
 20
797.050884
 42
0.031360
  0
VERTEX
  8
0
 10
386.065556
 20
795.835364
 42
0.024531
  0
VERTEX
  8
0
 10
386.000000
 20
794.500000
 42
-0.027380
  0
VERTEX
  8
0
 10
385.926564
 20
793.159953
 42
-0.033884
  0
VERTEX
  8
0
 10
385.706250
 20
791.929939
 42
-0.036095
  0
VERTEX
  8
0
 10
385.386560
 20
790.955916
 42
-0.158284
  0
VERTEX
  8
0
 10
385.000000
 20
790.500000
 42
0.159713
  0
VERTEX
  8
0
 10
384.613307
 20
790.041340
 42
0.035556
  0
VERTEX
  8
0
 10
384.293750
 20
789.052725
 42
0.033489
  0
VERTEX
  8
0
 10
384.073414
 20
787.803639
 42
0.026918
  0
VERTEX
  8
0
 10
384.000000
 20
786.440983
 42
-0.024443
  0
VERTEX
  8
0
 10
383.935498
 20
785.122324
 42
-0.038897
  0
VERTEX
  8
0
 10
383.738388
 20
784.010789
 42
-0.045959
  0
VERTEX
  8
0
 10
383.453834
 20
783.219270
 42
-0.291300
  0
VERTEX
  8
0
 10
383.109406
 20
783.000000
 42
0.252284
  0
VERTEX
  8
0
 10
382.730921
 20
782.796047
 42
0.042116
  0
VERTEX
  8
0
 10
382.322636
 20
782.045313
 42
0.037452
  0
VERTEX
  8
0
 10
381.952232
 20
780.995040
 42
0.025103
  0
VERTEX
  8
0
 10
381.681662
 20
779.750000
 42
-0.008008
  0
VERTEX
  8
0
 10
381.403589
 20
778.220239
 42
-0.003920
  0
VERTEX
  8
0
 10
381.002806
 20
776.279688
 42
-0.003887
  0
VERTEX
  8
0
 10
380.554601
 20
774.268572
 42
-0.005630
  0
VERTEX
  8
0
 10
380.124961
 20
772.500000
 42
0.003126
  0
VERTEX
  8
0
 10
379.625265
 20
770.487046
 42
0.001127
  0
VERTEX
  8
0
 10
378.939086
 20
767.618750
 42
0.001118
  0
VERTEX
  8
0
 10
378.201502
 20
764.473226
 42
0.001328
  0
VERTEX
  8
0
 10
377.519646
 20
761.500000
 42
-0.001280
  0
VERTEX
  8
0
 10
375.720298
 20
753.650484
 42
-0.001478
  0
VERTEX
  8
0
 10
373.964026
 20
746.178339
 42
-0.001598
  0
VERTEX
  8
0
 10
372.330977
 20
739.417430
 42
-0.002682
  0
VERTEX
  8
0
 10
370.910606
 20
733.750000
 42
0.010126
  0
VERTEX
  8
0
 10
370.456134
 20
731.814884
 42
0.006072
  0
VERTEX
  8
0
 10
369.991027
 20
729.500000
 42
0.006078
  0
VERTEX
  8
0
 10
369.584063
 20
727.184521
 42
0.010524
  0
VERTEX
  8
0
 10
369.309912
 20
725.250000
 42
-0.019610
  0
VERTEX
  8
0
 10
369.048839
 20
723.621308
 42
-0.030587
  0
VERTEX
  8
0
 10
368.684636
 20
722.248438
 42
-0.031067
  0
VERTEX
  8
0
 10
368.278593
 20
721.239408
 42
-0.289206
  0
VERTEX
  8
0
 10
367.899306
 20
721.000000
 42
0.309132
  0
VERTEX
  8
0
 10
367.550042
 20
720.761247
 42
0.037616
  0
VERTEX
  8
0
 10
367.264171
 20
719.825000
 42
0.034110
  0
VERTEX
  8
0
 10
367.065013
 20
718.533102
 42
0.021194
  0
VERTEX
  8
0
 10
367.000000
 20
717.000000
 42
-0.023598
  0
VERTEX
  8
0
 10
366.927610
 20
715.467056
 42
-0.037669
  0
VERTEX
  8
0
 10
366.706250
 20
714.175000
 42
-0.043820
  0
VERTEX
  8
0
 10
366.387127
 20
713.251055
 42
-0.295869
  0
VERTEX
  8
0
 10
366.000000
 20
713.000000
 42
0.275259
  0
VERTEX
  8
0
 10
365.614478
 20
712.770364
 42
0.053437
  0
VERTEX
  8
0
 10
365.293750
 20
711.989211
 42
0.043243
  0
VERTEX
  8
0
 10
365.072564
 20
710.877484
 42
0.027497
  0
VERTEX
  8
0
 10
365.000000
 20
709.559017
 42
-0.026918
  0
VERTEX
  8
0
 10
364.926586
 20
708.196361
 42
-0.033489
  0
VERTEX
  8
0
 10
364.706250
 20
706.947275
 42
-0.035556
  0
VERTEX
  8
0
 10
364.386693
 20
705.958660
 42
-0.159713
  0
VERTEX
  8
0
 10
364.000000
 20
705.500000
 42
0.159713
  0
VERTEX
  8
0
 10
363.613307
 20
705.041340
 42
0.035556
  0
VERTEX
  8
0
 10
363.293750
 20
704.052725
 42
0.033489
  0
VERTEX
  8
0
 10
363.073414
 20
702.803639
 42
0.026918
  0
VERTEX
  8
0
 10
363.000000
 20
701.440983
 42
-0.027497
  0
VERTEX
  8
0
 10
362.927436
 20
700.122516
 42
-0.043243
  0
VERTEX
  8
0
 10
362.706250
 20
699.010789
 42
-0.053437
  0
VERTEX
  8
0
 10
362.385522
 20
698.229636
 42
-0.275259
  0
VERTEX
  8
0
 10
362.000000
 20
698.000000
 42
0.295869
  0
VERTEX
  8
0
 10
361.612873
 20
697.748945
 42
0.043820
  0
VERTEX
  8
0
 10
361.293750
 20
696.825000
 42
0.037669
  0
VERTEX
  8
0
 10
361.072390
 20
695.532944
 42
0.023598
  0
VERTEX
  8
0
 10
361.000000
 20
694.000000
 42
-0.023598
  0
VERTEX
  8
0
 10
360.927610
 20
692.467056
 42
-0.037669
  0
VERTEX
  8
0
 10
360.706250
 20
691.175000
 42
-0.043820
  0
VERTEX
  8
0
 10
360.387127
 20
690.251055
 42
-0.295869
  0
VERTEX
  8
0
 10
360.000000
 20
690.000000
 42
0.295869
  0
VERTEX
  8
0
 10
359.612873
 20
689.748945
 42
0.043820
  0
VERTEX
  8
0
 10
359.293750
 20
688.825000
 42
0.037669
  0
VERTEX
  8
0
 10
359.072390
 20
687.532944
 42
0.023598
  0
VERTEX
  8
0
 10
359.000000
 20
686.000000
 42
-0.023598
  0
VERTEX
  8
0
 10
358.927610
 20
684.467056
 42
-0.037669
  0
VERTEX
  8
0
 10
358.706250
 20
683.175000
 42
-0.043820
  0
VERTEX
  8
0
 10
358.387127
 20
682.251055
 42
-0.295869
  0
VERTEX
  8
0
 10
358.000000
 20
682.000000
 42
0.275259
  0
VERTEX
  8
0
 10
357.614478
 20
681.770364
 42
0.053437
  0
VERTEX
  8
0
 10
357.293750
 20
680.989211
 42
0.043243
  0
VERTEX
  8
0
 10
357.072564
 20
679.877484
 42
0.027497
  0
VERTEX
  8
0
 10
357.000000
 20
678.559017
 42
-0.026918
  0
VERTEX
  8
0
 10
356.926586
 20
677.196361
 42
-0.033489
  0
VERTEX
  8
0
 10
356.706250
 20
675.947275
 42
-0.035556
  0
VERTEX
  8
0
 10
356.386693
 20
674.958660
 42
-0.159713
  0
VERTEX
  8
0
 10
356.000000
 20
674.500000
 42
0.158284
  0
VERTEX
  8
0
 10
355.613440
 20
674.044084
 42
0.036095
  0
VERTEX
  8
0
 10
355.293750
 20
673.070061
 42
0.033884
  0
VERTEX
  8
0
 10
355.073436
 20
671.840047
 42
0.027380
  0
VERTEX
  8
0
 10
355.000000
 20
670.500000
 42
-0.027380
  0
VERTEX
  8
0
 10
354.926564
 20
669.159953
 42
-0.033884
  0
VERTEX
  8
0
 10
354.706250
 20
667.929939
 42
-0.036095
  0
VERTEX
  8
0
 10
354.386560
 20
666.955916
 42
-0.158284
  0
VERTEX
  8
0
 10
354.000000
 20
666.500000
 42
0.159713
  0
VERTEX
  8
0
 10
353.613307
 20
666.041340
 42
0.035556
  0
VERTEX
  8
0
 10
353.293750
 20
665.052725
 42
0.033489
  0
VERTEX
  8
0
 10
353.073414
 20
663.803639
 42
0.026918
  0
VERTEX
  8
0
 10
353.000000
 20
662.440983
 42
-0.024443
  0
VERTEX
  8
0
 10
352.935498
 20
661.122324
 42
-0.038897
  0
VERTEX
  8
0
 10
352.738388
 20
660.010789
 42
-0.045959
  0
VERTEX
  8
0
 10
352.453834
 20
659.219270
 42
-0.291300
  0
VERTEX
  8
0
 10
352.109406
 20
659.000000
 42
0.252284
  0
VERTEX
  8
0
 10
351.730921
 20
658.796047
 42
0.042116
  0
VERTEX
  8
0
 10
351.322636
 20
658.045313
 42
0.037452
  0
VERTEX
  8
0
 10
350.952232
 20
656.995040
 42
0.025103
  0
VERTEX
  8
0
 10
350.681662
 20
655.750000
 42
-0.008008
  0
VERTEX
  8
0
 10
350.403589
 20
654.220239
 42
-0.003920
  0
VERTEX
  8
0
 10
350.002806
 20
652.279688
 42
-0.003887
  0
VERTEX
  8
0
 10
349.554601
 20
650.268572
 42
-0.005630
  0
VERTEX
  8
0
 10
349.124961
 20
648.500000
 42
0.003091
  0
VERTEX
  8
0
 10
348.625118
 20
646.487050
 42
0.001115
  0
VERTEX
  8
0
 10
347.938442
 20
643.618750
 42
0.001105
  0
VERTEX
  8
0
 10
347.200149
 20
640.473226
 42
0.001313
  0
VERTEX
  8
0
 10
346.517454
 20
637.500000
 42
-0.001975
  0
VERTEX
  8
0
 10
345.282076
 20
632.152235
 42
-0.003619
  0
VERTEX
  8
0
 10
344.226560
 20
627.805415
 42
-0.004154
  0
VERTEX
  8
0
 10
343.217923
 20
623.916344
 42
-0.004015
  0
VERTEX
  8
0
 10
342.133633
 20
620.000000
 42
0.005714
  0
VERTEX
  8
0
 10
341.638652
 20
618.188252
 42
0.001806
  0
VERTEX
  8
0
 10
340.940249
 20
615.471875
 42
0.001803
  0
VERTEX
  8
0
 10
340.183185
 20
612.436675
 42
0.002002
  0
VERTEX
  8
0
 10
339.474386
 20
609.500000
 42
-0.006106
  0
VERTEX
  8
0
 10
338.772362
 20
606.692645
 42
-0.007137
  0
VERTEX
  8
0
 10
338.035578
 20
604.046173
 42
-0.006389
  0
VERTEX
  8
0
 10
337.353143
 20
601.828870
 42
-0.042554
  0
VERTEX
  8
0
 10
336.907242
 20
600.763569
 42
0.051494
  0
VERTEX
  8
0
 10
336.558478
 20
599.886736
 42
0.021740
  0
VERTEX
  8
0
 10
336.266502
 20
598.651978
 42
0.021234
  0
VERTEX
  8
0
 10
336.066551
 20
597.294677
 42
0.025956
  0
VERTEX
  8
0
 10
336.000000
 20
596.013569
 42
-0.031481
  0
VERTEX
  8
0
 10
335.927241
 20
594.859110
 42
-0.048668
  0
VERTEX
  8
0
 10
335.706250
 20
593.885236
 42
-0.062402
  0
VERTEX
  8
0
 10
335.384300
 20
593.210222
 42
-0.255639
  0
VERTEX
  8
0
 10
335.000000
 20
593.000000
 42
0.275259
  0
VERTEX
  8
0
 10
334.614478
 20
592.770364
 42
0.053437
  0
VERTEX
  8
0
 10
334.293750
 20
591.989211
 42
0.043243
  0
VERTEX
  8
0
 10
334.072564
 20
590.877484
 42
0.027497
  0
VERTEX
  8
0
 10
334.000000
 20
589.559017
 42
-0.026918
  0
VERTEX
  8
0
 10
333.926586
 20
588.196361
 42
-0.033489
  0
VERTEX
  8
0
 10
333.706250
 20
586.947275
 42
-0.035556
  0
VERTEX
  8
0
 10
333.386693
 20
585.958660
 42
-0.159713
  0
VERTEX
  8
0
 10
333.000000
 20
585.500000
 42
0.159713
  0
VERTEX
  8
0
 10
332.613307
 20
585.041340
 42
0.035556
  0
VERTEX
  8
0
 10
332.293750
 20
584.052725
 42
0.033489
  0
VERTEX
  8
0
 10
332.073414
 20
582.803639
 42
0.026918
  0
VERTEX
  8
0
 10
332.000000
 20
581.440983
 42
-0.027497
  0
VERTEX
  8
0
 10
331.927436
 20
580.122516
 42
-0.043243
  0
VERTEX
  8
0
 10
331.706250
 20
579.010789
 42
-0.053437
  0
VERTEX
  8
0
 10
331.385522
 20
578.229636
 42
-0.275259
  0
VERTEX
  8
0
 10
331.000000
 20
578.000000
 42
0.295869
  0
VERTEX
  8
0
 10
330.612873
 20
577.748945
 42
0.043820
  0
VERTEX
  8
0
 10
330.293750
 20
576.825000
 42
0.037669
  0
VERTEX
  8
0
 10
330.072390
 20
575.532944
 42
0.023598
  0
VERTEX
  8
0
 10
330.000000
 20
574.000000
 42
-0.023598
  0
VERTEX
  8
0
 10
329.927610
 20
572.467056
 42
-0.037669
  0
VERTEX
  8
0
 10
329.706250
 20
571.175000
 42
-0.043820
  0
VERTEX
  8
0
 10
329.387127
 20
570.251055
 42
-0.295869
  0
VERTEX
  8
0
 10
329.000000
 20
570.000000
 42
0.295869
  0
VERTEX
  8
0
 10
328.612873
 20
569.748945
 42
0.043820
  0
VERTEX
  8
0
 10
328.293750
 20
568.825000
 42
0.037669
  0
VERTEX
  8
0
 10
328.072390
 20
567.532944
 42
0.023598
  0
VERTEX
  8
0
 10
328.000000
 20
566.000000
 42
-0.023598
  0
VERTEX
  8
0
 10
327.927610
 20
564.467056
 42
-0.037669
  0
VERTEX
  8
0
 10
327.706250
 20
563.175000
 42
-0.043820
  0
VERTEX
  8
0
 10
327.387127
 20
562.251055
 42
-0.295869
  0
VERTEX
  8
0
 10
327.000000
 20
562.000000
 42
0.251914
  0
VERTEX
  8
0
 10
326.615903
 20
561.793368
 42
0.064068
  0
VERTEX
  8
0
 10
326.293750
 20
561.136086
 42
0.049716
  0
VERTEX
  8
0
 10
326.072800
 20
560.185620
 42
0.032276
  0
VERTEX
  8
0
 10
326.000000
 20
559.059017
 42
-0.031397
  0
VERTEX
  8
0
 10
325.926388
 20
557.887885
 42
-0.037109
  0
VERTEX
  8
0
 10
325.706250
 20
556.800400
 42
-0.040338
  0
VERTEX
  8
0
 10
325.385578
 20
555.934161
 42
-0.146547
  0
VERTEX
  8
0
 10
325.000000
 20
555.500000
 42
0.159713
  0
VERTEX
  8
0
 10
324.613307
 20
555.041340
 42
0.035556
  0
VERTEX
  8
0
 10
324.293750
 20
554.052725
 42
0.033489
  0
VERTEX
  8
0
 10
324.073414
 20
552.803639
 42
0.026918
  0
VERTEX
  8
0
 10
324.000000
 20
551.440983
 42
-0.024564
  0
VERTEX
  8
0
 10
323.935177
 20
550.122332
 42
-0.039073
  0
VERTEX
  8
0
 10
323.737104
 20
549.010789
 42
-0.046266
  0
VERTEX
  8
0
 10
323.451105
 20
548.219730
 42
-0.290646
  0
VERTEX
  8
0
 10
323.105035
 20
548.000000
 42
0.270375
  0
VERTEX
  8
0
 10
322.723709
 20
547.777535
 42
0.035740
  0
VERTEX
  8
0
 10
322.306509
 20
546.898438
 42
0.033494
  0
VERTEX
  8
0
 10
321.925484
 20
545.686850
 42
0.021941
  0
VERTEX
  8
0
 10
321.643406
 20
544.250000
 42
-0.003562
  0
VERTEX
  8
0
 10
320.720982
 20
538.426839
 42
-0.018941
  0
VERTEX
  8
0
 10
320.073937
 20
535.268971
 42
-0.029707
  0
VERTEX
  8
0
 10
319.505045
 20
533.425815
 42
-0.312634
  0
VERTEX
  8
0
 10
318.890594
 20
533.000000
 42
0.291300
  0
VERTEX
  8
0
 10
318.546166
 20
532.780730
 42
0.045959
  0
VERTEX
  8
0
 10
318.261612
 20
531.989211
 42
0.038897
  0
VERTEX
  8
0
 10
318.064502
 20
530.877676
 42
0.024443
  0
VERTEX
  8
0
 10
318.000000
 20
529.559017
 42
-0.026918
  0
VERTEX
  8
0
 10
317.926586
 20
528.196361
 42
-0.033489
  0
VERTEX
  8
0
 10
317.706250
 20
526.947275
 42
-0.035556
  0
VERTEX
  8
0
 10
317.386693
 20
525.958660
 42
-0.159713
  0
VERTEX
  8
0
 10
317.000000
 20
525.500000
 42
0.159713
  0
VERTEX
  8
0
 10
316.613307
 20
525.041340
 42
0.035556
  0
VERTEX
  8
0
 10
316.293750
 20
524.052725
 42
0.033489
  0
VERTEX
  8
0
 10
316.073414
 20
522.803639
 42
0.026918
  0
VERTEX
  8
0
 10
316.000000
 20
521.440983
 42
-0.021769
  0
VERTEX
  8
0
 10
315.942556
 20
520.122170
 42
-0.034969
  0
VERTEX
  8
0
 10
315.766655
 20
519.010789
 42
-0.039111
  0
VERTEX
  8
0
 10
315.513890
 20
518.208085
 42
-0.305930
  0
VERTEX
  8
0
 10
315.205634
 20
518.000000
 42
0.317123
  0
VERTEX
  8
0
 10
314.847507
 20
517.747463
 42
0.012961
  0
VERTEX
  8
0
 10
314.328909
 20
516.164062
 42
0.018504
  0
VERTEX
  8
0
 10
313.805836
 20
514.145774
 42
0.011574
  0
VERTEX
  8
0
 10
313.336534
 20
511.750000
 42
-0.013314
  0
VERTEX
  8
0
 10
312.686523
 20
508.491861
 42
-0.003889
  0
VERTEX
  8
0
 10
311.514789
 20
503.517187
 42
-0.003905
  0
VERTEX
  8
0
 10
310.107904
 20
497.935524
 42
-0.004175
  0
VERTEX
  8
0
 10
308.644048
 20
492.500000
 42
0.005825
  0
VERTEX
  8
0
 10
307.257845
 20
487.284329
 42
0.007073
  0
VERTEX
  8
0
 10
306.085147
 20
482.364063
 42
0.006067
  0
VERTEX
  8
0
 10
305.209119
 20
478.207047
 42
0.047916
  0
VERTEX
  8
0
 10
305.013147
 20
476.250000
 42
-0.025899
  0
VERTEX
  8
0
 10
304.943543
 20
475.004625
 42
-0.040924
  0
VERTEX
  8
0
 10
304.742250
 20
473.954687
 42
-0.049414
  0
VERTEX
  8
0
 10
304.454163
 20
473.211866
 42
-0.282710
  0
VERTEX
  8
0
 10
304.109406
 20
473.000000
 42
0.250963
  0
VERTEX
  8
0
 10
303.729389
 20
472.796439
 42
0.041763
  0
VERTEX
  8
0
 10
303.315351
 20
472.045313
 42
0.037260
  0
VERTEX
  8
0
 10
302.936938
 20
470.995028
 42
0.025034
  0
VERTEX
  8
0
 10
302.656861
 20
469.750000
 42
-0.004661
  0
VERTEX
  8
0
 10
301.761757
 20
464.845986
 42
-0.021749
  0
VERTEX
  8
0
 10
301.097531
 20
462.051381
 42
-0.034096
  0
VERTEX
  8
0
 10
300.505722
 20
460.404643
 42
-0.297765
  0
VERTEX
  8
0
 10
299.886501
 20
460.000000
 42
0.241710
  0
VERTEX
  8
0
 10
299.546451
 20
459.825413
 42
0.068555
  0
VERTEX
  8
0
 10
299.260410
 20
459.282961
 42
0.052624
  0
VERTEX
  8
0
 10
299.064642
 20
458.493968
 42
0.034529
  0
VERTEX
  8
0
 10
299.000000
 20
457.559017
 42
-0.037634
  0
VERTEX
  8
0
 10
298.926158
 20
456.579340
 42
-0.041396
  0
VERTEX
  8
0
 10
298.706250
 20
455.653525
 42
-0.045439
  0
VERTEX
  8
0
 10
298.384508
 20
454.906663
 42
-0.130646
  0
VERTEX
  8
0
 10
298.000000
 20
454.500000
 42
0.111412
  0
VERTEX
  8
0
 10
297.616444
 20
454.123976
 42
0.050262
  0
VERTEX
  8
0
 10
297.293750
 20
453.493350
 42
0.046318
  0
VERTEX
  8
0
 10
297.074077
 20
452.729296
 42
0.046881
  0
VERTEX
  8
0
 10
297.000000
 20
451.940983
 42
-0.049547
  0
VERTEX
  8
0
 10
296.926216
 20
451.198222
 42
-0.069539
  0
VERTEX
  8
0
 10
296.706250
 20
450.570164
 42
-0.089706
  0
VERTEX
  8
0
 10
296.381787
 20
450.147465
 42
-0.186414
  0
VERTEX
  8
0
 10
296.000000
 20
450.000000
 42
0.191087
  0
VERTEX
  8
0
 10
295.618118
 20
449.848523
 42
0.088204
  0
VERTEX
  8
0
 10
295.293750
 20
449.412500
 42
0.068025
  0
VERTEX
  8
0
 10
295.073693
 20
448.765418
 42
0.048028
  0
VERTEX
  8
0
 10
295.000000
 20
448.000000
 42
-0.048028
  0
VERTEX
  8
0
 10
294.926307
 20
447.234582
 42
-0.068025
  0
VERTEX
  8
0
 10
294.706250
 20
446.587500
 42
-0.088204
  0
VERTEX
  8
0
 10
294.381882
 20
446.151477
 42
-0.191087
  0
VERTEX
  8
0
 10
294.000000
 20
446.000000
 42
0.150209
  0
VERTEX
  8
0
 10
293.618638
 20
445.882787
 42
0.098577
  0
VERTEX
  8
0
 10
293.293750
 20
445.552989
 42
0.081731
  0
VERTEX
  8
0
 10
293.074638
 20
445.060063
 42
0.063882
  0
VERTEX
  8
0
 10
293.000000
 20
444.478261
 42
-0.154720
  0
VERTEX
  8
0
 10
292.722455
 20
443.602804
 42
-0.013667
  0
VERTEX
  8
0
 10
291.317323
 20
441.720856
 42
-0.016855
  0
VERTEX
  8
0
 10
289.465824
 20
439.533287
 42
-0.012327
  0
VERTEX
  8
0
 10
287.271739
 20
437.228261
 42
0.000000
  0
VERTEX
  8
0
 10
281.543478
 20
431.500000
 42
0.000000
  0
VERTEX
  8
0
 10
273.105072
 20
431.500000
 42
-0.008740
  0
VERTEX
  8
0
 10
269.224343
 20
431.567839
 42
-0.026325
  0
VERTEX
  8
0
 10
266.587889
 20
431.799377
 42
-0.035241
  0
VERTEX
  8
0
 10
264.853802
 20
432.170233
 42
-0.246812
  0
VERTEX
  8
0
 10
264.250000
 20
432.750000
 42
0.121084
  0
VERTEX
  8
0
 10
263.948404
 20
433.228130
 42
0.068920
  0
VERTEX
  8
0
 10
263.392708
 20
433.632812
 42
0.062336
  0
VERTEX
  8
0
 10
262.680589
 20
433.906806
 42
0.060772
  0
VERTEX
  8
0
 10
261.916667
 20
434.000000
 42
-0.050201
  0
VERTEX
  8
0
 10
261.183242
 20
434.073823
 42
-0.070178
  0
VERTEX
  8
0
 10
260.563021
 20
434.293750
 42
-0.090315
  0
VERTEX
  8
0
 10
260.145793
 20
434.618250
 42
-0.184457
  0
VERTEX
  8
0
 10
260.000000
 20
435.000000
 42
0.147131
  0
VERTEX
  8
0
 10
259.885300
 20
435.381350
 42
0.099053
  0
VERTEX
  8
0
 10
259.562733
 20
435.706250
 42
0.082791
  0
VERTEX
  8
0
 10
259.080499
 20
435.925275
 42
0.065375
  0
VERTEX
  8
0
 10
258.511431
 20
436.000000
 42
-0.135276
  0
VERTEX
  8
0
 10
256.841547
 20
436.460212
 42
-0.037685
  0
VERTEX
  8
0
 10
254.602133
 20
438.035981
 42
-0.020740
  0
VERTEX
  8
0
 10
251.314216
 20
440.978281
 42
-0.003944
  0
VERTEX
  8
0
 10
245.598818
 20
446.624867
 42
-0.003826
  0
VERTEX
  8
0
 10
239.126307
 20
453.221308
 42
-0.010166
  0
VERTEX
  8
0
 10
234.636851
 20
458.060420
 42
-0.007680
  0
VERTEX
  8
0
 10
231.466763
 20
461.731907
 42
-0.176005
  0
VERTEX
  8
0
 10
231.000000
 20
463.016826
 42
0.100786
  0
VERTEX
  8
0
 10
230.923596
 20
463.392018
 42
0.098339
  0
VERTEX
  8
0
 10
230.706250
 20
463.711193
 42
0.097524
  0
VERTEX
  8
0
 10
230.381664
 20
463.925004
 42
0.097318
  0
VERTEX
  8
0
 10
230.000000
 20
464.000000
 42
-0.101258
  0
VERTEX
  8
0
 10
229.618393
 20
464.078082
 42
-0.098440
  0
VERTEX
  8
0
 10
229.293750
 20
464.300136
 42
-0.097407
  0
VERTEX
  8
0
 10
229.076262
 20
464.631771
 42
-0.096862
  0
VERTEX
  8
0
 10
229.000000
 20
465.021739
 42
0.165278
  0
VERTEX
  8
0
 10
228.789557
 20
465.640981
 42
0.008554
  0
VERTEX
  8
0
 10
227.457812
 20
467.314019
 42
0.012817
  0
VERTEX
  8
0
 10
225.761414
 20
469.267651
 42
0.008894
  0
VERTEX
  8
0
 10
223.750000
 20
471.390463
 42
-0.005499
  0
VERTEX
  8
0
 10
221.448293
 20
473.786846
 42
-0.003687
  0
VERTEX
  8
0
 10
218.867188
 20
476.574874
 42
-0.003712
  0
VERTEX
  8
0
 10
216.406864
 20
479.312613
 42
-0.007314
  0
VERTEX
  8
0
 10
214.500000
 20
481.530989
 42
0.008634
  0
VERTEX
  8
0
 10
212.528404
 20
483.812457
 42
0.003775
  0
VERTEX
  8
0
 10
209.839063
 20
486.772697
 42
0.003734
  0
VERTEX
  8
0
 10
206.935592
 20
489.873764
 42
0.004980
  0
VERTEX
  8
0
 10
204.250000
 20
492.643746
 42
-0.006447
  0
VERTEX
  8
0
 10
201.854942
 20
495.128607
 42
-0.009677
  0
VERTEX
  8
0
 10
199.835937
 20
497.363236
 42
-0.005085
  0
VERTEX
  8
0
 10
198.199466
 20
499.285642
 42
-0.175535
  0
VERTEX
  8
0
 10
198.000000
 20
499.836302
 42
0.178938
  0
VERTEX
  8
0
 10
197.787820
 20
500.410205
 42
0.002573
  0
VERTEX
  8
0
 10
195.362163
 20
503.212931
 42
0.006724
  0
VERTEX
  8
0
 10
192.461924
 20
506.440717
 42
0.004338
  0
VERTEX
  8
0
 10
189.020128
 20
510.104820
 42
-0.003542
  0
VERTEX
  8
0
 10
185.576672
 20
513.759016
 42
-0.005547
  0
VERTEX
  8
0
 10
182.672181
 20
516.955740
 42
-0.001818
  0
VERTEX
  8
0
 10
180.211345
 20
519.745651
 42
-0.174683
  0
VERTEX
  8
0
 10
180.020128
 20
520.233871
 42
0.177302
  0
VERTEX
  8
0
 10
179.830468
 20
520.710966
 42
0.002698
  0
VERTEX
  8
0
 10
177.802788
 20
522.955292
 42
0.006873
  0
VERTEX
  8
0
 10
175.376006
 20
525.540134
 42
0.004446
  0
VERTEX
  8
0
 10
172.500000
 20
528.467742
 42
-0.006321
  0
VERTEX
  8
0
 10
169.625882
 20
531.415468
 42
-0.009519
  0
VERTEX
  8
0
 10
167.203125
 20
534.063105
 42
-0.004905
  0
VERTEX
  8
0
 10
165.234948
 20
536.342638
 42
-0.177432
  0
VERTEX
  8
0
 10
165.000000
 20
536.983871
 42
0.097415
  0
VERTEX
  8
0
 10
164.923717
 20
537.371689
 42
0.097548
  0
VERTEX
  8
0
 10
164.706250
 20
537.701512
 42
0.098317
  0
VERTEX
  8
0
 10
164.381615
 20
537.922367
 42
0.100685
  0
VERTEX
  8
0
 10
164.000000
 20
538.000000
 42
-0.095733
  0
VERTEX
  8
0
 10
163.618312
 20
538.073756
 42
-0.097107
  0
VERTEX
  8
0
 10
163.293750
 20
538.284259
 42
-0.098684
  0
VERTEX
  8
0
 10
163.076461
 20
538.598430
 42
-0.102445
  0
VERTEX
  8
0
 10
163.000000
 20
538.967692
 42
0.169776
  0
VERTEX
  8
0
 10
162.788774
 20
539.571832
 42
0.006107
  0
VERTEX
  8
0
 10
161.216655
 20
541.496552
 42
0.010618
  0
VERTEX
  8
0
 10
159.255306
 20
543.740253
 42
0.007176
  0
VERTEX
  8
0
 10
156.929037
 20
546.217692
 42
-0.004263
  0
VERTEX
  8
0
 10
154.444975
 20
548.832479
 42
-0.004240
  0
VERTEX
  8
0
 10
152.001328
 20
551.493930
 42
-0.004158
  0
VERTEX
  8
0
 10
149.904617
 20
553.855949
 42
-0.016535
  0
VERTEX
  8
0
 10
148.679037
 20
555.357391
 42
0.020831
  0
VERTEX
  8
0
 10
147.309852
 20
557.005659
 42
0.002985
  0
VERTEX
  8
0
 10
144.349467
 20
560.242629
 42
0.003387
  0
VERTEX
  8
0
 10
140.796997
 20
564.028958
 42
0.002887
  0
VERTEX
  8
0
 10
137.000000
 20
567.975484
 42
-0.002146
  0
VERTEX
  8
0
 10
130.085239
 20
575.141292
 42
-0.015053
  0
VERTEX
  8
0
 10
126.836322
 20
578.748587
 42
-0.020361
  0
VERTEX
  8
0
 10
124.211472
 20
582.114263
 42
-0.005862
  0
VERTEX
  8
0
 10
120.429279
 20
587.526711
 42
-0.025398
  0
VERTEX
  8
0
 10
116.350862
 20
594.217628
 42
-0.053512
  0
VERTEX
  8
0
 10
114.042855
 20
599.837230
 42
-0.050997
  0
VERTEX
  8
0
 10
112.917800
 20
605.989329
 42
-0.021162
  0
VERTEX
  8
0
 10
112.607740
 20
614.444956
 42
-0.006682
  0
VERTEX
  8
0
 10
112.701282
 20
619.360126
 42
-0.018868
  0
VERTEX
  8
0
 10
112.941884
 20
622.785556
 42
-0.019358
  0
VERTEX
  8
0
 10
113.291749
 20
625.155489
 42
-0.272394
  0
VERTEX
  8
0
 10
113.834868
 20
625.778289
 42
0.114182
  0
VERTEX
  8
0
 10
114.280423
 20
626.050928
 42
0.069720
  0
VERTEX
  8
0
 10
114.657810
 20
626.542164
 42
0.064091
  0
VERTEX
  8
0
 10
114.913140
 20
627.167143
 42
0.065017
  0
VERTEX
  8
0
 10
115.000229
 20
627.833333
 42
-0.110456
  0
VERTEX
  8
0
 10
115.539926
 20
630.245023
 42
-0.015123
  0
VERTEX
  8
0
 10
117.892103
 20
634.870793
 42
-0.018512
  0
VERTEX
  8
0
 10
120.681782
 20
639.549229
 42
-0.038879
  0
VERTEX
  8
0
 10
123.250000
 20
642.910635
 42
0.011228
  0
VERTEX
  8
0
 10
124.303977
 20
644.142620
 42
0.015262
  0
VERTEX
  8
0
 10
125.194853
 20
645.303125
 42
0.012116
  0
VERTEX
  8
0
 10
125.874516
 20
646.296674
 42
0.141883
  0
VERTEX
  8
0
 10
126.009074
 20
646.741342
 42
-0.177381
  0
VERTEX
  8
0
 10
126.168703
 20
647.161515
 42
-0.015589
  0
VERTEX
  8
0
 10
126.953223
 20
648.011519
 42
-0.018905
  0
VERTEX
  8
0
 10
127.986975
 20
648.987106
 42
-0.013571
  0
VERTEX
  8
0
 10
129.210454
 20
650.000000
 42
0.011432
  0
VERTEX
  8
0
 10
130.720282
 20
651.239110
 42
0.005057
  0
VERTEX
  8
0
 10
132.659463
 20
652.940625
 42
0.005002
  0
VERTEX
  8
0
 10
134.678728
 20
654.785614
 42
0.006715
  0
VERTEX
  8
0
 10
136.468950
 20
656.500000
 42
-0.011369
  0
VERTEX
  8
0
 10
138.417563
 20
658.331608
 42
-0.005743
  0
VERTEX
  8
0
 10
140.951161
 20
660.554791
 42
-0.005701
  0
VERTEX
  8
0
 10
143.621923
 20
662.792247
 42
-0.008445
  0
VERTEX
  8
0
 10
146.017571
 20
664.686522
 42
0.003166
  0
VERTEX
  8
0
 10
151.616007
 20
669.018021
 42
0.009831
  0
VERTEX
  8
0
 10
155.314241
 20
672.036198
 42
0.011476
  0
VERTEX
  8
0
 10
158.575577
 20
674.937839
 42
0.005730
  0
VERTEX
  8
0
 10
162.574365
 20
678.750000
 42
-0.008426
  0
VERTEX
  8
0
 10
164.707232
 20
680.761485
 42
-0.012225
  0
VERTEX
  8
0
 10
166.661661
 20
682.457813
 42
-0.007877
  0
VERTEX
  8
0
 10
168.335478
 20
683.796520
 42
-0.166221
  0
VERTEX
  8
0
 10
168.930642
 20
684.000000
 42
0.164132
  0
VERTEX
  8
0
 10
169.515676
 20
684.197362
 42
0.009350
  0
VERTEX
  8
0
 10
171.029546
 20
685.395313
 42
0.013492
  0
VERTEX
  8
0
 10
172.796969
 20
686.930223
 42
0.009436
  0
VERTEX
  8
0
 10
174.707936
 20
688.750000
 42
-0.007140
  0
VERTEX
  8
0
 10
176.802751
 20
690.763276
 42
-0.005622
  0
VERTEX
  8
0
 10
179.126671
 20
692.885348
 42
-0.005687
  0
VERTEX
  8
0
 10
181.331021
 20
694.808644
 42
-0.013962
  0
VERTEX
  8
0
 10
183.005555
 20
696.157568
 42
0.009970
  0
VERTEX
  8
0
 10
184.693365
 20
697.495114
 42
0.004038
  0
VERTEX
  8
0
 10
186.942257
 20
699.382233
 42
0.003994
  0
VERTEX
  8
0
 10
189.329814
 20
701.451969
 42
0.005066
  0
VERTEX
  8
0
 10
191.500000
 20
703.403249
 42
-0.006721
  0
VERTEX
  8
0
 10
193.468726
 20
705.161644
 42
-0.009950
  0
VERTEX
  8
0
 10
195.245177
 20
706.644872
 42
-0.005570
  0
VERTEX
  8
0
 10
196.768124
 20
707.838218
 42
-0.163323
  0
VERTEX
  8
0
 10
197.228261
 20
707.995681
 42
0.176577
  0
VERTEX
  8
0
 10
197.688889
 20
708.166690
 42
0.004685
  0
VERTEX
  8
0
 10
199.358220
 20
709.614356
 42
0.009265
  0
VERTEX
  8
0
 10
201.296065
 20
711.391979
 42
0.006142
  0
VERTEX
  8
0
 10
203.456522
 20
713.500000
 42
-0.004335
  0
VERTEX
  8
0
 10
205.601472
 20
715.608071
 42
-0.006741
  0
VERTEX
  8
0
 10
207.490800
 20
717.384375
 42
-0.002530
  0
VERTEX
  8
0
 10
209.133586
 20
718.872474
 42
-0.184805
  0
VERTEX
  8
0
 10
209.466830
 20
719.000000
 42
0.161967
  0
VERTEX
  8
0
 10
210.085158
 20
719.205694
 42
0.008029
  0
VERTEX
  8
0
 10
211.803751
 20
720.534960
 42
0.010511
  0
VERTEX
  8
0
 10
214.035518
 20
722.397372
 42
0.004375
  0
VERTEX
  8
0
 10
216.971993
 20
725.000000
 42
-0.006166
  0
VERTEX
  8
0
 10
218.293842
 20
726.163141
 42
-0.003028
  0
VERTEX
  8
0
 10
220.003417
 20
727.612562
 42
-0.003004
  0
VERTEX
  8
0
 10
221.797738
 20
729.097003
 42
-0.004365
  0
VERTEX
  8
0
 10
223.399921
 20
730.383191
 42
0.009236
  0
VERTEX
  8
0
 10
225.163112
 20
731.827098
 42
0.003783
  0
VERTEX
  8
0
 10
227.505054
 20
733.849070
 42
0.003742
  0
VERTEX
  8
0
 10
229.987823
 20
736.058713
 42
0.004782
  0
VERTEX
  8
0
 10
232.240206
 20
738.133191
 42
-0.006343
  0
VERTEX
  8
0
 10
234.277847
 20
739.998165
 42
-0.009488
  0
VERTEX
  8
0
 10
236.108770
 20
741.570375
 42
-0.005015
  0
VERTEX
  8
0
 10
237.681669
 20
742.843663
 42
-0.169210
  0
VERTEX
  8
0
 10
238.130404
 20
743.000000
 42
0.161597
  0
VERTEX
  8
0
 10
238.565404
 20
743.144359
 42
0.007566
  0
VERTEX
  8
0
 10
239.809034
 20
744.101562
 42
0.011838
  0
VERTEX
  8
0
 10
241.262888
 20
745.313231
 42
0.008170
  0
VERTEX
  8
0
 10
242.852926
 20
746.750000
 42
-0.004065
  0
VERTEX
  8
0
 10
245.874904
 20
749.526089
 42
-0.002579
  0
VERTEX
  8
0
 10
249.438267
 20
752.713250
 42
-0.002143
  0
VERTEX
  8
0
 10
253.716169
 20
756.467388
 42
-0.001198
  0
VERTEX
  8
0
 10
258.951318
 20
761.000000
 42
-0.004882
  0
VERTEX
  8
0
 10
260.297913
 20
762.137532
 42
-0.002710
  0
VERTEX
  8
0
 10
261.961373
 20
763.500000
 42
-0.002702
  0
VERTEX
  8
0
 10
263.660761
 20
764.861431
 42
-0.004361
  0
VERTEX
  8
0
 10
265.123844
 20
766.000000
 42
0.011148
  0
VERTEX
  8
0
 10
266.611686
 20
767.190611
 42
0.006003
  0
VERTEX
  8
0
 10
268.394335
 20
768.720312
 42
0.005975
  0
VERTEX
  8
0
 10
270.174694
 20
770.323677
 42
0.009340
  0
VERTEX
  8
0
 10
271.664094
 20
771.750000
 42
-0.011542
  0
VERTEX
  8
0
 10
272.975571
 20
772.994909
 42
-0.015965
  0
VERTEX
  8
0
 10
274.211688
 20
774.045313
 42
-0.012499
  0
VERTEX
  8
0
 10
275.273106
 20
774.847914
 42
-0.156877
  0
VERTEX
  8
0
 10
275.745907
 20
775.000000
 42
0.151025
  0
VERTEX
  8
0
 10
276.150732
 20
775.125131
 42
0.031553
  0
VERTEX
  8
0
 10
276.743234
 20
775.587500
 42
0.030445
  0
VERTEX
  8
0
 10
277.388505
 20
776.234340
 42
0.024702
  0
VERTEX
  8
0
 10
278.000000
 20
777.000000
 42
-0.021140
  0
VERTEX
  8
0
 10
278.602728
 20
777.765803
 42
-0.027243
  0
VERTEX
  8
0
 10
279.221756
 20
778.412500
 42
-0.027061
  0
VERTEX
  8
0
 10
279.780095
 20
778.881518
 42
-0.162551
  0
VERTEX
  8
0
 10
280.134910
 20
779.000000
 42
0.158229
  0
VERTEX
  8
0
 10
280.553673
 20
779.135924
 42
0.009237
  0
VERTEX
  8
0
 10
281.639271
 20
779.954687
 42
0.013256
  0
VERTEX
  8
0
 10
282.908727
 20
781.004917
 42
0.009319
  0
VERTEX
  8
0
 10
284.282439
 20
782.250000
 42
-0.005585
  0
VERTEX
  8
0
 10
285.871007
 20
783.711577
 42
-0.003278
  0
VERTEX
  8
0
 10
287.802621
 20
785.426563
 42
-0.003278
  0
VERTEX
  8
0
 10
289.756866
 20
787.116347
 42
-0.005577
  0
VERTEX
  8
0
 10
291.415548
 20
788.500000
 42
0.006062
  0
VERTEX
  8
0
 10
293.056709
 20
789.871735
 42
0.003743
  0
VERTEX
  8
0
 10
294.954627
 20
791.522354
 42
0.003753
  0
VERTEX
  8
0
 10
296.805897
 20
793.181797
 42
0.006728
  0
VERTEX
  8
0
 10
298.297260
 20
794.576097
 42
-0.009819
  0
VERTEX
  8
0
 10
299.645983
 20
795.821506
 42
-0.009659
  0
VERTEX
  8
0
 10
301.049853
 20
797.019987
 42
-0.009576
  0
VERTEX
  8
0
 10
302.319951
 20
798.022443
 42
-0.035959
  0
VERTEX
  8
0
 10
303.170325
 20
798.576097
 42
0.044122
  0
VERTEX
  8
0
 10
304.121851
 20
799.217932
 42
0.005853
  0
VERTEX
  8
0
 10
305.990666
 20
800.770791
 42
0.006745
  0
VERTEX
  8
0
 10
308.165032
 20
802.672153
 42
0.005615
  0
VERTEX
  8
0
 10
310.425923
 20
804.750000
 42
-0.004309
  0
VERTEX
  8
0
 10
312.603943
 20
806.762207
 42
-0.006674
  0
VERTEX
  8
0
 10
314.522138
 20
808.457813
 42
-0.002557
  0
VERTEX
  8
0
 10
316.187223
 20
809.875790
 42
-0.176887
  0
VERTEX
  8
0
 10
316.527337
 20
810.000000
 42
0.181446
  0
VERTEX
  8
0
 10
316.864470
 20
810.126508
 42
0.002719
  0
VERTEX
  8
0
 10
318.467511
 20
811.542187
 42
0.006960
  0
VERTEX
  8
0
 10
320.314216
 20
813.237797
 42
0.004494
  0
VERTEX
  8
0
 10
322.407390
 20
815.250000
 42
-0.005346
  0
VERTEX
  8
0
 10
324.671094
 20
817.418732
 42
-0.004962
  0
VERTEX
  8
0
 10
327.037055
 20
819.593682
 42
-0.004953
  0
VERTEX
  8
0
 10
329.179898
 20
821.486517
 42
-0.016618
  0
VERTEX
  8
0
 10
330.635651
 20
822.664663
 42
0.003415
  0
VERTEX
  8
0
 10
331.914042
 20
823.644567
 42
0.002157
  0
VERTEX
  8
0
 10
333.392972
 20
824.804577
 42
0.002165
  0
VERTEX
  8
0
 10
334.836750
 20
825.957313
 42
0.003986
  0
VERTEX
  8
0
 10
336.000000
 20
826.909738
 42
-0.000580
  0
VERTEX
  8
0
 10
337.194892
 20
827.901739
 42
-0.000269
  0
VERTEX
  8
0
 10
338.749939
 20
829.188288
 42
-0.000266
  0
VERTEX
  8
0
 10
340.385275
 20
830.538317
 42
-0.000370
  0
VERTEX
  8
0
 10
341.850857
 20
831.745075
 42
0.002504
  0
VERTEX
  8
0
 10
343.231111
 20
832.891491
 42
0.002463
  0
VERTEX
  8
0
 10
344.607416
 20
834.057928
 42
0.002421
  0
VERTEX
  8
0
 10
345.803727
 20
835.092066
 42
0.009400
  0
VERTEX
  8
0
 10
346.529429
 20
835.750000
 42
-0.035804
  0
VERTEX
  8
0
 10
347.116541
 20
836.228361
 42
-0.032958
  0
VERTEX
  8
0
 10
347.781859
 20
836.632812
 42
-0.034595
  0
VERTEX
  8
0
 10
348.424285
 20
836.912917
 42
-0.085708
  0
VERTEX
  8
0
 10
348.928571
 20
837.000000
 42
0.092210
  0
VERTEX
  8
0
 10
349.337584
 20
837.076077
 42
0.096076
  0
VERTEX
  8
0
 10
349.685268
 20
837.293750
 42
0.099376
  0
VERTEX
  8
0
 10
349.917947
 20
837.618459
 42
0.106313
  0
VERTEX
  8
0
 10
350.000000
 20
838.000000
 42
-0.148195
  0
VERTEX
  8
0
 10
350.115568
 20
838.381354
 42
-0.098894
  0
VERTEX
  8
0
 10
350.440625
 20
838.706250
 42
-0.082425
  0
VERTEX
  8
0
 10
350.926543
 20
838.925306
 42
-0.064853
  0
VERTEX
  8
0
 10
351.500000
 20
839.000000
 42
0.064853
  0
VERTEX
  8
0
 10
352.073457
 20
839.074694
 42
0.082425
  0
VERTEX
  8
0
 10
352.559375
 20
839.293750
 42
0.098894
  0
VERTEX
  8
0
 10
352.884432
 20
839.618646
 42
0.148195
  0
VERTEX
  8
0
 10
353.000000
 20
840.000000
 42
-0.191087
  0
VERTEX
  8
0
 10
353.151477
 20
840.381882
 42
-0.088204
  0
VERTEX
  8
0
 10
353.587500
 20
840.706250
 42
-0.068025
  0
VERTEX
  8
0
 10
354.234582
 20
840.926307
 42
-0.048028
  0
VERTEX
  8
0
 10
355.000000
 20
841.000000
 42
0.035668
  0
VERTEX
  8
0
 10
355.766546
 20
841.054752
 42
0.053772
  0
VERTEX
  8
0
 10
356.414792
 20
841.220312
 42
0.069969
  0
VERTEX
  8
0
 10
356.860952
 20
841.462433
 42
0.235061
  0
VERTEX
  8
0
 10
357.007802
 20
841.750000
 42
-0.262796
  0
VERTEX
  8
0
 10
357.456765
 20
842.526241
 42
-0.020084
  0
VERTEX
  8
0
 10
359.667192
 20
843.711774
 42
-0.026575
  0
VERTEX
  8
0
 10
362.031837
 20
844.708728
 42
-0.086680
  0
VERTEX
  8
0
 10
363.699365
 20
845.000000
 42
0.075310
  0
VERTEX
  8
0
 10
364.196298
 20
845.075275
 42
0.088930
  0
VERTEX
  8
0
 10
364.617938
 20
845.293750
 42
0.100706
  0
VERTEX
  8
0
 10
364.899802
 20
845.618643
 42
0.129178
  0
VERTEX
  8
0
 10
365.000000
 20
846.000000
 42
-0.251914
  0
VERTEX
  8
0
 10
365.206632
 20
846.384097
 42
-0.064068
  0
VERTEX
  8
0
 10
365.863914
 20
846.706250
 42
-0.049716
  0
VERTEX
  8
0
 10
366.814380
 20
846.927200
 42
-0.032276
  0
VERTEX
  8
0
 10
367.940983
 20
847.000000
 42
0.031397
  0
VERTEX
  8
0
 10
369.112115
 20
847.073612
 42
0.037109
  0
VERTEX
  8
0
 10
370.199600
 20
847.293750
 42
0.040338
  0
VERTEX
  8
0
 10
371.065839
 20
847.614422
 42
0.146547
  0
VERTEX
  8
0
 10
371.500000
 20
848.000000
 42
-0.158284
  0
VERTEX
  8
0
 10
371.955916
 20
848.386560
 42
-0.036095
  0
VERTEX
  8
0
 10
372.929939
 20
848.706250
 42
-0.033884
  0
VERTEX
  8
0
 10
374.159953
 20
848.926564
 42
-0.027380
  0
VERTEX
  8
0
 10
375.500000
 20
849.000000
 42
-0.027380
  0
VERTEX
  8
0
 10
376.840047
 20
848.926564
 42
-0.033884
  0
VERTEX
  8
0
 10
378.070061
 20
848.706250
 42
-0.036095
  0
VERTEX
  8
0
 10
379.044084
 20
848.386560
 42
-0.158284
  0
SEQEND
  0
POLYLINE
  8
0
 66
1
 70
1
  0
VERTEX
  8
0
 10
70.929002
 20
554.781366
 42
-0.024311
  0
VERTEX
  8
0
 10
72.582182
 20
554.125892
 42
-0.011860
  0
VERTEX
  8
0
 10
74.626019
 20
553.139083
 42
-0.011734
  0
VERTEX
  8
0
 10
76.707836
 20
552.009888
 42
-0.016634
  0
VERTEX
  8
0
 10
78.500000
 20
550.901886
 42
-0.039152
  0
VERTEX
  8
0
 10
83.143328
 20
547.258885
 42
-0.006889
  0
VERTEX
  8
0
 10
91.208608
 20
539.634525
 42
-0.006161
  0
VERTEX
  8
0
 10
99.089190
 20
531.785334
 42
-0.051535
  0
VERTEX
  8
0
 10
102.216488
 20
527.854934
 42
0.024582
  0
VERTEX
  8
0
 10
103.191289
 20
526.484486
 42
0.006373
  0
VERTEX
  8
0
 10
104.894910
 20
524.378501
 42
0.006466
  0
VERTEX
  8
0
 10
106.900993
 20
522.024863
 42
0.006554
  0
VERTEX
  8
0
 10
108.958370
 20
519.734616
 42
-0.003652
  0
VERTEX
  8
0
 10
111.055519
 20
517.427173
 42
-0.003348
  0
VERTEX
  8
0
 10
113.180937
 20
515.021812
 42
-0.003346
  0
VERTEX
  8
0
 10
115.048992
 20
512.849791
 42
-0.010967
  0
VERTEX
  8
0
 10
116.241895
 20
511.379682
 42
0.017037
  0
VERTEX
  8
0
 10
117.463853
 20
509.910574
 42
0.004947
  0
VERTEX
  8
0
 10
119.445798
 20
507.730282
 42
0.004967
  0
VERTEX
  8
0
 10
121.728601
 20
505.316935
 42
0.005289
  0
VERTEX
  8
0
 10
124.012045
 20
503.000000
 42
-0.008247
  0
VERTEX
  8
0
 10
126.312877
 20
500.637635
 42
-0.007155
  0
VERTEX
  8
0
 10
128.647940
 20
498.087500
 42
-0.007216
  0
VERTEX
  8
0
 10
130.696059
 20
495.717446
 42
-0.020882
  0
VERTEX
  8
0
 10
132.019292
 20
494.000000
 42
0.014883
  0
VERTEX
  8
0
 10
133.240271
 20
492.375332
 42
0.007086
  0
VERTEX
  8
0
 10
134.901939
 20
490.355488
 42
0.007017
  0
VERTEX
  8
0
 10
136.699512
 20
488.291929
 42
0.009897
  0
VERTEX
  8
0
 10
138.362858
 20
486.508044
 42
-0.006102
  0
VERTEX
  8
0
 10
140.142483
 20
484.628258
 42
-0.003203
  0
VERTEX
  8
0
 10
142.311804
 20
482.249702
 42
-0.003186
  0
VERTEX
  8
0
 10
144.503963
 20
479.783539
 42
-0.004890
  0
VERTEX
  8
0
 10
146.367789
 20
477.617285
 42
0.005862
  0
VERTEX
  8
0
 10
148.342202
 20
475.331503
 42
0.002892
  0
VERTEX
  8
0
 10
150.901788
 20
472.471066
 42
0.002869
  0
VERTEX
  8
0
 10
153.592719
 20
469.532698
 42
0.004187
  0
VERTEX
  8
0
 10
156.000000
 20
466.977415
 42
-0.004334
  0
VERTEX
  8
0
 10
158.361900
 20
464.468823
 42
-0.003279
  0
VERTEX
  8
0
 10
160.912500
 20
461.675808
 42
-0.003314
  0
VERTEX
  8
0
 10
163.273234
 20
459.021243
 42
-0.007688
  0
VERTEX
  8
0
 10
165.000000
 20
456.991315
 42
0.005199
  0
VERTEX
  8
0
 10
166.594065
 20
455.098373
 42
0.003239
  0
VERTEX
  8
0
 10
168.500000
 20
452.911093
 42
0.003250
  0
VERTEX
  8
0
 10
170.407530
 20
450.778502
 42
0.005887
  0
VERTEX
  8
0
 10
172.000000
 20
449.062308
 42
-0.006956
  0
VERTEX
  8
0
 10
173.617609
 20
447.311525
 42
-0.003512
  0
VERTEX
  8
0
 10
175.610282
 20
445.062094
 42
-0.003487
  0
VERTEX
  8
0
 10
177.636660
 20
442.709074
 42
-0.005178
  0
VERTEX
  8
0
 10
179.375430
 20
440.617800
 42
0.008711
  0
VERTEX
  8
0
 10
181.258423
 20
438.385337
 42
0.004099
  0
VERTEX
  8
0
 10
183.764670
 20
435.563891
 42
0.004061
  0
VERTEX
  8
0
 10
186.438788
 20
432.650633
 42
0.005706
  0
VERTEX
  8
0
 10
188.875430
 20
430.098010
 42
-0.005273
  0
VERTEX
  8
0
 10
191.199305
 20
427.667738
 42
-0.004893
  0
VERTEX
  8
0
 10
193.530665
 20
425.128225
 42
-0.004884
  0
VERTEX
  8
0
 10
195.560324
 20
422.828667
 42
-0.016381
  0
VERTEX
  8
0
 10
196.824707
 20
421.267058
 42
0.008437
  0
VERTEX
  8
0
 10
197.960431
 20
419.817873
 42
0.003882
  0
VERTEX
  8
0
 10
199.485690
 20
417.967415
 42
0.003844
  0
VERTEX
  8
0
 10
201.120595
 20
416.045239
 42
0.005314
  0
VERTEX
  8
0
 10
202.618892
 20
414.347680
 42
-0.004082
  0
VERTEX
  8
0
 10
204.108664
 20
412.668140
 42
-0.003090
  0
VERTEX
  8
0
 10
205.717169
 20
410.801484
 42
-0.003124
  0
VERTEX
  8
0
 10
207.205728
 20
409.029974
 42
-0.007253
  0
VERTEX
  8
0
 10
208.294185
 20
407.678647
 42
0.015408
  0
VERTEX
  8
0
 10
209.594391
 20
406.117250
 42
0.002958
  0
VERTEX
  8
0
 10
212.055167
 20
403.373631
 42
0.003148
  0
VERTEX
  8
0
 10
214.966884
 20
400.205927
 42
0.002896
  0
VERTEX
  8
0
 10
218.000000
 20
396.985173
 42
-0.001469
  0
VERTEX
  8
0
 10
225.870087
 20
388.675866
 42
-0.007718
  0
VERTEX
  8
0
 10
230.109529
 20
384.031819
 42
-0.013443
  0
VERTEX
  8
0
 10
232.676113
 20
380.969551
 42
-0.045871
  0
VERTEX
  8
0
 10
234.097721
 20
378.794979
 42
0.027089
  0
VERTEX
  8
0
 10
234.697075
 20
377.798470
 42
0.017000
  0
VERTEX
  8
0
 10
235.498074
 20
376.699070
 42
0.017056
  0
VERTEX
  8
0
 10
236.362922
 20
375.667595
 42
0.029677
  0
VERTEX
  8
0
 10
237.156977
 20
374.882705
 42
-0.042352
  0
VERTEX
  8
0
 10
237.862190
 20
374.149418
 42
-0.038556
  0
VERTEX
  8
0
 10
238.458612
 20
373.285362
 42
-0.040754
  0
VERTEX
  8
0
 10
238.869398
 20
372.425375
 42
-0.091292
  0
VERTEX
  8
0
 10
239.000000
 20
371.716038
 42
0.044872
  0
VERTEX
  8
0
 10
239.055523
 20
371.098614
 42
0.049973
  0
VERTEX
  8
0
 10
239.220313
 20
370.523878
 42
0.056323
  0
VERTEX
  8
0
 10
239.462300
 20
370.071964
 42
0.137972
  0
VERTEX
  8
0
 10
239.750000
 20
369.833333
 42
-0.183382
  0
VERTEX
  8
0
 10
240.131292
 20
369.455413
 42
-0.006594
  0
VERTEX
  8
0
 10
240.971995
 20
367.541667
 42
-0.011359
  0
VERTEX
  8
0
 10
241.899316
 20
365.206494
 42
-0.007633
  0
VERTEX
  8
0
 10
242.856793
 20
362.500000
 42
-0.030174
  0
VERTEX
  8
0
 10
244.662105
 20
355.832803
 42
-0.029266
  0
VERTEX
  8
0
 10
245.674483
 20
348.928398
 42
-0.031004
  0
VERTEX
  8
0
 10
245.833713
 20
342.582688
 42
-0.063676
  0
VERTEX
  8
0
 10
245.022969
 20
337.686022
 42
-0.009612
  0
VERTEX
  8
0
 10
242.649294
 20
330.288269
 42
-0.023057
  0
VERTEX
  8
0
 10
240.536081
 20
324.932546
 42
-0.031093
  0
VERTEX
  8
0
 10
238.474358
 20
321.011594
 42
-0.058903
  0
VERTEX
  8
0
 10
236.278073
 20
318.204545
 42
0.017829
  0
VERTEX
  8
0
 10
235.405827
 20
317.260605
 42
0.022293
  0
VERTEX
  8
0
 10
234.669184
 20
316.322563
 42
0.021258
  0
VERTEX
  8
0
 10
234.131242
 20
315.499020
 42
0.134837
  0
VERTEX
  8
0
 10
234.000000
 20
315.021200
 42
-0.192522
  0
VERTEX
  8
0
 10
233.437786
 20
313.615194
 42
-0.006003
  0
VERTEX
  8
0
 10
229.024306
 20
309.088972
 42
-0.012607
  0
VERTEX
  8
0
 10
224.391219
 20
304.678472
 42
-0.025709
  0
VERTEX
  8
0
 10
220.500000
 20
301.504862
 42
0.010307
  0
VERTEX
  8
0
 10
216.567811
 20
298.494596
 42
0.006678
  0
VERTEX
  8
0
 10
212.139747
 20
294.859690
 42
0.006451
  0
VERTEX
  8
0
 10
207.588813
 20
290.919462
 42
0.007039
  0
VERTEX
  8
0
 10
203.273334
 20
286.974466
 42
-0.011502
  0
VERTEX
  8
0
 10
201.577866
 20
285.452105
 42
-0.015767
  0
VERTEX
  8
0
 10
199.979916
 20
284.167500
 42
-0.012470
  0
VERTEX
  8
0
 10
198.610037
 20
283.188189
 42
-0.150038
  0
VERTEX
  8
0
 10
197.997018
 20
283.000000
 42
0.157116
  0
VERTEX
  8
0
 10
197.384594
 20
282.802686
 42
0.012236
  0
VERTEX
  8
0
 10
195.995693
 20
281.751562
 42
0.015756
  0
VERTEX
  8
0
 10
194.377497
 20
280.377976
 42
0.011365
  0
VERTEX
  8
0
 10
192.657971
 20
278.750000
 42
-0.008235
  0
VERTEX
  8
0
 10
190.769794
 20
276.939809
 42
-0.006236
  0
VERTEX
  8
0
 10
188.641046
 20
275.014063
 42
-0.006309
  0
VERTEX
  8
0
 10
186.596713
 20
273.255894
 42
-0.014563
  0
VERTEX
  8
0
 10
185.006741
 20
272.000000
 42
0.011927
  0
VERTEX
  8
0
 10
183.400584
 20
270.745011
 42
0.005024
  0
VERTEX
  8
0
 10
181.300115
 20
268.985937
 42
0.004967
  0
VERTEX
  8
0
 10
179.091854
 20
267.060228
 42
0.006453
  0
VERTEX
  8
0
 10
177.109308
 20
265.250000
 42
-0.007840
  0
VERTEX
  8
0
 10
175.315943
 20
263.621612
 42
-0.011430
  0
VERTEX
  8
0
 10
173.681288
 20
262.248438
 42
-0.007087
  0
VERTEX
  8
0
 10
172.282248
 20
261.158932
 42
-0.163298
  0
VERTEX
  8
0
 10
171.808593
 20
261.000000
 42
0.176795
  0
VERTEX
  8
0
 10
171.327134
 20
260.824268
 42
0.005128
  0
VERTEX
  8
0
 10
169.652606
 20
259.384375
 42
0.009746
  0
VERTEX
  8
0
 10
167.706569
 20
257.607655
 42
0.006490
  0
VERTEX
  8
0
 10
165.543478
 20
255.500000
 42
-0.008380
  0
VERTEX
  8
0
 10
163.364326
 20
253.392690
 42
-0.012206
  0
VERTEX
  8
0
 10
161.368458
 20
251.615625
 42
-0.007777
  0
VERTEX
  8
0
 10
159.657645
 20
250.210786
 42
-0.169587
  0
VERTEX
  8
0
 10
159.054048
 20
250.000000
 42
0.168539
  0
VERTEX
  8
0
 10
158.438480
 20
249.786439
 42
0.006423
  0
VERTEX
  8
0
 10
156.525889
 20
248.237500
 42
0.010904
  0
VERTEX
  8
0
 10
154.295006
 20
246.299028
 42
0.007399
  0
VERTEX
  8
0
 10
151.836965
 20
244.000000
 42
-0.005528
  0
VERTEX
  8
0
 10
149.396877
 20
241.700580
 42
-0.008404
  0
VERTEX
  8
0
 10
147.221897
 20
239.762500
 42
-0.003938
  0
VERTEX
  8
0
 10
145.345569
 20
238.171857
 42
-0.175599
  0
VERTEX
  8
0
 10
144.871311
 20
238.000000
 42
0.172592
  0
VERTEX
  8
0
 10
144.407220
 20
237.834885
 42
0.005447
  0
VERTEX
  8
0
 10
142.842188
 20
236.531250
 42
0.010003
  0
VERTEX
  8
0
 10
141.020565
 20
234.915987
 42
0.006703
  0
VERTEX
  8
0
 10
139.000000
 20
233.000000
 42
-0.008268
  0
VERTEX
  8
0
 10
136.967002
 20
231.084276
 42
-0.012025
  0
VERTEX
  8
0
 10
135.106816
 20
229.468750
 42
-0.007649
  0
VERTEX
  8
0
 10
133.513554
 20
228.191438
 42
-0.166636
  0
VERTEX
  8
0
 10
132.955084
 20
228.000000
 42
0.170771
  0
VERTEX
  8
0
 10
132.396058
 20
227.803334
 42
0.007309
  0
VERTEX
  8
0
 10
130.762689
 20
226.452024
 42
0.011797
  0
VERTEX
  8
0
 10
128.857814
 20
224.749422
 42
0.008057
  0
VERTEX
  8
0
 10
126.771739
 20
222.730295
 42
-0.005651
  0
VERTEX
  8
0
 10
124.591163
 20
220.599282
 42
-0.005941
  0
VERTEX
  8
0
 10
122.398616
 20
218.553763
 42
-0.005710
  0
VERTEX
  8
0
 10
120.466609
 20
216.833737
 42
-0.026368
  0
VERTEX
  8
0
 10
119.287381
 20
215.912327
 42
0.021113
  0
VERTEX
  8
0
 10
118.093788
 20
214.999719
 42
0.004494
  0
VERTEX
  8
0
 10
116.100658
 20
213.307320
 42
0.004693
  0
VERTEX
  8
0
 10
113.824996
 20
211.301916
 42
0.004448
  0
VERTEX
  8
0
 10
111.546045
 20
209.218375
 42
-0.005974
  0
VERTEX
  8
0
 10
109.193450
 20
207.080654
 42
-0.005307
  0
VERTEX
  8
0
 10
106.696554
 20
204.912619
 42
-0.005334
  0
VERTEX
  8
0
 10
104.408230
 20
203.009564
 42
-0.016280
  0
VERTEX
  8
0
 10
102.800870
 20
201.786343
 42
0.009967
  0
VERTEX
  8
0
 10
101.398823
 20
200.747052
 42
0.006763
  0
VERTEX
  8
0
 10
99.842558
 20
199.510676
 42
0.006816
  0
VERTEX
  8
0
 10
98.371531
 20
198.275404
 42
0.013540
  0
VERTEX
  8
0
 10
97.246751
 20
197.250000
 42
-0.015773
  0
VERTEX
  8
0
 10
96.293147
 20
196.388414
 42
-0.020240
  0
VERTEX
  8
0
 10
95.361070
 20
195.660937
 42
-0.018519
  0
VERTEX
  8
0
 10
94.550573
 20
195.123853
 42
-0.137912
  0
VERTEX
  8
0
 10
94.110085
 20
195.000000
 42
0.135122
  0
VERTEX
  8
0
 10
93.649444
 20
194.873200
 42
0.014047
  0
VERTEX
  8
0
 10
92.692284
 20
194.265984
 42
0.016637
  0
VERTEX
  8
0
 10
91.576648
 20
193.458203
 42
0.012580
  0
VERTEX
  8
0
 10
90.405539
 20
192.501221
 42
-0.019441
  0
VERTEX
  8
0
 10
89.201467
 20
191.544549
 42
-0.022734
  0
VERTEX
  8
0
 10
87.986315
 20
190.736100
 42
-0.022469
  0
VERTEX
  8
0
 10
86.911510
 20
190.153571
 42
-0.113170
  0
VERTEX
  8
0
 10
86.250000
 20
190.001221
 42
0.078495
  0
VERTEX
  8
0
 10
85.772496
 20
189.925315
 42
0.090501
  0
VERTEX
  8
0
 10
85.367188
 20
189.706609
 42
0.100671
  0
VERTEX
  8
0
 10
85.096215
 20
189.381478
 42
0.124164
  0
VERTEX
  8
0
 10
85.000000
 20
189.000000
 42
-0.186414
  0
VERTEX
  8
0
 10
84.852535
 20
188.618213
 42
-0.089706
  0
VERTEX
  8
0
 10
84.429836
 20
188.293750
 42
-0.069539
  0
VERTEX
  8
0
 10
83.801778
 20
188.073784
 42
-0.049547
  0
VERTEX
  8
0
 10
83.059017
 20
188.000000
 42
0.046881
  0
VERTEX
  8
0
 10
82.270704
 20
187.925923
 42
0.046318
  0
VERTEX
  8
0
 10
81.506650
 20
187.706250
 42
0.050262
  0
VERTEX
  8
0
 10
80.876024
 20
187.383556
 42
0.111412
  0
VERTEX
  8
0
 10
80.500000
 20
187.000000
 42
-0.130646
  0
VERTEX
  8
0
 10
80.093337
 20
186.615492
 42
-0.045439
  0
VERTEX
  8
0
 10
79.346475
 20
186.293750
 42
-0.041396
  0
VERTEX
  8
0
 10
78.420660
 20
186.073842
 42
-0.037634
  0
VERTEX
  8
0
 10
77.440983
 20
186.000000
 42
0.039081
  0
VERTEX
  8
0
 10
76.506280
 20
185.926830
 42
0.058208
  0
VERTEX
  8
0
 10
75.717039
 20
185.706250
 42
0.076538
  0
VERTEX
  8
0
 10
75.179376
 20
185.382793
 42
0.222681
  0
VERTEX
  8
0
 10
75.000000
 20
185.000000
 42
-0.332234
  0
VERTEX
  8
0
 10
74.707933
 20
184.608967
 42
-0.026982
  0
VERTEX
  8
0
 10
73.384375
 20
184.293750
 42
-0.027868
  0
VERTEX
  8
0
 10
71.608340
 20
184.072146
 42
-0.017105
  0
VERTEX
  8
0
 10
69.500000
 20
184.000000
 42
-0.017105
  0
VERTEX
  8
0
 10
67.391660
 20
184.072146
 42
-0.027868
  0
VERTEX
  8
0
 10
65.615625
 20
184.293750
 42
-0.026982
  0
VERTEX
  8
0
 10
64.292067
 20
184.608967
 42
-0.332234
  0
VERTEX
  8
0
 10
64.000000
 20
185.000000
 42
0.136987
  0
VERTEX
  8
0
 10
63.893525
 20
185.381339
 42
0.100238
  0
VERTEX
  8
0
 10
63.594240
 20
185.706250
 42
0.086280
  0
VERTEX
  8
0
 10
63.146585
 20
185.924974
 42
0.070706
  0
VERTEX
  8
0
 10
62.618689
 20
186.000000
 42
-0.206015
  0
VERTEX
  8
0
 10
60.998947
 20
186.696962
 42
-0.027990
  0
VERTEX
  8
0
 10
58.560378
 20
189.579579
 42
-0.030450
  0
VERTEX
  8
0
 10
56.089201
 20
193.308176
 42
-0.029873
  0
VERTEX
  8
0
 10
54.071730
 20
197.332662
 42
-0.063979
  0
VERTEX
  8
0
 10
51.559930
 20
206.161546
 42
-0.024692
  0
VERTEX
  8
0
 10
50.286097
 20
218.855205
 42
-0.009554
  0
VERTEX
  8
0
 10
49.579212
 20
241.262815
 42
-0.000840
  0
VERTEX
  8
0
 10
48.969289
 20
298.000000
 42
0.000118
  0
VERTEX
  8
0
 10
48.624529
 20
335.048303
 42
0.000079
  0
VERTEX
  8
0
 10
48.213292
 20
377.446857
 42
0.000079
  0
VERTEX
  8
0
 10
47.801720
 20
418.538747
 42
0.000156
  0
VERTEX
  8
0
 10
47.459165
 20
451.202068
 42
-0.000910
  0
VERTEX
  8
0
 10
47.030374
 20
498.953091
 42
-0.011317
  0
VERTEX
  8
0
 10
47.310874
 20
517.078756
 42
-0.029851
  0
VERTEX
  8
0
 10
48.400825
 20
528.188746
 42
-0.035003
  0
VERTEX
  8
0
 10
50.787475
 20
538.500000
 42
-0.045885
  0
VERTEX
  8
0
 10
52.991270
 20
543.874470
 42
-0.040511
  0
VERTEX
  8
0
 10
56.217874
 20
549.000196
 42
-0.040896
  0
VERTEX
  8
0
 10
59.675502
 20
552.906479
 42
-0.193487
  0
VERTEX
  8
0
 10
62.395528
 20
554.000000
 42
0.060144
  0
VERTEX
  8
0
 10
63.009955
 20
554.074176
 42
0.050871
  0
VERTEX
  8
0
 10
63.626872
 20
554.293750
 42
0.053173
  0
VERTEX
  8
0
 10
64.154479
 20
554.617112
 42
0.090530
  0
VERTEX
  8
0
 10
64.500000
 20
555.000000
 42
-0.144221
  0
VERTEX
  8
0
 10
65.286971
 20
555.705345
 42
-0.120144
  0
VERTEX
  8
0
 10
66.390739
 20
555.935010
 42
-0.060745
  0
VERTEX
  8
0
 10
68.085421
 20
555.669629
 42
-0.013049
  0
SEQEND
  0
ENDSEC
  0
EOF
