999
DXF data, created by potrace 1.11, written by Peter Selinger 2001-2013
  0
SECTION
  2
HEADER
  9
$ACADVER
  1
AC1006
  9
$EXTMIN
 10
0.000000
 20
0.000000
 30
0.000000
  9
$EXTMAX
 10
485.000000
 20
1938.000000
 30
0.000000
  0
ENDSEC
  0
SECTION
  2
ENTITIES
  0
POLYLINE
  8
0
 66
1
 70
1
  0
VERTEX
  8
0
 10
-0.000000
 20
969.000000
 42
0.000000
  0
VERTEX
  8
0
 10
-0.000000
 20
28.405214
 42
0.000000
  0
VERTEX
  8
0
 10
6.750000
 20
28.822939
 42
0.011854
  0
VERTEX
  8
0
 10
9.360830
 20
29.046748
 42
0.017985
  0
VERTEX
  8
0
 10
11.615104
 20
29.376360
 42
0.012932
  0
VERTEX
  8
0
 10
13.417242
 20
29.754854
 42
0.248882
  0
VERTEX
  8
0
 10
13.833333
 20
30.120332
 42
-0.196629
  0
VERTEX
  8
0
 10
14.150328
 20
30.460251
 42
-0.041935
  0
VERTEX
  8
0
 10
14.925521
 20
30.741598
 42
-0.037909
  0
VERTEX
  8
0
 10
15.942138
 20
30.935586
 42
-0.028200
  0
VERTEX
  8
0
 10
17.083333
 20
31.000000
 42
0.032551
  0
VERTEX
  8
0
 10
18.200605
 20
31.072814
 42
0.050076
  0
VERTEX
  8
0
 10
19.143229
 20
31.293750
 42
0.064635
  0
VERTEX
  8
0
 10
19.794591
 20
31.615970
 42
0.250638
  0
VERTEX
  8
0
 10
20.000000
 20
32.000000
 42
-0.226478
  0
VERTEX
  8
0
 10
20.182831
 20
32.382936
 42
-0.074992
  0
VERTEX
  8
0
 10
20.734375
 20
32.706250
 42
-0.057076
  0
VERTEX
  8
0
 10
21.542644
 20
32.926884
 42
-0.038131
  0
VERTEX
  8
0
 10
22.500000
 20
33.000000
 42
0.038131
  0
VERTEX
  8
0
 10
23.457356
 20
33.073116
 42
0.057076
  0
VERTEX
  8
0
 10
24.265625
 20
33.293750
 42
0.074992
  0
VERTEX
  8
0
 10
24.817169
 20
33.617064
 42
0.226478
  0
VERTEX
  8
0
 10
25.000000
 20
34.000000
 42
-0.191087
  0
VERTEX
  8
0
 10
25.151477
 20
34.381882
 42
-0.088204
  0
VERTEX
  8
0
 10
25.587500
 20
34.706250
 42
-0.068025
  0
VERTEX
  8
0
 10
26.234582
 20
34.926307
 42
-0.048028
  0
VERTEX
  8
0
 10
27.000000
 20
35.000000
 42
0.042005
  0
VERTEX
  8
0
 10
27.765706
 20
35.064440
 42
0.061586
  0
VERTEX
  8
0
 10
28.412500
 20
35.258112
 42
0.080913
  0
VERTEX
  8
0
 10
28.851170
 20
35.542657
 42
0.211547
  0
VERTEX
  8
0
 10
29.000000
 20
35.878680
 42
-0.208074
  0
VERTEX
  8
0
 10
29.180943
 20
36.294660
 42
-0.033695
  0
VERTEX
  8
0
 10
29.881250
 20
36.864273
 42
-0.032352
  0
VERTEX
  8
0
 10
30.851056
 20
37.459931
 42
-0.023358
  0
VERTEX
  8
0
 10
32.000000
 20
38.000000
 42
0.023358
  0
VERTEX
  8
0
 10
33.148944
 20
38.540069
 42
0.032352
  0
VERTEX
  8
0
 10
34.118750
 20
39.135727
 42
0.033695
  0
VERTEX
  8
0
 10
34.819057
 20
39.705340
 42
0.208074
  0
VERTEX
  8
0
 10
35.000000
 20
40.121320
 42
-0.192189
  0
VERTEX
  8
0
 10
35.133934
 20
40.456894
 42
-0.087840
  0
VERTEX
  8
0
 10
35.519867
 20
40.741888
 42
-0.067671
  0
VERTEX
  8
0
 10
36.092441
 20
40.935266
 42
-0.047679
  0
VERTEX
  8
0
 10
36.769759
 20
41.000000
 42
0.193965
  0
VERTEX
  8
0
 10
38.782005
 20
41.811128
 42
0.002618
  0
VERTEX
  8
0
 10
48.529193
 20
51.292583
 42
0.002576
  0
VERTEX
  8
0
 10
58.187027
 20
60.884380
 42
0.198465
  0
VERTEX
  8
0
 10
59.000000
 20
62.851859
 42
-0.169191
  0
VERTEX
  8
0
 10
59.401323
 20
64.003912
 42
-0.026882
  0
VERTEX
  8
0
 10
61.009545
 20
65.822201
 42
-0.026567
  0
VERTEX
  8
0
 10
63.260275
 20
67.876308
 42
-0.018454
  0
VERTEX
  8
0
 10
66.002104
 20
69.959488
 42
0.010019
  0
VERTEX
  8
0
 10
67.577173
 20
71.114814
 42
0.005763
  0
VERTEX
  8
0
 10
69.430063
 20
72.566037
 42
0.005756
  0
VERTEX
  8
0
 10
71.258400
 20
74.067253
 42
0.009569
  0
VERTEX
  8
0
 10
72.759814
 20
75.379096
 42
-0.008441
  0
VERTEX
  8
0
 10
74.182931
 20
76.628200
 42
-0.006648
  0
VERTEX
  8
0
 10
75.764357
 20
77.933921
 42
-0.006728
  0
VERTEX
  8
0
 10
77.266495
 20
79.108044
 42
-0.016476
  0
VERTEX
  8
0
 10
78.410436
 20
79.919608
 42
0.014462
  0
VERTEX
  8
0
 10
81.701971
 20
82.234907
 42
0.009804
  0
VERTEX
  8
0
 10
85.319448
 20
85.051388
 42
0.009869
  0
VERTEX
  8
0
 10
88.684904
 20
87.891169
 42
0.020915
  0
VERTEX
  8
0
 10
91.151210
 20
90.246784
 42
-0.020182
  0
VERTEX
  8
0
 10
92.251578
 20
91.300853
 42
-0.024608
  0
VERTEX
  8
0
 10
93.365468
 20
92.191243
 42
-0.024298
  0
VERTEX
  8
0
 10
94.355334
 20
92.834906
 42
-0.132764
  0
VERTEX
  8
0
 10
94.966134
 20
93.000000
 42
0.159238
  0
VERTEX
  8
0
 10
95.642669
 20
93.221066
 42
0.012454
  0
VERTEX
  8
0
 10
97.166476
 20
94.395313
 42
0.015986
  0
VERTEX
  8
0
 10
98.940201
 20
95.930492
 42
0.011518
  0
VERTEX
  8
0
 10
100.822510
 20
97.750000
 42
-0.007832
  0
VERTEX
  8
0
 10
102.946025
 20
99.833162
 42
-0.005121
  0
VERTEX
  8
0
 10
105.456349
 20
102.171299
 42
-0.005151
  0
VERTEX
  8
0
 10
107.950342
 20
104.400321
 42
-0.009825
  0
VERTEX
  8
0
 10
110.007586
 20
106.131017
 42
0.013995
  0
VERTEX
  8
0
 10
112.408197
 20
108.185006
 42
0.003275
  0
VERTEX
  8
0
 10
116.310020
 20
111.764072
 42
0.003373
  0
VERTEX
  8
0
 10
120.745717
 20
115.942809
 42
0.003307
  0
VERTEX
  8
0
 10
125.154183
 20
120.208499
 42
-0.003364
  0
VERTEX
  8
0
 10
129.547833
 20
124.458883
 42
-0.003505
  0
VERTEX
  8
0
 10
133.939083
 20
128.591680
 42
-0.003372
  0
VERTEX
  8
0
 10
137.784341
 20
132.112154
 42
-0.015319
  0
VERTEX
  8
0
 10
140.099031
 20
134.077482
 42
0.010397
  0
VERTEX
  8
0
 10
142.193326
 20
135.820494
 42
0.003970
  0
VERTEX
  8
0
 10
145.038873
 20
138.330573
 42
0.003929
  0
VERTEX
  8
0
 10
148.087113
 20
141.106300
 42
0.004811
  0
VERTEX
  8
0
 10
150.890323
 20
143.750000
 42
-0.005295
  0
VERTEX
  8
0
 10
153.435052
 20
146.145279
 42
-0.008080
  0
VERTEX
  8
0
 10
155.698139
 20
148.164062
 42
-0.003657
  0
VERTEX
  8
0
 10
157.652565
 20
149.826796
 42
-0.176195
  0
VERTEX
  8
0
 10
158.128819
 20
150.000000
 42
0.172597
  0
VERTEX
  8
0
 10
158.592838
 20
150.165094
 42
0.005445
  0
VERTEX
  8
0
 10
160.157850
 20
151.468750
 42
0.010002
  0
VERTEX
  8
0
 10
161.979444
 20
153.084013
 42
0.006701
  0
VERTEX
  8
0
 10
164.000000
 20
155.000000
 42
-0.006585
  0
VERTEX
  8
0
 10
166.019637
 20
156.916007
 42
-0.009847
  0
VERTEX
  8
0
 10
167.838371
 20
158.531250
 42
-0.005289
  0
VERTEX
  8
0
 10
169.401481
 20
159.837022
 42
-0.173037
  0
VERTEX
  8
0
 10
169.858317
 20
160.000000
 42
0.156136
  0
VERTEX
  8
0
 10
170.293825
 20
160.139395
 42
0.009777
  0
VERTEX
  8
0
 10
171.390915
 20
160.954688
 42
0.013673
  0
VERTEX
  8
0
 10
172.673882
 20
162.004959
 42
0.009680
  0
VERTEX
  8
0
 10
174.057578
 20
163.250000
 42
-0.006227
  0
VERTEX
  8
0
 10
175.802011
 20
164.841564
 42
-0.002383
  0
VERTEX
  8
0
 10
178.267120
 20
167.014063
 42
-0.002359
  0
VERTEX
  8
0
 10
180.966113
 20
169.347579
 42
-0.002896
  0
VERTEX
  8
0
 10
183.509191
 20
171.500000
 42
0.005600
  0
VERTEX
  8
0
 10
186.067005
 20
173.688741
 42
0.004308
  0
VERTEX
  8
0
 10
188.811208
 20
176.132812
 42
0.004357
  0
VERTEX
  8
0
 10
191.337463
 20
178.462520
 42
0.010347
  0
VERTEX
  8
0
 10
193.164874
 20
180.250000
 42
-0.013915
  0
VERTEX
  8
0
 10
194.654278
 20
181.686213
 42
-0.018620
  0
VERTEX
  8
0
 10
196.087201
 20
182.898437
 42
-0.016002
  0
VERTEX
  8
0
 10
197.326214
 20
183.807372
 42
-0.151370
  0
VERTEX
  8
0
 10
197.947915
 20
184.000000
 42
0.154937
  0
VERTEX
  8
0
 10
198.587109
 20
184.202942
 42
0.013115
  0
VERTEX
  8
0
 10
199.988132
 20
185.248438
 42
0.016415
  0
VERTEX
  8
0
 10
201.618518
 20
186.622096
 42
0.011954
  0
VERTEX
  8
0
 10
203.342029
 20
188.250000
 42
-0.008689
  0
VERTEX
  8
0
 10
205.233628
 20
190.060178
 42
-0.006546
  0
VERTEX
  8
0
 10
207.372834
 20
191.985938
 42
-0.006621
  0
VERTEX
  8
0
 10
209.432128
 20
193.743833
 42
-0.015154
  0
VERTEX
  8
0
 10
211.040511
 20
195.000000
 42
0.012842
  0
VERTEX
  8
0
 10
212.663285
 20
196.255371
 42
0.005474
  0
VERTEX
  8
0
 10
214.772323
 20
198.014063
 42
0.005412
  0
VERTEX
  8
0
 10
216.982035
 20
199.939788
 42
0.007080
  0
VERTEX
  8
0
 10
218.957325
 20
201.750000
 42
-0.007693
  0
VERTEX
  8
0
 10
220.738621
 20
203.378416
 42
-0.011252
  0
VERTEX
  8
0
 10
222.359967
 20
204.751563
 42
-0.006869
  0
VERTEX
  8
0
 10
223.748221
 20
205.843438
 42
-0.164645
  0
VERTEX
  8
0
 10
224.210788
 20
206.000000
 42
0.177414
  0
VERTEX
  8
0
 10
224.681348
 20
206.172395
 42
0.004911
  0
VERTEX
  8
0
 10
226.353087
 20
207.615625
 42
0.009525
  0
VERTEX
  8
0
 10
228.294815
 20
209.392315
 42
0.006326
  0
VERTEX
  8
0
 10
230.456522
 20
211.500000
 42
-0.008651
  0
VERTEX
  8
0
 10
232.637994
 20
213.607262
 42
-0.012547
  0
VERTEX
  8
0
 10
234.641033
 20
215.384375
 42
-0.008174
  0
VERTEX
  8
0
 10
236.357637
 20
216.784673
 42
-0.168548
  0
VERTEX
  8
0
 10
236.978261
 20
217.000000
 42
0.096862
  0
VERTEX
  8
0
 10
237.368229
 20
217.076262
 42
0.097407
  0
VERTEX
  8
0
 10
237.699864
 20
217.293750
 42
0.098440
  0
VERTEX
  8
0
 10
237.921918
 20
217.618393
 42
0.101258
  0
VERTEX
  8
0
 10
238.000000
 20
218.000000
 42
-0.107021
  0
VERTEX
  8
0
 10
238.082610
 20
218.381532
 42
-0.099487
  0
VERTEX
  8
0
 10
238.316780
 20
218.706250
 42
-0.095880
  0
VERTEX
  8
0
 10
238.666715
 20
218.923949
 42
-0.091591
  0
VERTEX
  8
0
 10
239.078401
 20
219.000000
 42
0.152680
  0
VERTEX
  8
0
 10
239.687576
 20
219.190458
 42
0.015563
  0
VERTEX
  8
0
 10
240.918553
 20
220.101562
 42
0.018308
  0
VERTEX
  8
0
 10
242.343485
 20
221.313756
 42
0.013613
  0
VERTEX
  8
0
 10
243.828401
 20
222.750000
 42
-0.011756
  0
VERTEX
  8
0
 10
245.524093
 20
224.402342
 42
-0.007197
  0
VERTEX
  8
0
 10
247.596468
 20
226.273982
 42
-0.007213
  0
VERTEX
  8
0
 10
249.703043
 20
228.069046
 42
-0.012729
  0
VERTEX
  8
0
 10
251.500000
 20
229.480575
 42
0.010604
  0
VERTEX
  8
0
 10
253.270139
 20
230.858912
 42
0.006598
  0
VERTEX
  8
0
 10
255.289479
 20
232.546000
 42
0.006619
  0
VERTEX
  8
0
 10
257.238143
 20
234.263502
 42
0.011903
  0
VERTEX
  8
0
 10
258.783333
 20
235.730575
 42
-0.013276
  0
VERTEX
  8
0
 10
260.109472
 20
236.982767
 42
-0.017864
  0
VERTEX
  8
0
 10
261.378416
 20
238.039607
 42
-0.015062
  0
VERTEX
  8
0
 10
262.472765
 20
238.835180
 42
-0.150748
  0
VERTEX
  8
0
 10
263.007018
 20
239.000000
 42
0.164466
  0
VERTEX
  8
0
 10
263.568791
 20
239.189922
 42
0.009764
  0
VERTEX
  8
0
 10
264.993015
 20
240.321875
 42
0.013859
  0
VERTEX
  8
0
 10
266.655020
 20
241.776028
 42
0.009722
  0
VERTEX
  8
0
 10
268.447368
 20
243.500000
 42
-0.010602
  0
VERTEX
  8
0
 10
270.245916
 20
245.223852
 42
-0.014901
  0
VERTEX
  8
0
 10
271.926974
 20
246.678125
 42
-0.011084
  0
VERTEX
  8
0
 10
273.368579
 20
247.799792
 42
-0.161137
  0
VERTEX
  8
0
 10
273.973684
 20
248.000000
 42
0.096416
  0
VERTEX
  8
0
 10
274.365406
 20
248.076245
 42
0.097290
  0
VERTEX
  8
0
 10
274.698520
 20
248.293750
 42
0.098538
  0
VERTEX
  8
0
 10
274.921552
 20
248.618400
 42
0.101724
  0
VERTEX
  8
0
 10
275.000000
 20
249.000000
 42
-0.103674
  0
VERTEX
  8
0
 10
275.079978
 20
249.381574
 42
-0.098920
  0
VERTEX
  8
0
 10
275.307102
 20
249.706250
 42
-0.096788
  0
VERTEX
  8
0
 10
275.646398
 20
249.923826
 42
-0.094588
  0
VERTEX
  8
0
 10
276.045455
 20
250.000000
 42
0.123307
  0
VERTEX
  8
0
 10
276.592840
 20
250.137077
 42
0.024340
  0
VERTEX
  8
0
 10
277.467916
 20
250.660938
 42
0.024447
  0
VERTEX
  8
0
 10
278.451495
 20
251.388643
 42
0.020581
  0
VERTEX
  8
0
 10
279.419793
 20
252.250000
 42
-0.006821
  0
VERTEX
  8
0
 10
280.483744
 20
253.250213
 42
-0.004194
  0
VERTEX
  8
0
 10
281.762417
 20
254.400291
 42
-0.004204
  0
VERTEX
  8
0
 10
283.046615
 20
255.516899
 42
-0.007497
  0
VERTEX
  8
0
 10
284.124338
 20
256.410566
 42
0.001304
  0
VERTEX
  8
0
 10
285.256238
 20
257.325742
 42
0.000604
  0
VERTEX
  8
0
 10
286.722509
 20
258.520550
 42
0.000598
  0
VERTEX
  8
0
 10
288.260009
 20
259.779566
 42
0.000833
  0
VERTEX
  8
0
 10
289.633138
 20
260.910566
 42
-0.003474
  0
VERTEX
  8
0
 10
291.071750
 20
262.082804
 42
-0.002008
  0
VERTEX
  8
0
 10
292.817485
 20
263.473729
 42
-0.002007
  0
VERTEX
  8
0
 10
294.580412
 20
264.855357
 42
-0.003368
  0
VERTEX
  8
0
 10
296.073740
 20
266.000000
 42
0.008595
  0
VERTEX
  8
0
 10
297.505483
 20
267.121391
 42
0.006090
  0
VERTEX
  8
0
 10
299.074670
 20
268.426562
 42
0.006149
  0
VERTEX
  8
0
 10
300.543379
 20
269.710256
 42
0.012934
  0
VERTEX
  8
0
 10
301.645148
 20
270.750000
 42
-0.011368
  0
VERTEX
  8
0
 10
302.552722
 20
271.611871
 42
-0.015767
  0
VERTEX
  8
0
 10
303.406828
 20
272.339063
 42
-0.012238
  0
VERTEX
  8
0
 10
304.139981
 20
272.895602
 42
-0.157490
  0
VERTEX
  8
0
 10
304.463203
 20
273.000000
 42
0.196029
  0
VERTEX
  8
0
 10
306.513469
 20
273.835948
 42
0.001088
  0
VERTEX
  8
0
 10
321.866421
 20
288.917323
 42
0.001074
  0
VERTEX
  8
0
 10
337.163197
 20
304.074030
 42
0.199550
  0
VERTEX
  8
0
 10
338.000000
 20
306.087268
 42
-0.133623
  0
VERTEX
  8
0
 10
338.145911
 20
306.623501
 42
-0.022107
  0
VERTEX
  8
0
 10
338.734375
 20
307.530465
 42
-0.022924
  0
VERTEX
  8
0
 10
339.542811
 20
308.560172
 42
-0.018492
  0
VERTEX
  8
0
 10
340.500000
 20
309.590909
 42
0.016317
  0
VERTEX
  8
0
 10
341.457311
 20
310.612830
 42
0.020937
  0
VERTEX
  8
0
 10
342.265625
 20
311.615950
 42
0.019325
  0
VERTEX
  8
0
 10
342.861290
 20
312.490838
 42
0.140695
  0
VERTEX
  8
0
 10
343.000000
 20
312.974026
 42
-0.098223
  0
VERTEX
  8
0
 10
343.085171
 20
313.403400
 42
-0.032081
  0
VERTEX
  8
0
 10
343.370710
 20
313.985897
 42
-0.030549
  0
VERTEX
  8
0
 10
343.779024
 20
314.607764
 42
-0.030089
  0
VERTEX
  8
0
 10
344.261993
 20
315.178571
 42
0.045103
  0
VERTEX
  8
0
 10
345.854355
 20
317.179219
 42
0.003643
  0
VERTEX
  8
0
 10
349.512834
 20
322.826869
 42
0.005383
  0
VERTEX
  8
0
 10
353.137065
 20
328.649363
 42
0.013439
  0
VERTEX
  8
0
 10
355.623019
 20
333.000000
 42
-0.011720
  0
VERTEX
  8
0
 10
356.396632
 20
334.364760
 42
-0.015418
  0
VERTEX
  8
0
 10
357.168949
 20
335.569792
 42
-0.012870
  0
VERTEX
  8
0
 10
357.861447
 20
336.526526
 42
-0.125732
  0
VERTEX
  8
0
 10
358.250000
 20
336.833333
 42
0.159230
  0
VERTEX
  8
0
 10
358.538485
 20
337.093607
 42
0.049842
  0
VERTEX
  8
0
 10
358.779688
 20
337.631771
 42
0.044078
  0
VERTEX
  8
0
 10
358.944732
 20
338.325242
 42
0.036404
  0
VERTEX
  8
0
 10
359.000000
 20
339.083333
 42
-0.050201
  0
VERTEX
  8
0
 10
359.073823
 20
339.816758
 42
-0.070178
  0
VERTEX
  8
0
 10
359.293750
 20
340.436979
 42
-0.090315
  0
VERTEX
  8
0
 10
359.618250
 20
340.854207
 42
-0.184457
  0
VERTEX
  8
0
 10
360.000000
 20
341.000000
 42
0.152654
  0
VERTEX
  8
0
 10
360.381374
 20
341.119214
 42
0.098162
  0
VERTEX
  8
0
 10
360.706250
 20
341.454815
 42
0.080889
  0
VERTEX
  8
0
 10
360.925429
 20
341.956305
 42
0.062734
  0
VERTEX
  8
0
 10
361.000000
 20
342.548306
 42
-0.070472
  0
VERTEX
  8
0
 10
361.120438
 20
343.398568
 42
-0.014176
  0
VERTEX
  8
0
 10
361.587500
 20
344.857782
 42
-0.014713
  0
VERTEX
  8
0
 10
362.234369
 20
346.537770
 42
-0.013277
  0
VERTEX
  8
0
 10
363.000000
 20
348.236136
 42
0.011331
  0
VERTEX
  8
0
 10
363.765714
 20
349.917199
 42
0.013285
  0
VERTEX
  8
0
 10
364.412500
 20
351.545124
 42
0.012255
  0
VERTEX
  8
0
 10
364.886153
 20
352.941119
 42
0.075794
  0
VERTEX
  8
0
 10
365.000000
 20
353.687829
 42
-0.074616
  0
VERTEX
  8
0
 10
365.075238
 20
354.189190
 42
-0.088552
  0
VERTEX
  8
0
 10
365.293750
 20
354.614550
 42
-0.100665
  0
VERTEX
  8
0
 10
365.618647
 20
354.898901
 42
-0.130303
  0
VERTEX
  8
0
 10
366.000000
 20
355.000000
 42
0.226478
  0
VERTEX
  8
0
 10
366.382936
 20
355.182831
 42
0.074992
  0
VERTEX
  8
0
 10
366.706250
 20
355.734375
 42
0.057076
  0
VERTEX
  8
0
 10
366.926884
 20
356.542644
 42
0.038131
  0
VERTEX
  8
0
 10
367.000000
 20
357.500000
 42
-0.038131
  0
VERTEX
  8
0
 10
367.073116
 20
358.457356
 42
-0.057076
  0
VERTEX
  8
0
 10
367.293750
 20
359.265625
 42
-0.074992
  0
VERTEX
  8
0
 10
367.617064
 20
359.817169
 42
-0.226478
  0
VERTEX
  8
0
 10
368.000000
 20
360.000000
 42
0.254951
  0
VERTEX
  8
0
 10
368.384262
 20
360.209557
 42
0.062710
  0
VERTEX
  8
0
 10
368.706250
 20
360.881250
 42
0.048861
  0
VERTEX
  8
0
 10
368.927234
 20
361.850749
 42
0.031626
  0
VERTEX
  8
0
 10
369.000000
 20
363.000000
 42
-0.031626
  0
VERTEX
  8
0
 10
369.072766
 20
364.149251
 42
-0.048861
  0
VERTEX
  8
0
 10
369.293750
 20
365.118750
 42
-0.062710
  0
VERTEX
  8
0
 10
369.615738
 20
365.790443
 42
-0.254951
  0
VERTEX
  8
0
 10
370.000000
 20
366.000000
 42
0.254951
  0
VERTEX
  8
0
 10
370.384262
 20
366.209557
 42
0.062710
  0
VERTEX
  8
0
 10
370.706250
 20
366.881250
 42
0.048861
  0
VERTEX
  8
0
 10
370.927234
 20
367.850749
 42
0.031626
  0
VERTEX
  8
0
 10
371.000000
 20
369.000000
 42
-0.031626
  0
VERTEX
  8
0
 10
371.072766
 20
370.149251
 42
-0.048861
  0
VERTEX
  8
0
 10
371.293750
 20
371.118750
 42
-0.062710
  0
VERTEX
  8
0
 10
371.615738
 20
371.790443
 42
-0.254951
  0
VERTEX
  8
0
 10
372.000000
 20
372.000000
 42
0.254951
  0
VERTEX
  8
0
 10
372.384262
 20
372.209557
 42
0.062710
  0
VERTEX
  8
0
 10
372.706250
 20
372.881250
 42
0.048861
  0
VERTEX
  8
0
 10
372.927234
 20
373.850749
 42
0.031626
  0
VERTEX
  8
0
 10
373.000000
 20
375.000000
 42
-0.031626
  0
VERTEX
  8
0
 10
373.072766
 20
376.149251
 42
-0.048861
  0
VERTEX
  8
0
 10
373.293750
 20
377.118750
 42
-0.062710
  0
VERTEX
  8
0
 10
373.615738
 20
377.790443
 42
-0.254951
  0
VERTEX
  8
0
 10
374.000000
 20
378.000000
 42
0.270668
  0
VERTEX
  8
0
 10
374.385211
 20
378.225013
 42
0.055558
  0
VERTEX
  8
0
 10
374.706250
 20
378.979167
 42
0.044499
  0
VERTEX
  8
0
 10
374.927394
 20
380.056172
 42
0.028402
  0
VERTEX
  8
0
 10
375.000000
 20
381.333333
 42
-0.020319
  0
VERTEX
  8
0
 10
375.054080
 20
382.663541
 42
-0.024472
  0
VERTEX
  8
0
 10
375.216507
 20
383.904007
 42
-0.024249
  0
VERTEX
  8
0
 10
375.451007
 20
384.916368
 42
-0.128014
  0
VERTEX
  8
0
 10
375.737044
 20
385.403710
 42
0.124024
  0
VERTEX
  8
0
 10
376.081119
 20
385.979527
 42
0.007884
  0
VERTEX
  8
0
 10
376.621308
 20
387.886387
 42
0.011184
  0
VERTEX
  8
0
 10
377.184322
 20
390.207983
 42
0.008065
  0
VERTEX
  8
0
 10
377.712308
 20
392.820377
 42
-0.002262
  0
VERTEX
  8
0
 10
378.254059
 20
395.670856
 42
-0.001853
  0
VERTEX
  8
0
 10
378.858191
 20
398.712861
 42
-0.001871
  0
VERTEX
  8
0
 10
379.434536
 20
401.505916
 42
-0.004939
  0
VERTEX
  8
0
 10
379.874409
 20
403.500000
 42
0.001183
  0
VERTEX
  8
0
 10
380.313242
 20
405.420663
 42
0.000534
  0
VERTEX
  8
0
 10
380.879902
 20
407.940625
 42
0.000529
  0
VERTEX
  8
0
 10
381.472384
 20
410.601839
 42
0.000723
  0
VERTEX
  8
0
 10
382.000000
 20
413.000000
 42
-0.000983
  0
VERTEX
  8
0
 10
382.528921
 20
415.398157
 42
-0.000718
  0
VERTEX
  8
0
 10
383.125364
 20
418.059375
 42
-0.000726
  0
VERTEX
  8
0
 10
383.697790
 20
420.579304
 42
-0.001605
  0
VERTEX
  8
0
 10
384.143520
 20
422.500000
 42
0.009621
  0
VERTEX
  8
0
 10
384.546471
 20
424.372166
 42
0.005013
  0
VERTEX
  8
0
 10
384.980389
 20
426.720313
 42
0.004983
  0
VERTEX
  8
0
 10
385.377696
 20
429.140087
 42
0.007581
  0
VERTEX
  8
0
 10
385.669894
 20
431.250000
 42
-0.017001
  0
VERTEX
  8
0
 10
385.957056
 20
433.070503
 42
-0.026817
  0
VERTEX
  8
0
 10
386.339119
 20
434.604688
 42
-0.024993
  0
VERTEX
  8
0
 10
386.755147
 20
435.752710
 42
-0.301998
  0
VERTEX
  8
0
 10
387.127229
 20
436.000000
 42
0.310926
  0
VERTEX
  8
0
 10
387.466347
 20
436.233450
 42
0.036780
  0
VERTEX
  8
0
 10
387.743624
 20
437.157664
 42
0.033629
  0
VERTEX
  8
0
 10
387.936916
 20
438.430481
 42
0.020873
  0
VERTEX
  8
0
 10
388.000000
 20
439.940983
 42
-0.023552
  0
VERTEX
  8
0
 10
388.073250
 20
441.495210
 42
-0.030444
  0
VERTEX
  8
0
 10
388.293750
 20
442.905850
 42
-0.031293
  0
VERTEX
  8
0
 10
388.612194
 20
444.019590
 42
-0.170670
  0
VERTEX
  8
0
 10
389.000000
 20
444.500000
 42
0.158284
  0
VERTEX
  8
0
 10
389.386560
 20
444.955916
 42
0.036095
  0
VERTEX
  8
0
 10
389.706250
 20
445.929939
 42
0.033884
  0
VERTEX
  8
0
 10
389.926564
 20
447.159953
 42
0.027380
  0
VERTEX
  8
0
 10
390.000000
 20
448.500000
 42
-0.027380
  0
VERTEX
  8
0
 10
390.073436
 20
449.840047
 42
-0.033884
  0
VERTEX
  8
0
 10
390.293750
 20
451.070061
 42
-0.036095
  0
VERTEX
  8
0
 10
390.613440
 20
452.044084
 42
-0.158284
  0
VERTEX
  8
0
 10
391.000000
 20
452.500000
 42
0.170670
  0
VERTEX
  8
0
 10
391.387806
 20
452.980410
 42
0.031293
  0
VERTEX
  8
0
 10
391.706250
 20
454.094150
 42
0.030444
  0
VERTEX
  8
0
 10
391.926750
 20
455.504790
 42
0.023552
  0
VERTEX
  8
0
 10
392.000000
 20
457.059017
 42
-0.023957
  0
VERTEX
  8
0
 10
392.072405
 20
458.569320
 42
-0.038191
  0
VERTEX
  8
0
 10
392.293750
 20
459.842336
 42
-0.044731
  0
VERTEX
  8
0
 10
392.613040
 20
460.751017
 42
-0.293924
  0
VERTEX
  8
0
 10
393.000000
 20
461.000000
 42
0.295869
  0
VERTEX
  8
0
 10
393.387127
 20
461.251055
 42
0.043820
  0
VERTEX
  8
0
 10
393.706250
 20
462.175000
 42
0.037669
  0
VERTEX
  8
0
 10
393.927610
 20
463.467056
 42
0.023598
  0
VERTEX
  8
0
 10
394.000000
 20
465.000000
 42
-0.023598
  0
VERTEX
  8
0
 10
394.072390
 20
466.532944
 42
-0.037669
  0
VERTEX
  8
0
 10
394.293750
 20
467.825000
 42
-0.043820
  0
VERTEX
  8
0
 10
394.612873
 20
468.748945
 42
-0.295869
  0
VERTEX
  8
0
 10
395.000000
 20
469.000000
 42
0.277684
  0
VERTEX
  8
0
 10
395.385692
 20
469.232098
 42
0.052312
  0
VERTEX
  8
0
 10
395.706250
 20
470.028125
 42
0.042582
  0
VERTEX
  8
0
 10
395.927458
 20
471.158889
 42
0.027026
  0
VERTEX
  8
0
 10
396.000000
 20
472.500000
 42
-0.027026
  0
VERTEX
  8
0
 10
396.072542
 20
473.841111
 42
-0.042582
  0
VERTEX
  8
0
 10
396.293750
 20
474.971875
 42
-0.052312
  0
VERTEX
  8
0
 10
396.614308
 20
475.767902
 42
-0.277684
  0
VERTEX
  8
0
 10
397.000000
 20
476.000000
 42
0.275259
  0
VERTEX
  8
0
 10
397.385522
 20
476.229636
 42
0.053437
  0
VERTEX
  8
0
 10
397.706250
 20
477.010789
 42
0.043243
  0
VERTEX
  8
0
 10
397.927436
 20
478.122516
 42
0.027497
  0
VERTEX
  8
0
 10
398.000000
 20
479.440983
 42
-0.026918
  0
VERTEX
  8
0
 10
398.073414
 20
480.803639
 42
-0.033489
  0
VERTEX
  8
0
 10
398.293750
 20
482.052725
 42
-0.035556
  0
VERTEX
  8
0
 10
398.613307
 20
483.041340
 42
-0.159713
  0
VERTEX
  8
0
 10
399.000000
 20
483.500000
 42
0.158284
  0
VERTEX
  8
0
 10
399.386560
 20
483.955916
 42
0.036095
  0
VERTEX
  8
0
 10
399.706250
 20
484.929939
 42
0.033884
  0
VERTEX
  8
0
 10
399.926564
 20
486.159953
 42
0.027380
  0
VERTEX
  8
0
 10
400.000000
 20
487.500000
 42
-0.024400
  0
VERTEX
  8
0
 10
400.065195
 20
488.835150
 42
-0.031238
  0
VERTEX
  8
0
 10
400.261294
 20
490.050002
 42
-0.032422
  0
VERTEX
  8
0
 10
400.544827
 20
491.009530
 42
-0.167820
  0
VERTEX
  8
0
 10
400.889512
 20
491.431715
 42
0.141945
  0
VERTEX
  8
0
 10
401.271355
 20
491.853942
 42
0.024812
  0
VERTEX
  8
0
 10
401.697061
 20
492.850822
 42
0.025189
  0
VERTEX
  8
0
 10
402.090575
 20
494.106847
 42
0.020254
  0
VERTEX
  8
0
 10
402.389512
 20
495.490732
 42
-0.000012
  0
VERTEX
  8
0
 10
402.667351
 20
497.087616
 42
-0.000007
  0
VERTEX
  8
0
 10
402.999682
 20
498.997277
 42
-0.000007
  0
VERTEX
  8
0
 10
403.331913
 20
500.906058
 42
-0.000012
  0
VERTEX
  8
0
 10
403.609406
 20
502.500000
 42
-0.023222
  0
VERTEX
  8
0
 10
403.907606
 20
503.840922
 42
-0.034922
  0
VERTEX
  8
0
 10
404.301411
 20
504.971875
 42
-0.037981
  0
VERTEX
  8
0
 10
404.726897
 20
505.787531
 42
-0.259088
  0
VERTEX
  8
0
 10
405.109406
 20
506.000000
 42
0.291300
  0
VERTEX
  8
0
 10
405.453834
 20
506.219270
 42
0.045959
  0
VERTEX
  8
0
 10
405.738388
 20
507.010789
 42
0.038897
  0
VERTEX
  8
0
 10
405.935498
 20
508.122324
 42
0.024443
  0
VERTEX
  8
0
 10
406.000000
 20
509.440983
 42
-0.026918
  0
VERTEX
  8
0
 10
406.073414
 20
510.803639
 42
-0.033489
  0
VERTEX
  8
0
 10
406.293750
 20
512.052725
 42
-0.035556
  0
VERTEX
  8
0
 10
406.613307
 20
513.041340
 42
-0.159713
  0
VERTEX
  8
0
 10
407.000000
 20
513.500000
 42
0.159713
  0
VERTEX
  8
0
 10
407.386693
 20
513.958660
 42
0.035556
  0
VERTEX
  8
0
 10
407.706250
 20
514.947275
 42
0.033489
  0
VERTEX
  8
0
 10
407.926586
 20
516.196361
 42
0.026918
  0
VERTEX
  8
0
 10
408.000000
 20
517.559017
 42
-0.023656
  0
VERTEX
  8
0
 10
408.062425
 20
518.877723
 42
-0.037753
  0
VERTEX
  8
0
 10
408.253306
 20
519.989211
 42
-0.043967
  0
VERTEX
  8
0
 10
408.528515
 20
520.783799
 42
-0.295555
  0
VERTEX
  8
0
 10
408.862319
 20
521.000000
 42
0.315792
  0
VERTEX
  8
0
 10
409.231954
 20
521.259316
 42
0.019637
  0
VERTEX
  8
0
 10
409.659919
 20
522.604588
 42
0.023324
  0
VERTEX
  8
0
 10
410.058278
 20
524.368658
 42
0.014616
  0
VERTEX
  8
0
 10
410.366638
 20
526.462428
 42
-0.010544
  0
VERTEX
  8
0
 10
410.680571
 20
528.721509
 42
-0.010178
  0
VERTEX
  8
0
 10
411.092653
 20
530.992242
 42
-0.010145
  0
VERTEX
  8
0
 10
411.536628
 20
532.976102
 42
-0.036248
  0
VERTEX
  8
0
 10
411.936643
 20
534.212428
 42
0.026778
  0
VERTEX
  8
0
 10
412.450104
 20
535.702511
 42
0.002417
  0
VERTEX
  8
0
 10
413.515245
 20
539.499901
 42
0.003134
  0
VERTEX
  8
0
 10
414.736068
 20
544.045814
 42
0.002444
  0
VERTEX
  8
0
 10
416.007452
 20
549.000000
 42
-0.001049
  0
VERTEX
  8
0
 10
417.278543
 20
554.011058
 42
-0.001252
  0
VERTEX
  8
0
 10
418.498739
 20
558.730231
 42
-0.001079
  0
VERTEX
  8
0
 10
419.546190
 20
562.704760
 42
-0.008171
  0
VERTEX
  8
0
 10
420.075128
 20
564.570998
 42
0.016631
  0
VERTEX
  8
0
 10
420.429303
 20
565.906328
 42
0.012908
  0
VERTEX
  8
0
 10
420.728319
 20
567.379972
 42
0.013102
  0
VERTEX
  8
0
 10
420.935839
 20
568.770224
 42
0.030502
  0
VERTEX
  8
0
 10
421.000000
 20
569.820998
 42
-0.043943
  0
VERTEX
  8
0
 10
421.073451
 20
570.655135
 42
-0.063734
  0
VERTEX
  8
0
 10
421.293750
 20
571.359918
 42
-0.083503
  0
VERTEX
  8
0
 10
421.617786
 20
571.836754
 42
-0.204612
  0
VERTEX
  8
0
 10
422.000000
 20
572.000000
 42
0.275259
  0
VERTEX
  8
0
 10
422.385522
 20
572.229636
 42
0.053437
  0
VERTEX
  8
0
 10
422.706250
 20
573.010789
 42
0.043243
  0
VERTEX
  8
0
 10
422.927436
 20
574.122516
 42
0.027497
  0
VERTEX
  8
0
 10
423.000000
 20
575.440983
 42
-0.026918
  0
VERTEX
  8
0
 10
423.073414
 20
576.803639
 42
-0.033489
  0
VERTEX
  8
0
 10
423.293750
 20
578.052725
 42
-0.035556
  0
VERTEX
  8
0
 10
423.613307
 20
579.041340
 42
-0.159713
  0
VERTEX
  8
0
 10
424.000000
 20
579.500000
 42
0.159713
  0
VERTEX
  8
0
 10
424.386693
 20
579.958660
 42
0.035556
  0
VERTEX
  8
0
 10
424.706250
 20
580.947275
 42
0.033489
  0
VERTEX
  8
0
 10
424.926586
 20
582.196361
 42
0.026918
  0
VERTEX
  8
0
 10
425.000000
 20
583.559017
 42
-0.027497
  0
VERTEX
  8
0
 10
425.072564
 20
584.877484
 42
-0.043243
  0
VERTEX
  8
0
 10
425.293750
 20
585.989211
 42
-0.053437
  0
VERTEX
  8
0
 10
425.614478
 20
586.770364
 42
-0.275259
  0
VERTEX
  8
0
 10
426.000000
 20
587.000000
 42
0.295869
  0
VERTEX
  8
0
 10
426.387127
 20
587.251055
 42
0.043820
  0
VERTEX
  8
0
 10
426.706250
 20
588.175000
 42
0.037669
  0
VERTEX
  8
0
 10
426.927610
 20
589.467056
 42
0.023598
  0
VERTEX
  8
0
 10
427.000000
 20
591.000000
 42
-0.023598
  0
VERTEX
  8
0
 10
427.072390
 20
592.532944
 42
-0.037669
  0
VERTEX
  8
0
 10
427.293750
 20
593.825000
 42
-0.043820
  0
VERTEX
  8
0
 10
427.612873
 20
594.748945
 42
-0.295869
  0
VERTEX
  8
0
 10
428.000000
 20
595.000000
 42
0.277684
  0
VERTEX
  8
0
 10
428.385692
 20
595.232098
 42
0.052312
  0
VERTEX
  8
0
 10
428.706250
 20
596.028125
 42
0.042582
  0
VERTEX
  8
0
 10
428.927458
 20
597.158889
 42
0.027026
  0
VERTEX
  8
0
 10
429.000000
 20
598.500000
 42
-0.027026
  0
VERTEX
  8
0
 10
429.072542
 20
599.841111
 42
-0.042582
  0
VERTEX
  8
0
 10
429.293750
 20
600.971875
 42
-0.052312
  0
VERTEX
  8
0
 10
429.614308
 20
601.767902
 42
-0.277684
  0
VERTEX
  8
0
 10
430.000000
 20
602.000000
 42
0.277684
  0
VERTEX
  8
0
 10
430.385692
 20
602.232098
 42
0.052312
  0
VERTEX
  8
0
 10
430.706250
 20
603.028125
 42
0.042582
  0
VERTEX
  8
0
 10
430.927458
 20
604.158889
 42
0.027026
  0
VERTEX
  8
0
 10
431.000000
 20
605.500000
 42
-0.024144
  0
VERTEX
  8
0
 10
431.064807
 20
606.841294
 42
-0.038464
  0
VERTEX
  8
0
 10
431.262896
 20
607.971875
 42
-0.045206
  0
VERTEX
  8
0
 10
431.548726
 20
608.778132
 42
-0.292909
  0
VERTEX
  8
0
 10
431.894965
 20
609.000000
 42
0.270375
  0
VERTEX
  8
0
 10
432.276291
 20
609.222465
 42
0.035740
  0
VERTEX
  8
0
 10
432.693491
 20
610.101563
 42
0.033494
  0
VERTEX
  8
0
 10
433.074516
 20
611.313150
 42
0.021941
  0
VERTEX
  8
0
 10
433.356594
 20
612.750000
 42
-0.003562
  0
VERTEX
  8
0
 10
434.279018
 20
618.573161
 42
-0.018941
  0
VERTEX
  8
0
 10
434.926063
 20
621.731029
 42
-0.029707
  0
VERTEX
  8
0
 10
435.494955
 20
623.574185
 42
-0.312634
  0
VERTEX
  8
0
 10
436.109406
 20
624.000000
 42
0.223052
  0
VERTEX
  8
0
 10
436.450331
 20
624.160051
 42
0.076388
  0
VERTEX
  8
0
 10
436.738388
 20
624.640082
 42
0.058097
  0
VERTEX
  8
0
 10
436.934840
 20
625.344612
 42
0.038987
  0
VERTEX
  8
0
 10
437.000000
 20
626.179002
 42
-0.052691
  0
VERTEX
  8
0
 10
437.226138
 20
628.318942
 42
-0.016170
  0
VERTEX
  8
0
 10
438.008633
 20
631.476719
 42
-0.016755
  0
VERTEX
  8
0
 10
439.040757
 20
634.712717
 42
-0.031396
  0
VERTEX
  8
0
 10
440.122756
 20
637.236431
 42
0.038596
  0
VERTEX
  8
0
 10
440.459134
 20
638.053262
 42
0.022193
  0
VERTEX
  8
0
 10
440.742309
 20
639.080003
 42
0.022075
  0
VERTEX
  8
0
 10
440.936382
 20
640.142971
 42
0.034124
  0
VERTEX
  8
0
 10
441.000000
 20
641.074028
 42
-0.057422
  0
VERTEX
  8
0
 10
441.148308
 20
642.361157
 42
-0.006319
  0
VERTEX
  8
0
 10
441.861468
 20
645.249433
 42
-0.007649
  0
VERTEX
  8
0
 10
442.809654
 20
648.675343
 42
-0.006116
  0
VERTEX
  8
0
 10
443.932657
 20
652.337597
 42
0.002165
  0
VERTEX
  8
0
 10
446.683724
 20
661.062601
 42
0.005874
  0
VERTEX
  8
0
 10
448.534217
 20
667.278153
 42
0.005688
  0
VERTEX
  8
0
 10
449.764271
 20
671.788576
 42
0.063802
  0
VERTEX
  8
0
 10
450.000000
 20
673.628403
 42
-0.047701
  0
VERTEX
  8
0
 10
450.063037
 20
674.287647
 42
-0.022026
  0
VERTEX
  8
0
 10
450.263577
 20
675.126336
 42
-0.021582
  0
VERTEX
  8
0
 10
450.553708
 20
675.996282
 42
-0.027979
  0
VERTEX
  8
0
 10
450.897282
 20
676.763569
 42
0.033737
  0
VERTEX
  8
0
 10
451.365935
 20
677.843318
 42
0.004494
  0
VERTEX
  8
0
 10
452.178835
 20
680.193048
 42
0.005185
  0
VERTEX
  8
0
 10
453.089839
 20
683.001142
 42
0.004335
  0
VERTEX
  8
0
 10
454.000000
 20
686.000000
 42
-0.004335
  0
VERTEX
  8
0
 10
454.910161
 20
688.998858
 42
-0.005185
  0
VERTEX
  8
0
 10
455.821165
 20
691.806952
 42
-0.004494
  0
VERTEX
  8
0
 10
456.634065
 20
694.156682
 42
-0.033737
  0
VERTEX
  8
0
 10
457.102718
 20
695.236431
 42
0.044911
  0
VERTEX
  8
0
 10
457.447143
 20
696.081083
 42
0.022343
  0
VERTEX
  8
0
 10
457.736423
 20
697.201147
 42
0.021979
  0
VERTEX
  8
0
 10
457.934462
 20
698.396972
 42
0.030051
  0
VERTEX
  8
0
 10
458.000000
 20
699.486431
 42
-0.037919
  0
VERTEX
  8
0
 10
458.073104
 20
700.448995
 42
-0.056821
  0
VERTEX
  8
0
 10
458.293750
 20
701.261639
 42
-0.074638
  0
VERTEX
  8
0
 10
458.617031
 20
701.816384
 42
-0.227337
  0
VERTEX
  8
0
 10
459.000000
 20
702.000000
 42
0.226478
  0
VERTEX
  8
0
 10
459.382936
 20
702.182831
 42
0.074992
  0
VERTEX
  8
0
 10
459.706250
 20
702.734375
 42
0.057076
  0
VERTEX
  8
0
 10
459.926884
 20
703.542644
 42
0.038131
  0
VERTEX
  8
0
 10
460.000000
 20
704.500000
 42
-0.038131
  0
VERTEX
  8
0
 10
460.073116
 20
705.457356
 42
-0.057076
  0
VERTEX
  8
0
 10
460.293750
 20
706.265625
 42
-0.074992
  0
VERTEX
  8
0
 10
460.617064
 20
706.817169
 42
-0.226478
  0
VERTEX
  8
0
 10
461.000000
 20
707.000000
 42
0.254951
  0
VERTEX
  8
0
 10
461.384262
 20
707.209557
 42
0.062710
  0
VERTEX
  8
0
 10
461.706250
 20
707.881250
 42
0.048861
  0
VERTEX
  8
0
 10
461.927234
 20
708.850749
 42
0.031626
  0
VERTEX
  8
0
 10
462.000000
 20
710.000000
 42
-0.031626
  0
VERTEX
  8
0
 10
462.072766
 20
711.149251
 42
-0.048861
  0
VERTEX
  8
0
 10
462.293750
 20
712.118750
 42
-0.062710
  0
VERTEX
  8
0
 10
462.615738
 20
712.790443
 42
-0.254951
  0
VERTEX
  8
0
 10
463.000000
 20
713.000000
 42
0.254951
  0
VERTEX
  8
0
 10
463.384262
 20
713.209557
 42
0.062710
  0
VERTEX
  8
0
 10
463.706250
 20
713.881250
 42
0.048861
  0
VERTEX
  8
0
 10
463.927234
 20
714.850749
 42
0.031626
  0
VERTEX
  8
0
 10
464.000000
 20
716.000000
 42
-0.031626
  0
VERTEX
  8
0
 10
464.072766
 20
717.149251
 42
-0.048861
  0
VERTEX
  8
0
 10
464.293750
 20
718.118750
 42
-0.062710
  0
VERTEX
  8
0
 10
464.615738
 20
718.790443
 42
-0.254951
  0
VERTEX
  8
0
 10
465.000000
 20
719.000000
 42
0.192146
  0
VERTEX
  8
0
 10
465.381905
 20
719.152390
 42
0.087854
  0
VERTEX
  8
0
 10
465.706250
 20
719.591486
 42
0.067684
  0
VERTEX
  8
0
 10
465.926327
 20
720.242941
 42
0.047692
  0
VERTEX
  8
0
 10
466.000000
 20
721.013569
 42
-0.035570
  0
VERTEX
  8
0
 10
466.063918
 20
721.910913
 42
-0.022283
  0
VERTEX
  8
0
 10
466.259478
 20
722.945728
 42
-0.022335
  0
VERTEX
  8
0
 10
466.544695
 20
723.952750
 42
-0.037499
  0
VERTEX
  8
0
 10
466.883329
 20
724.763569
 42
0.009063
  0
VERTEX
  8
0
 10
467.292397
 20
725.605111
 42
0.004071
  0
VERTEX
  8
0
 10
467.800532
 20
726.724298
 42
0.004029
  0
VERTEX
  8
0
 10
468.318410
 20
727.915860
 42
0.005474
  0
VERTEX
  8
0
 10
468.765303
 20
729.000000
 42
-0.013216
  0
VERTEX
  8
0
 10
470.841026
 20
733.822325
 42
-0.003731
  0
VERTEX
  8
0
 10
474.328792
 20
741.223849
 42
-0.000948
  0
VERTEX
  8
0
 10
478.155783
 20
749.152021
 42
-0.119051
  0
VERTEX
  8
0
 10
478.852425
 20
749.998501
 42
0.070393
  0
VERTEX
  8
0
 10
479.235781
 20
750.382136
 42
0.005069
  0
VERTEX
  8
0
 10
480.128058
 20
751.594824
 42
0.007032
  0
VERTEX
  8
0
 10
481.161053
 20
753.072375
 42
0.005255
  0
VERTEX
  8
0
 10
482.259359
 20
754.728560
 42
0.000000
  0
VERTEX
  8
0
 10
485.000000
 20
758.957119
 42
0.000000
  0
VERTEX
  8
0
 10
485.000000
 20
862.978560
 42
0.000633
  0
VERTEX
  8
0
 10
484.942155
 20
908.701363
 42
0.001771
  0
VERTEX
  8
0
 10
484.747597
 20
940.744640
 42
0.000178
  0
VERTEX
  8
0
 10
484.490702
 20
966.514338
 42
0.411193
  0
VERTEX
  8
0
 10
484.000000
 20
967.000000
 42
-0.191087
  0
VERTEX
  8
0
 10
483.618118
 20
967.151477
 42
-0.088204
  0
VERTEX
  8
0
 10
483.293750
 20
967.587500
 42
-0.068025
  0
VERTEX
  8
0
 10
483.073693
 20
968.234582
 42
-0.048028
  0
VERTEX
  8
0
 10
483.000000
 20
969.000000
 42
-0.048028
  0
VERTEX
  8
0
 10
483.073693
 20
969.765418
 42
-0.068025
  0
VERTEX
  8
0
 10
483.293750
 20
970.412500
 42
-0.088204
  0
VERTEX
  8
0
 10
483.618118
 20
970.848523
 42
-0.191087
  0
VERTEX
  8
0
 10
484.000000
 20
971.000000
 42
0.411193
  0
VERTEX
  8
0
 10
484.490702
 20
971.485662
 42
0.000178
  0
VERTEX
  8
0
 10
484.747597
 20
997.255360
 42
0.001771
  0
VERTEX
  8
0
 10
484.942155
 20
1029.298637
 42
0.000633
  0
VERTEX
  8
0
 10
485.000000
 20
1075.021440
 42
0.000000
  0
VERTEX
  8
0
 10
485.000000
 20
1179.042881
 42
0.000000
  0
VERTEX
  8
0
 10
482.259359
 20
1183.271440
 42
0.005255
  0
VERTEX
  8
0
 10
481.161053
 20
1184.927625
 42
0.007032
  0
VERTEX
  8
0
 10
480.128058
 20
1186.405176
 42
0.005069
  0
VERTEX
  8
0
 10
479.235781
 20
1187.617864
 42
0.070393
  0
VERTEX
  8
0
 10
478.852425
 20
1188.001499
 42
-0.119051
  0
VERTEX
  8
0
 10
478.155783
 20
1188.847979
 42
-0.000948
  0
VERTEX
  8
0
 10
474.328792
 20
1196.776151
 42
-0.003731
  0
VERTEX
  8
0
 10
470.841026
 20
1204.177675
 42
-0.013216
  0
VERTEX
  8
0
 10
468.765303
 20
1209.000000
 42
0.005474
  0
VERTEX
  8
0
 10
468.318410
 20
1210.084140
 42
0.004029
  0
VERTEX
  8
0
 10
467.800532
 20
1211.275702
 42
0.004071
  0
VERTEX
  8
0
 10
467.292397
 20
1212.394889
 42
0.009063
  0
VERTEX
  8
0
 10
466.883329
 20
1213.236431
 42
-0.037499
  0
VERTEX
  8
0
 10
466.544695
 20
1214.047250
 42
-0.022335
  0
VERTEX
  8
0
 10
466.259478
 20
1215.054272
 42
-0.022283
  0
VERTEX
  8
0
 10
466.063918
 20
1216.089087
 42
-0.035570
  0
VERTEX
  8
0
 10
466.000000
 20
1216.986431
 42
0.047692
  0
VERTEX
  8
0
 10
465.926327
 20
1217.757059
 42
0.067684
  0
VERTEX
  8
0
 10
465.706250
 20
1218.408514
 42
0.087854
  0
VERTEX
  8
0
 10
465.381905
 20
1218.847610
 42
0.192146
  0
VERTEX
  8
0
 10
465.000000
 20
1219.000000
 42
-0.254951
  0
VERTEX
  8
0
 10
464.615738
 20
1219.209557
 42
-0.062710
  0
VERTEX
  8
0
 10
464.293750
 20
1219.881250
 42
-0.048861
  0
VERTEX
  8
0
 10
464.072766
 20
1220.850749
 42
-0.031626
  0
VERTEX
  8
0
 10
464.000000
 20
1222.000000
 42
0.031626
  0
VERTEX
  8
0
 10
463.927234
 20
1223.149251
 42
0.048861
  0
VERTEX
  8
0
 10
463.706250
 20
1224.118750
 42
0.062710
  0
VERTEX
  8
0
 10
463.384262
 20
1224.790443
 42
0.254951
  0
VERTEX
  8
0
 10
463.000000
 20
1225.000000
 42
-0.254951
  0
VERTEX
  8
0
 10
462.615738
 20
1225.209557
 42
-0.062710
  0
VERTEX
  8
0
 10
462.293750
 20
1225.881250
 42
-0.048861
  0
VERTEX
  8
0
 10
462.072766
 20
1226.850749
 42
-0.031626
  0
VERTEX
  8
0
 10
462.000000
 20
1228.000000
 42
0.031626
  0
VERTEX
  8
0
 10
461.927234
 20
1229.149251
 42
0.048861
  0
VERTEX
  8
0
 10
461.706250
 20
1230.118750
 42
0.062710
  0
VERTEX
  8
0
 10
461.384262
 20
1230.790443
 42
0.254951
  0
VERTEX
  8
0
 10
461.000000
 20
1231.000000
 42
-0.226478
  0
VERTEX
  8
0
 10
460.617064
 20
1231.182831
 42
-0.074992
  0
VERTEX
  8
0
 10
460.293750
 20
1231.734375
 42
-0.057076
  0
VERTEX
  8
0
 10
460.073116
 20
1232.542644
 42
-0.038131
  0
VERTEX
  8
0
 10
460.000000
 20
1233.500000
 42
0.038131
  0
VERTEX
  8
0
 10
459.926884
 20
1234.457356
 42
0.057076
  0
VERTEX
  8
0
 10
459.706250
 20
1235.265625
 42
0.074992
  0
VERTEX
  8
0
 10
459.382936
 20
1235.817169
 42
0.226478
  0
VERTEX
  8
0
 10
459.000000
 20
1236.000000
 42
-0.227337
  0
VERTEX
  8
0
 10
458.617031
 20
1236.183616
 42
-0.074638
  0
VERTEX
  8
0
 10
458.293750
 20
1236.738361
 42
-0.056821
  0
VERTEX
  8
0
 10
458.073104
 20
1237.551005
 42
-0.037919
  0
VERTEX
  8
0
 10
458.000000
 20
1238.513569
 42
0.030051
  0
VERTEX
  8
0
 10
457.934462
 20
1239.603028
 42
0.021979
  0
VERTEX
  8
0
 10
457.736423
 20
1240.798853
 42
0.022343
  0
VERTEX
  8
0
 10
457.447143
 20
1241.918917
 42
0.044911
  0
VERTEX
  8
0
 10
457.102718
 20
1242.763569
 42
-0.033737
  0
VERTEX
  8
0
 10
456.634065
 20
1243.843318
 42
-0.004494
  0
VERTEX
  8
0
 10
455.821165
 20
1246.193048
 42
-0.005185
  0
VERTEX
  8
0
 10
454.910161
 20
1249.001142
 42
-0.004335
  0
VERTEX
  8
0
 10
454.000000
 20
1252.000000
 42
0.004335
  0
VERTEX
  8
0
 10
453.089839
 20
1254.998858
 42
0.005185
  0
VERTEX
  8
0
 10
452.178835
 20
1257.806952
 42
0.004494
  0
VERTEX
  8
0
 10
451.365935
 20
1260.156682
 42
0.033737
  0
VERTEX
  8
0
 10
450.897282
 20
1261.236431
 42
-0.027979
  0
VERTEX
  8
0
 10
450.553708
 20
1262.003718
 42
-0.021582
  0
VERTEX
  8
0
 10
450.263577
 20
1262.873664
 42
-0.022026
  0
VERTEX
  8
0
 10
450.063037
 20
1263.712353
 42
-0.047701
  0
VERTEX
  8
0
 10
450.000000
 20
1264.371597
 42
0.063802
  0
VERTEX
  8
0
 10
449.764271
 20
1266.211424
 42
0.005688
  0
VERTEX
  8
0
 10
448.534217
 20
1270.721847
 42
0.005874
  0
VERTEX
  8
0
 10
446.683724
 20
1276.937399
 42
0.002165
  0
VERTEX
  8
0
 10
443.932657
 20
1285.662403
 42
-0.006116
  0
VERTEX
  8
0
 10
442.809654
 20
1289.324657
 42
-0.007649
  0
VERTEX
  8
0
 10
441.861468
 20
1292.750567
 42
-0.006319
  0
VERTEX
  8
0
 10
441.148308
 20
1295.638843
 42
-0.057422
  0
VERTEX
  8
0
 10
441.000000
 20
1296.925972
 42
0.034124
  0
VERTEX
  8
0
 10
440.936382
 20
1297.857029
 42
0.022075
  0
VERTEX
  8
0
 10
440.742309
 20
1298.919997
 42
0.022193
  0
VERTEX
  8
0
 10
440.459134
 20
1299.946738
 42
0.038596
  0
VERTEX
  8
0
 10
440.122756
 20
1300.763569
 42
-0.031396
  0
VERTEX
  8
0
 10
439.040757
 20
1303.287283
 42
-0.016755
  0
VERTEX
  8
0
 10
438.008633
 20
1306.523281
 42
-0.016170
  0
VERTEX
  8
0
 10
437.226138
 20
1309.681058
 42
-0.052691
  0
VERTEX
  8
0
 10
437.000000
 20
1311.820998
 42
0.038987
  0
VERTEX
  8
0
 10
436.934840
 20
1312.655388
 42
0.058097
  0
VERTEX
  8
0
 10
436.738388
 20
1313.359918
 42
0.076388
  0
VERTEX
  8
0
 10
436.450331
 20
1313.839949
 42
0.223052
  0
VERTEX
  8
0
 10
436.109406
 20
1314.000000
 42
-0.312634
  0
VERTEX
  8
0
 10
435.494955
 20
1314.425815
 42
-0.029707
  0
VERTEX
  8
0
 10
434.926063
 20
1316.268971
 42
-0.018941
  0
VERTEX
  8
0
 10
434.279018
 20
1319.426839
 42
-0.003562
  0
VERTEX
  8
0
 10
433.356594
 20
1325.250000
 42
0.021941
  0
VERTEX
  8
0
 10
433.074516
 20
1326.686850
 42
0.033494
  0
VERTEX
  8
0
 10
432.693491
 20
1327.898438
 42
0.035740
  0
VERTEX
  8
0
 10
432.276291
 20
1328.777535
 42
0.270375
  0
VERTEX
  8
0
 10
431.894965
 20
1329.000000
 42
-0.292909
  0
VERTEX
  8
0
 10
431.548726
 20
1329.221868
 42
-0.045206
  0
VERTEX
  8
0
 10
431.262896
 20
1330.028125
 42
-0.038464
  0
VERTEX
  8
0
 10
431.064807
 20
1331.158706
 42
-0.024144
  0
VERTEX
  8
0
 10
431.000000
 20
1332.500000
 42
0.027026
  0
VERTEX
  8
0
 10
430.927458
 20
1333.841111
 42
0.042582
  0
VERTEX
  8
0
 10
430.706250
 20
1334.971875
 42
0.052312
  0
VERTEX
  8
0
 10
430.385692
 20
1335.767902
 42
0.277684
  0
VERTEX
  8
0
 10
430.000000
 20
1336.000000
 42
-0.277684
  0
VERTEX
  8
0
 10
429.614308
 20
1336.232098
 42
-0.052312
  0
VERTEX
  8
0
 10
429.293750
 20
1337.028125
 42
-0.042582
  0
VERTEX
  8
0
 10
429.072542
 20
1338.158889
 42
-0.027026
  0
VERTEX
  8
0
 10
429.000000
 20
1339.500000
 42
0.027026
  0
VERTEX
  8
0
 10
428.927458
 20
1340.841111
 42
0.042582
  0
VERTEX
  8
0
 10
428.706250
 20
1341.971875
 42
0.052312
  0
VERTEX
  8
0
 10
428.385692
 20
1342.767902
 42
0.277684
  0
VERTEX
  8
0
 10
428.000000
 20
1343.000000
 42
-0.295869
  0
VERTEX
  8
0
 10
427.612873
 20
1343.251055
 42
-0.043820
  0
VERTEX
  8
0
 10
427.293750
 20
1344.175000
 42
-0.037669
  0
VERTEX
  8
0
 10
427.072390
 20
1345.467056
 42
-0.023598
  0
VERTEX
  8
0
 10
427.000000
 20
1347.000000
 42
0.023598
  0
VERTEX
  8
0
 10
426.927610
 20
1348.532944
 42
0.037669
  0
VERTEX
  8
0
 10
426.706250
 20
1349.825000
 42
0.043820
  0
VERTEX
  8
0
 10
426.387127
 20
1350.748945
 42
0.295869
  0
VERTEX
  8
0
 10
426.000000
 20
1351.000000
 42
-0.275259
  0
VERTEX
  8
0
 10
425.614478
 20
1351.229636
 42
-0.053437
  0
VERTEX
  8
0
 10
425.293750
 20
1352.010789
 42
-0.043243
  0
VERTEX
  8
0
 10
425.072564
 20
1353.122516
 42
-0.027497
  0
VERTEX
  8
0
 10
425.000000
 20
1354.440983
 42
0.026918
  0
VERTEX
  8
0
 10
424.926586
 20
1355.803639
 42
0.033489
  0
VERTEX
  8
0
 10
424.706250
 20
1357.052725
 42
0.035556
  0
VERTEX
  8
0
 10
424.386693
 20
1358.041340
 42
0.159713
  0
VERTEX
  8
0
 10
424.000000
 20
1358.500000
 42
-0.159713
  0
VERTEX
  8
0
 10
423.613307
 20
1358.958660
 42
-0.035556
  0
VERTEX
  8
0
 10
423.293750
 20
1359.947275
 42
-0.033489
  0
VERTEX
  8
0
 10
423.073414
 20
1361.196361
 42
-0.026918
  0
VERTEX
  8
0
 10
423.000000
 20
1362.559017
 42
0.027497
  0
VERTEX
  8
0
 10
422.927436
 20
1363.877484
 42
0.043243
  0
VERTEX
  8
0
 10
422.706250
 20
1364.989211
 42
0.053437
  0
VERTEX
  8
0
 10
422.385522
 20
1365.770364
 42
0.275259
  0
VERTEX
  8
0
 10
422.000000
 20
1366.000000
 42
-0.204612
  0
VERTEX
  8
0
 10
421.617786
 20
1366.163246
 42
-0.083503
  0
VERTEX
  8
0
 10
421.293750
 20
1366.640082
 42
-0.063734
  0
VERTEX
  8
0
 10
421.073451
 20
1367.344865
 42
-0.043943
  0
VERTEX
  8
0
 10
421.000000
 20
1368.179002
 42
0.030502
  0
VERTEX
  8
0
 10
420.935839
 20
1369.229776
 42
0.013102
  0
VERTEX
  8
0
 10
420.728319
 20
1370.620028
 42
0.012908
  0
VERTEX
  8
0
 10
420.429303
 20
1372.093672
 42
0.016631
  0
VERTEX
  8
0
 10
420.075128
 20
1373.429002
 42
-0.008171
  0
VERTEX
  8
0
 10
419.546190
 20
1375.295240
 42
-0.001079
  0
VERTEX
  8
0
 10
418.498739
 20
1379.269769
 42
-0.001252
  0
VERTEX
  8
0
 10
417.278543
 20
1383.988942
 42
-0.001049
  0
VERTEX
  8
0
 10
416.007452
 20
1389.000000
 42
0.002444
  0
VERTEX
  8
0
 10
414.736068
 20
1393.954186
 42
0.003134
  0
VERTEX
  8
0
 10
413.515245
 20
1398.500099
 42
0.002417
  0
VERTEX
  8
0
 10
412.450104
 20
1402.297489
 42
0.026778
  0
VERTEX
  8
0
 10
411.936643
 20
1403.787572
 42
-0.036248
  0
VERTEX
  8
0
 10
411.536628
 20
1405.023898
 42
-0.010145
  0
VERTEX
  8
0
 10
411.092653
 20
1407.007758
 42
-0.010178
  0
VERTEX
  8
0
 10
410.680571
 20
1409.278491
 42
-0.010544
  0
VERTEX
  8
0
 10
410.366638
 20
1411.537572
 42
0.014616
  0
VERTEX
  8
0
 10
410.058278
 20
1413.631342
 42
0.023324
  0
VERTEX
  8
0
 10
409.659919
 20
1415.395412
 42
0.019637
  0
VERTEX
  8
0
 10
409.231954
 20
1416.740684
 42
0.315792
  0
VERTEX
  8
0
 10
408.862319
 20
1417.000000
 42
-0.295555
  0
VERTEX
  8
0
 10
408.528515
 20
1417.216201
 42
-0.043967
  0
VERTEX
  8
0
 10
408.253306
 20
1418.010789
 42
-0.037753
  0
VERTEX
  8
0
 10
408.062425
 20
1419.122277
 42
-0.023656
  0
VERTEX
  8
0
 10
408.000000
 20
1420.440983
 42
0.026918
  0
VERTEX
  8
0
 10
407.926586
 20
1421.803639
 42
0.033489
  0
VERTEX
  8
0
 10
407.706250
 20
1423.052725
 42
0.035556
  0
VERTEX
  8
0
 10
407.386693
 20
1424.041340
 42
0.159713
  0
VERTEX
  8
0
 10
407.000000
 20
1424.500000
 42
-0.159713
  0
VERTEX
  8
0
 10
406.613307
 20
1424.958660
 42
-0.035556
  0
VERTEX
  8
0
 10
406.293750
 20
1425.947275
 42
-0.033489
  0
VERTEX
  8
0
 10
406.073414
 20
1427.196361
 42
-0.026918
  0
VERTEX
  8
0
 10
406.000000
 20
1428.559017
 42
0.024443
  0
VERTEX
  8
0
 10
405.935498
 20
1429.877676
 42
0.038897
  0
VERTEX
  8
0
 10
405.738388
 20
1430.989211
 42
0.045959
  0
VERTEX
  8
0
 10
405.453834
 20
1431.780730
 42
0.291300
  0
VERTEX
  8
0
 10
405.109406
 20
1432.000000
 42
-0.289190
  0
VERTEX
  8
0
 10
404.518717
 20
1432.372823
 42
-0.047100
  0
VERTEX
  8
0
 10
404.031294
 20
1433.705541
 42
-0.019790
  0
VERTEX
  8
0
 10
403.460512
 20
1436.295458
 42
-0.002200
  0
VERTEX
  8
0
 10
402.418698
 20
1442.259268
 42
0.019011
  0
VERTEX
  8
0
 10
402.108631
 20
1443.738938
 42
0.024113
  0
VERTEX
  8
0
 10
401.705634
 20
1445.075740
 42
0.023276
  0
VERTEX
  8
0
 10
401.272680
 20
1446.136369
 42
0.146821
  0
VERTEX
  8
0
 10
400.889512
 20
1446.568285
 42
-0.167820
  0
VERTEX
  8
0
 10
400.544827
 20
1446.990470
 42
-0.032422
  0
VERTEX
  8
0
 10
400.261294
 20
1447.949998
 42
-0.031238
  0
VERTEX
  8
0
 10
400.065195
 20
1449.164850
 42
-0.024400
  0
VERTEX
  8
0
 10
400.000000
 20
1450.500000
 42
0.027380
  0
VERTEX
  8
0
 10
399.926564
 20
1451.840047
 42
0.033884
  0
VERTEX
  8
0
 10
399.706250
 20
1453.070061
 42
0.036095
  0
VERTEX
  8
0
 10
399.386560
 20
1454.044084
 42
0.158284
  0
VERTEX
  8
0
 10
399.000000
 20
1454.500000
 42
-0.159713
  0
VERTEX
  8
0
 10
398.613307
 20
1454.958660
 42
-0.035556
  0
VERTEX
  8
0
 10
398.293750
 20
1455.947275
 42
-0.033489
  0
VERTEX
  8
0
 10
398.073414
 20
1457.196361
 42
-0.026918
  0
VERTEX
  8
0
 10
398.000000
 20
1458.559017
 42
0.027497
  0
VERTEX
  8
0
 10
397.927436
 20
1459.877484
 42
0.043243
  0
VERTEX
  8
0
 10
397.706250
 20
1460.989211
 42
0.053437
  0
VERTEX
  8
0
 10
397.385522
 20
1461.770364
 42
0.275259
  0
VERTEX
  8
0
 10
397.000000
 20
1462.000000
 42
-0.277684
  0
VERTEX
  8
0
 10
396.614308
 20
1462.232098
 42
-0.052312
  0
VERTEX
  8
0
 10
396.293750
 20
1463.028125
 42
-0.042582
  0
VERTEX
  8
0
 10
396.072542
 20
1464.158889
 42
-0.027026
  0
VERTEX
  8
0
 10
396.000000
 20
1465.500000
 42
0.027026
  0
VERTEX
  8
0
 10
395.927458
 20
1466.841111
 42
0.042582
  0
VERTEX
  8
0
 10
395.706250
 20
1467.971875
 42
0.052312
  0
VERTEX
  8
0
 10
395.385692
 20
1468.767902
 42
0.277684
  0
VERTEX
  8
0
 10
395.000000
 20
1469.000000
 42
-0.295869
  0
VERTEX
  8
0
 10
394.612873
 20
1469.251055
 42
-0.043820
  0
VERTEX
  8
0
 10
394.293750
 20
1470.175000
 42
-0.037669
  0
VERTEX
  8
0
 10
394.072390
 20
1471.467056
 42
-0.023598
  0
VERTEX
  8
0
 10
394.000000
 20
1473.000000
 42
0.023598
  0
VERTEX
  8
0
 10
393.927610
 20
1474.532944
 42
0.037669
  0
VERTEX
  8
0
 10
393.706250
 20
1475.825000
 42
0.043820
  0
VERTEX
  8
0
 10
393.387127
 20
1476.748945
 42
0.295869
  0
VERTEX
  8
0
 10
393.000000
 20
1477.000000
 42
-0.293924
  0
VERTEX
  8
0
 10
392.613040
 20
1477.248983
 42
-0.044731
  0
VERTEX
  8
0
 10
392.293750
 20
1478.157664
 42
-0.038191
  0
VERTEX
  8
0
 10
392.072405
 20
1479.430680
 42
-0.023957
  0
VERTEX
  8
0
 10
392.000000
 20
1480.940983
 42
0.023552
  0
VERTEX
  8
0
 10
391.926750
 20
1482.495210
 42
0.030444
  0
VERTEX
  8
0
 10
391.706250
 20
1483.905850
 42
0.031293
  0
VERTEX
  8
0
 10
391.387806
 20
1485.019590
 42
0.170670
  0
VERTEX
  8
0
 10
391.000000
 20
1485.500000
 42
-0.158284
  0
VERTEX
  8
0
 10
390.613440
 20
1485.955916
 42
-0.036095
  0
VERTEX
  8
0
 10
390.293750
 20
1486.929939
 42
-0.033884
  0
VERTEX
  8
0
 10
390.073436
 20
1488.159953
 42
-0.027380
  0
VERTEX
  8
0
 10
390.000000
 20
1489.500000
 42
0.027380
  0
VERTEX
  8
0
 10
389.926564
 20
1490.840047
 42
0.033884
  0
VERTEX
  8
0
 10
389.706250
 20
1492.070061
 42
0.036095
  0
VERTEX
  8
0
 10
389.386560
 20
1493.044084
 42
0.158284
  0
VERTEX
  8
0
 10
389.000000
 20
1493.500000
 42
-0.170670
  0
VERTEX
  8
0
 10
388.612194
 20
1493.980410
 42
-0.031293
  0
VERTEX
  8
0
 10
388.293750
 20
1495.094150
 42
-0.030444
  0
VERTEX
  8
0
 10
388.073250
 20
1496.504790
 42
-0.023552
  0
VERTEX
  8
0
 10
388.000000
 20
1498.059017
 42
0.020873
  0
VERTEX
  8
0
 10
387.936916
 20
1499.569519
 42
0.033629
  0
VERTEX
  8
0
 10
387.743624
 20
1500.842336
 42
0.036780
  0
VERTEX
  8
0
 10
387.466347
 20
1501.766550
 42
0.310926
  0
VERTEX
  8
0
 10
387.127229
 20
1502.000000
 42
-0.301998
  0
VERTEX
  8
0
 10
386.755147
 20
1502.247290
 42
-0.024993
  0
VERTEX
  8
0
 10
386.339119
 20
1503.395313
 42
-0.026817
  0
VERTEX
  8
0
 10
385.957056
 20
1504.929497
 42
-0.017001
  0
VERTEX
  8
0
 10
385.669894
 20
1506.750000
 42
0.007581
  0
VERTEX
  8
0
 10
385.377696
 20
1508.859913
 42
0.004983
  0
VERTEX
  8
0
 10
384.980389
 20
1511.279687
 42
0.005013
  0
VERTEX
  8
0
 10
384.546471
 20
1513.627834
 42
0.009621
  0
VERTEX
  8
0
 10
384.143520
 20
1515.500000
 42
-0.001605
  0
VERTEX
  8
0
 10
383.697790
 20
1517.420696
 42
-0.000726
  0
VERTEX
  8
0
 10
383.125364
 20
1519.940625
 42
-0.000718
  0
VERTEX
  8
0
 10
382.528921
 20
1522.601843
 42
-0.000983
  0
VERTEX
  8
0
 10
382.000000
 20
1525.000000
 42
0.000723
  0
VERTEX
  8
0
 10
381.472384
 20
1527.398161
 42
0.000529
  0
VERTEX
  8
0
 10
380.879902
 20
1530.059375
 42
0.000534
  0
VERTEX
  8
0
 10
380.313242
 20
1532.579337
 42
0.001183
  0
VERTEX
  8
0
 10
379.874409
 20
1534.500000
 42
-0.004939
  0
VERTEX
  8
0
 10
379.434536
 20
1536.494084
 42
-0.001871
  0
VERTEX
  8
0
 10
378.858191
 20
1539.287139
 42
-0.001853
  0
VERTEX
  8
0
 10
378.254059
 20
1542.329144
 42
-0.002262
  0
VERTEX
  8
0
 10
377.712308
 20
1545.179623
 42
0.008065
  0
VERTEX
  8
0
 10
377.184322
 20
1547.792017
 42
0.011184
  0
VERTEX
  8
0
 10
376.621308
 20
1550.113613
 42
0.007884
  0
VERTEX
  8
0
 10
376.081119
 20
1552.020473
 42
0.124024
  0
VERTEX
  8
0
 10
375.737044
 20
1552.596290
 42
-0.128014
  0
VERTEX
  8
0
 10
375.451007
 20
1553.083632
 42
-0.024249
  0
VERTEX
  8
0
 10
375.216507
 20
1554.095993
 42
-0.024472
  0
VERTEX
  8
0
 10
375.054080
 20
1555.336459
 42
-0.020319
  0
VERTEX
  8
0
 10
375.000000
 20
1556.666667
 42
0.028402
  0
VERTEX
  8
0
 10
374.927394
 20
1557.943828
 42
0.044499
  0
VERTEX
  8
0
 10
374.706250
 20
1559.020833
 42
0.055558
  0
VERTEX
  8
0
 10
374.385211
 20
1559.774987
 42
0.270668
  0
VERTEX
  8
0
 10
374.000000
 20
1560.000000
 42
-0.254951
  0
VERTEX
  8
0
 10
373.615738
 20
1560.209557
 42
-0.062710
  0
VERTEX
  8
0
 10
373.293750
 20
1560.881250
 42
-0.048861
  0
VERTEX
  8
0
 10
373.072766
 20
1561.850749
 42
-0.031626
  0
VERTEX
  8
0
 10
373.000000
 20
1563.000000
 42
0.031626
  0
VERTEX
  8
0
 10
372.927234
 20
1564.149251
 42
0.048861
  0
VERTEX
  8
0
 10
372.706250
 20
1565.118750
 42
0.062710
  0
VERTEX
  8
0
 10
372.384262
 20
1565.790443
 42
0.254951
  0
VERTEX
  8
0
 10
372.000000
 20
1566.000000
 42
-0.254951
  0
VERTEX
  8
0
 10
371.615738
 20
1566.209557
 42
-0.062710
  0
VERTEX
  8
0
 10
371.293750
 20
1566.881250
 42
-0.048861
  0
VERTEX
  8
0
 10
371.072766
 20
1567.850749
 42
-0.031626
  0
VERTEX
  8
0
 10
371.000000
 20
1569.000000
 42
0.031626
  0
VERTEX
  8
0
 10
370.927234
 20
1570.149251
 42
0.048861
  0
VERTEX
  8
0
 10
370.706250
 20
1571.118750
 42
0.062710
  0
VERTEX
  8
0
 10
370.384262
 20
1571.790443
 42
0.254951
  0
VERTEX
  8
0
 10
370.000000
 20
1572.000000
 42
-0.254951
  0
VERTEX
  8
0
 10
369.615738
 20
1572.209557
 42
-0.062710
  0
VERTEX
  8
0
 10
369.293750
 20
1572.881250
 42
-0.048861
  0
VERTEX
  8
0
 10
369.072766
 20
1573.850749
 42
-0.031626
  0
VERTEX
  8
0
 10
369.000000
 20
1575.000000
 42
0.031626
  0
VERTEX
  8
0
 10
368.927234
 20
1576.149251
 42
0.048861
  0
VERTEX
  8
0
 10
368.706250
 20
1577.118750
 42
0.062710
  0
VERTEX
  8
0
 10
368.384262
 20
1577.790443
 42
0.254951
  0
VERTEX
  8
0
 10
368.000000
 20
1578.000000
 42
-0.226478
  0
VERTEX
  8
0
 10
367.617064
 20
1578.182831
 42
-0.074992
  0
VERTEX
  8
0
 10
367.293750
 20
1578.734375
 42
-0.057076
  0
VERTEX
  8
0
 10
367.073116
 20
1579.542644
 42
-0.038131
  0
VERTEX
  8
0
 10
367.000000
 20
1580.500000
 42
0.038131
  0
VERTEX
  8
0
 10
366.926884
 20
1581.457356
 42
0.057076
  0
VERTEX
  8
0
 10
366.706250
 20
1582.265625
 42
0.074992
  0
VERTEX
  8
0
 10
366.382936
 20
1582.817169
 42
0.226478
  0
VERTEX
  8
0
 10
366.000000
 20
1583.000000
 42
-0.130303
  0
VERTEX
  8
0
 10
365.618647
 20
1583.101099
 42
-0.100665
  0
VERTEX
  8
0
 10
365.293750
 20
1583.385450
 42
-0.088552
  0
VERTEX
  8
0
 10
365.075238
 20
1583.810810
 42
-0.074616
  0
VERTEX
  8
0
 10
365.000000
 20
1584.312171
 42
0.075794
  0
VERTEX
  8
0
 10
364.886153
 20
1585.058881
 42
0.012255
  0
VERTEX
  8
0
 10
364.412500
 20
1586.454876
 42
0.013285
  0
VERTEX
  8
0
 10
363.765714
 20
1588.082801
 42
0.011331
  0
VERTEX
  8
0
 10
363.000000
 20
1589.763864
 42
-0.013277
  0
VERTEX
  8
0
 10
362.234369
 20
1591.462230
 42
-0.014713
  0
VERTEX
  8
0
 10
361.587500
 20
1593.142218
 42
-0.014176
  0
VERTEX
  8
0
 10
361.120438
 20
1594.601432
 42
-0.070472
  0
VERTEX
  8
0
 10
361.000000
 20
1595.451694
 42
0.062734
  0
VERTEX
  8
0
 10
360.925429
 20
1596.043695
 42
0.080889
  0
VERTEX
  8
0
 10
360.706250
 20
1596.545185
 42
0.098162
  0
VERTEX
  8
0
 10
360.381374
 20
1596.880786
 42
0.152654
  0
VERTEX
  8
0
 10
360.000000
 20
1597.000000
 42
-0.184457
  0
VERTEX
  8
0
 10
359.618250
 20
1597.145793
 42
-0.090315
  0
VERTEX
  8
0
 10
359.293750
 20
1597.563021
 42
-0.070178
  0
VERTEX
  8
0
 10
359.073823
 20
1598.183242
 42
-0.050201
  0
VERTEX
  8
0
 10
359.000000
 20
1598.916667
 42
0.036404
  0
VERTEX
  8
0
 10
358.944732
 20
1599.674758
 42
0.044078
  0
VERTEX
  8
0
 10
358.779688
 20
1600.368229
 42
0.049842
  0
VERTEX
  8
0
 10
358.538485
 20
1600.906393
 42
0.159230
  0
VERTEX
  8
0
 10
358.250000
 20
1601.166667
 42
-0.125732
  0
VERTEX
  8
0
 10
357.861447
 20
1601.473474
 42
-0.012870
  0
VERTEX
  8
0
 10
357.168949
 20
1602.430208
 42
-0.015418
  0
VERTEX
  8
0
 10
356.396632
 20
1603.635240
 42
-0.011720
  0
VERTEX
  8
0
 10
355.623019
 20
1605.000000
 42
0.013439
  0
VERTEX
  8
0
 10
353.137065
 20
1609.350637
 42
0.005383
  0
VERTEX
  8
0
 10
349.512834
 20
1615.173131
 42
0.003643
  0
VERTEX
  8
0
 10
345.854355
 20
1620.820781
 42
0.045103
  0
VERTEX
  8
0
 10
344.261993
 20
1622.821429
 42
-0.030089
  0
VERTEX
  8
0
 10
343.779024
 20
1623.392236
 42
-0.030549
  0
VERTEX
  8
0
 10
343.370710
 20
1624.014103
 42
-0.032081
  0
VERTEX
  8
0
 10
343.085171
 20
1624.596600
 42
-0.098223
  0
VERTEX
  8
0
 10
343.000000
 20
1625.025974
 42
0.140695
  0
VERTEX
  8
0
 10
342.861290
 20
1625.509162
 42
0.019325
  0
VERTEX
  8
0
 10
342.265625
 20
1626.384050
 42
0.020937
  0
VERTEX
  8
0
 10
341.457311
 20
1627.387170
 42
0.016317
  0
VERTEX
  8
0
 10
340.500000
 20
1628.409091
 42
-0.018492
  0
VERTEX
  8
0
 10
339.542811
 20
1629.439828
 42
-0.022924
  0
VERTEX
  8
0
 10
338.734375
 20
1630.469535
 42
-0.022107
  0
VERTEX
  8
0
 10
338.145911
 20
1631.376499
 42
-0.133623
  0
VERTEX
  8
0
 10
338.000000
 20
1631.912732
 42
0.199550
  0
VERTEX
  8
0
 10
337.163197
 20
1633.925970
 42
0.001074
  0
VERTEX
  8
0
 10
321.866421
 20
1649.082677
 42
0.001088
  0
VERTEX
  8
0
 10
306.513469
 20
1664.164052
 42
0.196029
  0
VERTEX
  8
0
 10
304.463203
 20
1665.000000
 42
-0.157490
  0
VERTEX
  8
0
 10
304.139981
 20
1665.104398
 42
-0.012238
  0
VERTEX
  8
0
 10
303.406828
 20
1665.660938
 42
-0.015767
  0
VERTEX
  8
0
 10
302.552722
 20
1666.388129
 42
-0.011368
  0
VERTEX
  8
0
 10
301.645148
 20
1667.250000
 42
0.012934
  0
VERTEX
  8
0
 10
300.543379
 20
1668.289744
 42
0.006149
  0
VERTEX
  8
0
 10
299.074670
 20
1669.573437
 42
0.006090
  0
VERTEX
  8
0
 10
297.505483
 20
1670.878609
 42
0.008595
  0
VERTEX
  8
0
 10
296.073740
 20
1672.000000
 42
-0.003368
  0
VERTEX
  8
0
 10
294.580412
 20
1673.144643
 42
-0.002007
  0
VERTEX
  8
0
 10
292.817485
 20
1674.526271
 42
-0.002008
  0
VERTEX
  8
0
 10
291.071750
 20
1675.917196
 42
-0.003474
  0
VERTEX
  8
0
 10
289.633138
 20
1677.089434
 42
0.000833
  0
VERTEX
  8
0
 10
288.260009
 20
1678.220434
 42
0.000598
  0
VERTEX
  8
0
 10
286.722509
 20
1679.479450
 42
0.000604
  0
VERTEX
  8
0
 10
285.256238
 20
1680.674258
 42
0.001304
  0
VERTEX
  8
0
 10
284.124338
 20
1681.589434
 42
-0.007497
  0
VERTEX
  8
0
 10
283.046615
 20
1682.483101
 42
-0.004204
  0
VERTEX
  8
0
 10
281.762417
 20
1683.599709
 42
-0.004194
  0
VERTEX
  8
0
 10
280.483744
 20
1684.749787
 42
-0.006821
  0
VERTEX
  8
0
 10
279.419793
 20
1685.750000
 42
0.020581
  0
VERTEX
  8
0
 10
278.451495
 20
1686.611357
 42
0.024447
  0
VERTEX
  8
0
 10
277.467916
 20
1687.339062
 42
0.024340
  0
VERTEX
  8
0
 10
276.592840
 20
1687.862923
 42
0.123307
  0
VERTEX
  8
0
 10
276.045455
 20
1688.000000
 42
-0.094588
  0
VERTEX
  8
0
 10
275.646398
 20
1688.076174
 42
-0.096788
  0
VERTEX
  8
0
 10
275.307102
 20
1688.293750
 42
-0.098920
  0
VERTEX
  8
0
 10
275.079978
 20
1688.618426
 42
-0.103674
  0
VERTEX
  8
0
 10
275.000000
 20
1689.000000
 42
0.101724
  0
VERTEX
  8
0
 10
274.921552
 20
1689.381600
 42
0.098538
  0
VERTEX
  8
0
 10
274.698520
 20
1689.706250
 42
0.097290
  0
VERTEX
  8
0
 10
274.365406
 20
1689.923755
 42
0.096416
  0
VERTEX
  8
0
 10
273.973684
 20
1690.000000
 42
-0.161137
  0
VERTEX
  8
0
 10
273.368579
 20
1690.200208
 42
-0.011084
  0
VERTEX
  8
0
 10
271.926974
 20
1691.321875
 42
-0.014901
  0
VERTEX
  8
0
 10
270.245916
 20
1692.776148
 42
-0.010602
  0
VERTEX
  8
0
 10
268.447368
 20
1694.500000
 42
0.009722
  0
VERTEX
  8
0
 10
266.655020
 20
1696.223972
 42
0.013859
  0
VERTEX
  8
0
 10
264.993015
 20
1697.678125
 42
0.009764
  0
VERTEX
  8
0
 10
263.568791
 20
1698.810078
 42
0.164466
  0
VERTEX
  8
0
 10
263.007018
 20
1699.000000
 42
-0.150748
  0
VERTEX
  8
0
 10
262.472765
 20
1699.164820
 42
-0.015062
  0
VERTEX
  8
0
 10
261.378416
 20
1699.960393
 42
-0.017864
  0
VERTEX
  8
0
 10
260.109472
 20
1701.017233
 42
-0.013276
  0
VERTEX
  8
0
 10
258.783333
 20
1702.269425
 42
0.011903
  0
VERTEX
  8
0
 10
257.238143
 20
1703.736498
 42
0.006619
  0
VERTEX
  8
0
 10
255.289479
 20
1705.454000
 42
0.006598
  0
VERTEX
  8
0
 10
253.270139
 20
1707.141088
 42
0.010604
  0
VERTEX
  8
0
 10
251.500000
 20
1708.519425
 42
-0.012729
  0
VERTEX
  8
0
 10
249.703043
 20
1709.930954
 42
-0.007213
  0
VERTEX
  8
0
 10
247.596468
 20
1711.726018
 42
-0.007197
  0
VERTEX
  8
0
 10
245.524093
 20
1713.597658
 42
-0.011756
  0
VERTEX
  8
0
 10
243.828401
 20
1715.250000
 42
0.013613
  0
VERTEX
  8
0
 10
242.343485
 20
1716.686244
 42
0.018308
  0
VERTEX
  8
0
 10
240.918553
 20
1717.898438
 42
0.015563
  0
VERTEX
  8
0
 10
239.687576
 20
1718.809542
 42
0.152680
  0
VERTEX
  8
0
 10
239.078401
 20
1719.000000
 42
-0.091591
  0
VERTEX
  8
0
 10
238.666715
 20
1719.076051
 42
-0.095880
  0
VERTEX
  8
0
 10
238.316780
 20
1719.293750
 42
-0.099487
  0
VERTEX
  8
0
 10
238.082610
 20
1719.618468
 42
-0.107021
  0
VERTEX
  8
0
 10
238.000000
 20
1720.000000
 42
0.101258
  0
VERTEX
  8
0
 10
237.921918
 20
1720.381607
 42
0.098440
  0
VERTEX
  8
0
 10
237.699864
 20
1720.706250
 42
0.097407
  0
VERTEX
  8
0
 10
237.368229
 20
1720.923738
 42
0.096862
  0
VERTEX
  8
0
 10
236.978261
 20
1721.000000
 42
-0.168548
  0
VERTEX
  8
0
 10
236.357637
 20
1721.215327
 42
-0.008174
  0
VERTEX
  8
0
 10
234.641033
 20
1722.615625
 42
-0.012547
  0
VERTEX
  8
0
 10
232.637994
 20
1724.392738
 42
-0.008651
  0
VERTEX
  8
0
 10
230.456522
 20
1726.500000
 42
0.006326
  0
VERTEX
  8
0
 10
228.294815
 20
1728.607685
 42
0.009525
  0
VERTEX
  8
0
 10
226.353087
 20
1730.384375
 42
0.004911
  0
VERTEX
  8
0
 10
224.681348
 20
1731.827605
 42
0.177414
  0
VERTEX
  8
0
 10
224.210788
 20
1732.000000
 42
-0.164645
  0
VERTEX
  8
0
 10
223.748221
 20
1732.156562
 42
-0.006869
  0
VERTEX
  8
0
 10
222.359967
 20
1733.248437
 42
-0.011252
  0
VERTEX
  8
0
 10
220.738621
 20
1734.621584
 42
-0.007693
  0
VERTEX
  8
0
 10
218.957325
 20
1736.250000
 42
0.007080
  0
VERTEX
  8
0
 10
216.982035
 20
1738.060212
 42
0.005412
  0
VERTEX
  8
0
 10
214.772323
 20
1739.985938
 42
0.005474
  0
VERTEX
  8
0
 10
212.663285
 20
1741.744629
 42
0.012842
  0
VERTEX
  8
0
 10
211.040511
 20
1743.000000
 42
-0.015154
  0
VERTEX
  8
0
 10
209.432128
 20
1744.256167
 42
-0.006621
  0
VERTEX
  8
0
 10
207.372834
 20
1746.014062
 42
-0.006546
  0
VERTEX
  8
0
 10
205.233628
 20
1747.939822
 42
-0.008689
  0
VERTEX
  8
0
 10
203.342029
 20
1749.750000
 42
0.011954
  0
VERTEX
  8
0
 10
201.618518
 20
1751.377904
 42
0.016415
  0
VERTEX
  8
0
 10
199.988132
 20
1752.751563
 42
0.013115
  0
VERTEX
  8
0
 10
198.587109
 20
1753.797058
 42
0.154937
  0
VERTEX
  8
0
 10
197.947915
 20
1754.000000
 42
-0.151370
  0
VERTEX
  8
0
 10
197.326214
 20
1754.192628
 42
-0.016002
  0
VERTEX
  8
0
 10
196.087201
 20
1755.101562
 42
-0.018620
  0
VERTEX
  8
0
 10
194.654278
 20
1756.313787
 42
-0.013915
  0
VERTEX
  8
0
 10
193.164874
 20
1757.750000
 42
0.010347
  0
VERTEX
  8
0
 10
191.337463
 20
1759.537480
 42
0.004357
  0
VERTEX
  8
0
 10
188.811208
 20
1761.867188
 42
0.004308
  0
VERTEX
  8
0
 10
186.067005
 20
1764.311259
 42
0.005600
  0
VERTEX
  8
0
 10
183.509191
 20
1766.500000
 42
-0.002896
  0
VERTEX
  8
0
 10
180.966113
 20
1768.652421
 42
-0.002359
  0
VERTEX
  8
0
 10
178.267120
 20
1770.985938
 42
-0.002383
  0
VERTEX
  8
0
 10
175.802011
 20
1773.158436
 42
-0.006227
  0
VERTEX
  8
0
 10
174.057578
 20
1774.750000
 42
0.009680
  0
VERTEX
  8
0
 10
172.673882
 20
1775.995041
 42
0.013673
  0
VERTEX
  8
0
 10
171.390915
 20
1777.045312
 42
0.009777
  0
VERTEX
  8
0
 10
170.293825
 20
1777.860605
 42
0.156136
  0
VERTEX
  8
0
 10
169.858317
 20
1778.000000
 42
-0.173037
  0
VERTEX
  8
0
 10
169.401481
 20
1778.162978
 42
-0.005289
  0
VERTEX
  8
0
 10
167.838371
 20
1779.468750
 42
-0.009847
  0
VERTEX
  8
0
 10
166.019637
 20
1781.083993
 42
-0.006585
  0
VERTEX
  8
0
 10
164.000000
 20
1783.000000
 42
0.006701
  0
VERTEX
  8
0
 10
161.979444
 20
1784.915987
 42
0.010002
  0
VERTEX
  8
0
 10
160.157850
 20
1786.531250
 42
0.005445
  0
VERTEX
  8
0
 10
158.592838
 20
1787.834906
 42
0.172597
  0
VERTEX
  8
0
 10
158.128819
 20
1788.000000
 42
-0.176195
  0
VERTEX
  8
0
 10
157.652565
 20
1788.173204
 42
-0.003657
  0
VERTEX
  8
0
 10
155.698139
 20
1789.835938
 42
-0.008080
  0
VERTEX
  8
0
 10
153.435052
 20
1791.854721
 42
-0.005295
  0
VERTEX
  8
0
 10
150.890323
 20
1794.250000
 42
0.004811
  0
VERTEX
  8
0
 10
148.087113
 20
1796.893700
 42
0.003929
  0
VERTEX
  8
0
 10
145.038873
 20
1799.669427
 42
0.003970
  0
VERTEX
  8
0
 10
142.193326
 20
1802.179506
 42
0.010397
  0
VERTEX
  8
0
 10
140.099031
 20
1803.922518
 42
-0.015319
  0
VERTEX
  8
0
 10
137.784341
 20
1805.887846
 42
-0.003372
  0
VERTEX
  8
0
 10
133.939083
 20
1809.408320
 42
-0.003505
  0
VERTEX
  8
0
 10
129.547833
 20
1813.541117
 42
-0.003364
  0
VERTEX
  8
0
 10
125.154183
 20
1817.791501
 42
0.003307
  0
VERTEX
  8
0
 10
120.745717
 20
1822.057191
 42
0.003373
  0
VERTEX
  8
0
 10
116.310020
 20
1826.235928
 42
0.003275
  0
VERTEX
  8
0
 10
112.408197
 20
1829.814994
 42
0.013995
  0
VERTEX
  8
0
 10
110.007586
 20
1831.868983
 42
-0.009825
  0
VERTEX
  8
0
 10
107.950342
 20
1833.599679
 42
-0.005151
  0
VERTEX
  8
0
 10
105.456349
 20
1835.828701
 42
-0.005121
  0
VERTEX
  8
0
 10
102.946025
 20
1838.166838
 42
-0.007832
  0
VERTEX
  8
0
 10
100.822510
 20
1840.250000
 42
0.011518
  0
VERTEX
  8
0
 10
98.940201
 20
1842.069508
 42
0.015986
  0
VERTEX
  8
0
 10
97.166476
 20
1843.604687
 42
0.012454
  0
VERTEX
  8
0
 10
95.642669
 20
1844.778934
 42
0.159238
  0
VERTEX
  8
0
 10
94.966134
 20
1845.000000
 42
-0.132764
  0
VERTEX
  8
0
 10
94.355334
 20
1845.165094
 42
-0.024298
  0
VERTEX
  8
0
 10
93.365468
 20
1845.808757
 42
-0.024608
  0
VERTEX
  8
0
 10
92.251578
 20
1846.699147
 42
-0.020182
  0
VERTEX
  8
0
 10
91.151210
 20
1847.753216
 42
0.020915
  0
VERTEX
  8
0
 10
88.684904
 20
1850.108831
 42
0.009869
  0
VERTEX
  8
0
 10
85.319448
 20
1852.948612
 42
0.009804
  0
VERTEX
  8
0
 10
81.701971
 20
1855.765093
 42
0.014462
  0
VERTEX
  8
0
 10
78.410436
 20
1858.080392
 42
-0.016476
  0
VERTEX
  8
0
 10
77.266495
 20
1858.891956
 42
-0.006728
  0
VERTEX
  8
0
 10
75.764357
 20
1860.066079
 42
-0.006648
  0
VERTEX
  8
0
 10
74.182931
 20
1861.371800
 42
-0.008441
  0
VERTEX
  8
0
 10
72.759814
 20
1862.620904
 42
0.009569
  0
VERTEX
  8
0
 10
71.258400
 20
1863.932747
 42
0.005756
  0
VERTEX
  8
0
 10
69.430063
 20
1865.433963
 42
0.005763
  0
VERTEX
  8
0
 10
67.577173
 20
1866.885186
 42
0.010019
  0
VERTEX
  8
0
 10
66.002104
 20
1868.040512
 42
-0.018454
  0
VERTEX
  8
0
 10
63.260275
 20
1870.123692
 42
-0.026567
  0
VERTEX
  8
0
 10
61.009545
 20
1872.177799
 42
-0.026882
  0
VERTEX
  8
0
 10
59.401323
 20
1873.996088
 42
-0.169191
  0
VERTEX
  8
0
 10
59.000000
 20
1875.148141
 42
0.198465
  0
VERTEX
  8
0
 10
58.187027
 20
1877.115620
 42
0.002576
  0
VERTEX
  8
0
 10
48.529193
 20
1886.707417
 42
0.002618
  0
VERTEX
  8
0
 10
38.782005
 20
1896.188872
 42
0.193965
  0
VERTEX
  8
0
 10
36.769759
 20
1897.000000
 42
-0.047679
  0
VERTEX
  8
0
 10
36.092441
 20
1897.064734
 42
-0.067671
  0
VERTEX
  8
0
 10
35.519867
 20
1897.258112
 42
-0.087840
  0
VERTEX
  8
0
 10
35.133934
 20
1897.543106
 42
-0.192189
  0
VERTEX
  8
0
 10
35.000000
 20
1897.878680
 42
0.208074
  0
VERTEX
  8
0
 10
34.819057
 20
1898.294660
 42
0.033695
  0
VERTEX
  8
0
 10
34.118750
 20
1898.864273
 42
0.032352
  0
VERTEX
  8
0
 10
33.148944
 20
1899.459931
 42
0.023358
  0
VERTEX
  8
0
 10
32.000000
 20
1900.000000
 42
-0.023358
  0
VERTEX
  8
0
 10
30.851056
 20
1900.540069
 42
-0.032352
  0
VERTEX
  8
0
 10
29.881250
 20
1901.135727
 42
-0.033695
  0
VERTEX
  8
0
 10
29.180943
 20
1901.705340
 42
-0.208074
  0
VERTEX
  8
0
 10
29.000000
 20
1902.121320
 42
0.211547
  0
VERTEX
  8
0
 10
28.851170
 20
1902.457343
 42
0.080913
  0
VERTEX
  8
0
 10
28.412500
 20
1902.741888
 42
0.061586
  0
VERTEX
  8
0
 10
27.765706
 20
1902.935560
 42
0.042005
  0
VERTEX
  8
0
 10
27.000000
 20
1903.000000
 42
-0.048028
  0
VERTEX
  8
0
 10
26.234582
 20
1903.073693
 42
-0.068025
  0
VERTEX
  8
0
 10
25.587500
 20
1903.293750
 42
-0.088204
  0
VERTEX
  8
0
 10
25.151477
 20
1903.618118
 42
-0.191087
  0
VERTEX
  8
0
 10
25.000000
 20
1904.000000
 42
0.226478
  0
VERTEX
  8
0
 10
24.817169
 20
1904.382936
 42
0.074992
  0
VERTEX
  8
0
 10
24.265625
 20
1904.706250
 42
0.057076
  0
VERTEX
  8
0
 10
23.457356
 20
1904.926884
 42
0.038131
  0
VERTEX
  8
0
 10
22.500000
 20
1905.000000
 42
-0.038131
  0
VERTEX
  8
0
 10
21.542644
 20
1905.073116
 42
-0.057076
  0
VERTEX
  8
0
 10
20.734375
 20
1905.293750
 42
-0.074992
  0
VERTEX
  8
0
 10
20.182831
 20
1905.617064
 42
-0.226478
  0
VERTEX
  8
0
 10
20.000000
 20
1906.000000
 42
0.250638
  0
VERTEX
  8
0
 10
19.794591
 20
1906.384030
 42
0.064635
  0
VERTEX
  8
0
 10
19.143229
 20
1906.706250
 42
0.050076
  0
VERTEX
  8
0
 10
18.200605
 20
1906.927186
 42
0.032551
  0
VERTEX
  8
0
 10
17.083333
 20
1907.000000
 42
-0.028200
  0
VERTEX
  8
0
 10
15.942138
 20
1907.064414
 42
-0.037909
  0
VERTEX
  8
0
 10
14.925521
 20
1907.258402
 42
-0.041935
  0
VERTEX
  8
0
 10
14.150328
 20
1907.539749
 42
-0.196629
  0
VERTEX
  8
0
 10
13.833333
 20
1907.879668
 42
0.248882
  0
VERTEX
  8
0
 10
13.417242
 20
1908.245146
 42
0.012932
  0
VERTEX
  8
0
 10
11.615104
 20
1908.623640
 42
0.017985
  0
VERTEX
  8
0
 10
9.360830
 20
1908.953252
 42
0.011854
  0
VERTEX
  8
0
 10
6.750000
 20
1909.177061
 42
0.000000
  0
VERTEX
  8
0
 10
0.000000
 20
1909.594786
 42
0.000000
  0
SEQEND
  0
POLYLINE
  8
0
 66
1
 70
1
  0
VERTEX
  8
0
 10
75.000000
 20
1753.000000
 42
0.254951
  0
VERTEX
  8
0
 10
75.209557
 20
1752.615738
 42
0.062710
  0
VERTEX
  8
0
 10
75.881250
 20
1752.293750
 42
0.048861
  0
VERTEX
  8
0
 10
76.850749
 20
1752.072766
 42
0.031626
  0
VERTEX
  8
0
 10
78.000000
 20
1752.000000
 42
-0.031626
  0
VERTEX
  8
0
 10
79.149251
 20
1751.927234
 42
-0.048861
  0
VERTEX
  8
0
 10
80.118750
 20
1751.706250
 42
-0.062710
  0
VERTEX
  8
0
 10
80.790443
 20
1751.384262
 42
-0.254951
  0
VERTEX
  8
0
 10
81.000000
 20
1751.000000
 42
0.191087
  0
VERTEX
  8
0
 10
81.151477
 20
1750.618118
 42
0.088204
  0
VERTEX
  8
0
 10
81.587500
 20
1750.293750
 42
0.068025
  0
VERTEX
  8
0
 10
82.234582
 20
1750.073693
 42
0.048028
  0
VERTEX
  8
0
 10
83.000000
 20
1750.000000
 42
-0.048028
  0
VERTEX
  8
0
 10
83.765418
 20
1749.926307
 42
-0.068025
  0
VERTEX
  8
0
 10
84.412500
 20
1749.706250
 42
-0.088204
  0
VERTEX
  8
0
 10
84.848523
 20
1749.381882
 42
-0.191087
  0
VERTEX
  8
0
 10
85.000000
 20
1749.000000
 42
0.124164
  0
VERTEX
  8
0
 10
85.096215
 20
1748.618522
 42
0.100671
  0
VERTEX
  8
0
 10
85.367188
 20
1748.293391
 42
0.090501
  0
VERTEX
  8
0
 10
85.772496
 20
1748.074685
 42
0.078495
  0
VERTEX
  8
0
 10
86.250000
 20
1747.998779
 42
-0.113170
  0
VERTEX
  8
0
 10
86.911510
 20
1747.846429
 42
-0.022469
  0
VERTEX
  8
0
 10
87.986315
 20
1747.263900
 42
-0.022734
  0
VERTEX
  8
0
 10
89.201467
 20
1746.455451
 42
-0.019441
  0
VERTEX
  8
0
 10
90.405539
 20
1745.498779
 42
0.012177
  0
VERTEX
  8
0
 10
91.574763
 20
1744.541768
 42
0.016222
  0
VERTEX
  8
0
 10
92.684654
 20
1743.734016
 42
0.013482
  0
VERTEX
  8
0
 10
93.635785
 20
1743.124744
 42
0.136529
  0
VERTEX
  8
0
 10
94.084111
 20
1743.000000
 42
-0.106490
  0
VERTEX
  8
0
 10
94.469179
 20
1742.917047
 42
-0.029699
  0
VERTEX
  8
0
 10
95.018234
 20
1742.628588
 42
-0.028540
  0
VERTEX
  8
0
 10
95.615897
 20
1742.219542
 42
-0.026529
  0
VERTEX
  8
0
 10
96.178571
 20
1741.735618
 42
0.016443
  0
VERTEX
  8
0
 10
96.955503
 20
1741.039688
 42
0.003064
  0
VERTEX
  8
0
 10
98.430481
 20
1739.818747
 42
0.003280
  0
VERTEX
  8
0
 10
100.173503
 20
1738.412816
 42
0.002991
  0
VERTEX
  8
0
 10
101.989024
 20
1736.985618
 42
-0.009671
  0
VERTEX
  8
0
 10
104.099256
 20
1735.280644
 42
-0.004477
  0
VERTEX
  8
0
 10
106.778246
 20
1732.987888
 42
-0.004432
  0
VERTEX
  8
0
 10
109.551147
 20
1730.527832
 42
-0.006149
  0
VERTEX
  8
0
 10
111.989024
 20
1728.271023
 42
0.005943
  0
VERTEX
  8
0
 10
114.153426
 20
1726.265715
 42
0.008908
  0
VERTEX
  8
0
 10
116.094202
 20
1724.571883
 42
0.004555
  0
VERTEX
  8
0
 10
117.763567
 20
1723.192314
 42
0.164599
  0
VERTEX
  8
0
 10
118.225280
 20
1723.021023
 42
-0.171948
  0
VERTEX
  8
0
 10
118.694112
 20
1722.839427
 42
-0.003273
  0
VERTEX
  8
0
 10
120.694452
 20
1721.096801
 42
-0.007544
  0
VERTEX
  8
0
 10
123.006827
 20
1718.992651
 42
-0.004931
  0
VERTEX
  8
0
 10
125.612495
 20
1716.500000
 42
0.005809
  0
VERTEX
  8
0
 10
128.225600
 20
1714.009012
 42
0.008800
  0
VERTEX
  8
0
 10
130.561138
 20
1711.909375
 42
0.004274
  0
VERTEX
  8
0
 10
132.574282
 20
1710.192588
 42
0.176180
  0
VERTEX
  8
0
 10
133.103882
 20
1710.000000
 42
-0.156391
  0
VERTEX
  8
0
 10
133.585175
 20
1709.845685
 42
-0.012778
  0
VERTEX
  8
0
 10
134.654161
 20
1709.039607
 42
-0.016179
  0
VERTEX
  8
0
 10
135.898568
 20
1707.982909
 42
-0.011729
  0
VERTEX
  8
0
 10
137.216667
 20
1706.730575
 42
0.011903
  0
VERTEX
  8
0
 10
138.761857
 20
1705.263502
 42
0.006619
  0
VERTEX
  8
0
 10
140.710521
 20
1703.546000
 42
0.006598
  0
VERTEX
  8
0
 10
142.729861
 20
1701.858912
 42
0.010604
  0
VERTEX
  8
0
 10
144.500000
 20
1700.480575
 42
-0.014849
  0
VERTEX
  8
0
 10
146.364682
 20
1699.003027
 42
-0.006885
  0
VERTEX
  8
0
 10
148.701241
 20
1696.980232
 42
-0.006814
  0
VERTEX
  8
0
 10
151.099130
 20
1694.786586
 42
-0.009427
  0
VERTEX
  8
0
 10
153.185076
 20
1692.750000
 42
0.011205
  0
VERTEX
  8
0
 10
155.062030
 20
1690.930447
 42
0.015632
  0
VERTEX
  8
0
 10
156.825804
 20
1689.395313
 42
0.011981
  0
VERTEX
  8
0
 10
158.340302
 20
1688.217526
 42
0.160615
  0
VERTEX
  8
0
 10
159.000000
 20
1688.000000
 42
-0.161348
  0
VERTEX
  8
0
 10
159.659424
 20
1687.781518
 42
-0.011977
  0
VERTEX
  8
0
 10
161.174196
 20
1686.596571
 42
-0.015646
  0
VERTEX
  8
0
 10
162.937967
 20
1685.052514
 42
-0.011204
  0
VERTEX
  8
0
 10
164.814924
 20
1683.222369
 42
0.009844
  0
VERTEX
  8
0
 10
166.864993
 20
1681.212522
 42
0.007845
  0
VERTEX
  8
0
 10
169.151884
 20
1679.123904
 42
0.007942
  0
VERTEX
  8
0
 10
171.331764
 20
1677.255757
 42
0.019740
  0
VERTEX
  8
0
 10
173.000000
 20
1675.979161
 42
-0.012930
  0
VERTEX
  8
0
 10
174.561216
 20
1674.817821
 42
-0.007620
  0
VERTEX
  8
0
 10
176.368188
 20
1673.354603
 42
-0.007620
  0
VERTEX
  8
0
 10
178.129916
 20
1671.836835
 42
-0.012918
  0
VERTEX
  8
0
 10
179.551280
 20
1670.506792
 42
0.011576
  0
VERTEX
  8
0
 10
180.930138
 20
1669.209564
 42
0.007877
  0
VERTEX
  8
0
 10
182.555188
 20
1667.795745
 42
0.007940
  0
VERTEX
  8
0
 10
184.167382
 20
1666.480342
 42
0.015782
  0
VERTEX
  8
0
 10
185.492573
 20
1665.500000
 42
-0.020380
  0
VERTEX
  8
0
 10
186.895445
 20
1664.442102
 42
-0.007479
  0
VERTEX
  8
0
 10
188.791598
 20
1662.839063
 42
-0.007399
  0
VERTEX
  8
0
 10
190.813582
 20
1661.023781
 42
-0.008805
  0
VERTEX
  8
0
 10
192.664978
 20
1659.250000
 42
0.011973
  0
VERTEX
  8
0
 10
194.385804
 20
1657.622097
 42
0.016442
  0
VERTEX
  8
0
 10
196.013927
 20
1656.248437
 42
0.013144
  0
VERTEX
  8
0
 10
197.413130
 20
1655.203048
 42
0.155070
  0
VERTEX
  8
0
 10
198.052085
 20
1655.000000
 42
-0.151507
  0
VERTEX
  8
0
 10
198.673528
 20
1654.807271
 42
-0.016039
  0
VERTEX
  8
0
 10
199.910823
 20
1653.898438
 42
-0.018653
  0
VERTEX
  8
0
 10
201.341572
 20
1652.686212
 42
-0.013940
  0
VERTEX
  8
0
 10
202.828401
 20
1651.250000
 42
0.012471
  0
VERTEX
  8
0
 10
205.682821
 20
1648.476502
 42
0.012868
  0
VERTEX
  8
0
 10
208.642955
 20
1645.878464
 42
0.008666
  0
VERTEX
  8
0
 10
212.595644
 20
1642.699843
 42
0.002312
  0
VERTEX
  8
0
 10
219.000000
 20
1637.777234
 42
-0.018844
  0
VERTEX
  8
0
 10
223.737584
 20
1633.880014
 42
-0.013143
  0
VERTEX
  8
0
 10
228.791284
 20
1629.149780
 42
-0.006566
  0
VERTEX
  8
0
 10
233.390645
 20
1624.491462
 42
-0.193849
  0
VERTEX
  8
0
 10
234.000000
 20
1622.978800
 42
0.140406
  0
VERTEX
  8
0
 10
234.139024
 20
1622.493481
 42
0.019440
  0
VERTEX
  8
0
 10
234.734375
 20
1621.617352
 42
0.021019
  0
VERTEX
  8
0
 10
235.542694
 20
1620.613178
 42
0.016404
  0
VERTEX
  8
0
 10
236.500000
 20
1619.590909
 42
-0.028052
  0
VERTEX
  8
0
 10
237.456807
 20
1618.520265
 42
-0.029931
  0
VERTEX
  8
0
 10
238.265625
 20
1617.371307
 42
-0.031350
  0
VERTEX
  8
0
 10
238.834386
 20
1616.307181
 42
-0.107455
  0
VERTEX
  8
0
 10
239.000000
 20
1615.545455
 42
0.057640
  0
VERTEX
  8
0
 10
239.068369
 20
1614.954355
 42
0.076878
  0
VERTEX
  8
0
 10
239.270410
 20
1614.453977
 42
0.095765
  0
VERTEX
  8
0
 10
239.569390
 20
1614.118651
 42
0.164379
  0
VERTEX
  8
0
 10
239.920545
 20
1614.000000
 42
-0.238307
  0
VERTEX
  8
0
 10
240.321324
 20
1613.797482
 42
-0.041716
  0
VERTEX
  8
0
 10
240.778246
 20
1613.054954
 42
-0.037381
  0
VERTEX
  8
0
 10
241.209960
 20
1612.015139
 42
-0.025654
  0
VERTEX
  8
0
 10
241.547700
 20
1610.782823
 42
0.012171
  0
VERTEX
  8
0
 10
241.877408
 20
1609.438690
 42
0.010876
  0
VERTEX
  8
0
 10
242.283656
 20
1608.060425
 42
0.010980
  0
VERTEX
  8
0
 10
242.702777
 20
1606.838189
 42
0.033024
  0
VERTEX
  8
0
 10
243.060821
 20
1606.032823
 42
-0.056860
  0
VERTEX
  8
0
 10
244.047012
 20
1603.495911
 42
-0.015131
  0
VERTEX
  8
0
 10
245.024620
 20
1599.261606
 42
-0.016004
  0
VERTEX
  8
0
 10
245.764454
 20
1594.808595
 42
-0.033537
  0
VERTEX
  8
0
 10
245.994423
 20
1591.307180
 42
-0.051539
  0
VERTEX
  8
0
 10
245.425782
 20
1585.882913
 42
-0.016283
  0
VERTEX
  8
0
 10
243.487150
 20
1577.960988
 42
-0.013216
  0
VERTEX
  8
0
 10
241.123909
 20
1570.293940
 42
-0.108474
  0
VERTEX
  8
0
 10
239.250000
 20
1567.178571
 42
0.026498
  0
VERTEX
  8
0
 10
238.771581
 20
1566.615897
 42
0.028404
  0
VERTEX
  8
0
 10
238.367188
 20
1566.018234
 42
0.029547
  0
VERTEX
  8
0
 10
238.082069
 20
1565.469227
 42
0.105367
  0
VERTEX
  8
0
 10
238.000000
 20
1565.084111
 42
-0.136529
  0
VERTEX
  8
0
 10
237.875256
 20
1564.635785
 42
-0.013482
  0
VERTEX
  8
0
 10
237.265984
 20
1563.684654
 42
-0.016222
  0
VERTEX
  8
0
 10
236.458232
 20
1562.574763
 42
-0.012177
  0
VERTEX
  8
0
 10
235.501221
 20
1561.405539
 42
0.012314
  0
VERTEX
  8
0
 10
234.544134
 20
1560.235568
 42
0.016353
  0
VERTEX
  8
0
 10
233.736100
 20
1559.123398
 42
0.013675
  0
VERTEX
  8
0
 10
233.127253
 20
1558.169871
 42
0.135662
  0
VERTEX
  8
0
 10
233.001221
 20
1557.716667
 42
-0.155239
  0
VERTEX
  8
0
 10
232.853444
 20
1557.254665
 42
-0.011324
  0
VERTEX
  8
0
 10
232.045671
 20
1556.170296
 42
-0.014956
  0
VERTEX
  8
0
 10
230.995044
 20
1554.904567
 42
-0.010737
  0
VERTEX
  8
0
 10
229.750000
 20
1553.552425
 42
0.003322
  0
VERTEX
  8
0
 10
225.011735
 20
1548.557308
 42
0.001072
  0
VERTEX
  8
0
 10
218.057695
 20
1541.096068
 42
0.001073
  0
VERTEX
  8
0
 10
211.134648
 20
1533.603895
 42
0.003313
  0
VERTEX
  8
0
 10
206.500787
 20
1528.500000
 42
0.011410
  0
VERTEX
  8
0
 10
204.784286
 20
1526.493744
 42
0.015481
  0
VERTEX
  8
0
 10
203.334038
 20
1524.601562
 42
0.012375
  0
VERTEX
  8
0
 10
202.229653
 20
1522.981150
 42
0.142185
  0
VERTEX
  8
0
 10
202.010665
 20
1522.250000
 42
-0.065890
  0
VERTEX
  8
0
 10
201.943267
 20
1521.772153
 42
-0.082597
  0
VERTEX
  8
0
 10
201.754329
 20
1521.367188
 42
-0.098269
  0
VERTEX
  8
0
 10
201.476857
 20
1521.096222
 42
-0.145419
  0
VERTEX
  8
0
 10
201.153010
 20
1521.000000
 42
0.158485
  0
VERTEX
  8
0
 10
200.125694
 20
1520.665982
 42
0.018265
  0
VERTEX
  8
0
 10
198.190866
 20
1519.148051
 42
0.016604
  0
VERTEX
  8
0
 10
196.360427
 20
1517.493515
 42
0.203394
  0
VERTEX
  8
0
 10
196.000000
 20
1516.644136
 42
-0.165280
  0
VERTEX
  8
0
 10
195.689598
 20
1515.730767
 42
-0.010992
  0
VERTEX
  8
0
 10
193.929198
 20
1513.541241
 42
-0.011229
  0
VERTEX
  8
0
 10
191.239904
 20
1510.485018
 42
-0.003347
  0
VERTEX
  8
0
 10
187.000000
 20
1505.940823
 42
0.002985
  0
VERTEX
  8
0
 10
184.617103
 20
1503.390613
 42
0.002187
  0
VERTEX
  8
0
 10
182.002233
 20
1500.533470
 42
0.002209
  0
VERTEX
  8
0
 10
179.549754
 20
1497.806005
 42
0.004897
  0
VERTEX
  8
0
 10
177.709729
 20
1495.700233
 42
-0.004871
  0
VERTEX
  8
0
 10
175.872278
 20
1493.597185
 42
-0.002212
  0
VERTEX
  8
0
 10
173.429055
 20
1490.879479
 42
-0.002190
  0
VERTEX
  8
0
 10
170.827172
 20
1488.036036
 42
-0.003003
  0
VERTEX
  8
0
 10
168.459729
 20
1485.502142
 42
0.006353
  0
VERTEX
  8
0
 10
166.367541
 20
1483.232563
 42
0.009508
  0
VERTEX
  8
0
 10
164.603796
 20
1481.193108
 42
0.005018
  0
VERTEX
  8
0
 10
163.175123
 20
1479.440701
 42
0.170098
  0
VERTEX
  8
0
 10
163.000000
 20
1478.940826
 42
-0.178787
  0
VERTEX
  8
0
 10
162.812913
 20
1478.434339
 42
-0.003701
  0
VERTEX
  8
0
 10
161.017187
 20
1476.366459
 42
-0.008174
  0
VERTEX
  8
0
 10
158.836913
 20
1473.973005
 42
-0.005352
  0
VERTEX
  8
0
 10
156.250000
 20
1471.283048
 42
0.004418
  0
VERTEX
  8
0
 10
153.395753
 20
1468.326178
 42
0.003636
  0
VERTEX
  8
0
 10
150.400896
 20
1465.121920
 42
0.003672
  0
VERTEX
  8
0
 10
147.693469
 20
1462.138962
 42
0.009749
  0
VERTEX
  8
0
 10
145.816879
 20
1459.956447
 42
-0.007043
  0
VERTEX
  8
0
 10
143.982805
 20
1457.799875
 42
-0.002880
  0
VERTEX
  8
0
 10
141.433529
 20
1454.920145
 42
-0.002849
  0
VERTEX
  8
0
 10
138.659388
 20
1451.857821
 42
-0.003639
  0
VERTEX
  8
0
 10
136.066879
 20
1449.069579
 42
0.006284
  0
VERTEX
  8
0
 10
133.742016
 20
1446.542516
 42
0.009414
  0
VERTEX
  8
0
 10
131.782146
 20
1444.273162
 42
0.004931
  0
VERTEX
  8
0
 10
130.193195
 20
1442.322894
 42
0.170061
  0
VERTEX
  8
0
 10
130.000000
 20
1441.771305
 42
-0.180390
  0
VERTEX
  8
0
 10
129.795053
 20
1441.221725
 42
-0.004489
  0
VERTEX
  8
0
 10
127.994035
 20
1439.180087
 42
-0.009112
  0
VERTEX
  8
0
 10
125.788182
 20
1436.812566
 42
-0.006014
  0
VERTEX
  8
0
 10
123.171183
 20
1434.168822
 42
0.004969
  0
VERTEX
  8
0
 10
120.488696
 20
1431.470229
 42
0.006377
  0
VERTEX
  8
0
 10
118.077733
 20
1428.932133
 42
0.004998
  0
VERTEX
  8
0
 10
116.110416
 20
1426.764387
 42
0.053539
  0
VERTEX
  8
0
 10
115.421183
 20
1425.798938
 42
-0.044939
  0
VERTEX
  8
0
 10
114.766488
 20
1424.847772
 42
-0.005136
  0
VERTEX
  8
0
 10
113.081535
 20
1422.859157
 42
-0.006169
  0
VERTEX
  8
0
 10
111.019195
 20
1420.533838
 42
-0.004988
  0
VERTEX
  8
0
 10
108.750000
 20
1418.087485
 42
0.003883
  0
VERTEX
  8
0
 10
106.546055
 20
1415.721979
 42
0.006061
  0
VERTEX
  8
0
 10
104.689063
 20
1413.647636
 42
0.002113
  0
VERTEX
  8
0
 10
103.124297
 20
1411.841150
 42
0.179283
  0
VERTEX
  8
0
 10
103.000000
 20
1411.505642
 42
-0.198948
  0
VERTEX
  8
0
 10
102.151337
 20
1409.457190
 42
-0.002349
  0
VERTEX
  8
0
 10
91.597720
 20
1399.005169
 42
-0.004360
  0
VERTEX
  8
0
 10
81.377916
 20
1389.151846
 42
-0.085359
  0
VERTEX
  8
0
 10
77.750000
 20
1386.732638
 42
0.021442
  0
VERTEX
  8
0
 10
76.696729
 20
1386.209893
 42
0.029929
  0
VERTEX
  8
0
 10
75.807813
 20
1385.648363
 42
0.030101
  0
VERTEX
  8
0
 10
75.160265
 20
1385.121034
 42
0.209795
  0
VERTEX
  8
0
 10
75.000000
 20
1384.755889
 42
-0.240533
  0
VERTEX
  8
0
 10
74.851971
 20
1384.465982
 42
-0.069064
  0
VERTEX
  8
0
 10
74.393188
 20
1384.222042
 42
-0.052963
  0
VERTEX
  8
0
 10
73.725472
 20
1384.055129
 42
-0.034796
  0
VERTEX
  8
0
 10
72.934259
 20
1384.000000
 42
0.037739
  0
VERTEX
  8
0
 10
72.012322
 20
1383.930314
 42
0.023348
  0
VERTEX
  8
0
 10
70.946423
 20
1383.716939
 42
0.023367
  0
VERTEX
  8
0
 10
69.907329
 20
1383.405744
 42
0.038440
  0
VERTEX
  8
0
 10
69.067989
 20
1383.036387
 42
-0.079644
  0
VERTEX
  8
0
 10
68.067296
 20
1382.690888
 42
-0.055477
  0
VERTEX
  8
0
 10
66.872496
 20
1382.615931
 42
-0.046124
  0
VERTEX
  8
0
 10
65.480160
 20
1382.812665
 42
-0.027962
  0
VERTEX
  8
0
 10
63.883730
 20
1383.286387
 42
-0.075113
  0
VERTEX
  8
0
 10
59.717067
 20
1385.531984
 42
-0.061853
  0
VERTEX
  8
0
 10
56.079989
 20
1389.043319
 42
-0.055223
  0
VERTEX
  8
0
 10
53.075321
 20
1393.740268
 42
-0.040357
  0
VERTEX
  8
0
 10
50.787475
 20
1399.500000
 42
-0.035183
  0
VERTEX
  8
0
 10
48.403616
 20
1409.816067
 42
-0.029729
  0
VERTEX
  8
0
 10
47.315156
 20
1420.965292
 42
-0.011236
  0
VERTEX
  8
0
 10
47.034395
 20
1439.188920
 42
-0.000900
  0
VERTEX
  8
0
 10
47.460852
 20
1487.284973
 42
0.000131
  0
VERTEX
  8
0
 10
47.802462
 20
1520.114636
 42
0.000067
  0
VERTEX
  8
0
 10
48.214273
 20
1561.255586
 42
0.000067
  0
VERTEX
  8
0
 10
48.626871
 20
1603.607787
 42
0.000101
  0
VERTEX
  8
0
 10
48.973926
 20
1640.500000
 42
-0.000929
  0
VERTEX
  8
0
 10
49.582980
 20
1695.548143
 42
-0.008553
  0
VERTEX
  8
0
 10
50.299870
 20
1719.416010
 42
-0.018232
  0
VERTEX
  8
0
 10
51.438932
 20
1733.010733
 42
-0.087384
  0
VERTEX
  8
0
 10
53.687127
 20
1740.425990
 42
-0.015236
  0
VERTEX
  8
0
 10
56.240473
 20
1745.109085
 42
-0.027216
  0
VERTEX
  8
0
 10
58.658189
 20
1748.766837
 42
-0.029197
  0
VERTEX
  8
0
 10
60.790769
 20
1751.314958
 42
-0.201332
  0
VERTEX
  8
0
 10
62.250000
 20
1751.963488
 42
0.055063
  0
VERTEX
  8
0
 10
62.919419
 20
1752.051602
 42
0.073593
  0
VERTEX
  8
0
 10
63.485937
 20
1752.283024
 42
0.092041
  0
VERTEX
  8
0
 10
63.866403
 20
1752.615574
 42
0.168810
  0
VERTEX
  8
0
 10
64.000000
 20
1753.000000
 42
-0.332234
  0
VERTEX
  8
0
 10
64.292067
 20
1753.391033
 42
-0.026982
  0
VERTEX
  8
0
 10
65.615625
 20
1753.706250
 42
-0.027868
  0
VERTEX
  8
0
 10
67.391660
 20
1753.927854
 42
-0.017105
  0
VERTEX
  8
0
 10
69.500000
 20
1754.000000
 42
-0.017105
  0
VERTEX
  8
0
 10
71.608340
 20
1753.927854
 42
-0.027868
  0
VERTEX
  8
0
 10
73.384375
 20
1753.706250
 42
-0.026982
  0
VERTEX
  8
0
 10
74.707933
 20
1753.391033
 42
-0.332234
  0
SEQEND
  0
POLYLINE
  8
0
 66
1
 70
1
  0
VERTEX
  8
0
 10
279.285277
 20
1506.525270
 42
-0.068948
  0
VERTEX
  8
0
 10
282.921203
 20
1504.377995
 42
-0.021500
  0
VERTEX
  8
0
 10
287.721154
 20
1500.217695
 42
-0.015950
  0
VERTEX
  8
0
 10
292.129203
 20
1495.777569
 42
-0.189696
  0
VERTEX
  8
0
 10
293.000000
 20
1493.564924
 42
0.062037
  0
VERTEX
  8
0
 10
293.074530
 20
1492.966543
 42
0.080367
  0
VERTEX
  8
0
 10
293.293750
 20
1492.459696
 42
0.097889
  0
VERTEX
  8
0
 10
293.618618
 20
1492.120461
 42
0.154173
  0
VERTEX
  8
0
 10
294.000000
 20
1492.000000
 42
-0.191087
  0
VERTEX
  8
0
 10
294.381882
 20
1491.848523
 42
-0.088204
  0
VERTEX
  8
0
 10
294.706250
 20
1491.412500
 42
-0.068025
  0
VERTEX
  8
0
 10
294.926307
 20
1490.765418
 42
-0.048028
  0
VERTEX
  8
0
 10
295.000000
 20
1490.000000
 42
0.048028
  0
VERTEX
  8
0
 10
295.073693
 20
1489.234582
 42
0.068025
  0
VERTEX
  8
0
 10
295.293750
 20
1488.587500
 42
0.088204
  0
VERTEX
  8
0
 10
295.618118
 20
1488.151477
 42
0.191087
  0
VERTEX
  8
0
 10
296.000000
 20
1488.000000
 42
-0.149454
  0
VERTEX
  8
0
 10
296.381359
 20
1487.883405
 42
-0.098698
  0
VERTEX
  8
0
 10
296.706250
 20
1487.555389
 42
-0.081991
  0
VERTEX
  8
0
 10
296.925341
 20
1487.065097
 42
-0.064244
  0
VERTEX
  8
0
 10
297.000000
 20
1486.486431
 42
0.044353
  0
VERTEX
  8
0
 10
297.062574
 20
1485.782422
 42
0.022025
  0
VERTEX
  8
0
 10
297.259478
 20
1484.907397
 42
0.021669
  0
VERTEX
  8
0
 10
297.545035
 20
1484.011983
 42
0.029643
  0
VERTEX
  8
0
 10
297.883329
 20
1483.236431
 42
-0.024559
  0
VERTEX
  8
0
 10
299.673435
 20
1479.243749
 42
-0.015975
  0
VERTEX
  8
0
 10
301.361534
 20
1474.477978
 42
-0.014905
  0
VERTEX
  8
0
 10
302.650585
 20
1469.972597
 42
-0.062296
  0
VERTEX
  8
0
 10
303.000000
 20
1467.179002
 42
0.043943
  0
VERTEX
  8
0
 10
303.073451
 20
1466.344865
 42
0.063734
  0
VERTEX
  8
0
 10
303.293750
 20
1465.640082
 42
0.083503
  0
VERTEX
  8
0
 10
303.617786
 20
1465.163246
 42
0.204612
  0
VERTEX
  8
0
 10
304.000000
 20
1465.000000
 42
-0.255302
  0
VERTEX
  8
0
 10
304.384281
 20
1464.790104
 42
-0.062553
  0
VERTEX
  8
0
 10
304.706250
 20
1464.116718
 42
-0.048762
  0
VERTEX
  8
0
 10
304.927237
 20
1463.144990
 42
-0.031552
  0
VERTEX
  8
0
 10
305.000000
 20
1461.993084
 42
0.049206
  0
VERTEX
  8
0
 10
305.182356
 20
1460.144589
 42
0.005434
  0
VERTEX
  8
0
 10
306.059424
 20
1455.979294
 42
0.006586
  0
VERTEX
  8
0
 10
307.225500
 20
1451.034193
 42
0.005285
  0
VERTEX
  8
0
 10
308.606548
 20
1445.743084
 42
-0.002500
  0
VERTEX
  8
0
 10
310.071153
 20
1440.257092
 42
-0.002456
  0
VERTEX
  8
0
 10
311.489562
 20
1434.724661
 42
-0.002415
  0
VERTEX
  8
0
 10
312.685848
 20
1429.862183
 42
-0.009350
  0
VERTEX
  8
0
 10
313.356548
 20
1426.830229
 42
0.009401
  0
VERTEX
  8
0
 10
313.849215
 20
1424.604174
 42
0.012583
  0
VERTEX
  8
0
 10
314.384424
 20
1422.606552
 42
0.009793
  0
VERTEX
  8
0
 10
314.901121
 20
1420.974020
 42
0.115855
  0
VERTEX
  8
0
 10
315.250000
 20
1420.413562
 42
-0.127448
  0
VERTEX
  8
0
 10
315.540967
 20
1419.921421
 42
-0.024663
  0
VERTEX
  8
0
 10
315.779688
 20
1418.906900
 42
-0.024785
  0
VERTEX
  8
0
 10
315.944959
 20
1417.664255
 42
-0.020669
  0
VERTEX
  8
0
 10
316.000000
 20
1416.333333
 42
0.025244
  0
VERTEX
  8
0
 10
316.064533
 20
1415.055975
 42
0.040052
  0
VERTEX
  8
0
 10
316.261612
 20
1413.979167
 42
0.047964
  0
VERTEX
  8
0
 10
316.546475
 20
1413.215268
 42
0.287015
  0
VERTEX
  8
0
 10
316.890594
 20
1413.000000
 42
-0.252284
  0
VERTEX
  8
0
 10
317.269079
 20
1412.796047
 42
-0.042116
  0
VERTEX
  8
0
 10
317.677364
 20
1412.045312
 42
-0.037452
  0
VERTEX
  8
0
 10
318.047768
 20
1410.995040
 42
-0.025103
  0
VERTEX
  8
0
 10
318.318338
 20
1409.750000
 42
0.008850
  0
VERTEX
  8
0
 10
318.604999
 20
1408.187949
 42
0.003903
  0
VERTEX
  8
0
 10
319.036596
 20
1406.132812
 42
0.003861
  0
VERTEX
  8
0
 10
319.528119
 20
1403.960585
 42
0.005180
  0
VERTEX
  8
0
 10
320.009175
 20
1402.000000
 42
-0.007493
  0
VERTEX
  8
0
 10
320.489222
 20
1400.003656
 42
-0.005106
  0
VERTEX
  8
0
 10
320.977775
 20
1397.720313
 42
-0.005146
  0
VERTEX
  8
0
 10
321.403999
 20
1395.507467
 42
-0.010316
  0
VERTEX
  8
0
 10
321.686466
 20
1393.750000
 42
0.022019
  0
VERTEX
  8
0
 10
321.952035
 20
1392.313128
 42
0.033726
  0
VERTEX
  8
0
 10
322.319158
 20
1391.101562
 42
0.036163
  0
VERTEX
  8
0
 10
322.726236
 20
1390.223107
 42
0.272607
  0
VERTEX
  8
0
 10
323.105035
 20
1390.000000
 42
-0.292909
  0
VERTEX
  8
0
 10
323.451274
 20
1389.778132
 42
-0.045206
  0
VERTEX
  8
0
 10
323.737104
 20
1388.971875
 42
-0.038464
  0
VERTEX
  8
0
 10
323.935193
 20
1387.841294
 42
-0.024144
  0
VERTEX
  8
0
 10
324.000000
 20
1386.500000
 42
0.027026
  0
VERTEX
  8
0
 10
324.072542
 20
1385.158889
 42
0.042582
  0
VERTEX
  8
0
 10
324.293750
 20
1384.028125
 42
0.052312
  0
VERTEX
  8
0
 10
324.614308
 20
1383.232098
 42
0.277684
  0
VERTEX
  8
0
 10
325.000000
 20
1383.000000
 42
-0.277684
  0
VERTEX
  8
0
 10
325.385692
 20
1382.767902
 42
-0.052312
  0
VERTEX
  8
0
 10
325.706250
 20
1381.971875
 42
-0.042582
  0
VERTEX
  8
0
 10
325.927458
 20
1380.841111
 42
-0.027026
  0
VERTEX
  8
0
 10
326.000000
 20
1379.500000
 42
0.027026
  0
VERTEX
  8
0
 10
326.072542
 20
1378.158889
 42
0.042582
  0
VERTEX
  8
0
 10
326.293750
 20
1377.028125
 42
0.052312
  0
VERTEX
  8
0
 10
326.614308
 20
1376.232098
 42
0.277684
  0
VERTEX
  8
0
 10
327.000000
 20
1376.000000
 42
-0.295869
  0
VERTEX
  8
0
 10
327.387127
 20
1375.748945
 42
-0.043820
  0
VERTEX
  8
0
 10
327.706250
 20
1374.825000
 42
-0.037669
  0
VERTEX
  8
0
 10
327.927610
 20
1373.532944
 42
-0.023598
  0
VERTEX
  8
0
 10
328.000000
 20
1372.000000
 42
0.023598
  0
VERTEX
  8
0
 10
328.072390
 20
1370.467056
 42
0.037669
  0
VERTEX
  8
0
 10
328.293750
 20
1369.175000
 42
0.043820
  0
VERTEX
  8
0
 10
328.612873
 20
1368.251055
 42
0.295869
  0
VERTEX
  8
0
 10
329.000000
 20
1368.000000
 42
-0.275259
  0
VERTEX
  8
0
 10
329.385522
 20
1367.770364
 42
-0.053437
  0
VERTEX
  8
0
 10
329.706250
 20
1366.989211
 42
-0.043243
  0
VERTEX
  8
0
 10
329.927436
 20
1365.877484
 42
-0.027497
  0
VERTEX
  8
0
 10
330.000000
 20
1364.559017
 42
0.026918
  0
VERTEX
  8
0
 10
330.073414
 20
1363.196361
 42
0.033489
  0
VERTEX
  8
0
 10
330.293750
 20
1361.947275
 42
0.035556
  0
VERTEX
  8
0
 10
330.613307
 20
1360.958660
 42
0.159713
  0
VERTEX
  8
0
 10
331.000000
 20
1360.500000
 42
-0.159713
  0
VERTEX
  8
0
 10
331.386693
 20
1360.041340
 42
-0.035556
  0
VERTEX
  8
0
 10
331.706250
 20
1359.052725
 42
-0.033489
  0
VERTEX
  8
0
 10
331.926586
 20
1357.803639
 42
-0.026918
  0
VERTEX
  8
0
 10
332.000000
 20
1356.440983
 42
0.027497
  0
VERTEX
  8
0
 10
332.072564
 20
1355.122516
 42
0.043243
  0
VERTEX
  8
0
 10
332.293750
 20
1354.010789
 42
0.053437
  0
VERTEX
  8
0
 10
332.614478
 20
1353.229636
 42
0.275259
  0
VERTEX
  8
0
 10
333.000000
 20
1353.000000
 42
-0.295869
  0
VERTEX
  8
0
 10
333.387127
 20
1352.748945
 42
-0.043820
  0
VERTEX
  8
0
 10
333.706250
 20
1351.825000
 42
-0.037669
  0
VERTEX
  8
0
 10
333.927610
 20
1350.532944
 42
-0.023598
  0
VERTEX
  8
0
 10
334.000000
 20
1349.000000
 42
0.023598
  0
VERTEX
  8
0
 10
334.072390
 20
1347.467056
 42
0.037669
  0
VERTEX
  8
0
 10
334.293750
 20
1346.175000
 42
0.043820
  0
VERTEX
  8
0
 10
334.612873
 20
1345.251055
 42
0.295869
  0
VERTEX
  8
0
 10
335.000000
 20
1345.000000
 42
-0.251914
  0
VERTEX
  8
0
 10
335.384097
 20
1344.793368
 42
-0.064068
  0
VERTEX
  8
0
 10
335.706250
 20
1344.136086
 42
-0.049716
  0
VERTEX
  8
0
 10
335.927200
 20
1343.185620
 42
-0.032276
  0
VERTEX
  8
0
 10
336.000000
 20
1342.059017
 42
0.027310
  0
VERTEX
  8
0
 10
336.063693
 20
1340.893802
 42
0.033825
  0
VERTEX
  8
0
 10
336.254787
 20
1339.824481
 42
0.036015
  0
VERTEX
  8
0
 10
336.532056
 20
1338.977775
 42
0.158498
  0
VERTEX
  8
0
 10
336.867360
 20
1338.581976
 42
-0.162031
  0
VERTEX
  8
0
 10
337.237639
 20
1338.138736
 42
-0.020645
  0
VERTEX
  8
0
 10
337.649950
 20
1336.948204
 42
-0.022442
  0
VERTEX
  8
0
 10
338.028474
 20
1335.448508
 42
-0.016934
  0
VERTEX
  8
0
 10
338.313502
 20
1333.772959
 42
0.017342
  0
VERTEX
  8
0
 10
338.680979
 20
1331.623354
 42
0.006024
  0
VERTEX
  8
0
 10
339.355034
 20
1328.552057
 42
0.005976
  0
VERTEX
  8
0
 10
340.179228
 20
1325.184740
 42
0.006923
  0
VERTEX
  8
0
 10
341.046384
 20
1322.000000
 42
-0.003202
  0
VERTEX
  8
0
 10
342.686891
 20
1316.147183
 42
-0.005754
  0
VERTEX
  8
0
 10
343.946720
 20
1311.321507
 42
-0.005878
  0
VERTEX
  8
0
 10
345.077272
 20
1306.538374
 42
-0.003520
  0
VERTEX
  8
0
 10
346.313657
 20
1300.830229
 42
0.009284
  0
VERTEX
  8
0
 10
346.822752
 20
1298.604175
 42
0.012420
  0
VERTEX
  8
0
 10
347.371824
 20
1296.606552
 42
0.009650
  0
VERTEX
  8
0
 10
347.899158
 20
1294.973692
 42
0.114444
  0
VERTEX
  8
0
 10
348.250000
 20
1294.413562
 42
-0.126382
  0
VERTEX
  8
0
 10
348.540860
 20
1293.923950
 42
-0.025060
  0
VERTEX
  8
0
 10
348.779688
 20
1292.924237
 42
-0.025076
  0
VERTEX
  8
0
 10
348.944947
 20
1291.700669
 42
-0.021030
  0
VERTEX
  8
0
 10
349.000000
 20
1290.392350
 42
0.028263
  0
VERTEX
  8
0
 10
349.073476
 20
1289.093542
 42
0.034627
  0
VERTEX
  8
0
 10
349.293750
 20
1287.898317
 42
0.037097
  0
VERTEX
  8
0
 10
349.613681
 20
1286.950813
 42
0.155594
  0
VERTEX
  8
0
 10
350.000000
 20
1286.500000
 42
-0.159713
  0
VERTEX
  8
0
 10
350.386693
 20
1286.041340
 42
-0.035556
  0
VERTEX
  8
0
 10
350.706250
 20
1285.052725
 42
-0.033489
  0
VERTEX
  8
0
 10
350.926586
 20
1283.803639
 42
-0.026918
  0
VERTEX
  8
0
 10
351.000000
 20
1282.440983
 42
0.027497
  0
VERTEX
  8
0
 10
351.072564
 20
1281.122516
 42
0.043243
  0
VERTEX
  8
0
 10
351.293750
 20
1280.010789
 42
0.053437
  0
VERTEX
  8
0
 10
351.614478
 20
1279.229636
 42
0.275259
  0
VERTEX
  8
0
 10
352.000000
 20
1279.000000
 42
-0.275259
  0
VERTEX
  8
0
 10
352.385522
 20
1278.770364
 42
-0.053437
  0
VERTEX
  8
0
 10
352.706250
 20
1277.989211
 42
-0.043243
  0
VERTEX
  8
0
 10
352.927436
 20
1276.877484
 42
-0.027497
  0
VERTEX
  8
0
 10
353.000000
 20
1275.559017
 42
0.026918
  0
VERTEX
  8
0
 10
353.073414
 20
1274.196361
 42
0.033489
  0
VERTEX
  8
0
 10
353.293750
 20
1272.947275
 42
0.035556
  0
VERTEX
  8
0
 10
353.613307
 20
1271.958660
 42
0.159713
  0
VERTEX
  8
0
 10
354.000000
 20
1271.500000
 42
-0.158284
  0
VERTEX
  8
0
 10
354.386560
 20
1271.044084
 42
-0.036095
  0
VERTEX
  8
0
 10
354.706250
 20
1270.070061
 42
-0.033884
  0
VERTEX
  8
0
 10
354.926564
 20
1268.840047
 42
-0.027380
  0
VERTEX
  8
0
 10
355.000000
 20
1267.500000
 42
0.027380
  0
VERTEX
  8
0
 10
355.073436
 20
1266.159953
 42
0.033884
  0
VERTEX
  8
0
 10
355.293750
 20
1264.929939
 42
0.036095
  0
VERTEX
  8
0
 10
355.613440
 20
1263.955916
 42
0.158284
  0
VERTEX
  8
0
 10
356.000000
 20
1263.500000
 42
-0.159713
  0
VERTEX
  8
0
 10
356.386693
 20
1263.041340
 42
-0.035556
  0
VERTEX
  8
0
 10
356.706250
 20
1262.052725
 42
-0.033489
  0
VERTEX
  8
0
 10
356.926586
 20
1260.803639
 42
-0.026918
  0
VERTEX
  8
0
 10
357.000000
 20
1259.440983
 42
0.027497
  0
VERTEX
  8
0
 10
357.072564
 20
1258.122516
 42
0.043243
  0
VERTEX
  8
0
 10
357.293750
 20
1257.010789
 42
0.053437
  0
VERTEX
  8
0
 10
357.614478
 20
1256.229636
 42
0.275259
  0
VERTEX
  8
0
 10
358.000000
 20
1256.000000
 42
-0.295869
  0
VERTEX
  8
0
 10
358.387127
 20
1255.748945
 42
-0.043820
  0
VERTEX
  8
0
 10
358.706250
 20
1254.825000
 42
-0.037669
  0
VERTEX
  8
0
 10
358.927610
 20
1253.532944
 42
-0.023598
  0
VERTEX
  8
0
 10
359.000000
 20
1252.000000
 42
0.023598
  0
VERTEX
  8
0
 10
359.072390
 20
1250.467056
 42
0.037669
  0
VERTEX
  8
0
 10
359.293750
 20
1249.175000
 42
0.043820
  0
VERTEX
  8
0
 10
359.612873
 20
1248.251055
 42
0.295869
  0
VERTEX
  8
0
 10
360.000000
 20
1248.000000
 42
-0.275259
  0
VERTEX
  8
0
 10
360.385522
 20
1247.770364
 42
-0.053437
  0
VERTEX
  8
0
 10
360.706250
 20
1246.989211
 42
-0.043243
  0
VERTEX
  8
0
 10
360.927436
 20
1245.877484
 42
-0.027497
  0
VERTEX
  8
0
 10
361.000000
 20
1244.559017
 42
0.026918
  0
VERTEX
  8
0
 10
361.073414
 20
1243.196361
 42
0.033489
  0
VERTEX
  8
0
 10
361.293750
 20
1241.947275
 42
0.035556
  0
VERTEX
  8
0
 10
361.613307
 20
1240.958660
 42
0.159713
  0
VERTEX
  8
0
 10
362.000000
 20
1240.500000
 42
-0.158284
  0
VERTEX
  8
0
 10
362.386560
 20
1240.044084
 42
-0.036095
  0
VERTEX
  8
0
 10
362.706250
 20
1239.070061
 42
-0.033884
  0
VERTEX
  8
0
 10
362.926564
 20
1237.840047
 42
-0.027380
  0
VERTEX
  8
0
 10
363.000000
 20
1236.500000
 42
0.027380
  0
VERTEX
  8
0
 10
363.073436
 20
1235.159953
 42
0.033884
  0
VERTEX
  8
0
 10
363.293750
 20
1233.929939
 42
0.036095
  0
VERTEX
  8
0
 10
363.613440
 20
1232.955916
 42
0.158284
  0
VERTEX
  8
0
 10
364.000000
 20
1232.500000
 42
-0.159713
  0
VERTEX
  8
0
 10
364.386693
 20
1232.041340
 42
-0.035556
  0
VERTEX
  8
0
 10
364.706250
 20
1231.052725
 42
-0.033489
  0
VERTEX
  8
0
 10
364.926586
 20
1229.803639
 42
-0.026918
  0
VERTEX
  8
0
 10
365.000000
 20
1228.440983
 42
0.027497
  0
VERTEX
  8
0
 10
365.072564
 20
1227.122516
 42
0.043243
  0
VERTEX
  8
0
 10
365.293750
 20
1226.010789
 42
0.053437
  0
VERTEX
  8
0
 10
365.614478
 20
1225.229636
 42
0.275259
  0
VERTEX
  8
0
 10
366.000000
 20
1225.000000
 42
-0.295869
  0
VERTEX
  8
0
 10
366.387127
 20
1224.748945
 42
-0.043820
  0
VERTEX
  8
0
 10
366.706250
 20
1223.825000
 42
-0.037669
  0
VERTEX
  8
0
 10
366.927610
 20
1222.532944
 42
-0.023598
  0
VERTEX
  8
0
 10
367.000000
 20
1221.000000
 42
0.021194
  0
VERTEX
  8
0
 10
367.065013
 20
1219.466898
 42
0.034110
  0
VERTEX
  8
0
 10
367.264171
 20
1218.175000
 42
0.037616
  0
VERTEX
  8
0
 10
367.550042
 20
1217.238753
 42
0.309132
  0
VERTEX
  8
0
 10
367.899306
 20
1217.000000
 42
-0.289162
  0
VERTEX
  8
0
 10
368.278642
 20
1216.760604
 42
-0.031061
  0
VERTEX
  8
0
 10
368.684894
 20
1215.751563
 42
-0.030583
  0
VERTEX
  8
0
 10
369.049382
 20
1214.378691
 42
-0.019609
  0
VERTEX
  8
0
 10
369.310793
 20
1212.750000
 42
0.009981
  0
VERTEX
  8
0
 10
369.837136
 20
1209.012182
 42
0.013405
  0
VERTEX
  8
0
 10
370.471827
 20
1205.651600
 42
0.015047
  0
VERTEX
  8
0
 10
371.188602
 20
1202.767184
 42
0.028401
  0
VERTEX
  8
0
 10
371.966299
 20
1200.500000
 42
-0.033141
  0
VERTEX
  8
0
 10
373.030921
 20
1197.297863
 42
-0.005364
  0
VERTEX
  8
0
 10
374.617348
 20
1190.925361
 42
-0.006332
  0
VERTEX
  8
0
 10
376.178486
 20
1183.963644
 42
-0.009412
  0
VERTEX
  8
0
 10
377.352780
 20
1177.828250
 42
0.008402
  0
VERTEX
  8
0
 10
377.846852
 20
1175.218314
 42
0.011636
  0
VERTEX
  8
0
 10
378.383317
 20
1172.897507
 42
0.008306
  0
VERTEX
  8
0
 10
378.904262
 20
1170.993328
 42
0.126961
  0
VERTEX
  8
0
 10
379.250000
 20
1170.411583
 42
-0.118142
  0
VERTEX
  8
0
 10
379.540076
 20
1169.942263
 42
-0.028148
  0
VERTEX
  8
0
 10
379.779688
 20
1169.049208
 42
-0.027395
  0
VERTEX
  8
0
 10
379.944852
 20
1167.964261
 42
-0.024079
  0
VERTEX
  8
0
 10
380.000000
 20
1166.819764
 42
0.027145
  0
VERTEX
  8
0
 10
380.066134
 20
1165.602510
 42
0.021472
  0
VERTEX
  8
0
 10
380.265120
 20
1164.299063
 42
0.021948
  0
VERTEX
  8
0
 10
380.555756
 20
1163.102715
 42
0.049321
  0
VERTEX
  8
0
 10
380.902536
 20
1162.236431
 42
-0.031605
  0
VERTEX
  8
0
 10
381.325623
 20
1161.279127
 42
-0.008201
  0
VERTEX
  8
0
 10
381.882236
 20
1159.688202
 42
-0.008307
  0
VERTEX
  8
0
 10
382.457945
 20
1157.850174
 42
-0.008389
  0
VERTEX
  8
0
 10
382.970297
 20
1156.000000
 42
0.002403
  0
VERTEX
  8
0
 10
383.484604
 20
1154.052407
 42
0.001819
  0
VERTEX
  8
0
 10
384.067082
 20
1151.919769
 42
0.001839
  0
VERTEX
  8
0
 10
384.628620
 20
1149.921435
 42
0.004277
  0
VERTEX
  8
0
 10
385.067761
 20
1148.429002
 42
-0.016350
  0
VERTEX
  8
0
 10
385.424739
 20
1147.097943
 42
-0.012909
  0
VERTEX
  8
0
 10
385.726155
 20
1145.637364
 42
-0.013108
  0
VERTEX
  8
0
 10
385.935559
 20
1144.265554
 42
-0.031326
  0
VERTEX
  8
0
 10
386.000000
 20
1143.238019
 42
0.043101
  0
VERTEX
  8
0
 10
386.073997
 20
1142.381209
 42
0.044498
  0
VERTEX
  8
0
 10
386.293750
 20
1141.559232
 42
0.048633
  0
VERTEX
  8
0
 10
386.616123
 20
1140.887355
 42
0.118720
  0
VERTEX
  8
0
 10
387.000000
 20
1140.500000
 42
-0.170670
  0
VERTEX
  8
0
 10
387.387806
 20
1140.019590
 42
-0.031293
  0
VERTEX
  8
0
 10
387.706250
 20
1138.905850
 42
-0.030444
  0
VERTEX
  8
0
 10
387.926750
 20
1137.495210
 42
-0.023552
  0
VERTEX
  8
0
 10
388.000000
 20
1135.940983
 42
0.021712
  0
VERTEX
  8
0
 10
388.065620
 20
1134.430533
 42
0.034885
  0
VERTEX
  8
0
 10
388.266564
 20
1133.157664
 42
0.038964
  0
VERTEX
  8
0
 10
388.555283
 20
1132.238022
 42
0.306245
  0
VERTEX
  8
0
 10
388.907450
 20
1132.000000
 42
-0.360634
  0
VERTEX
  8
0
 10
389.593228
 20
1131.431423
 42
-0.011076
  0
VERTEX
  8
0
 10
390.238137
 20
1127.538647
 42
-0.013202
  0
VERTEX
  8
0
 10
390.899503
 20
1121.844120
 42
-0.003826
  0
VERTEX
  8
0
 10
391.620224
 20
1113.027931
 42
-0.030371
  0
VERTEX
  8
0
 10
391.702734
 20
1106.774125
 42
-0.059411
  0
VERTEX
  8
0
 10
390.879500
 20
1101.866952
 42
-0.068626
  0
VERTEX
  8
0
 10
389.038896
 20
1097.766638
 42
-0.056154
  0
VERTEX
  8
0
 10
386.047638
 20
1094.000000
 42
-0.027216
  0
VERTEX
  8
0
 10
383.691068
 20
1091.878187
 42
-0.100302
  0
VERTEX
  8
0
 10
381.921043
 20
1090.959679
 42
-0.064916
  0
VERTEX
  8
0
 10
379.563925
 20
1090.605642
 42
-0.007144
  0
VERTEX
  8
0
 10
374.088479
 20
1090.577463
 42
-0.009410
  0
VERTEX
  8
0
 10
370.381869
 20
1090.681131
 42
-0.023332
  0
VERTEX
  8
0
 10
367.678341
 20
1090.934475
 42
-0.025832
  0
VERTEX
  8
0
 10
365.794475
 20
1091.300188
 42
-0.256847
  0
VERTEX
  8
0
 10
365.224179
 20
1091.827463
 42
0.127628
  0
VERTEX
  8
0
 10
364.933028
 20
1092.276116
 42
0.067890
  0
VERTEX
  8
0
 10
364.385123
 20
1092.655567
 42
0.060588
  0
VERTEX
  8
0
 10
363.678709
 20
1092.912717
 42
0.057083
  0
VERTEX
  8
0
 10
362.916667
 20
1093.000000
 42
-0.050201
  0
VERTEX
  8
0
 10
362.183242
 20
1093.073823
 42
-0.070178
  0
VERTEX
  8
0
 10
361.563021
 20
1093.293750
 42
-0.090315
  0
VERTEX
  8
0
 10
361.145793
 20
1093.618250
 42
-0.184457
  0
VERTEX
  8
0
 10
361.000000
 20
1094.000000
 42
0.191087
  0
VERTEX
  8
0
 10
360.848523
 20
1094.381882
 42
0.088204
  0
VERTEX
  8
0
 10
360.412500
 20
1094.706250
 42
0.068025
  0
VERTEX
  8
0
 10
359.765418
 20
1094.926307
 42
0.048028
  0
VERTEX
  8
0
 10
359.000000
 20
1095.000000
 42
-0.048028
  0
VERTEX
  8
0
 10
358.234582
 20
1095.073693
 42
-0.068025
  0
VERTEX
  8
0
 10
357.587500
 20
1095.293750
 42
-0.088204
  0
VERTEX
  8
0
 10
357.151477
 20
1095.618118
 42
-0.191087
  0
VERTEX
  8
0
 10
357.000000
 20
1096.000000
 42
0.106151
  0
VERTEX
  8
0
 10
356.918075
 20
1096.381543
 42
0.099350
  0
VERTEX
  8
0
 10
356.685739
 20
1096.706250
 42
0.096121
  0
VERTEX
  8
0
 10
356.338573
 20
1096.923917
 42
0.092354
  0
VERTEX
  8
0
 10
355.930175
 20
1097.000000
 42
-0.141252
  0
VERTEX
  8
0
 10
354.480257
 20
1097.417946
 42
-0.006936
  0
VERTEX
  8
0
 10
350.254060
 20
1100.157709
 42
-0.006924
  0
VERTEX
  8
0
 10
346.104840
 20
1103.013960
 42
-0.141657
  0
VERTEX
  8
0
 10
345.166667
 20
1104.191788
 42
0.093087
  0
VERTEX
  8
0
 10
344.965592
 20
1104.500834
 42
0.064946
  0
VERTEX
  8
0
 10
344.640997
 20
1104.762588
 42
0.062934
  0
VERTEX
  8
0
 10
344.247891
 20
1104.939657
 42
0.074516
  0
VERTEX
  8
0
 10
343.845238
 20
1105.000000
 42
-0.091292
  0
VERTEX
  8
0
 10
343.376253
 20
1105.086348
 42
-0.034519
  0
VERTEX
  8
0
 10
342.768980
 20
1105.367188
 42
-0.032779
  0
VERTEX
  8
0
 10
342.134780
 20
1105.771645
 42
-0.034287
  0
VERTEX
  8
0
 10
341.568920
 20
1106.250000
 42
0.010340
  0
VERTEX
  8
0
 10
339.043784
 20
1108.600808
 42
0.005272
  0
VERTEX
  8
0
 10
335.780521
 20
1111.453904
 42
0.005170
  0
VERTEX
  8
0
 10
332.282409
 20
1114.385729
 42
0.006644
  0
VERTEX
  8
0
 10
329.002747
 20
1117.005072
 42
-0.008351
  0
VERTEX
  8
0
 10
326.979644
 20
1118.632191
 42
-0.004860
  0
VERTEX
  8
0
 10
324.604141
 20
1120.648365
 42
-0.004857
  0
VERTEX
  8
0
 10
322.262802
 20
1122.715142
 42
-0.008178
  0
VERTEX
  8
0
 10
320.344057
 20
1124.500000
 42
0.007812
  0
VERTEX
  8
0
 10
315.431981
 20
1129.076044
 42
0.005829
  0
VERTEX
  8
0
 10
309.878980
 20
1133.973141
 42
0.005911
  0
VERTEX
  8
0
 10
304.376002
 20
1138.601047
 42
0.009957
  0
VERTEX
  8
0
 10
299.638228
 20
1142.335337
 42
-0.014334
  0
VERTEX
  8
0
 10
298.240627
 20
1143.456889
 42
-0.005307
  0
VERTEX
  8
0
 10
296.335789
 20
1145.112568
 42
-0.005254
  0
VERTEX
  8
0
 10
294.294285
 20
1146.964166
 42
-0.006310
  0
VERTEX
  8
0
 10
292.414543
 20
1148.750000
 42
0.006681
  0
VERTEX
  8
0
 10
290.697757
 20
1150.378593
 42
0.009976
  0
VERTEX
  8
0
 10
289.150318
 20
1151.751563
 42
0.005418
  0
VERTEX
  8
0
 10
287.820751
 20
1152.859993
 42
0.172714
  0
VERTEX
  8
0
 10
287.427526
 20
1153.000000
 42
-0.170725
  0
VERTEX
  8
0
 10
287.059731
 20
1153.129354
 42
-0.010651
  0
VERTEX
  8
0
 10
286.162834
 20
1153.881250
 42
-0.014760
  0
VERTEX
  8
0
 10
285.119072
 20
1154.850693
 42
-0.010355
  0
VERTEX
  8
0
 10
284.000000
 20
1156.000000
 42
0.009735
  0
VERTEX
  8
0
 10
282.883648
 20
1157.149363
 42
0.014007
  0
VERTEX
  8
0
 10
281.848254
 20
1158.118750
 42
0.009710
  0
VERTEX
  8
0
 10
280.958911
 20
1158.875549
 42
0.173107
  0
VERTEX
  8
0
 10
280.610221
 20
1159.000000
 42
-0.162674
  0
VERTEX
  8
0
 10
279.823110
 20
1159.263045
 42
-0.010331
  0
VERTEX
  8
0
 10
277.882526
 20
1160.786964
 42
-0.012223
  0
VERTEX
  8
0
 10
275.359601
 20
1162.959060
 42
-0.005123
  0
VERTEX
  8
0
 10
272.065808
 20
1166.000000
 42
0.006368
  0
VERTEX
  8
0
 10
270.408415
 20
1167.522536
 42
0.004391
  0
VERTEX
  8
0
 10
268.494501
 20
1169.206250
 42
0.004427
  0
VERTEX
  8
0
 10
266.624864
 20
1170.793411
 42
0.009021
  0
VERTEX
  8
0
 10
265.123491
 20
1172.000000
 42
-0.005458
  0
VERTEX
  8
0
 10
262.464349
 20
1174.106030
 42
-0.006276
  0
VERTEX
  8
0
 10
259.974097
 20
1176.175223
 42
-0.004922
  0
VERTEX
  8
0
 10
257.091274
 20
1178.681843
 42
-0.001846
  0
VERTEX
  8
0
 10
253.098064
 20
1182.250000
 42
0.006064
  0
VERTEX
  8
0
 10
251.462299
 20
1183.687016
 42
0.009075
  0
VERTEX
  8
0
 10
249.996089
 20
1184.898438
 42
0.004705
  0
VERTEX
  8
0
 10
248.736960
 20
1185.881659
 42
0.164860
  0
VERTEX
  8
0
 10
248.387801
 20
1186.000000
 42
-0.179010
  0
VERTEX
  8
0
 10
248.048696
 20
1186.125426
 42
-0.005664
  0
VERTEX
  8
0
 10
246.924643
 20
1187.111029
 42
-0.010346
  0
VERTEX
  8
0
 10
245.618032
 20
1188.332872
 42
-0.006916
  0
VERTEX
  8
0
 10
244.171599
 20
1189.782227
 42
0.012732
  0
VERTEX
  8
0
 10
242.510679
 20
1191.408232
 42
0.008758
  0
VERTEX
  8
0
 10
240.550407
 20
1193.168867
 42
0.008835
  0
VERTEX
  8
0
 10
238.603049
 20
1194.797854
 42
0.017750
  0
VERTEX
  8
0
 10
237.000000
 20
1196.000000
 42
-0.016602
  0
VERTEX
  8
0
 10
235.408346
 20
1197.187901
 42
-0.008639
  0
VERTEX
  8
0
 10
233.500000
 20
1198.768154
 42
-0.008581
  0
VERTEX
  8
0
 10
231.594810
 20
1200.459689
 42
-0.012943
  0
VERTEX
  8
0
 10
230.000000
 20
1202.003376
 42
0.011961
  0
VERTEX
  8
0
 10
228.372992
 20
1203.584425
 42
0.007098
  0
VERTEX
  8
0
 10
226.362980
 20
1205.393948
 42
0.007101
  0
VERTEX
  8
0
 10
224.305757
 20
1207.142820
 42
0.012137
  0
VERTEX
  8
0
 10
222.533550
 20
1208.535603
 42
-0.007623
  0
VERTEX
  8
0
 10
219.480053
 20
1210.891085
 42
-0.007550
  0
VERTEX
  8
0
 10
216.489889
 20
1213.345962
 42
-0.007365
  0
VERTEX
  8
0
 10
213.505225
 20
1215.949157
 42
-0.006489
  0
VERTEX
  8
0
 10
210.468083
 20
1218.750000
 42
0.011149
  0
VERTEX
  8
0
 10
209.515855
 20
1219.611857
 42
0.015393
  0
VERTEX
  8
0
 10
208.621246
 20
1220.339062
 42
0.011946
  0
VERTEX
  8
0
 10
207.854696
 20
1220.895468
 42
0.152153
  0
VERTEX
  8
0
 10
207.519139
 20
1221.000000
 42
-0.178908
  0
VERTEX
  8
0
 10
207.155915
 20
1221.134265
 42
-0.004398
  0
VERTEX
  8
0
 10
205.793451
 20
1222.321875
 42
-0.008986
  0
VERTEX
  8
0
 10
204.213300
 20
1223.775469
 42
-0.005930
  0
VERTEX
  8
0
 10
202.447368
 20
1225.500000
 42
0.007888
  0
VERTEX
  8
0
 10
200.667859
 20
1227.224234
 42
0.011581
  0
VERTEX
  8
0
 10
199.045500
 20
1228.678125
 42
0.007065
  0
VERTEX
  8
0
 10
197.654038
 20
1229.834520
 42
0.171468
  0
VERTEX
  8
0
 10
197.185688
 20
1230.000000
 42
-0.165069
  0
VERTEX
  8
0
 10
196.705651
 20
1230.162917
 42
-0.005763
  0
VERTEX
  8
0
 10
195.136929
 20
1231.395313
 42
-0.010180
  0
VERTEX
  8
0
 10
193.306809
 20
1232.929894
 42
-0.006881
  0
VERTEX
  8
0
 10
191.280785
 20
1234.750000
 42
0.004358
  0
VERTEX
  8
0
 10
189.081332
 20
1236.746053
 42
0.003704
  0
VERTEX
  8
0
 10
186.725466
 20
1238.815778
 42
0.003734
  0
VERTEX
  8
0
 10
184.552318
 20
1240.668432
 42
0.010502
  0
VERTEX
  8
0
 10
182.995715
 20
1241.920732
 42
-0.013815
  0
VERTEX
  8
0
 10
181.452663
 20
1243.179061
 42
-0.004988
  0
VERTEX
  8
0
 10
179.328016
 20
1245.048972
 42
-0.004942
  0
VERTEX
  8
0
 10
177.040449
 20
1247.144334
 42
-0.005855
  0
VERTEX
  8
0
 10
174.921888
 20
1249.170732
 42
0.008127
  0
VERTEX
  8
0
 10
172.969709
 20
1251.021069
 42
0.011856
  0
VERTEX
  8
0
 10
171.185848
 20
1252.581403
 42
0.007439
  0
VERTEX
  8
0
 10
169.657453
 20
1253.817532
 42
0.167848
  0
VERTEX
  8
0
 10
169.129215
 20
1254.000000
 42
-0.166795
  0
VERTEX
  8
0
 10
168.591036
 20
1254.184669
 42
-0.006185
  0
VERTEX
  8
0
 10
166.889691
 20
1255.542187
 42
-0.010635
  0
VERTEX
  8
0
 10
164.904743
 20
1257.238338
 42
-0.007210
  0
VERTEX
  8
0
 10
162.713931
 20
1259.250000
 42
0.004353
  0
VERTEX
  8
0
 10
160.374851
 20
1261.422570
 42
0.004042
  0
VERTEX
  8
0
 10
157.940073
 20
1263.609042
 42
0.004032
  0
VERTEX
  8
0
 10
155.743045
 20
1265.518838
 42
0.013570
  0
VERTEX
  8
0
 10
154.262566
 20
1266.716951
 42
-0.009208
  0
VERTEX
  8
0
 10
152.942205
 20
1267.766559
 42
-0.004987
  0
VERTEX
  8
0
 10
151.355181
 20
1269.103394
 42
-0.004966
  0
VERTEX
  8
0
 10
149.766268
 20
1270.496822
 42
-0.007816
  0
VERTEX
  8
0
 10
148.432896
 20
1271.727845
 42
0.012660
  0
VERTEX
  8
0
 10
147.057532
 20
1272.973173
 42
0.007177
  0
VERTEX
  8
0
 10
145.333413
 20
1274.414060
 42
0.007161
  0
VERTEX
  8
0
 10
143.553057
 20
1275.817246
 42
0.011702
  0
VERTEX
  8
0
 10
142.000000
 20
1276.949000
 42
-0.028391
  0
VERTEX
  8
0
 10
140.123833
 20
1278.414474
 42
-0.005860
  0
VERTEX
  8
0
 10
137.002382
 20
1281.216904
 42
-0.006144
  0
VERTEX
  8
0
 10
133.450283
 20
1284.563401
 42
-0.005752
  0
VERTEX
  8
0
 10
129.901725
 20
1288.069608
 42
-0.016125
  0
VERTEX
  8
0
 10
124.290707
 20
1294.121062
 42
-0.026292
  0
VERTEX
  8
0
 10
119.983355
 20
1299.638694
 42
-0.031372
  0
VERTEX
  8
0
 10
116.960190
 20
1304.596972
 42
-0.061371
  0
VERTEX
  8
0
 10
115.323230
 20
1308.916742
 42
0.027720
  0
VERTEX
  8
0
 10
115.008112
 20
1309.953533
 42
0.029004
  0
VERTEX
  8
0
 10
114.584144
 20
1310.933067
 42
0.030284
  0
VERTEX
  8
0
 10
114.120527
 20
1311.729764
 42
0.101315
  0
VERTEX
  8
0
 10
113.693521
 20
1312.153271
 42
-0.250183
  0
VERTEX
  8
0
 10
112.517061
 20
1314.300886
 42
-0.008604
  0
VERTEX
  8
0
 10
112.579944
 20
1324.192042
 42
-0.015384
  0
VERTEX
  8
0
 10
113.104995
 20
1333.846735
 42
-0.064918
  0
VERTEX
  8
0
 10
114.338040
 20
1339.500000
 42
-0.039489
  0
VERTEX
  8
0
 10
116.372381
 20
1344.014903
 42
-0.013851
  0
VERTEX
  8
0
 10
119.971134
 20
1350.157319
 42
-0.006399
  0
VERTEX
  8
0
 10
123.882417
 20
1356.253080
 42
-0.250257
  0
VERTEX
  8
0
 10
125.250000
 20
1356.995019
 42
0.136935
  0
VERTEX
  8
0
 10
125.536022
 20
1357.076900
 42
0.099466
  0
VERTEX
  8
0
 10
125.779687
 20
1357.303569
 42
0.085669
  0
VERTEX
  8
0
 10
125.943739
 20
1357.641180
 42
0.070466
  0
VERTEX
  8
0
 10
126.000000
 20
1358.038406
 42
-0.180591
  0
VERTEX
  8
0
 10
126.247824
 20
1358.702178
 42
-0.003922
  0
VERTEX
  8
0
 10
128.570312
 20
1361.336852
 42
-0.008466
  0
VERTEX
  8
0
 10
131.396626
 20
1364.387282
 42
-0.005552
  0
VERTEX
  8
0
 10
134.750000
 20
1367.808972
 42
0.004051
  0
VERTEX
  8
0
 10
138.370085
 20
1371.480689
 42
0.003791
  0
VERTEX
  8
0
 10
142.011604
 20
1375.291894
 42
0.003776
  0
VERTEX
  8
0
 10
145.192586
 20
1378.723602
 42
0.012951
  0
VERTEX
  8
0
 10
147.183121
 20
1381.020566
 42
-0.007299
  0
VERTEX
  8
0
 10
149.017332
 20
1383.186120
 42
-0.002993
  0
VERTEX
  8
0
 10
151.566471
 20
1386.073102
 42
-0.002961
  0
VERTEX
  8
0
 10
154.340618
 20
1389.140509
 42
-0.003789
  0
VERTEX
  8
0
 10
156.933121
 20
1391.930421
 42
0.006284
  0
VERTEX
  8
0
 10
159.257984
 20
1394.457484
 42
0.009414
  0
VERTEX
  8
0
 10
161.217854
 20
1396.726838
 42
0.004931
  0
VERTEX
  8
0
 10
162.806805
 20
1398.677106
 42
0.170061
  0
VERTEX
  8
0
 10
163.000000
 20
1399.228695
 42
-0.179980
  0
VERTEX
  8
0
 10
163.204407
 20
1399.778161
 42
-0.004529
  0
VERTEX
  8
0
 10
164.991548
 20
1401.810248
 42
-0.009151
  0
VERTEX
  8
0
 10
167.181557
 20
1404.167146
 42
-0.006043
  0
VERTEX
  8
0
 10
169.779738
 20
1406.798274
 42
0.004848
  0
VERTEX
  8
0
 10
172.492146
 20
1409.531972
 42
0.005514
  0
VERTEX
  8
0
 10
175.035656
 20
1412.203987
 42
0.005032
  0
VERTEX
  8
0
 10
177.146312
 20
1414.517069
 42
0.030506
  0
VERTEX
  8
0
 10
178.151742
 20
1415.789766
 42
-0.024289
  0
VERTEX
  8
0
 10
179.119784
 20
1417.046935
 42
-0.004565
  0
VERTEX
  8
0
 10
181.020723
 20
1419.241224
 42
-0.004873
  0
VERTEX
  8
0
 10
183.292226
 20
1421.765370
 42
-0.004445
  0
VERTEX
  8
0
 10
185.682539
 20
1424.323993
 42
0.006026
  0
VERTEX
  8
0
 10
188.135029
 20
1426.965864
 42
0.005543
  0
VERTEX
  8
0
 10
190.593219
 20
1429.739916
 42
0.005544
  0
VERTEX
  8
0
 10
192.729996
 20
1432.261765
 42
0.018198
  0
VERTEX
  8
0
 10
194.060535
 20
1433.992359
 42
-0.021784
  0
VERTEX
  8
0
 10
195.422730
 20
1435.738085
 42
-0.006163
  0
VERTEX
  8
0
 10
197.692782
 20
1438.334149
 42
-0.006198
  0
VERTEX
  8
0
 10
200.332570
 20
1441.206549
 42
-0.006513
  0
VERTEX
  8
0
 10
203.000000
 20
1443.964883
 42
0.005532
  0
VERTEX
  8
0
 10
205.682852
 20
1446.728294
 42
0.005153
  0
VERTEX
  8
0
 10
208.368908
 20
1449.615988
 42
0.005141
  0
VERTEX
  8
0
 10
210.703096
 20
1452.231360
 42
0.017371
  0
VERTEX
  8
0
 10
212.149474
 20
1454.006752
 42
-0.015462
  0
VERTEX
  8
0
 10
213.573321
 20
1455.768172
 42
-0.004840
  0
VERTEX
  8
0
 10
215.812695
 20
1458.319286
 42
-0.004831
  0
VERTEX
  8
0
 10
218.369555
 20
1461.120875
 42
-0.005324
  0
VERTEX
  8
0
 10
220.899474
 20
1463.782308
 42
0.007064
  0
VERTEX
  8
0
 10
223.237101
 20
1466.258646
 42
0.010476
  0
VERTEX
  8
0
 10
225.207970
 20
1468.498911
 42
0.005945
  0
VERTEX
  8
0
 10
226.790483
 20
1470.421521
 42
0.170829
  0
VERTEX
  8
0
 10
227.000000
 20
1471.016861
 42
-0.192284
  0
VERTEX
  8
0
 10
227.840822
 20
1473.122430
 42
-0.001595
  0
VERTEX
  8
0
 10
240.314003
 20
1486.165903
 42
-0.001538
  0
VERTEX
  8
0
 10
252.893021
 20
1499.156089
 42
-0.202294
  0
VERTEX
  8
0
 10
254.893515
 20
1500.000000
 42
0.089174
  0
VERTEX
  8
0
 10
255.315968
 20
1500.075948
 42
0.095068
  0
VERTEX
  8
0
 10
255.674970
 20
1500.293750
 42
0.099882
  0
VERTEX
  8
0
 10
255.915150
 20
1500.618500
 42
0.109863
  0
VERTEX
  8
0
 10
256.000000
 20
1501.000000
 42
-0.140362
  0
VERTEX
  8
0
 10
256.109202
 20
1501.381338
 42
-0.099913
  0
VERTEX
  8
0
 10
256.416146
 20
1501.706250
 42
-0.085122
  0
VERTEX
  8
0
 10
256.875200
 20
1501.925077
 42
-0.068857
  0
VERTEX
  8
0
 10
257.416667
 20
1502.000000
 42
0.056705
  0
VERTEX
  8
0
 10
257.983231
 20
1502.064462
 42
0.058336
  0
VERTEX
  8
0
 10
258.515104
 20
1502.254474
 42
0.064612
  0
VERTEX
  8
0
 10
258.934832
 20
1502.534719
 42
0.122033
  0
VERTEX
  8
0
 10
259.166667
 20
1502.866294
 42
-0.208279
  0
VERTEX
  8
0
 10
260.197454
 20
1503.912438
 42
-0.009012
  0
VERTEX
  8
0
 10
265.118778
 20
1505.787808
 42
-0.015082
  0
VERTEX
  8
0
 10
270.039124
 20
1507.395984
 42
-0.062030
  0
VERTEX
  8
0
 10
273.127876
 20
1507.900264
 42
-0.044692
  0
VERTEX
  8
0
 10
274.384092
 20
1507.835650
 42
-0.019750
  0
VERTEX
  8
0
 10
276.020611
 20
1507.537501
 42
-0.019362
  0
VERTEX
  8
0
 10
277.741405
 20
1507.082641
 42
-0.024665
  0
SEQEND
  0
POLYLINE
  8
0
 66
1
 70
1
  0
VERTEX
  8
0
 10
122.433421
 20
1226.883538
 42
-0.007476
  0
VERTEX
  8
0
 10
124.826097
 20
1226.008455
 42
-0.009616
  0
VERTEX
  8
0
 10
126.997005
 20
1225.129247
 42
-0.007724
  0
VERTEX
  8
0
 10
128.780076
 20
1224.334080
 42
-0.078721
  0
VERTEX
  8
0
 10
129.450000
 20
1223.883538
 42
0.066499
  0
VERTEX
  8
0
 10
129.928089
 20
1223.544843
 42
0.036888
  0
VERTEX
  8
0
 10
130.584839
 20
1223.259539
 42
0.036059
  0
VERTEX
  8
0
 10
131.304916
 20
1223.064903
 42
0.048013
  0
VERTEX
  8
0
 10
131.979241
 20
1223.000000
 42
-0.099937
  0
VERTEX
  8
0
 10
132.688148
 20
1222.856879
 42
-0.046634
  0
VERTEX
  8
0
 10
133.518026
 20
1222.412500
 42
-0.043658
  0
VERTEX
  8
0
 10
134.331621
 20
1221.765161
 42
-0.046766
  0
VERTEX
  8
0
 10
135.000000
 20
1221.000000
 42
0.038332
  0
VERTEX
  8
0
 10
135.646083
 20
1220.234732
 42
0.039803
  0
VERTEX
  8
0
 10
136.393849
 20
1219.587500
 42
0.043072
  0
VERTEX
  8
0
 10
137.128761
 20
1219.139145
 42
0.115942
  0
VERTEX
  8
0
 10
137.720759
 20
1219.000000
 42
-0.076630
  0
VERTEX
  8
0
 10
138.209482
 20
1218.924656
 42
-0.089631
  0
VERTEX
  8
0
 10
138.624223
 20
1218.706250
 42
-0.100760
  0
VERTEX
  8
0
 10
138.901479
 20
1218.381366
 42
-0.127083
  0
VERTEX
  8
0
 10
139.000000
 20
1218.000000
 42
0.097271
  0
VERTEX
  8
0
 10
139.074959
 20
1217.618336
 42
0.097512
  0
VERTEX
  8
0
 10
139.288673
 20
1217.293750
 42
0.098350
  0
VERTEX
  8
0
 10
139.607699
 20
1217.076406
 42
0.100834
  0
VERTEX
  8
0
 10
139.982716
 20
1217.000000
 42
-0.158759
  0
VERTEX
  8
0
 10
141.011544
 20
1216.664883
 42
-0.015763
  0
VERTEX
  8
0
 10
143.086439
 20
1215.050213
 42
-0.010423
  0
VERTEX
  8
0
 10
146.391308
 20
1212.188419
 42
-0.001589
  0
VERTEX
  8
0
 10
152.842494
 20
1206.325117
 42
0.000911
  0
VERTEX
  8
0
 10
159.425161
 20
1200.325978
 42
0.005568
  0
VERTEX
  8
0
 10
162.864040
 20
1197.272554
 42
0.010804
  0
VERTEX
  8
0
 10
165.141153
 20
1195.380298
 42
0.021443
  0
VERTEX
  8
0
 10
167.038785
 20
1194.000000
 42
-0.025812
  0
VERTEX
  8
0
 10
168.190362
 20
1193.146890
 42
-0.007164
  0
VERTEX
  8
0
 10
169.905092
 20
1191.692188
 42
-0.007212
  0
VERTEX
  8
0
 10
171.801625
 20
1189.987108
 42
-0.007503
  0
VERTEX
  8
0
 10
173.623006
 20
1188.250000
 42
0.006741
  0
VERTEX
  8
0
 10
175.325403
 20
1186.621409
 42
0.010063
  0
VERTEX
  8
0
 10
176.860712
 20
1185.248437
 42
0.005487
  0
VERTEX
  8
0
 10
178.180014
 20
1184.140500
 42
0.173604
  0
VERTEX
  8
0
 10
178.572474
 20
1184.000000
 42
-0.165360
  0
VERTEX
  8
0
 10
178.937937
 20
1183.875737
 42
-0.011578
  0
VERTEX
  8
0
 10
179.792748
 20
1183.186374
 42
-0.015413
  0
VERTEX
  8
0
 10
180.787673
 20
1182.291259
 42
-0.010952
  0
VERTEX
  8
0
 10
181.848790
 20
1181.230211
 42
0.015689
  0
VERTEX
  8
0
 10
183.179310
 20
1179.924747
 42
0.006621
  0
VERTEX
  8
0
 10
185.043082
 20
1178.252537
 42
0.006543
  0
VERTEX
  8
0
 10
187.082975
 20
1176.517030
 42
0.008487
  0
VERTEX
  8
0
 10
189.000000
 20
1174.982941
 42
-0.003686
  0
VERTEX
  8
0
 10
190.884041
 20
1173.504693
 42
-0.003267
  0
VERTEX
  8
0
 10
192.823794
 20
1171.938668
 42
-0.003281
  0
VERTEX
  8
0
 10
194.551816
 20
1170.505797
 42
-0.010022
  0
VERTEX
  8
0
 10
195.698021
 20
1169.502730
 42
0.003547
  0
VERTEX
  8
0
 10
196.849787
 20
1168.468155
 42
0.001072
  0
VERTEX
  8
0
 10
198.613265
 20
1166.913302
 42
0.001074
  0
VERTEX
  8
0
 10
200.598162
 20
1165.178309
 42
0.001168
  0
VERTEX
  8
0
 10
202.535676
 20
1163.500000
 42
-0.003452
  0
VERTEX
  8
0
 10
204.558858
 20
1161.731245
 42
-0.002448
  0
VERTEX
  8
0
 10
206.805002
 20
1159.720312
 42
-0.002471
  0
VERTEX
  8
0
 10
208.931021
 20
1157.778905
 42
-0.005239
  0
VERTEX
  8
0
 10
210.554322
 20
1156.250000
 42
0.007194
  0
VERTEX
  8
0
 10
211.886940
 20
1155.004672
 42
0.010635
  0
VERTEX
  8
0
 10
213.094058
 20
1153.954688
 42
0.006139
  0
VERTEX
  8
0
 10
214.129354
 20
1153.113459
 42
0.169102
  0
VERTEX
  8
0
 10
214.455236
 20
1153.000000
 42
-0.166031
  0
VERTEX
  8
0
 10
215.212726
 20
1152.741336
 42
-0.008222
  0
VERTEX
  8
0
 10
217.299403
 20
1151.072604
 42
-0.009987
  0
VERTEX
  8
0
 10
220.122757
 20
1148.641031
 42
-0.003398
  0
VERTEX
  8
0
 10
224.128403
 20
1145.000000
 42
0.001795
  0
VERTEX
  8
0
 10
226.091855
 20
1143.203741
 42
0.002154
  0
VERTEX
  8
0
 10
227.952742
 20
1141.528125
 42
0.001845
  0
VERTEX
  8
0
 10
229.531820
 20
1140.128970
 42
0.014332
  0
VERTEX
  8
0
 10
230.289709
 20
1139.500000
 42
-0.010012
  0
VERTEX
  8
0
 10
233.996514
 20
1136.477423
 42
-0.003857
  0
VERTEX
  8
0
 10
239.023819
 20
1132.140506
 42
-0.001017
  0
VERTEX
  8
0
 10
244.275476
 20
1127.520001
 42
-0.108483
  0
VERTEX
  8
0
 10
244.833333
 20
1126.756631
 42
0.096754
  0
VERTEX
  8
0
 10
245.034691
 20
1126.467225
 42
0.063149
  0
VERTEX
  8
0
 10
245.361051
 20
1126.222260
 42
0.060359
  0
VERTEX
  8
0
 10
245.756408
 20
1126.056419
 42
0.069263
  0
VERTEX
  8
0
 10
246.161734
 20
1126.000000
 42
-0.157530
  0
VERTEX
  8
0
 10
246.731244
 20
1125.816004
 42
-0.014029
  0
VERTEX
  8
0
 10
247.943033
 20
1124.888971
 42
-0.017215
  0
VERTEX
  8
0
 10
249.349529
 20
1123.666476
 42
-0.012573
  0
VERTEX
  8
0
 10
250.828401
 20
1122.217773
 42
0.012556
  0
VERTEX
  8
0
 10
252.489304
 20
1120.590637
 42
0.008623
  0
VERTEX
  8
0
 10
254.449593
 20
1118.826526
 42
0.008698
  0
VERTEX
  8
0
 10
256.396926
 20
1117.192515
 42
0.017446
  0
VERTEX
  8
0
 10
258.000000
 20
1115.984315
 42
-0.013305
  0
VERTEX
  8
0
 10
259.561222
 20
1114.827805
 42
-0.007821
  0
VERTEX
  8
0
 10
261.368307
 20
1113.367024
 42
-0.007820
  0
VERTEX
  8
0
 10
263.130119
 20
1111.849319
 42
-0.013217
  0
VERTEX
  8
0
 10
264.551683
 20
1110.516542
 42
0.010246
  0
VERTEX
  8
0
 10
265.996556
 20
1109.145692
 42
0.005443
  0
VERTEX
  8
0
 10
267.838429
 20
1107.504859
 42
0.005415
  0
VERTEX
  8
0
 10
269.758298
 20
1105.867916
 42
0.008372
  0
VERTEX
  8
0
 10
271.455262
 20
1104.500000
 42
-0.006275
  0
VERTEX
  8
0
 10
273.098520
 20
1103.186708
 42
-0.004896
  0
VERTEX
  8
0
 10
274.851572
 20
1101.720312
 42
-0.004951
  0
VERTEX
  8
0
 10
276.457777
 20
1100.322078
 42
-0.012003
  0
VERTEX
  8
0
 10
277.608124
 20
1099.250000
 42
0.016538
  0
VERTEX
  8
0
 10
278.549553
 20
1098.388445
 42
0.021036
  0
VERTEX
  8
0
 10
279.475436
 20
1097.660938
 42
0.019563
  0
VERTEX
  8
0
 10
280.283389
 20
1097.126030
 42
0.137273
  0
VERTEX
  8
0
 10
280.733786
 20
1097.000000
 42
-0.149917
  0
VERTEX
  8
0
 10
281.143624
 20
1096.874292
 42
-0.031972
  0
VERTEX
  8
0
 10
281.739673
 20
1096.412500
 42
-0.030751
  0
VERTEX
  8
0
 10
282.387612
 20
1095.765646
 42
-0.025063
  0
VERTEX
  8
0
 10
283.000000
 20
1095.000000
 42
0.024357
  0
VERTEX
  8
0
 10
283.610640
 20
1094.234327
 42
0.030150
  0
VERTEX
  8
0
 10
284.253360
 20
1093.587500
 42
0.031146
  0
VERTEX
  8
0
 10
284.842481
 20
1093.124563
 42
0.152096
  0
VERTEX
  8
0
 10
285.242498
 20
1093.000000
 42
-0.175646
  0
VERTEX
  8
0
 10
285.743974
 20
1092.818227
 42
-0.005534
  0
VERTEX
  8
0
 10
287.423815
 20
1091.384375
 42
-0.010150
  0
VERTEX
  8
0
 10
289.377825
 20
1089.607598
 42
-0.006793
  0
VERTEX
  8
0
 10
291.543478
 20
1087.500000
 42
0.006034
  0
VERTEX
  8
0
 10
293.703924
 20
1085.391080
 42
0.009088
  0
VERTEX
  8
0
 10
295.641780
 20
1083.610648
 42
0.004589
  0
VERTEX
  8
0
 10
297.311249
 20
1082.158971
 42
0.172504
  0
VERTEX
  8
0
 10
297.771739
 20
1081.983057
 42
-0.158983
  0
VERTEX
  8
0
 10
298.225399
 20
1081.823301
 42
-0.006366
  0
VERTEX
  8
0
 10
299.617947
 20
1080.727630
 42
-0.010648
  0
VERTEX
  8
0
 10
301.243925
 20
1079.356217
 42
-0.007278
  0
VERTEX
  8
0
 10
303.034038
 20
1077.733057
 42
0.005400
  0
VERTEX
  8
0
 10
305.086638
 20
1075.857790
 42
0.003425
  0
VERTEX
  8
0
 10
307.516456
 20
1073.715335
 42
0.003440
  0
VERTEX
  8
0
 10
309.931241
 20
1071.644366
 42
0.006354
  0
VERTEX
  8
0
 10
311.926385
 20
1070.000000
 42
-0.008331
  0
VERTEX
  8
0
 10
313.907448
 20
1068.354043
 42
-0.004593
  0
VERTEX
  8
0
 10
316.276771
 20
1066.279688
 42
-0.004578
  0
VERTEX
  8
0
 10
318.641336
 20
1064.131621
 42
-0.007326
  0
VERTEX
  8
0
 10
320.616031
 20
1062.250000
 42
0.009430
  0
VERTEX
  8
0
 10
322.339240
 20
1060.621785
 42
0.013470
  0
VERTEX
  8
0
 10
323.932951
 20
1059.248437
 42
0.009349
  0
VERTEX
  8
0
 10
325.297680
 20
1058.176902
 42
0.163158
  0
VERTEX
  8
0
 10
325.825370
 20
1058.000000
 42
-0.140677
  0
VERTEX
  8
0
 10
326.322956
 20
1057.857176
 42
-0.015606
  0
VERTEX
  8
0
 10
327.315601
 20
1057.192188
 42
-0.018029
  0
VERTEX
  8
0
 10
328.466994
 20
1056.303170
 42
-0.013677
  0
VERTEX
  8
0
 10
329.665559
 20
1055.250000
 42
0.011331
  0
VERTEX
  8
0
 10
332.400750
 20
1052.823779
 42
0.010136
  0
VERTEX
  8
0
 10
335.345027
 20
1050.429795
 42
0.009189
  0
VERTEX
  8
0
 10
338.655030
 20
1047.944564
 42
0.006285
  0
VERTEX
  8
0
 10
342.500000
 20
1045.239562
 42
-0.018086
  0
VERTEX
  8
0
 10
344.371619
 20
1043.855688
 42
-0.008102
  0
VERTEX
  8
0
 10
346.734301
 20
1041.909434
 42
-0.008008
  0
VERTEX
  8
0
 10
349.168336
 20
1039.769126
 42
-0.010781
  0
VERTEX
  8
0
 10
351.297619
 20
1037.750000
 42
0.009238
  0
VERTEX
  8
0
 10
353.204893
 20
1035.930192
 42
0.013254
  0
VERTEX
  8
0
 10
354.965699
 20
1034.395313
 42
0.009054
  0
VERTEX
  8
0
 10
356.473933
 20
1033.194655
 42
0.165032
  0
VERTEX
  8
0
 10
357.047619
 20
1033.000000
 42
-0.100570
  0
VERTEX
  8
0
 10
357.411063
 20
1032.926150
 42
-0.098292
  0
VERTEX
  8
0
 10
357.720238
 20
1032.716042
 42
-0.097577
  0
VERTEX
  8
0
 10
357.927346
 20
1032.402272
 42
-0.097527
  0
VERTEX
  8
0
 10
358.000000
 20
1032.033333
 42
0.148542
  0
VERTEX
  8
0
 10
358.166180
 20
1031.486306
 42
0.015542
  0
VERTEX
  8
0
 10
358.954687
 20
1030.383996
 42
0.018186
  0
VERTEX
  8
0
 10
360.005284
 20
1029.106866
 42
0.013609
  0
VERTEX
  8
0
 10
361.250000
 20
1027.776014
 42
-0.016889
  0
VERTEX
  8
0
 10
362.598316
 20
1026.315306
 42
-0.013259
  0
VERTEX
  8
0
 10
363.962138
 20
1024.646328
 42
-0.013466
  0
VERTEX
  8
0
 10
365.148350
 20
1023.025102
 42
-0.031834
  0
VERTEX
  8
0
 10
365.918980
 20
1021.742681
 42
0.022270
  0
VERTEX
  8
0
 10
366.523119
 20
1020.692353
 42
0.030141
  0
VERTEX
  8
0
 10
367.165246
 20
1019.805662
 42
0.030593
  0
VERTEX
  8
0
 10
367.761836
 20
1019.162956
 42
0.192690
  0
VERTEX
  8
0
 10
368.168980
 20
1019.000000
 42
-0.158502
  0
VERTEX
  8
0
 10
368.485941
 20
1018.896933
 42
-0.097048
  0
VERTEX
  8
0
 10
368.755888
 20
1018.606307
 42
-0.078882
  0
VERTEX
  8
0
 10
368.938158
 20
1018.172295
 42
-0.060113
  0
VERTEX
  8
0
 10
369.000000
 20
1017.659769
 42
0.093971
  0
VERTEX
  8
0
 10
369.151827
 20
1016.859063
 42
0.010300
  0
VERTEX
  8
0
 10
369.875929
 20
1015.124111
 42
0.012300
  0
VERTEX
  8
0
 10
370.839991
 20
1013.079394
 42
0.009647
  0
VERTEX
  8
0
 10
371.981885
 20
1010.909769
 42
-0.012261
  0
VERTEX
  8
0
 10
373.124857
 20
1008.710275
 42
-0.014486
  0
VERTEX
  8
0
 10
374.093162
 20
1006.575057
 42
-0.013391
  0
VERTEX
  8
0
 10
374.805104
 20
1004.739524
 42
-0.083410
  0
VERTEX
  8
0
 10
374.981885
 20
1003.750000
 42
0.049446
  0
VERTEX
  8
0
 10
375.055279
 20
1003.080333
 42
0.068974
  0
VERTEX
  8
0
 10
375.259232
 20
1002.514063
 42
0.088615
  0
VERTEX
  8
0
 10
375.555340
 20
1002.132692
 42
0.185543
  0
VERTEX
  8
0
 10
375.900608
 20
1002.000000
 42
-0.331261
  0
VERTEX
  8
0
 10
376.554859
 20
1001.513117
 42
-0.010265
  0
VERTEX
  8
0
 10
377.505504
 20
998.087922
 42
-0.014589
  0
VERTEX
  8
0
 10
378.544751
 20
993.462816
 42
-0.006278
  0
VERTEX
  8
0
 10
379.672442
 20
987.240732
 42
0.021901
  0
VERTEX
  8
0
 10
379.947708
 20
985.952622
 42
0.026673
  0
VERTEX
  8
0
 10
380.321138
 20
984.777385
 42
0.026834
  0
VERTEX
  8
0
 10
380.732029
 20
983.843903
 42
0.138097
  0
VERTEX
  8
0
 10
381.110488
 20
983.431715
 42
-0.179669
  0
VERTEX
  8
0
 10
381.456392
 20
982.987563
 42
-0.027654
  0
VERTEX
  8
0
 10
381.738706
 20
981.885791
 42
-0.027918
  0
VERTEX
  8
0
 10
381.934963
 20
980.490349
 42
-0.020979
  0
VERTEX
  8
0
 10
382.000000
 20
978.940983
 42
0.023957
  0
VERTEX
  8
0
 10
382.072405
 20
977.430680
 42
0.038191
  0
VERTEX
  8
0
 10
382.293750
 20
976.157664
 42
0.044731
  0
VERTEX
  8
0
 10
382.613040
 20
975.248983
 42
0.293924
  0
VERTEX
  8
0
 10
383.000000
 20
975.000000
 42
-0.339565
  0
VERTEX
  8
0
 10
383.395008
 20
974.696775
 42
-0.024068
  0
VERTEX
  8
0
 10
383.708333
 20
973.250000
 42
-0.025878
  0
VERTEX
  8
0
 10
383.928566
 20
971.316313
 42
-0.015416
  0
VERTEX
  8
0
 10
384.000000
 20
969.000000
 42
-0.015416
  0
VERTEX
  8
0
 10
383.928566
 20
966.683687
 42
-0.025878
  0
VERTEX
  8
0
 10
383.708333
 20
964.750000
 42
-0.024068
  0
VERTEX
  8
0
 10
383.395008
 20
963.303225
 42
-0.339565
  0
VERTEX
  8
0
 10
383.000000
 20
963.000000
 42
0.293924
  0
VERTEX
  8
0
 10
382.613040
 20
962.751017
 42
0.044731
  0
VERTEX
  8
0
 10
382.293750
 20
961.842336
 42
0.038191
  0
VERTEX
  8
0
 10
382.072405
 20
960.569320
 42
0.023957
  0
VERTEX
  8
0
 10
382.000000
 20
959.059017
 42
-0.020979
  0
VERTEX
  8
0
 10
381.934963
 20
957.509651
 42
-0.027918
  0
VERTEX
  8
0
 10
381.738706
 20
956.114209
 42
-0.027654
  0
VERTEX
  8
0
 10
381.456392
 20
955.012437
 42
-0.179669
  0
VERTEX
  8
0
 10
381.110488
 20
954.568285
 42
0.138097
  0
VERTEX
  8
0
 10
380.732029
 20
954.156097
 42
0.026834
  0
VERTEX
  8
0
 10
380.321138
 20
953.222615
 42
0.026673
  0
VERTEX
  8
0
 10
379.947708
 20
952.047378
 42
0.021901
  0
VERTEX
  8
0
 10
379.672442
 20
950.759268
 42
-0.006278
  0
VERTEX
  8
0
 10
378.544751
 20
944.537184
 42
-0.014589
  0
VERTEX
  8
0
 10
377.505504
 20
939.912078
 42
-0.010265
  0
VERTEX
  8
0
 10
376.554859
 20
936.486883
 42
-0.331261
  0
VERTEX
  8
0
 10
375.900608
 20
936.000000
 42
0.185543
  0
VERTEX
  8
0
 10
375.555340
 20
935.867308
 42
0.088615
  0
VERTEX
  8
0
 10
375.259232
 20
935.485937
 42
0.068974
  0
VERTEX
  8
0
 10
375.055279
 20
934.919667
 42
0.049446
  0
VERTEX
  8
0
 10
374.981885
 20
934.250000
 42
-0.083410
  0
VERTEX
  8
0
 10
374.805104
 20
933.260476
 42
-0.013391
  0
VERTEX
  8
0
 10
374.093162
 20
931.424943
 42
-0.014486
  0
VERTEX
  8
0
 10
373.124857
 20
929.289725
 42
-0.012261
  0
VERTEX
  8
0
 10
371.981885
 20
927.090231
 42
0.009647
  0
VERTEX
  8
0
 10
370.839991
 20
924.920606
 42
0.012300
  0
VERTEX
  8
0
 10
369.875929
 20
922.875889
 42
0.010300
  0
VERTEX
  8
0
 10
369.151827
 20
921.140937
 42
0.093971
  0
VERTEX
  8
0
 10
369.000000
 20
920.340231
 42
-0.060113
  0
VERTEX
  8
0
 10
368.938158
 20
919.827705
 42
-0.078882
  0
VERTEX
  8
0
 10
368.755888
 20
919.393693
 42
-0.097048
  0
VERTEX
  8
0
 10
368.485941
 20
919.103067
 42
-0.158502
  0
VERTEX
  8
0
 10
368.168980
 20
919.000000
 42
0.192690
  0
VERTEX
  8
0
 10
367.761836
 20
918.837044
 42
0.030593
  0
VERTEX
  8
0
 10
367.165246
 20
918.194338
 42
0.030141
  0
VERTEX
  8
0
 10
366.523119
 20
917.307647
 42
0.022270
  0
VERTEX
  8
0
 10
365.918980
 20
916.257319
 42
-0.031834
  0
VERTEX
  8
0
 10
365.148350
 20
914.974898
 42
-0.013466
  0
VERTEX
  8
0
 10
363.962138
 20
913.353672
 42
-0.013259
  0
VERTEX
  8
0
 10
362.598316
 20
911.684694
 42
-0.016889
  0
VERTEX
  8
0
 10
361.250000
 20
910.223986
 42
0.013609
  0
VERTEX
  8
0
 10
360.005284
 20
908.893134
 42
0.018186
  0
VERTEX
  8
0
 10
358.954687
 20
907.616004
 42
0.015542
  0
VERTEX
  8
0
 10
358.166180
 20
906.513694
 42
0.148542
  0
VERTEX
  8
0
 10
358.000000
 20
905.966667
 42
-0.097527
  0
VERTEX
  8
0
 10
357.927346
 20
905.597728
 42
-0.097577
  0
VERTEX
  8
0
 10
357.720238
 20
905.283958
 42
-0.098292
  0
VERTEX
  8
0
 10
357.411063
 20
905.073850
 42
-0.100570
  0
VERTEX
  8
0
 10
357.047619
 20
905.000000
 42
0.165032
  0
VERTEX
  8
0
 10
356.473933
 20
904.805345
 42
0.009054
  0
VERTEX
  8
0
 10
354.965699
 20
903.604687
 42
0.013254
  0
VERTEX
  8
0
 10
353.204893
 20
902.069808
 42
0.009238
  0
VERTEX
  8
0
 10
351.297619
 20
900.250000
 42
-0.010781
  0
VERTEX
  8
0
 10
349.168336
 20
898.230874
 42
-0.008008
  0
VERTEX
  8
0
 10
346.734301
 20
896.090566
 42
-0.008102
  0
VERTEX
  8
0
 10
344.371619
 20
894.144312
 42
-0.018086
  0
VERTEX
  8
0
 10
342.500000
 20
892.760438
 42
0.006285
  0
VERTEX
  8
0
 10
338.655030
 20
890.055436
 42
0.009189
  0
VERTEX
  8
0
 10
335.345027
 20
887.570205
 42
0.010136
  0
VERTEX
  8
0
 10
332.400750
 20
885.176221
 42
0.011331
  0
VERTEX
  8
0
 10
329.665559
 20
882.750000
 42
-0.013677
  0
VERTEX
  8
0
 10
328.466994
 20
881.696830
 42
-0.018029
  0
VERTEX
  8
0
 10
327.315601
 20
880.807812
 42
-0.015606
  0
VERTEX
  8
0
 10
326.322956
 20
880.142824
 42
-0.140677
  0
VERTEX
  8
0
 10
325.825370
 20
880.000000
 42
0.163158
  0
VERTEX
  8
0
 10
325.297680
 20
879.823098
 42
0.009349
  0
VERTEX
  8
0
 10
323.932951
 20
878.751562
 42
0.013470
  0
VERTEX
  8
0
 10
322.339240
 20
877.378215
 42
0.009430
  0
VERTEX
  8
0
 10
320.616031
 20
875.750000
 42
-0.007326
  0
VERTEX
  8
0
 10
318.641336
 20
873.868379
 42
-0.004578
  0
VERTEX
  8
0
 10
316.276771
 20
871.720312
 42
-0.004593
  0
VERTEX
  8
0
 10
313.907448
 20
869.645957
 42
-0.008331
  0
VERTEX
  8
0
 10
311.926385
 20
868.000000
 42
0.006354
  0
VERTEX
  8
0
 10
309.931241
 20
866.355634
 42
0.003440
  0
VERTEX
  8
0
 10
307.516456
 20
864.284665
 42
0.003425
  0
VERTEX
  8
0
 10
305.086638
 20
862.142210
 42
0.005400
  0
VERTEX
  8
0
 10
303.034038
 20
860.266943
 42
-0.007278
  0
VERTEX
  8
0
 10
301.243925
 20
858.643783
 42
-0.010648
  0
VERTEX
  8
0
 10
299.617947
 20
857.272370
 42
-0.006366
  0
VERTEX
  8
0
 10
298.225399
 20
856.176699
 42
-0.158983
  0
VERTEX
  8
0
 10
297.771739
 20
856.016943
 42
0.172504
  0
VERTEX
  8
0
 10
297.311249
 20
855.841029
 42
0.004589
  0
VERTEX
  8
0
 10
295.641780
 20
854.389352
 42
0.009088
  0
VERTEX
  8
0
 10
293.703924
 20
852.608920
 42
0.006034
  0
VERTEX
  8
0
 10
291.543478
 20
850.500000
 42
-0.006793
  0
VERTEX
  8
0
 10
289.377825
 20
848.392402
 42
-0.010150
  0
VERTEX
  8
0
 10
287.423815
 20
846.615625
 42
-0.005534
  0
VERTEX
  8
0
 10
285.743974
 20
845.181773
 42
-0.175646
  0
VERTEX
  8
0
 10
285.242498
 20
845.000000
 42
0.152096
  0
VERTEX
  8
0
 10
284.842481
 20
844.875437
 42
0.031146
  0
VERTEX
  8
0
 10
284.253360
 20
844.412500
 42
0.030150
  0
VERTEX
  8
0
 10
283.610640
 20
843.765673
 42
0.024357
  0
VERTEX
  8
0
 10
283.000000
 20
843.000000
 42
-0.025063
  0
VERTEX
  8
0
 10
282.387612
 20
842.234354
 42
-0.030751
  0
VERTEX
  8
0
 10
281.739673
 20
841.587500
 42
-0.031972
  0
VERTEX
  8
0
 10
281.143624
 20
841.125708
 42
-0.149917
  0
VERTEX
  8
0
 10
280.733786
 20
841.000000
 42
0.137273
  0
VERTEX
  8
0
 10
280.283389
 20
840.873970
 42
0.019563
  0
VERTEX
  8
0
 10
279.475436
 20
840.339062
 42
0.021036
  0
VERTEX
  8
0
 10
278.549553
 20
839.611555
 42
0.016538
  0
VERTEX
  8
0
 10
277.608124
 20
838.750000
 42
-0.012003
  0
VERTEX
  8
0
 10
276.457777
 20
837.677922
 42
-0.004951
  0
VERTEX
  8
0
 10
274.851572
 20
836.279688
 42
-0.004896
  0
VERTEX
  8
0
 10
273.098520
 20
834.813292
 42
-0.006275
  0
VERTEX
  8
0
 10
271.455262
 20
833.500000
 42
0.008372
  0
VERTEX
  8
0
 10
269.758298
 20
832.132084
 42
0.005415
  0
VERTEX
  8
0
 10
267.838429
 20
830.495141
 42
0.005443
  0
VERTEX
  8
0
 10
265.996556
 20
828.854308
 42
0.010246
  0
VERTEX
  8
0
 10
264.551683
 20
827.483458
 42
-0.013217
  0
VERTEX
  8
0
 10
263.130119
 20
826.150681
 42
-0.007820
  0
VERTEX
  8
0
 10
261.368307
 20
824.632976
 42
-0.007821
  0
VERTEX
  8
0
 10
259.561222
 20
823.172195
 42
-0.013305
  0
VERTEX
  8
0
 10
258.000000
 20
822.015685
 42
0.017446
  0
VERTEX
  8
0
 10
256.396926
 20
820.807485
 42
0.008698
  0
VERTEX
  8
0
 10
254.449593
 20
819.173474
 42
0.008623
  0
VERTEX
  8
0
 10
252.489304
 20
817.409363
 42
0.012556
  0
VERTEX
  8
0
 10
250.828401
 20
815.782227
 42
-0.012573
  0
VERTEX
  8
0
 10
249.349529
 20
814.333524
 42
-0.017215
  0
VERTEX
  8
0
 10
247.943033
 20
813.111029
 42
-0.014029
  0
VERTEX
  8
0
 10
246.731244
 20
812.183996
 42
-0.157530
  0
VERTEX
  8
0
 10
246.161734
 20
812.000000
 42
0.069263
  0
VERTEX
  8
0
 10
245.756408
 20
811.943581
 42
0.060359
  0
VERTEX
  8
0
 10
245.361051
 20
811.777740
 42
0.063149
  0
VERTEX
  8
0
 10
245.034691
 20
811.532775
 42
0.096754
  0
VERTEX
  8
0
 10
244.833333
 20
811.243369
 42
-0.108483
  0
VERTEX
  8
0
 10
244.275476
 20
810.479999
 42
-0.001017
  0
VERTEX
  8
0
 10
239.023819
 20
805.859494
 42
-0.003857
  0
VERTEX
  8
0
 10
233.996514
 20
801.522577
 42
-0.010012
  0
VERTEX
  8
0
 10
230.289709
 20
798.500000
 42
0.014332
  0
VERTEX
  8
0
 10
229.531820
 20
797.871030
 42
0.001845
  0
VERTEX
  8
0
 10
227.952742
 20
796.471875
 42
0.002154
  0
VERTEX
  8
0
 10
226.091855
 20
794.796259
 42
0.001795
  0
VERTEX
  8
0
 10
224.128403
 20
793.000000
 42
-0.003398
  0
VERTEX
  8
0
 10
220.122757
 20
789.358969
 42
-0.009987
  0
VERTEX
  8
0
 10
217.299403
 20
786.927396
 42
-0.008222
  0
VERTEX
  8
0
 10
215.212726
 20
785.258664
 42
-0.166031
  0
VERTEX
  8
0
 10
214.455236
 20
785.000000
 42
0.169102
  0
VERTEX
  8
0
 10
214.129354
 20
784.886541
 42
0.006139
  0
VERTEX
  8
0
 10
213.094058
 20
784.045313
 42
0.010635
  0
VERTEX
  8
0
 10
211.886940
 20
782.995328
 42
0.007194
  0
VERTEX
  8
0
 10
210.554322
 20
781.750000
 42
-0.005239
  0
VERTEX
  8
0
 10
208.931021
 20
780.221095
 42
-0.002471
  0
VERTEX
  8
0
 10
206.805002
 20
778.279688
 42
-0.002448
  0
VERTEX
  8
0
 10
204.558858
 20
776.268755
 42
-0.003452
  0
VERTEX
  8
0
 10
202.535676
 20
774.500000
 42
0.001168
  0
VERTEX
  8
0
 10
200.598162
 20
772.821691
 42
0.001074
  0
VERTEX
  8
0
 10
198.613265
 20
771.086698
 42
0.001072
  0
VERTEX
  8
0
 10
196.849787
 20
769.531845
 42
0.003547
  0
VERTEX
  8
0
 10
195.698021
 20
768.497270
 42
-0.010022
  0
VERTEX
  8
0
 10
194.551816
 20
767.494203
 42
-0.003281
  0
VERTEX
  8
0
 10
192.823794
 20
766.061332
 42
-0.003267
  0
VERTEX
  8
0
 10
190.884041
 20
764.495307
 42
-0.003686
  0
VERTEX
  8
0
 10
189.000000
 20
763.017059
 42
0.008487
  0
VERTEX
  8
0
 10
187.082975
 20
761.482970
 42
0.006543
  0
VERTEX
  8
0
 10
185.043082
 20
759.747463
 42
0.006621
  0
VERTEX
  8
0
 10
183.179310
 20
758.075253
 42
0.015689
  0
VERTEX
  8
0
 10
181.848790
 20
756.769789
 42
-0.010952
  0
VERTEX
  8
0
 10
180.787673
 20
755.708741
 42
-0.015413
  0
VERTEX
  8
0
 10
179.792748
 20
754.813626
 42
-0.011578
  0
VERTEX
  8
0
 10
178.937937
 20
754.124263
 42
-0.165360
  0
VERTEX
  8
0
 10
178.572474
 20
754.000000
 42
0.173604
  0
VERTEX
  8
0
 10
178.180014
 20
753.859500
 42
0.005487
  0
VERTEX
  8
0
 10
176.860712
 20
752.751563
 42
0.010063
  0
VERTEX
  8
0
 10
175.325403
 20
751.378591
 42
0.006741
  0
VERTEX
  8
0
 10
173.623006
 20
749.750000
 42
-0.007503
  0
VERTEX
  8
0
 10
171.801625
 20
748.012892
 42
-0.007212
  0
VERTEX
  8
0
 10
169.905092
 20
746.307813
 42
-0.007164
  0
VERTEX
  8
0
 10
168.190362
 20
744.853110
 42
-0.025812
  0
VERTEX
  8
0
 10
167.038785
 20
744.000000
 42
0.021443
  0
VERTEX
  8
0
 10
165.141153
 20
742.619702
 42
0.010804
  0
VERTEX
  8
0
 10
162.864040
 20
740.727446
 42
0.005568
  0
VERTEX
  8
0
 10
159.425161
 20
737.674022
 42
0.000911
  0
VERTEX
  8
0
 10
152.842494
 20
731.674883
 42
-0.001589
  0
VERTEX
  8
0
 10
146.391308
 20
725.811581
 42
-0.010423
  0
VERTEX
  8
0
 10
143.086439
 20
722.949787
 42
-0.015763
  0
VERTEX
  8
0
 10
141.011544
 20
721.335117
 42
-0.158759
  0
VERTEX
  8
0
 10
139.982716
 20
721.000000
 42
0.100834
  0
VERTEX
  8
0
 10
139.607699
 20
720.923594
 42
0.098350
  0
VERTEX
  8
0
 10
139.288673
 20
720.706250
 42
0.097512
  0
VERTEX
  8
0
 10
139.074959
 20
720.381664
 42
0.097271
  0
VERTEX
  8
0
 10
139.000000
 20
720.000000
 42
-0.127083
  0
VERTEX
  8
0
 10
138.901479
 20
719.618634
 42
-0.100760
  0
VERTEX
  8
0
 10
138.624223
 20
719.293750
 42
-0.089631
  0
VERTEX
  8
0
 10
138.209482
 20
719.075344
 42
-0.076630
  0
VERTEX
  8
0
 10
137.720759
 20
719.000000
 42
0.115942
  0
VERTEX
  8
0
 10
137.128761
 20
718.860855
 42
0.043072
  0
VERTEX
  8
0
 10
136.393849
 20
718.412500
 42
0.039803
  0
VERTEX
  8
0
 10
135.646083
 20
717.765268
 42
0.038332
  0
VERTEX
  8
0
 10
135.000000
 20
717.000000
 42
-0.046766
  0
VERTEX
  8
0
 10
134.331621
 20
716.234839
 42
-0.043658
  0
VERTEX
  8
0
 10
133.518026
 20
715.587500
 42
-0.046634
  0
VERTEX
  8
0
 10
132.688148
 20
715.143121
 42
-0.099937
  0
VERTEX
  8
0
 10
131.979241
 20
715.000000
 42
0.048013
  0
VERTEX
  8
0
 10
131.304916
 20
714.935097
 42
0.036059
  0
VERTEX
  8
0
 10
130.584839
 20
714.740461
 42
0.036888
  0
VERTEX
  8
0
 10
129.928089
 20
714.455157
 42
0.066499
  0
VERTEX
  8
0
 10
129.450000
 20
714.116462
 42
-0.100062
  0
VERTEX
  8
0
 10
127.298862
 20
712.798457
 42
-0.011552
  0
VERTEX
  8
0
 10
121.907590
 20
710.969000
 42
-0.013647
  0
VERTEX
  8
0
 10
116.423020
 20
709.411174
 42
-0.062445
  0
VERTEX
  8
0
 10
113.143583
 20
709.000000
 42
-0.077538
  0
VERTEX
  8
0
 10
109.618248
 20
709.550000
 42
-0.047165
  0
VERTEX
  8
0
 10
105.731930
 20
711.210509
 42
-0.047619
  0
VERTEX
  8
0
 10
102.298412
 20
713.525487
 42
-0.091543
  0
VERTEX
  8
0
 10
100.167740
 20
716.055967
 42
0.017922
  0
VERTEX
  8
0
 10
99.474270
 20
717.179224
 42
0.024923
  0
VERTEX
  8
0
 10
98.769586
 20
718.128117
 42
0.023134
  0
VERTEX
  8
0
 10
98.133502
 20
718.831965
 42
0.197832
  0
VERTEX
  8
0
 10
97.750000
 20
718.993677
 42
-0.294034
  0
VERTEX
  8
0
 10
97.459621
 20
719.184082
 42
-0.043523
  0
VERTEX
  8
0
 10
97.220313
 20
719.879393
 42
-0.037549
  0
VERTEX
  8
0
 10
97.054304
 20
720.849853
 42
-0.023594
  0
VERTEX
  8
0
 10
97.000000
 20
722.000000
 42
0.031626
  0
VERTEX
  8
0
 10
96.927234
 20
723.149251
 42
0.048861
  0
VERTEX
  8
0
 10
96.706250
 20
724.118750
 42
0.062710
  0
VERTEX
  8
0
 10
96.384262
 20
724.790443
 42
0.254951
  0
VERTEX
  8
0
 10
96.000000
 20
725.000000
 42
-0.321151
  0
VERTEX
  8
0
 10
95.610332
 20
725.279067
 42
-0.032040
  0
VERTEX
  8
0
 10
95.293750
 20
726.451414
 42
-0.030878
  0
VERTEX
  8
0
 10
95.072213
 20
728.047067
 42
-0.019057
  0
VERTEX
  8
0
 10
95.000000
 20
729.940983
 42
0.018832
  0
VERTEX
  8
0
 10
94.927002
 20
731.878446
 42
0.025672
  0
VERTEX
  8
0
 10
94.706250
 20
733.612100
 42
0.024383
  0
VERTEX
  8
0
 10
94.389932
 20
734.983175
 42
0.187586
  0
VERTEX
  8
0
 10
94.000000
 20
735.500000
 42
-0.258746
  0
VERTEX
  8
0
 10
93.505880
 20
736.381638
 42
-0.000042
  0
VERTEX
  8
0
 10
93.251737
 20
794.587452
 42
-0.000790
  0
VERTEX
  8
0
 10
93.057650
 20
866.387611
 42
-0.000281
  0
VERTEX
  8
0
 10
93.000000
 20
969.000000
 42
-0.000281
  0
VERTEX
  8
0
 10
93.057650
 20
1071.612389
 42
-0.000790
  0
VERTEX
  8
0
 10
93.251737
 20
1143.412548
 42
-0.000042
  0
VERTEX
  8
0
 10
93.505880
 20
1201.618362
 42
-0.258746
  0
VERTEX
  8
0
 10
94.000000
 20
1202.500000
 42
0.187586
  0
VERTEX
  8
0
 10
94.389932
 20
1203.016825
 42
0.024383
  0
VERTEX
  8
0
 10
94.706250
 20
1204.387900
 42
0.025672
  0
VERTEX
  8
0
 10
94.927002
 20
1206.121554
 42
0.018832
  0
VERTEX
  8
0
 10
95.000000
 20
1208.059017
 42
-0.019057
  0
VERTEX
  8
0
 10
95.072213
 20
1209.952933
 42
-0.030878
  0
VERTEX
  8
0
 10
95.293750
 20
1211.548586
 42
-0.032040
  0
VERTEX
  8
0
 10
95.610332
 20
1212.720933
 42
-0.321151
  0
VERTEX
  8
0
 10
96.000000
 20
1213.000000
 42
0.254951
  0
VERTEX
  8
0
 10
96.384262
 20
1213.209557
 42
0.062710
  0
VERTEX
  8
0
 10
96.706250
 20
1213.881250
 42
0.048861
  0
VERTEX
  8
0
 10
96.927234
 20
1214.850749
 42
0.031626
  0
VERTEX
  8
0
 10
97.000000
 20
1216.000000
 42
-0.023594
  0
VERTEX
  8
0
 10
97.054304
 20
1217.150147
 42
-0.037549
  0
VERTEX
  8
0
 10
97.220313
 20
1218.120607
 42
-0.043523
  0
VERTEX
  8
0
 10
97.459621
 20
1218.815918
 42
-0.294034
  0
VERTEX
  8
0
 10
97.750000
 20
1219.006323
 42
0.197705
  0
VERTEX
  8
0
 10
98.133399
 20
1219.167881
 42
0.023188
  0
VERTEX
  8
0
 10
98.768678
 20
1219.870300
 42
0.024961
  0
VERTEX
  8
0
 10
99.472362
 20
1220.817453
 42
0.017955
  0
VERTEX
  8
0
 10
100.164648
 20
1221.938645
 42
-0.087615
  0
VERTEX
  8
0
 10
102.284302
 20
1224.496262
 42
-0.050412
  0
VERTEX
  8
0
 10
105.589395
 20
1226.773155
 42
-0.049651
  0
VERTEX
  8
0
 10
109.370475
 20
1228.386420
 42
-0.072927
  0
VERTEX
  8
0
 10
112.933421
 20
1228.955804
 42
-0.042469
  0
VERTEX
  8
0
 10
114.663213
 20
1228.831017
 42
-0.014468
  0
VERTEX
  8
0
 10
117.140332
 20
1228.365307
 42
-0.014266
  0
VERTEX
  8
0
 10
119.858927
 20
1227.690509
 42
-0.015962
  0
SEQEND
  0
POLYLINE
  8
0
 66
1
 70
1
  0
VERTEX
  8
0
 10
386.199045
 20
843.850960
 42
-0.058221
  0
VERTEX
  8
0
 10
389.100145
 20
840.163407
 42
-0.067767
  0
VERTEX
  8
0
 10
390.897073
 20
836.084478
 42
-0.058260
  0
VERTEX
  8
0
 10
391.704273
 20
831.183734
 42
-0.030202
  0
VERTEX
  8
0
 10
391.620224
 20
824.972069
 42
-0.003826
  0
VERTEX
  8
0
 10
390.899503
 20
816.155880
 42
-0.013202
  0
VERTEX
  8
0
 10
390.238137
 20
810.461353
 42
-0.011076
  0
VERTEX
  8
0
 10
389.593228
 20
806.568577
 42
-0.360634
  0
VERTEX
  8
0
 10
388.907450
 20
806.000000
 42
0.306245
  0
VERTEX
  8
0
 10
388.555283
 20
805.761978
 42
0.038964
  0
VERTEX
  8
0
 10
388.266564
 20
804.842336
 42
0.034885
  0
VERTEX
  8
0
 10
388.065620
 20
803.569467
 42
0.021712
  0
VERTEX
  8
0
 10
388.000000
 20
802.059017
 42
-0.023552
  0
VERTEX
  8
0
 10
387.926750
 20
800.504790
 42
-0.030444
  0
VERTEX
  8
0
 10
387.706250
 20
799.094150
 42
-0.031293
  0
VERTEX
  8
0
 10
387.387806
 20
797.980410
 42
-0.170670
  0
VERTEX
  8
0
 10
387.000000
 20
797.500000
 42
0.118720
  0
VERTEX
  8
0
 10
386.616123
 20
797.112645
 42
0.048633
  0
VERTEX
  8
0
 10
386.293750
 20
796.440768
 42
0.044498
  0
VERTEX
  8
0
 10
386.073997
 20
795.618791
 42
0.043101
  0
VERTEX
  8
0
 10
386.000000
 20
794.761981
 42
-0.031326
  0
VERTEX
  8
0
 10
385.935559
 20
793.734446
 42
-0.013108
  0
VERTEX
  8
0
 10
385.726155
 20
792.362636
 42
-0.012909
  0
VERTEX
  8
0
 10
385.424739
 20
790.902057
 42
-0.016350
  0
VERTEX
  8
0
 10
385.067761
 20
789.570998
 42
0.004277
  0
VERTEX
  8
0
 10
384.628620
 20
788.078565
 42
0.001839
  0
VERTEX
  8
0
 10
384.067082
 20
786.080231
 42
0.001819
  0
VERTEX
  8
0
 10
383.484604
 20
783.947593
 42
0.002403
  0
VERTEX
  8
0
 10
382.970297
 20
782.000000
 42
-0.008389
  0
VERTEX
  8
0
 10
382.457945
 20
780.149826
 42
-0.008307
  0
VERTEX
  8
0
 10
381.882236
 20
778.311798
 42
-0.008201
  0
VERTEX
  8
0
 10
381.325623
 20
776.720873
 42
-0.031605
  0
VERTEX
  8
0
 10
380.902536
 20
775.763569
 42
0.049321
  0
VERTEX
  8
0
 10
380.555756
 20
774.897285
 42
0.021948
  0
VERTEX
  8
0
 10
380.265120
 20
773.700937
 42
0.021472
  0
VERTEX
  8
0
 10
380.066134
 20
772.397490
 42
0.027145
  0
VERTEX
  8
0
 10
380.000000
 20
771.180236
 42
-0.024079
  0
VERTEX
  8
0
 10
379.944852
 20
770.035739
 42
-0.027395
  0
VERTEX
  8
0
 10
379.779688
 20
768.950792
 42
-0.028148
  0
VERTEX
  8
0
 10
379.540076
 20
768.057737
 42
-0.118142
  0
VERTEX
  8
0
 10
379.250000
 20
767.588417
 42
0.126961
  0
VERTEX
  8
0
 10
378.904262
 20
767.006672
 42
0.008306
  0
VERTEX
  8
0
 10
378.383317
 20
765.102493
 42
0.011636
  0
VERTEX
  8
0
 10
377.846852
 20
762.781686
 42
0.008402
  0
VERTEX
  8
0
 10
377.352780
 20
760.171750
 42
-0.009412
  0
VERTEX
  8
0
 10
376.178486
 20
754.036356
 42
-0.006332
  0
VERTEX
  8
0
 10
374.617348
 20
747.074639
 42
-0.005364
  0
VERTEX
  8
0
 10
373.030921
 20
740.702137
 42
-0.033141
  0
VERTEX
  8
0
 10
371.966299
 20
737.500000
 42
0.028401
  0
VERTEX
  8
0
 10
371.188602
 20
735.232816
 42
0.015047
  0
VERTEX
  8
0
 10
370.471827
 20
732.348400
 42
0.013405
  0
VERTEX
  8
0
 10
369.837136
 20
728.987818
 42
0.009981
  0
VERTEX
  8
0
 10
369.310793
 20
725.250000
 42
-0.019609
  0
VERTEX
  8
0
 10
369.049382
 20
723.621309
 42
-0.030583
  0
VERTEX
  8
0
 10
368.684894
 20
722.248438
 42
-0.031061
  0
VERTEX
  8
0
 10
368.278642
 20
721.239396
 42
-0.289162
  0
VERTEX
  8
0
 10
367.899306
 20
721.000000
 42
0.309132
  0
VERTEX
  8
0
 10
367.550042
 20
720.761247
 42
0.037616
  0
VERTEX
  8
0
 10
367.264171
 20
719.825000
 42
0.034110
  0
VERTEX
  8
0
 10
367.065013
 20
718.533102
 42
0.021194
  0
VERTEX
  8
0
 10
367.000000
 20
717.000000
 42
-0.023598
  0
VERTEX
  8
0
 10
366.927610
 20
715.467056
 42
-0.037669
  0
VERTEX
  8
0
 10
366.706250
 20
714.175000
 42
-0.043820
  0
VERTEX
  8
0
 10
366.387127
 20
713.251055
 42
-0.295869
  0
VERTEX
  8
0
 10
366.000000
 20
713.000000
 42
0.275259
  0
VERTEX
  8
0
 10
365.614478
 20
712.770364
 42
0.053437
  0
VERTEX
  8
0
 10
365.293750
 20
711.989211
 42
0.043243
  0
VERTEX
  8
0
 10
365.072564
 20
710.877484
 42
0.027497
  0
VERTEX
  8
0
 10
365.000000
 20
709.559017
 42
-0.026918
  0
VERTEX
  8
0
 10
364.926586
 20
708.196361
 42
-0.033489
  0
VERTEX
  8
0
 10
364.706250
 20
706.947275
 42
-0.035556
  0
VERTEX
  8
0
 10
364.386693
 20
705.958660
 42
-0.159713
  0
VERTEX
  8
0
 10
364.000000
 20
705.500000
 42
0.158284
  0
VERTEX
  8
0
 10
363.613440
 20
705.044084
 42
0.036095
  0
VERTEX
  8
0
 10
363.293750
 20
704.070061
 42
0.033884
  0
VERTEX
  8
0
 10
363.073436
 20
702.840047
 42
0.027380
  0
VERTEX
  8
0
 10
363.000000
 20
701.500000
 42
-0.027380
  0
VERTEX
  8
0
 10
362.926564
 20
700.159953
 42
-0.033884
  0
VERTEX
  8
0
 10
362.706250
 20
698.929939
 42
-0.036095
  0
VERTEX
  8
0
 10
362.386560
 20
697.955916
 42
-0.158284
  0
VERTEX
  8
0
 10
362.000000
 20
697.500000
 42
0.159713
  0
VERTEX
  8
0
 10
361.613307
 20
697.041340
 42
0.035556
  0
VERTEX
  8
0
 10
361.293750
 20
696.052725
 42
0.033489
  0
VERTEX
  8
0
 10
361.073414
 20
694.803639
 42
0.026918
  0
VERTEX
  8
0
 10
361.000000
 20
693.440983
 42
-0.027497
  0
VERTEX
  8
0
 10
360.927436
 20
692.122516
 42
-0.043243
  0
VERTEX
  8
0
 10
360.706250
 20
691.010789
 42
-0.053437
  0
VERTEX
  8
0
 10
360.385522
 20
690.229636
 42
-0.275259
  0
VERTEX
  8
0
 10
360.000000
 20
690.000000
 42
0.295869
  0
VERTEX
  8
0
 10
359.612873
 20
689.748945
 42
0.043820
  0
VERTEX
  8
0
 10
359.293750
 20
688.825000
 42
0.037669
  0
VERTEX
  8
0
 10
359.072390
 20
687.532944
 42
0.023598
  0
VERTEX
  8
0
 10
359.000000
 20
686.000000
 42
-0.023598
  0
VERTEX
  8
0
 10
358.927610
 20
684.467056
 42
-0.037669
  0
VERTEX
  8
0
 10
358.706250
 20
683.175000
 42
-0.043820
  0
VERTEX
  8
0
 10
358.387127
 20
682.251055
 42
-0.295869
  0
VERTEX
  8
0
 10
358.000000
 20
682.000000
 42
0.275259
  0
VERTEX
  8
0
 10
357.614478
 20
681.770364
 42
0.053437
  0
VERTEX
  8
0
 10
357.293750
 20
680.989211
 42
0.043243
  0
VERTEX
  8
0
 10
357.072564
 20
679.877484
 42
0.027497
  0
VERTEX
  8
0
 10
357.000000
 20
678.559017
 42
-0.026918
  0
VERTEX
  8
0
 10
356.926586
 20
677.196361
 42
-0.033489
  0
VERTEX
  8
0
 10
356.706250
 20
675.947275
 42
-0.035556
  0
VERTEX
  8
0
 10
356.386693
 20
674.958660
 42
-0.159713
  0
VERTEX
  8
0
 10
356.000000
 20
674.500000
 42
0.158284
  0
VERTEX
  8
0
 10
355.613440
 20
674.044084
 42
0.036095
  0
VERTEX
  8
0
 10
355.293750
 20
673.070061
 42
0.033884
  0
VERTEX
  8
0
 10
355.073436
 20
671.840047
 42
0.027380
  0
VERTEX
  8
0
 10
355.000000
 20
670.500000
 42
-0.027380
  0
VERTEX
  8
0
 10
354.926564
 20
669.159953
 42
-0.033884
  0
VERTEX
  8
0
 10
354.706250
 20
667.929939
 42
-0.036095
  0
VERTEX
  8
0
 10
354.386560
 20
666.955916
 42
-0.158284
  0
VERTEX
  8
0
 10
354.000000
 20
666.500000
 42
0.159713
  0
VERTEX
  8
0
 10
353.613307
 20
666.041340
 42
0.035556
  0
VERTEX
  8
0
 10
353.293750
 20
665.052725
 42
0.033489
  0
VERTEX
  8
0
 10
353.073414
 20
663.803639
 42
0.026918
  0
VERTEX
  8
0
 10
353.000000
 20
662.440983
 42
-0.027497
  0
VERTEX
  8
0
 10
352.927436
 20
661.122516
 42
-0.043243
  0
VERTEX
  8
0
 10
352.706250
 20
660.010789
 42
-0.053437
  0
VERTEX
  8
0
 10
352.385522
 20
659.229636
 42
-0.275259
  0
VERTEX
  8
0
 10
352.000000
 20
659.000000
 42
0.275259
  0
VERTEX
  8
0
 10
351.614478
 20
658.770364
 42
0.053437
  0
VERTEX
  8
0
 10
351.293750
 20
657.989211
 42
0.043243
  0
VERTEX
  8
0
 10
351.072564
 20
656.877484
 42
0.027497
  0
VERTEX
  8
0
 10
351.000000
 20
655.559017
 42
-0.026918
  0
VERTEX
  8
0
 10
350.926586
 20
654.196361
 42
-0.033489
  0
VERTEX
  8
0
 10
350.706250
 20
652.947275
 42
-0.035556
  0
VERTEX
  8
0
 10
350.386693
 20
651.958660
 42
-0.159713
  0
VERTEX
  8
0
 10
350.000000
 20
651.500000
 42
0.155594
  0
VERTEX
  8
0
 10
349.613681
 20
651.049187
 42
0.037097
  0
VERTEX
  8
0
 10
349.293750
 20
650.101683
 42
0.034627
  0
VERTEX
  8
0
 10
349.073476
 20
648.906458
 42
0.028263
  0
VERTEX
  8
0
 10
349.000000
 20
647.607650
 42
-0.021030
  0
VERTEX
  8
0
 10
348.944947
 20
646.299331
 42
-0.025076
  0
VERTEX
  8
0
 10
348.779688
 20
645.075763
 42
-0.025060
  0
VERTEX
  8
0
 10
348.540860
 20
644.076050
 42
-0.126382
  0
VERTEX
  8
0
 10
348.250000
 20
643.586438
 42
0.114444
  0
VERTEX
  8
0
 10
347.899158
 20
643.026308
 42
0.009650
  0
VERTEX
  8
0
 10
347.371824
 20
641.393448
 42
0.012420
  0
VERTEX
  8
0
 10
346.822752
 20
639.395825
 42
0.009284
  0
VERTEX
  8
0
 10
346.313657
 20
637.169771
 42
-0.003520
  0
VERTEX
  8
0
 10
345.077272
 20
631.461626
 42
-0.005878
  0
VERTEX
  8
0
 10
343.946720
 20
626.678493
 42
-0.005754
  0
VERTEX
  8
0
 10
342.686891
 20
621.852817
 42
-0.003202
  0
VERTEX
  8
0
 10
341.046384
 20
616.000000
 42
0.006923
  0
VERTEX
  8
0
 10
340.179228
 20
612.815260
 42
0.005976
  0
VERTEX
  8
0
 10
339.355034
 20
609.447943
 42
0.006024
  0
VERTEX
  8
0
 10
338.680979
 20
606.376646
 42
0.017342
  0
VERTEX
  8
0
 10
338.313502
 20
604.227041
 42
-0.016934
  0
VERTEX
  8
0
 10
338.028474
 20
602.551492
 42
-0.022442
  0
VERTEX
  8
0
 10
337.649950
 20
601.051796
 42
-0.020645
  0
VERTEX
  8
0
 10
337.237639
 20
599.861264
 42
-0.162031
  0
VERTEX
  8
0
 10
336.867360
 20
599.418024
 42
0.158498
  0
VERTEX
  8
0
 10
336.532056
 20
599.022225
 42
0.036015
  0
VERTEX
  8
0
 10
336.254787
 20
598.175519
 42
0.033825
  0
VERTEX
  8
0
 10
336.063693
 20
597.106198
 42
0.027310
  0
VERTEX
  8
0
 10
336.000000
 20
595.940983
 42
-0.032276
  0
VERTEX
  8
0
 10
335.927200
 20
594.814380
 42
-0.049716
  0
VERTEX
  8
0
 10
335.706250
 20
593.863914
 42
-0.064068
  0
VERTEX
  8
0
 10
335.384097
 20
593.206632
 42
-0.251914
  0
VERTEX
  8
0
 10
335.000000
 20
593.000000
 42
0.295869
  0
VERTEX
  8
0
 10
334.612873
 20
592.748945
 42
0.043820
  0
VERTEX
  8
0
 10
334.293750
 20
591.825000
 42
0.037669
  0
VERTEX
  8
0
 10
334.072390
 20
590.532944
 42
0.023598
  0
VERTEX
  8
0
 10
334.000000
 20
589.000000
 42
-0.023598
  0
VERTEX
  8
0
 10
333.927610
 20
587.467056
 42
-0.037669
  0
VERTEX
  8
0
 10
333.706250
 20
586.175000
 42
-0.043820
  0
VERTEX
  8
0
 10
333.387127
 20
585.251055
 42
-0.295869
  0
VERTEX
  8
0
 10
333.000000
 20
585.000000
 42
0.275259
  0
VERTEX
  8
0
 10
332.614478
 20
584.770364
 42
0.053437
  0
VERTEX
  8
0
 10
332.293750
 20
583.989211
 42
0.043243
  0
VERTEX
  8
0
 10
332.072564
 20
582.877484
 42
0.027497
  0
VERTEX
  8
0
 10
332.000000
 20
581.559017
 42
-0.026918
  0
VERTEX
  8
0
 10
331.926586
 20
580.196361
 42
-0.033489
  0
VERTEX
  8
0
 10
331.706250
 20
578.947275
 42
-0.035556
  0
VERTEX
  8
0
 10
331.386693
 20
577.958660
 42
-0.159713
  0
VERTEX
  8
0
 10
331.000000
 20
577.500000
 42
0.159713
  0
VERTEX
  8
0
 10
330.613307
 20
577.041340
 42
0.035556
  0
VERTEX
  8
0
 10
330.293750
 20
576.052725
 42
0.033489
  0
VERTEX
  8
0
 10
330.073414
 20
574.803639
 42
0.026918
  0
VERTEX
  8
0
 10
330.000000
 20
573.440983
 42
-0.027497
  0
VERTEX
  8
0
 10
329.927436
 20
572.122516
 42
-0.043243
  0
VERTEX
  8
0
 10
329.706250
 20
571.010789
 42
-0.053437
  0
VERTEX
  8
0
 10
329.385522
 20
570.229636
 42
-0.275259
  0
VERTEX
  8
0
 10
329.000000
 20
570.000000
 42
0.295869
  0
VERTEX
  8
0
 10
328.612873
 20
569.748945
 42
0.043820
  0
VERTEX
  8
0
 10
328.293750
 20
568.825000
 42
0.037669
  0
VERTEX
  8
0
 10
328.072390
 20
567.532944
 42
0.023598
  0
VERTEX
  8
0
 10
328.000000
 20
566.000000
 42
-0.023598
  0
VERTEX
  8
0
 10
327.927610
 20
564.467056
 42
-0.037669
  0
VERTEX
  8
0
 10
327.706250
 20
563.175000
 42
-0.043820
  0
VERTEX
  8
0
 10
327.387127
 20
562.251055
 42
-0.295869
  0
VERTEX
  8
0
 10
327.000000
 20
562.000000
 42
0.277684
  0
VERTEX
  8
0
 10
326.614308
 20
561.767902
 42
0.052312
  0
VERTEX
  8
0
 10
326.293750
 20
560.971875
 42
0.042582
  0
VERTEX
  8
0
 10
326.072542
 20
559.841111
 42
0.027026
  0
VERTEX
  8
0
 10
326.000000
 20
558.500000
 42
-0.027026
  0
VERTEX
  8
0
 10
325.927458
 20
557.158889
 42
-0.042582
  0
VERTEX
  8
0
 10
325.706250
 20
556.028125
 42
-0.052312
  0
VERTEX
  8
0
 10
325.385692
 20
555.232098
 42
-0.277684
  0
VERTEX
  8
0
 10
325.000000
 20
555.000000
 42
0.277684
  0
VERTEX
  8
0
 10
324.614308
 20
554.767902
 42
0.052312
  0
VERTEX
  8
0
 10
324.293750
 20
553.971875
 42
0.042582
  0
VERTEX
  8
0
 10
324.072542
 20
552.841111
 42
0.027026
  0
VERTEX
  8
0
 10
324.000000
 20
551.500000
 42
-0.024144
  0
VERTEX
  8
0
 10
323.935193
 20
550.158706
 42
-0.038464
  0
VERTEX
  8
0
 10
323.737104
 20
549.028125
 42
-0.045206
  0
VERTEX
  8
0
 10
323.451274
 20
548.221868
 42
-0.292909
  0
VERTEX
  8
0
 10
323.105035
 20
548.000000
 42
0.272607
  0
VERTEX
  8
0
 10
322.726236
 20
547.776893
 42
0.036163
  0
VERTEX
  8
0
 10
322.319158
 20
546.898438
 42
0.033726
  0
VERTEX
  8
0
 10
321.952035
 20
545.686872
 42
0.022019
  0
VERTEX
  8
0
 10
321.686466
 20
544.250000
 42
-0.010316
  0
VERTEX
  8
0
 10
321.403999
 20
542.492533
 42
-0.005146
  0
VERTEX
  8
0
 10
320.977775
 20
540.279688
 42
-0.005106
  0
VERTEX
  8
0
 10
320.489222
 20
537.996344
 42
-0.007493
  0
VERTEX
  8
0
 10
320.009175
 20
536.000000
 42
0.005180
  0
VERTEX
  8
0
 10
319.528119
 20
534.039415
 42
0.003861
  0
VERTEX
  8
0
 10
319.036596
 20
531.867188
 42
0.003903
  0
VERTEX
  8
0
 10
318.604999
 20
529.812051
 42
0.008850
  0
VERTEX
  8
0
 10
318.318338
 20
528.250000
 42
-0.025103
  0
VERTEX
  8
0
 10
318.047768
 20
527.004960
 42
-0.037452
  0
VERTEX
  8
0
 10
317.677364
 20
525.954687
 42
-0.042116
  0
VERTEX
  8
0
 10
317.269079
 20
525.203953
 42
-0.252284
  0
VERTEX
  8
0
 10
316.890594
 20
525.000000
 42
0.287015
  0
VERTEX
  8
0
 10
316.546475
 20
524.784732
 42
0.047964
  0
VERTEX
  8
0
 10
316.261612
 20
524.020833
 42
0.040052
  0
VERTEX
  8
0
 10
316.064533
 20
522.944025
 42
0.025244
  0
VERTEX
  8
0
 10
316.000000
 20
521.666667
 42
-0.020669
  0
VERTEX
  8
0
 10
315.944959
 20
520.335745
 42
-0.024785
  0
VERTEX
  8
0
 10
315.779688
 20
519.093100
 42
-0.024663
  0
VERTEX
  8
0
 10
315.540967
 20
518.078579
 42
-0.127448
  0
VERTEX
  8
0
 10
315.250000
 20
517.586438
 42
0.115855
  0
VERTEX
  8
0
 10
314.901121
 20
517.025980
 42
0.009793
  0
VERTEX
  8
0
 10
314.384424
 20
515.393448
 42
0.012583
  0
VERTEX
  8
0
 10
313.849215
 20
513.395826
 42
0.009401
  0
VERTEX
  8
0
 10
313.356548
 20
511.169771
 42
-0.009350
  0
VERTEX
  8
0
 10
312.685848
 20
508.137817
 42
-0.002415
  0
VERTEX
  8
0
 10
311.489562
 20
503.275339
 42
-0.002456
  0
VERTEX
  8
0
 10
310.071153
 20
497.742908
 42
-0.002500
  0
VERTEX
  8
0
 10
308.606548
 20
492.256916
 42
0.005285
  0
VERTEX
  8
0
 10
307.225500
 20
486.965807
 42
0.006586
  0
VERTEX
  8
0
 10
306.059424
 20
482.020706
 42
0.005434
  0
VERTEX
  8
0
 10
305.182356
 20
477.855411
 42
0.049206
  0
VERTEX
  8
0
 10
305.000000
 20
476.006916
 42
-0.031552
  0
VERTEX
  8
0
 10
304.927237
 20
474.855010
 42
-0.048762
  0
VERTEX
  8
0
 10
304.706250
 20
473.883282
 42
-0.062553
  0
VERTEX
  8
0
 10
304.384281
 20
473.209896
 42
-0.255302
  0
VERTEX
  8
0
 10
304.000000
 20
473.000000
 42
0.204612
  0
VERTEX
  8
0
 10
303.617786
 20
472.836754
 42
0.083503
  0
VERTEX
  8
0
 10
303.293750
 20
472.359918
 42
0.063734
  0
VERTEX
  8
0
 10
303.073451
 20
471.655135
 42
0.043943
  0
VERTEX
  8
0
 10
303.000000
 20
470.820998
 42
-0.062296
  0
VERTEX
  8
0
 10
302.650585
 20
468.027403
 42
-0.014905
  0
VERTEX
  8
0
 10
301.361534
 20
463.522022
 42
-0.015975
  0
VERTEX
  8
0
 10
299.673435
 20
458.756251
 42
-0.024559
  0
VERTEX
  8
0
 10
297.883329
 20
454.763569
 42
0.029643
  0
VERTEX
  8
0
 10
297.545035
 20
453.988017
 42
0.021669
  0
VERTEX
  8
0
 10
297.259478
 20
453.092603
 42
0.022025
  0
VERTEX
  8
0
 10
297.062574
 20
452.217578
 42
0.044353
  0
VERTEX
  8
0
 10
297.000000
 20
451.513569
 42
-0.064244
  0
VERTEX
  8
0
 10
296.925341
 20
450.934903
 42
-0.081991
  0
VERTEX
  8
0
 10
296.706250
 20
450.444611
 42
-0.098698
  0
VERTEX
  8
0
 10
296.381359
 20
450.116595
 42
-0.149454
  0
VERTEX
  8
0
 10
296.000000
 20
450.000000
 42
0.191087
  0
VERTEX
  8
0
 10
295.618118
 20
449.848523
 42
0.088204
  0
VERTEX
  8
0
 10
295.293750
 20
449.412500
 42
0.068025
  0
VERTEX
  8
0
 10
295.073693
 20
448.765418
 42
0.048028
  0
VERTEX
  8
0
 10
295.000000
 20
448.000000
 42
-0.048028
  0
VERTEX
  8
0
 10
294.926307
 20
447.234582
 42
-0.068025
  0
VERTEX
  8
0
 10
294.706250
 20
446.587500
 42
-0.088204
  0
VERTEX
  8
0
 10
294.381882
 20
446.151477
 42
-0.191087
  0
VERTEX
  8
0
 10
294.000000
 20
446.000000
 42
0.154173
  0
VERTEX
  8
0
 10
293.618618
 20
445.879539
 42
0.097889
  0
VERTEX
  8
0
 10
293.293750
 20
445.540304
 42
0.080367
  0
VERTEX
  8
0
 10
293.074530
 20
445.033457
 42
0.062037
  0
VERTEX
  8
0
 10
293.000000
 20
444.435076
 42
-0.149781
  0
VERTEX
  8
0
 10
292.732535
 20
443.562252
 42
-0.017002
  0
VERTEX
  8
0
 10
291.504049
 20
441.872747
 42
-0.019361
  0
VERTEX
  8
0
 10
289.857734
 20
439.923788
 42
-0.014606
  0
VERTEX
  8
0
 10
287.907401
 20
437.909806
 42
-0.027570
  0
VERTEX
  8
0
 10
284.109369
 20
434.598002
 42
-0.038071
  0
VERTEX
  8
0
 10
280.341847
 20
432.097838
 42
-0.043973
  0
VERTEX
  8
0
 10
276.815936
 20
430.515278
 42
-0.083694
  0
VERTEX
  8
0
 10
273.759147
 20
430.000000
 42
-0.073135
  0
VERTEX
  8
0
 10
270.847743
 20
430.428140
 42
-0.011531
  0
VERTEX
  8
0
 10
265.330979
 20
432.226261
 42
-0.005500
  0
VERTEX
  8
0
 10
259.609501
 20
434.309192
 42
-0.312257
  0
VERTEX
  8
0
 10
259.000000
 20
435.189990
 42
0.179152
  0
VERTEX
  8
0
 10
258.885558
 20
435.499136
 42
0.091900
  0
VERTEX
  8
0
 10
258.559375
 20
435.762060
 42
0.071923
  0
VERTEX
  8
0
 10
258.073918
 20
435.940113
 42
0.052032
  0
VERTEX
  8
0
 10
257.500000
 20
436.000000
 42
-0.064853
  0
VERTEX
  8
0
 10
256.926543
 20
436.074694
 42
-0.082425
  0
VERTEX
  8
0
 10
256.440625
 20
436.293750
 42
-0.098894
  0
VERTEX
  8
0
 10
256.115568
 20
436.618646
 42
-0.148195
  0
VERTEX
  8
0
 10
256.000000
 20
437.000000
 42
0.109863
  0
VERTEX
  8
0
 10
255.915150
 20
437.381500
 42
0.099882
  0
VERTEX
  8
0
 10
255.674970
 20
437.706250
 42
0.095068
  0
VERTEX
  8
0
 10
255.315968
 20
437.924052
 42
0.089174
  0
VERTEX
  8
0
 10
254.893515
 20
438.000000
 42
-0.202294
  0
VERTEX
  8
0
 10
252.893021
 20
438.843911
 42
-0.001538
  0
VERTEX
  8
0
 10
240.314003
 20
451.834097
 42
-0.001595
  0
VERTEX
  8
0
 10
227.840822
 20
464.877570
 42
-0.192284
  0
VERTEX
  8
0
 10
227.000000
 20
466.983139
 42
0.170829
  0
VERTEX
  8
0
 10
226.790483
 20
467.578479
 42
0.005945
  0
VERTEX
  8
0
 10
225.207970
 20
469.501089
 42
0.010476
  0
VERTEX
  8
0
 10
223.237101
 20
471.741354
 42
0.007064
  0
VERTEX
  8
0
 10
220.899474
 20
474.217692
 42
-0.005324
  0
VERTEX
  8
0
 10
218.369555
 20
476.879125
 42
-0.004831
  0
VERTEX
  8
0
 10
215.812695
 20
479.680714
 42
-0.004840
  0
VERTEX
  8
0
 10
213.573321
 20
482.231828
 42
-0.015462
  0
VERTEX
  8
0
 10
212.149474
 20
483.993248
 42
0.017371
  0
VERTEX
  8
0
 10
210.703096
 20
485.768640
 42
0.005141
  0
VERTEX
  8
0
 10
208.368908
 20
488.384012
 42
0.005153
  0
VERTEX
  8
0
 10
205.682852
 20
491.271706
 42
0.005532
  0
VERTEX
  8
0
 10
203.000000
 20
494.035117
 42
-0.006513
  0
VERTEX
  8
0
 10
200.332570
 20
496.793451
 42
-0.006198
  0
VERTEX
  8
0
 10
197.692782
 20
499.665851
 42
-0.006163
  0
VERTEX
  8
0
 10
195.422730
 20
502.261915
 42
-0.021784
  0
VERTEX
  8
0
 10
194.060535
 20
504.007641
 42
0.018198
  0
VERTEX
  8
0
 10
192.729996
 20
505.738235
 42
0.005544
  0
VERTEX
  8
0
 10
190.593219
 20
508.260084
 42
0.005543
  0
VERTEX
  8
0
 10
188.135029
 20
511.034136
 42
0.006026
  0
VERTEX
  8
0
 10
185.682539
 20
513.676007
 42
-0.004445
  0
VERTEX
  8
0
 10
183.292226
 20
516.234630
 42
-0.004873
  0
VERTEX
  8
0
 10
181.020723
 20
518.758776
 42
-0.004565
  0
VERTEX
  8
0
 10
179.119784
 20
520.953065
 42
-0.024289
  0
VERTEX
  8
0
 10
178.151742
 20
522.210234
 42
0.030506
  0
VERTEX
  8
0
 10
177.146312
 20
523.482931
 42
0.005032
  0
VERTEX
  8
0
 10
175.035656
 20
525.796013
 42
0.005514
  0
VERTEX
  8
0
 10
172.492146
 20
528.468028
 42
0.004848
  0
VERTEX
  8
0
 10
169.779738
 20
531.201726
 42
-0.006043
  0
VERTEX
  8
0
 10
167.181557
 20
533.832854
 42
-0.009151
  0
VERTEX
  8
0
 10
164.991548
 20
536.189752
 42
-0.004529
  0
VERTEX
  8
0
 10
163.204407
 20
538.221839
 42
-0.179980
  0
VERTEX
  8
0
 10
163.000000
 20
538.771305
 42
0.170061
  0
VERTEX
  8
0
 10
162.806805
 20
539.322894
 42
0.004931
  0
VERTEX
  8
0
 10
161.217854
 20
541.273162
 42
0.009414
  0
VERTEX
  8
0
 10
159.257984
 20
543.542516
 42
0.006284
  0
VERTEX
  8
0
 10
156.933121
 20
546.069579
 42
-0.003789
  0
VERTEX
  8
0
 10
154.340618
 20
548.859491
 42
-0.002961
  0
VERTEX
  8
0
 10
151.566471
 20
551.926898
 42
-0.002993
  0
VERTEX
  8
0
 10
149.017332
 20
554.813880
 42
-0.007299
  0
VERTEX
  8
0
 10
147.183121
 20
556.979434
 42
0.012951
  0
VERTEX
  8
0
 10
145.192586
 20
559.276398
 42
0.003776
  0
VERTEX
  8
0
 10
142.011604
 20
562.708106
 42
0.003791
  0
VERTEX
  8
0
 10
138.370085
 20
566.519311
 42
0.004051
  0
VERTEX
  8
0
 10
134.750000
 20
570.191028
 42
-0.005552
  0
VERTEX
  8
0
 10
131.396626
 20
573.612718
 42
-0.008466
  0
VERTEX
  8
0
 10
128.570313
 20
576.663148
 42
-0.003922
  0
VERTEX
  8
0
 10
126.247824
 20
579.297822
 42
-0.180591
  0
VERTEX
  8
0
 10
126.000000
 20
579.961594
 42
0.070466
  0
VERTEX
  8
0
 10
125.943739
 20
580.358820
 42
0.085669
  0
VERTEX
  8
0
 10
125.779687
 20
580.696431
 42
0.099466
  0
VERTEX
  8
0
 10
125.536022
 20
580.923100
 42
0.136935
  0
VERTEX
  8
0
 10
125.250000
 20
581.004981
 42
-0.250257
  0
VERTEX
  8
0
 10
123.882417
 20
581.746920
 42
-0.006399
  0
VERTEX
  8
0
 10
119.971134
 20
587.842681
 42
-0.013851
  0
VERTEX
  8
0
 10
116.372381
 20
593.985097
 42
-0.039489
  0
VERTEX
  8
0
 10
114.338040
 20
598.500000
 42
-0.064918
  0
VERTEX
  8
0
 10
113.104995
 20
604.153265
 42
-0.015384
  0
VERTEX
  8
0
 10
112.579944
 20
613.807958
 42
-0.008604
  0
VERTEX
  8
0
 10
112.517061
 20
623.699114
 42
-0.250183
  0
VERTEX
  8
0
 10
113.693521
 20
625.846729
 42
0.101315
  0
VERTEX
  8
0
 10
114.120527
 20
626.270236
 42
0.030284
  0
VERTEX
  8
0
 10
114.584144
 20
627.066933
 42
0.029004
  0
VERTEX
  8
0
 10
115.008112
 20
628.046467
 42
0.027720
  0
VERTEX
  8
0
 10
115.323230
 20
629.083258
 42
-0.061371
  0
VERTEX
  8
0
 10
116.960190
 20
633.403028
 42
-0.031372
  0
VERTEX
  8
0
 10
119.983355
 20
638.361306
 42
-0.026292
  0
VERTEX
  8
0
 10
124.290707
 20
643.878938
 42
-0.016125
  0
VERTEX
  8
0
 10
129.901725
 20
649.930392
 42
-0.005752
  0
VERTEX
  8
0
 10
133.450283
 20
653.436599
 42
-0.006144
  0
VERTEX
  8
0
 10
137.002382
 20
656.783096
 42
-0.005860
  0
VERTEX
  8
0
 10
140.123833
 20
659.585526
 42
-0.028391
  0
VERTEX
  8
0
 10
142.000000
 20
661.051000
 42
0.011702
  0
VERTEX
  8
0
 10
143.553057
 20
662.182754
 42
0.007161
  0
VERTEX
  8
0
 10
145.333413
 20
663.585940
 42
0.007177
  0
VERTEX
  8
0
 10
147.057532
 20
665.026827
 42
0.012660
  0
VERTEX
  8
0
 10
148.432896
 20
666.272155
 42
-0.007816
  0
VERTEX
  8
0
 10
149.766268
 20
667.503178
 42
-0.004966
  0
VERTEX
  8
0
 10
151.355181
 20
668.896606
 42
-0.004987
  0
VERTEX
  8
0
 10
152.942205
 20
670.233441
 42
-0.009208
  0
VERTEX
  8
0
 10
154.262566
 20
671.283049
 42
0.013570
  0
VERTEX
  8
0
 10
155.743045
 20
672.481162
 42
0.004032
  0
VERTEX
  8
0
 10
157.940073
 20
674.390958
 42
0.004042
  0
VERTEX
  8
0
 10
160.374851
 20
676.577430
 42
0.004353
  0
VERTEX
  8
0
 10
162.713931
 20
678.750000
 42
-0.007210
  0
VERTEX
  8
0
 10
164.904743
 20
680.761662
 42
-0.010635
  0
VERTEX
  8
0
 10
166.889691
 20
682.457813
 42
-0.006185
  0
VERTEX
  8
0
 10
168.591036
 20
683.815331
 42
-0.166795
  0
VERTEX
  8
0
 10
169.129215
 20
684.000000
 42
0.167848
  0
VERTEX
  8
0
 10
169.657453
 20
684.182468
 42
0.007439
  0
VERTEX
  8
0
 10
171.185848
 20
685.418597
 42
0.011856
  0
VERTEX
  8
0
 10
172.969709
 20
686.978931
 42
0.008127
  0
VERTEX
  8
0
 10
174.921888
 20
688.829268
 42
-0.005855
  0
VERTEX
  8
0
 10
177.040449
 20
690.855666
 42
-0.004942
  0
VERTEX
  8
0
 10
179.328016
 20
692.951028
 42
-0.004988
  0
VERTEX
  8
0
 10
181.452663
 20
694.820939
 42
-0.013815
  0
VERTEX
  8
0
 10
182.995715
 20
696.079268
 42
0.010502
  0
VERTEX
  8
0
 10
184.552318
 20
697.331568
 42
0.003734
  0
VERTEX
  8
0
 10
186.725466
 20
699.184222
 42
0.003704
  0
VERTEX
  8
0
 10
189.081332
 20
701.253947
 42
0.004358
  0
VERTEX
  8
0
 10
191.280785
 20
703.250000
 42
-0.006881
  0
VERTEX
  8
0
 10
193.306809
 20
705.070106
 42
-0.010180
  0
VERTEX
  8
0
 10
195.136929
 20
706.604687
 42
-0.005763
  0
VERTEX
  8
0
 10
196.705651
 20
707.837083
 42
-0.165069
  0
VERTEX
  8
0
 10
197.185688
 20
708.000000
 42
0.171468
  0
VERTEX
  8
0
 10
197.654038
 20
708.165480
 42
0.007065
  0
VERTEX
  8
0
 10
199.045500
 20
709.321875
 42
0.011581
  0
VERTEX
  8
0
 10
200.667859
 20
710.775766
 42
0.007888
  0
VERTEX
  8
0
 10
202.447368
 20
712.500000
 42
-0.005930
  0
VERTEX
  8
0
 10
204.213300
 20
714.224531
 42
-0.008986
  0
VERTEX
  8
0
 10
205.793451
 20
715.678125
 42
-0.004398
  0
VERTEX
  8
0
 10
207.155915
 20
716.865735
 42
-0.178908
  0
VERTEX
  8
0
 10
207.519139
 20
717.000000
 42
0.152153
  0
VERTEX
  8
0
 10
207.854696
 20
717.104532
 42
0.011946
  0
VERTEX
  8
0
 10
208.621246
 20
717.660938
 42
0.015393
  0
VERTEX
  8
0
 10
209.515855
 20
718.388143
 42
0.011149
  0
VERTEX
  8
0
 10
210.468083
 20
719.250000
 42
-0.006489
  0
VERTEX
  8
0
 10
213.505225
 20
722.050843
 42
-0.007365
  0
VERTEX
  8
0
 10
216.489889
 20
724.654038
 42
-0.007550
  0
VERTEX
  8
0
 10
219.480053
 20
727.108915
 42
-0.007623
  0
VERTEX
  8
0
 10
222.533550
 20
729.464397
 42
0.012137
  0
VERTEX
  8
0
 10
224.305757
 20
730.857180
 42
0.007101
  0
VERTEX
  8
0
 10
226.362980
 20
732.606052
 42
0.007098
  0
VERTEX
  8
0
 10
228.372992
 20
734.415575
 42
0.011961
  0
VERTEX
  8
0
 10
230.000000
 20
735.996624
 42
-0.012943
  0
VERTEX
  8
0
 10
231.594810
 20
737.540311
 42
-0.008581
  0
VERTEX
  8
0
 10
233.500000
 20
739.231846
 42
-0.008639
  0
VERTEX
  8
0
 10
235.408346
 20
740.812099
 42
-0.016602
  0
VERTEX
  8
0
 10
237.000000
 20
742.000000
 42
0.017750
  0
VERTEX
  8
0
 10
238.603049
 20
743.202146
 42
0.008835
  0
VERTEX
  8
0
 10
240.550407
 20
744.831133
 42
0.008758
  0
VERTEX
  8
0
 10
242.510679
 20
746.591768
 42
0.012732
  0
VERTEX
  8
0
 10
244.171599
 20
748.217773
 42
-0.006916
  0
VERTEX
  8
0
 10
245.618032
 20
749.667128
 42
-0.010346
  0
VERTEX
  8
0
 10
246.924643
 20
750.888971
 42
-0.005664
  0
VERTEX
  8
0
 10
248.048696
 20
751.874574
 42
-0.179010
  0
VERTEX
  8
0
 10
248.387801
 20
752.000000
 42
0.164860
  0
VERTEX
  8
0
 10
248.736960
 20
752.118341
 42
0.004705
  0
VERTEX
  8
0
 10
249.996089
 20
753.101562
 42
0.009075
  0
VERTEX
  8
0
 10
251.462299
 20
754.312984
 42
0.006064
  0
VERTEX
  8
0
 10
253.098064
 20
755.750000
 42
-0.001846
  0
VERTEX
  8
0
 10
257.091274
 20
759.318157
 42
-0.004922
  0
VERTEX
  8
0
 10
259.974097
 20
761.824777
 42
-0.006276
  0
VERTEX
  8
0
 10
262.464349
 20
763.893970
 42
-0.005458
  0
VERTEX
  8
0
 10
265.123491
 20
766.000000
 42
0.009021
  0
VERTEX
  8
0
 10
266.624864
 20
767.206589
 42
0.004427
  0
VERTEX
  8
0
 10
268.494501
 20
768.793750
 42
0.004391
  0
VERTEX
  8
0
 10
270.408415
 20
770.477464
 42
0.006368
  0
VERTEX
  8
0
 10
272.065808
 20
772.000000
 42
-0.005123
  0
VERTEX
  8
0
 10
275.359601
 20
775.040940
 42
-0.012223
  0
VERTEX
  8
0
 10
277.882526
 20
777.213036
 42
-0.010331
  0
VERTEX
  8
0
 10
279.823110
 20
778.736955
 42
-0.162674
  0
VERTEX
  8
0
 10
280.610221
 20
779.000000
 42
0.173107
  0
VERTEX
  8
0
 10
280.958911
 20
779.124451
 42
0.009710
  0
VERTEX
  8
0
 10
281.848254
 20
779.881250
 42
0.014007
  0
VERTEX
  8
0
 10
282.883648
 20
780.850637
 42
0.009735
  0
VERTEX
  8
0
 10
284.000000
 20
782.000000
 42
-0.010355
  0
VERTEX
  8
0
 10
285.119072
 20
783.149307
 42
-0.014760
  0
VERTEX
  8
0
 10
286.162834
 20
784.118750
 42
-0.010651
  0
VERTEX
  8
0
 10
287.059731
 20
784.870646
 42
-0.170725
  0
VERTEX
  8
0
 10
287.427526
 20
785.000000
 42
0.172714
  0
VERTEX
  8
0
 10
287.820751
 20
785.140007
 42
0.005418
  0
VERTEX
  8
0
 10
289.150318
 20
786.248438
 42
0.009976
  0
VERTEX
  8
0
 10
290.697757
 20
787.621407
 42
0.006681
  0
VERTEX
  8
0
 10
292.414543
 20
789.250000
 42
-0.006310
  0
VERTEX
  8
0
 10
294.294285
 20
791.035834
 42
-0.005254
  0
VERTEX
  8
0
 10
296.335789
 20
792.887432
 42
-0.005307
  0
VERTEX
  8
0
 10
298.240627
 20
794.543111
 42
-0.014334
  0
VERTEX
  8
0
 10
299.638228
 20
795.664663
 42
0.009957
  0
VERTEX
  8
0
 10
304.376002
 20
799.398953
 42
0.005911
  0
VERTEX
  8
0
 10
309.878980
 20
804.026859
 42
0.005829
  0
VERTEX
  8
0
 10
315.431981
 20
808.923956
 42
0.007812
  0
VERTEX
  8
0
 10
320.344057
 20
813.500000
 42
-0.008178
  0
VERTEX
  8
0
 10
322.262802
 20
815.284858
 42
-0.004857
  0
VERTEX
  8
0
 10
324.604141
 20
817.351635
 42
-0.004860
  0
VERTEX
  8
0
 10
326.979644
 20
819.367809
 42
-0.008351
  0
VERTEX
  8
0
 10
329.002747
 20
820.994928
 42
0.006644
  0
VERTEX
  8
0
 10
332.282409
 20
823.614271
 42
0.005170
  0
VERTEX
  8
0
 10
335.780521
 20
826.546096
 42
0.005272
  0
VERTEX
  8
0
 10
339.043784
 20
829.399192
 42
0.010340
  0
VERTEX
  8
0
 10
341.568920
 20
831.750000
 42
-0.034287
  0
VERTEX
  8
0
 10
342.134780
 20
832.228355
 42
-0.032779
  0
VERTEX
  8
0
 10
342.768980
 20
832.632812
 42
-0.034519
  0
VERTEX
  8
0
 10
343.376253
 20
832.913652
 42
-0.091292
  0
VERTEX
  8
0
 10
343.845238
 20
833.000000
 42
0.074516
  0
VERTEX
  8
0
 10
344.247891
 20
833.060343
 42
0.062934
  0
VERTEX
  8
0
 10
344.640997
 20
833.237412
 42
0.064946
  0
VERTEX
  8
0
 10
344.965592
 20
833.499166
 42
0.093087
  0
VERTEX
  8
0
 10
345.166667
 20
833.808212
 42
-0.141657
  0
VERTEX
  8
0
 10
346.104840
 20
834.986040
 42
-0.006924
  0
VERTEX
  8
0
 10
350.254060
 20
837.842291
 42
-0.006936
  0
VERTEX
  8
0
 10
354.480257
 20
840.582054
 42
-0.141252
  0
VERTEX
  8
0
 10
355.930175
 20
841.000000
 42
0.092354
  0
VERTEX
  8
0
 10
356.338573
 20
841.076083
 42
0.096121
  0
VERTEX
  8
0
 10
356.685739
 20
841.293750
 42
0.099350
  0
VERTEX
  8
0
 10
356.918075
 20
841.618457
 42
0.106151
  0
VERTEX
  8
0
 10
357.000000
 20
842.000000
 42
-0.191087
  0
VERTEX
  8
0
 10
357.151477
 20
842.381882
 42
-0.088204
  0
VERTEX
  8
0
 10
357.587500
 20
842.706250
 42
-0.068025
  0
VERTEX
  8
0
 10
358.234582
 20
842.926307
 42
-0.048028
  0
VERTEX
  8
0
 10
359.000000
 20
843.000000
 42
0.048028
  0
VERTEX
  8
0
 10
359.765418
 20
843.073693
 42
0.068025
  0
VERTEX
  8
0
 10
360.412500
 20
843.293750
 42
0.088204
  0
VERTEX
  8
0
 10
360.848523
 20
843.618118
 42
0.191087
  0
VERTEX
  8
0
 10
361.000000
 20
844.000000
 42
-0.191087
  0
VERTEX
  8
0
 10
361.151477
 20
844.381882
 42
-0.088204
  0
VERTEX
  8
0
 10
361.587500
 20
844.706250
 42
-0.068025
  0
VERTEX
  8
0
 10
362.234582
 20
844.926307
 42
-0.048028
  0
VERTEX
  8
0
 10
363.000000
 20
845.000000
 42
0.044875
  0
VERTEX
  8
0
 10
363.765570
 20
845.068849
 42
0.064741
  0
VERTEX
  8
0
 10
364.412500
 20
845.275138
 42
0.084664
  0
VERTEX
  8
0
 10
364.849737
 20
845.578725
 42
0.201399
  0
VERTEX
  8
0
 10
365.000000
 20
845.936642
 42
-0.342707
  0
VERTEX
  8
0
 10
365.658058
 20
846.783970
 42
-0.030672
  0
VERTEX
  8
0
 10
368.483189
 20
847.323843
 42
-0.029005
  0
VERTEX
  8
0
 10
372.387674
 20
847.595649
 42
-0.015906
  0
VERTEX
  8
0
 10
377.182373
 20
847.498299
 42
-0.019307
  0
VERTEX
  8
0
 10
380.399296
 20
847.205655
 42
-0.063851
  0
VERTEX
  8
0
 10
382.452963
 20
846.666236
 42
-0.071893
  0
VERTEX
  8
0
 10
384.172075
 20
845.663758
 42
-0.029114
  0
SEQEND
  0
POLYLINE
  8
0
 66
1
 70
1
  0
VERTEX
  8
0
 10
72.250000
 20
554.245071
 42
-0.021325
  0
VERTEX
  8
0
 10
73.303686
 20
554.017568
 42
-0.032447
  0
VERTEX
  8
0
 10
74.192188
 20
553.722970
 42
-0.033970
  0
VERTEX
  8
0
 10
74.839340
 20
553.408005
 42
-0.268683
  0
VERTEX
  8
0
 10
75.000000
 20
553.130612
 42
0.222913
  0
VERTEX
  8
0
 10
75.148697
 20
552.813654
 42
0.024503
  0
VERTEX
  8
0
 10
75.807812
 20
552.318297
 42
0.026198
  0
VERTEX
  8
0
 10
76.696539
 20
551.781801
 42
0.018231
  0
VERTEX
  8
0
 10
77.750000
 20
551.267362
 42
-0.085359
  0
VERTEX
  8
0
 10
81.377916
 20
548.848154
 42
-0.004360
  0
VERTEX
  8
0
 10
91.597720
 20
538.994831
 42
-0.002349
  0
VERTEX
  8
0
 10
102.151337
 20
528.542810
 42
-0.198948
  0
VERTEX
  8
0
 10
103.000000
 20
526.494358
 42
0.179283
  0
VERTEX
  8
0
 10
103.124297
 20
526.158850
 42
0.002113
  0
VERTEX
  8
0
 10
104.689063
 20
524.352364
 42
0.006061
  0
VERTEX
  8
0
 10
106.546055
 20
522.278021
 42
0.003883
  0
VERTEX
  8
0
 10
108.750000
 20
519.912515
 42
-0.004988
  0
VERTEX
  8
0
 10
111.019195
 20
517.466162
 42
-0.006169
  0
VERTEX
  8
0
 10
113.081535
 20
515.140843
 42
-0.005136
  0
VERTEX
  8
0
 10
114.766488
 20
513.152228
 42
-0.044939
  0
VERTEX
  8
0
 10
115.421183
 20
512.201062
 42
0.053539
  0
VERTEX
  8
0
 10
116.110416
 20
511.235613
 42
0.004998
  0
VERTEX
  8
0
 10
118.077733
 20
509.067867
 42
0.006377
  0
VERTEX
  8
0
 10
120.488696
 20
506.529771
 42
0.004969
  0
VERTEX
  8
0
 10
123.171183
 20
503.831178
 42
-0.006014
  0
VERTEX
  8
0
 10
125.788182
 20
501.187434
 42
-0.009112
  0
VERTEX
  8
0
 10
127.994035
 20
498.819913
 42
-0.004489
  0
VERTEX
  8
0
 10
129.795053
 20
496.778275
 42
-0.180390
  0
VERTEX
  8
0
 10
130.000000
 20
496.228695
 42
0.170061
  0
VERTEX
  8
0
 10
130.193195
 20
495.677106
 42
0.004931
  0
VERTEX
  8
0
 10
131.782146
 20
493.726838
 42
0.009414
  0
VERTEX
  8
0
 10
133.742016
 20
491.457484
 42
0.006284
  0
VERTEX
  8
0
 10
136.066879
 20
488.930421
 42
-0.003639
  0
VERTEX
  8
0
 10
138.659388
 20
486.142179
 42
-0.002849
  0
VERTEX
  8
0
 10
141.433529
 20
483.079855
 42
-0.002880
  0
VERTEX
  8
0
 10
143.982805
 20
480.200125
 42
-0.007043
  0
VERTEX
  8
0
 10
145.816879
 20
478.043553
 42
0.009749
  0
VERTEX
  8
0
 10
147.693469
 20
475.861038
 42
0.003672
  0
VERTEX
  8
0
 10
150.400896
 20
472.878080
 42
0.003636
  0
VERTEX
  8
0
 10
153.395753
 20
469.673822
 42
0.004418
  0
VERTEX
  8
0
 10
156.250000
 20
466.716952
 42
-0.005352
  0
VERTEX
  8
0
 10
158.836913
 20
464.026995
 42
-0.008174
  0
VERTEX
  8
0
 10
161.017188
 20
461.633541
 42
-0.003701
  0
VERTEX
  8
0
 10
162.812913
 20
459.565661
 42
-0.178787
  0
VERTEX
  8
0
 10
163.000000
 20
459.059174
 42
0.170098
  0
VERTEX
  8
0
 10
163.175123
 20
458.559299
 42
0.005018
  0
VERTEX
  8
0
 10
164.603796
 20
456.806892
 42
0.009508
  0
VERTEX
  8
0
 10
166.367541
 20
454.767437
 42
0.006353
  0
VERTEX
  8
0
 10
168.459729
 20
452.497858
 42
-0.003003
  0
VERTEX
  8
0
 10
170.827172
 20
449.963964
 42
-0.002190
  0
VERTEX
  8
0
 10
173.429055
 20
447.120521
 42
-0.002212
  0
VERTEX
  8
0
 10
175.872278
 20
444.402815
 42
-0.004871
  0
VERTEX
  8
0
 10
177.709729
 20
442.299767
 42
0.004897
  0
VERTEX
  8
0
 10
179.549754
 20
440.193995
 42
0.002209
  0
VERTEX
  8
0
 10
182.002233
 20
437.466530
 42
0.002187
  0
VERTEX
  8
0
 10
184.617103
 20
434.609387
 42
0.002985
  0
VERTEX
  8
0
 10
187.000000
 20
432.059177
 42
-0.003347
  0
VERTEX
  8
0
 10
191.239904
 20
427.514982
 42
-0.011229
  0
VERTEX
  8
0
 10
193.929198
 20
424.458759
 42
-0.010992
  0
VERTEX
  8
0
 10
195.689598
 20
422.269233
 42
-0.165280
  0
VERTEX
  8
0
 10
196.000000
 20
421.355864
 42
0.203394
  0
VERTEX
  8
0
 10
196.360427
 20
420.506485
 42
0.016604
  0
VERTEX
  8
0
 10
198.190866
 20
418.851949
 42
0.018265
  0
VERTEX
  8
0
 10
200.125694
 20
417.334018
 42
0.158485
  0
VERTEX
  8
0
 10
201.153010
 20
417.000000
 42
-0.145419
  0
VERTEX
  8
0
 10
201.476857
 20
416.903778
 42
-0.098269
  0
VERTEX
  8
0
 10
201.754329
 20
416.632812
 42
-0.082597
  0
VERTEX
  8
0
 10
201.943267
 20
416.227847
 42
-0.065890
  0
VERTEX
  8
0
 10
202.010665
 20
415.750000
 42
0.142185
  0
VERTEX
  8
0
 10
202.229653
 20
415.018850
 42
0.012375
  0
VERTEX
  8
0
 10
203.334038
 20
413.398438
 42
0.015481
  0
VERTEX
  8
0
 10
204.784286
 20
411.506256
 42
0.011410
  0
VERTEX
  8
0
 10
206.500787
 20
409.500000
 42
0.003313
  0
VERTEX
  8
0
 10
211.134648
 20
404.396105
 42
0.001073
  0
VERTEX
  8
0
 10
218.057695
 20
396.903932
 42
0.001072
  0
VERTEX
  8
0
 10
225.011735
 20
389.442692
 42
0.003322
  0
VERTEX
  8
0
 10
229.750000
 20
384.447575
 42
-0.010737
  0
VERTEX
  8
0
 10
230.995044
 20
383.095433
 42
-0.014956
  0
VERTEX
  8
0
 10
232.045671
 20
381.829704
 42
-0.011324
  0
VERTEX
  8
0
 10
232.853444
 20
380.745335
 42
-0.155239
  0
VERTEX
  8
0
 10
233.001221
 20
380.283333
 42
0.135662
  0
VERTEX
  8
0
 10
233.127253
 20
379.830129
 42
0.013675
  0
VERTEX
  8
0
 10
233.736100
 20
378.876602
 42
0.016353
  0
VERTEX
  8
0
 10
234.544134
 20
377.764432
 42
0.012314
  0
VERTEX
  8
0
 10
235.501221
 20
376.594461
 42
-0.012177
  0
VERTEX
  8
0
 10
236.458232
 20
375.425237
 42
-0.016222
  0
VERTEX
  8
0
 10
237.265984
 20
374.315346
 42
-0.013482
  0
VERTEX
  8
0
 10
237.875256
 20
373.364215
 42
-0.136529
  0
VERTEX
  8
0
 10
238.000000
 20
372.915889
 42
0.105367
  0
VERTEX
  8
0
 10
238.082069
 20
372.530773
 42
0.029547
  0
VERTEX
  8
0
 10
238.367188
 20
371.981766
 42
0.028404
  0
VERTEX
  8
0
 10
238.771581
 20
371.384103
 42
0.026498
  0
VERTEX
  8
0
 10
239.250000
 20
370.821429
 42
-0.108474
  0
VERTEX
  8
0
 10
241.123909
 20
367.706060
 42
-0.013216
  0
VERTEX
  8
0
 10
243.487150
 20
360.039012
 42
-0.016283
  0
VERTEX
  8
0
 10
245.425782
 20
352.117087
 42
-0.051539
  0
VERTEX
  8
0
 10
245.994423
 20
346.692820
 42
-0.033537
  0
VERTEX
  8
0
 10
245.764454
 20
343.191405
 42
-0.016004
  0
VERTEX
  8
0
 10
245.024620
 20
338.738394
 42
-0.015131
  0
VERTEX
  8
0
 10
244.047012
 20
334.504089
 42
-0.056860
  0
VERTEX
  8
0
 10
243.060821
 20
331.967177
 42
0.033024
  0
VERTEX
  8
0
 10
242.702777
 20
331.161811
 42
0.010980
  0
VERTEX
  8
0
 10
242.283656
 20
329.939575
 42
0.010876
  0
VERTEX
  8
0
 10
241.877408
 20
328.561310
 42
0.012171
  0
VERTEX
  8
0
 10
241.547700
 20
327.217177
 42
-0.025654
  0
VERTEX
  8
0
 10
241.209960
 20
325.984861
 42
-0.037381
  0
VERTEX
  8
0
 10
240.778246
 20
324.945046
 42
-0.041716
  0
VERTEX
  8
0
 10
240.321324
 20
324.202518
 42
-0.238307
  0
VERTEX
  8
0
 10
239.920545
 20
324.000000
 42
0.164379
  0
VERTEX
  8
0
 10
239.569390
 20
323.881349
 42
0.095765
  0
VERTEX
  8
0
 10
239.270410
 20
323.546023
 42
0.076878
  0
VERTEX
  8
0
 10
239.068369
 20
323.045645
 42
0.057640
  0
VERTEX
  8
0
 10
239.000000
 20
322.454545
 42
-0.107455
  0
VERTEX
  8
0
 10
238.834386
 20
321.692819
 42
-0.031350
  0
VERTEX
  8
0
 10
238.265625
 20
320.628693
 42
-0.029931
  0
VERTEX
  8
0
 10
237.456807
 20
319.479735
 42
-0.028052
  0
VERTEX
  8
0
 10
236.500000
 20
318.409091
 42
0.016404
  0
VERTEX
  8
0
 10
235.542694
 20
317.386822
 42
0.021019
  0
VERTEX
  8
0
 10
234.734375
 20
316.382648
 42
0.019440
  0
VERTEX
  8
0
 10
234.139024
 20
315.506519
 42
0.140406
  0
VERTEX
  8
0
 10
234.000000
 20
315.021200
 42
-0.193849
  0
VERTEX
  8
0
 10
233.390645
 20
313.508538
 42
-0.006566
  0
VERTEX
  8
0
 10
228.791284
 20
308.850220
 42
-0.013143
  0
VERTEX
  8
0
 10
223.737584
 20
304.119986
 42
-0.018844
  0
VERTEX
  8
0
 10
219.000000
 20
300.222766
 42
0.002312
  0
VERTEX
  8
0
 10
212.595644
 20
295.300157
 42
0.008666
  0
VERTEX
  8
0
 10
208.642955
 20
292.121536
 42
0.012868
  0
VERTEX
  8
0
 10
205.682821
 20
289.523498
 42
0.012471
  0
VERTEX
  8
0
 10
202.828401
 20
286.750000
 42
-0.013940
  0
VERTEX
  8
0
 10
201.341572
 20
285.313788
 42
-0.018653
  0
VERTEX
  8
0
 10
199.910823
 20
284.101562
 42
-0.016039
  0
VERTEX
  8
0
 10
198.673528
 20
283.192729
 42
-0.151507
  0
VERTEX
  8
0
 10
198.052085
 20
283.000000
 42
0.155070
  0
VERTEX
  8
0
 10
197.413130
 20
282.796952
 42
0.013144
  0
VERTEX
  8
0
 10
196.013927
 20
281.751562
 42
0.016442
  0
VERTEX
  8
0
 10
194.385804
 20
280.377903
 42
0.011973
  0
VERTEX
  8
0
 10
192.664978
 20
278.750000
 42
-0.008805
  0
VERTEX
  8
0
 10
190.813582
 20
276.976219
 42
-0.007399
  0
VERTEX
  8
0
 10
188.791598
 20
275.160938
 42
-0.007479
  0
VERTEX
  8
0
 10
186.895445
 20
273.557898
 42
-0.020380
  0
VERTEX
  8
0
 10
185.492573
 20
272.500000
 42
0.015782
  0
VERTEX
  8
0
 10
184.167382
 20
271.519658
 42
0.007940
  0
VERTEX
  8
0
 10
182.555188
 20
270.204255
 42
0.007877
  0
VERTEX
  8
0
 10
180.930138
 20
268.790436
 42
0.011576
  0
VERTEX
  8
0
 10
179.551280
 20
267.493208
 42
-0.012918
  0
VERTEX
  8
0
 10
178.129916
 20
266.163165
 42
-0.007620
  0
VERTEX
  8
0
 10
176.368188
 20
264.645397
 42
-0.007620
  0
VERTEX
  8
0
 10
174.561216
 20
263.182179
 42
-0.012930
  0
VERTEX
  8
0
 10
173.000000
 20
262.020839
 42
0.019740
  0
VERTEX
  8
0
 10
171.331764
 20
260.744243
 42
0.007942
  0
VERTEX
  8
0
 10
169.151884
 20
258.876096
 42
0.007845
  0
VERTEX
  8
0
 10
166.864993
 20
256.787478
 42
0.009844
  0
VERTEX
  8
0
 10
164.814924
 20
254.777631
 42
-0.011204
  0
VERTEX
  8
0
 10
162.937967
 20
252.947486
 42
-0.015646
  0
VERTEX
  8
0
 10
161.174196
 20
251.403429
 42
-0.011977
  0
VERTEX
  8
0
 10
159.659424
 20
250.218482
 42
-0.161348
  0
VERTEX
  8
0
 10
159.000000
 20
250.000000
 42
0.160615
  0
VERTEX
  8
0
 10
158.340302
 20
249.782474
 42
0.011981
  0
VERTEX
  8
0
 10
156.825804
 20
248.604688
 42
0.015632
  0
VERTEX
  8
0
 10
155.062030
 20
247.069553
 42
0.011205
  0
VERTEX
  8
0
 10
153.185076
 20
245.250000
 42
-0.009427
  0
VERTEX
  8
0
 10
151.099130
 20
243.213414
 42
-0.006814
  0
VERTEX
  8
0
 10
148.701241
 20
241.019768
 42
-0.006885
  0
VERTEX
  8
0
 10
146.364682
 20
238.996973
 42
-0.014849
  0
VERTEX
  8
0
 10
144.500000
 20
237.519425
 42
0.010604
  0
VERTEX
  8
0
 10
142.729861
 20
236.141088
 42
0.006598
  0
VERTEX
  8
0
 10
140.710521
 20
234.454000
 42
0.006619
  0
VERTEX
  8
0
 10
138.761857
 20
232.736498
 42
0.011903
  0
VERTEX
  8
0
 10
137.216667
 20
231.269425
 42
-0.011729
  0
VERTEX
  8
0
 10
135.898568
 20
230.017091
 42
-0.016179
  0
VERTEX
  8
0
 10
134.654161
 20
228.960393
 42
-0.012778
  0
VERTEX
  8
0
 10
133.585175
 20
228.154315
 42
-0.156391
  0
VERTEX
  8
0
 10
133.103882
 20
228.000000
 42
0.176180
  0
VERTEX
  8
0
 10
132.574282
 20
227.807412
 42
0.004274
  0
VERTEX
  8
0
 10
130.561138
 20
226.090625
 42
0.008800
  0
VERTEX
  8
0
 10
128.225600
 20
223.990988
 42
0.005809
  0
VERTEX
  8
0
 10
125.612495
 20
221.500000
 42
-0.004931
  0
VERTEX
  8
0
 10
123.006827
 20
219.007349
 42
-0.007544
  0
VERTEX
  8
0
 10
120.694452
 20
216.903199
 42
-0.003273
  0
VERTEX
  8
0
 10
118.694112
 20
215.160573
 42
-0.171948
  0
VERTEX
  8
0
 10
118.225280
 20
214.978977
 42
0.164599
  0
VERTEX
  8
0
 10
117.763567
 20
214.807686
 42
0.004555
  0
VERTEX
  8
0
 10
116.094202
 20
213.428117
 42
0.008908
  0
VERTEX
  8
0
 10
114.153426
 20
211.734285
 42
0.005943
  0
VERTEX
  8
0
 10
111.989024
 20
209.728977
 42
-0.006149
  0
VERTEX
  8
0
 10
109.551147
 20
207.472168
 42
-0.004432
  0
VERTEX
  8
0
 10
106.778246
 20
205.012112
 42
-0.004477
  0
VERTEX
  8
0
 10
104.099256
 20
202.719356
 42
-0.009671
  0
VERTEX
  8
0
 10
101.989024
 20
201.014382
 42
0.002991
  0
VERTEX
  8
0
 10
100.173503
 20
199.587184
 42
0.003280
  0
VERTEX
  8
0
 10
98.430481
 20
198.181253
 42
0.003064
  0
VERTEX
  8
0
 10
96.955503
 20
196.960312
 42
0.016443
  0
VERTEX
  8
0
 10
96.178571
 20
196.264382
 42
-0.026529
  0
VERTEX
  8
0
 10
95.615897
 20
195.780458
 42
-0.028540
  0
VERTEX
  8
0
 10
95.018234
 20
195.371412
 42
-0.029699
  0
VERTEX
  8
0
 10
94.469179
 20
195.082953
 42
-0.106490
  0
VERTEX
  8
0
 10
94.084111
 20
195.000000
 42
0.136529
  0
VERTEX
  8
0
 10
93.635785
 20
194.875256
 42
0.013482
  0
VERTEX
  8
0
 10
92.684654
 20
194.265984
 42
0.016222
  0
VERTEX
  8
0
 10
91.574763
 20
193.458232
 42
0.012177
  0
VERTEX
  8
0
 10
90.405539
 20
192.501221
 42
-0.019441
  0
VERTEX
  8
0
 10
89.201467
 20
191.544549
 42
-0.022734
  0
VERTEX
  8
0
 10
87.986315
 20
190.736100
 42
-0.022469
  0
VERTEX
  8
0
 10
86.911510
 20
190.153571
 42
-0.113170
  0
VERTEX
  8
0
 10
86.250000
 20
190.001221
 42
0.078495
  0
VERTEX
  8
0
 10
85.772496
 20
189.925315
 42
0.090501
  0
VERTEX
  8
0
 10
85.367188
 20
189.706609
 42
0.100671
  0
VERTEX
  8
0
 10
85.096215
 20
189.381478
 42
0.124164
  0
VERTEX
  8
0
 10
85.000000
 20
189.000000
 42
-0.191087
  0
VERTEX
  8
0
 10
84.848523
 20
188.618118
 42
-0.088204
  0
VERTEX
  8
0
 10
84.412500
 20
188.293750
 42
-0.068025
  0
VERTEX
  8
0
 10
83.765418
 20
188.073693
 42
-0.048028
  0
VERTEX
  8
0
 10
83.000000
 20
188.000000
 42
0.048028
  0
VERTEX
  8
0
 10
82.234582
 20
187.926307
 42
0.068025
  0
VERTEX
  8
0
 10
81.587500
 20
187.706250
 42
0.088204
  0
VERTEX
  8
0
 10
81.151477
 20
187.381882
 42
0.191087
  0
VERTEX
  8
0
 10
81.000000
 20
187.000000
 42
-0.254951
  0
VERTEX
  8
0
 10
80.790443
 20
186.615738
 42
-0.062710
  0
VERTEX
  8
0
 10
80.118750
 20
186.293750
 42
-0.048861
  0
VERTEX
  8
0
 10
79.149251
 20
186.072766
 42
-0.031626
  0
VERTEX
  8
0
 10
78.000000
 20
186.000000
 42
0.031626
  0
VERTEX
  8
0
 10
76.850749
 20
185.927234
 42
0.048861
  0
VERTEX
  8
0
 10
75.881250
 20
185.706250
 42
0.062710
  0
VERTEX
  8
0
 10
75.209557
 20
185.384262
 42
0.254951
  0
VERTEX
  8
0
 10
75.000000
 20
185.000000
 42
-0.332234
  0
VERTEX
  8
0
 10
74.707933
 20
184.608967
 42
-0.026982
  0
VERTEX
  8
0
 10
73.384375
 20
184.293750
 42
-0.027868
  0
VERTEX
  8
0
 10
71.608340
 20
184.072146
 42
-0.017105
  0
VERTEX
  8
0
 10
69.500000
 20
184.000000
 42
-0.017105
  0
VERTEX
  8
0
 10
67.391660
 20
184.072146
 42
-0.027868
  0
VERTEX
  8
0
 10
65.615625
 20
184.293750
 42
-0.026982
  0
VERTEX
  8
0
 10
64.292067
 20
184.608967
 42
-0.332234
  0
VERTEX
  8
0
 10
64.000000
 20
185.000000
 42
0.168810
  0
VERTEX
  8
0
 10
63.866403
 20
185.384426
 42
0.092041
  0
VERTEX
  8
0
 10
63.485937
 20
185.716976
 42
0.073593
  0
VERTEX
  8
0
 10
62.919419
 20
185.948398
 42
0.055063
  0
VERTEX
  8
0
 10
62.250000
 20
186.036512
 42
-0.201332
  0
VERTEX
  8
0
 10
60.790769
 20
186.685042
 42
-0.029197
  0
VERTEX
  8
0
 10
58.658189
 20
189.233163
 42
-0.027216
  0
VERTEX
  8
0
 10
56.240473
 20
192.890915
 42
-0.015236
  0
VERTEX
  8
0
 10
53.687127
 20
197.574010
 42
-0.087384
  0
VERTEX
  8
0
 10
51.438932
 20
204.989267
 42
-0.018232
  0
VERTEX
  8
0
 10
50.299870
 20
218.583990
 42
-0.008553
  0
VERTEX
  8
0
 10
49.582980
 20
242.451857
 42
-0.000929
  0
VERTEX
  8
0
 10
48.973926
 20
297.500000
 42
0.000101
  0
VERTEX
  8
0
 10
48.626871
 20
334.392213
 42
0.000067
  0
VERTEX
  8
0
 10
48.214273
 20
376.744414
 42
0.000067
  0
VERTEX
  8
0
 10
47.802462
 20
417.885364
 42
0.000131
  0
VERTEX
  8
0
 10
47.460852
 20
450.715027
 42
-0.000900
  0
VERTEX
  8
0
 10
47.034395
 20
498.811080
 42
-0.011236
  0
VERTEX
  8
0
 10
47.315156
 20
517.034708
 42
-0.029729
  0
VERTEX
  8
0
 10
48.403616
 20
528.183933
 42
-0.035183
  0
VERTEX
  8
0
 10
50.787475
 20
538.500000
 42
-0.040269
  0
VERTEX
  8
0
 10
53.023559
 20
544.132275
 42
-0.052200
  0
VERTEX
  8
0
 10
55.986156
 20
548.829157
 42
-0.058257
  0
VERTEX
  8
0
 10
59.531180
 20
552.388252
 42
-0.077221
  0
VERTEX
  8
0
 10
63.500000
 20
554.644129
 42
-0.028787
  0
VERTEX
  8
0
 10
64.758663
 20
555.040616
 42
-0.028457
  0
VERTEX
  8
0
 10
66.059375
 20
555.291728
 42
-0.029680
  0
VERTEX
  8
0
 10
67.219702
 20
555.378298
 42
-0.089338
  0
VERTEX
  8
0
 10
68.000000
 20
555.249909
 42
0.020070
  0
VERTEX
  8
0
 10
68.763308
 20
555.012832
 42
0.007211
  0
VERTEX
  8
0
 10
69.867188
 20
554.734971
 42
0.007139
  0
VERTEX
  8
0
 10
71.087165
 20
554.464861
 42
0.008402
  0
SEQEND
  0
ENDSEC
  0
EOF
